%
M48
M72
T01C0.0100
T02C0.0160
T03C0.0197
T04C0.0236
T05C0.0300
T06C0.0310
T07C0.0320
T08C0.0394
T09C0.0630
T10C0.0906
T11C0.1250
%
T01
X9277Y4850
X9277Y5550
X11227Y6100
X12137Y5740
X12477Y5580
X13137Y5370
X14207Y5230
X13667Y4460
X14877Y4000
X14877Y3700
X16437Y3800
X17027Y3800
X17627Y3810
X18907Y3830
X18907Y4090
X19407Y4380
X19407Y4820
X20107Y4790
X20787Y4680
X21057Y4680
X20917Y4260
X21307Y4070
X21687Y4070
X22017Y4790
X22867Y5070
X23187Y4950
X23627Y4370
X23617Y4070
X24057Y4680
X24317Y4680
X24827Y4070
X25057Y4200
X25297Y4310
X25297Y4680
X25697Y4680
X25977Y4970
X26337Y4880
X27037Y4880
X27267Y5190
X27237Y5700
X27507Y6350
X27767Y6350
X28027Y6350
X27377Y7370
X27067Y7370
X26797Y7380
X26507Y7370
X26127Y7290
X25897Y7600
X25627Y7550
X25497Y7240
X24787Y7370
X24467Y7370
X24207Y7370
X23947Y7370
X23687Y7370
X23137Y7370
X22947Y7070
X22637Y7420
X22827Y7610
X23127Y8110
X22367Y8030
X21987Y7820
X21747Y8010
X21747Y8390
X21557Y8570
X21367Y8750
X21167Y8570
X20827Y8870
X20567Y8930
X20097Y8310
X19857Y8190
X19607Y8070
X19077Y7950
X17097Y8890
X16357Y8940
X14997Y8900
X14877Y9140
X15067Y9380
X14457Y9280
X14277Y8620
X13577Y8270
X13577Y7790
X14027Y7700
X14337Y7330
X14897Y7310
X14997Y7610
X16047Y7680
X16047Y7410
X16447Y6410
X16207Y5410
X16207Y5130
X16427Y4490
X19887Y5760
X20977Y6000
X21477Y5960
X21377Y6420
X21787Y7200
X23737Y6430
X24107Y6430
X24887Y6410
X24887Y6080
X25897Y6030
X25977Y5410
X27727Y4680
X27727Y4310
X28117Y4680
X28517Y4680
X29297Y4680
X29697Y4680
X30117Y5360
X30117Y5620
X30747Y5810
X30117Y6000
X30117Y6260
X30077Y7400
X29617Y7400
X29157Y7400
X29257Y8060
X28627Y8230
X28297Y8550
X28087Y9050
X27627Y9370
X27947Y9550
X28477Y9550
X28307Y10050
X29127Y10370
X29077Y10630
X28627Y10870
X28117Y11550
X27617Y11550
X27117Y11560
X26627Y11560
X26607Y12050
X27117Y12050
X27127Y12480
X27627Y12470
X28127Y12430
X28117Y12050
X27617Y12060
X28627Y11930
X26617Y12550
X26617Y12900
X26127Y13130
X25677Y13610
X24697Y14080
X24807Y14550
X24457Y15050
X24127Y14870
X23627Y14870
X23137Y14690
X23137Y14430
X23137Y14170
X23137Y13910
X23137Y13650
X23627Y13650
X23977Y13560
X24067Y14050
X23757Y14050
X23587Y13050
X23127Y13060
X23047Y12550
X23307Y12550
X23637Y12550
X24107Y12550
X24537Y12590
X24807Y12550
X24127Y12950
X25297Y11550
X25127Y11180
X25487Y11050
X26127Y10870
X26627Y10610
X25807Y10050
X25547Y10050
X25267Y10050
X25007Y10050
X25127Y9490
X25577Y9550
X24807Y9050
X25137Y8670
X25127Y8380
X24807Y7750
X24427Y7870
X24187Y7990
X24127Y8870
X24147Y9130
X23497Y9560
X23997Y10060
X23627Y10870
X23307Y11050
X23047Y11050
X22617Y11000
X22607Y10580
X24007Y11050
X24267Y11050
X24627Y11230
X26627Y9050
X25997Y7900
X29647Y9670
X30127Y9700
X29697Y9050
X30127Y8670
X30127Y8370
X30457Y8550
X31237Y8560
X31477Y9050
X32187Y8780
X32307Y8540
X32497Y8310
X32667Y8110
X33457Y8250
X33477Y7480
X32857Y7100
X32597Y6750
X32697Y6490
X33417Y6870
X33977Y5950
X34167Y5760
X33057Y4680
X32667Y4680
X32727Y4280
X32667Y3920
X33057Y3920
X34047Y2690
X35867Y4400
X36257Y4390
X36677Y5640
X31997Y8530
X31017Y7940
X31017Y7680
X33797Y9360
X33797Y9720
X34167Y10020
X33397Y10320
X32007Y9530
X31617Y11640
X32177Y11680
X32087Y12050
X32487Y12290
X33067Y11710
X32877Y11520
X33727Y12210
X34027Y12390
X34377Y12110
X35177Y12000
X33627Y12950
X34487Y13310
X33627Y13850
X32377Y13850
X32387Y13400
X32377Y12950
X31127Y12910
X31127Y13180
X31267Y14040
X31127Y14870
X30807Y15050
X30537Y15050
X31127Y15140
X30567Y15550
X31127Y15870
X30647Y16110
X31147Y16150
X31147Y16420
X31147Y16680
X31627Y16890
X32087Y17000
X32377Y16550
X32377Y16100
X32377Y15840
X32377Y15200
X32377Y14750
X32377Y14300
X33627Y14750
X33647Y15150
X33627Y15850
X33627Y16550
X33697Y17710
X33717Y18570
X33687Y19710
X35777Y19490
X35787Y19210
X38137Y18050
X38087Y17780
X39447Y18340
X39447Y18730
X36167Y17350
X35737Y17480
X35867Y16430
X38317Y15980
X38317Y15590
X38007Y15060
X38007Y14800
X39117Y13950
X39337Y14090
X38507Y13830
X38197Y13830
X37687Y13830
X38557Y12780
X35857Y13510
X35737Y14640
X39857Y14710
X36727Y9920
X36727Y9480
X31627Y11920
X28127Y14450
X28127Y14730
X27627Y14730
X26627Y14710
X25527Y15080
X25777Y15550
X25117Y15440
X24987Y16050
X24727Y16050
X24467Y16050
X24207Y16040
X23947Y16050
X23757Y15530
X23447Y15550
X23637Y15150
X24077Y15130
X23147Y15150
X23127Y15870
X21467Y16660
X21237Y16470
X20997Y16280
X20057Y16780
X19777Y16900
X19327Y17020
X18877Y17020
X18427Y17030
X17977Y17040
X17527Y17040
X17667Y16510
X17667Y16250
X17667Y15990
X17667Y15730
X17247Y15550
X17227Y15290
X17687Y15110
X17687Y14840
X17687Y14580
X17687Y14320
X17387Y13860
X17407Y13600
X17657Y13220
X17057Y12860
X16887Y13060
X16887Y12660
X16557Y12250
X16747Y12020
X16747Y11710
X16327Y11450
X16107Y11280
X16827Y11280
X17737Y11550
X18247Y11090
X18507Y11090
X18787Y11090
X19337Y11090
X19177Y11550
X18897Y11550
X19637Y11790
X19227Y9950
X18947Y9950
X18667Y9950
X15567Y10110
X15267Y10110
X15067Y11420
X15467Y11680
X15297Y11930
X15287Y12240
X15957Y12280
X13357Y13050
X15197Y14070
X15197Y14490
X15757Y14440
X15877Y14190
X15877Y13920
X16557Y14080
X16267Y14510
X16337Y14900
X16357Y15160
X16357Y15550
X16887Y14880
X17187Y14870
X18967Y15010
X19177Y15210
X19387Y15420
X19867Y15410
X19567Y15900
X20757Y15400
X21237Y15620
X21217Y14730
X21217Y14450
X20857Y14450
X20857Y14730
X19857Y14610
X16717Y16360
X16227Y16710
X15857Y16700
X15647Y17520
X15917Y17550
X16287Y17550
X15317Y17510
X14877Y17510
X14557Y16720
X14337Y16500
X14057Y16800
X13517Y16840
X12967Y16970
X12407Y17080
X11867Y17310
X11307Y17330
X10557Y17360
X10547Y17640
X10507Y18030
X10387Y17120
X9557Y16830
X9277Y16800
X8967Y16810
X9457Y17330
X10887Y19150
X11287Y19160
X11957Y19500
X13597Y19340
X13607Y19080
X14307Y20050
X14777Y20050
X16177Y20080
X17127Y19850
X18187Y20560
X16877Y20750
X15877Y21650
X15677Y22450
X16627Y22450
X18377Y22450
X18977Y22450
X20677Y20540
X23557Y20200
X23547Y19420
X23547Y19160
X23547Y18900
X23547Y18640
X23637Y17620
X23117Y17620
X22617Y17620
X23127Y16950
X25247Y16050
X25507Y16050
X25767Y16050
X26137Y16200
X26157Y15940
X26627Y15970
X26627Y15710
X26627Y15450
X26627Y16230
X27627Y16190
X27627Y15930
X28027Y16050
X28287Y16050
X29127Y16420
X29127Y16680
X28947Y17050
X28627Y17090
X28217Y17090
X27627Y17090
X27107Y17660
X26647Y17660
X26107Y17660
X25627Y17660
X28117Y19250
X28287Y19560
X28577Y19560
X28837Y19560
X29647Y20760
X29647Y21030
X27587Y22120
X21187Y18230
X19337Y18290
X17777Y18300
X17777Y18950
X17027Y18850
X8057Y13860
X11427Y11630
X11367Y10860
X11027Y8100
X12407Y8100
X12977Y7950
X8427Y6980
X8017Y6980
X7607Y6980
X7577Y8100
X20517Y4070
X24117Y2830
X26687Y2830
X30067Y15550
X30087Y17060
X29707Y17050
X29447Y17050
X28997Y17570
X30997Y17550
X31267Y17550
X36557Y21240
T02
X13177Y15800
X12677Y15800
X12177Y15800
X11677Y15800
X11177Y15800
X10677Y15800
X10177Y15800
X9677Y15800
X9177Y15800
X9177Y15300
X9177Y14800
X9177Y14300
X9177Y13800
X9677Y13800
X10177Y13800
X10677Y13800
X11177Y13800
X11677Y13800
X12177Y13800
X12677Y13800
X13177Y13800
X13177Y13300
X13177Y12800
X13177Y12300
X13177Y11800
X12677Y11800
X12177Y11800
X11677Y11800
X11177Y11800
X10677Y11800
X10177Y11800
X9677Y11800
X9177Y11800
X9177Y12300
X9177Y12800
X9177Y13300
X8327Y12150
X7977Y12150
X7627Y12150
X7827Y11750
X7827Y11400
X7827Y11050
X7827Y10700
X7827Y10350
X8127Y9850
X8127Y9550
X8427Y9550
X8427Y9850
X8727Y10350
X8727Y10700
X8727Y11050
X11177Y12300
X11177Y12800
X11177Y13300
X13177Y14300
X13177Y14800
X13177Y15300
X11177Y15300
X11177Y14800
X9127Y17230
X9277Y17560
X9317Y17880
X9317Y18200
X9317Y18520
T03
X8137Y19290
X13497Y20500
X13627Y21050
X13977Y21050
X13877Y22100
X13877Y22450
X14227Y22450
X14227Y22100
X14577Y22100
X14577Y22450
X14927Y22450
X14927Y22100
X19877Y22500
X20277Y22500
X20677Y22500
X21077Y22500
X21477Y22500
X21477Y21500
X21077Y21500
X20677Y21500
X20277Y21500
X19877Y21500
X23427Y20650
X24187Y19300
X24887Y19300
X26027Y19540
X26077Y18530
X26497Y18530
X27427Y20400
X27177Y20850
X26827Y20850
X26827Y21200
X27177Y21200
X27027Y22670
X27477Y22670
X27937Y22670
X28377Y22670
X29277Y22670
X30527Y22670
X31177Y20450
X31577Y20450
X34977Y21800
X35377Y21800
X35377Y22150
X34977Y22150
X26527Y22680
X26027Y22680
X25527Y22680
X24977Y22680
X38137Y12900
X37237Y12750
X39677Y12750
X40077Y12750
X34827Y11350
X34477Y11350
X34127Y11350
X34577Y9250
X34577Y8760
X34527Y7230
X34527Y6400
X27627Y10050
X26127Y11550
X21597Y10180
X18187Y9710
X14127Y11360
X12727Y9650
X10437Y10010
X12677Y4350
X14797Y2630
T04
X37077Y5540
X38777Y8060
X39227Y14430
X39647Y15010
X30427Y18210
X29607Y18710
T05
X10847Y20700
X10837Y21500
X8487Y21490
X8477Y20700
X9247Y19240
X10037Y19240
T06
X35177Y3100
X35767Y3100
X36357Y3100
X38227Y6755
X38227Y7345
X39777Y7345
X39777Y6755
X39777Y8705
X39777Y9295
X38227Y9295
X38227Y8705
T07
X28127Y18150
X21977Y16550
T08
X22687Y19930
X22687Y20930
X22687Y21930
X34177Y19850
X35177Y19850
X36177Y19850
X36177Y18850
X35177Y18850
X34177Y18850
X34177Y17850
X35177Y17850
X36177Y17850
X36177Y16850
X35177Y16850
X34177Y16850
X34177Y15850
X35177Y15850
X36177Y15850
X36177Y14850
X35177Y14850
X34177Y14850
X34177Y13850
X35177Y13850
X36177Y13850
X36177Y12850
X35177Y12850
X34177Y12850
X16577Y8400
X16577Y7400
X10841Y6578
X10841Y5594
X10841Y4806
X10841Y3822
T09
X9668Y19230
X8487Y21080
X10849Y21080
T10
X9774Y7787
X9774Y2613
T11
X12477Y2900
X38477Y4150
X38477Y20650
X12477Y21900
M30
