G75*
%MOIN*%
%OFA0B0*%
%FSLAX25Y25*%
%IPPOS*%
%LPD*%
%AMOC8*
5,1,8,0,0,1.08239X$1,22.5*
%
%ADD10C,0.01800*%
%ADD11R,0.10050X0.07100*%
%ADD12R,0.03000X0.02600*%
%ADD13R,0.02600X0.03000*%
%ADD14R,0.03750X0.05324*%
%ADD15R,0.05324X0.03750*%
%ADD16R,0.24222X0.10443*%
%ADD17R,0.32900X0.10800*%
%ADD18C,0.01025*%
%ADD19R,0.06537X0.06537*%
%ADD20C,0.06537*%
%ADD21R,0.05700X0.05700*%
%ADD22C,0.05700*%
%ADD23R,0.03400X0.04500*%
%ADD24R,0.02962X0.05324*%
%ADD25R,0.04537X0.04931*%
%ADD26C,0.05600*%
%ADD27R,0.05600X0.02800*%
%ADD28R,0.08400X0.02800*%
%ADD29R,0.02647X0.01781*%
%ADD30R,0.02529X0.01781*%
%ADD31R,0.04931X0.04537*%
%ADD32R,0.01702X0.03946*%
%ADD33R,0.03946X0.01702*%
%ADD34R,0.08671X0.12608*%
%ADD35R,0.06506X0.04931*%
%ADD36R,0.02372X0.04143*%
%ADD37R,0.08474X0.04143*%
%ADD38R,0.04143X0.02569*%
%ADD39R,0.04340X0.05324*%
%ADD40R,0.06506X0.05718*%
%ADD41R,0.06899X0.08868*%
%ADD42R,0.08080X0.07687*%
%ADD43R,0.08080X0.08080*%
%ADD44R,0.05915X0.02175*%
%ADD45C,0.11655*%
%ADD46C,0.07000*%
%ADD47C,0.18100*%
%ADD48C,0.02400*%
%ADD49C,0.04600*%
%ADD50C,0.01565*%
%ADD51C,0.08899*%
%ADD52C,0.03600*%
%ADD53R,0.05403X0.04183*%
%ADD54C,0.03100*%
%ADD55R,0.02800X0.06400*%
D10*
X0181071Y0184050D02*
X0181071Y0185950D01*
X0183571Y0186000D02*
X0183571Y0184000D01*
X0186171Y0184000D02*
X0186171Y0186000D01*
X0188671Y0186000D02*
X0188671Y0184000D01*
X0188671Y0195600D02*
X0188671Y0197600D01*
X0186171Y0197600D02*
X0186171Y0195600D01*
X0183571Y0195600D02*
X0183571Y0197600D01*
X0181071Y0197600D02*
X0181071Y0195600D01*
D11*
X0184871Y0190800D03*
D12*
X0183971Y0180200D03*
X0179571Y0180200D03*
X0188971Y0180200D03*
X0193371Y0180200D03*
X0223971Y0169500D03*
X0228371Y0169500D03*
X0221471Y0157700D03*
X0217071Y0157700D03*
X0217071Y0153200D03*
X0221471Y0153200D03*
X0221471Y0148700D03*
X0221471Y0144500D03*
X0217071Y0144500D03*
X0217071Y0148700D03*
X0221071Y0132900D03*
X0225471Y0132900D03*
X0287571Y0099000D03*
X0291971Y0099000D03*
X0291971Y0094500D03*
X0287571Y0094500D03*
X0287571Y0090000D03*
X0291971Y0090000D03*
X0291971Y0085500D03*
X0287571Y0085500D03*
X0267871Y0058900D03*
X0263471Y0058900D03*
X0217471Y0044700D03*
X0213071Y0044700D03*
X0205471Y0044700D03*
X0201071Y0044700D03*
X0164471Y0061500D03*
X0160071Y0061500D03*
X0157271Y0074000D03*
X0152871Y0074000D03*
X0152871Y0078200D03*
X0157271Y0078200D03*
X0149971Y0086300D03*
X0145571Y0086300D03*
X0144971Y0101300D03*
X0149371Y0101300D03*
X0157171Y0125700D03*
X0161571Y0125700D03*
X0161571Y0130200D03*
X0157171Y0130200D03*
X0157071Y0134500D03*
X0161471Y0134500D03*
X0147571Y0171400D03*
X0143171Y0171400D03*
X0122271Y0188000D03*
X0117871Y0188000D03*
X0100571Y0153300D03*
X0100571Y0149200D03*
X0096171Y0149200D03*
X0096171Y0153300D03*
X0179071Y0203000D03*
X0183471Y0203000D03*
X0188071Y0203000D03*
X0192471Y0203000D03*
X0280971Y0204000D03*
X0280971Y0208300D03*
X0285371Y0208300D03*
X0285371Y0204000D03*
X0283271Y0199700D03*
X0287671Y0199700D03*
X0316571Y0165500D03*
X0320971Y0165500D03*
X0320971Y0161000D03*
X0316571Y0161000D03*
X0316571Y0156500D03*
X0320971Y0156500D03*
X0320971Y0152000D03*
X0316571Y0152000D03*
X0316571Y0147500D03*
X0320971Y0147500D03*
X0320971Y0143000D03*
X0316571Y0143000D03*
X0316571Y0138500D03*
X0320971Y0138500D03*
X0320971Y0134000D03*
X0316571Y0134000D03*
X0316571Y0129500D03*
X0320971Y0129500D03*
X0332571Y0059500D03*
X0336971Y0059500D03*
X0336971Y0055000D03*
X0332571Y0055000D03*
X0152971Y0043000D03*
X0148571Y0043000D03*
D13*
X0139771Y0044600D03*
X0139771Y0049000D03*
X0131371Y0056500D03*
X0131371Y0060900D03*
X0143371Y0065700D03*
X0147771Y0065700D03*
X0147771Y0070100D03*
X0143371Y0070100D03*
X0129771Y0082300D03*
X0129771Y0086700D03*
X0160471Y0086900D03*
X0160471Y0091300D03*
X0160471Y0096300D03*
X0160471Y0100700D03*
X0084271Y0077200D03*
X0080171Y0077200D03*
X0076071Y0077200D03*
X0076071Y0072800D03*
X0080171Y0072800D03*
X0084271Y0072800D03*
X0089271Y0054200D03*
X0089271Y0049800D03*
X0196671Y0048200D03*
X0196671Y0043800D03*
X0257171Y0049700D03*
X0257171Y0054100D03*
X0289271Y0071800D03*
X0293871Y0071800D03*
X0298471Y0071800D03*
X0303071Y0071800D03*
X0303071Y0076200D03*
X0298471Y0076200D03*
X0293871Y0076200D03*
X0289271Y0076200D03*
X0299771Y0089800D03*
X0299771Y0094200D03*
X0304271Y0093700D03*
X0304271Y0089300D03*
X0370271Y0094800D03*
X0370271Y0099200D03*
X0287871Y0178500D03*
X0287871Y0182900D03*
X0278971Y0195100D03*
X0278971Y0199500D03*
X0278971Y0212800D03*
X0278971Y0217200D03*
X0283071Y0217300D03*
X0287171Y0217300D03*
X0291271Y0217300D03*
X0291271Y0221700D03*
X0287171Y0221700D03*
X0283071Y0221700D03*
X0232771Y0192700D03*
X0228271Y0192700D03*
X0223771Y0192600D03*
X0223771Y0188200D03*
X0228271Y0188300D03*
X0232771Y0188300D03*
X0194271Y0189300D03*
X0194271Y0193700D03*
X0174271Y0193700D03*
X0174271Y0198300D03*
X0174271Y0202700D03*
X0174271Y0189300D03*
X0104871Y0153100D03*
X0104871Y0148700D03*
D14*
X0113627Y0081000D03*
X0120714Y0081000D03*
X0263327Y0044800D03*
X0270414Y0044800D03*
D15*
X0333971Y0106757D03*
X0333971Y0113843D03*
X0189771Y0213957D03*
X0183771Y0213957D03*
X0183771Y0221043D03*
X0189771Y0221043D03*
X0269571Y0222943D03*
X0269571Y0215857D03*
X0137621Y0073043D03*
X0137621Y0065957D03*
D16*
X0155282Y0192737D03*
X0155282Y0209666D03*
X0253992Y0202687D03*
X0253992Y0219616D03*
D17*
X0309671Y0218800D03*
X0309671Y0196800D03*
D18*
X0133309Y0073538D02*
X0133309Y0070462D01*
X0130233Y0070462D01*
X0130233Y0073538D01*
X0133309Y0073538D01*
X0133309Y0071486D02*
X0130233Y0071486D01*
X0130233Y0072510D02*
X0133309Y0072510D01*
X0133309Y0073534D02*
X0130233Y0073534D01*
X0133309Y0067538D02*
X0133309Y0064462D01*
X0130233Y0064462D01*
X0130233Y0067538D01*
X0133309Y0067538D01*
X0133309Y0065486D02*
X0130233Y0065486D01*
X0130233Y0066510D02*
X0133309Y0066510D01*
X0133309Y0067534D02*
X0130233Y0067534D01*
X0132809Y0051038D02*
X0132809Y0047962D01*
X0129733Y0047962D01*
X0129733Y0051038D01*
X0132809Y0051038D01*
X0132809Y0048986D02*
X0129733Y0048986D01*
X0129733Y0050010D02*
X0132809Y0050010D01*
X0132809Y0051034D02*
X0129733Y0051034D01*
X0132809Y0045038D02*
X0132809Y0041962D01*
X0129733Y0041962D01*
X0129733Y0045038D01*
X0132809Y0045038D01*
X0132809Y0042986D02*
X0129733Y0042986D01*
X0129733Y0044010D02*
X0132809Y0044010D01*
X0132809Y0045034D02*
X0129733Y0045034D01*
D19*
X0341771Y0128500D03*
X0226871Y0219300D03*
D20*
X0226871Y0209300D03*
X0226871Y0199300D03*
X0341771Y0198500D03*
X0351771Y0198500D03*
X0361771Y0198500D03*
X0361771Y0188500D03*
X0351771Y0188500D03*
X0341771Y0188500D03*
X0341771Y0178500D03*
X0351771Y0178500D03*
X0361771Y0178500D03*
X0361771Y0168500D03*
X0351771Y0168500D03*
X0341771Y0168500D03*
X0341771Y0158500D03*
X0351771Y0158500D03*
X0361771Y0158500D03*
X0361771Y0148500D03*
X0351771Y0148500D03*
X0341771Y0148500D03*
X0341771Y0138500D03*
X0351771Y0138500D03*
X0361771Y0138500D03*
X0361771Y0128500D03*
X0351771Y0128500D03*
X0108412Y0065780D03*
X0108412Y0055937D03*
X0108412Y0048063D03*
X0108412Y0038220D03*
D21*
X0351771Y0031000D03*
X0382271Y0073450D03*
X0397771Y0073450D03*
X0397771Y0092950D03*
X0382271Y0092950D03*
D22*
X0382271Y0087050D03*
X0397771Y0087050D03*
X0397771Y0067550D03*
X0382271Y0067550D03*
X0363571Y0031000D03*
X0357671Y0031000D03*
D23*
X0208821Y0182950D03*
X0205121Y0182950D03*
X0201421Y0182950D03*
X0201421Y0192350D03*
X0205121Y0192350D03*
X0208821Y0192350D03*
D24*
X0207771Y0197976D03*
X0212771Y0197976D03*
X0202771Y0197976D03*
X0197771Y0197976D03*
X0197771Y0220024D03*
X0202771Y0220024D03*
X0207771Y0220024D03*
X0212771Y0220024D03*
D25*
X0176271Y0219846D03*
X0176271Y0213154D03*
X0231871Y0066746D03*
X0231871Y0060054D03*
X0137771Y0060546D03*
X0137771Y0053854D03*
D26*
X0251771Y0069500D03*
X0258771Y0069500D03*
X0265771Y0069500D03*
X0272771Y0069500D03*
X0269271Y0063500D03*
X0262271Y0063500D03*
X0255271Y0063500D03*
X0344871Y0026900D03*
X0299271Y0182100D03*
D27*
X0154821Y0097500D03*
X0154821Y0093800D03*
X0154821Y0090100D03*
X0144621Y0090100D03*
X0144621Y0097500D03*
D28*
X0204171Y0070000D03*
X0204171Y0065000D03*
X0204171Y0060000D03*
X0204171Y0055000D03*
X0223571Y0055000D03*
X0223571Y0060000D03*
X0223571Y0065000D03*
X0223571Y0070000D03*
D29*
X0081274Y0050031D03*
D30*
X0081294Y0052000D03*
X0081294Y0053969D03*
X0084247Y0053969D03*
X0084247Y0052000D03*
X0084247Y0050031D03*
D31*
X0152824Y0067500D03*
X0159517Y0067500D03*
X0100617Y0161900D03*
X0093924Y0161900D03*
D32*
X0150318Y0165260D03*
X0156223Y0165260D03*
X0156223Y0147740D03*
X0150318Y0147740D03*
D33*
X0146479Y0149610D03*
X0146479Y0151579D03*
X0146479Y0153547D03*
X0146479Y0155516D03*
X0146479Y0157484D03*
X0146479Y0159453D03*
X0146479Y0161421D03*
X0146479Y0163390D03*
X0160062Y0163390D03*
X0160062Y0161421D03*
X0160062Y0159453D03*
X0160062Y0157484D03*
X0160062Y0155516D03*
X0160062Y0153547D03*
X0160062Y0151579D03*
X0160062Y0149610D03*
D34*
X0153271Y0156500D03*
D35*
X0072771Y0143297D03*
X0072771Y0086703D03*
D36*
X0077751Y0086457D03*
X0080507Y0086457D03*
X0083263Y0086457D03*
X0086019Y0086457D03*
X0086019Y0143543D03*
X0083263Y0143543D03*
X0080507Y0143543D03*
X0077751Y0143543D03*
D37*
X0110960Y0143543D03*
X0116078Y0086457D03*
D38*
X0125330Y0091476D03*
X0125330Y0129862D03*
D39*
X0127495Y0125138D03*
X0127495Y0101516D03*
D40*
X0130871Y0190654D03*
X0130871Y0197346D03*
D41*
X0083010Y0179705D03*
X0083010Y0155295D03*
D42*
X0072971Y0152539D03*
X0072971Y0182461D03*
D43*
X0072971Y0172224D03*
X0072971Y0162776D03*
D44*
X0083502Y0162382D03*
X0083502Y0164941D03*
X0083502Y0167500D03*
X0083502Y0170059D03*
X0083502Y0172618D03*
D45*
X0097743Y0077866D03*
X0097743Y0026134D03*
D46*
X0165771Y0074000D03*
X0165771Y0084000D03*
D47*
X0124771Y0029000D03*
X0384771Y0041500D03*
X0384771Y0206500D03*
X0124771Y0219000D03*
D48*
X0358271Y0217500D02*
X0358273Y0217609D01*
X0358279Y0217718D01*
X0358289Y0217826D01*
X0358303Y0217934D01*
X0358320Y0218042D01*
X0358342Y0218149D01*
X0358367Y0218255D01*
X0358397Y0218359D01*
X0358430Y0218463D01*
X0358467Y0218566D01*
X0358507Y0218667D01*
X0358551Y0218766D01*
X0358599Y0218864D01*
X0358651Y0218961D01*
X0358705Y0219055D01*
X0358763Y0219147D01*
X0358825Y0219237D01*
X0358890Y0219324D01*
X0358957Y0219410D01*
X0359028Y0219493D01*
X0359102Y0219573D01*
X0359179Y0219650D01*
X0359258Y0219725D01*
X0359340Y0219796D01*
X0359425Y0219865D01*
X0359512Y0219930D01*
X0359601Y0219993D01*
X0359693Y0220051D01*
X0359787Y0220107D01*
X0359882Y0220159D01*
X0359980Y0220208D01*
X0360079Y0220253D01*
X0360180Y0220295D01*
X0360282Y0220332D01*
X0360385Y0220366D01*
X0360490Y0220397D01*
X0360596Y0220423D01*
X0360702Y0220446D01*
X0360810Y0220464D01*
X0360918Y0220479D01*
X0361026Y0220490D01*
X0361135Y0220497D01*
X0361244Y0220500D01*
X0361353Y0220499D01*
X0361462Y0220494D01*
X0361570Y0220485D01*
X0361678Y0220472D01*
X0361786Y0220455D01*
X0361893Y0220435D01*
X0361999Y0220410D01*
X0362104Y0220382D01*
X0362208Y0220350D01*
X0362311Y0220314D01*
X0362413Y0220274D01*
X0362513Y0220231D01*
X0362611Y0220184D01*
X0362708Y0220134D01*
X0362802Y0220080D01*
X0362895Y0220022D01*
X0362986Y0219962D01*
X0363074Y0219898D01*
X0363160Y0219831D01*
X0363243Y0219761D01*
X0363324Y0219688D01*
X0363402Y0219612D01*
X0363477Y0219533D01*
X0363550Y0219451D01*
X0363619Y0219367D01*
X0363685Y0219281D01*
X0363748Y0219192D01*
X0363808Y0219101D01*
X0363865Y0219008D01*
X0363918Y0218913D01*
X0363967Y0218816D01*
X0364013Y0218717D01*
X0364055Y0218617D01*
X0364094Y0218515D01*
X0364129Y0218411D01*
X0364160Y0218307D01*
X0364188Y0218202D01*
X0364211Y0218095D01*
X0364231Y0217988D01*
X0364247Y0217880D01*
X0364259Y0217772D01*
X0364267Y0217663D01*
X0364271Y0217554D01*
X0364271Y0217446D01*
X0364267Y0217337D01*
X0364259Y0217228D01*
X0364247Y0217120D01*
X0364231Y0217012D01*
X0364211Y0216905D01*
X0364188Y0216798D01*
X0364160Y0216693D01*
X0364129Y0216589D01*
X0364094Y0216485D01*
X0364055Y0216383D01*
X0364013Y0216283D01*
X0363967Y0216184D01*
X0363918Y0216087D01*
X0363865Y0215992D01*
X0363808Y0215899D01*
X0363748Y0215808D01*
X0363685Y0215719D01*
X0363619Y0215633D01*
X0363550Y0215549D01*
X0363477Y0215467D01*
X0363402Y0215388D01*
X0363324Y0215312D01*
X0363243Y0215239D01*
X0363160Y0215169D01*
X0363074Y0215102D01*
X0362986Y0215038D01*
X0362895Y0214978D01*
X0362802Y0214920D01*
X0362708Y0214866D01*
X0362611Y0214816D01*
X0362513Y0214769D01*
X0362413Y0214726D01*
X0362311Y0214686D01*
X0362208Y0214650D01*
X0362104Y0214618D01*
X0361999Y0214590D01*
X0361893Y0214565D01*
X0361786Y0214545D01*
X0361678Y0214528D01*
X0361570Y0214515D01*
X0361462Y0214506D01*
X0361353Y0214501D01*
X0361244Y0214500D01*
X0361135Y0214503D01*
X0361026Y0214510D01*
X0360918Y0214521D01*
X0360810Y0214536D01*
X0360702Y0214554D01*
X0360596Y0214577D01*
X0360490Y0214603D01*
X0360385Y0214634D01*
X0360282Y0214668D01*
X0360180Y0214705D01*
X0360079Y0214747D01*
X0359980Y0214792D01*
X0359882Y0214841D01*
X0359787Y0214893D01*
X0359693Y0214949D01*
X0359601Y0215007D01*
X0359512Y0215070D01*
X0359425Y0215135D01*
X0359340Y0215204D01*
X0359258Y0215275D01*
X0359179Y0215350D01*
X0359102Y0215427D01*
X0359028Y0215507D01*
X0358957Y0215590D01*
X0358890Y0215676D01*
X0358825Y0215763D01*
X0358763Y0215853D01*
X0358705Y0215945D01*
X0358651Y0216039D01*
X0358599Y0216136D01*
X0358551Y0216234D01*
X0358507Y0216333D01*
X0358467Y0216434D01*
X0358430Y0216537D01*
X0358397Y0216641D01*
X0358367Y0216745D01*
X0358342Y0216851D01*
X0358320Y0216958D01*
X0358303Y0217066D01*
X0358289Y0217174D01*
X0358279Y0217282D01*
X0358273Y0217391D01*
X0358271Y0217500D01*
X0359271Y0038000D02*
X0359273Y0038109D01*
X0359279Y0038218D01*
X0359289Y0038326D01*
X0359303Y0038434D01*
X0359320Y0038542D01*
X0359342Y0038649D01*
X0359367Y0038755D01*
X0359397Y0038859D01*
X0359430Y0038963D01*
X0359467Y0039066D01*
X0359507Y0039167D01*
X0359551Y0039266D01*
X0359599Y0039364D01*
X0359651Y0039461D01*
X0359705Y0039555D01*
X0359763Y0039647D01*
X0359825Y0039737D01*
X0359890Y0039824D01*
X0359957Y0039910D01*
X0360028Y0039993D01*
X0360102Y0040073D01*
X0360179Y0040150D01*
X0360258Y0040225D01*
X0360340Y0040296D01*
X0360425Y0040365D01*
X0360512Y0040430D01*
X0360601Y0040493D01*
X0360693Y0040551D01*
X0360787Y0040607D01*
X0360882Y0040659D01*
X0360980Y0040708D01*
X0361079Y0040753D01*
X0361180Y0040795D01*
X0361282Y0040832D01*
X0361385Y0040866D01*
X0361490Y0040897D01*
X0361596Y0040923D01*
X0361702Y0040946D01*
X0361810Y0040964D01*
X0361918Y0040979D01*
X0362026Y0040990D01*
X0362135Y0040997D01*
X0362244Y0041000D01*
X0362353Y0040999D01*
X0362462Y0040994D01*
X0362570Y0040985D01*
X0362678Y0040972D01*
X0362786Y0040955D01*
X0362893Y0040935D01*
X0362999Y0040910D01*
X0363104Y0040882D01*
X0363208Y0040850D01*
X0363311Y0040814D01*
X0363413Y0040774D01*
X0363513Y0040731D01*
X0363611Y0040684D01*
X0363708Y0040634D01*
X0363802Y0040580D01*
X0363895Y0040522D01*
X0363986Y0040462D01*
X0364074Y0040398D01*
X0364160Y0040331D01*
X0364243Y0040261D01*
X0364324Y0040188D01*
X0364402Y0040112D01*
X0364477Y0040033D01*
X0364550Y0039951D01*
X0364619Y0039867D01*
X0364685Y0039781D01*
X0364748Y0039692D01*
X0364808Y0039601D01*
X0364865Y0039508D01*
X0364918Y0039413D01*
X0364967Y0039316D01*
X0365013Y0039217D01*
X0365055Y0039117D01*
X0365094Y0039015D01*
X0365129Y0038911D01*
X0365160Y0038807D01*
X0365188Y0038702D01*
X0365211Y0038595D01*
X0365231Y0038488D01*
X0365247Y0038380D01*
X0365259Y0038272D01*
X0365267Y0038163D01*
X0365271Y0038054D01*
X0365271Y0037946D01*
X0365267Y0037837D01*
X0365259Y0037728D01*
X0365247Y0037620D01*
X0365231Y0037512D01*
X0365211Y0037405D01*
X0365188Y0037298D01*
X0365160Y0037193D01*
X0365129Y0037089D01*
X0365094Y0036985D01*
X0365055Y0036883D01*
X0365013Y0036783D01*
X0364967Y0036684D01*
X0364918Y0036587D01*
X0364865Y0036492D01*
X0364808Y0036399D01*
X0364748Y0036308D01*
X0364685Y0036219D01*
X0364619Y0036133D01*
X0364550Y0036049D01*
X0364477Y0035967D01*
X0364402Y0035888D01*
X0364324Y0035812D01*
X0364243Y0035739D01*
X0364160Y0035669D01*
X0364074Y0035602D01*
X0363986Y0035538D01*
X0363895Y0035478D01*
X0363802Y0035420D01*
X0363708Y0035366D01*
X0363611Y0035316D01*
X0363513Y0035269D01*
X0363413Y0035226D01*
X0363311Y0035186D01*
X0363208Y0035150D01*
X0363104Y0035118D01*
X0362999Y0035090D01*
X0362893Y0035065D01*
X0362786Y0035045D01*
X0362678Y0035028D01*
X0362570Y0035015D01*
X0362462Y0035006D01*
X0362353Y0035001D01*
X0362244Y0035000D01*
X0362135Y0035003D01*
X0362026Y0035010D01*
X0361918Y0035021D01*
X0361810Y0035036D01*
X0361702Y0035054D01*
X0361596Y0035077D01*
X0361490Y0035103D01*
X0361385Y0035134D01*
X0361282Y0035168D01*
X0361180Y0035205D01*
X0361079Y0035247D01*
X0360980Y0035292D01*
X0360882Y0035341D01*
X0360787Y0035393D01*
X0360693Y0035449D01*
X0360601Y0035507D01*
X0360512Y0035570D01*
X0360425Y0035635D01*
X0360340Y0035704D01*
X0360258Y0035775D01*
X0360179Y0035850D01*
X0360102Y0035927D01*
X0360028Y0036007D01*
X0359957Y0036090D01*
X0359890Y0036176D01*
X0359825Y0036263D01*
X0359763Y0036353D01*
X0359705Y0036445D01*
X0359651Y0036539D01*
X0359599Y0036636D01*
X0359551Y0036734D01*
X0359507Y0036833D01*
X0359467Y0036934D01*
X0359430Y0037037D01*
X0359397Y0037141D01*
X0359367Y0037245D01*
X0359342Y0037351D01*
X0359320Y0037458D01*
X0359303Y0037566D01*
X0359289Y0037674D01*
X0359279Y0037782D01*
X0359273Y0037891D01*
X0359271Y0038000D01*
X0135771Y0038500D02*
X0135773Y0038609D01*
X0135779Y0038718D01*
X0135789Y0038826D01*
X0135803Y0038934D01*
X0135820Y0039042D01*
X0135842Y0039149D01*
X0135867Y0039255D01*
X0135897Y0039359D01*
X0135930Y0039463D01*
X0135967Y0039566D01*
X0136007Y0039667D01*
X0136051Y0039766D01*
X0136099Y0039864D01*
X0136151Y0039961D01*
X0136205Y0040055D01*
X0136263Y0040147D01*
X0136325Y0040237D01*
X0136390Y0040324D01*
X0136457Y0040410D01*
X0136528Y0040493D01*
X0136602Y0040573D01*
X0136679Y0040650D01*
X0136758Y0040725D01*
X0136840Y0040796D01*
X0136925Y0040865D01*
X0137012Y0040930D01*
X0137101Y0040993D01*
X0137193Y0041051D01*
X0137287Y0041107D01*
X0137382Y0041159D01*
X0137480Y0041208D01*
X0137579Y0041253D01*
X0137680Y0041295D01*
X0137782Y0041332D01*
X0137885Y0041366D01*
X0137990Y0041397D01*
X0138096Y0041423D01*
X0138202Y0041446D01*
X0138310Y0041464D01*
X0138418Y0041479D01*
X0138526Y0041490D01*
X0138635Y0041497D01*
X0138744Y0041500D01*
X0138853Y0041499D01*
X0138962Y0041494D01*
X0139070Y0041485D01*
X0139178Y0041472D01*
X0139286Y0041455D01*
X0139393Y0041435D01*
X0139499Y0041410D01*
X0139604Y0041382D01*
X0139708Y0041350D01*
X0139811Y0041314D01*
X0139913Y0041274D01*
X0140013Y0041231D01*
X0140111Y0041184D01*
X0140208Y0041134D01*
X0140302Y0041080D01*
X0140395Y0041022D01*
X0140486Y0040962D01*
X0140574Y0040898D01*
X0140660Y0040831D01*
X0140743Y0040761D01*
X0140824Y0040688D01*
X0140902Y0040612D01*
X0140977Y0040533D01*
X0141050Y0040451D01*
X0141119Y0040367D01*
X0141185Y0040281D01*
X0141248Y0040192D01*
X0141308Y0040101D01*
X0141365Y0040008D01*
X0141418Y0039913D01*
X0141467Y0039816D01*
X0141513Y0039717D01*
X0141555Y0039617D01*
X0141594Y0039515D01*
X0141629Y0039411D01*
X0141660Y0039307D01*
X0141688Y0039202D01*
X0141711Y0039095D01*
X0141731Y0038988D01*
X0141747Y0038880D01*
X0141759Y0038772D01*
X0141767Y0038663D01*
X0141771Y0038554D01*
X0141771Y0038446D01*
X0141767Y0038337D01*
X0141759Y0038228D01*
X0141747Y0038120D01*
X0141731Y0038012D01*
X0141711Y0037905D01*
X0141688Y0037798D01*
X0141660Y0037693D01*
X0141629Y0037589D01*
X0141594Y0037485D01*
X0141555Y0037383D01*
X0141513Y0037283D01*
X0141467Y0037184D01*
X0141418Y0037087D01*
X0141365Y0036992D01*
X0141308Y0036899D01*
X0141248Y0036808D01*
X0141185Y0036719D01*
X0141119Y0036633D01*
X0141050Y0036549D01*
X0140977Y0036467D01*
X0140902Y0036388D01*
X0140824Y0036312D01*
X0140743Y0036239D01*
X0140660Y0036169D01*
X0140574Y0036102D01*
X0140486Y0036038D01*
X0140395Y0035978D01*
X0140302Y0035920D01*
X0140208Y0035866D01*
X0140111Y0035816D01*
X0140013Y0035769D01*
X0139913Y0035726D01*
X0139811Y0035686D01*
X0139708Y0035650D01*
X0139604Y0035618D01*
X0139499Y0035590D01*
X0139393Y0035565D01*
X0139286Y0035545D01*
X0139178Y0035528D01*
X0139070Y0035515D01*
X0138962Y0035506D01*
X0138853Y0035501D01*
X0138744Y0035500D01*
X0138635Y0035503D01*
X0138526Y0035510D01*
X0138418Y0035521D01*
X0138310Y0035536D01*
X0138202Y0035554D01*
X0138096Y0035577D01*
X0137990Y0035603D01*
X0137885Y0035634D01*
X0137782Y0035668D01*
X0137680Y0035705D01*
X0137579Y0035747D01*
X0137480Y0035792D01*
X0137382Y0035841D01*
X0137287Y0035893D01*
X0137193Y0035949D01*
X0137101Y0036007D01*
X0137012Y0036070D01*
X0136925Y0036135D01*
X0136840Y0036204D01*
X0136758Y0036275D01*
X0136679Y0036350D01*
X0136602Y0036427D01*
X0136528Y0036507D01*
X0136457Y0036590D01*
X0136390Y0036676D01*
X0136325Y0036763D01*
X0136263Y0036853D01*
X0136205Y0036945D01*
X0136151Y0037039D01*
X0136099Y0037136D01*
X0136051Y0037234D01*
X0136007Y0037333D01*
X0135967Y0037434D01*
X0135930Y0037537D01*
X0135897Y0037641D01*
X0135867Y0037745D01*
X0135842Y0037851D01*
X0135820Y0037958D01*
X0135803Y0038066D01*
X0135789Y0038174D01*
X0135779Y0038282D01*
X0135773Y0038391D01*
X0135771Y0038500D01*
D49*
X0138771Y0038500D03*
X0362271Y0038000D03*
X0361271Y0217500D03*
D50*
X0204566Y0164895D03*
X0204566Y0162927D03*
X0202597Y0162927D03*
X0200629Y0162927D03*
X0200629Y0164895D03*
X0202597Y0164895D03*
X0198660Y0164895D03*
X0196692Y0164895D03*
X0196692Y0162927D03*
X0198660Y0162927D03*
X0198660Y0160958D03*
X0196692Y0160958D03*
X0194723Y0160958D03*
X0192755Y0160958D03*
X0190786Y0160958D03*
X0188818Y0160958D03*
X0186849Y0160958D03*
X0184881Y0160958D03*
X0182912Y0160958D03*
X0180944Y0160958D03*
X0180944Y0158990D03*
X0182912Y0158990D03*
X0182912Y0157021D03*
X0180944Y0157021D03*
X0180944Y0155053D03*
X0182912Y0155053D03*
X0182912Y0153084D03*
X0180944Y0153084D03*
X0180944Y0151116D03*
X0182912Y0151116D03*
X0182912Y0149147D03*
X0180944Y0149147D03*
X0180944Y0147179D03*
X0182912Y0147179D03*
X0182912Y0145210D03*
X0180944Y0145210D03*
X0180944Y0143242D03*
X0182912Y0143242D03*
X0182912Y0141273D03*
X0180944Y0141273D03*
X0180944Y0139305D03*
X0182912Y0139305D03*
X0184881Y0139305D03*
X0184881Y0141273D03*
X0186849Y0141273D03*
X0186849Y0139305D03*
X0188818Y0139305D03*
X0188818Y0141273D03*
X0190786Y0141273D03*
X0190786Y0139305D03*
X0192755Y0139305D03*
X0192755Y0141273D03*
X0194723Y0141273D03*
X0194723Y0139305D03*
X0196692Y0139305D03*
X0196692Y0141273D03*
X0198660Y0141273D03*
X0198660Y0139305D03*
X0200629Y0139305D03*
X0200629Y0141273D03*
X0202597Y0141273D03*
X0202597Y0139305D03*
X0204566Y0139305D03*
X0204566Y0141273D03*
X0204566Y0143242D03*
X0204566Y0145210D03*
X0202597Y0145210D03*
X0200629Y0145210D03*
X0200629Y0143242D03*
X0202597Y0143242D03*
X0198660Y0143242D03*
X0196692Y0143242D03*
X0194723Y0143242D03*
X0192755Y0143242D03*
X0190786Y0143242D03*
X0188818Y0143242D03*
X0186849Y0143242D03*
X0184881Y0143242D03*
X0178975Y0143242D03*
X0178975Y0145210D03*
X0178975Y0147179D03*
X0178975Y0149147D03*
X0178975Y0151116D03*
X0178975Y0153084D03*
X0178975Y0155053D03*
X0178975Y0157021D03*
X0178975Y0158990D03*
X0178975Y0160958D03*
X0178975Y0162927D03*
X0178975Y0164895D03*
X0180944Y0164895D03*
X0180944Y0162927D03*
X0182912Y0162927D03*
X0182912Y0164895D03*
X0184881Y0164895D03*
X0184881Y0162927D03*
X0186849Y0162927D03*
X0186849Y0164895D03*
X0188818Y0164895D03*
X0188818Y0162927D03*
X0190786Y0162927D03*
X0190786Y0164895D03*
X0192755Y0164895D03*
X0192755Y0162927D03*
X0194723Y0162927D03*
X0194723Y0164895D03*
X0198660Y0158990D03*
X0200629Y0158990D03*
X0200629Y0160958D03*
X0202597Y0160958D03*
X0202597Y0158990D03*
X0202597Y0157021D03*
X0200629Y0157021D03*
X0200629Y0155053D03*
X0202597Y0155053D03*
X0202597Y0153084D03*
X0200629Y0153084D03*
X0200629Y0151116D03*
X0202597Y0151116D03*
X0202597Y0149147D03*
X0200629Y0149147D03*
X0200629Y0147179D03*
X0202597Y0147179D03*
X0204566Y0147179D03*
X0204566Y0149147D03*
X0204566Y0151116D03*
X0204566Y0153084D03*
X0204566Y0155053D03*
X0204566Y0157021D03*
X0204566Y0158990D03*
X0204566Y0160958D03*
X0196692Y0157021D03*
X0196692Y0155053D03*
X0196692Y0153084D03*
X0196692Y0151116D03*
X0196692Y0149147D03*
X0196692Y0147179D03*
X0194723Y0147179D03*
X0192755Y0147179D03*
X0190786Y0147179D03*
X0188818Y0147179D03*
X0186849Y0147179D03*
X0186849Y0149147D03*
X0186849Y0151116D03*
X0186849Y0153084D03*
X0186849Y0155053D03*
X0186849Y0157021D03*
X0188818Y0157021D03*
X0190786Y0157021D03*
X0192755Y0157021D03*
X0194723Y0157021D03*
X0178975Y0141273D03*
X0178975Y0139305D03*
D51*
X0100831Y0192296D02*
X0092532Y0192296D01*
X0084871Y0206650D02*
X0084871Y0214950D01*
X0108493Y0214950D02*
X0108493Y0206650D01*
D52*
X0108471Y0207000D03*
X0108371Y0215000D03*
X0084871Y0214900D03*
X0084771Y0207000D03*
X0092471Y0192400D03*
X0100371Y0192400D03*
D53*
X0269771Y0187053D03*
X0269771Y0199947D03*
D54*
X0262171Y0104200D03*
D55*
X0152511Y0060200D03*
X0145030Y0060200D03*
X0145030Y0050800D03*
X0148771Y0050800D03*
X0152511Y0050800D03*
M02*
