G04 CAM350 V9.5.1 (Build 211) Date:  Thu Nov 17 14:52:11 2016 *
G04 Database: (Untitled) *
G04 Layer 1: BeagleBone_Blue *
%FSLAX25Y25*%
%MOIN*%
%SFA1.000B1.000*%

%MIA0B0*%
%IPPOS*%
%ADD10C,0.01200*%
%ADD11C,0.00500*%
%ADD12C,0.00300*%
%ADD13C,0.00600*%
%ADD150C,0.01600*%
%ADD151C,0.00200*%
%ADD152C,0.00400*%
%ADD153C,0.00800*%
%ADD154C,0.01000*%
%ADD155R,0.02800X0.01600*%
%ADD156R,0.01600X0.02800*%
%ADD157R,0.03000X0.01800*%
%ADD158C,0.00000*%
%ADD159R,0.01800X0.03000*%
%ADD160C,0.00100*%
%ADD161C,0.00150*%
%ADD162C,0.00700*%
%ADD163C,0.00984*%
%ADD164R,0.05512X0.00787*%
%LNBeagleBone_Blue*%
%LPD*%
G54D154*
X200121Y189150D03*
G54D155*
X174271Y191500D03*
Y200500D03*
X228271Y190500D03*
X232771D03*
X278971Y215000D03*
X287171Y219500D03*
X291271D03*
X287871Y180700D03*
X160471Y98500D03*
Y89100D03*
X129771Y84500D03*
X143371Y67900D03*
X84271Y75000D03*
X80171D03*
X76071D03*
X104871Y150900D03*
X289271Y74000D03*
X293871D03*
X298471D03*
X303071D03*
X299771Y92000D03*
G54D156*
X289771Y85500D03*
X265671Y58900D03*
X215271Y44700D03*
X203271D03*
X150771Y43000D03*
X155071Y78200D03*
X147171Y101300D03*
X159371Y125700D03*
Y130200D03*
X219271Y144500D03*
Y148700D03*
Y153200D03*
Y157700D03*
X223271Y132900D03*
X318771Y134000D03*
Y138500D03*
Y143000D03*
Y147500D03*
Y152000D03*
Y156500D03*
Y161000D03*
Y165500D03*
Y129500D03*
X285471Y199700D03*
X283171Y208300D03*
X190271Y203000D03*
X120071Y188000D03*
X98371Y153300D03*
Y149200D03*
X334771Y59500D03*
Y55000D03*
G54D157*
X231871Y63400D03*
X137771Y57200D03*
X176271Y216500D03*
G54D159*
X156171Y67500D03*
X97271Y161900D03*
G54D164*
X269771Y195862D03*
G54D10*
X348871Y45600D02*
G01X353675D01*
Y48002*
X352874Y48803*
X351273*
X350472Y48002*
Y45600*
Y47201D02*
G01X348871Y48803D01*
X349671Y51125D02*
G01X351273D01*
X352073Y51925*
Y53527*
X351273Y54327*
X350472*
Y51125*
X349671D02*
G01X348871Y51925D01*
Y53527*
X352073Y56649D02*
G01X348871Y58251D01*
X352073Y59852*
X356269Y63776D02*
G01Y64576D01*
X357070Y65377*
X361073*
Y62975*
X360273Y62174*
X358671*
X357871Y62975*
Y65377*
Y67699D02*
G01Y69300D01*
Y68500D02*
G01X362675D01*
Y67699*
X360273Y71382D02*
G01X358671D01*
X357871Y72183*
Y73784*
X359472Y74585D02*
G01Y71382D01*
X360273D02*
G01X361073Y72183D01*
Y73784*
X360273Y74585*
X359472*
X360273Y76907D02*
G01Y79309D01*
X359472Y80109*
X358671*
X357871Y79309*
Y76907*
X362675*
Y79309*
X361874Y80109*
X361073*
X360273Y79309*
Y82431D02*
G01X358671D01*
X357871Y83232*
Y84833*
X358671Y85634*
X360273*
X361073Y84833*
Y83232*
X360273Y82431*
X361073Y87956D02*
G01X357871D01*
X361073D02*
G01Y90358D01*
X360273Y91159*
X357871*
X358671Y93481D02*
G01X360273D01*
X361073Y94282*
Y95883*
X360273Y96684*
X359472*
Y93481*
X358671D02*
G01X357871Y94282D01*
Y95883*
Y104530D02*
G01Y106932D01*
X358671Y107733*
X359472*
X360273Y106932*
Y104530*
X362675D02*
G01Y106932D01*
X361874Y107733*
X361073*
X360273Y106932*
X357871Y104530D02*
G01X362675D01*
Y110055D02*
G01Y110856D01*
X357871*
Y111656D02*
G01Y110055D01*
X358671Y113738D02*
G01X357871Y114539D01*
Y116941*
X361073*
X360273Y119263D02*
G01X358671D01*
X357871Y120064*
Y121665*
X359472Y122466D02*
G01Y119263D01*
X360273D02*
G01X361073Y120064D01*
Y121665*
X360273Y122466*
X359472*
X358671Y113738D02*
G01X361073D01*
X352874Y76426D02*
G01X353675Y75626D01*
Y74024*
X352874Y73224*
X352073Y70902D02*
G01X348871D01*
Y73224D02*
G01X352073Y76426D01*
X352874*
X348871D02*
G01Y73224D01*
X351273Y70902D02*
G01Y67699D01*
X352073D02*
G01X348871D01*
X352073D02*
G01X353675Y69300D01*
X352073Y70902*
X357871Y59852D02*
G01Y57450D01*
X358671Y56649*
X359472Y57450*
Y59852*
X360273D02*
G01X357871D01*
X360273D02*
G01X361073Y59051D01*
Y57450*
X360273Y54327D02*
G01X359472D01*
Y51125*
X358671D02*
G01X360273D01*
X361073Y51925*
Y53527*
X360273Y54327*
X357871Y53527D02*
G01Y51925D01*
X358671Y51125*
Y48803D02*
G01X357871Y48002D01*
Y45600*
X362675*
Y48002*
X361874Y48803*
X361073*
X360273Y48002*
Y45600*
Y48002D02*
G01X359472Y48803D01*
X358671*
G54D11*
X67271Y41500D02*
G01Y206500D01*
X67278Y207104*
X67300Y207708*
X67337Y208311*
X67388Y208913*
X67453Y209513*
X67533Y210112*
X67628Y210709*
X67737Y211303*
X67860Y211895*
X67997Y212483*
X68149Y213068*
X68315Y213649*
X68495Y214225*
X68688Y214798*
X68896Y215365*
X69117Y215927*
X69351Y216484*
X69599Y217035*
X69860Y217580*
X70135Y218118*
X70422Y218650*
X70722Y219174*
X71034Y219691*
X71359Y220200*
X71696Y220702*
X72046Y221195*
X72407Y221679*
X72779Y222155*
X73163Y222621*
X73558Y223078*
X73964Y223525*
X74381Y223963*
X74808Y224390*
X75246Y224807*
X75693Y225213*
X76150Y225608*
X76616Y225992*
X77092Y226364*
X77576Y226725*
X78069Y227075*
X78571Y227412*
X79080Y227737*
X79597Y228049*
X80121Y228349*
X80653Y228636*
X81191Y228911*
X81736Y229172*
X82287Y229420*
X82844Y229654*
X83406Y229875*
X83973Y230083*
X84546Y230276*
X85122Y230456*
X85703Y230622*
X86288Y230774*
X86876Y230911*
X87468Y231034*
X88062Y231143*
X88659Y231238*
X89258Y231318*
X89858Y231383*
X90460Y231434*
X91063Y231471*
X91667Y231493*
X92271Y231500*
X357271*
X342771Y224500D02*
G01X330771D01*
X326271Y229000*
X298271*
X293771Y224500*
X281771*
X288271Y208500D02*
G01X290271D01*
X292271Y206500*
Y192000*
X290771Y194500D02*
G01X289271Y193000D01*
X287771*
X290771Y194500D02*
G01Y202500D01*
X289271Y204000*
X288271*
X284271Y197000D02*
G01Y193500D01*
X283771Y193000*
X273019Y188185D02*
G01Y198815D01*
X266523D02*
G01Y188185D01*
X214408Y177691D02*
G01Y177198D01*
X213916Y177691*
X214408*
X213916D02*
G01X213424D01*
X214408Y176706*
Y176214*
X212932Y177691*
X213424*
X212932D02*
G01X212440D01*
X214408Y175722*
Y175230*
X211948Y177691*
X212440*
X211948D02*
G01X169133D01*
Y126509*
X214408*
Y175230*
Y175722D02*
G01Y176214D01*
Y176706D02*
G01Y177198D01*
X190771Y184900D02*
G01Y196700D01*
X178971*
Y184900*
X190771*
X178737Y197737D02*
G01X178739Y197764D01*
X178745Y197791*
X178754Y197817*
X178767Y197841*
X178783Y197864*
X178802Y197883*
X178824Y197900*
X178848Y197914*
X178873Y197924*
X178900Y197931*
X178927Y197934*
X178955Y197933*
X178982Y197928*
X179008Y197920*
X179032Y197908*
X179055Y197892*
X179076Y197874*
X179093Y197853*
X179108Y197829*
X179119Y197804*
X179127Y197778*
X179131Y197751*
Y197723*
X179127Y197696*
X179119Y197670*
X179108Y197645*
X179093Y197621*
X179076Y197600*
X179055Y197582*
X179033Y197566*
X179008Y197554*
X178982Y197546*
X178955Y197541*
X178927Y197540*
X178900Y197543*
X178873Y197550*
X178848Y197560*
X178824Y197574*
X178802Y197591*
X178783Y197610*
X178767Y197633*
X178754Y197657*
X178745Y197683*
X178739Y197710*
X178737Y197737*
X126314Y143543D02*
G01X115566D01*
X106353D02*
G01X87574D01*
X79191Y152736D02*
G01X77380D01*
X68561D02*
G01X67262D01*
Y182264*
X68561*
X77380D02*
G01X79191D01*
X84191Y174902D02*
G01Y174075D01*
Y160925D02*
G01Y160098D01*
X69149Y143543D02*
G01X67259D01*
Y86457*
X69149*
X87574D02*
G01X111471D01*
X120684D02*
G01X126314D01*
Y89803*
Y93150D02*
G01Y98465D01*
Y104567D02*
G01Y122087D01*
Y131535D02*
G01Y143543D01*
X129271Y74500D02*
G01Y63500D01*
X134271*
Y74500*
X129271*
X128771Y52000D02*
G01Y41000D01*
X133771*
Y52000*
X128771*
X92271Y16500D02*
G01X91667Y16507D01*
X91063Y16529*
X90460Y16566*
X89858Y16617*
X89258Y16682*
X88659Y16762*
X88062Y16857*
X87468Y16966*
X86876Y17089*
X86288Y17226*
X85703Y17378*
X85122Y17544*
X84546Y17724*
X83973Y17917*
X83406Y18125*
X82844Y18346*
X82287Y18580*
X81736Y18828*
X81191Y19089*
X80653Y19364*
X80121Y19651*
X79597Y19951*
X79080Y20263*
X78571Y20588*
X78069Y20925*
X77576Y21275*
X77092Y21636*
X76616Y22008*
X76150Y22392*
X75693Y22787*
X75246Y23193*
X74808Y23610*
X74381Y24037*
X73964Y24475*
X73558Y24922*
X73163Y25379*
X72779Y25845*
X72407Y26321*
X72046Y26805*
X71696Y27298*
X71359Y27800*
X71034Y28309*
X70722Y28826*
X70422Y29350*
X70135Y29882*
X69860Y30420*
X69599Y30965*
X69351Y31516*
X69117Y32073*
X68896Y32635*
X68688Y33202*
X68495Y33775*
X68315Y34351*
X68149Y34932*
X67997Y35517*
X67860Y36105*
X67737Y36697*
X67628Y37291*
X67533Y37888*
X67453Y38487*
X67388Y39087*
X67337Y39689*
X67300Y40292*
X67278Y40896*
X67271Y41500*
X80232Y48280D02*
G01X80234Y48299D01*
X80239Y48318*
X80249Y48334*
X80261Y48349*
X80276Y48361*
X80292Y48371*
X80311Y48376*
X80330Y48378*
X80349Y48376*
X80368Y48371*
X80384Y48361*
X80399Y48349*
X80411Y48334*
X80421Y48318*
X80426Y48299*
X80428Y48280*
X80426Y48261*
X80421Y48242*
X80411Y48226*
X80399Y48211*
X80384Y48199*
X80368Y48189*
X80349Y48184*
X80330Y48182*
X80311Y48184*
X80292Y48189*
X80276Y48199*
X80261Y48211*
X80249Y48226*
X80239Y48242*
X80234Y48261*
X80232Y48280*
X80802Y48772D02*
G01X84739D01*
Y55228D02*
G01X80802D01*
X92271Y16500D02*
G01X357271D01*
X358479Y16515*
X359687Y16558*
X360893Y16631*
X362097Y16733*
X363298Y16865*
X364495Y17025*
X365689Y17214*
X366877Y17431*
X368060Y17678*
X369237Y17953*
X370406Y18256*
X371568Y18588*
X372722Y18947*
X373866Y19334*
X375001Y19749*
X376126Y20191*
X377239Y20660*
X378341Y21156*
X379431Y21679*
X380507Y22227*
X381570Y22802*
X382619Y23402*
X383653Y24027*
X384672Y24676*
X385674Y25351*
X386660Y26049*
X387629Y26771*
X388580Y27516*
X389513Y28284*
X390427Y29074*
X391322Y29887*
X392197Y30720*
X393051Y31574*
X393884Y32449*
X394697Y33344*
X395487Y34258*
X396255Y35191*
X397000Y36142*
X397722Y37111*
X398420Y38097*
X399095Y39099*
X399744Y40118*
X400369Y41152*
X400969Y42201*
X401544Y43264*
X402092Y44340*
X402615Y45430*
X403111Y46532*
X403580Y47645*
X404022Y48770*
X404437Y49905*
X404824Y51049*
X405183Y52203*
X405515Y53365*
X405818Y54534*
X406093Y55711*
X406340Y56894*
X406557Y58082*
X406746Y59276*
X406906Y60473*
X407038Y61674*
X407140Y62878*
X407213Y64084*
X407256Y65292*
X407271Y66500*
Y181500*
X407256Y182708*
X407213Y183916*
X407140Y185122*
X407038Y186326*
X406906Y187527*
X406746Y188724*
X406557Y189918*
X406340Y191106*
X406093Y192289*
X405818Y193466*
X405515Y194635*
X405183Y195797*
X404824Y196951*
X404437Y198095*
X404022Y199230*
X403580Y200355*
X403111Y201468*
X402615Y202570*
X402092Y203660*
X401544Y204736*
X400969Y205799*
X400369Y206848*
X399744Y207882*
X399095Y208901*
X398420Y209903*
X397722Y210889*
X397000Y211858*
X396255Y212809*
X395487Y213742*
X394697Y214656*
X393884Y215551*
X393051Y216426*
X392197Y217280*
X391322Y218113*
X390427Y218926*
X389513Y219716*
X388580Y220484*
X387629Y221229*
X386660Y221951*
X385674Y222649*
X384672Y223324*
X383653Y223973*
X382619Y224598*
X381570Y225198*
X380507Y225773*
X379431Y226321*
X378341Y226844*
X377239Y227340*
X376126Y227809*
X375001Y228251*
X373866Y228666*
X372722Y229053*
X371568Y229412*
X370406Y229744*
X369237Y230047*
X368060Y230322*
X366877Y230569*
X365689Y230786*
X364495Y230975*
X363298Y231135*
X362097Y231267*
X360893Y231369*
X359687Y231442*
X358479Y231485*
X357271Y231500*
X269271Y87500D02*
G01Y67000D01*
X262271Y66500D02*
G01Y87500D01*
X255271D02*
G01Y67000D01*
G54D12*
X252823Y75650D02*
G01X249921D01*
Y77585*
Y78597D02*
G01X252823D01*
X251856Y79564*
X252823Y80531*
X249921*
X250404Y81543D02*
G01X249921Y82027D01*
Y82994*
X250404Y83478*
X252823*
X251856Y84490D02*
G01X252823Y85457D01*
X249921*
Y84490D02*
G01Y86425D01*
X253921Y88650D02*
G01Y90585D01*
Y91597D02*
G01X256823D01*
X255856Y92564*
X256823Y93531*
X253921*
X254404Y94543D02*
G01X253921Y95027D01*
Y95994*
X254404Y96478*
X256823*
X256339Y97490D02*
G01X256823Y97973D01*
Y98941*
X256339Y99425*
X254404Y97490*
X253921Y97973*
Y98941*
X254404Y99425*
X256339*
Y97490D02*
G01X254404D01*
Y94543D02*
G01X256823D01*
X261421Y95027D02*
G01Y95994D01*
X261904Y96478*
X263839*
X264323Y95994*
Y95027*
X263839Y94543*
X261904*
X261421Y95027*
X261904Y93531D02*
G01X263839D01*
X264323Y93048*
Y91597*
X261421*
Y93048*
X261904Y93531*
X264323Y90585D02*
G01Y88650D01*
Y89617D02*
G01X261421D01*
X256823Y88650D02*
G01X253921D01*
X255372D02*
G01Y89617D01*
X256823Y88650D02*
G01Y90585D01*
X257421Y83478D02*
G01X258872Y82027D01*
X258388Y81543D02*
G01X260323Y83478D01*
Y81543D02*
G01X257421D01*
X257904Y80531D02*
G01X257421Y80048D01*
Y79080*
X257904Y78597*
X259839*
X260323Y79080*
Y80048*
X259839Y80531*
X260323Y77585D02*
G01Y75650D01*
Y76617D02*
G01X257421D01*
X252823Y77585D02*
G01Y75650D01*
X251372D02*
G01Y76617D01*
X250404Y81543D02*
G01X252823D01*
X264421D02*
G01Y82511D01*
Y82027D02*
G01X267323D01*
Y81543D02*
G01Y82511D01*
X266839Y80531D02*
G01X267323Y80048D01*
Y78597*
X264421*
Y80048*
X264904Y80531*
X266839*
X267323Y77585D02*
G01Y75650D01*
Y76617D02*
G01X264421D01*
X271421D02*
G01X274323D01*
Y75650D02*
G01Y77585D01*
Y78597D02*
G01Y80048D01*
X273839Y80531*
X272872*
X272388Y80048*
Y78597*
Y79564D02*
G01X271421Y80531D01*
X271904Y81543D02*
G01X271421Y82027D01*
Y82994*
X271904Y83478*
X272388*
X272872Y82994*
Y82027*
X273356Y81543*
X273839*
X274323Y82027*
Y82994*
X273839Y83478*
X274846Y83650D02*
G01X276781D01*
X275814D02*
G01Y86552D01*
X276781Y85585*
X277793Y83650D02*
G01X279728D01*
X278760D02*
G01Y86552D01*
X279728Y85585*
X280739Y83650D02*
G01X282674D01*
X281707D02*
G01Y86552D01*
X282674Y85585*
X283686Y86069D02*
G01Y85101D01*
X284169Y84617*
X285621*
Y83650D02*
G01Y86552D01*
X284169*
X283686Y86069*
X284653Y84617D02*
G01X283686Y83650D01*
X284169Y88150D02*
G01X283686Y88634D01*
X284169Y88150D02*
G01X285137D01*
X285621Y88634*
Y90569*
X285137Y91052*
X284169*
X283686Y90569*
X282674Y89601D02*
G01X280739D01*
X279728Y90569D02*
G01X279244Y91052D01*
X278276*
X277793Y90569*
Y90085*
X279728Y88150*
X277793*
X281223D02*
G01Y91052D01*
X282674Y89601*
X281223Y92650D02*
G01Y95552D01*
X282674Y94101*
X280739*
X279728Y93134D02*
G01X279244Y92650D01*
X278276*
X277793Y93134*
Y93617*
X278276Y94101*
X278760*
X278276D02*
G01X277793Y94585D01*
Y95069*
X278276Y95552*
X279244*
X279728Y95069*
X278276Y97150D02*
G01Y100052D01*
X279728Y98601*
X277793*
X280739D02*
G01X282674D01*
X281223Y100052*
Y97150*
X283686Y97634D02*
G01X284169Y97150D01*
X285137*
X285621Y97634*
Y99569*
X285137Y100052*
X284169*
X283686Y99569*
X284169Y95552D02*
G01X283686Y95069D01*
X284169Y95552D02*
G01X285137D01*
X285621Y95069*
Y93134*
X285137Y92650*
X284169*
X283686Y93134*
X274323Y89371D02*
G01X271421D01*
X274323Y87436*
X271421*
X270823Y88650D02*
G01Y90585D01*
Y89617D02*
G01X267921D01*
Y91597D02*
G01X270823D01*
X269856Y92564*
X270823Y93531*
X267921*
X268404Y94543D02*
G01X267921Y95027D01*
Y95994*
X268404Y96478*
X268888*
X269372Y95994*
Y95027*
X269856Y94543*
X270339*
X270823Y95027*
Y95994*
X270339Y96478*
X274323Y86425D02*
G01Y84490D01*
Y85457D02*
G01X271421D01*
Y78597D02*
G01X274323D01*
X287721Y67655D02*
G01Y66687D01*
X288204Y66203*
X290139Y68138*
X288204*
X287721Y67655*
X288204Y66203D02*
G01X290139D01*
X290623Y66687*
Y67655*
X290139Y68138*
X292221Y67655D02*
G01X292704Y68138D01*
X294639*
X295123Y67655*
Y66687*
X294639Y66203*
X294156*
X293672Y66687*
Y68138*
X292221Y67655D02*
G01Y66687D01*
X292704Y66203*
Y65192D02*
G01X292221Y64708D01*
Y63741*
X292704Y63257*
X294639Y65192*
X292704*
Y63257D02*
G01X294639D01*
X295123Y63741*
Y64708*
X294639Y65192*
X296721D02*
G01Y63257D01*
Y64224D02*
G01X299623D01*
X298656Y63257*
X299139Y62245D02*
G01X298172D01*
X297688Y61762*
Y60310*
X296721D02*
G01X299623D01*
Y61762*
X299139Y62245*
X297688Y61278D02*
G01X296721Y62245D01*
X295123Y61278D02*
G01X292221D01*
Y62245D02*
G01Y60310D01*
Y59299D02*
G01X293188Y58331D01*
Y58815D02*
G01Y57364D01*
X292221D02*
G01X295123D01*
Y58815*
X294639Y59299*
X293672*
X293188Y58815*
X294156Y60310D02*
G01X295123Y61278D01*
X290623D02*
G01X287721D01*
Y62245D02*
G01Y60310D01*
Y59299D02*
G01X288688Y58331D01*
Y58815D02*
G01Y57364D01*
X287721D02*
G01X290623D01*
Y58815*
X290139Y59299*
X289172*
X288688Y58815*
X289656Y60310D02*
G01X290623Y61278D01*
X289656Y63257D02*
G01X290623Y64224D01*
X287721*
Y63257D02*
G01Y65192D01*
X296721Y67655D02*
G01X299623D01*
X298172Y66203*
Y68138*
X301721D02*
G01Y66203D01*
Y67171D02*
G01X304623D01*
X303656Y66203*
X304139Y65192D02*
G01X303172D01*
X302688Y64708*
Y63257*
Y64224D02*
G01X301721Y65192D01*
Y63257D02*
G01X304623D01*
Y64708*
X304139Y65192*
X330393Y51819D02*
G01X330876Y52302D01*
X331844*
X332328Y51819*
Y51335*
X331844Y50851*
X330393*
Y49884D02*
G01Y51819D01*
Y49884D02*
G01X330876Y49400D01*
X331844*
X332328Y49884*
X333339Y49400D02*
G01X335274D01*
X334307D02*
G01Y52302D01*
X335274Y51335*
X336286Y51819D02*
G01Y50851D01*
X336769Y50367*
X338221*
Y49400D02*
G01Y52302D01*
X336769*
X336286Y51819*
X337253Y50367D02*
G01X336286Y49400D01*
X336786Y61900D02*
G01X337753Y62867D01*
X337269D02*
G01X338721D01*
Y61900D02*
G01Y64802D01*
X337269*
X336786Y64319*
Y63351*
X337269Y62867*
X335774Y61900D02*
G01X333839D01*
X332828Y62384D02*
G01X332344Y61900D01*
X331376*
X330893Y62384*
Y63351*
X331376Y63835*
X331860*
X332828Y63351*
Y64802*
X330893*
X333839Y64319D02*
G01X334323Y64802D01*
X335290*
X335774Y64319*
X333839D02*
G01Y63835D01*
X335774Y61900*
X373171Y94134D02*
G01Y95101D01*
X373654Y95585*
X373171Y96597D02*
G01X375106Y98531D01*
X375589*
X376073Y98048*
Y97080*
X375589Y96597*
Y95585D02*
G01X376073Y95101D01*
Y94134*
X375589Y93650*
X373654*
X373171Y94134*
Y96597D02*
G01Y98531D01*
X340373Y103234D02*
G01X339889Y102750D01*
X337954*
X337471Y103234*
Y104201*
X337954Y104685*
X337471Y105697D02*
G01X339406Y107631D01*
X339889*
X340373Y107148*
Y106180*
X339889Y105697*
Y104685D02*
G01X340373Y104201D01*
Y103234*
X337471Y105697D02*
G01Y107631D01*
X337954Y108643D02*
G01X337471Y109127D01*
Y110094*
X337954Y110578*
X338438*
X338922Y110094*
Y109611*
Y110094D02*
G01X339406Y110578D01*
X339889*
X340373Y110094*
Y109127*
X339889Y108643*
X334621Y128150D02*
G01Y131052D01*
X333169*
X332686Y130569*
Y129601*
X333169Y129117*
X334621*
X333653D02*
G01X332686Y128150D01*
X331674D02*
G01X329739D01*
X330707D02*
G01Y131052D01*
X331674Y130085*
Y132650D02*
G01X329739D01*
X330707D02*
G01Y135552D01*
X331674Y134585*
X332686Y135069D02*
G01Y134101D01*
X333169Y133617*
X334621*
Y132650D02*
G01Y135552D01*
X333169*
X332686Y135069*
X333653Y133617D02*
G01X332686Y132650D01*
X328728D02*
G01X326793D01*
X327760D02*
G01Y135552D01*
X328728Y134585*
Y137150D02*
G01X326793D01*
X327760D02*
G01Y140052D01*
X328728Y139085*
X329739Y137150D02*
G01X331674D01*
X330707D02*
G01Y140052D01*
X331674Y139085*
X332686Y139569D02*
G01Y138601D01*
X333169Y138117*
X334621*
Y137150D02*
G01Y140052D01*
X333169*
X332686Y139569*
X333653Y138117D02*
G01X332686Y137150D01*
Y141650D02*
G01X333653Y142617D01*
X333169D02*
G01X334621D01*
Y141650D02*
G01Y144552D01*
X333169*
X332686Y144069*
Y143101*
X333169Y142617*
X331674Y141650D02*
G01X329739D01*
X330707D02*
G01Y144552D01*
X331674Y143585*
Y146150D02*
G01X329739D01*
X330707D02*
G01Y149052D01*
X331674Y148085*
X332686Y148569D02*
G01Y147601D01*
X333169Y147117*
X334621*
Y146150D02*
G01Y149052D01*
X333169*
X332686Y148569*
X333653Y147117D02*
G01X332686Y146150D01*
X328728Y147601D02*
G01X326793D01*
X325781Y146634D02*
G01X325297Y146150D01*
X324330*
X323846Y146634*
Y148569*
X325781Y146634*
Y148569*
X325297Y149052*
X324330*
X323846Y148569*
X324330Y150650D02*
G01X325297D01*
X325781Y151134*
Y152101D02*
G01X324814Y152585D01*
X324330*
X323846Y152101*
Y151134*
X324330Y150650*
X325781Y152101D02*
G01Y153552D01*
X323846*
X324330Y155250D02*
G01X323846Y155734D01*
Y157669*
X324330Y158152*
X325297*
X325781Y157669*
Y157185*
X325297Y156701*
X323846*
X324330Y155250D02*
G01X325297D01*
X325781Y155734*
X326793Y155250D02*
G01X328728D01*
X326793Y157185*
Y157669*
X327276Y158152*
X328244*
X328728Y157669*
Y159650D02*
G01Y160134D01*
X326793Y162069*
Y162552*
X328728*
X328244Y164150D02*
G01X327276D01*
X326793Y164634*
Y165117*
X327276Y165601*
X328728*
Y164634*
X328244Y164150*
X329739D02*
G01X331674D01*
X330707D02*
G01Y167052D01*
X331674Y166085*
X332686Y166569D02*
G01Y165601D01*
X333169Y165117*
X334621*
Y164150D02*
G01Y167052D01*
X333169*
X332686Y166569*
X333653Y165117D02*
G01X332686Y164150D01*
X333169Y162552D02*
G01X332686Y162069D01*
Y161101*
X333169Y160617*
X334621*
Y159650D02*
G01Y162552D01*
X333169*
X331674Y161585D02*
G01X330707Y162552D01*
Y159650*
X331674D02*
G01X329739D01*
X330707Y158152D02*
G01Y155250D01*
X331674D02*
G01X329739D01*
X330707Y153552D02*
G01Y150650D01*
X331674D02*
G01X329739D01*
X328728Y151134D02*
G01X328244Y150650D01*
X327276*
X326793Y151134*
Y151617*
X327276Y152101*
X327760*
X327276D02*
G01X326793Y152585D01*
Y153069*
X327276Y153552*
X328244*
X328728Y153069*
X330707Y153552D02*
G01X331674Y152585D01*
X332686Y153069D02*
G01Y152101D01*
X333169Y151617*
X334621*
Y150650D02*
G01Y153552D01*
X333169*
X332686Y153069*
X333653Y151617D02*
G01X332686Y150650D01*
X328728Y147601D02*
G01X327276Y149052D01*
Y146150*
Y144552D02*
G01X326793Y144069D01*
Y143585*
X327276Y143101*
X326793Y142617*
Y142134*
X327276Y141650*
X328244*
X328728Y142134*
X327760Y143101D02*
G01X327276D01*
Y144552D02*
G01X328244D01*
X328728Y144069*
X325781Y143585D02*
G01X324814Y144552D01*
Y141650*
X325781D02*
G01X323846D01*
Y140052D02*
G01X325781D01*
Y138601*
X324814Y139085*
X324330*
X323846Y138601*
Y137634*
X324330Y137150*
X325297*
X325781Y137634*
X325297Y135552D02*
G01X324330D01*
X323846Y135069*
Y134585*
X324330Y134101*
X323846Y133617*
Y133134*
X324330Y132650*
X325297*
X325781Y133134*
X324814Y134101D02*
G01X324330D01*
X325297Y135552D02*
G01X325781Y135069D01*
X325297Y131052D02*
G01X324330D01*
X323846Y130569*
Y130085*
X324330Y129601*
X325297*
X325781Y130085*
Y130569*
X325297Y131052*
Y129601D02*
G01X325781Y129117D01*
Y128634*
X325297Y128150*
X324330*
X323846Y128634*
Y129117*
X324330Y129601*
X326793Y128150D02*
G01X328728D01*
X327760D02*
G01Y131052D01*
X328728Y130085*
X300823Y108941D02*
G01X300339Y109425D01*
X299856*
X299372Y108941*
Y107973*
X299856Y107490*
X300339*
X300823Y107973*
Y108941*
X299372D02*
G01X298888Y109425D01*
X298404*
X297921Y108941*
Y107973*
X298404Y107490*
X298888*
X299372Y107973*
Y106478D02*
G01X298404D01*
X297921Y105994*
Y105027*
X298404Y104543*
X299372D02*
G01X299856Y105511D01*
Y105994*
X299372Y106478*
X300823D02*
G01Y104543D01*
X299372*
X297921Y103531D02*
G01Y101597D01*
Y102564D02*
G01X300823D01*
X299856Y101597*
X300339Y100585D02*
G01X299372D01*
X298888Y100101*
Y98650*
X297921D02*
G01X300823D01*
Y100101*
X300339Y100585*
X298888Y99617D02*
G01X297921Y100585D01*
X302921Y100101D02*
G01Y99134D01*
X303404Y98650*
X305339*
X305823Y99134*
Y100101*
X305339Y100585*
X304372Y101597D02*
G01Y103531D01*
X304856Y104543D02*
G01X305823Y105511D01*
X302921*
Y106478D02*
G01Y104543D01*
Y103048D02*
G01X305823D01*
X304372Y101597*
X303404Y100585D02*
G01X302921Y100101D01*
X235407Y142950D02*
G01Y145852D01*
X233955*
X233472Y145369*
Y144401*
X233955Y143917*
X235407*
X234439D02*
G01X233472Y142950D01*
X232460D02*
G01X230525D01*
X231493D02*
G01Y145852D01*
X232460Y144885*
Y147450D02*
G01Y150352D01*
X231009*
X230525Y149869*
Y148901*
X231009Y148417*
X232460*
X231493D02*
G01X230525Y147450D01*
X229514Y147934D02*
G01X229030Y147450D01*
X228062*
X227579Y147934*
Y149869*
X228062Y150352*
X229030*
X229514Y149869*
Y149385*
X229030Y148901*
X227579*
X226567D02*
G01X224632D01*
X225116Y147450D02*
G01Y150352D01*
X226567Y148901*
X226083Y151950D02*
G01X225116D01*
X224632Y152434*
Y152917*
X225116Y153401*
X226567*
Y152434*
X226083Y151950*
X226567Y153401D02*
G01X225600Y154369D01*
X224632Y154852*
X225116Y156450D02*
G01X226083D01*
X226567Y156934*
Y157901D02*
G01X225600Y158385D01*
X225116*
X224632Y157901*
Y156934*
X225116Y156450*
X226567Y157901D02*
G01Y159352D01*
X224632*
X228546D02*
G01Y156450D01*
X227579D02*
G01X229514D01*
X230525D02*
G01X231493Y157417D01*
X231009D02*
G01X232460D01*
Y156450D02*
G01Y159352D01*
X231009*
X230525Y158869*
Y157901*
X231009Y157417*
X229514Y158385D02*
G01X228546Y159352D01*
X227579Y154852D02*
G01X228546Y154369D01*
X229514Y153401*
X228062*
X227579Y152917*
Y152434*
X228062Y151950*
X229030*
X229514Y152434*
Y153401*
X230525D02*
G01X231009Y152917D01*
X232460*
Y151950D02*
G01Y154852D01*
X231009*
X230525Y154369*
Y153401*
X231493Y152917D02*
G01X230525Y151950D01*
X229514Y145852D02*
G01X227579D01*
X228062Y144885D02*
G01X227579Y144401D01*
Y143434*
X228062Y142950*
X229030*
X229514Y143434*
Y144401D02*
G01X228546Y144885D01*
X228062*
X229514Y144401D02*
G01Y145852D01*
X226567Y145369D02*
G01Y143434D01*
X224632Y145369*
Y143434*
X225116Y142950*
X226083*
X226567Y143434*
Y145369D02*
G01X226083Y145852D01*
X225116*
X224632Y145369*
X225214Y138402D02*
G01X223279D01*
Y137919*
X225214Y135984*
Y135500*
X226225D02*
G01X227193Y136467D01*
X226709D02*
G01X228160D01*
Y135500D02*
G01Y138402D01*
X226709*
X226225Y137919*
Y136951*
X226709Y136467*
X222267Y135984D02*
G01X221783Y135500D01*
X220816*
X220332Y135984*
Y136467*
X220816Y136951*
X222267*
Y135984*
Y136951D02*
G01X221300Y137919D01*
X220332Y138402*
X232226Y168650D02*
G01X231743Y169134D01*
Y171069*
X232226Y171552*
X233194*
X233678Y171069*
Y170585*
X233194Y170101*
X231743*
X232226Y168650D02*
G01X233194D01*
X233678Y169134*
X234689Y170101D02*
G01X236624D01*
X235173Y171552*
Y168650*
X237636Y169134D02*
G01X238119Y168650D01*
X239087*
X239571Y169134*
Y171069*
X239087Y171552*
X238119*
X237636Y171069*
X234123Y177310D02*
G01X231221D01*
X232188D02*
G01Y178762D01*
X232672Y179245*
X233639*
X234123Y178762*
Y177310*
X232188Y178278D02*
G01X231221Y179245D01*
X231704Y180257D02*
G01X231221Y180741D01*
Y181708*
X231704Y182192*
X232188*
X232672Y181708*
Y181224*
Y181708D02*
G01X233156Y182192D01*
X233639*
X234123Y181708*
Y180741*
X233639Y180257*
Y183203D02*
G01X231704D01*
X233639Y185138*
X231704*
X231221Y184655*
Y183687*
X231704Y183203*
X233639D02*
G01X234123Y183687D01*
Y184655*
X233639Y185138*
X230123Y184655D02*
G01X228672Y183203D01*
Y185138*
X227221Y184655D02*
G01X230123D01*
X228672Y182192D02*
G01Y180257D01*
X230123Y181708*
X227221*
X225623Y181224D02*
G01X222721D01*
Y180257D02*
G01Y182192D01*
X223204Y183203D02*
G01X222721Y183687D01*
Y184655*
X223204Y185138*
X224172*
X224656Y184655*
Y184171*
X224172Y183203*
X225623*
Y185138*
Y181224D02*
G01X224656Y180257D01*
X225139Y179245D02*
G01X225623Y178762D01*
Y177794*
X225139Y177310*
X223204*
X222721Y177794*
Y178762*
X223204Y179245*
X227221D02*
G01X228188Y178278D01*
Y178762D02*
G01Y177310D01*
X227221D02*
G01X230123D01*
Y178762*
X229639Y179245*
X228672*
X228188Y178762*
X215723Y181814D02*
G01Y183265D01*
X215239Y183749*
X214272*
X213788Y183265*
Y181814*
X212821D02*
G01X215723D01*
Y184760D02*
G01Y186212D01*
X215239Y186695*
X214272*
X213788Y186212*
Y184760*
X212821D02*
G01X215723D01*
X213788Y185728D02*
G01X212821Y186695D01*
X213304Y187707D02*
G01X212821Y188191D01*
Y189158*
X213304Y189642*
X215239*
X215723Y189158*
Y188191*
X215239Y187707*
X213304*
X215723Y190653D02*
G01Y192588D01*
Y191621D02*
G01X212821D01*
X194321Y205600D02*
G01Y208502D01*
X192869*
X192386Y208019*
Y207051*
X192869Y206567*
X194321*
X193353D02*
G01X192386Y205600D01*
X191374D02*
G01X189439Y207535D01*
Y208019*
X189923Y208502*
X190890*
X191374Y208019*
Y205600D02*
G01X189439D01*
X188428D02*
G01Y206084D01*
X186493Y208019*
Y208502*
X188428*
X184621Y207919D02*
G01Y205984D01*
X184137Y205500*
X183169*
X182686Y205984*
X181674Y205500D02*
G01X179739D01*
X180707D02*
G01Y208402D01*
X181674Y207435*
X182686Y207919D02*
G01X183169Y208402D01*
X184137*
X184621Y207919*
X178728Y208402D02*
G01X176793D01*
Y207919*
X178728Y205984*
Y205500*
X171873Y205727D02*
G01Y206694D01*
X171389Y207178*
X170906*
X170422Y206694*
Y205727*
X170906Y205243*
X171389*
X171873Y205727*
X170422D02*
G01X169938Y205243D01*
X169454*
X168971Y205727*
Y206694*
X169454Y207178*
X169938*
X170422Y206694*
X170906Y204231D02*
G01X171389D01*
X171873Y203748*
Y202780*
X171389Y202297*
Y201285D02*
G01X170422D01*
X169938Y200801*
Y199350*
X168971D02*
G01X171873D01*
Y200801*
X171389Y201285*
X169938Y200317D02*
G01X168971Y201285D01*
Y202297D02*
G01X170906Y204231D01*
X168971D02*
G01Y202297D01*
X170122Y195178D02*
G01Y193243D01*
X171573Y194694*
X168671*
X169154Y192231D02*
G01X168671Y191748D01*
Y190780*
X169154Y190297*
X168671Y189285D02*
G01X169638Y188317D01*
Y188801D02*
G01Y187350D01*
X168671D02*
G01X171573D01*
Y188801*
X171089Y189285*
X170122*
X169638Y188801*
X171089Y190297D02*
G01X171573Y190780D01*
Y191748*
X171089Y192231*
X170606*
X170122Y191748*
X169638Y192231*
X169154*
X170122Y191748D02*
G01Y191264D01*
X171891Y186553D02*
G01Y183250D01*
X169689*
X173004D02*
G01Y185452D01*
X174105Y186553*
X175206Y185452*
Y183250*
X176319Y183800D02*
G01X176869Y183250D01*
X178521*
Y186553*
X176869*
X176319Y186002*
Y185452*
X176869Y184901*
X178521*
X176869D02*
G01X176319Y184351D01*
Y183800*
X175206Y184901D02*
G01X173004D01*
X173500Y181602D02*
G01Y178700D01*
X174467D02*
G01X172532D01*
X174467Y180635D02*
G01X173500Y181602D01*
X175479Y181119D02*
G01X175962Y181602D01*
X176930*
X177414Y181119*
Y179184*
X176930Y178700*
X175962*
X175479Y179184*
X142682Y190113D02*
G01X139780D01*
Y192048*
Y193060D02*
G01X141715Y194994D01*
X142198*
X142682Y194511*
Y193543*
X142198Y193060*
X139780D02*
G01Y194994D01*
X136621Y185052D02*
G01X135169D01*
X134686Y184569*
Y183601*
X135169Y183117*
X136621*
Y182150D02*
G01Y185052D01*
X135653Y183117D02*
G01X134686Y182150D01*
X133674D02*
G01X131739D01*
X132707D02*
G01Y185052D01*
X133674Y184085*
X130728Y184569D02*
G01Y182634D01*
X128793Y184569*
Y182634*
X129276Y182150*
X130244*
X130728Y182634*
Y184569D02*
G01X130244Y185052D01*
X129276*
X128793Y184569*
X127781Y185052D02*
G01X125846D01*
Y184569*
X127781Y182634*
Y182150*
X121121D02*
G01Y185052D01*
X119669*
X119186Y184569*
Y183601*
X119669Y183117*
X121121*
X120153D02*
G01X119186Y182150D01*
X118174D02*
G01X116239Y184085D01*
Y184569*
X116723Y185052*
X117690*
X118174Y184569*
Y182150D02*
G01X116239D01*
X115228Y183601D02*
G01X113293D01*
X113776Y182150D02*
G01Y185052D01*
X115228Y183601*
X132793Y172619D02*
G01X133276Y173102D01*
X134244*
X134728Y172619*
X135739Y173102D02*
G01X137674D01*
Y171651*
X136707Y172135*
X136223*
X135739Y171651*
Y170684*
X136223Y170200*
X137190*
X137674Y170684*
X138686D02*
G01X139169Y170200D01*
X140137*
X140621Y170684*
Y172619*
X140137Y173102*
X139169*
X138686Y172619*
X134728Y170200D02*
G01X132793Y172135D01*
Y172619*
Y170200D02*
G01X134728D01*
X109873Y154594D02*
G01X108422Y153143D01*
Y155078*
X106971Y154594D02*
G01X109873D01*
Y152131D02*
G01Y150197D01*
X108422*
X108906Y151164*
Y151648*
X108422Y152131*
X107454*
X106971Y151648*
Y150680*
X107454Y150197*
X106971Y149185D02*
G01X107938Y148217D01*
Y148701D02*
G01Y147250D01*
X106971D02*
G01X109873D01*
Y148701*
X109389Y149185*
X108422*
X107938Y148701*
X103560Y147102D02*
G01Y144200D01*
Y145167D02*
G01X102109D01*
X101625Y145651*
Y146619*
X102109Y147102*
X103560*
X102593Y145167D02*
G01X101625Y144200D01*
X100614Y144684D02*
G01X100130Y144200D01*
X99162*
X98679Y144684*
Y145651*
X99162Y146135*
X99646*
X100614Y145651*
Y147102*
X98679*
X97667D02*
G01Y145651D01*
X96700Y146135*
X96216*
X95732Y145651*
Y144684*
X96216Y144200*
X97183*
X97667Y144684*
Y147102D02*
G01X95732D01*
X96967Y154700D02*
G01Y155184D01*
X95032Y157119*
Y157602*
X96967*
X97979D02*
G01X99914D01*
Y156151*
X98946Y156635*
X98462*
X97979Y156151*
Y155184*
X98462Y154700*
X99430*
X99914Y155184*
X100925Y154700D02*
G01X101893Y155667D01*
X101409D02*
G01X102860D01*
Y154700D02*
G01Y157602D01*
X101409*
X100925Y157119*
Y156151*
X101409Y155667*
X143946Y131219D02*
G01Y130735D01*
X144430Y130251*
X145397*
X145881Y130735*
Y131219*
X145397Y131702*
X144430*
X143946Y131219*
X144430Y130251D02*
G01X143946Y129767D01*
Y129284*
X144430Y128800*
X145397*
X145881Y129284*
Y129767*
X145397Y130251*
X146893Y129284D02*
G01X147376Y128800D01*
X148344*
X148828Y129284*
X146893Y131219*
Y129284*
X148828D02*
G01Y131219D01*
X148344Y131702*
X147376*
X146893Y131219*
Y133000D02*
G01X148828D01*
X147860D02*
G01Y135902D01*
X148828Y134935*
X149839Y134451D02*
G01Y133484D01*
X150323Y133000*
X151290*
X151774Y133484*
Y134451D02*
G01X150807Y134935D01*
X150323*
X149839Y134451*
Y135902D02*
G01X151774D01*
Y134451*
X152786Y133484D02*
G01X153269Y133000D01*
X154237*
X154721Y133484*
Y135419*
X154237Y135902*
X153269*
X152786Y135419*
X153269Y131702D02*
G01X152786Y131219D01*
Y130251*
X153269Y129767*
X154721*
Y128800D02*
G01Y131702D01*
X153269*
X151774Y130735D02*
G01X150807Y131702D01*
Y128800*
X151774D02*
G01X149839D01*
X150323Y127102D02*
G01X149839Y126619D01*
Y126135*
X150323Y125651*
X151290*
X151774Y126135*
Y126619*
X151290Y127102*
X150323*
Y125651D02*
G01X149839Y125167D01*
Y124684*
X150323Y124200*
X151290*
X151774Y124684*
Y125167*
X151290Y125651*
X152786D02*
G01Y126619D01*
X153269Y127102*
X154721*
Y124200*
Y125167D02*
G01X153269D01*
X152786Y125651*
X153753Y125167D02*
G01X152786Y124200D01*
X148828Y124684D02*
G01X148344Y124200D01*
X147376*
X146893Y124684*
Y126619*
X147376Y127102*
X148344*
X148828Y126619*
Y126135*
X148344Y125651*
X146893*
X152786Y128800D02*
G01X153753Y129767D01*
X152360Y106702D02*
G01X150909D01*
X150425Y106219*
Y105251*
X150909Y104767*
X152360*
Y103800D02*
G01Y106702D01*
X151393Y104767D02*
G01X150425Y103800D01*
X149414Y104284D02*
G01X148930Y103800D01*
X147962*
X147479Y104284*
Y105251*
X147962Y105735*
X148446*
X149414Y105251*
Y106702*
X147479*
X146467Y106219D02*
G01X145983Y106702D01*
X145016*
X144532Y106219*
Y105735*
X145016Y105251*
X145983*
X146467Y105735*
Y106219*
X145983Y105251D02*
G01X146467Y104767D01*
Y104284*
X145983Y103800*
X145016*
X144532Y104284*
Y104767*
X145016Y105251*
X154835Y103270D02*
G01X157971Y100134D01*
Y101702D02*
G01X154835D01*
Y100134D02*
G01X157971Y103270D01*
X156403D02*
G01Y100134D01*
X164921Y100031D02*
G01Y98097D01*
X166856Y100031*
X167339*
X167823Y99548*
Y98580*
X167339Y98097*
Y97085D02*
G01X166372D01*
X165888Y96601*
Y95150*
X164921D02*
G01X167823D01*
Y96601*
X167339Y97085*
X165888Y96117D02*
G01X164921Y97085D01*
X165404Y101043D02*
G01X164921Y101527D01*
Y102494*
X165404Y102978*
X165888*
X166372Y102494*
Y102011*
Y102494D02*
G01X166856Y102978D01*
X167339*
X167823Y102494*
Y101527*
X167339Y101043*
Y93031D02*
G01X167823Y92548D01*
Y91580*
X167339Y91097*
Y90085D02*
G01X166372D01*
X165888Y89601*
Y88150*
X164921D02*
G01X167823D01*
Y89601*
X167339Y90085*
X165888Y89117D02*
G01X164921Y90085D01*
Y91097D02*
G01X166856Y93031D01*
X167339*
X164921D02*
G01Y91097D01*
X159521Y83702D02*
G01X158069D01*
X157586Y83219*
Y82251*
X158069Y81767*
X159521*
Y80800D02*
G01Y83702D01*
X158553Y81767D02*
G01X157586Y80800D01*
X156574Y81284D02*
G01Y82251D01*
X155123*
X154639Y81767*
Y81284*
X155123Y80800*
X156090*
X156574Y81284*
Y82251D02*
G01X155607Y83219D01*
X154639Y83702*
X153628Y83219D02*
G01X153144Y83702D01*
X152176*
X151693Y83219*
X153628Y81284*
X153144Y80800*
X152176*
X151693Y81284*
Y83219*
X153628D02*
G01Y81284D01*
X148823Y81011D02*
G01X145921D01*
Y81978D02*
G01Y80043D01*
X146404Y79031D02*
G01X146888D01*
X147372Y78548*
Y77097*
X146404*
X145921Y77580*
Y78548*
X146404Y79031*
X147856Y80043D02*
G01X148823Y81011D01*
Y79031D02*
G01X148339Y78064D01*
X147372Y77097*
X148339Y76085D02*
G01X148823Y75601D01*
Y74634*
X148339Y74150*
X146404*
X145921Y74634*
Y75601*
X146404Y76085*
X144573Y75601D02*
G01X144089Y76085D01*
X143122*
X142638Y75601*
Y74150*
X141671D02*
G01X144573D01*
Y75601*
X143606Y77097D02*
G01X144573Y78064D01*
X141671*
Y77097D02*
G01Y79031D01*
X142154Y80043D02*
G01X141671Y80527D01*
Y81494*
X142154Y81978*
X143122*
X143606Y81494*
Y81011*
X143122Y80043*
X144573*
Y81978*
X143122Y82990D02*
G01X144089Y83957D01*
X144573Y84925*
X143122Y84441D02*
G01Y82990D01*
X142154*
X141671Y83473*
Y84441*
X142154Y84925*
X142638*
X143122Y84441*
X141960Y84984D02*
G01X141476Y84500D01*
X140509*
X140025Y84984*
X139014Y84500D02*
G01X137079Y86435D01*
Y86919*
X137562Y87402*
X138530*
X139014Y86919*
X140025D02*
G01X140509Y87402D01*
X141476*
X141960Y86919*
Y84984*
X139014Y84500D02*
G01X137079D01*
X136067Y84984D02*
G01Y85467D01*
X135583Y85951*
X134616*
X134132Y85467*
Y84984*
X134616Y84500*
X135583*
X136067Y84984*
X135583Y85951D02*
G01X136067Y86435D01*
Y86919*
X135583Y87402*
X134616*
X134132Y86919*
Y86435*
X134616Y85951*
X131873Y88710D02*
G01X128971D01*
X129938D02*
G01Y90162D01*
X130422Y90645*
X131389*
X131873Y90162*
Y88710*
X129938Y89678D02*
G01X128971Y90645D01*
X129454Y91657D02*
G01X128971Y92141D01*
Y93108*
X129454Y93592*
X129938*
X130422Y93108*
Y91657*
X129454*
X130422D02*
G01X131389Y92624D01*
X131873Y93592*
Y94603D02*
G01X130422D01*
X130906Y95571*
Y96055*
X130422Y96538*
X129454*
X128971Y96055*
Y95087*
X129454Y94603*
X131873D02*
G01Y96538D01*
X137321Y93498D02*
G01Y92530D01*
X137804Y92047*
X138772D02*
G01X139256Y93014D01*
Y93498*
X138772Y93981*
X137804*
X137321Y93498*
X138772Y92047D02*
G01X140223D01*
Y93981*
Y91035D02*
G01X137804D01*
X137321Y90551*
Y89584*
X137804Y89100*
X140223*
X134137Y78052D02*
G01X134621Y77569D01*
Y75634*
X134137Y75150*
X133169*
X132686Y75634*
X131674Y76601D02*
G01X129739D01*
X128728D02*
G01X127276D01*
X126793Y76117*
Y75634*
X127276Y75150*
X128244*
X128728Y75634*
Y76601*
X127760Y77569*
X126793Y78052*
X130223D02*
G01Y75150D01*
X131674Y76601D02*
G01X130223Y78052D01*
X132686Y77569D02*
G01X133169Y78052D01*
X134137*
X141671Y76085D02*
G01X142638Y75117D01*
X160993Y77984D02*
G01X161476Y77500D01*
X162444*
X162928Y77984*
X163939D02*
G01X164423Y77500D01*
X165390*
X165874Y77984*
X166886D02*
G01X167369Y77500D01*
X168337*
X168821Y77984*
Y79919*
X168337Y80402*
X167369*
X166886Y79919*
X165874D02*
G01X165390Y80402D01*
X164423*
X163939Y79919*
Y79435*
X164423Y78951*
X163939Y78467*
Y77984*
X164423Y78951D02*
G01X164907D01*
X162928Y79919D02*
G01X162444Y80402D01*
X161476*
X160993Y79919*
Y79435*
X161476Y78951*
X160993Y78467*
Y77984*
X161476Y78951D02*
G01X161960D01*
X168616Y62852D02*
G01X168132Y62369D01*
Y61885*
X168616Y61401*
X168132Y60917*
Y60434*
X168616Y59950*
X169583*
X170067Y60434*
X171079D02*
G01Y60917D01*
X171562Y61401*
X173014*
Y60434*
X172530Y59950*
X171562*
X171079Y60434*
X172046Y62369D02*
G01X173014Y61401D01*
X172046Y62369D02*
G01X171079Y62852D01*
X170067Y62369D02*
G01X169583Y62852D01*
X168616*
Y61401D02*
G01X169100D01*
X174025Y60434D02*
G01X174509Y59950D01*
X175476*
X175960Y60434*
Y62369*
X175476Y62852*
X174509*
X174025Y62369*
X158241Y50786D02*
G01X155105Y47650D01*
X156673D02*
G01Y50786D01*
X155105D02*
G01X158241Y47650D01*
Y49218D02*
G01X155105D01*
X155062Y40352D02*
G01X156030D01*
X156514Y39869*
Y39385*
X156030Y38901*
X154579*
Y37934D02*
G01Y39869D01*
X155062Y40352*
X153567D02*
G01Y38901D01*
X152600Y39385*
X152116*
X151632Y38901*
Y37934*
X152116Y37450*
X153083*
X153567Y37934*
X154579D02*
G01X155062Y37450D01*
X156030*
X156514Y37934*
X157525Y37450D02*
G01X158493Y38417D01*
X158009D02*
G01X159460D01*
Y37450D02*
G01Y40352D01*
X158009*
X157525Y39869*
Y38901*
X158009Y38417*
X153567Y40352D02*
G01X151632D01*
X138123Y42294D02*
G01X137639Y41810D01*
X135704*
X135221Y42294*
Y43262*
X135704Y43745*
Y44757D02*
G01X135221Y45241D01*
Y46208*
X135704Y46692*
X136188*
X136672Y46208*
Y44757*
X135704*
X136672D02*
G01X137639Y45724D01*
X138123Y46692*
X137639Y47703D02*
G01X138123Y48187D01*
Y49155*
X137639Y49638*
X137156*
X135221Y47703*
Y49638*
X137639Y43745D02*
G01X138123Y43262D01*
Y42294*
X129976Y59450D02*
G01X129009D01*
X128525Y59934*
X127514Y60901D02*
G01X125579D01*
X124567D02*
G01X123600Y61385D01*
X123116*
X122632Y60901*
Y59934*
X123116Y59450*
X124083*
X124567Y59934*
Y60901D02*
G01Y62352D01*
X122632*
X126062D02*
G01X127514Y60901D01*
X128525Y61869D02*
G01X129009Y62352D01*
X129976*
X130460Y61869*
Y59934*
X129976Y59450*
X126062D02*
G01Y62352D01*
X122076Y74400D02*
G01X121109D01*
X120625Y74884*
X119614D02*
G01X119130Y74400D01*
X118162*
X117679Y74884*
Y75367*
X118162Y75851*
X118646*
X118162D02*
G01X117679Y76335D01*
Y76819*
X118162Y77302*
X119130*
X119614Y76819*
X120625D02*
G01X121109Y77302D01*
X122076*
X122560Y76819*
Y74884*
X122076Y74400*
X116667Y75851D02*
G01X115216Y77302D01*
Y74400*
X114732Y75851D02*
G01X116667D01*
X90673Y64478D02*
G01Y62543D01*
X89222*
X89706Y63511*
Y63994*
X89222Y64478*
X88254*
X87771Y63994*
Y63027*
X88254Y62543*
Y61531D02*
G01X87771Y61048D01*
Y60080*
X88254Y59597*
X89222D02*
G01X89706Y60564D01*
Y61048*
X89222Y61531*
X88254*
X89222Y59597D02*
G01X90673D01*
Y61531*
X90189Y58585D02*
G01X90673Y58101D01*
Y57134*
X90189Y56650*
X88254*
X87771Y57134*
Y58101*
X88254Y58585*
X85673Y59310D02*
G01Y60762D01*
X85189Y61245*
X84222*
X83738Y60762*
Y59310*
X82771D02*
G01X85673D01*
X83738Y60278D02*
G01X82771Y61245D01*
X83254Y62257D02*
G01X82771Y62741D01*
Y63708*
X83254Y64192*
X83738*
X84222Y63708*
Y63224*
Y63708D02*
G01X84706Y64192D01*
X85189*
X85673Y63708*
Y62741*
X85189Y62257*
X85673Y65203D02*
G01X84222D01*
X84706Y66171*
Y66655*
X84222Y67138*
X83254*
X82771Y66655*
Y65687*
X83254Y65203*
X85673D02*
G01Y67138D01*
X81273D02*
G01X80789Y66171D01*
X79822Y65203*
Y66655*
X79338Y67138*
X78854*
X78371Y66655*
Y65687*
X78854Y65203*
X79822*
X80306Y64192D02*
G01X80789D01*
X81273Y63708*
Y62741*
X80789Y62257*
Y61245D02*
G01X79822D01*
X79338Y60762*
Y59310*
X78371D02*
G01X81273D01*
Y60762*
X80789Y61245*
X79338Y60278D02*
G01X78371Y61245D01*
Y62257D02*
G01X80306Y64192D01*
X78371D02*
G01Y62257D01*
X76673D02*
G01X75222D01*
X75706Y63224*
Y63708*
X75222Y64192*
X74254*
X73771Y63708*
Y62741*
X74254Y62257*
X73771Y61245D02*
G01X74738Y60278D01*
Y60762D02*
G01Y59310D01*
X73771D02*
G01X76673D01*
Y60762*
X76189Y61245*
X75222*
X74738Y60762*
X76673Y62257D02*
G01Y64192D01*
X75222Y65203D02*
G01Y66655D01*
X74738Y67138*
X74254*
X73771Y66655*
Y65687*
X74254Y65203*
X75222*
X76189Y66171*
X76673Y67138*
X189571Y46803D02*
G01X190054D01*
X191989Y48738*
X192473*
Y46803*
X191989Y45792D02*
G01X192473Y45308D01*
Y44341*
X191989Y43857*
Y42845D02*
G01X192473Y42362D01*
Y41394*
X191989Y40910*
X190054*
X189571Y41394*
Y42362*
X190054Y42845*
X189571Y43857D02*
G01X191506Y45792D01*
X191989*
X189571D02*
G01Y43857D01*
X201793Y48634D02*
G01X202276Y48150D01*
X203244*
X203728Y48634*
X204739Y48150D02*
G01X206674D01*
X205707D02*
G01Y51052D01*
X206674Y50085*
X207686Y50569D02*
G01Y49601D01*
X208169Y49117*
X209621*
Y48150D02*
G01Y51052D01*
X208169*
X207686Y50569*
X208653Y49117D02*
G01X207686Y48150D01*
X210793D02*
G01X212728D01*
X210793Y50085*
Y50569*
X211276Y51052*
X212244*
X212728Y50569*
X214707Y51052D02*
G01Y48150D01*
X215674D02*
G01X213739D01*
X215674Y50085D02*
G01X214707Y51052D01*
X216686Y50569D02*
G01Y49601D01*
X217169Y49117*
X218621*
Y48150D02*
G01Y51052D01*
X217169*
X216686Y50569*
X217653Y49117D02*
G01X216686Y48150D01*
X212157Y54230D02*
G01X209021Y57366D01*
X210589D02*
G01Y54230D01*
X209021D02*
G01X212157Y57366D01*
Y55798D02*
G01X209021D01*
X203728Y50569D02*
G01X203244Y51052D01*
X202276*
X201793Y50569*
Y50085*
X202276Y49601*
X201793Y49117*
Y48634*
X202276Y49601D02*
G01X202760D01*
X255771Y45794D02*
G01Y44827D01*
X256254Y44343*
X258189Y46278*
X256254*
X255771Y45794*
X256254Y44343D02*
G01X258189D01*
X258673Y44827*
Y45794*
X258189Y46278*
X257222Y43331D02*
G01Y41397D01*
X258673Y42848*
X255771*
X256254Y40385D02*
G01X255771Y39901D01*
Y38934*
X256254Y38450*
X258189*
X258673Y38934*
Y39901*
X258189Y40385*
X262593Y39567D02*
G01X263076Y40051D01*
X264528*
Y39084*
X264044Y38600*
X263076*
X262593Y39084*
Y39567*
X263560Y41019D02*
G01X262593Y41502D01*
X263560Y41019D02*
G01X264528Y40051D01*
X265539Y38600D02*
G01X267474D01*
X266507D02*
G01Y41502D01*
X267474Y40535*
X268486Y41019D02*
G01X268969Y41502D01*
X269937*
X270421Y41019*
Y39084*
X269937Y38600*
X268969*
X268486Y39084*
X268925Y53100D02*
G01X269893Y54067D01*
X269409D02*
G01X270860D01*
Y53100D02*
G01Y56002D01*
X269409*
X268925Y55519*
Y54551*
X269409Y54067*
X267914Y53584D02*
G01X267430Y53100D01*
X266462*
X265979Y53584*
Y54551*
X266462Y55035*
X266946*
X267914Y54551*
Y56002*
X265979*
X264967Y55519D02*
G01Y55035D01*
X264483Y54551*
X263032*
Y53584D02*
G01Y55519D01*
X263516Y56002*
X264483*
X264967Y55519*
Y53584D02*
G01X264483Y53100D01*
X263516*
X263032Y53584*
X332686Y155250D02*
G01X333653Y156217D01*
X333169D02*
G01X334621D01*
Y155250D02*
G01Y158152D01*
X333169*
X332686Y157669*
Y156701*
X333169Y156217*
X331674Y157185D02*
G01X330707Y158152D01*
X332686Y159650D02*
G01X333653Y160617D01*
X328728Y165601D02*
G01X327760Y166569D01*
X326793Y167052*
X305460Y177952D02*
G01X303525D01*
X304493D02*
G01Y175050D01*
X302514D02*
G01Y177952D01*
X301062*
X300579Y177469*
Y176501*
X301062Y176017*
X302514*
X299567Y175050D02*
G01X297632D01*
X298600D02*
G01Y177952D01*
X299567Y176985*
X294273Y176401D02*
G01Y174950D01*
X291371*
X292338D02*
G01Y176401D01*
X292822Y176885*
X293789*
X294273Y176401*
X293306Y177897D02*
G01X294273Y178864D01*
X291371*
Y177897D02*
G01Y179831D01*
X292822Y180843D02*
G01Y182778D01*
X293789Y183790D02*
G01X294273Y184273D01*
Y185241*
X293789Y185725*
X293306*
X292822Y185241*
X292338Y185725*
X291854*
X291371Y185241*
Y184273*
X291854Y183790*
X291323Y184650D02*
G01Y186101D01*
X290839Y186585*
X289872*
X289388Y186101*
Y184650*
X288421D02*
G01X291323D01*
X292822Y184757D02*
G01Y185241D01*
X291371Y182294D02*
G01X294273D01*
X292822Y180843*
X291371Y176885D02*
G01X292338Y175917D01*
X289388Y185617D02*
G01X288421Y186585D01*
X287323Y186101D02*
G01Y185134D01*
X286839Y184650*
X284904*
X284421Y185134*
Y186101*
X284904Y186585*
X284421Y187597D02*
G01X286356Y189531D01*
X286839*
X287323Y189048*
Y188080*
X286839Y187597*
Y186585D02*
G01X287323Y186101D01*
X289872Y187597D02*
G01Y189531D01*
Y190543D02*
G01X290356Y191511D01*
Y191994*
X289872Y192478*
X288904*
X288421Y191994*
Y191027*
X288904Y190543*
X289872D02*
G01X291323D01*
Y192478*
Y189048D02*
G01X289872Y187597D01*
X288421Y189048D02*
G01X291323D01*
X287323Y191994D02*
G01X285872Y190543D01*
Y192478*
X284421Y191994D02*
G01X287323D01*
X284421Y189531D02*
G01Y187597D01*
X283323Y189048D02*
G01X281872Y187597D01*
Y189531*
X280904Y190543D02*
G01X280421D01*
X280904D02*
G01X282839Y192478D01*
X283323*
Y190543*
Y189048D02*
G01X280421D01*
X279323D02*
G01Y188080D01*
X278839Y187597*
Y186585D02*
G01X279323Y186101D01*
Y185134*
X278839Y184650*
X276904*
X276421Y185134*
Y186101*
X276904Y186585*
X276421Y187597D02*
G01X278356Y189531D01*
X278839*
X279323Y189048*
X278839Y190543D02*
G01X279323Y191027D01*
Y191994*
X278839Y192478*
X278356*
X276421Y190543*
Y192478*
Y189531D02*
G01Y187597D01*
X280421Y186585D02*
G01X281388Y185617D01*
Y186101D02*
G01Y184650D01*
X280421D02*
G01X283323D01*
Y186101*
X282839Y186585*
X281872*
X281388Y186101*
X264686Y187088D02*
G01Y188539D01*
X264202Y189023*
X262267*
X261784Y188539*
Y187088*
X264686*
X263719Y190034D02*
G01X264686Y191002D01*
X261784*
Y191969D02*
G01Y190034D01*
X273571Y209510D02*
G01X276473D01*
Y210962*
X275989Y211445*
X275022*
X274538Y210962*
Y209510*
Y210478D02*
G01X273571Y211445D01*
X275022Y212457D02*
G01Y214392D01*
Y215403D02*
G01Y216855D01*
X274538Y217338*
X274054*
X273571Y216855*
Y215887*
X274054Y215403*
X275022*
X275989Y216371*
X276473Y217338*
Y213908D02*
G01X273571D01*
X275022Y212457D02*
G01X276473Y213908D01*
X241192Y212877D02*
G01X238290D01*
Y213844D02*
G01Y211909D01*
Y210898D02*
G01Y208963D01*
X241192*
X240225Y211909D02*
G01X241192Y212877D01*
X240489Y216410D02*
G01X238554D01*
X238071Y216894*
Y217862*
X238554Y218345*
X238071Y219357D02*
G01X240006Y221292D01*
X240489*
X240973Y220808*
Y219841*
X240489Y219357*
Y218345D02*
G01X240973Y217862D01*
Y216894*
X240489Y216410*
X238071Y219357D02*
G01Y221292D01*
X238554Y222303D02*
G01X240489Y224238D01*
X238554*
X238071Y223755*
Y222787*
X238554Y222303*
X240489*
X240973Y222787*
Y223755*
X240489Y224238*
X219323Y210864D02*
G01X216421D01*
Y209897D02*
G01Y211831D01*
X218356Y209897D02*
G01X219323Y210864D01*
X218839Y208885D02*
G01X216904D01*
X216421Y208401*
Y207434*
X216904Y206950*
X218839*
X219323Y207434*
Y208401*
X218839Y208885*
X217388Y207917D02*
G01X216421Y208885D01*
X195873Y216494D02*
G01X195389Y216010D01*
X193454*
X192971Y216494*
Y217462*
X193454Y217945*
X192971Y218957D02*
G01X194906Y220892D01*
X195389*
X195873Y220408*
Y219441*
X195389Y218957*
Y217945D02*
G01X195873Y217462D01*
Y216494*
X192971Y218957D02*
G01Y220892D01*
X193454Y221903D02*
G01X192971Y222387D01*
Y223355*
X193454Y223838*
X193938*
X194422Y223355*
Y221903*
X193454*
X194422D02*
G01X195389Y222871D01*
X195873Y223838*
X186221Y224684D02*
G01X185737Y224200D01*
X184769*
X184286Y224684*
X183274Y224200D02*
G01X181339Y226135D01*
Y226619*
X181823Y227102*
X182790*
X183274Y226619*
X184286D02*
G01X184769Y227102D01*
X185737*
X186221Y226619*
Y224684*
X183274Y224200D02*
G01X181339D01*
X180328Y224684D02*
G01X179844Y224200D01*
X178876*
X178393Y224684*
Y225651*
X178876Y226135*
X179360*
X180328Y225651*
Y227102*
X178393*
X327180Y208611D02*
G01Y207643D01*
X327663Y207160*
X327180Y206148D02*
G01Y204213D01*
X330082*
X329598Y207160D02*
G01X330082Y207643D01*
Y208611*
X329598Y209094*
X329115*
X328631Y208611*
X328147Y209094*
X327663*
X327180Y208611*
X328631D02*
G01Y208127D01*
X331204Y214810D02*
G01X330721Y215294D01*
Y216262*
X331204Y216745*
X330721Y217757D02*
G01X332656Y219692D01*
X333139*
X333623Y219208*
Y218241*
X333139Y217757*
Y216745D02*
G01X333623Y216262D01*
Y215294*
X333139Y214810*
X331204*
X330721Y217757D02*
G01Y219692D01*
Y220703D02*
G01Y222638D01*
Y221671D02*
G01X333623D01*
X332656Y220703*
X335221Y221187D02*
G01X335704Y220703D01*
X336188*
X336672Y221187*
Y222155*
X336188Y222638*
X335704*
X335221Y222155*
Y221187*
X336672D02*
G01X337156Y220703D01*
X337639*
X338123Y221187*
Y222155*
X337639Y222638*
X337156*
X336672Y222155*
Y219692D02*
G01Y217757D01*
X338123Y219208*
X335221*
Y216745D02*
G01X336188Y215778D01*
Y216262D02*
G01Y214810D01*
X335221D02*
G01X338123D01*
Y216262*
X337639Y216745*
X336672*
X336188Y216262*
X339721Y216745D02*
G01X340688Y215778D01*
Y216262D02*
G01Y214810D01*
X339721D02*
G01X342623D01*
Y216262*
X342139Y216745*
X341172*
X340688Y216262*
X341172Y217757D02*
G01Y219692D01*
X341656Y220703D02*
G01X341172Y221187D01*
Y222638*
X342139D02*
G01X342623Y222155D01*
Y221187*
X342139Y220703*
X341656*
X340204D02*
G01X339721Y221187D01*
Y222155*
X340204Y222638*
X342139*
X342623Y219208D02*
G01X341172Y217757D01*
X339721Y219208D02*
G01X342623D01*
G54D13*
X271933Y218219D02*
G01Y220581D01*
X267208D02*
G01Y218219D01*
X268271Y227000D02*
G01X266271Y229000D01*
X243771*
X240771Y226000*
X192133Y218681D02*
G01Y216319D01*
X187408D02*
G01Y218681D01*
X186133D02*
G01Y216319D01*
X181408D02*
G01Y218681D01*
X171873Y218855D02*
G01X170572Y217553D01*
Y219288*
X169271Y218855D02*
G01X171873D01*
X171439Y216342D02*
G01X170572D01*
X170138Y215908*
Y214607*
Y215474D02*
G01X169271Y216342D01*
Y214607D02*
G01X171873D01*
Y215908*
X171439Y216342*
X160160Y165358D02*
G01X157483D01*
X154963D02*
G01X151578D01*
X149058D02*
G01X146381D01*
Y164650*
X160160D02*
G01Y165358D01*
Y148350D02*
G01Y147642D01*
X157483*
X154963D02*
G01X151578D01*
X149058D02*
G01X146381D01*
Y148350*
X147993Y146264D02*
G01X147995Y146297D01*
X148001Y146329*
X148010Y146361*
X148024Y146391*
X148040Y146419*
X148060Y146445*
X148083Y146469*
X148109Y146490*
X148137Y146507*
X148167Y146522*
X148198Y146532*
X148230Y146539*
X148263Y146542*
X148296Y146541*
X148328Y146536*
X148360Y146527*
X148391Y146515*
X148419Y146499*
X148446Y146480*
X148470Y146458*
X148492Y146433*
X148510Y146405*
X148525Y146376*
X148537Y146345*
X148545Y146313*
X148549Y146280*
Y146248*
X148545Y146215*
X148537Y146183*
X148525Y146152*
X148510Y146123*
X148492Y146095*
X148470Y146070*
X148446Y146048*
X148419Y146029*
X148391Y146013*
X148360Y146001*
X148328Y145992*
X148296Y145987*
X148263Y145986*
X148230Y145989*
X148198Y145996*
X148167Y146006*
X148137Y146021*
X148109Y146038*
X148083Y146059*
X148060Y146083*
X148040Y146109*
X148024Y146137*
X148010Y146167*
X148001Y146199*
X147995Y146231*
X147993Y146264*
X114571Y160900D02*
G01Y163502D01*
X113269*
X112836Y163069*
Y162201*
X113269Y161767*
X114571*
X113703D02*
G01X112836Y160900D01*
X111624D02*
G01X109889D01*
X110757D02*
G01Y163502D01*
X111624Y162635*
X108678D02*
G01X107810Y163502D01*
Y160900*
X106943D02*
G01X108678D01*
X105731D02*
G01X103996Y162635D01*
Y163069*
X104430Y163502*
X105297*
X105731Y163069*
Y160900D02*
G01X103996D01*
X147321Y99900D02*
G01X152121D01*
X150921D02*
G01X150919Y99831D01*
X150913Y99763*
X150903Y99695*
X150890Y99628*
X150872Y99562*
X150851Y99497*
X150826Y99433*
X150798Y99371*
X150766Y99310*
X150731Y99251*
X150692Y99195*
X150650Y99140*
X150605Y99089*
X150557Y99039*
X150507Y98993*
X150454Y98950*
X150398Y98909*
X150341Y98872*
X150281Y98839*
X150219Y98808*
X150156Y98782*
X150092Y98759*
X150026Y98739*
X149959Y98724*
X149892Y98712*
X149824Y98704*
X149755Y98700*
X149687*
X149618Y98704*
X149550Y98712*
X149483Y98724*
X149416Y98739*
X149350Y98759*
X149286Y98782*
X149223Y98808*
X149161Y98839*
X149101Y98872*
X149044Y98909*
X148988Y98950*
X148935Y98993*
X148885Y99039*
X148837Y99089*
X148792Y99140*
X148750Y99195*
X148711Y99251*
X148676Y99310*
X148644Y99371*
X148616Y99433*
X148591Y99497*
X148570Y99562*
X148552Y99628*
X148539Y99695*
X148529Y99763*
X148523Y99831*
X148521Y99900*
X146321Y95100D02*
G01Y92500D01*
X147321Y87700D02*
G01X152121D01*
X139983Y70681D02*
G01Y68319D01*
X135258D02*
G01Y70681D01*
X118352Y78638D02*
G01X115989D01*
Y83362D02*
G01X118352D01*
X142771Y58900D02*
G01Y52100D01*
X154771D02*
G01Y54300D01*
Y56700*
Y58900*
Y56700D02*
G01X154702Y56698D01*
X154634Y56692*
X154566Y56682*
X154499Y56669*
X154433Y56651*
X154368Y56630*
X154304Y56605*
X154242Y56577*
X154181Y56545*
X154122Y56510*
X154066Y56471*
X154011Y56429*
X153960Y56384*
X153910Y56336*
X153864Y56286*
X153821Y56233*
X153780Y56177*
X153743Y56120*
X153710Y56060*
X153679Y55998*
X153653Y55935*
X153630Y55871*
X153610Y55805*
X153595Y55738*
X153583Y55671*
X153575Y55603*
X153571Y55534*
Y55466*
X153575Y55397*
X153583Y55329*
X153595Y55262*
X153610Y55195*
X153630Y55129*
X153653Y55065*
X153679Y55002*
X153710Y54940*
X153743Y54880*
X153780Y54823*
X153821Y54767*
X153864Y54714*
X153910Y54664*
X153960Y54616*
X154011Y54571*
X154066Y54529*
X154122Y54490*
X154181Y54455*
X154242Y54423*
X154304Y54395*
X154368Y54370*
X154433Y54349*
X154499Y54331*
X154566Y54318*
X154634Y54308*
X154702Y54302*
X154771Y54300*
X165616Y65600D02*
G01X165182Y66034D01*
Y67769*
X165616Y68202*
X166483*
X166917Y67769*
Y67335*
X166483Y66901*
X165182*
X165616Y65600D02*
G01X166483D01*
X166917Y66034*
X168129Y65600D02*
G01X169864D01*
X168996D02*
G01Y68202D01*
X169864Y67335*
X171075Y65600D02*
G01X172810D01*
X171943D02*
G01Y68202D01*
X172810Y67335*
X174022Y67769D02*
G01Y66901D01*
X174456Y66467*
X175757*
Y65600D02*
G01Y68202D01*
X174456*
X174022Y67769*
X174889Y66467D02*
G01X174022Y65600D01*
X206071Y72300D02*
G01X221671D01*
X230616Y56702D02*
G01X231917Y55401D01*
X230182*
X230616Y54100D02*
G01Y56702D01*
X233129Y56269D02*
G01X234864Y54534D01*
X234430Y54100*
X233562*
X233129Y54534*
Y56269*
X233562Y56702*
X234430*
X234864Y56269*
Y54534*
X236075Y54100D02*
G01X237810D01*
X236943D02*
G01Y56702D01*
X237810Y55835*
X239022Y56269D02*
G01Y55401D01*
X239456Y54967*
X240757*
Y54100D02*
G01Y56702D01*
X239456*
X239022Y56269*
X239889Y54967D02*
G01X239022Y54100D01*
X221671Y52700D02*
G01X212671D01*
X206071*
X265689Y47162D02*
G01X268052D01*
Y42438D02*
G01X265689D01*
X331608Y109119D02*
G01Y111481D01*
X336333D02*
G01Y109119D01*
X271345Y191531D02*
G01X268196D01*
X269771Y195469*
X271345Y191531*
X129757Y54202D02*
G01X128456D01*
X128022Y53769*
Y52901*
X128456Y52467*
X129757*
Y51600D02*
G01Y54202D01*
X128889Y52467D02*
G01X128022Y51600D01*
X126810D02*
G01X125075D01*
X125943D02*
G01Y54202D01*
X126810Y53335*
X123864Y53769D02*
G01X123430Y54202D01*
X122562*
X122129Y53769*
Y53335*
X123864Y51600*
X122129*
X120917D02*
G01X119182D01*
X120050D02*
G01Y54202D01*
X120917Y53335*
G54D150*
X370391Y97000D02*
G01X370150D01*
X304391Y91500D02*
G01X304150D01*
X289771Y90120D02*
G01Y89880D01*
Y94380D02*
G01Y94620D01*
Y98880D02*
G01Y99120D01*
X257291Y51900D02*
G01X257050D01*
X196791Y46000D02*
G01X196550D01*
X162271Y61380D02*
G01Y61620D01*
X147891Y67900D02*
G01X147650D01*
X155071Y73880D02*
G01Y74120D01*
X147771Y86180D02*
G01Y86420D01*
X131491Y58700D02*
G01X131250D01*
X139650Y46800D02*
G01X139891D01*
X89391Y52000D02*
G01X89150D01*
X159271Y134380D02*
G01Y134620D01*
X145371Y171280D02*
G01Y171520D01*
X181771Y180080D02*
G01Y180320D01*
X191171D02*
G01Y180080D01*
X194150Y191500D02*
G01X194391D01*
X181271Y202880D02*
G01Y203120D01*
X223650Y190400D02*
G01X223891D01*
X226171Y169620D02*
G01Y169380D01*
X278850Y197300D02*
G01X279091D01*
X283171Y203880D02*
G01Y204120D01*
X283191Y219500D02*
G01X282950D01*
G54D151*
X202400Y179985D02*
G01Y178517D01*
X202033Y178150*
X201299*
X200932Y178517*
X200190Y178150D02*
G01X198722D01*
X199456D02*
G01Y180352D01*
X200190Y179618*
X200932Y179985D02*
G01X201299Y180352D01*
X202033*
X202400Y179985*
X197980D02*
G01Y179618D01*
X197613Y179251*
X196880*
X196513Y178884*
Y178517*
X196880Y178150*
X197613*
X197980Y178517*
Y178884*
X197613Y179251*
X196880D02*
G01X196513Y179618D01*
Y179985*
X196880Y180352*
X197613*
X197980Y179985*
X197255Y195670D02*
G01X195788D01*
X195421Y196037*
Y196771*
X195788Y197138*
X195421Y197880D02*
G01Y199348D01*
Y198614D02*
G01X197622D01*
X196888Y197880*
X197255Y197138D02*
G01X197622Y196771D01*
Y196037*
X197255Y195670*
Y200090D02*
G01X196888D01*
X196521Y200457*
Y201558*
X195788D02*
G01X197255D01*
X197622Y201191*
Y200457*
X197255Y200090*
X195788D02*
G01X195421Y200457D01*
Y201191*
X195788Y201558*
X203323Y76503D02*
G01Y73500D01*
X204324D02*
G01X202322D01*
X204324Y75502D02*
G01X203323Y76503D01*
X205269D02*
G01Y74000D01*
X205769Y73500*
X206770*
X207271Y74000*
Y76503*
X159674Y56185D02*
G01X159040Y56819D01*
X158406*
X157772Y56185*
Y54917*
X158406Y54283*
X159040*
X159674Y54917*
Y56185*
X157772D02*
G01X157138Y56819D01*
X156504*
X155871Y56185*
Y54917*
X156504Y54283*
X157138*
X157772Y54917*
X156504Y53135D02*
G01X159674D01*
Y50600D02*
G01X156504D01*
X155871Y51234*
Y52502*
X156504Y53135*
G54D152*
X129964Y64500D02*
G01Y67302D01*
Y64500D02*
G01X128095D01*
X127017Y64967D02*
G01X126550Y64500D01*
X125616*
X125149Y64967*
Y65901*
X125616Y66368*
X126083*
X127017Y65901*
Y67302*
X125149*
X126464Y44302D02*
G01Y41500D01*
X124595*
X123517Y42901D02*
G01X121649D01*
X122116Y41500D02*
G01Y44302D01*
X123517Y42901*
X77025Y48334D02*
G01X74690D01*
X74223Y48801*
Y49735*
X74690Y50202*
X77025*
X75624Y51280D02*
G01Y53149D01*
X74223Y52681D02*
G01X77025D01*
X75624Y51280*
X187363Y122610D02*
G01X187830Y122143D01*
X188764*
X189231Y122610*
X190309Y122143D02*
G01X192178D01*
X191243D02*
G01Y124946D01*
X192178Y124012*
X193256Y124946D02*
G01Y122610D01*
X193723Y122143*
X194657*
X195124Y122610*
Y124946*
X189231Y124479D02*
G01X188764Y124946D01*
X187830*
X187363Y124479*
Y124012*
X187830Y123545*
X187363Y123077*
Y122610*
X187830Y123545D02*
G01X188297D01*
X145304Y146139D02*
G01Y148474D01*
X143436D02*
G01Y146139D01*
X143903Y145672*
X144837*
X145304Y146139*
X142358D02*
G01X141891Y145672D01*
X140957*
X140490Y146139*
Y148007*
X140957Y148474*
X141891*
X142358Y148007*
Y147540*
X141891Y147073*
X140490*
X126373Y146368D02*
G01X123571Y144500D01*
Y146368D02*
G01X126373Y144500D01*
X125906Y147447D02*
G01X126373Y147914D01*
Y148848*
X125906Y149315*
X125439*
X123571Y147447*
Y149315*
X89949Y152936D02*
G01X87147Y154804D01*
X88548Y155883D02*
G01Y157751D01*
X87147Y157284D02*
G01X89949D01*
X88548Y155883*
X89949Y154804D02*
G01X87147Y152936D01*
X262202Y111003D02*
G01X264604D01*
Y109202*
X263403Y109802*
X262803*
X262202Y109202*
Y108001*
X262803Y107400*
X264004*
X264604Y108001*
X265885Y109202D02*
G01X266486Y108601D01*
X268287*
Y107400D02*
G01Y111003D01*
X266486*
X265885Y110403*
Y109202*
X269569Y111003D02*
G01X271971D01*
X270770D02*
G01Y107400D01*
X333720Y33803D02*
G01X334921D01*
X335521Y33203*
X333720Y33803D02*
G01X333119Y33203D01*
Y32602*
X335521Y30200*
X333119*
X336802D02*
G01X339204D01*
X338003D02*
G01Y33803D01*
X339204Y32602*
X340485Y33203D02*
G01Y32002D01*
X341086Y31401*
X342887*
Y30200D02*
G01Y33803D01*
X341086*
X340485Y33203*
X344169Y33803D02*
G01X346571D01*
X345370D02*
G01Y30200D01*
G54D153*
X211621Y184450D02*
G01Y190850D01*
X198621D02*
G01Y184450D01*
X196771Y201300D02*
G01X213771D01*
X213847Y201302*
X213923Y201308*
X213998Y201317*
X214073Y201331*
X214147Y201348*
X214220Y201369*
X214292Y201393*
X214363Y201422*
X214432Y201453*
X214499Y201488*
X214564Y201527*
X214628Y201569*
X214689Y201614*
X214748Y201662*
X214804Y201713*
X214858Y201767*
X214909Y201823*
X214957Y201882*
X215002Y201943*
X215044Y202007*
X215083Y202072*
X215118Y202139*
X215149Y202208*
X215178Y202279*
X215202Y202351*
X215223Y202424*
X215240Y202498*
X215254Y202573*
X215263Y202648*
X215269Y202724*
X215271Y202800*
Y207000*
Y211000*
Y215200*
X215269Y215276*
X215263Y215352*
X215254Y215427*
X215240Y215502*
X215223Y215576*
X215202Y215649*
X215178Y215721*
X215149Y215792*
X215118Y215861*
X215083Y215928*
X215044Y215993*
X215002Y216057*
X214957Y216118*
X214909Y216177*
X214858Y216233*
X214804Y216287*
X214748Y216338*
X214689Y216386*
X214628Y216431*
X214564Y216473*
X214499Y216512*
X214432Y216547*
X214363Y216578*
X214292Y216607*
X214220Y216631*
X214147Y216652*
X214073Y216669*
X213998Y216683*
X213923Y216692*
X213847Y216698*
X213771Y216700*
X196771*
X196695Y216698*
X196619Y216692*
X196544Y216683*
X196469Y216669*
X196395Y216652*
X196322Y216631*
X196250Y216607*
X196179Y216578*
X196110Y216547*
X196043Y216512*
X195978Y216473*
X195914Y216431*
X195853Y216386*
X195794Y216338*
X195738Y216287*
X195684Y216233*
X195633Y216177*
X195585Y216118*
X195540Y216057*
X195498Y215993*
X195459Y215928*
X195424Y215861*
X195393Y215792*
X195364Y215721*
X195340Y215649*
X195319Y215576*
X195302Y215502*
X195288Y215427*
X195279Y215352*
X195273Y215276*
X195271Y215200*
Y202800*
Y202700D02*
G01X215271D01*
Y207000D02*
G01X215183Y207002D01*
X215094Y207008*
X215006Y207018*
X214919Y207031*
X214832Y207049*
X214746Y207070*
X214661Y207095*
X214578Y207124*
X214495Y207157*
X214415Y207193*
X214336Y207232*
X214258Y207275*
X214183Y207322*
X214110Y207372*
X214039Y207425*
X213970Y207481*
X213904Y207540*
X213841Y207602*
X213781Y207666*
X213723Y207733*
X213669Y207803*
X213617Y207875*
X213569Y207949*
X213524Y208026*
X213483Y208104*
X213445Y208184*
X213411Y208265*
X213380Y208348*
X213353Y208433*
X213330Y208518*
X213311Y208604*
X213295Y208692*
X213283Y208779*
X213275Y208867*
X213271Y208956*
Y209044*
X213275Y209133*
X213283Y209221*
X213295Y209308*
X213311Y209396*
X213330Y209482*
X213353Y209567*
X213380Y209652*
X213411Y209735*
X213445Y209816*
X213483Y209896*
X213524Y209974*
X213569Y210051*
X213617Y210125*
X213669Y210197*
X213723Y210267*
X213781Y210334*
X213841Y210398*
X213904Y210460*
X213970Y210519*
X214039Y210575*
X214110Y210628*
X214183Y210678*
X214258Y210725*
X214336Y210768*
X214415Y210807*
X214495Y210843*
X214578Y210876*
X214661Y210905*
X214746Y210930*
X214832Y210951*
X214919Y210969*
X215006Y210982*
X215094Y210992*
X215183Y210998*
X215271Y211000*
X196771Y201300D02*
G01X196695Y201302D01*
X196619Y201308*
X196544Y201317*
X196469Y201331*
X196395Y201348*
X196322Y201369*
X196250Y201393*
X196179Y201422*
X196110Y201453*
X196043Y201488*
X195978Y201527*
X195914Y201569*
X195853Y201614*
X195794Y201662*
X195738Y201713*
X195684Y201767*
X195633Y201823*
X195585Y201882*
X195540Y201943*
X195498Y202007*
X195459Y202072*
X195424Y202139*
X195393Y202208*
X195364Y202279*
X195340Y202351*
X195319Y202424*
X195302Y202498*
X195288Y202573*
X195279Y202648*
X195273Y202724*
X195271Y202800*
G54D158*
X106871Y215000D02*
G01X106873Y215077D01*
X106879Y215154*
X106889Y215231*
X106903Y215307*
X106920Y215382*
X106942Y215456*
X106967Y215529*
X106997Y215601*
X107029Y215671*
X107066Y215739*
X107105Y215805*
X107148Y215869*
X107195Y215931*
X107244Y215990*
X107297Y216047*
X107352Y216101*
X107410Y216152*
X107471Y216200*
X107534Y216245*
X107599Y216286*
X107666Y216324*
X107735Y216359*
X107806Y216389*
X107878Y216417*
X107952Y216440*
X108026Y216460*
X108102Y216476*
X108178Y216488*
X108255Y216496*
X108332Y216500*
X108410*
X108487Y216496*
X108564Y216488*
X108640Y216476*
X108716Y216460*
X108790Y216440*
X108864Y216417*
X108936Y216389*
X109007Y216359*
X109076Y216324*
X109143Y216286*
X109208Y216245*
X109271Y216200*
X109332Y216152*
X109390Y216101*
X109445Y216047*
X109498Y215990*
X109547Y215931*
X109594Y215869*
X109637Y215805*
X109676Y215739*
X109713Y215671*
X109745Y215601*
X109775Y215529*
X109800Y215456*
X109822Y215382*
X109839Y215307*
X109853Y215231*
X109863Y215154*
X109869Y215077*
X109871Y215000*
X109869Y214923*
X109863Y214846*
X109853Y214769*
X109839Y214693*
X109822Y214618*
X109800Y214544*
X109775Y214471*
X109745Y214399*
X109713Y214329*
X109676Y214261*
X109637Y214195*
X109594Y214131*
X109547Y214069*
X109498Y214010*
X109445Y213953*
X109390Y213899*
X109332Y213848*
X109271Y213800*
X109208Y213755*
X109143Y213714*
X109076Y213676*
X109007Y213641*
X108936Y213611*
X108864Y213583*
X108790Y213560*
X108716Y213540*
X108640Y213524*
X108564Y213512*
X108487Y213504*
X108410Y213500*
X108332*
X108255Y213504*
X108178Y213512*
X108102Y213524*
X108026Y213540*
X107952Y213560*
X107878Y213583*
X107806Y213611*
X107735Y213641*
X107666Y213676*
X107599Y213714*
X107534Y213755*
X107471Y213800*
X107410Y213848*
X107352Y213899*
X107297Y213953*
X107244Y214010*
X107195Y214069*
X107148Y214131*
X107105Y214195*
X107066Y214261*
X107029Y214329*
X106997Y214399*
X106967Y214471*
X106942Y214544*
X106920Y214618*
X106903Y214693*
X106889Y214769*
X106879Y214846*
X106873Y214923*
X106871Y215000*
X106971Y207000D02*
G01X106973Y207077D01*
X106979Y207154*
X106989Y207231*
X107003Y207307*
X107020Y207382*
X107042Y207456*
X107067Y207529*
X107097Y207601*
X107129Y207671*
X107166Y207739*
X107205Y207805*
X107248Y207869*
X107295Y207931*
X107344Y207990*
X107397Y208047*
X107452Y208101*
X107510Y208152*
X107571Y208200*
X107634Y208245*
X107699Y208286*
X107766Y208324*
X107835Y208359*
X107906Y208389*
X107978Y208417*
X108052Y208440*
X108126Y208460*
X108202Y208476*
X108278Y208488*
X108355Y208496*
X108432Y208500*
X108510*
X108587Y208496*
X108664Y208488*
X108740Y208476*
X108816Y208460*
X108890Y208440*
X108964Y208417*
X109036Y208389*
X109107Y208359*
X109176Y208324*
X109243Y208286*
X109308Y208245*
X109371Y208200*
X109432Y208152*
X109490Y208101*
X109545Y208047*
X109598Y207990*
X109647Y207931*
X109694Y207869*
X109737Y207805*
X109776Y207739*
X109813Y207671*
X109845Y207601*
X109875Y207529*
X109900Y207456*
X109922Y207382*
X109939Y207307*
X109953Y207231*
X109963Y207154*
X109969Y207077*
X109971Y207000*
X109969Y206923*
X109963Y206846*
X109953Y206769*
X109939Y206693*
X109922Y206618*
X109900Y206544*
X109875Y206471*
X109845Y206399*
X109813Y206329*
X109776Y206261*
X109737Y206195*
X109694Y206131*
X109647Y206069*
X109598Y206010*
X109545Y205953*
X109490Y205899*
X109432Y205848*
X109371Y205800*
X109308Y205755*
X109243Y205714*
X109176Y205676*
X109107Y205641*
X109036Y205611*
X108964Y205583*
X108890Y205560*
X108816Y205540*
X108740Y205524*
X108664Y205512*
X108587Y205504*
X108510Y205500*
X108432*
X108355Y205504*
X108278Y205512*
X108202Y205524*
X108126Y205540*
X108052Y205560*
X107978Y205583*
X107906Y205611*
X107835Y205641*
X107766Y205676*
X107699Y205714*
X107634Y205755*
X107571Y205800*
X107510Y205848*
X107452Y205899*
X107397Y205953*
X107344Y206010*
X107295Y206069*
X107248Y206131*
X107205Y206195*
X107166Y206261*
X107129Y206329*
X107097Y206399*
X107067Y206471*
X107042Y206544*
X107020Y206618*
X107003Y206693*
X106989Y206769*
X106979Y206846*
X106973Y206923*
X106971Y207000*
X83271D02*
G01X83273Y207077D01*
X83279Y207154*
X83289Y207231*
X83303Y207307*
X83320Y207382*
X83342Y207456*
X83367Y207529*
X83397Y207601*
X83429Y207671*
X83466Y207739*
X83505Y207805*
X83548Y207869*
X83595Y207931*
X83644Y207990*
X83697Y208047*
X83752Y208101*
X83810Y208152*
X83871Y208200*
X83934Y208245*
X83999Y208286*
X84066Y208324*
X84135Y208359*
X84206Y208389*
X84278Y208417*
X84352Y208440*
X84426Y208460*
X84502Y208476*
X84578Y208488*
X84655Y208496*
X84732Y208500*
X84810*
X84887Y208496*
X84964Y208488*
X85040Y208476*
X85116Y208460*
X85190Y208440*
X85264Y208417*
X85336Y208389*
X85407Y208359*
X85476Y208324*
X85543Y208286*
X85608Y208245*
X85671Y208200*
X85732Y208152*
X85790Y208101*
X85845Y208047*
X85898Y207990*
X85947Y207931*
X85994Y207869*
X86037Y207805*
X86076Y207739*
X86113Y207671*
X86145Y207601*
X86175Y207529*
X86200Y207456*
X86222Y207382*
X86239Y207307*
X86253Y207231*
X86263Y207154*
X86269Y207077*
X86271Y207000*
X86269Y206923*
X86263Y206846*
X86253Y206769*
X86239Y206693*
X86222Y206618*
X86200Y206544*
X86175Y206471*
X86145Y206399*
X86113Y206329*
X86076Y206261*
X86037Y206195*
X85994Y206131*
X85947Y206069*
X85898Y206010*
X85845Y205953*
X85790Y205899*
X85732Y205848*
X85671Y205800*
X85608Y205755*
X85543Y205714*
X85476Y205676*
X85407Y205641*
X85336Y205611*
X85264Y205583*
X85190Y205560*
X85116Y205540*
X85040Y205524*
X84964Y205512*
X84887Y205504*
X84810Y205500*
X84732*
X84655Y205504*
X84578Y205512*
X84502Y205524*
X84426Y205540*
X84352Y205560*
X84278Y205583*
X84206Y205611*
X84135Y205641*
X84066Y205676*
X83999Y205714*
X83934Y205755*
X83871Y205800*
X83810Y205848*
X83752Y205899*
X83697Y205953*
X83644Y206010*
X83595Y206069*
X83548Y206131*
X83505Y206195*
X83466Y206261*
X83429Y206329*
X83397Y206399*
X83367Y206471*
X83342Y206544*
X83320Y206618*
X83303Y206693*
X83289Y206769*
X83279Y206846*
X83273Y206923*
X83271Y207000*
X83371Y214900D02*
G01X83373Y214977D01*
X83379Y215054*
X83389Y215131*
X83403Y215207*
X83420Y215282*
X83442Y215356*
X83467Y215429*
X83497Y215501*
X83529Y215571*
X83566Y215639*
X83605Y215705*
X83648Y215769*
X83695Y215831*
X83744Y215890*
X83797Y215947*
X83852Y216001*
X83910Y216052*
X83971Y216100*
X84034Y216145*
X84099Y216186*
X84166Y216224*
X84235Y216259*
X84306Y216289*
X84378Y216317*
X84452Y216340*
X84526Y216360*
X84602Y216376*
X84678Y216388*
X84755Y216396*
X84832Y216400*
X84910*
X84987Y216396*
X85064Y216388*
X85140Y216376*
X85216Y216360*
X85290Y216340*
X85364Y216317*
X85436Y216289*
X85507Y216259*
X85576Y216224*
X85643Y216186*
X85708Y216145*
X85771Y216100*
X85832Y216052*
X85890Y216001*
X85945Y215947*
X85998Y215890*
X86047Y215831*
X86094Y215769*
X86137Y215705*
X86176Y215639*
X86213Y215571*
X86245Y215501*
X86275Y215429*
X86300Y215356*
X86322Y215282*
X86339Y215207*
X86353Y215131*
X86363Y215054*
X86369Y214977*
X86371Y214900*
X86369Y214823*
X86363Y214746*
X86353Y214669*
X86339Y214593*
X86322Y214518*
X86300Y214444*
X86275Y214371*
X86245Y214299*
X86213Y214229*
X86176Y214161*
X86137Y214095*
X86094Y214031*
X86047Y213969*
X85998Y213910*
X85945Y213853*
X85890Y213799*
X85832Y213748*
X85771Y213700*
X85708Y213655*
X85643Y213614*
X85576Y213576*
X85507Y213541*
X85436Y213511*
X85364Y213483*
X85290Y213460*
X85216Y213440*
X85140Y213424*
X85064Y213412*
X84987Y213404*
X84910Y213400*
X84832*
X84755Y213404*
X84678Y213412*
X84602Y213424*
X84526Y213440*
X84452Y213460*
X84378Y213483*
X84306Y213511*
X84235Y213541*
X84166Y213576*
X84099Y213614*
X84034Y213655*
X83971Y213700*
X83910Y213748*
X83852Y213799*
X83797Y213853*
X83744Y213910*
X83695Y213969*
X83648Y214031*
X83605Y214095*
X83566Y214161*
X83529Y214229*
X83497Y214299*
X83467Y214371*
X83442Y214444*
X83420Y214518*
X83403Y214593*
X83389Y214669*
X83379Y214746*
X83373Y214823*
X83371Y214900*
X90971Y192400D02*
G01X90973Y192477D01*
X90979Y192554*
X90989Y192631*
X91003Y192707*
X91020Y192782*
X91042Y192856*
X91067Y192929*
X91097Y193001*
X91129Y193071*
X91166Y193139*
X91205Y193205*
X91248Y193269*
X91295Y193331*
X91344Y193390*
X91397Y193447*
X91452Y193501*
X91510Y193552*
X91571Y193600*
X91634Y193645*
X91699Y193686*
X91766Y193724*
X91835Y193759*
X91906Y193789*
X91978Y193817*
X92052Y193840*
X92126Y193860*
X92202Y193876*
X92278Y193888*
X92355Y193896*
X92432Y193900*
X92510*
X92587Y193896*
X92664Y193888*
X92740Y193876*
X92816Y193860*
X92890Y193840*
X92964Y193817*
X93036Y193789*
X93107Y193759*
X93176Y193724*
X93243Y193686*
X93308Y193645*
X93371Y193600*
X93432Y193552*
X93490Y193501*
X93545Y193447*
X93598Y193390*
X93647Y193331*
X93694Y193269*
X93737Y193205*
X93776Y193139*
X93813Y193071*
X93845Y193001*
X93875Y192929*
X93900Y192856*
X93922Y192782*
X93939Y192707*
X93953Y192631*
X93963Y192554*
X93969Y192477*
X93971Y192400*
X93969Y192323*
X93963Y192246*
X93953Y192169*
X93939Y192093*
X93922Y192018*
X93900Y191944*
X93875Y191871*
X93845Y191799*
X93813Y191729*
X93776Y191661*
X93737Y191595*
X93694Y191531*
X93647Y191469*
X93598Y191410*
X93545Y191353*
X93490Y191299*
X93432Y191248*
X93371Y191200*
X93308Y191155*
X93243Y191114*
X93176Y191076*
X93107Y191041*
X93036Y191011*
X92964Y190983*
X92890Y190960*
X92816Y190940*
X92740Y190924*
X92664Y190912*
X92587Y190904*
X92510Y190900*
X92432*
X92355Y190904*
X92278Y190912*
X92202Y190924*
X92126Y190940*
X92052Y190960*
X91978Y190983*
X91906Y191011*
X91835Y191041*
X91766Y191076*
X91699Y191114*
X91634Y191155*
X91571Y191200*
X91510Y191248*
X91452Y191299*
X91397Y191353*
X91344Y191410*
X91295Y191469*
X91248Y191531*
X91205Y191595*
X91166Y191661*
X91129Y191729*
X91097Y191799*
X91067Y191871*
X91042Y191944*
X91020Y192018*
X91003Y192093*
X90989Y192169*
X90979Y192246*
X90973Y192323*
X90971Y192400*
X98871D02*
G01X98873Y192477D01*
X98879Y192554*
X98889Y192631*
X98903Y192707*
X98920Y192782*
X98942Y192856*
X98967Y192929*
X98997Y193001*
X99029Y193071*
X99066Y193139*
X99105Y193205*
X99148Y193269*
X99195Y193331*
X99244Y193390*
X99297Y193447*
X99352Y193501*
X99410Y193552*
X99471Y193600*
X99534Y193645*
X99599Y193686*
X99666Y193724*
X99735Y193759*
X99806Y193789*
X99878Y193817*
X99952Y193840*
X100026Y193860*
X100102Y193876*
X100178Y193888*
X100255Y193896*
X100332Y193900*
X100410*
X100487Y193896*
X100564Y193888*
X100640Y193876*
X100716Y193860*
X100790Y193840*
X100864Y193817*
X100936Y193789*
X101007Y193759*
X101076Y193724*
X101143Y193686*
X101208Y193645*
X101271Y193600*
X101332Y193552*
X101390Y193501*
X101445Y193447*
X101498Y193390*
X101547Y193331*
X101594Y193269*
X101637Y193205*
X101676Y193139*
X101713Y193071*
X101745Y193001*
X101775Y192929*
X101800Y192856*
X101822Y192782*
X101839Y192707*
X101853Y192631*
X101863Y192554*
X101869Y192477*
X101871Y192400*
X101869Y192323*
X101863Y192246*
X101853Y192169*
X101839Y192093*
X101822Y192018*
X101800Y191944*
X101775Y191871*
X101745Y191799*
X101713Y191729*
X101676Y191661*
X101637Y191595*
X101594Y191531*
X101547Y191469*
X101498Y191410*
X101445Y191353*
X101390Y191299*
X101332Y191248*
X101271Y191200*
X101208Y191155*
X101143Y191114*
X101076Y191076*
X101007Y191041*
X100936Y191011*
X100864Y190983*
X100790Y190960*
X100716Y190940*
X100640Y190924*
X100564Y190912*
X100487Y190904*
X100410Y190900*
X100332*
X100255Y190904*
X100178Y190912*
X100102Y190924*
X100026Y190940*
X99952Y190960*
X99878Y190983*
X99806Y191011*
X99735Y191041*
X99666Y191076*
X99599Y191114*
X99534Y191155*
X99471Y191200*
X99410Y191248*
X99352Y191299*
X99297Y191353*
X99244Y191410*
X99195Y191469*
X99148Y191531*
X99105Y191595*
X99066Y191661*
X99029Y191729*
X98997Y191799*
X98967Y191871*
X98942Y191944*
X98920Y192018*
X98903Y192093*
X98889Y192169*
X98879Y192246*
X98873Y192323*
X98871Y192400*
X212671Y52700D02*
G01X212676Y52768D01*
X212685Y52836*
X212697Y52904*
X212714Y52970*
X212734Y53036*
X212758Y53100*
X212785Y53163*
X212816Y53224*
X212851Y53284*
X212889Y53341*
X212930Y53396*
X212974Y53448*
X213021Y53498*
X213071Y53545*
X213123Y53590*
X213178Y53631*
X213235Y53669*
X213294Y53703*
X213355Y53735*
X213418Y53762*
X213482Y53786*
X213548Y53807*
X213614Y53823*
X213682Y53836*
X213750Y53845*
X213818Y53850*
X213887Y53851*
X213955Y53848*
X214024Y53841*
X214091Y53831*
X214158Y53816*
X214224Y53798*
X214289Y53776*
X214353Y53750*
X214415Y53721*
X214475Y53688*
X214533Y53652*
X214590Y53612*
X214643Y53570*
X214695Y53524*
X214743Y53476*
X214789Y53425*
X214832Y53371*
X214871Y53315*
X214908Y53257*
X214940Y53197*
X214970Y53135*
X214996Y53071*
X215018Y53006*
X215036Y52940*
X215051Y52873*
X215062Y52805*
X215069Y52737*
X215072Y52669*
X215071Y52600*
G54D160*
X66622Y162639D02*
G01X65721D01*
Y163240*
X65871Y163560D02*
G01X66172D01*
X66322Y163710*
Y164160*
X66622D02*
G01X65721D01*
Y163710*
X65871Y163560*
X66172Y162939D02*
G01Y162639D01*
X66622D02*
G01Y163240D01*
X66172Y164481D02*
G01X65871D01*
X65721Y164631*
Y165081*
X65571D02*
G01X66322D01*
Y164631*
X66172Y164481*
X65421Y164781D02*
G01Y164931D01*
X65571Y165081*
X65871Y165401D02*
G01X66172D01*
X66322Y165552*
Y165852*
X66172Y166002*
X66022*
Y165401*
X65871D02*
G01X65721Y165552D01*
Y165852*
X65871Y167243D02*
G01X65721Y167393D01*
Y167693*
X65871Y167844*
X66172*
X66322Y167693*
Y167393*
X66172Y167243*
X65871*
X66172Y168164D02*
G01Y168464D01*
X66472Y168314D02*
G01X66622Y168464D01*
X66472Y168314D02*
G01X65721D01*
Y169698D02*
G01X66622D01*
Y170149*
X66472Y170299*
X66172*
X66022Y170149*
Y169698*
X65871Y170619D02*
G01X65721Y170769D01*
Y171070*
X65871Y171220*
X65721Y171540D02*
G01Y171990D01*
X65871Y172141*
X66022*
X66172Y171990*
Y171540*
X66472Y171220D02*
G01X66622Y171070D01*
Y170769*
X66472Y170619*
X65871*
X65721Y171540D02*
G01X66622D01*
Y171990*
X66472Y172141*
X66322*
X66172Y171990*
G54D161*
X66278Y173406D02*
G01X66671Y173799D01*
X66278Y174193*
X66671Y173799D02*
G01X65687D01*
X66278Y174980D02*
G01X66671Y175374D01*
X66278Y175768*
X66671Y175374D02*
G01X65687D01*
X66278Y176555D02*
G01X66671Y176949D01*
X66278Y177343*
X66671Y176949D02*
G01X65687D01*
X66278Y178130D02*
G01X66671Y178524D01*
X66278Y178917*
X66671Y178524D02*
G01X65687D01*
X66278Y179705D02*
G01X66671Y180098D01*
X66278Y180492*
X66671Y180098D02*
G01X65687D01*
X66278Y161594D02*
G01X66671Y161201D01*
X66278Y160807*
X66671Y161201D02*
G01X65687D01*
X66278Y160020D02*
G01X66671Y159626D01*
X66278Y159232*
X66671Y159626D02*
G01X65687D01*
X66278Y158445D02*
G01X66671Y158051D01*
X66278Y157657*
X66671Y158051D02*
G01X65687D01*
X66278Y156870D02*
G01X66671Y156476D01*
X66278Y156083*
X66671Y156476D02*
G01X65687D01*
X66278Y155295D02*
G01X66671Y154902D01*
X66278Y154508*
X66671Y154902D02*
G01X65687D01*
G54D162*
X172308Y84837D02*
G01Y83202D01*
X173125Y82385*
X175577*
Y80750D02*
G01Y85654D01*
X173125*
X172308Y84837*
X177464Y85654D02*
G01Y80750D01*
X179099Y82385*
X180733Y80750*
Y85654*
Y76154D02*
G01X177464Y71250D01*
Y76154*
X175577D02*
G01X173125D01*
X172308Y75337*
Y72067*
X173125Y71250*
X175577*
Y76154*
X180733D02*
G01Y71250D01*
X182620Y72067D02*
G01Y73702D01*
X184255*
X182620Y72067D02*
G01X183438Y71250D01*
X185072*
X185890Y72067*
Y75337*
X185072Y76154*
X183438*
X182620Y75337*
G54D163*
X214901Y178675D02*
G01X214903Y178719D01*
X214909Y178763*
X214919Y178806*
X214932Y178848*
X214950Y178888*
X214971Y178927*
X214995Y178964*
X215022Y178999*
X215053Y179031*
X215086Y179060*
X215122Y179086*
X215160Y179108*
X215200Y179127*
X215241Y179143*
X215284Y179155*
X215327Y179163*
X215371Y179167*
X215415*
X215459Y179163*
X215502Y179155*
X215545Y179143*
X215586Y179127*
X215626Y179108*
X215664Y179086*
X215700Y179060*
X215733Y179031*
X215764Y178999*
X215791Y178964*
X215815Y178927*
X215836Y178888*
X215854Y178848*
X215867Y178806*
X215877Y178763*
X215883Y178719*
X215885Y178675*
X215883Y178631*
X215877Y178587*
X215867Y178544*
X215854Y178502*
X215836Y178462*
X215815Y178423*
X215791Y178386*
X215764Y178351*
X215733Y178319*
X215700Y178290*
X215664Y178264*
X215626Y178242*
X215586Y178223*
X215545Y178207*
X215502Y178195*
X215459Y178187*
X215415Y178183*
X215371*
X215327Y178187*
X215284Y178195*
X215241Y178207*
X215200Y178223*
X215160Y178242*
X215122Y178264*
X215086Y178290*
X215053Y178319*
X215022Y178351*
X214995Y178386*
X214971Y178423*
X214950Y178462*
X214932Y178502*
X214919Y178544*
X214909Y178587*
X214903Y178631*
X214901Y178675*
M02*
