G75*
%MOIN*%
%OFA0B0*%
%FSLAX25Y25*%
%IPPOS*%
%LPD*%
%AMOC8*
5,1,8,0,0,1.08239X$1,22.5*
%
%ADD10C,0.01200*%
%ADD11R,0.05118X0.02756*%
%ADD12R,0.02400X0.02000*%
%ADD13R,0.02000X0.02400*%
%ADD14R,0.03150X0.04724*%
%ADD15R,0.04724X0.03150*%
%ADD16R,0.23622X0.09843*%
%ADD17R,0.32300X0.10200*%
%ADD18C,0.00875*%
%ADD19R,0.02800X0.03900*%
%ADD20R,0.02362X0.04724*%
%ADD21R,0.03937X0.04331*%
%ADD22R,0.05000X0.02200*%
%ADD23R,0.07800X0.02200*%
%ADD24R,0.02047X0.01181*%
%ADD25R,0.01929X0.01181*%
%ADD26R,0.04331X0.03937*%
%ADD27R,0.01102X0.03346*%
%ADD28R,0.03346X0.01102*%
%ADD29R,0.08071X0.12008*%
%ADD30R,0.05906X0.04331*%
%ADD31R,0.01772X0.03543*%
%ADD32R,0.07874X0.03543*%
%ADD33R,0.03543X0.01969*%
%ADD34R,0.03740X0.04724*%
%ADD35R,0.05906X0.05118*%
%ADD36R,0.06299X0.08268*%
%ADD37R,0.07480X0.07087*%
%ADD38R,0.07480X0.07480*%
%ADD39R,0.05315X0.01575*%
%ADD40C,0.04000*%
%ADD41C,0.00965*%
%ADD42R,0.04803X0.03583*%
%ADD43R,0.02200X0.05800*%
D10*
X0181071Y0184050D02*
X0181071Y0185950D01*
X0183571Y0186000D02*
X0183571Y0184000D01*
X0186171Y0184000D02*
X0186171Y0186000D01*
X0188671Y0186000D02*
X0188671Y0184000D01*
X0188671Y0195600D02*
X0188671Y0197600D01*
X0186171Y0197600D02*
X0186171Y0195600D01*
X0183571Y0195600D02*
X0183571Y0197600D01*
X0181071Y0197600D02*
X0181071Y0195600D01*
D11*
X0184871Y0190800D03*
D12*
X0183971Y0180200D03*
X0179571Y0180200D03*
X0188971Y0180200D03*
X0193371Y0180200D03*
X0223971Y0169500D03*
X0228371Y0169500D03*
X0221471Y0157700D03*
X0217071Y0157700D03*
X0217071Y0153200D03*
X0221471Y0153200D03*
X0221471Y0148700D03*
X0221471Y0144500D03*
X0217071Y0144500D03*
X0217071Y0148700D03*
X0221071Y0132900D03*
X0225471Y0132900D03*
X0287571Y0099000D03*
X0291971Y0099000D03*
X0291971Y0094500D03*
X0287571Y0094500D03*
X0287571Y0090000D03*
X0291971Y0090000D03*
X0291971Y0085500D03*
X0287571Y0085500D03*
X0267871Y0058900D03*
X0263471Y0058900D03*
X0217471Y0044700D03*
X0213071Y0044700D03*
X0205471Y0044700D03*
X0201071Y0044700D03*
X0164471Y0061500D03*
X0160071Y0061500D03*
X0157271Y0074000D03*
X0152871Y0074000D03*
X0152871Y0078200D03*
X0157271Y0078200D03*
X0149971Y0086300D03*
X0145571Y0086300D03*
X0144971Y0101300D03*
X0149371Y0101300D03*
X0157171Y0125700D03*
X0161571Y0125700D03*
X0161571Y0130200D03*
X0157171Y0130200D03*
X0157071Y0134500D03*
X0161471Y0134500D03*
X0147571Y0171400D03*
X0143171Y0171400D03*
X0122271Y0188000D03*
X0117871Y0188000D03*
X0100571Y0153300D03*
X0100571Y0149200D03*
X0096171Y0149200D03*
X0096171Y0153300D03*
X0179071Y0203000D03*
X0183471Y0203000D03*
X0188071Y0203000D03*
X0192471Y0203000D03*
X0280971Y0204000D03*
X0280971Y0208300D03*
X0285371Y0208300D03*
X0285371Y0204000D03*
X0283271Y0199700D03*
X0287671Y0199700D03*
X0316571Y0165500D03*
X0320971Y0165500D03*
X0320971Y0161000D03*
X0316571Y0161000D03*
X0316571Y0156500D03*
X0320971Y0156500D03*
X0320971Y0152000D03*
X0316571Y0152000D03*
X0316571Y0147500D03*
X0320971Y0147500D03*
X0320971Y0143000D03*
X0316571Y0143000D03*
X0316571Y0138500D03*
X0320971Y0138500D03*
X0320971Y0134000D03*
X0316571Y0134000D03*
X0316571Y0129500D03*
X0320971Y0129500D03*
X0332571Y0059500D03*
X0336971Y0059500D03*
X0336971Y0055000D03*
X0332571Y0055000D03*
X0152971Y0043000D03*
X0148571Y0043000D03*
D13*
X0139771Y0044600D03*
X0139771Y0049000D03*
X0131371Y0056500D03*
X0131371Y0060900D03*
X0143371Y0065700D03*
X0147771Y0065700D03*
X0147771Y0070100D03*
X0143371Y0070100D03*
X0129771Y0082300D03*
X0129771Y0086700D03*
X0160471Y0086900D03*
X0160471Y0091300D03*
X0160471Y0096300D03*
X0160471Y0100700D03*
X0084271Y0077200D03*
X0080171Y0077200D03*
X0076071Y0077200D03*
X0076071Y0072800D03*
X0080171Y0072800D03*
X0084271Y0072800D03*
X0089271Y0054200D03*
X0089271Y0049800D03*
X0196671Y0048200D03*
X0196671Y0043800D03*
X0257171Y0049700D03*
X0257171Y0054100D03*
X0289271Y0071800D03*
X0293871Y0071800D03*
X0298471Y0071800D03*
X0303071Y0071800D03*
X0303071Y0076200D03*
X0298471Y0076200D03*
X0293871Y0076200D03*
X0289271Y0076200D03*
X0299771Y0089800D03*
X0299771Y0094200D03*
X0304271Y0093700D03*
X0304271Y0089300D03*
X0370271Y0094800D03*
X0370271Y0099200D03*
X0287871Y0178500D03*
X0287871Y0182900D03*
X0278971Y0195100D03*
X0278971Y0199500D03*
X0278971Y0212800D03*
X0278971Y0217200D03*
X0283071Y0217300D03*
X0287171Y0217300D03*
X0291271Y0217300D03*
X0291271Y0221700D03*
X0287171Y0221700D03*
X0283071Y0221700D03*
X0232771Y0192700D03*
X0228271Y0192700D03*
X0223771Y0192600D03*
X0223771Y0188200D03*
X0228271Y0188300D03*
X0232771Y0188300D03*
X0194271Y0189300D03*
X0194271Y0193700D03*
X0174271Y0193700D03*
X0174271Y0198300D03*
X0174271Y0202700D03*
X0174271Y0189300D03*
X0104871Y0153100D03*
X0104871Y0148700D03*
D14*
X0113627Y0081000D03*
X0120714Y0081000D03*
X0263327Y0044800D03*
X0270414Y0044800D03*
D15*
X0333971Y0106757D03*
X0333971Y0113843D03*
X0189771Y0213957D03*
X0183771Y0213957D03*
X0183771Y0221043D03*
X0189771Y0221043D03*
X0269571Y0222943D03*
X0269571Y0215857D03*
X0137621Y0073043D03*
X0137621Y0065957D03*
D16*
X0155282Y0192737D03*
X0155282Y0209666D03*
X0253992Y0202687D03*
X0253992Y0219616D03*
D17*
X0309671Y0218800D03*
X0309671Y0196800D03*
D18*
X0133084Y0073313D02*
X0133084Y0070687D01*
X0130458Y0070687D01*
X0130458Y0073313D01*
X0133084Y0073313D01*
X0133084Y0071561D02*
X0130458Y0071561D01*
X0130458Y0072435D02*
X0133084Y0072435D01*
X0133084Y0073309D02*
X0130458Y0073309D01*
X0133084Y0067313D02*
X0133084Y0064687D01*
X0130458Y0064687D01*
X0130458Y0067313D01*
X0133084Y0067313D01*
X0133084Y0065561D02*
X0130458Y0065561D01*
X0130458Y0066435D02*
X0133084Y0066435D01*
X0133084Y0067309D02*
X0130458Y0067309D01*
X0132584Y0050813D02*
X0132584Y0048187D01*
X0129958Y0048187D01*
X0129958Y0050813D01*
X0132584Y0050813D01*
X0132584Y0049061D02*
X0129958Y0049061D01*
X0129958Y0049935D02*
X0132584Y0049935D01*
X0132584Y0050809D02*
X0129958Y0050809D01*
X0132584Y0044813D02*
X0132584Y0042187D01*
X0129958Y0042187D01*
X0129958Y0044813D01*
X0132584Y0044813D01*
X0132584Y0043061D02*
X0129958Y0043061D01*
X0129958Y0043935D02*
X0132584Y0043935D01*
X0132584Y0044809D02*
X0129958Y0044809D01*
D19*
X0201421Y0182950D03*
X0205121Y0182950D03*
X0208821Y0182950D03*
X0208821Y0192350D03*
X0205121Y0192350D03*
X0201421Y0192350D03*
D20*
X0202771Y0197976D03*
X0197771Y0197976D03*
X0207771Y0197976D03*
X0212771Y0197976D03*
X0212771Y0220024D03*
X0207771Y0220024D03*
X0202771Y0220024D03*
X0197771Y0220024D03*
D21*
X0176271Y0219846D03*
X0176271Y0213154D03*
X0231871Y0066746D03*
X0231871Y0060054D03*
X0137771Y0060546D03*
X0137771Y0053854D03*
D22*
X0144621Y0090100D03*
X0154821Y0090100D03*
X0154821Y0093800D03*
X0154821Y0097500D03*
X0144621Y0097500D03*
D23*
X0204171Y0070000D03*
X0204171Y0065000D03*
X0204171Y0060000D03*
X0204171Y0055000D03*
X0223571Y0055000D03*
X0223571Y0060000D03*
X0223571Y0065000D03*
X0223571Y0070000D03*
D24*
X0081274Y0050031D03*
D25*
X0081294Y0052000D03*
X0081294Y0053969D03*
X0084247Y0053969D03*
X0084247Y0052000D03*
X0084247Y0050031D03*
D26*
X0152824Y0067500D03*
X0159517Y0067500D03*
X0100617Y0161900D03*
X0093924Y0161900D03*
D27*
X0150318Y0165260D03*
X0156223Y0165260D03*
X0156223Y0147740D03*
X0150318Y0147740D03*
D28*
X0146479Y0149610D03*
X0146479Y0151579D03*
X0146479Y0153547D03*
X0146479Y0155516D03*
X0146479Y0157484D03*
X0146479Y0159453D03*
X0146479Y0161421D03*
X0146479Y0163390D03*
X0160062Y0163390D03*
X0160062Y0161421D03*
X0160062Y0159453D03*
X0160062Y0157484D03*
X0160062Y0155516D03*
X0160062Y0153547D03*
X0160062Y0151579D03*
X0160062Y0149610D03*
D29*
X0153271Y0156500D03*
D30*
X0072771Y0143297D03*
X0072771Y0086703D03*
D31*
X0077751Y0086457D03*
X0080507Y0086457D03*
X0083263Y0086457D03*
X0086019Y0086457D03*
X0086019Y0143543D03*
X0083263Y0143543D03*
X0080507Y0143543D03*
X0077751Y0143543D03*
D32*
X0110960Y0143543D03*
X0116078Y0086457D03*
D33*
X0125330Y0091476D03*
X0125330Y0129862D03*
D34*
X0127495Y0125138D03*
X0127495Y0101516D03*
D35*
X0130871Y0190654D03*
X0130871Y0197346D03*
D36*
X0083010Y0179705D03*
X0083010Y0155295D03*
D37*
X0072971Y0152539D03*
X0072971Y0182461D03*
D38*
X0072971Y0172224D03*
X0072971Y0162776D03*
D39*
X0083502Y0162382D03*
X0083502Y0164941D03*
X0083502Y0167500D03*
X0083502Y0170059D03*
X0083502Y0172618D03*
D40*
X0138771Y0038500D03*
X0362271Y0038000D03*
X0361271Y0217500D03*
D41*
X0204566Y0164895D03*
X0204566Y0162927D03*
X0202597Y0162927D03*
X0200629Y0162927D03*
X0200629Y0164895D03*
X0202597Y0164895D03*
X0198660Y0164895D03*
X0196692Y0164895D03*
X0196692Y0162927D03*
X0198660Y0162927D03*
X0198660Y0160958D03*
X0196692Y0160958D03*
X0194723Y0160958D03*
X0192755Y0160958D03*
X0190786Y0160958D03*
X0188818Y0160958D03*
X0186849Y0160958D03*
X0184881Y0160958D03*
X0182912Y0160958D03*
X0180944Y0160958D03*
X0180944Y0158990D03*
X0182912Y0158990D03*
X0182912Y0157021D03*
X0180944Y0157021D03*
X0180944Y0155053D03*
X0182912Y0155053D03*
X0182912Y0153084D03*
X0180944Y0153084D03*
X0180944Y0151116D03*
X0182912Y0151116D03*
X0182912Y0149147D03*
X0180944Y0149147D03*
X0180944Y0147179D03*
X0182912Y0147179D03*
X0182912Y0145210D03*
X0180944Y0145210D03*
X0180944Y0143242D03*
X0182912Y0143242D03*
X0182912Y0141273D03*
X0180944Y0141273D03*
X0180944Y0139305D03*
X0182912Y0139305D03*
X0184881Y0139305D03*
X0184881Y0141273D03*
X0186849Y0141273D03*
X0186849Y0139305D03*
X0188818Y0139305D03*
X0188818Y0141273D03*
X0190786Y0141273D03*
X0190786Y0139305D03*
X0192755Y0139305D03*
X0192755Y0141273D03*
X0194723Y0141273D03*
X0194723Y0139305D03*
X0196692Y0139305D03*
X0196692Y0141273D03*
X0198660Y0141273D03*
X0198660Y0139305D03*
X0200629Y0139305D03*
X0200629Y0141273D03*
X0202597Y0141273D03*
X0202597Y0139305D03*
X0204566Y0139305D03*
X0204566Y0141273D03*
X0204566Y0143242D03*
X0204566Y0145210D03*
X0202597Y0145210D03*
X0200629Y0145210D03*
X0200629Y0143242D03*
X0202597Y0143242D03*
X0198660Y0143242D03*
X0196692Y0143242D03*
X0194723Y0143242D03*
X0192755Y0143242D03*
X0190786Y0143242D03*
X0188818Y0143242D03*
X0186849Y0143242D03*
X0184881Y0143242D03*
X0178975Y0143242D03*
X0178975Y0145210D03*
X0178975Y0147179D03*
X0178975Y0149147D03*
X0178975Y0151116D03*
X0178975Y0153084D03*
X0178975Y0155053D03*
X0178975Y0157021D03*
X0178975Y0158990D03*
X0178975Y0160958D03*
X0178975Y0162927D03*
X0178975Y0164895D03*
X0180944Y0164895D03*
X0180944Y0162927D03*
X0182912Y0162927D03*
X0182912Y0164895D03*
X0184881Y0164895D03*
X0184881Y0162927D03*
X0186849Y0162927D03*
X0186849Y0164895D03*
X0188818Y0164895D03*
X0188818Y0162927D03*
X0190786Y0162927D03*
X0190786Y0164895D03*
X0192755Y0164895D03*
X0192755Y0162927D03*
X0194723Y0162927D03*
X0194723Y0164895D03*
X0198660Y0158990D03*
X0200629Y0158990D03*
X0200629Y0160958D03*
X0202597Y0160958D03*
X0202597Y0158990D03*
X0202597Y0157021D03*
X0200629Y0157021D03*
X0200629Y0155053D03*
X0202597Y0155053D03*
X0202597Y0153084D03*
X0200629Y0153084D03*
X0200629Y0151116D03*
X0202597Y0151116D03*
X0202597Y0149147D03*
X0200629Y0149147D03*
X0200629Y0147179D03*
X0202597Y0147179D03*
X0204566Y0147179D03*
X0204566Y0149147D03*
X0204566Y0151116D03*
X0204566Y0153084D03*
X0204566Y0155053D03*
X0204566Y0157021D03*
X0204566Y0158990D03*
X0204566Y0160958D03*
X0196692Y0157021D03*
X0196692Y0155053D03*
X0196692Y0153084D03*
X0196692Y0151116D03*
X0196692Y0149147D03*
X0196692Y0147179D03*
X0194723Y0147179D03*
X0192755Y0147179D03*
X0190786Y0147179D03*
X0188818Y0147179D03*
X0186849Y0147179D03*
X0186849Y0149147D03*
X0186849Y0151116D03*
X0186849Y0153084D03*
X0186849Y0155053D03*
X0186849Y0157021D03*
X0188818Y0157021D03*
X0190786Y0157021D03*
X0192755Y0157021D03*
X0194723Y0157021D03*
X0178975Y0141273D03*
X0178975Y0139305D03*
D42*
X0269771Y0187053D03*
X0269771Y0199947D03*
D43*
X0152511Y0060200D03*
X0145030Y0060200D03*
X0145030Y0050800D03*
X0148771Y0050800D03*
X0152511Y0050800D03*
M02*
