G04 Layer_Physical_Order=5*
G04 Layer_Color=8388736*
%FSLAX42Y42*%
%MOMM*%
G71*
G01*
G75*
%ADD17R,0.41X0.41*%
%ADD60C,0.15*%
%ADD61C,0.15*%
%ADD62C,0.30*%
%ADD63C,0.41*%
%ADD64C,0.25*%
%ADD68C,0.50*%
%ADD69C,0.45*%
%ADD70C,0.20*%
%ADD72C,0.45*%
G36*
X5676Y4353D02*
X5675Y4350D01*
X5674Y4344D01*
X5674Y4344D01*
X5674Y4344D01*
X5676Y4331D01*
X5676Y4331D01*
X5676Y4331D01*
X5679Y4326D01*
X5680Y4324D01*
X5680Y4323D01*
X5687Y4314D01*
X5689Y4305D01*
X5687Y4297D01*
X5682Y4290D01*
X5675Y4285D01*
X5667Y4283D01*
X5658Y4285D01*
X5649Y4292D01*
X5644Y4293D01*
X5640Y4294D01*
X5638Y4294D01*
X5637Y4294D01*
X5636Y4294D01*
X5636Y4294D01*
X5635Y4294D01*
X5631Y4292D01*
X5626Y4290D01*
X5626Y4289D01*
X5624Y4288D01*
X5610Y4270D01*
X5593Y4250D01*
X5581Y4255D01*
Y4306D01*
X5640Y4366D01*
X5670D01*
X5676Y4353D01*
D02*
G37*
G36*
X5821Y4867D02*
Y4840D01*
X5820Y4839D01*
X5808Y4834D01*
X5804Y4837D01*
X5794Y4839D01*
X5784Y4837D01*
X5776Y4831D01*
X5770Y4823D01*
X5768Y4813D01*
X5770Y4803D01*
X5776Y4795D01*
X5784Y4790D01*
X5794Y4788D01*
X5800Y4789D01*
X5808Y4778D01*
X5799Y4770D01*
X5793Y4761D01*
X5791Y4750D01*
X5791Y4750D01*
Y4672D01*
X5778Y4666D01*
X5770Y4671D01*
X5756Y4674D01*
X5741Y4671D01*
X5728Y4663D01*
X5720Y4650D01*
X5717Y4635D01*
X5718Y4631D01*
X5670Y4582D01*
X5223D01*
X5221Y4585D01*
X5217Y4595D01*
X5221Y4600D01*
X5222Y4610D01*
X5221Y4620D01*
X5215Y4628D01*
X5207Y4634D01*
X5197Y4636D01*
X5187Y4634D01*
X5179Y4628D01*
X5173Y4620D01*
X5171Y4610D01*
X5173Y4600D01*
X5177Y4595D01*
X5173Y4585D01*
X5171Y4582D01*
X5092D01*
X5049Y4625D01*
X5055Y4634D01*
X5057Y4646D01*
X5065Y4651D01*
X5070Y4652D01*
X5073Y4650D01*
X5083Y4648D01*
X5092Y4650D01*
X5101Y4655D01*
X5106Y4664D01*
X5108Y4674D01*
X5106Y4683D01*
X5101Y4692D01*
X5092Y4697D01*
X5083Y4699D01*
X5073Y4697D01*
X5064Y4692D01*
X5059Y4683D01*
X5058Y4680D01*
X5052Y4678D01*
X5045Y4676D01*
X5034Y4684D01*
X5019Y4687D01*
X5004Y4684D01*
X4992Y4675D01*
X4984Y4663D01*
X4981Y4648D01*
X4984Y4634D01*
X4992Y4621D01*
X4997Y4618D01*
X4998Y4614D01*
X5003Y4606D01*
X5066Y4543D01*
X5074Y4538D01*
X5083Y4536D01*
X5679D01*
X5688Y4538D01*
X5696Y4543D01*
X5751Y4598D01*
X5756Y4597D01*
X5770Y4600D01*
X5782Y4608D01*
X5782Y4608D01*
X5784Y4608D01*
X5797Y4606D01*
X5799Y4603D01*
X5821Y4581D01*
Y4542D01*
X5773Y4481D01*
X5763Y4488D01*
X5748Y4491D01*
X5733Y4488D01*
X5721Y4480D01*
X5713Y4467D01*
X5710Y4453D01*
X5713Y4438D01*
X5714Y4435D01*
X5708Y4422D01*
X5629D01*
X5618Y4420D01*
X5609Y4414D01*
X5532Y4338D01*
X5526Y4329D01*
X5524Y4318D01*
X5524Y4318D01*
Y4215D01*
X5494Y4186D01*
X5488Y4176D01*
X5486Y4166D01*
X5486Y4166D01*
Y4132D01*
X5433Y4074D01*
X5421Y4080D01*
X5421Y4080D01*
X5417Y4098D01*
X5407Y4114D01*
X5391Y4125D01*
X5372Y4129D01*
X5354Y4125D01*
X5338Y4114D01*
X5327Y4098D01*
X5323Y4080D01*
X5327Y4061D01*
X5338Y4045D01*
X5354Y4035D01*
X5372Y4031D01*
X5378Y4032D01*
X5385Y4020D01*
X5368Y4002D01*
X5366Y3996D01*
X5363Y3991D01*
Y3824D01*
X5363Y3823D01*
X5351Y3818D01*
X5346Y3821D01*
X5337Y3823D01*
X5327Y3821D01*
X5318Y3815D01*
X5313Y3807D01*
X5311Y3797D01*
X5313Y3787D01*
X5318Y3779D01*
X5327Y3774D01*
X5337Y3772D01*
X5346Y3774D01*
X5351Y3777D01*
X5363Y3771D01*
X5363Y3771D01*
Y3545D01*
X5352Y3540D01*
X5172Y3720D01*
X5175Y3730D01*
X5187Y3735D01*
X5197Y3734D01*
X5207Y3735D01*
X5215Y3741D01*
X5221Y3749D01*
X5222Y3759D01*
X5221Y3769D01*
X5215Y3777D01*
X5207Y3783D01*
X5197Y3785D01*
X5187Y3783D01*
X5179Y3777D01*
X5177Y3775D01*
X5164Y3774D01*
X5162Y3774D01*
X5151Y3782D01*
X5136Y3785D01*
X5121Y3782D01*
X5109Y3774D01*
X5101Y3761D01*
X5098Y3750D01*
X5089Y3745D01*
X5085Y3744D01*
X5081Y3748D01*
X5083Y3757D01*
X5080Y3771D01*
X5071Y3784D01*
X5059Y3792D01*
X5044Y3795D01*
X5030Y3792D01*
X5017Y3784D01*
X5009Y3771D01*
X5006Y3757D01*
X5009Y3742D01*
X5017Y3730D01*
X5030Y3721D01*
X5039Y3720D01*
X5394Y3365D01*
X5387Y3353D01*
X5387Y3353D01*
X5373Y3350D01*
X5360Y3342D01*
X5352Y3329D01*
X5349Y3315D01*
X5350Y3310D01*
X5338Y3298D01*
X5333Y3291D01*
X5331Y3282D01*
Y3225D01*
X5333Y3216D01*
X5338Y3209D01*
X5366Y3181D01*
X5365Y3175D01*
X5352Y3170D01*
X5349Y3172D01*
X4902D01*
Y3045D01*
X4890Y3041D01*
X4884Y3050D01*
X4871Y3058D01*
X4856Y3061D01*
X4842Y3058D01*
X4829Y3050D01*
X4821Y3037D01*
X4818Y3023D01*
X4821Y3008D01*
X4829Y2995D01*
X4842Y2987D01*
X4856Y2984D01*
X4871Y2987D01*
X4884Y2995D01*
X4890Y3004D01*
X4902Y3000D01*
Y2964D01*
X4848D01*
X4839Y2962D01*
X4832Y2957D01*
X4829Y2954D01*
X4815D01*
X4813Y2961D01*
X4805Y2974D01*
X4792Y2982D01*
X4778Y2985D01*
X4763Y2982D01*
X4751Y2974D01*
X4742Y2961D01*
X4741Y2956D01*
X4732Y2949D01*
X4661D01*
Y2894D01*
X4614D01*
X4596Y2911D01*
X4588Y2916D01*
X4580Y2918D01*
X4575D01*
X4569Y2931D01*
X4571Y2934D01*
X4573Y2944D01*
X4571Y2954D01*
X4571Y2954D01*
X4580Y2963D01*
X4580Y2963D01*
X4590Y2961D01*
X4600Y2963D01*
X4608Y2969D01*
X4613Y2977D01*
X4615Y2987D01*
X4613Y2997D01*
X4608Y3005D01*
X4600Y3011D01*
X4590Y3013D01*
X4580Y3011D01*
X4572Y3005D01*
X4566Y2997D01*
X4564Y2987D01*
X4566Y2977D01*
X4566Y2977D01*
X4557Y2968D01*
X4557Y2968D01*
X4547Y2970D01*
X4538Y2968D01*
X4529Y2962D01*
X4524Y2954D01*
X4522Y2944D01*
X4524Y2934D01*
X4526Y2931D01*
X4520Y2918D01*
X4086D01*
X4083Y2922D01*
X4070Y2930D01*
X4056Y2933D01*
X4041Y2930D01*
X4028Y2922D01*
X4026Y2918D01*
X3969D01*
X3966Y2917D01*
X3905Y2978D01*
X3898Y2983D01*
X3899Y2996D01*
X3998D01*
X4028Y2966D01*
X4028Y2966D01*
X4035Y2961D01*
X4044Y2959D01*
X4044Y2959D01*
X4046D01*
X4046Y2959D01*
X4133D01*
X4136Y2955D01*
X4148Y2946D01*
X4163Y2944D01*
X4178Y2946D01*
X4190Y2955D01*
X4206Y2956D01*
X4209Y2954D01*
X4224Y2951D01*
X4239Y2954D01*
X4251Y2962D01*
X4259Y2975D01*
X4262Y2990D01*
X4259Y3004D01*
X4251Y3017D01*
X4239Y3025D01*
X4224Y3028D01*
X4221Y3027D01*
X4211Y3038D01*
X4211Y3038D01*
X4205Y3044D01*
X4210Y3056D01*
X4379D01*
X4388Y3057D01*
X4395Y3062D01*
X4412Y3079D01*
X4417Y3078D01*
X4432Y3081D01*
X4444Y3089D01*
X4449Y3097D01*
X4463Y3098D01*
X4464Y3098D01*
X4465Y3096D01*
X4473Y3090D01*
X4483Y3088D01*
X4493Y3090D01*
X4501Y3096D01*
X4507Y3104D01*
X4509Y3114D01*
X4507Y3124D01*
X4505Y3126D01*
X4512Y3139D01*
X4558D01*
X4575Y3122D01*
X4574Y3117D01*
X4577Y3102D01*
X4585Y3089D01*
X4598Y3081D01*
X4613Y3078D01*
X4627Y3081D01*
X4640Y3089D01*
X4644Y3096D01*
X4657Y3098D01*
X4659Y3098D01*
X4666Y3093D01*
X4676Y3091D01*
X4686Y3093D01*
X4694Y3098D01*
X4700Y3107D01*
X4702Y3117D01*
X4700Y3126D01*
X4694Y3135D01*
X4686Y3140D01*
X4676Y3142D01*
X4666Y3140D01*
X4659Y3136D01*
X4657Y3135D01*
X4644Y3137D01*
X4640Y3144D01*
X4627Y3152D01*
X4613Y3155D01*
X4608Y3154D01*
X4584Y3178D01*
X4576Y3183D01*
X4567Y3185D01*
X4315D01*
X4315Y3185D01*
X4301Y3192D01*
X4295Y3201D01*
X4287Y3206D01*
X4277Y3208D01*
X4268Y3206D01*
X4259Y3201D01*
X4254Y3192D01*
X4252Y3183D01*
X4252Y3180D01*
X4240Y3177D01*
X4235Y3186D01*
X4226Y3191D01*
X4216Y3193D01*
X4207Y3191D01*
X4198Y3186D01*
X4193Y3177D01*
X4191Y3167D01*
X4189Y3165D01*
X3881D01*
X3802Y3244D01*
Y3267D01*
X3800Y3276D01*
X3795Y3284D01*
X3769Y3310D01*
X3761Y3315D01*
X3753Y3317D01*
X3632D01*
X3632Y3317D01*
X3627Y3330D01*
X3632Y3338D01*
X3635Y3353D01*
X3632Y3367D01*
X3624Y3380D01*
X3611Y3388D01*
X3607Y3389D01*
Y3416D01*
X3605Y3425D01*
X3600Y3433D01*
X3593Y3438D01*
X3584Y3439D01*
X3581D01*
X3372Y3648D01*
X3377Y3660D01*
X3495D01*
X3504Y3662D01*
X3511Y3667D01*
X3549Y3705D01*
X3554Y3712D01*
X3556Y3721D01*
Y3729D01*
X3560Y3732D01*
X3569Y3745D01*
X3572Y3759D01*
X3569Y3774D01*
X3560Y3786D01*
X3548Y3795D01*
X3533Y3798D01*
X3518Y3795D01*
X3506Y3786D01*
X3498Y3774D01*
X3495Y3759D01*
X3498Y3745D01*
X3506Y3732D01*
X3506Y3727D01*
X3485Y3706D01*
X3200D01*
X3161Y3745D01*
X3153Y3750D01*
X3145Y3752D01*
X3075D01*
X3073Y3756D01*
X3064Y3761D01*
X3065Y3770D01*
X3066Y3775D01*
X3078Y3783D01*
X3080Y3787D01*
X3282D01*
X3293Y3776D01*
X3292Y3769D01*
X3294Y3755D01*
X3303Y3742D01*
X3315Y3734D01*
X3330Y3731D01*
X3345Y3734D01*
X3357Y3742D01*
X3365Y3755D01*
X3368Y3769D01*
X3365Y3784D01*
X3357Y3797D01*
X3345Y3805D01*
X3330Y3808D01*
X3327Y3807D01*
X3308Y3826D01*
X3301Y3831D01*
X3292Y3833D01*
X3080D01*
X3078Y3837D01*
X3069Y3843D01*
X3072Y3856D01*
X3425D01*
X3434Y3858D01*
X3441Y3863D01*
X3867Y4288D01*
X3872Y4296D01*
X3874Y4305D01*
Y4339D01*
X3878Y4342D01*
X3886Y4354D01*
X3889Y4369D01*
X3886Y4383D01*
X3878Y4396D01*
X3865Y4404D01*
X3851Y4407D01*
X3836Y4404D01*
X3823Y4396D01*
X3815Y4383D01*
X3812Y4369D01*
X3815Y4354D01*
X3816Y4352D01*
X3812Y4346D01*
X3808Y4342D01*
X3800Y4344D01*
X3790Y4342D01*
X3782Y4336D01*
X3776Y4328D01*
X3774Y4318D01*
X3776Y4308D01*
X3782Y4300D01*
X3790Y4294D01*
X3790Y4294D01*
X3794Y4281D01*
X3415Y3902D01*
X3221D01*
X3214Y3914D01*
X3214Y3915D01*
X3216Y3924D01*
X3214Y3934D01*
X3208Y3942D01*
X3200Y3948D01*
X3190Y3950D01*
X3180Y3948D01*
X3172Y3942D01*
X3167Y3934D01*
X3165Y3924D01*
X3166Y3915D01*
X3167Y3914D01*
X3160Y3902D01*
X3068D01*
X3048Y3922D01*
X3040Y3927D01*
X3031Y3929D01*
X2994D01*
X2985Y3927D01*
X2977Y3922D01*
X2877Y3822D01*
X2873Y3823D01*
X2858Y3820D01*
X2846Y3812D01*
X2843Y3808D01*
X2830Y3807D01*
X2794Y3843D01*
Y3868D01*
X2795Y3869D01*
X2796Y3874D01*
X2806Y3877D01*
X2809Y3877D01*
X2811Y3873D01*
X2820Y3868D01*
X2830Y3866D01*
X2839Y3868D01*
X2848Y3873D01*
X2853Y3881D01*
X2855Y3891D01*
X2853Y3901D01*
X2848Y3909D01*
X2839Y3915D01*
X2830Y3917D01*
X2820Y3915D01*
X2818Y3914D01*
X2803Y3918D01*
X2802Y3921D01*
X2807Y3927D01*
X2810Y3942D01*
X2807Y3957D01*
X2798Y3969D01*
X2786Y3978D01*
X2771Y3980D01*
X2763Y3987D01*
Y4080D01*
X2762Y4089D01*
X2757Y4096D01*
X2743Y4110D01*
Y4131D01*
X2864Y4251D01*
X2869Y4258D01*
X2870Y4267D01*
Y4694D01*
X3260D01*
X3269Y4696D01*
X3276Y4701D01*
X3282Y4706D01*
X3524D01*
X3531Y4702D01*
X3546Y4699D01*
X3561Y4702D01*
X3573Y4710D01*
X3581Y4722D01*
X3584Y4737D01*
X3581Y4752D01*
X3573Y4764D01*
X3569Y4767D01*
Y4961D01*
X3567Y4970D01*
X3562Y4977D01*
X3419Y5121D01*
X3424Y5132D01*
X3676D01*
X3687Y5137D01*
X3691Y5140D01*
X3705Y5136D01*
X3705Y5136D01*
X3713Y5124D01*
X3725Y5115D01*
X3740Y5112D01*
X3747Y5101D01*
X3746Y5098D01*
X3749Y5083D01*
X3757Y5071D01*
X3770Y5062D01*
X3785Y5059D01*
X3788Y5060D01*
X3800Y5055D01*
X3802Y5040D01*
X3811Y5027D01*
X3823Y5019D01*
X3838Y5016D01*
X3843Y5017D01*
X3949Y4911D01*
X3956Y4906D01*
X3965Y4905D01*
X4291D01*
X4298Y4892D01*
X4298Y4891D01*
X4295Y4877D01*
X4298Y4862D01*
X4306Y4850D01*
X4310Y4847D01*
Y4839D01*
X4312Y4830D01*
X4317Y4822D01*
X4419Y4721D01*
X4426Y4716D01*
X4435Y4714D01*
X5237D01*
X5248Y4701D01*
X5247Y4699D01*
X5250Y4684D01*
X5251Y4683D01*
X5251Y4683D01*
X5244Y4670D01*
X5240Y4669D01*
X5232Y4664D01*
X5226Y4655D01*
X5225Y4646D01*
X5226Y4636D01*
X5232Y4628D01*
X5240Y4622D01*
X5250Y4620D01*
X5260Y4622D01*
X5268Y4628D01*
X5274Y4636D01*
X5276Y4646D01*
X5275Y4650D01*
X5284Y4660D01*
X5285Y4661D01*
X5286Y4661D01*
X5300Y4664D01*
X5313Y4672D01*
X5321Y4684D01*
X5324Y4699D01*
X5321Y4714D01*
X5313Y4726D01*
X5300Y4734D01*
X5294Y4736D01*
X5277Y4753D01*
X5269Y4758D01*
X5260Y4760D01*
X4444D01*
X4360Y4845D01*
X4360Y4850D01*
X4369Y4862D01*
X4372Y4877D01*
X4369Y4891D01*
X4368Y4892D01*
X4375Y4905D01*
X4476D01*
X4584Y4797D01*
X4591Y4792D01*
X4600Y4790D01*
X5446D01*
X5449Y4786D01*
X5462Y4778D01*
X5476Y4775D01*
X5491Y4778D01*
X5503Y4786D01*
X5512Y4799D01*
X5515Y4813D01*
X5512Y4828D01*
X5503Y4840D01*
X5491Y4849D01*
X5476Y4852D01*
X5462Y4849D01*
X5449Y4840D01*
X5446Y4836D01*
X4609D01*
X4502Y4944D01*
X4494Y4949D01*
X4486Y4951D01*
X3974D01*
X3875Y5050D01*
X3876Y5055D01*
X3875Y5062D01*
X3884Y5075D01*
X4046D01*
X4055Y5076D01*
X4063Y5081D01*
X4067Y5086D01*
X4081Y5082D01*
X4082Y5078D01*
X4090Y5066D01*
X4103Y5057D01*
X4117Y5054D01*
X4132Y5057D01*
X4144Y5066D01*
X4153Y5078D01*
X4154Y5082D01*
X4236D01*
X4240Y5071D01*
X4224Y5054D01*
X4219Y5055D01*
X4204Y5052D01*
X4192Y5044D01*
X4183Y5031D01*
X4181Y5017D01*
X4183Y5002D01*
X4192Y4989D01*
X4204Y4981D01*
X4219Y4978D01*
X4234Y4981D01*
X4246Y4989D01*
X4254Y5002D01*
X4257Y5017D01*
X4256Y5021D01*
X4279Y5044D01*
X4489D01*
X4507Y5026D01*
X4515Y5021D01*
X4524Y5019D01*
X4727D01*
X4736Y5021D01*
X4743Y5026D01*
X4829Y5112D01*
X4841Y5105D01*
X4843Y5096D01*
X4849Y5087D01*
X4857Y5082D01*
X4867Y5080D01*
X4876Y5082D01*
X4885Y5087D01*
X4890Y5096D01*
X4892Y5105D01*
X4890Y5115D01*
X4885Y5124D01*
X4881Y5126D01*
X4879Y5139D01*
X4880Y5141D01*
X4881Y5142D01*
X4886Y5150D01*
X4901Y5153D01*
X4909Y5145D01*
X4916Y5140D01*
X4925Y5139D01*
X5283D01*
X5293Y5128D01*
X5293Y5126D01*
X5293Y5126D01*
X5295Y5116D01*
X5301Y5108D01*
X5309Y5102D01*
X5319Y5100D01*
X5329Y5102D01*
X5337Y5108D01*
X5342Y5116D01*
X5344Y5126D01*
X5343Y5135D01*
X5342Y5136D01*
X5349Y5148D01*
X5376D01*
X5377Y5142D01*
X5386Y5129D01*
X5398Y5121D01*
X5413Y5118D01*
X5427Y5121D01*
X5440Y5129D01*
X5448Y5142D01*
X5451Y5156D01*
X5448Y5171D01*
X5440Y5183D01*
X5427Y5192D01*
X5413Y5195D01*
X5404Y5193D01*
X5398Y5194D01*
X5300D01*
X5291Y5192D01*
X5289Y5191D01*
X5282Y5192D01*
X5282Y5192D01*
X5273Y5205D01*
X5273Y5207D01*
X5275Y5209D01*
X5479D01*
X5821Y4867D01*
D02*
G37*
G36*
X2739Y3923D02*
X2744Y3915D01*
X2750Y3911D01*
Y3885D01*
X2750Y3884D01*
X2748Y3876D01*
Y3872D01*
X2741Y3869D01*
X2735Y3868D01*
X2728Y3872D01*
X2719Y3874D01*
X2719D01*
X2706Y3887D01*
Y3908D01*
X2724Y3926D01*
X2739Y3923D01*
D02*
G37*
G36*
X2791Y6198D02*
X3827D01*
X3827Y6197D01*
X3831Y6186D01*
X3796Y6150D01*
X3791Y6143D01*
X3791Y6139D01*
X3785Y6136D01*
X3777Y6123D01*
X3774Y6109D01*
X3775Y6104D01*
X3409Y5738D01*
X3343D01*
X3341Y5740D01*
X3337Y5751D01*
X3341Y5756D01*
X3343Y5766D01*
X3341Y5776D01*
X3335Y5784D01*
X3327Y5790D01*
X3317Y5791D01*
X3307Y5790D01*
X3299Y5784D01*
X3294Y5776D01*
X3292Y5766D01*
X3294Y5756D01*
X3288Y5743D01*
X3283Y5742D01*
X3281Y5742D01*
X3268Y5750D01*
X3254Y5753D01*
X3239Y5750D01*
X3227Y5742D01*
X3218Y5730D01*
X3215Y5715D01*
X3218Y5700D01*
X3227Y5688D01*
X3239Y5680D01*
X3254Y5677D01*
X3268Y5680D01*
X3281Y5688D01*
X3284Y5692D01*
X3419D01*
X3428Y5694D01*
X3435Y5699D01*
X3806Y6069D01*
X3820Y6069D01*
X3831Y6057D01*
X3825Y6045D01*
X3811Y6043D01*
X3798Y6034D01*
X3790Y6022D01*
X3787Y6007D01*
X3788Y6002D01*
X3409Y5624D01*
X2788D01*
X2786Y5628D01*
X2773Y5636D01*
X2758Y5639D01*
X2744Y5636D01*
X2731Y5628D01*
X2723Y5615D01*
X2720Y5601D01*
X2723Y5586D01*
X2731Y5574D01*
X2744Y5565D01*
X2758Y5562D01*
X2773Y5565D01*
X2786Y5574D01*
X2788Y5578D01*
X3419D01*
X3428Y5579D01*
X3435Y5584D01*
X3559Y5708D01*
X3560Y5708D01*
X3572Y5703D01*
X3573Y5698D01*
X3579Y5689D01*
X3587Y5684D01*
X3597Y5682D01*
X3604Y5683D01*
X3611Y5673D01*
X3611Y5673D01*
X3297Y5359D01*
X3242D01*
X3233Y5357D01*
X3226Y5352D01*
X3167Y5293D01*
X3162Y5285D01*
X3160Y5277D01*
Y5239D01*
X3162Y5230D01*
X3167Y5223D01*
X3193Y5196D01*
X3201Y5191D01*
X3210Y5189D01*
X3285D01*
X3410Y5064D01*
X3406Y5050D01*
X3406Y5050D01*
X3398Y5045D01*
X3393Y5036D01*
X3391Y5027D01*
X3393Y5017D01*
X3398Y5009D01*
X3406Y5003D01*
X3416Y5001D01*
X3426Y5003D01*
X3434Y5009D01*
X3440Y5017D01*
X3440Y5017D01*
X3454Y5021D01*
X3523Y4952D01*
Y4767D01*
X3519Y4764D01*
X3511Y4753D01*
X3278D01*
X3267Y4762D01*
X3265Y4772D01*
X3259Y4781D01*
X3251Y4786D01*
X3241Y4788D01*
X3231Y4786D01*
X3223Y4781D01*
X3217Y4772D01*
X3215Y4762D01*
X3217Y4753D01*
X3217Y4753D01*
X3210Y4740D01*
X2864D01*
X2796Y4808D01*
X2797Y4813D01*
X2794Y4828D01*
X2786Y4840D01*
X2773Y4849D01*
X2758Y4852D01*
X2744Y4849D01*
X2731Y4840D01*
X2723Y4828D01*
X2720Y4813D01*
X2723Y4799D01*
X2731Y4786D01*
X2744Y4778D01*
X2758Y4775D01*
X2763Y4776D01*
X2777Y4762D01*
X2771Y4750D01*
X2761Y4748D01*
X2753Y4743D01*
X2747Y4734D01*
X2745Y4724D01*
X2747Y4715D01*
X2753Y4706D01*
X2761Y4701D01*
X2771Y4699D01*
X2781Y4701D01*
X2789Y4706D01*
X2795Y4715D01*
X2797Y4724D01*
X2809Y4731D01*
X2824Y4715D01*
Y4283D01*
X2818Y4278D01*
X2814Y4278D01*
X2804Y4282D01*
X2799Y4288D01*
X2791Y4293D01*
X2781Y4295D01*
X2771Y4293D01*
X2763Y4288D01*
X2758Y4280D01*
X2756Y4270D01*
X2758Y4260D01*
X2763Y4252D01*
X2771Y4246D01*
X2775Y4245D01*
X2779Y4232D01*
X2704Y4157D01*
X2699Y4149D01*
X2697Y4140D01*
Y4127D01*
X2685Y4119D01*
X2680Y4120D01*
X2670Y4118D01*
X2662Y4113D01*
X2656Y4104D01*
X2654Y4094D01*
X2656Y4085D01*
X2662Y4076D01*
X2670Y4071D01*
X2680Y4069D01*
X2690Y4071D01*
X2698Y4076D01*
X2712Y4075D01*
X2717Y4071D01*
Y3985D01*
X2666Y3934D01*
X2661Y3926D01*
X2660Y3918D01*
Y3878D01*
X2661Y3869D01*
X2666Y3861D01*
X2672Y3856D01*
X2668Y3842D01*
X2665Y3841D01*
X2656Y3836D01*
X2651Y3827D01*
X2649Y3818D01*
X2651Y3808D01*
X2656Y3799D01*
X2659Y3798D01*
X2654Y3787D01*
X2639Y3790D01*
X2624Y3787D01*
X2612Y3794D01*
Y4406D01*
X2614Y4406D01*
X2630Y4416D01*
X2640Y4432D01*
X2644Y4450D01*
X2643D01*
Y4999D01*
X2644D01*
X2640Y5017D01*
X2630Y5032D01*
X2614Y5043D01*
X2612Y5043D01*
Y6015D01*
X2613Y6022D01*
X2613D01*
X2613Y6022D01*
X2617Y6057D01*
X2627Y6091D01*
X2643Y6121D01*
X2665Y6148D01*
X2692Y6171D01*
X2723Y6187D01*
X2757Y6197D01*
X2784Y6200D01*
X2791Y6198D01*
D02*
G37*
G36*
X5968Y5043D02*
X5953Y5032D01*
X5943Y5017D01*
X5939Y4999D01*
X5940D01*
Y4450D01*
X5939D01*
X5943Y4432D01*
X5953Y4416D01*
X5968Y4406D01*
Y4070D01*
X5968Y4058D01*
X5968Y4058D01*
Y4058D01*
X5956Y4056D01*
X5955Y4058D01*
X5955Y4061D01*
X5949Y4069D01*
X5941Y4075D01*
X5931Y4077D01*
X5921Y4075D01*
X5913Y4069D01*
X5907Y4061D01*
X5905Y4051D01*
X5907Y4041D01*
X5913Y4033D01*
X5921Y4028D01*
X5931Y4026D01*
X5941Y4028D01*
X5949Y4033D01*
X5955Y4041D01*
X5955Y4044D01*
X5956Y4046D01*
X5968Y4045D01*
Y4045D01*
X5968Y4045D01*
X5968Y4032D01*
Y3293D01*
X5791D01*
Y3294D01*
X5749Y3290D01*
X5707Y3280D01*
X5668Y3264D01*
X5632Y3242D01*
X5599Y3214D01*
X5572Y3182D01*
X5550Y3146D01*
X5533Y3106D01*
X5523Y3065D01*
X5520Y3023D01*
X5521D01*
Y2847D01*
X5050D01*
X5043Y2859D01*
X5045Y2870D01*
X5042Y2885D01*
X5033Y2897D01*
X5022Y2905D01*
X5022Y2906D01*
X5029Y2918D01*
X5378D01*
X5390Y2906D01*
X5397Y2901D01*
X5406Y2900D01*
X5415Y2901D01*
X5422Y2906D01*
X5427Y2914D01*
X5429Y2923D01*
Y3130D01*
X5427Y3139D01*
X5422Y3147D01*
X5416Y3153D01*
Y3187D01*
X5414Y3195D01*
X5409Y3203D01*
X5404Y3208D01*
X5405Y3220D01*
X5411Y3229D01*
X5413Y3238D01*
X5411Y3248D01*
X5405Y3257D01*
X5397Y3262D01*
X5394Y3272D01*
X5397Y3278D01*
X5402Y3279D01*
X5414Y3288D01*
X5423Y3300D01*
X5426Y3315D01*
X5426Y3315D01*
X5437Y3321D01*
X5504Y3255D01*
X5499Y3248D01*
X5496Y3233D01*
X5499Y3219D01*
X5508Y3206D01*
X5520Y3198D01*
X5535Y3195D01*
X5549Y3198D01*
X5562Y3206D01*
X5570Y3219D01*
X5572Y3227D01*
X5574Y3230D01*
X5575Y3238D01*
X5574Y3247D01*
X5571Y3251D01*
X5571Y3255D01*
X5574Y3261D01*
X5577Y3265D01*
X5582Y3266D01*
X5589Y3271D01*
X5596Y3278D01*
X5597Y3279D01*
X5607Y3286D01*
X5616Y3298D01*
X5618Y3313D01*
X5617Y3322D01*
X5627Y3327D01*
X5629Y3327D01*
X5637Y3321D01*
X5646Y3320D01*
X5656Y3321D01*
X5665Y3327D01*
X5670Y3335D01*
X5672Y3345D01*
X5670Y3355D01*
X5665Y3363D01*
X5656Y3369D01*
X5646Y3371D01*
X5637Y3369D01*
X5628Y3363D01*
X5623Y3355D01*
X5621Y3345D01*
X5622Y3341D01*
X5610Y3336D01*
X5607Y3340D01*
X5595Y3348D01*
X5580Y3351D01*
X5566Y3348D01*
X5553Y3340D01*
X5552Y3340D01*
X5380Y3512D01*
Y3991D01*
X5623Y4259D01*
X5637Y4278D01*
X5640Y4278D01*
X5652Y4270D01*
X5667Y4267D01*
X5681Y4270D01*
X5694Y4278D01*
X5702Y4291D01*
X5705Y4305D01*
X5702Y4320D01*
X5694Y4332D01*
X5692Y4334D01*
X5690Y4346D01*
X5837Y4537D01*
Y4874D01*
X5486Y5225D01*
X5266D01*
X5266Y5225D01*
X5257Y5231D01*
X5248Y5233D01*
X5238Y5231D01*
X5230Y5225D01*
X5229Y5225D01*
X5029D01*
X4940Y5314D01*
X4584D01*
X4536Y5361D01*
X4451Y5276D01*
X4435Y5278D01*
X4435Y5278D01*
X4427Y5284D01*
X4417Y5286D01*
X4407Y5284D01*
X4399Y5278D01*
X4393Y5270D01*
X4391Y5260D01*
X4379Y5257D01*
X4369Y5255D01*
X4357Y5247D01*
X4354Y5243D01*
X4227D01*
X4226Y5243D01*
X4110D01*
X4101Y5241D01*
X4093Y5236D01*
X4093Y5236D01*
X4032Y5174D01*
X3947D01*
X3943Y5187D01*
X3944Y5187D01*
X3952Y5200D01*
X3955Y5215D01*
X3952Y5229D01*
X3944Y5242D01*
X3931Y5250D01*
X3917Y5253D01*
X3902Y5250D01*
X3890Y5242D01*
X3881Y5229D01*
X3878Y5215D01*
X3881Y5200D01*
X3890Y5187D01*
X3891Y5187D01*
X3887Y5174D01*
X3770D01*
X3767Y5178D01*
X3755Y5186D01*
X3740Y5189D01*
X3725Y5186D01*
X3713Y5178D01*
X3710Y5174D01*
X3701D01*
X3676Y5149D01*
X3391D01*
X3311Y5229D01*
X3303Y5234D01*
X3294Y5236D01*
X3219D01*
X3206Y5249D01*
Y5267D01*
X3252Y5313D01*
X3307D01*
X3316Y5314D01*
X3323Y5319D01*
X3358Y5354D01*
X3505D01*
X3873Y5723D01*
X4464D01*
X4469Y5711D01*
X4389Y5631D01*
X4381Y5619D01*
X4381Y5617D01*
X4370Y5607D01*
X4368Y5606D01*
X4356Y5598D01*
X4240Y5482D01*
X4193D01*
X4188Y5494D01*
X4231Y5538D01*
X4236Y5545D01*
X4238Y5554D01*
X4236Y5563D01*
X4231Y5570D01*
X4228Y5574D01*
X4224Y5576D01*
X4218Y5585D01*
X4206Y5593D01*
X4191Y5596D01*
X4176Y5593D01*
X4164Y5585D01*
X4156Y5572D01*
X4153Y5558D01*
X4156Y5543D01*
X4162Y5533D01*
X4109Y5481D01*
X4104Y5473D01*
X4102Y5465D01*
Y5441D01*
X4102Y5440D01*
X4073D01*
X4064Y5439D01*
X4057Y5434D01*
X4044Y5421D01*
X3944D01*
X3940Y5423D01*
X3931Y5425D01*
X3775D01*
X3764Y5433D01*
X3749Y5436D01*
X3734Y5433D01*
X3722Y5425D01*
X3714Y5412D01*
X3711Y5397D01*
X3714Y5383D01*
X3722Y5370D01*
X3734Y5362D01*
X3749Y5359D01*
X3764Y5362D01*
X3776Y5370D01*
X3782Y5379D01*
X3923D01*
X3927Y5376D01*
X3936Y5374D01*
X4053D01*
X4062Y5376D01*
X4070Y5381D01*
X4083Y5394D01*
X4112D01*
X4121Y5396D01*
X4128Y5401D01*
X4142Y5415D01*
X4148Y5416D01*
X4156Y5410D01*
X4171Y5407D01*
X4183Y5410D01*
X4258D01*
X4272Y5412D01*
X4283Y5420D01*
X4290Y5430D01*
X4399Y5539D01*
X4401Y5540D01*
X4413Y5548D01*
X4440Y5574D01*
X4448Y5586D01*
X4448Y5588D01*
X4582Y5723D01*
X4932D01*
Y5673D01*
X4930Y5670D01*
X4923Y5664D01*
X4920Y5663D01*
X4915Y5664D01*
X4905Y5662D01*
X4897Y5657D01*
X4891Y5649D01*
X4889Y5639D01*
X4891Y5629D01*
X4897Y5621D01*
X4905Y5615D01*
X4915Y5613D01*
X4925Y5615D01*
X4933Y5621D01*
X4947Y5621D01*
X4948Y5621D01*
X5146Y5423D01*
X5158Y5415D01*
X5171Y5412D01*
X5184D01*
X5185Y5411D01*
X5189Y5400D01*
X5186Y5395D01*
X5184Y5385D01*
X5186Y5375D01*
X5191Y5367D01*
X5200Y5361D01*
X5210Y5359D01*
X5219Y5361D01*
X5228Y5367D01*
X5233Y5375D01*
X5235Y5385D01*
X5233Y5395D01*
X5230Y5400D01*
X5234Y5411D01*
X5236Y5412D01*
X5411D01*
X5417Y5406D01*
X5424Y5396D01*
X5436Y5387D01*
X5451Y5385D01*
X5466Y5387D01*
X5478Y5396D01*
X5486Y5408D01*
X5489Y5423D01*
X5486Y5438D01*
X5478Y5450D01*
X5468Y5457D01*
X5451Y5474D01*
X5439Y5482D01*
X5425Y5484D01*
X5186D01*
X5009Y5662D01*
Y5663D01*
X5006Y5677D01*
X5004Y5679D01*
Y5723D01*
X5303D01*
X5319Y5707D01*
Y5681D01*
X5299Y5662D01*
X5235D01*
X5226Y5660D01*
X5219Y5655D01*
X5179Y5616D01*
X5177Y5616D01*
X5162Y5613D01*
X5149Y5605D01*
X5141Y5593D01*
X5138Y5578D01*
X5141Y5563D01*
X5149Y5551D01*
X5162Y5542D01*
X5175Y5540D01*
X5176Y5539D01*
X5178Y5538D01*
X5185Y5528D01*
X5184Y5524D01*
X5186Y5515D01*
X5191Y5506D01*
X5200Y5501D01*
X5210Y5499D01*
X5219Y5501D01*
X5228Y5506D01*
X5233Y5515D01*
X5235Y5524D01*
X5233Y5534D01*
X5228Y5543D01*
X5219Y5548D01*
X5218Y5549D01*
X5212Y5563D01*
X5212Y5563D01*
X5215Y5578D01*
X5214Y5585D01*
X5243Y5614D01*
X5253Y5606D01*
X5253Y5603D01*
Y5532D01*
X5321D01*
X5329Y5532D01*
X5341Y5532D01*
X5409D01*
Y5600D01*
X5422Y5607D01*
X5424Y5606D01*
X5431Y5604D01*
X5433Y5601D01*
X5436Y5590D01*
X5432Y5585D01*
X5430Y5575D01*
X5432Y5565D01*
X5438Y5557D01*
X5446Y5552D01*
X5456Y5550D01*
X5466Y5552D01*
X5474Y5557D01*
X5480Y5565D01*
X5482Y5575D01*
X5480Y5585D01*
X5476Y5590D01*
X5481Y5601D01*
X5482Y5603D01*
X5614D01*
X5834Y5383D01*
Y5260D01*
X5828Y5254D01*
X5817Y5247D01*
X5809Y5234D01*
X5806Y5220D01*
X5809Y5205D01*
X5817Y5193D01*
X5821Y5190D01*
Y5173D01*
X5817Y5171D01*
X5809Y5158D01*
X5806Y5144D01*
X5809Y5129D01*
X5817Y5116D01*
X5830Y5108D01*
X5845Y5105D01*
X5859Y5108D01*
X5872Y5116D01*
X5880Y5129D01*
X5883Y5144D01*
X5880Y5158D01*
X5872Y5171D01*
X5868Y5173D01*
Y5190D01*
X5872Y5193D01*
X5878Y5203D01*
X5895Y5220D01*
X5903Y5231D01*
X5906Y5245D01*
Y5397D01*
X5903Y5411D01*
X5895Y5423D01*
X5654Y5664D01*
X5642Y5672D01*
X5629Y5675D01*
X5453D01*
X5417Y5711D01*
X5422Y5723D01*
X5464D01*
X5465Y5718D01*
X5471Y5710D01*
X5479Y5704D01*
X5489Y5702D01*
X5499Y5704D01*
X5507Y5710D01*
X5513Y5718D01*
X5514Y5723D01*
X5968D01*
Y5043D01*
D02*
G37*
G36*
X2989Y3851D02*
X2989Y3851D01*
X2994Y3843D01*
X3003Y3837D01*
X3007Y3836D01*
X3014Y3826D01*
X3015Y3823D01*
X3012Y3810D01*
X3015Y3795D01*
X3023Y3783D01*
X3032Y3777D01*
X3031Y3768D01*
X3030Y3764D01*
X3018Y3756D01*
X3010Y3743D01*
X3007Y3729D01*
X3010Y3714D01*
X3018Y3702D01*
X3029Y3694D01*
X3029Y3687D01*
X3028Y3681D01*
X3023Y3680D01*
X3011Y3672D01*
X3002Y3660D01*
X3001Y3654D01*
X2987Y3650D01*
X2963Y3674D01*
X2955Y3679D01*
X2946Y3681D01*
X2940D01*
X2927Y3694D01*
Y3701D01*
X2925Y3710D01*
X2920Y3717D01*
X2895Y3742D01*
X2896Y3755D01*
X2900Y3757D01*
X2908Y3770D01*
X2911Y3785D01*
X2910Y3790D01*
X2975Y3855D01*
X2989Y3851D01*
D02*
G37*
%LPC*%
G36*
X5845Y3937D02*
X5835Y3935D01*
X5826Y3930D01*
X5821Y3921D01*
X5819Y3912D01*
X5821Y3902D01*
X5826Y3893D01*
X5835Y3888D01*
X5845Y3886D01*
X5854Y3888D01*
X5863Y3893D01*
X5868Y3902D01*
X5870Y3912D01*
X5868Y3921D01*
X5863Y3930D01*
X5854Y3935D01*
X5845Y3937D01*
D02*
G37*
G36*
X5626Y3922D02*
X5616Y3920D01*
X5608Y3914D01*
X5602Y3906D01*
X5600Y3896D01*
X5602Y3887D01*
X5608Y3878D01*
X5616Y3873D01*
X5626Y3871D01*
X5636Y3873D01*
X5644Y3878D01*
X5650Y3887D01*
X5652Y3896D01*
X5650Y3906D01*
X5644Y3914D01*
X5636Y3920D01*
X5626Y3922D01*
D02*
G37*
G36*
X2840Y4046D02*
X2830Y4045D01*
X2822Y4039D01*
X2816Y4031D01*
X2814Y4021D01*
X2816Y4011D01*
X2822Y4003D01*
X2830Y3997D01*
X2840Y3995D01*
X2850Y3997D01*
X2858Y4003D01*
X2863Y4011D01*
X2865Y4021D01*
X2863Y4031D01*
X2858Y4039D01*
X2850Y4045D01*
X2840Y4046D01*
D02*
G37*
G36*
X5865Y4183D02*
X5654D01*
X5651Y4181D01*
Y3970D01*
X5865D01*
Y4183D01*
D02*
G37*
G36*
X2934Y3973D02*
X2924Y3971D01*
X2916Y3965D01*
X2910Y3957D01*
X2908Y3947D01*
X2910Y3937D01*
X2916Y3929D01*
X2924Y3923D01*
X2934Y3922D01*
X2944Y3923D01*
X2952Y3929D01*
X2957Y3937D01*
X2959Y3947D01*
X2957Y3957D01*
X2952Y3965D01*
X2944Y3971D01*
X2934Y3973D01*
D02*
G37*
G36*
X5806Y3810D02*
X5797Y3808D01*
X5788Y3803D01*
X5783Y3794D01*
X5781Y3786D01*
X5781Y3785D01*
X5775Y3777D01*
X5471D01*
X5466Y3772D01*
Y3452D01*
X5772Y3452D01*
X5781Y3452D01*
X5784Y3454D01*
X5783Y3455D01*
X5783Y3464D01*
Y3755D01*
X5796Y3761D01*
X5797Y3761D01*
X5806Y3759D01*
X5816Y3761D01*
X5825Y3766D01*
X5830Y3775D01*
X5832Y3785D01*
X5830Y3794D01*
X5825Y3803D01*
X5816Y3808D01*
X5806Y3810D01*
D02*
G37*
G36*
X4448Y3787D02*
X4438Y3785D01*
X4429Y3780D01*
X4424Y3772D01*
X4422Y3762D01*
X4424Y3752D01*
X4429Y3744D01*
X4438Y3738D01*
X4448Y3736D01*
X4457Y3738D01*
X4466Y3744D01*
X4471Y3752D01*
X4473Y3762D01*
X4471Y3772D01*
X4466Y3780D01*
X4457Y3785D01*
X4448Y3787D01*
D02*
G37*
G36*
X3419Y3795D02*
X3409Y3793D01*
X3401Y3787D01*
X3395Y3779D01*
X3393Y3769D01*
X3395Y3760D01*
X3401Y3751D01*
X3409Y3746D01*
X3419Y3744D01*
X3429Y3746D01*
X3437Y3751D01*
X3443Y3760D01*
X3444Y3769D01*
X3443Y3779D01*
X3437Y3787D01*
X3429Y3793D01*
X3419Y3795D01*
D02*
G37*
G36*
X3678Y3892D02*
X3668Y3890D01*
X3660Y3884D01*
X3654Y3876D01*
X3652Y3866D01*
X3654Y3856D01*
X3660Y3848D01*
X3668Y3842D01*
X3678Y3840D01*
X3688Y3842D01*
X3696Y3848D01*
X3702Y3856D01*
X3704Y3866D01*
X3702Y3876D01*
X3696Y3884D01*
X3688Y3890D01*
X3678Y3892D01*
D02*
G37*
G36*
X4699Y3859D02*
X4689Y3857D01*
X4681Y3851D01*
X4675Y3843D01*
X4673Y3833D01*
X4675Y3823D01*
X4681Y3815D01*
X4689Y3809D01*
X4699Y3807D01*
X4709Y3809D01*
X4717Y3815D01*
X4723Y3823D01*
X4725Y3833D01*
X4723Y3843D01*
X4717Y3851D01*
X4709Y3857D01*
X4699Y3859D01*
D02*
G37*
G36*
X5908Y3785D02*
X5898Y3783D01*
X5890Y3777D01*
X5884Y3769D01*
X5882Y3759D01*
X5884Y3749D01*
X5890Y3741D01*
X5898Y3735D01*
X5908Y3734D01*
X5918Y3735D01*
X5926Y3741D01*
X5932Y3749D01*
X5934Y3759D01*
X5932Y3769D01*
X5926Y3777D01*
X5918Y3783D01*
X5908Y3785D01*
D02*
G37*
G36*
X4498Y4217D02*
X4489Y4215D01*
X4480Y4209D01*
X4475Y4201D01*
X4473Y4191D01*
X4475Y4181D01*
X4480Y4173D01*
X4489Y4167D01*
X4498Y4165D01*
X4508Y4167D01*
X4516Y4173D01*
X4522Y4181D01*
X4524Y4191D01*
X4522Y4201D01*
X4516Y4209D01*
X4508Y4215D01*
X4498Y4217D01*
D02*
G37*
G36*
X3266Y4204D02*
X3257Y4202D01*
X3248Y4196D01*
X3243Y4188D01*
X3241Y4178D01*
X3243Y4168D01*
X3248Y4160D01*
X3257Y4155D01*
X3266Y4153D01*
X3276Y4155D01*
X3285Y4160D01*
X3290Y4168D01*
X3292Y4178D01*
X3290Y4188D01*
X3285Y4196D01*
X3276Y4202D01*
X3266Y4204D01*
D02*
G37*
G36*
X4295Y4166D02*
X4285Y4164D01*
X4277Y4158D01*
X4271Y4150D01*
X4269Y4140D01*
X4271Y4130D01*
X4277Y4122D01*
X4285Y4117D01*
X4295Y4115D01*
X4305Y4117D01*
X4313Y4122D01*
X4319Y4130D01*
X4321Y4140D01*
X4319Y4150D01*
X4313Y4158D01*
X4305Y4164D01*
X4295Y4166D01*
D02*
G37*
G36*
X5260Y4217D02*
X5251Y4215D01*
X5242Y4209D01*
X5237Y4201D01*
X5235Y4191D01*
X5237Y4181D01*
X5242Y4173D01*
X5251Y4167D01*
X5260Y4165D01*
X5270Y4167D01*
X5278Y4173D01*
X5284Y4181D01*
X5286Y4191D01*
X5284Y4201D01*
X5278Y4209D01*
X5270Y4215D01*
X5260Y4217D01*
D02*
G37*
G36*
X4905Y4255D02*
X4895Y4253D01*
X4887Y4247D01*
X4881Y4239D01*
X4879Y4229D01*
X4881Y4219D01*
X4887Y4211D01*
X4895Y4205D01*
X4905Y4203D01*
X4915Y4205D01*
X4923Y4211D01*
X4928Y4219D01*
X4930Y4229D01*
X4928Y4239D01*
X4923Y4247D01*
X4915Y4253D01*
X4905Y4255D01*
D02*
G37*
G36*
X3312Y4252D02*
X3302Y4250D01*
X3294Y4245D01*
X3288Y4236D01*
X3287Y4227D01*
X3288Y4217D01*
X3294Y4208D01*
X3302Y4203D01*
X3312Y4201D01*
X3322Y4203D01*
X3330Y4208D01*
X3336Y4217D01*
X3338Y4227D01*
X3336Y4236D01*
X3330Y4245D01*
X3322Y4250D01*
X3312Y4252D01*
D02*
G37*
G36*
X3559Y4242D02*
X3549Y4240D01*
X3540Y4235D01*
X3535Y4226D01*
X3533Y4216D01*
X3535Y4207D01*
X3540Y4198D01*
X3549Y4193D01*
X3559Y4191D01*
X3568Y4193D01*
X3577Y4198D01*
X3582Y4207D01*
X3584Y4216D01*
X3582Y4226D01*
X3577Y4235D01*
X3568Y4240D01*
X3559Y4242D01*
D02*
G37*
G36*
X4061Y4161D02*
X4052Y4159D01*
X4043Y4153D01*
X4038Y4145D01*
X4036Y4135D01*
X4038Y4125D01*
X4043Y4117D01*
X4052Y4111D01*
X4061Y4109D01*
X4071Y4111D01*
X4080Y4117D01*
X4085Y4125D01*
X4087Y4135D01*
X4085Y4145D01*
X4080Y4153D01*
X4071Y4159D01*
X4061Y4161D01*
D02*
G37*
G36*
X3353Y4138D02*
X3343Y4136D01*
X3335Y4130D01*
X3329Y4122D01*
X3327Y4112D01*
X3329Y4102D01*
X3335Y4094D01*
X3343Y4089D01*
X3353Y4087D01*
X3363Y4089D01*
X3371Y4094D01*
X3376Y4102D01*
X3378Y4112D01*
X3376Y4122D01*
X3371Y4130D01*
X3363Y4136D01*
X3353Y4138D01*
D02*
G37*
G36*
X3170Y4129D02*
X3151Y4125D01*
X3135Y4114D01*
X3125Y4098D01*
X3121Y4080D01*
X3125Y4061D01*
X3135Y4045D01*
X3151Y4035D01*
X3170Y4031D01*
X3189Y4035D01*
X3205Y4045D01*
X3215Y4061D01*
X3219Y4080D01*
X3215Y4098D01*
X3205Y4114D01*
X3189Y4125D01*
X3170Y4129D01*
D02*
G37*
G36*
X3051Y4064D02*
X3041Y4062D01*
X3032Y4057D01*
X3027Y4048D01*
X3025Y4039D01*
X3027Y4029D01*
X3032Y4020D01*
X3041Y4015D01*
X3051Y4013D01*
X3060Y4015D01*
X3069Y4020D01*
X3074Y4029D01*
X3076Y4039D01*
X3074Y4048D01*
X3069Y4057D01*
X3060Y4062D01*
X3051Y4064D01*
D02*
G37*
G36*
X4740Y4140D02*
X4730Y4138D01*
X4722Y4133D01*
X4716Y4125D01*
X4714Y4115D01*
X4716Y4105D01*
X4722Y4097D01*
X4730Y4091D01*
X4740Y4089D01*
X4749Y4091D01*
X4758Y4097D01*
X4763Y4105D01*
X4765Y4115D01*
X4763Y4125D01*
X4758Y4133D01*
X4749Y4138D01*
X4740Y4140D01*
D02*
G37*
G36*
X4557Y4148D02*
X4547Y4146D01*
X4539Y4141D01*
X4533Y4132D01*
X4531Y4122D01*
X4533Y4113D01*
X4539Y4104D01*
X4547Y4099D01*
X4557Y4097D01*
X4567Y4099D01*
X4575Y4104D01*
X4580Y4113D01*
X4582Y4122D01*
X4580Y4132D01*
X4575Y4141D01*
X4567Y4146D01*
X4557Y4148D01*
D02*
G37*
G36*
X5057Y4140D02*
X5047Y4138D01*
X5039Y4133D01*
X5033Y4125D01*
X5031Y4115D01*
X5033Y4105D01*
X5039Y4097D01*
X5047Y4091D01*
X5057Y4089D01*
X5067Y4091D01*
X5075Y4097D01*
X5081Y4105D01*
X5083Y4115D01*
X5081Y4125D01*
X5075Y4133D01*
X5067Y4138D01*
X5057Y4140D01*
D02*
G37*
G36*
X4905D02*
X4895Y4138D01*
X4887Y4133D01*
X4881Y4125D01*
X4879Y4115D01*
X4881Y4105D01*
X4887Y4097D01*
X4895Y4091D01*
X4905Y4089D01*
X4915Y4091D01*
X4923Y4097D01*
X4928Y4105D01*
X4930Y4115D01*
X4928Y4125D01*
X4923Y4133D01*
X4915Y4138D01*
X4905Y4140D01*
D02*
G37*
G36*
X4625Y3328D02*
X4616Y3326D01*
X4607Y3320D01*
X4602Y3312D01*
X4600Y3302D01*
X4602Y3292D01*
X4607Y3284D01*
X4616Y3278D01*
X4625Y3276D01*
X4635Y3278D01*
X4643Y3284D01*
X4649Y3292D01*
X4651Y3302D01*
X4649Y3312D01*
X4643Y3320D01*
X4635Y3326D01*
X4625Y3328D01*
D02*
G37*
G36*
X4067Y3323D02*
X4057Y3321D01*
X4048Y3315D01*
X4043Y3307D01*
X4041Y3297D01*
X4043Y3287D01*
X4048Y3279D01*
X4057Y3273D01*
X4067Y3271D01*
X4076Y3273D01*
X4085Y3279D01*
X4090Y3287D01*
X4092Y3297D01*
X4090Y3307D01*
X4085Y3315D01*
X4076Y3321D01*
X4067Y3323D01*
D02*
G37*
G36*
X4275Y3282D02*
X4265Y3280D01*
X4257Y3274D01*
X4253Y3269D01*
X4243Y3267D01*
X4238Y3267D01*
X4237Y3269D01*
X4229Y3275D01*
X4219Y3277D01*
X4209Y3275D01*
X4201Y3269D01*
X4195Y3261D01*
X4193Y3251D01*
X4195Y3241D01*
X4201Y3233D01*
X4209Y3228D01*
X4219Y3226D01*
X4229Y3228D01*
X4237Y3233D01*
X4241Y3239D01*
X4251Y3241D01*
X4255Y3240D01*
X4257Y3238D01*
X4265Y3233D01*
X4275Y3231D01*
X4285Y3233D01*
X4293Y3238D01*
X4299Y3246D01*
X4300Y3256D01*
X4299Y3266D01*
X4293Y3274D01*
X4285Y3280D01*
X4275Y3282D01*
D02*
G37*
G36*
X5095Y3340D02*
X5085Y3338D01*
X5077Y3333D01*
X5072Y3325D01*
X5070Y3315D01*
X5072Y3305D01*
X5077Y3297D01*
X5085Y3291D01*
X5095Y3289D01*
X5105Y3291D01*
X5113Y3297D01*
X5119Y3305D01*
X5121Y3315D01*
X5119Y3325D01*
X5113Y3333D01*
X5105Y3338D01*
X5095Y3340D01*
D02*
G37*
G36*
X4493Y3386D02*
X4483Y3384D01*
X4475Y3379D01*
X4470Y3370D01*
X4468Y3360D01*
X4470Y3351D01*
X4475Y3342D01*
X4483Y3337D01*
X4493Y3335D01*
X4503Y3337D01*
X4511Y3342D01*
X4517Y3351D01*
X4519Y3360D01*
X4517Y3370D01*
X4511Y3379D01*
X4503Y3384D01*
X4493Y3386D01*
D02*
G37*
G36*
X4016Y3378D02*
X4006Y3376D01*
X3998Y3371D01*
X3992Y3363D01*
X3990Y3353D01*
X3992Y3343D01*
X3998Y3335D01*
X4006Y3329D01*
X4016Y3327D01*
X4026Y3329D01*
X4034Y3335D01*
X4039Y3343D01*
X4041Y3353D01*
X4039Y3363D01*
X4034Y3371D01*
X4026Y3376D01*
X4016Y3378D01*
D02*
G37*
G36*
X3846Y3366D02*
X3836Y3364D01*
X3827Y3358D01*
X3822Y3350D01*
X3820Y3340D01*
X3822Y3330D01*
X3827Y3322D01*
X3836Y3316D01*
X3846Y3314D01*
X3855Y3316D01*
X3864Y3322D01*
X3869Y3330D01*
X3871Y3340D01*
X3869Y3350D01*
X3864Y3358D01*
X3855Y3364D01*
X3846Y3366D01*
D02*
G37*
G36*
X4813Y3216D02*
X4803Y3214D01*
X4795Y3208D01*
X4790Y3200D01*
X4788Y3190D01*
X4790Y3180D01*
X4795Y3172D01*
X4803Y3167D01*
X4813Y3165D01*
X4823Y3167D01*
X4831Y3172D01*
X4837Y3180D01*
X4839Y3190D01*
X4837Y3200D01*
X4831Y3208D01*
X4823Y3214D01*
X4813Y3216D01*
D02*
G37*
G36*
X4768Y3150D02*
X4758Y3148D01*
X4749Y3142D01*
X4744Y3134D01*
X4742Y3124D01*
X4744Y3114D01*
X4749Y3106D01*
X4758Y3100D01*
X4768Y3099D01*
X4777Y3100D01*
X4786Y3106D01*
X4791Y3114D01*
X4793Y3124D01*
X4791Y3134D01*
X4786Y3142D01*
X4777Y3148D01*
X4768Y3150D01*
D02*
G37*
G36*
X4460Y2997D02*
X4450Y2995D01*
X4442Y2990D01*
X4437Y2982D01*
X4435Y2972D01*
X4437Y2962D01*
X4442Y2954D01*
X4450Y2948D01*
X4460Y2946D01*
X4470Y2948D01*
X4478Y2954D01*
X4484Y2962D01*
X4486Y2972D01*
X4484Y2982D01*
X4478Y2990D01*
X4470Y2995D01*
X4460Y2997D01*
D02*
G37*
G36*
X4793Y3277D02*
X4783Y3275D01*
X4775Y3269D01*
X4769Y3261D01*
X4767Y3251D01*
X4769Y3241D01*
X4775Y3233D01*
X4783Y3228D01*
X4793Y3226D01*
X4803Y3228D01*
X4811Y3233D01*
X4817Y3241D01*
X4819Y3251D01*
X4817Y3261D01*
X4811Y3269D01*
X4803Y3275D01*
X4793Y3277D01*
D02*
G37*
G36*
X3965Y3315D02*
X3955Y3313D01*
X3947Y3307D01*
X3941Y3299D01*
X3939Y3289D01*
X3941Y3279D01*
X3947Y3271D01*
X3955Y3266D01*
X3965Y3264D01*
X3975Y3266D01*
X3983Y3271D01*
X3989Y3279D01*
X3991Y3289D01*
X3989Y3299D01*
X3983Y3307D01*
X3975Y3313D01*
X3965Y3315D01*
D02*
G37*
G36*
X5146Y3302D02*
X5136Y3300D01*
X5128Y3295D01*
X5122Y3286D01*
X5120Y3277D01*
X5122Y3267D01*
X5128Y3258D01*
X5136Y3253D01*
X5146Y3251D01*
X5156Y3253D01*
X5164Y3258D01*
X5170Y3267D01*
X5172Y3277D01*
X5170Y3286D01*
X5164Y3295D01*
X5156Y3300D01*
X5146Y3302D01*
D02*
G37*
G36*
X4994D02*
X4984Y3300D01*
X4976Y3295D01*
X4970Y3286D01*
X4968Y3277D01*
X4970Y3267D01*
X4976Y3258D01*
X4984Y3253D01*
X4994Y3251D01*
X5003Y3253D01*
X5012Y3258D01*
X5017Y3267D01*
X5019Y3277D01*
X5017Y3286D01*
X5012Y3295D01*
X5003Y3300D01*
X4994Y3302D01*
D02*
G37*
G36*
X4803Y3396D02*
X4793Y3394D01*
X4785Y3388D01*
X4779Y3380D01*
X4777Y3370D01*
X4779Y3360D01*
X4785Y3352D01*
X4793Y3346D01*
X4803Y3344D01*
X4813Y3346D01*
X4821Y3352D01*
X4827Y3360D01*
X4829Y3370D01*
X4827Y3380D01*
X4821Y3388D01*
X4813Y3394D01*
X4803Y3396D01*
D02*
G37*
G36*
X3711Y3640D02*
X3696Y3637D01*
X3684Y3629D01*
X3675Y3616D01*
X3673Y3602D01*
X3675Y3587D01*
X3684Y3575D01*
X3696Y3566D01*
X3711Y3563D01*
X3716Y3564D01*
X3829Y3451D01*
X3837Y3446D01*
X3846Y3444D01*
X3973D01*
X3976Y3440D01*
X3988Y3432D01*
X4003Y3429D01*
X4018Y3432D01*
X4030Y3440D01*
X4039Y3452D01*
X4041Y3467D01*
X4039Y3482D01*
X4030Y3494D01*
X4018Y3503D01*
X4003Y3505D01*
X3988Y3503D01*
X3976Y3494D01*
X3973Y3490D01*
X3855D01*
X3748Y3597D01*
X3749Y3602D01*
X3746Y3616D01*
X3738Y3629D01*
X3726Y3637D01*
X3711Y3640D01*
D02*
G37*
G36*
X5044Y3467D02*
X5035Y3465D01*
X5026Y3460D01*
X5021Y3452D01*
X5019Y3442D01*
X5021Y3432D01*
X5026Y3424D01*
X5035Y3418D01*
X5044Y3416D01*
X5054Y3418D01*
X5063Y3424D01*
X5068Y3432D01*
X5070Y3442D01*
X5068Y3452D01*
X5063Y3460D01*
X5054Y3465D01*
X5044Y3467D01*
D02*
G37*
G36*
X4498D02*
X4489Y3465D01*
X4480Y3460D01*
X4475Y3452D01*
X4473Y3442D01*
X4475Y3432D01*
X4480Y3424D01*
X4489Y3418D01*
X4498Y3416D01*
X4508Y3418D01*
X4516Y3424D01*
X4522Y3432D01*
X4524Y3442D01*
X4522Y3452D01*
X4516Y3460D01*
X4508Y3465D01*
X4498Y3467D01*
D02*
G37*
G36*
X4600Y3480D02*
X4590Y3478D01*
X4582Y3473D01*
X4576Y3464D01*
X4574Y3454D01*
X4576Y3445D01*
X4582Y3436D01*
X4590Y3431D01*
X4600Y3429D01*
X4610Y3431D01*
X4618Y3436D01*
X4624Y3445D01*
X4626Y3454D01*
X4624Y3464D01*
X4618Y3473D01*
X4610Y3478D01*
X4600Y3480D01*
D02*
G37*
G36*
X5298Y3683D02*
X5289Y3681D01*
X5280Y3676D01*
X5275Y3667D01*
X5273Y3658D01*
X5275Y3648D01*
X5280Y3639D01*
X5289Y3634D01*
X5298Y3632D01*
X5308Y3634D01*
X5317Y3639D01*
X5322Y3648D01*
X5324Y3658D01*
X5322Y3667D01*
X5317Y3676D01*
X5308Y3681D01*
X5298Y3683D01*
D02*
G37*
G36*
X3665Y3541D02*
X3655Y3539D01*
X3647Y3533D01*
X3642Y3525D01*
X3640Y3515D01*
X3642Y3506D01*
X3647Y3497D01*
X3655Y3492D01*
X3665Y3490D01*
X3675Y3492D01*
X3683Y3497D01*
X3689Y3506D01*
X3691Y3515D01*
X3689Y3525D01*
X3683Y3533D01*
X3675Y3539D01*
X3665Y3541D01*
D02*
G37*
G36*
X5883Y3531D02*
X5873Y3529D01*
X5865Y3523D01*
X5859Y3515D01*
X5857Y3505D01*
X5859Y3495D01*
X5865Y3487D01*
X5873Y3481D01*
X5883Y3480D01*
X5892Y3481D01*
X5901Y3487D01*
X5906Y3495D01*
X5908Y3505D01*
X5906Y3515D01*
X5901Y3523D01*
X5892Y3529D01*
X5883Y3531D01*
D02*
G37*
G36*
X3696Y3422D02*
X3686Y3420D01*
X3678Y3414D01*
X3672Y3406D01*
X3670Y3396D01*
X3672Y3386D01*
X3678Y3378D01*
X3686Y3372D01*
X3696Y3370D01*
X3706Y3372D01*
X3714Y3378D01*
X3719Y3386D01*
X3721Y3396D01*
X3719Y3406D01*
X3714Y3414D01*
X3706Y3420D01*
X3696Y3422D01*
D02*
G37*
G36*
X4600Y3417D02*
X4590Y3415D01*
X4582Y3409D01*
X4576Y3401D01*
X4574Y3391D01*
X4576Y3381D01*
X4582Y3373D01*
X4590Y3367D01*
X4600Y3365D01*
X4610Y3367D01*
X4618Y3373D01*
X4624Y3381D01*
X4626Y3391D01*
X4624Y3401D01*
X4618Y3409D01*
X4610Y3415D01*
X4600Y3417D01*
D02*
G37*
G36*
X3901Y3404D02*
X3892Y3402D01*
X3883Y3396D01*
X3878Y3388D01*
X3876Y3378D01*
X3878Y3368D01*
X3883Y3360D01*
X3892Y3354D01*
X3901Y3353D01*
X3911Y3354D01*
X3920Y3360D01*
X3925Y3368D01*
X3927Y3378D01*
X3925Y3388D01*
X3920Y3396D01*
X3911Y3402D01*
X3901Y3404D01*
D02*
G37*
G36*
X4729Y3424D02*
X4720Y3422D01*
X4711Y3417D01*
X4706Y3408D01*
X4704Y3399D01*
X4706Y3389D01*
X4711Y3380D01*
X4720Y3375D01*
X4729Y3373D01*
X4739Y3375D01*
X4748Y3380D01*
X4753Y3389D01*
X4755Y3399D01*
X4753Y3408D01*
X4748Y3417D01*
X4739Y3422D01*
X4729Y3424D01*
D02*
G37*
G36*
X4333Y3442D02*
X4323Y3440D01*
X4315Y3434D01*
X4310Y3426D01*
X4308Y3416D01*
X4310Y3406D01*
X4315Y3398D01*
X4323Y3393D01*
X4333Y3391D01*
X4343Y3393D01*
X4351Y3398D01*
X4357Y3406D01*
X4359Y3416D01*
X4357Y3426D01*
X4351Y3434D01*
X4343Y3440D01*
X4333Y3442D01*
D02*
G37*
G36*
X4860Y3437D02*
X4850Y3435D01*
X4842Y3429D01*
X4836Y3421D01*
X4834Y3411D01*
X4836Y3401D01*
X4842Y3393D01*
X4850Y3388D01*
X4860Y3386D01*
X4870Y3388D01*
X4878Y3393D01*
X4884Y3401D01*
X4886Y3411D01*
X4884Y3421D01*
X4878Y3429D01*
X4870Y3435D01*
X4860Y3437D01*
D02*
G37*
G36*
X4397Y3429D02*
X4387Y3427D01*
X4379Y3422D01*
X4373Y3413D01*
X4371Y3404D01*
X4373Y3394D01*
X4379Y3385D01*
X4387Y3380D01*
X4397Y3378D01*
X4407Y3380D01*
X4415Y3385D01*
X4420Y3394D01*
X4422Y3404D01*
X4420Y3413D01*
X4415Y3422D01*
X4407Y3427D01*
X4397Y3429D01*
D02*
G37*
G36*
X4615Y4356D02*
X4602Y4354D01*
X4590Y4346D01*
X4582Y4334D01*
X4579Y4321D01*
X4582Y4307D01*
X4586Y4301D01*
X4581Y4287D01*
X4581Y4287D01*
X4570Y4280D01*
X4562Y4268D01*
X4559Y4254D01*
X4562Y4241D01*
X4570Y4229D01*
X4581Y4222D01*
X4595Y4219D01*
X4609Y4222D01*
X4620Y4229D01*
X4628Y4241D01*
X4631Y4254D01*
X4628Y4268D01*
X4624Y4274D01*
X4629Y4288D01*
X4629Y4288D01*
X4640Y4295D01*
X4648Y4307D01*
X4651Y4321D01*
X4648Y4334D01*
X4640Y4346D01*
X4629Y4354D01*
X4615Y4356D01*
D02*
G37*
G36*
X5349Y5385D02*
X5339Y5383D01*
X5331Y5378D01*
X5326Y5369D01*
X5324Y5359D01*
X5326Y5350D01*
X5331Y5341D01*
X5339Y5336D01*
X5349Y5334D01*
X5359Y5336D01*
X5367Y5341D01*
X5373Y5350D01*
X5375Y5359D01*
X5373Y5369D01*
X5367Y5378D01*
X5359Y5383D01*
X5349Y5385D01*
D02*
G37*
G36*
X5527Y5360D02*
X5517Y5358D01*
X5509Y5352D01*
X5503Y5344D01*
X5501Y5334D01*
X5503Y5324D01*
X5509Y5316D01*
X5517Y5310D01*
X5527Y5308D01*
X5537Y5310D01*
X5545Y5316D01*
X5551Y5324D01*
X5553Y5334D01*
X5551Y5344D01*
X5545Y5352D01*
X5537Y5358D01*
X5527Y5360D01*
D02*
G37*
G36*
X3899Y5349D02*
X3889Y5348D01*
X3881Y5342D01*
X3875Y5334D01*
X3873Y5324D01*
X3875Y5314D01*
X3881Y5306D01*
X3889Y5300D01*
X3899Y5298D01*
X3909Y5300D01*
X3917Y5306D01*
X3923Y5314D01*
X3925Y5324D01*
X3923Y5334D01*
X3917Y5342D01*
X3909Y5348D01*
X3899Y5349D01*
D02*
G37*
G36*
X5667Y5487D02*
X5652Y5484D01*
X5640Y5475D01*
X5631Y5463D01*
X5628Y5448D01*
X5631Y5434D01*
X5640Y5421D01*
X5652Y5413D01*
X5667Y5410D01*
X5681Y5413D01*
X5694Y5421D01*
X5702Y5434D01*
X5705Y5448D01*
X5702Y5463D01*
X5694Y5475D01*
X5681Y5484D01*
X5667Y5487D01*
D02*
G37*
G36*
X5527Y5436D02*
X5517Y5434D01*
X5509Y5428D01*
X5503Y5420D01*
X5501Y5410D01*
X5503Y5400D01*
X5509Y5392D01*
X5517Y5387D01*
X5527Y5385D01*
X5537Y5387D01*
X5545Y5392D01*
X5551Y5400D01*
X5553Y5410D01*
X5551Y5420D01*
X5545Y5428D01*
X5537Y5434D01*
X5527Y5436D01*
D02*
G37*
G36*
X5090Y5403D02*
X5080Y5401D01*
X5072Y5395D01*
X5066Y5387D01*
X5065Y5377D01*
X5066Y5367D01*
X5072Y5359D01*
X5080Y5353D01*
X5090Y5352D01*
X5100Y5353D01*
X5108Y5359D01*
X5114Y5367D01*
X5116Y5377D01*
X5114Y5387D01*
X5108Y5395D01*
X5100Y5401D01*
X5090Y5403D01*
D02*
G37*
G36*
X2939Y5319D02*
X2868D01*
Y5248D01*
X2939D01*
Y5319D01*
D02*
G37*
G36*
X2873Y5106D02*
X2863Y5104D01*
X2855Y5098D01*
X2849Y5090D01*
X2847Y5080D01*
X2849Y5070D01*
X2855Y5062D01*
X2863Y5056D01*
X2873Y5054D01*
X2883Y5056D01*
X2891Y5062D01*
X2896Y5070D01*
X2898Y5080D01*
X2896Y5090D01*
X2891Y5098D01*
X2883Y5104D01*
X2873Y5106D01*
D02*
G37*
G36*
X3736Y5017D02*
X3727Y5015D01*
X3718Y5009D01*
X3713Y5001D01*
X3711Y4991D01*
X3713Y4981D01*
X3718Y4973D01*
X3727Y4967D01*
X3736Y4965D01*
X3746Y4967D01*
X3754Y4973D01*
X3760Y4981D01*
X3762Y4991D01*
X3760Y5001D01*
X3754Y5009D01*
X3746Y5015D01*
X3736Y5017D01*
D02*
G37*
G36*
X4737Y4999D02*
X4727Y4997D01*
X4719Y4991D01*
X4713Y4983D01*
X4711Y4973D01*
X4713Y4964D01*
X4719Y4955D01*
X4727Y4950D01*
X4737Y4948D01*
X4747Y4950D01*
X4755Y4955D01*
X4761Y4964D01*
X4763Y4973D01*
X4761Y4983D01*
X4755Y4991D01*
X4747Y4997D01*
X4737Y4999D01*
D02*
G37*
G36*
X5210Y5296D02*
X5200Y5294D01*
X5191Y5289D01*
X5186Y5280D01*
X5184Y5271D01*
X5186Y5261D01*
X5191Y5252D01*
X5200Y5247D01*
X5210Y5245D01*
X5219Y5247D01*
X5228Y5252D01*
X5233Y5261D01*
X5235Y5271D01*
X5233Y5280D01*
X5228Y5289D01*
X5219Y5294D01*
X5210Y5296D01*
D02*
G37*
G36*
X5705Y5271D02*
X5695Y5269D01*
X5687Y5263D01*
X5681Y5255D01*
X5679Y5245D01*
X5681Y5235D01*
X5687Y5227D01*
X5695Y5221D01*
X5705Y5219D01*
X5715Y5221D01*
X5723Y5227D01*
X5729Y5235D01*
X5730Y5245D01*
X5729Y5255D01*
X5723Y5263D01*
X5715Y5269D01*
X5705Y5271D01*
D02*
G37*
G36*
X2936Y5156D02*
X2926Y5154D01*
X2918Y5149D01*
X2913Y5141D01*
X2911Y5131D01*
X2913Y5121D01*
X2918Y5113D01*
X2926Y5107D01*
X2936Y5105D01*
X2946Y5107D01*
X2954Y5113D01*
X2960Y5121D01*
X2962Y5131D01*
X2960Y5141D01*
X2954Y5149D01*
X2946Y5154D01*
X2936Y5156D01*
D02*
G37*
G36*
X4928Y5474D02*
X4918Y5472D01*
X4909Y5466D01*
X4904Y5458D01*
X4902Y5448D01*
X4904Y5438D01*
X4909Y5430D01*
X4918Y5425D01*
X4928Y5423D01*
X4937Y5425D01*
X4946Y5430D01*
X4951Y5438D01*
X4953Y5448D01*
X4951Y5458D01*
X4946Y5466D01*
X4937Y5472D01*
X4928Y5474D01*
D02*
G37*
G36*
X4232Y5690D02*
X4217Y5687D01*
X4204Y5679D01*
X4196Y5666D01*
X4193Y5651D01*
X4196Y5637D01*
X4204Y5624D01*
X4217Y5616D01*
X4232Y5613D01*
X4246Y5616D01*
X4259Y5624D01*
X4267Y5637D01*
X4270Y5651D01*
X4267Y5666D01*
X4259Y5679D01*
X4246Y5687D01*
X4232Y5690D01*
D02*
G37*
G36*
X3965Y5652D02*
X3955Y5650D01*
X3947Y5644D01*
X3941Y5636D01*
X3939Y5626D01*
X3941Y5616D01*
X3947Y5608D01*
X3955Y5602D01*
X3965Y5600D01*
X3975Y5602D01*
X3983Y5608D01*
X3989Y5616D01*
X3991Y5626D01*
X3989Y5636D01*
X3983Y5644D01*
X3975Y5650D01*
X3965Y5652D01*
D02*
G37*
G36*
X5806Y5639D02*
X5797Y5637D01*
X5788Y5632D01*
X5783Y5623D01*
X5781Y5613D01*
X5783Y5604D01*
X5788Y5595D01*
X5797Y5590D01*
X5806Y5588D01*
X5816Y5590D01*
X5825Y5595D01*
X5830Y5604D01*
X5832Y5613D01*
X5830Y5623D01*
X5825Y5632D01*
X5816Y5637D01*
X5806Y5639D01*
D02*
G37*
G36*
X3368Y6045D02*
X3358Y6044D01*
X3350Y6038D01*
X3344Y6030D01*
X3342Y6020D01*
X3344Y6010D01*
X3350Y6002D01*
X3358Y5996D01*
X3368Y5994D01*
X3378Y5996D01*
X3386Y6002D01*
X3392Y6010D01*
X3394Y6020D01*
X3392Y6030D01*
X3386Y6038D01*
X3378Y6044D01*
X3368Y6045D01*
D02*
G37*
G36*
X2791Y6149D02*
X2759Y6145D01*
X2728Y6132D01*
X2702Y6112D01*
X2682Y6086D01*
X2669Y6055D01*
X2665Y6022D01*
X2669Y5990D01*
X2682Y5959D01*
X2702Y5933D01*
X2728Y5913D01*
X2759Y5900D01*
X2791Y5896D01*
X2824Y5900D01*
X2855Y5913D01*
X2881Y5933D01*
X2901Y5959D01*
X2914Y5990D01*
X2918Y6022D01*
X2914Y6055D01*
X2901Y6086D01*
X2881Y6112D01*
X2855Y6132D01*
X2824Y6145D01*
X2791Y6149D01*
D02*
G37*
G36*
X3368Y5868D02*
X3358Y5866D01*
X3350Y5860D01*
X3344Y5852D01*
X3342Y5842D01*
X3344Y5832D01*
X3350Y5824D01*
X3358Y5818D01*
X3368Y5816D01*
X3378Y5818D01*
X3386Y5824D01*
X3392Y5832D01*
X3394Y5842D01*
X3392Y5852D01*
X3386Y5860D01*
X3378Y5866D01*
X3368Y5868D01*
D02*
G37*
G36*
X3889Y5601D02*
X3879Y5599D01*
X3871Y5593D01*
X3865Y5585D01*
X3863Y5575D01*
X3865Y5565D01*
X3871Y5557D01*
X3879Y5552D01*
X3889Y5550D01*
X3899Y5552D01*
X3907Y5557D01*
X3912Y5565D01*
X3914Y5575D01*
X3912Y5585D01*
X3907Y5593D01*
X3899Y5599D01*
X3889Y5601D01*
D02*
G37*
G36*
X3406Y5550D02*
X3396Y5548D01*
X3388Y5543D01*
X3382Y5534D01*
X3380Y5524D01*
X3382Y5515D01*
X3388Y5506D01*
X3396Y5501D01*
X3406Y5499D01*
X3416Y5501D01*
X3424Y5506D01*
X3430Y5515D01*
X3432Y5524D01*
X3430Y5534D01*
X3424Y5543D01*
X3416Y5548D01*
X3406Y5550D01*
D02*
G37*
G36*
X4702Y5563D02*
X4687Y5560D01*
X4674Y5552D01*
X4666Y5539D01*
X4663Y5524D01*
X4666Y5510D01*
X4674Y5497D01*
X4687Y5489D01*
X4702Y5486D01*
X4716Y5489D01*
X4729Y5497D01*
X4737Y5510D01*
X4740Y5524D01*
X4737Y5539D01*
X4729Y5552D01*
X4716Y5560D01*
X4702Y5563D01*
D02*
G37*
G36*
X5032Y5474D02*
X5022Y5472D01*
X5014Y5466D01*
X5008Y5458D01*
X5006Y5448D01*
X5008Y5438D01*
X5014Y5430D01*
X5022Y5425D01*
X5032Y5423D01*
X5042Y5425D01*
X5050Y5430D01*
X5055Y5438D01*
X5057Y5448D01*
X5055Y5458D01*
X5050Y5466D01*
X5042Y5472D01*
X5032Y5474D01*
D02*
G37*
G36*
X4851Y5576D02*
X4842Y5574D01*
X4833Y5568D01*
X4828Y5560D01*
X4826Y5550D01*
X4828Y5540D01*
X4833Y5532D01*
X4842Y5526D01*
X4851Y5524D01*
X4861Y5526D01*
X4870Y5532D01*
X4875Y5540D01*
X4877Y5550D01*
X4875Y5560D01*
X4870Y5568D01*
X4861Y5574D01*
X4851Y5576D01*
D02*
G37*
G36*
X3757Y5570D02*
X3747Y5569D01*
X3739Y5563D01*
X3733Y5555D01*
X3731Y5545D01*
X3733Y5535D01*
X3739Y5527D01*
X3747Y5521D01*
X3757Y5519D01*
X3766Y5521D01*
X3775Y5527D01*
X3780Y5535D01*
X3782Y5545D01*
X3780Y5555D01*
X3775Y5563D01*
X3766Y5569D01*
X3757Y5570D01*
D02*
G37*
G36*
X2898Y5563D02*
X2888Y5561D01*
X2880Y5555D01*
X2874Y5547D01*
X2872Y5537D01*
X2874Y5527D01*
X2880Y5519D01*
X2888Y5513D01*
X2898Y5512D01*
X2908Y5513D01*
X2916Y5519D01*
X2922Y5527D01*
X2924Y5537D01*
X2922Y5547D01*
X2916Y5555D01*
X2908Y5561D01*
X2898Y5563D01*
D02*
G37*
G36*
X3965Y4445D02*
X3955Y4443D01*
X3947Y4438D01*
X3941Y4429D01*
X3939Y4420D01*
X3941Y4410D01*
X3947Y4401D01*
X3955Y4396D01*
X3965Y4394D01*
X3975Y4396D01*
X3983Y4401D01*
X3989Y4410D01*
X3991Y4420D01*
X3989Y4429D01*
X3983Y4438D01*
X3975Y4443D01*
X3965Y4445D01*
D02*
G37*
G36*
X3089D02*
X3079Y4443D01*
X3071Y4438D01*
X3065Y4429D01*
X3063Y4420D01*
X3065Y4410D01*
X3071Y4401D01*
X3079Y4396D01*
X3089Y4394D01*
X3098Y4396D01*
X3107Y4401D01*
X3112Y4410D01*
X3114Y4420D01*
X3112Y4429D01*
X3107Y4438D01*
X3098Y4443D01*
X3089Y4445D01*
D02*
G37*
G36*
X3279Y4420D02*
X3269Y4418D01*
X3261Y4412D01*
X3255Y4404D01*
X3253Y4394D01*
X3255Y4384D01*
X3261Y4376D01*
X3269Y4371D01*
X3279Y4369D01*
X3289Y4371D01*
X3297Y4376D01*
X3303Y4384D01*
X3305Y4394D01*
X3303Y4404D01*
X3297Y4412D01*
X3289Y4418D01*
X3279Y4420D01*
D02*
G37*
G36*
X5451Y4458D02*
X5441Y4456D01*
X5433Y4450D01*
X5427Y4442D01*
X5425Y4432D01*
X5427Y4422D01*
X5433Y4414D01*
X5441Y4409D01*
X5451Y4407D01*
X5461Y4409D01*
X5469Y4414D01*
X5475Y4422D01*
X5476Y4432D01*
X5475Y4442D01*
X5469Y4450D01*
X5461Y4456D01*
X5451Y4458D01*
D02*
G37*
G36*
X3393D02*
X3384Y4456D01*
X3375Y4450D01*
X3370Y4442D01*
X3368Y4432D01*
X3370Y4422D01*
X3375Y4414D01*
X3384Y4409D01*
X3393Y4407D01*
X3403Y4409D01*
X3412Y4414D01*
X3417Y4422D01*
X3419Y4432D01*
X3417Y4442D01*
X3412Y4450D01*
X3403Y4456D01*
X3393Y4458D01*
D02*
G37*
G36*
X5387Y4445D02*
X5378Y4443D01*
X5369Y4438D01*
X5364Y4429D01*
X5362Y4420D01*
X5364Y4410D01*
X5369Y4401D01*
X5378Y4396D01*
X5387Y4394D01*
X5397Y4396D01*
X5405Y4401D01*
X5411Y4410D01*
X5413Y4420D01*
X5411Y4429D01*
X5405Y4438D01*
X5397Y4443D01*
X5387Y4445D01*
D02*
G37*
G36*
X4155Y4407D02*
X4146Y4405D01*
X4137Y4400D01*
X4132Y4391D01*
X4130Y4381D01*
X4132Y4372D01*
X4137Y4363D01*
X4146Y4358D01*
X4155Y4356D01*
X4165Y4358D01*
X4174Y4363D01*
X4179Y4372D01*
X4181Y4381D01*
X4179Y4391D01*
X4174Y4400D01*
X4165Y4405D01*
X4155Y4407D01*
D02*
G37*
G36*
X5878Y4288D02*
X5868Y4286D01*
X5860Y4281D01*
X5854Y4272D01*
X5852Y4263D01*
X5854Y4253D01*
X5860Y4244D01*
X5868Y4239D01*
X5878Y4237D01*
X5888Y4239D01*
X5896Y4244D01*
X5902Y4253D01*
X5903Y4263D01*
X5902Y4272D01*
X5896Y4281D01*
X5888Y4286D01*
X5878Y4288D01*
D02*
G37*
G36*
X4384Y4280D02*
X4374Y4278D01*
X4366Y4273D01*
X4360Y4264D01*
X4358Y4254D01*
X4360Y4245D01*
X4366Y4236D01*
X4374Y4231D01*
X4384Y4229D01*
X4394Y4231D01*
X4402Y4236D01*
X4408Y4245D01*
X4410Y4254D01*
X4408Y4264D01*
X4402Y4273D01*
X4394Y4278D01*
X4384Y4280D01*
D02*
G37*
G36*
X2936D02*
X2926Y4278D01*
X2918Y4273D01*
X2913Y4264D01*
X2911Y4254D01*
X2913Y4245D01*
X2918Y4236D01*
X2926Y4231D01*
X2936Y4229D01*
X2946Y4231D01*
X2954Y4236D01*
X2960Y4245D01*
X2962Y4254D01*
X2960Y4264D01*
X2954Y4273D01*
X2946Y4278D01*
X2936Y4280D01*
D02*
G37*
G36*
X3950Y4369D02*
X3940Y4367D01*
X3932Y4362D01*
X3926Y4353D01*
X3924Y4343D01*
X3926Y4334D01*
X3932Y4325D01*
X3940Y4320D01*
X3950Y4318D01*
X3960Y4320D01*
X3968Y4325D01*
X3973Y4334D01*
X3975Y4343D01*
X3973Y4353D01*
X3968Y4362D01*
X3960Y4367D01*
X3950Y4369D01*
D02*
G37*
G36*
X4905Y4331D02*
X4895Y4329D01*
X4887Y4323D01*
X4881Y4315D01*
X4879Y4305D01*
X4881Y4295D01*
X4887Y4287D01*
X4895Y4282D01*
X4905Y4280D01*
X4915Y4282D01*
X4923Y4287D01*
X4928Y4295D01*
X4930Y4305D01*
X4928Y4315D01*
X4923Y4323D01*
X4915Y4329D01*
X4905Y4331D01*
D02*
G37*
G36*
X4117Y4293D02*
X4108Y4291D01*
X4099Y4285D01*
X4094Y4277D01*
X4092Y4267D01*
X4094Y4257D01*
X4099Y4249D01*
X4108Y4244D01*
X4117Y4242D01*
X4127Y4244D01*
X4135Y4249D01*
X4141Y4257D01*
X4143Y4267D01*
X4141Y4277D01*
X4135Y4285D01*
X4127Y4291D01*
X4117Y4293D01*
D02*
G37*
G36*
X5502Y4521D02*
X5492Y4519D01*
X5484Y4514D01*
X5478Y4506D01*
X5476Y4496D01*
X5478Y4486D01*
X5484Y4478D01*
X5492Y4472D01*
X5502Y4470D01*
X5511Y4472D01*
X5520Y4478D01*
X5525Y4486D01*
X5527Y4496D01*
X5525Y4506D01*
X5520Y4514D01*
X5511Y4519D01*
X5502Y4521D01*
D02*
G37*
G36*
X3635Y4775D02*
X3625Y4774D01*
X3617Y4768D01*
X3611Y4760D01*
X3609Y4750D01*
X3611Y4740D01*
X3617Y4732D01*
X3625Y4726D01*
X3635Y4724D01*
X3645Y4726D01*
X3653Y4732D01*
X3658Y4740D01*
X3660Y4750D01*
X3658Y4760D01*
X3653Y4768D01*
X3645Y4774D01*
X3635Y4775D01*
D02*
G37*
G36*
X4067Y4763D02*
X4057Y4761D01*
X4048Y4755D01*
X4043Y4747D01*
X4041Y4737D01*
X4043Y4727D01*
X4048Y4719D01*
X4057Y4713D01*
X4067Y4711D01*
X4076Y4713D01*
X4085Y4719D01*
X4090Y4727D01*
X4092Y4737D01*
X4090Y4747D01*
X4085Y4755D01*
X4076Y4761D01*
X4067Y4763D01*
D02*
G37*
G36*
X3901Y4864D02*
X3887Y4861D01*
X3874Y4853D01*
X3866Y4841D01*
X3863Y4826D01*
X3866Y4811D01*
X3874Y4799D01*
X3887Y4791D01*
X3901Y4788D01*
X3916Y4791D01*
X3929Y4799D01*
X3937Y4811D01*
X3937Y4813D01*
X4162D01*
X4170Y4805D01*
X4171Y4799D01*
X4179Y4786D01*
X4192Y4778D01*
X4206Y4775D01*
X4208Y4773D01*
X4206Y4762D01*
X4207Y4758D01*
X4146Y4697D01*
X4021D01*
X4020Y4697D01*
X4013Y4702D01*
X4004Y4704D01*
X3967D01*
X3958Y4702D01*
X3957Y4702D01*
X3880Y4779D01*
X3872Y4784D01*
X3863Y4786D01*
X3754D01*
X3751Y4790D01*
X3738Y4798D01*
X3724Y4801D01*
X3709Y4798D01*
X3696Y4790D01*
X3688Y4777D01*
X3685Y4762D01*
X3688Y4748D01*
X3696Y4735D01*
X3709Y4727D01*
X3724Y4724D01*
X3738Y4727D01*
X3751Y4735D01*
X3754Y4739D01*
X3854D01*
X3936Y4657D01*
X3943Y4652D01*
X3951Y4651D01*
X3951Y4650D01*
X3953Y4649D01*
X3960Y4638D01*
X3960Y4635D01*
X3962Y4626D01*
X3967Y4617D01*
X3975Y4612D01*
X3985Y4610D01*
X3995Y4612D01*
X4003Y4617D01*
X4009Y4626D01*
X4011Y4635D01*
X4010Y4638D01*
X4019Y4650D01*
X4020Y4651D01*
X4155D01*
X4164Y4652D01*
X4172Y4657D01*
X4240Y4725D01*
X4244Y4724D01*
X4259Y4727D01*
X4271Y4735D01*
X4280Y4748D01*
X4283Y4762D01*
X4280Y4777D01*
X4271Y4790D01*
X4259Y4798D01*
X4244Y4801D01*
X4243Y4803D01*
X4245Y4813D01*
X4242Y4828D01*
X4233Y4840D01*
X4221Y4849D01*
X4206Y4852D01*
X4192Y4849D01*
X4191Y4848D01*
X4187Y4852D01*
X4180Y4857D01*
X4171Y4859D01*
X3920D01*
X3916Y4861D01*
X3901Y4864D01*
D02*
G37*
G36*
X3035Y4849D02*
X3025Y4847D01*
X3017Y4842D01*
X3012Y4833D01*
X3010Y4823D01*
X3012Y4814D01*
X3017Y4805D01*
X3025Y4800D01*
X3035Y4798D01*
X3045Y4800D01*
X3053Y4805D01*
X3059Y4814D01*
X3061Y4823D01*
X3059Y4833D01*
X3053Y4842D01*
X3045Y4847D01*
X3035Y4849D01*
D02*
G37*
G36*
X4575Y4991D02*
X4565Y4989D01*
X4556Y4984D01*
X4551Y4976D01*
X4549Y4966D01*
X4551Y4956D01*
X4556Y4948D01*
X4565Y4942D01*
X4575Y4940D01*
X4584Y4942D01*
X4593Y4948D01*
X4598Y4956D01*
X4600Y4966D01*
X4598Y4976D01*
X4593Y4984D01*
X4584Y4989D01*
X4575Y4991D01*
D02*
G37*
G36*
X5019Y4966D02*
X5009Y4964D01*
X5001Y4958D01*
X4995Y4950D01*
X4993Y4940D01*
X4995Y4930D01*
X5001Y4922D01*
X5009Y4917D01*
X5019Y4915D01*
X5029Y4917D01*
X5037Y4922D01*
X5043Y4930D01*
X5045Y4940D01*
X5043Y4950D01*
X5037Y4958D01*
X5029Y4964D01*
X5019Y4966D01*
D02*
G37*
G36*
X3238Y4928D02*
X3229Y4926D01*
X3220Y4920D01*
X3215Y4912D01*
X3213Y4902D01*
X3215Y4892D01*
X3220Y4884D01*
X3229Y4879D01*
X3238Y4877D01*
X3248Y4879D01*
X3257Y4884D01*
X3262Y4892D01*
X3264Y4902D01*
X3262Y4912D01*
X3257Y4920D01*
X3248Y4926D01*
X3238Y4928D01*
D02*
G37*
G36*
X5133Y4661D02*
X5124Y4659D01*
X5115Y4654D01*
X5110Y4645D01*
X5108Y4635D01*
X5110Y4626D01*
X5115Y4617D01*
X5124Y4612D01*
X5133Y4610D01*
X5143Y4612D01*
X5151Y4617D01*
X5157Y4626D01*
X5159Y4635D01*
X5157Y4645D01*
X5151Y4654D01*
X5143Y4659D01*
X5133Y4661D01*
D02*
G37*
G36*
X4194Y4648D02*
X4184Y4647D01*
X4175Y4641D01*
X4170Y4633D01*
X4168Y4623D01*
X4170Y4613D01*
X4175Y4605D01*
X4184Y4599D01*
X4194Y4597D01*
X4203Y4599D01*
X4212Y4605D01*
X4217Y4613D01*
X4219Y4623D01*
X4217Y4633D01*
X4212Y4641D01*
X4203Y4647D01*
X4194Y4648D01*
D02*
G37*
G36*
X4049Y4636D02*
X4039Y4634D01*
X4031Y4628D01*
X4025Y4620D01*
X4023Y4610D01*
X4025Y4600D01*
X4031Y4592D01*
X4039Y4586D01*
X4049Y4584D01*
X4059Y4586D01*
X4067Y4592D01*
X4072Y4600D01*
X4074Y4610D01*
X4072Y4620D01*
X4067Y4628D01*
X4059Y4634D01*
X4049Y4636D01*
D02*
G37*
G36*
X4844Y4659D02*
X4829Y4656D01*
X4817Y4647D01*
X4809Y4636D01*
X4692Y4519D01*
X3815D01*
X3806Y4517D01*
X3799Y4512D01*
X3689Y4402D01*
X3599D01*
X3595Y4408D01*
X3582Y4417D01*
X3566Y4420D01*
X3551Y4417D01*
X3537Y4408D01*
X3528Y4395D01*
X3525Y4379D01*
X3528Y4363D01*
X3537Y4350D01*
X3551Y4341D01*
X3566Y4338D01*
X3582Y4341D01*
X3595Y4350D01*
X3599Y4356D01*
X3698D01*
X3707Y4358D01*
X3715Y4363D01*
X3800Y4448D01*
X3806Y4447D01*
X3813Y4443D01*
X3814Y4435D01*
X3820Y4427D01*
X3828Y4421D01*
X3838Y4419D01*
X3848Y4421D01*
X3856Y4427D01*
X3862Y4435D01*
X3864Y4445D01*
X3862Y4455D01*
X3858Y4460D01*
X3862Y4471D01*
X3864Y4473D01*
X4034D01*
X4040Y4460D01*
X4038Y4457D01*
X4026Y4455D01*
X4014Y4447D01*
X4006Y4434D01*
X4003Y4420D01*
X4006Y4405D01*
X4014Y4392D01*
X4021Y4388D01*
X4023Y4375D01*
X4022Y4373D01*
X4017Y4366D01*
X4015Y4356D01*
X4017Y4346D01*
X4023Y4338D01*
X4031Y4332D01*
X4041Y4330D01*
X4051Y4332D01*
X4059Y4338D01*
X4065Y4346D01*
X4067Y4356D01*
X4065Y4366D01*
X4060Y4373D01*
X4059Y4375D01*
X4062Y4388D01*
X4068Y4392D01*
X4077Y4405D01*
X4080Y4420D01*
X4079Y4424D01*
X4096Y4442D01*
X4176D01*
X4183Y4429D01*
X4182Y4429D01*
X4181Y4420D01*
X4183Y4410D01*
X4188Y4401D01*
X4196Y4396D01*
X4206Y4394D01*
X4216Y4396D01*
X4224Y4401D01*
X4230Y4410D01*
X4232Y4420D01*
X4230Y4429D01*
X4230Y4429D01*
X4237Y4442D01*
X4548D01*
X4549Y4440D01*
X4550Y4429D01*
X4544Y4425D01*
X4538Y4417D01*
X4536Y4407D01*
X4538Y4397D01*
X4544Y4389D01*
X4552Y4383D01*
X4562Y4381D01*
X4572Y4383D01*
X4580Y4389D01*
X4586Y4397D01*
X4587Y4407D01*
X4586Y4417D01*
X4580Y4425D01*
X4574Y4429D01*
X4575Y4440D01*
X4576Y4442D01*
X4671D01*
X4675Y4429D01*
X4674Y4429D01*
X4668Y4420D01*
X4666Y4410D01*
X4668Y4401D01*
X4674Y4392D01*
X4682Y4387D01*
X4692Y4385D01*
X4702Y4387D01*
X4710Y4392D01*
X4716Y4401D01*
X4718Y4410D01*
X4716Y4420D01*
X4720Y4429D01*
X4729Y4423D01*
X4729Y4422D01*
X4734Y4414D01*
X4743Y4409D01*
X4750Y4407D01*
X4752Y4407D01*
X4755Y4395D01*
X4753Y4394D01*
X4747Y4389D01*
X4741Y4381D01*
X4739Y4371D01*
X4741Y4362D01*
X4747Y4353D01*
X4755Y4348D01*
X4765Y4346D01*
X4775Y4348D01*
X4783Y4353D01*
X4789Y4362D01*
X4791Y4371D01*
X4789Y4381D01*
X4783Y4389D01*
X4775Y4395D01*
X4767Y4397D01*
X4765Y4397D01*
X4762Y4409D01*
X4764Y4410D01*
X4770Y4414D01*
X4776Y4422D01*
X4778Y4432D01*
X4776Y4442D01*
X4776Y4442D01*
X4783Y4455D01*
X4874D01*
X4881Y4442D01*
X4881Y4442D01*
X4879Y4432D01*
X4881Y4422D01*
X4887Y4414D01*
X4895Y4409D01*
X4905Y4407D01*
X4915Y4409D01*
X4923Y4414D01*
X4928Y4422D01*
X4930Y4432D01*
X4928Y4442D01*
X4928Y4442D01*
X4935Y4455D01*
X4964D01*
X4994Y4424D01*
X4993Y4420D01*
X4996Y4405D01*
X5005Y4392D01*
X5017Y4384D01*
X5032Y4381D01*
X5046Y4384D01*
X5059Y4392D01*
X5067Y4405D01*
X5070Y4420D01*
X5067Y4434D01*
X5059Y4447D01*
X5046Y4455D01*
X5032Y4458D01*
X5027Y4457D01*
X4990Y4494D01*
X4983Y4499D01*
X4974Y4501D01*
X4756D01*
X4751Y4512D01*
X4826Y4587D01*
X4829Y4585D01*
X4844Y4582D01*
X4858Y4585D01*
X4871Y4593D01*
X4879Y4606D01*
X4882Y4620D01*
X4879Y4635D01*
X4871Y4647D01*
X4858Y4656D01*
X4844Y4659D01*
D02*
G37*
G36*
X3553Y4651D02*
X3544Y4649D01*
X3535Y4643D01*
X3530Y4635D01*
X3528Y4625D01*
X3530Y4616D01*
X3535Y4607D01*
X3544Y4602D01*
X3553Y4600D01*
X3563Y4602D01*
X3572Y4607D01*
X3577Y4616D01*
X3579Y4625D01*
X3577Y4635D01*
X3572Y4643D01*
X3563Y4649D01*
X3553Y4651D01*
D02*
G37*
G36*
X4928D02*
X4918Y4649D01*
X4909Y4643D01*
X4904Y4635D01*
X4902Y4625D01*
X4904Y4616D01*
X4909Y4607D01*
X4918Y4602D01*
X4928Y4600D01*
X4937Y4602D01*
X4946Y4607D01*
X4951Y4616D01*
X4953Y4625D01*
X4951Y4635D01*
X4946Y4643D01*
X4937Y4649D01*
X4928Y4651D01*
D02*
G37*
%LPD*%
G36*
X4710Y5545D02*
X4717Y5540D01*
X4722Y5533D01*
X4723Y5524D01*
X4722Y5516D01*
X4717Y5509D01*
X4710Y5504D01*
X4702Y5503D01*
X4693Y5504D01*
X4686Y5509D01*
X4681Y5516D01*
X4680Y5524D01*
X4681Y5533D01*
X4686Y5540D01*
X4693Y5545D01*
X4702Y5546D01*
X4710Y5545D01*
D02*
G37*
G36*
X5675Y5468D02*
X5682Y5464D01*
X5687Y5457D01*
X5689Y5448D01*
X5687Y5440D01*
X5682Y5433D01*
X5675Y5428D01*
X5667Y5426D01*
X5658Y5428D01*
X5651Y5433D01*
X5647Y5440D01*
X5645Y5448D01*
X5647Y5457D01*
X5651Y5464D01*
X5658Y5468D01*
X5667Y5470D01*
X5675Y5468D01*
D02*
G37*
G36*
X4240Y5672D02*
X4247Y5667D01*
X4252Y5660D01*
X4253Y5651D01*
X4252Y5643D01*
X4247Y5636D01*
X4240Y5631D01*
X4232Y5630D01*
X4223Y5631D01*
X4216Y5636D01*
X4211Y5643D01*
X4210Y5651D01*
X4211Y5660D01*
X4216Y5667D01*
X4223Y5672D01*
X4232Y5673D01*
X4240Y5672D01*
D02*
G37*
D17*
X4696Y2913D02*
D03*
D03*
D60*
X3060Y3242D02*
Y3256D01*
X3038Y3278D02*
X3060Y3256D01*
Y3242D02*
X3076Y3226D01*
X3038Y3278D02*
Y3353D01*
X3000Y3391D02*
X3038Y3353D01*
X3175Y3160D02*
X3353D01*
X3369Y3175D01*
X3145Y3729D02*
X3190Y3683D01*
X3045Y3729D02*
X3145D01*
X2930Y3658D02*
X2946D01*
X3117Y3488D01*
X2904Y3685D02*
X2930Y3658D01*
X2680Y3752D02*
X2720Y3792D01*
X2639Y3752D02*
X2680D01*
X4086Y4465D02*
X4713D01*
X4702Y4496D02*
X4826Y4620D01*
X3815Y4496D02*
X4702D01*
X4524Y5042D02*
X4727D01*
X4556Y5138D02*
X4759D01*
X4498Y5067D02*
X4524Y5042D01*
X4270Y5067D02*
X4498D01*
X4826Y4620D02*
X4844D01*
X4713Y4465D02*
X4726Y4478D01*
X4974D01*
X4125Y5465D02*
X4215Y5554D01*
X4191Y5558D02*
X4211D01*
X4215Y5554D01*
X3565Y3257D02*
X3602Y3294D01*
X3753D02*
X3779Y3267D01*
X3602Y3294D02*
X3753D01*
X3779Y3234D02*
Y3267D01*
Y3234D02*
X3871Y3142D01*
X3622Y3162D02*
X3637D01*
X3597Y3188D02*
X3622Y3162D01*
X3444Y3188D02*
X3597D01*
X3551Y2962D02*
X3889D01*
X3548Y3025D02*
X3675D01*
X3548Y3025D02*
Y3025D01*
X3514Y2990D02*
X3548Y3025D01*
X3476Y2990D02*
X3514D01*
X3450Y3017D02*
X3476Y2990D01*
X3450Y3017D02*
Y3047D01*
X3439Y3058D02*
X3450Y3047D01*
X3439Y3058D02*
Y3105D01*
X3538Y2949D02*
X3551Y2962D01*
X3749Y2870D02*
X3774Y2896D01*
X3368Y2870D02*
X3749D01*
X3401Y3346D02*
X3450Y3297D01*
X3381Y3302D02*
X3393Y3289D01*
X3476Y3257D02*
X3565D01*
X3450Y3283D02*
X3476Y3257D01*
X3450Y3283D02*
Y3297D01*
X3846Y3467D02*
X4003D01*
X3711Y3602D02*
X3846Y3467D01*
X4194Y3442D02*
X4270Y3518D01*
X4227Y5220D02*
X4384D01*
X3785Y5098D02*
X3787Y5100D01*
X3857D01*
X3859Y5098D02*
X4046D01*
X3857Y5100D02*
X3859Y5098D01*
X4105Y5156D02*
X4308D01*
X4046Y5098D02*
X4105Y5156D01*
X3754Y5402D02*
X3931D01*
X3749Y5397D02*
X3754Y5402D01*
X3936Y5397D02*
X4053D01*
X3931Y5402D02*
X3936Y5397D01*
X4125Y5431D02*
Y5465D01*
X4112Y5417D02*
X4125Y5431D01*
X4073Y5417D02*
X4112D01*
X4053Y5397D02*
X4073Y5417D01*
X5375Y3315D02*
X5387D01*
X5406Y2923D02*
Y3130D01*
X5393Y3144D02*
X5406Y3130D01*
X4778Y2946D02*
X4793Y2931D01*
X3546Y4737D02*
Y4961D01*
X3210Y5213D02*
X3294D01*
X3546Y4961D01*
X3698Y4379D02*
X3815Y4496D01*
X3566Y4379D02*
X3698D01*
X3272Y4729D02*
X3538D01*
X3546Y4737D01*
X3425Y3879D02*
X3851Y4305D01*
X4011Y4674D02*
X4155D01*
X4004Y4681D02*
X4011Y4674D01*
X3967Y4681D02*
X4004D01*
X3959Y4674D02*
X3967Y4681D01*
X3952Y4674D02*
X3959D01*
X3863Y4762D02*
X3952Y4674D01*
X3724Y4762D02*
X3863D01*
X4171Y4836D02*
X4194Y4813D01*
X3911Y4836D02*
X4171D01*
X3901Y4826D02*
X3911Y4836D01*
X3260Y4717D02*
X3272Y4729D01*
X2855Y4717D02*
X3260D01*
X2758Y4813D02*
X2855Y4717D01*
X3851Y4305D02*
Y4369D01*
X3254Y5715D02*
X3419D01*
X3813Y6109D01*
X3871Y6051D01*
Y5899D02*
Y6051D01*
X3307Y5336D02*
X3871Y5899D01*
X3242Y5336D02*
X3307D01*
X3183Y5277D02*
X3242Y5336D01*
X3183Y5239D02*
Y5277D01*
Y5239D02*
X3210Y5213D01*
X4130Y5105D02*
X4524D01*
X4925Y5162D02*
X5291D01*
X4117Y5093D02*
X4130Y5105D01*
X4524D02*
X4556Y5138D01*
X4759D02*
X4835Y5214D01*
X4873D01*
X4925Y5162D01*
X5291D02*
X5300Y5171D01*
X5398D01*
X5413Y5156D01*
X4041Y4420D02*
X4086Y4465D01*
X4974Y4478D02*
X5032Y4420D01*
X3369Y3175D02*
X3439Y3105D01*
X2720Y3505D02*
X2979D01*
X2873Y3785D02*
Y3785D01*
X2994Y3906D01*
X3031D01*
X3058Y3879D01*
X3425D01*
X4790Y3543D02*
X4826D01*
X5679Y4559D02*
X5756Y4635D01*
X5083Y4559D02*
X5679D01*
X5019Y4623D02*
X5083Y4559D01*
X5019Y4623D02*
Y4648D01*
X3419Y5601D02*
X3825Y6007D01*
X2758Y5601D02*
X3419D01*
X5286Y4699D02*
Y4712D01*
Y4686D02*
Y4699D01*
X5260Y4737D02*
X5286Y4712D01*
X4435Y4737D02*
X5260D01*
X4333Y4839D02*
X4435Y4737D01*
X4333Y4839D02*
Y4877D01*
X4155Y4674D02*
X4244Y4762D01*
X5177Y5578D02*
Y5580D01*
X5235Y5639D01*
X5309D01*
X5342Y5672D01*
Y5733D01*
X5235Y6121D02*
X5248D01*
X5184Y6172D02*
X5235Y6121D01*
X3813Y6109D02*
Y6134D01*
X3851Y6172D01*
X5184D01*
X5845Y5144D02*
Y5220D01*
X3228Y3010D02*
X3368Y2870D01*
X3228Y3010D02*
Y3035D01*
X4194Y4813D02*
X4206D01*
X5748Y4453D02*
X5781Y4420D01*
X3343Y3645D02*
X3571Y3416D01*
X3584D01*
X3038Y3645D02*
X3343D01*
X3584Y3365D02*
Y3416D01*
Y3365D02*
X3597Y3353D01*
X3190Y3683D02*
X3495D01*
X3533Y3721D01*
Y3759D01*
X2926Y3348D02*
X2969Y3391D01*
X3000D01*
X3076Y3226D02*
X3406D01*
X3444Y3188D01*
X2822Y3442D02*
X2847D01*
X2873Y3467D01*
X2974D01*
X3330Y3769D02*
Y3772D01*
X3292Y3810D02*
X3330Y3772D01*
X3051Y3810D02*
X3292D01*
X3838Y5055D02*
X3965Y4928D01*
X4486D01*
X4600Y4813D01*
X5476D01*
X4295Y3543D02*
X4790D01*
X4270Y3518D02*
X4295Y3543D01*
X4219Y5017D02*
X4270Y5067D01*
X4727Y5042D02*
X4854Y5169D01*
X4946Y2870D02*
X5006D01*
X4046Y2982D02*
X4163D01*
X3889Y2962D02*
X3962Y2888D01*
X3178Y3391D02*
Y3427D01*
X2827Y3766D02*
Y3777D01*
Y3766D02*
X2854Y3739D01*
X2865D01*
X2904Y3701D01*
Y3685D02*
Y3701D01*
X3117Y3486D02*
Y3488D01*
Y3486D02*
X3144Y3460D01*
X3145D01*
X3178Y3427D01*
X2875Y3589D02*
X2949D01*
X2705Y3759D02*
X2875Y3589D01*
X2705Y3759D02*
X2720Y3774D01*
Y3792D01*
Y4140D02*
X2847Y4267D01*
Y4724D01*
X2758Y4813D02*
X2847Y4724D01*
X2979Y3505D02*
X3139Y3346D01*
X3401D01*
X2974Y3467D02*
X3139Y3302D01*
X3381D01*
X5355Y3225D02*
X5393Y3187D01*
Y3144D02*
Y3187D01*
X5355Y3225D02*
Y3282D01*
X5387Y3315D01*
X5375D02*
X5381Y3309D01*
X5381D01*
X2771Y3833D02*
X2827Y3777D01*
X2720Y3792D02*
Y3850D01*
X2683Y3878D02*
X2709Y3851D01*
X2771Y3833D02*
Y3876D01*
X2773Y3878D01*
X2771Y3942D02*
X2773Y3940D01*
Y3878D02*
Y3940D01*
X2719Y3851D02*
X2720Y3850D01*
X2709Y3851D02*
X2719D01*
X2683Y3878D02*
Y3918D01*
X2740Y3975D01*
X4195Y3021D02*
X4227Y2990D01*
X4224D02*
X4227D01*
X3962Y2888D02*
X3969Y2895D01*
X4056D01*
X4877Y3089D02*
X4892Y3073D01*
X4877Y3089D02*
Y3382D01*
X4893Y3398D01*
Y3476D01*
X4826Y3543D02*
X4893Y3476D01*
X2720Y4100D02*
Y4140D01*
Y4100D02*
X2740Y4080D01*
Y3975D02*
Y4080D01*
X5248Y6121D02*
X5380Y5989D01*
Y5898D02*
Y5989D01*
X4811Y2870D02*
X4841Y2901D01*
X4604Y2870D02*
X4811D01*
X4841Y2901D02*
X4851D01*
X4861Y2911D01*
X4838Y2931D02*
X4848Y2941D01*
X4793Y2931D02*
X4838D01*
X4848Y2941D02*
X5388D01*
X4861Y2911D02*
X4906D01*
X4946Y2870D01*
X5388Y2941D02*
X5406Y2923D01*
X4056Y2895D02*
X4580D01*
X4604Y2870D01*
D61*
X5535Y3233D02*
X5547D01*
X5552Y3238D01*
X5044Y3747D02*
X5552Y3238D01*
X3734Y3216D02*
Y3249D01*
Y3216D02*
X3844Y3105D01*
X3804Y3025D02*
X3824Y3045D01*
X3832Y3075D02*
X3864D01*
X3814Y3093D02*
X3832Y3075D01*
X3844Y3105D02*
X3876D01*
X3553Y3093D02*
X3814D01*
X3871Y3142D02*
X4195D01*
X4203Y3135D01*
X3495Y3035D02*
X3553Y3093D01*
X3736Y3340D02*
X3823Y3426D01*
X3980D01*
X4288Y3135D02*
X4315Y3162D01*
X4203Y3135D02*
X4288D01*
X4315Y3162D02*
X4567D01*
X4007Y3018D02*
X4044Y2982D01*
X4046D01*
X4067Y3028D02*
X4088Y3048D01*
X4020D02*
X4040Y3028D01*
X4088Y3048D02*
X4168D01*
X4082Y3078D02*
X4379D01*
X4067Y3093D02*
X4082Y3078D01*
X4040Y3093D02*
X4067D01*
X4025Y3078D02*
X4040Y3093D01*
Y3028D02*
X4067D01*
X4168Y3048D02*
X4195Y3021D01*
X4174Y3422D02*
X4194Y3442D01*
X3984Y3422D02*
X4174D01*
X3980Y3426D02*
X3984Y3422D01*
X4110Y5220D02*
X4227D01*
X3740Y5151D02*
X4041D01*
X4110Y5220D01*
X5044Y3747D02*
Y3757D01*
X5136Y3724D02*
Y3747D01*
Y3724D02*
X5573Y3287D01*
X3675Y3025D02*
X3804D01*
X3876Y3105D02*
X3903Y3078D01*
X4025D01*
X3864Y3075D02*
X3891Y3048D01*
X4020D01*
X3824Y3045D02*
X3851D01*
X3878Y3018D01*
X4007D01*
X5580Y3294D02*
Y3313D01*
X5573Y3287D02*
X5580Y3294D01*
X4567Y3162D02*
X4613Y3117D01*
X4379Y3078D02*
X4417Y3117D01*
D62*
X4282Y5309D02*
X4486D01*
X4060Y5337D02*
X4127Y5271D01*
X3916Y5364D02*
X3942Y5337D01*
X4060D01*
X3882Y5364D02*
X3916D01*
X3846Y5328D02*
X3882Y5364D01*
X3616Y5328D02*
X3846D01*
X4127Y5271D02*
X4244D01*
X3546Y5258D02*
X3616Y5328D01*
X3228Y5258D02*
X3546D01*
X4486Y5309D02*
X4524Y5347D01*
X4981D02*
X5019Y5309D01*
X4524Y5347D02*
X4981D01*
X4244Y5271D02*
X4282Y5309D01*
D63*
X4414Y5606D02*
X4714Y5906D01*
X4414Y5600D02*
Y5606D01*
X4388Y5573D02*
X4414Y5600D01*
X4382Y5573D02*
X4388D01*
X4973Y5647D02*
X5171Y5448D01*
X4973Y5647D02*
Y5663D01*
X4968Y5667D02*
X4973Y5663D01*
X4968Y5667D02*
Y5906D01*
X4714D02*
X4778D01*
X4968D02*
X5044Y5982D01*
X5171Y5448D02*
X5425D01*
X5451Y5423D01*
X5309Y5867D02*
X5321Y5855D01*
Y5756D02*
Y5855D01*
Y5756D02*
X5438Y5639D01*
X5629D01*
X5870Y5397D01*
Y5245D02*
Y5397D01*
X5845Y5220D02*
X5870Y5245D01*
X4171Y5446D02*
X4258D01*
X4256Y5447D02*
X4258Y5446D01*
X4256Y5447D02*
X4382Y5573D01*
X5309Y5867D02*
X5339Y5898D01*
X5380D01*
D64*
X5857Y4526D02*
Y4585D01*
X5835Y4504D02*
X5857Y4526D01*
X5835Y4473D02*
Y4504D01*
X5781Y4420D02*
X5835Y4473D01*
X5819Y4623D02*
X5857Y4585D01*
X5819Y4623D02*
Y4750D01*
X5552Y5220D02*
X5629D01*
X5489Y5283D02*
X5552Y5220D01*
X5311Y5283D02*
X5489D01*
X5260Y5334D02*
X5311Y5283D01*
X5184Y5334D02*
X5260D01*
X5159Y5309D02*
X5184Y5334D01*
X5514Y3975D02*
Y4166D01*
X5552Y4204D01*
Y4318D01*
X5629Y4394D01*
X5756D01*
X5781Y4420D01*
X5819Y4750D02*
X5857Y4788D01*
Y4991D01*
X5629Y5220D02*
X5857Y4991D01*
X5019Y5309D02*
X5159D01*
X4790Y3543D02*
X4793D01*
Y3759D01*
X4783D02*
X4793D01*
D68*
X3566Y4379D02*
D03*
D69*
X3175Y3160D02*
D03*
X3045Y3729D02*
D03*
X2982Y3752D02*
D03*
X2639D02*
D03*
X4844Y4620D02*
D03*
X4191Y5558D02*
D03*
X3734Y3249D02*
D03*
X3637Y3162D02*
D03*
X3495Y3035D02*
D03*
X3538Y2949D02*
D03*
X3774Y2896D02*
D03*
X3736Y3340D02*
D03*
X3393Y3289D02*
D03*
X3740Y5151D02*
D03*
X3785Y5098D02*
D03*
X4171Y5446D02*
D03*
X3406Y4775D02*
D03*
X3546Y4737D02*
D03*
X3932Y4234D02*
D03*
X3851Y4369D02*
D03*
X4778Y5906D02*
D03*
X5044Y5982D02*
D03*
X5451Y5423D02*
D03*
X5756Y4635D02*
D03*
X5019Y4648D02*
D03*
X3825Y6007D02*
D03*
X2758Y5601D02*
D03*
X5286Y4699D02*
D03*
X4333Y4877D02*
D03*
X4117Y5093D02*
D03*
X5413Y5156D02*
D03*
X4384Y5220D02*
D03*
X4308Y5156D02*
D03*
X3724Y4762D02*
D03*
X4244D02*
D03*
X4778Y2946D02*
D03*
X5387Y3315D02*
D03*
X5032Y4420D02*
D03*
X4041D02*
D03*
X2873Y3785D02*
D03*
X3254Y5715D02*
D03*
X5177Y5578D02*
D03*
X5248Y6121D02*
D03*
X2758Y4813D02*
D03*
X5006Y2870D02*
D03*
X5845Y5144D02*
D03*
Y5220D02*
D03*
X3813Y6109D02*
D03*
X2720Y3505D02*
D03*
X4163Y2982D02*
D03*
X3228Y3035D02*
D03*
X3901Y4826D02*
D03*
X4206Y4813D02*
D03*
X3228Y5258D02*
D03*
X5748Y4453D02*
D03*
X5514Y3975D02*
D03*
X5806Y3404D02*
D03*
X3749Y5397D02*
D03*
X3597Y3353D02*
D03*
X3038Y3645D02*
D03*
X3533Y3759D02*
D03*
X3178Y3391D02*
D03*
X2926Y3348D02*
D03*
X2822Y3442D02*
D03*
X3051Y3810D02*
D03*
X3330Y3769D02*
D03*
X3838Y5055D02*
D03*
X5476Y4813D02*
D03*
X4892Y3073D02*
D03*
X4270Y3518D02*
D03*
X4232Y5651D02*
D03*
X5718Y4699D02*
D03*
X5667Y5448D02*
D03*
Y4305D02*
D03*
X4762Y3759D02*
D03*
X2835Y4813D02*
D03*
X4702Y5524D02*
D03*
X4219Y5017D02*
D03*
X4854Y5169D02*
D03*
X4003Y3467D02*
D03*
X3711Y3602D02*
D03*
X2949Y3589D02*
D03*
X2733Y4229D02*
D03*
X4856Y3023D02*
D03*
X2771Y3942D02*
D03*
X2728Y3896D02*
D03*
X4224Y2990D02*
D03*
X4056Y2895D02*
D03*
X5380Y5898D02*
D03*
X4613Y3117D02*
D03*
X4417D02*
D03*
D70*
X3152Y3096D02*
D03*
X3241Y3111D02*
D03*
X4562Y4407D02*
D03*
X4692Y4410D02*
D03*
X4905Y4305D02*
D03*
X4557Y4122D02*
D03*
X4498Y4191D02*
D03*
X3393Y3086D02*
D03*
X3495Y3302D02*
D03*
X3635Y4750D02*
D03*
X5806Y5613D02*
D03*
X5794Y4813D02*
D03*
X5883Y3505D02*
D03*
X5387Y3238D02*
D03*
X2771Y4724D02*
D03*
X4752Y4432D02*
D03*
X5319Y5126D02*
D03*
X4295Y4140D02*
D03*
X4384Y4254D02*
D03*
X5908Y3759D02*
D03*
X5232Y5778D02*
D03*
X5197Y4610D02*
D03*
X2936Y4254D02*
D03*
X3846Y3340D02*
D03*
X3901Y3378D02*
D03*
X3965Y3289D02*
D03*
X4016Y3353D02*
D03*
X4067Y3297D02*
D03*
X4219Y3251D02*
D03*
X3012Y3861D02*
D03*
X5044Y3442D02*
D03*
X4994Y3277D02*
D03*
X5146D02*
D03*
X5095Y3315D02*
D03*
X3317Y3086D02*
D03*
X3368Y6020D02*
D03*
X3876Y2896D02*
D03*
X4740Y4115D02*
D03*
X5210Y5524D02*
D03*
X5250Y4646D02*
D03*
X5032Y5448D02*
D03*
X3559Y4216D02*
D03*
X2680Y4094D02*
D03*
X5413Y6134D02*
D03*
X4460Y2972D02*
D03*
D72*
X5535Y3233D02*
D03*
X5136Y3747D02*
D03*
X5044Y3757D02*
D03*
X5580Y3313D02*
D03*
M02*
