G04 Layer_Physical_Order=6*
G04 Layer_Color=8421376*
%FSLAX42Y42*%
%MOMM*%
G71*
G01*
G75*
%ADD17R,0.41X0.41*%
%ADD19R,0.41X0.41*%
%ADD60C,0.15*%
%ADD61C,0.15*%
%ADD63C,0.41*%
%ADD65R,0.46X0.46*%
%ADD69C,0.45*%
%ADD70C,0.20*%
%ADD71C,0.40*%
%ADD74C,0.61*%
G36*
X4596Y4073D02*
X4609Y4060D01*
X4617Y4055D01*
X4625Y4054D01*
X4740D01*
X4748Y4055D01*
X4755Y4060D01*
X4761Y4058D01*
X4767Y4055D01*
Y3870D01*
X4736Y3839D01*
X4723Y3843D01*
X4723Y3843D01*
X4717Y3851D01*
X4709Y3857D01*
X4699Y3859D01*
X4689Y3857D01*
X4681Y3851D01*
X4675Y3843D01*
X4673Y3833D01*
X4675Y3823D01*
X4681Y3815D01*
X4689Y3810D01*
X4689Y3809D01*
X4693Y3796D01*
X4673Y3776D01*
X4668Y3768D01*
X4666Y3759D01*
Y3608D01*
X4652Y3595D01*
X4647Y3587D01*
X4645Y3578D01*
Y3350D01*
X4647Y3341D01*
X4650Y3337D01*
X4650Y3333D01*
X4649Y3330D01*
X4644Y3327D01*
X4635Y3326D01*
X4625Y3328D01*
X4616Y3326D01*
X4607Y3320D01*
X4602Y3312D01*
X4600Y3302D01*
X4602Y3292D01*
X4607Y3284D01*
X4616Y3278D01*
X4625Y3276D01*
X4635Y3278D01*
X4640Y3282D01*
X4651Y3278D01*
X4653Y3276D01*
Y3146D01*
X4649Y3144D01*
X4645Y3137D01*
X4631Y3135D01*
X4629Y3136D01*
X4622Y3140D01*
X4613Y3142D01*
X4603Y3140D01*
X4595Y3135D01*
X4589Y3126D01*
X4587Y3117D01*
X4589Y3107D01*
X4595Y3098D01*
X4603Y3093D01*
X4613Y3091D01*
X4622Y3093D01*
X4629Y3098D01*
X4631Y3098D01*
X4645Y3096D01*
X4649Y3089D01*
X4657Y3084D01*
X4654Y3071D01*
X4521D01*
X4510Y3083D01*
X4510Y3087D01*
X4519Y3099D01*
X4521Y3114D01*
X4519Y3129D01*
X4510Y3141D01*
X4498Y3150D01*
X4483Y3152D01*
X4468Y3150D01*
X4456Y3141D01*
X4451Y3134D01*
X4437Y3133D01*
X4436Y3133D01*
X4435Y3135D01*
X4427Y3140D01*
X4417Y3142D01*
X4407Y3140D01*
X4399Y3135D01*
X4393Y3126D01*
X4391Y3117D01*
X4393Y3107D01*
X4399Y3098D01*
X4407Y3093D01*
X4417Y3091D01*
X4427Y3093D01*
X4435Y3098D01*
X4439Y3099D01*
X4449Y3097D01*
X4456Y3087D01*
X4460Y3084D01*
Y3078D01*
X4461Y3075D01*
X4461Y3071D01*
X4462Y3070D01*
X4462Y3070D01*
X4464Y3066D01*
X4466Y3063D01*
X4494Y3032D01*
X4494Y3032D01*
X4495Y3032D01*
X4498Y3029D01*
X4501Y3027D01*
X4502Y3027D01*
X4502Y3027D01*
X4506Y3026D01*
X4510Y3025D01*
X4511Y3025D01*
X4511Y3025D01*
X4727D01*
X4736Y3027D01*
X4743Y3032D01*
X4769Y3057D01*
X4774Y3065D01*
X4775Y3073D01*
Y3075D01*
X4782Y3089D01*
X4795Y3097D01*
X4797Y3101D01*
X4829D01*
X4837Y3103D01*
X4845Y3108D01*
X4892Y3155D01*
X4903Y3150D01*
X4901Y3106D01*
X4892Y3099D01*
X4882Y3097D01*
X4874Y3092D01*
X4868Y3083D01*
X4866Y3073D01*
X4868Y3064D01*
X4874Y3055D01*
X4882Y3050D01*
X4892Y3048D01*
X4897Y3043D01*
X4892Y2946D01*
X4891Y2944D01*
X4867D01*
X4858Y2942D01*
X4850Y2937D01*
X4807Y2894D01*
X4742D01*
Y2901D01*
X4696D01*
X4651D01*
Y2894D01*
X4626D01*
X4620Y2899D01*
X4612Y2904D01*
X4604Y2906D01*
X4551D01*
X4550Y2919D01*
X4557Y2920D01*
X4566Y2926D01*
X4571Y2934D01*
X4573Y2944D01*
X4571Y2954D01*
X4566Y2962D01*
X4557Y2968D01*
X4547Y2970D01*
X4538Y2968D01*
X4529Y2962D01*
X4524Y2954D01*
X4522Y2944D01*
X4524Y2934D01*
X4529Y2926D01*
X4538Y2920D01*
X4545Y2919D01*
X4544Y2906D01*
X4527D01*
X4520Y2910D01*
X4511Y2912D01*
X4483D01*
Y2942D01*
X4487Y2945D01*
X4496Y2957D01*
X4499Y2972D01*
X4496Y2986D01*
X4487Y2999D01*
X4475Y3007D01*
X4460Y3010D01*
X4446Y3007D01*
X4433Y2999D01*
X4425Y2986D01*
X4422Y2972D01*
X4425Y2957D01*
X4433Y2945D01*
X4437Y2942D01*
Y2911D01*
X4224D01*
X4193Y2941D01*
X4190Y2955D01*
X4193Y2959D01*
X4196Y2964D01*
X4201Y2967D01*
X4212Y2968D01*
X4214Y2966D01*
X4224Y2964D01*
X4234Y2966D01*
X4242Y2971D01*
X4248Y2980D01*
X4250Y2990D01*
X4248Y2999D01*
X4242Y3008D01*
X4241Y3009D01*
X4238Y3024D01*
X4344Y3130D01*
X4349Y3138D01*
X4351Y3147D01*
Y3257D01*
X4349Y3266D01*
X4344Y3274D01*
X4311Y3307D01*
Y3463D01*
X4578Y3730D01*
X4583Y3737D01*
X4585Y3746D01*
X4583Y3755D01*
X4580Y3760D01*
Y4077D01*
X4585Y4079D01*
X4593Y4079D01*
X4596Y4073D01*
D02*
G37*
G36*
X5005Y4392D02*
X5017Y4384D01*
X5032Y4381D01*
X5037Y4382D01*
X5148Y4270D01*
Y4077D01*
X5150Y4068D01*
X5155Y4060D01*
X5390Y3826D01*
Y3362D01*
X5379Y3351D01*
X5373Y3350D01*
X5360Y3342D01*
X5352Y3329D01*
X5349Y3315D01*
X5352Y3300D01*
X5360Y3288D01*
X5365Y3284D01*
Y3269D01*
X5360Y3266D01*
X5352Y3253D01*
X5349Y3238D01*
X5352Y3224D01*
X5360Y3211D01*
X5364Y3209D01*
Y3173D01*
X5352Y3168D01*
X5347Y3172D01*
X5002D01*
X5001Y3185D01*
X5010Y3187D01*
X5018Y3192D01*
X5061Y3235D01*
X5066Y3242D01*
X5068Y3251D01*
Y3273D01*
X5080Y3279D01*
X5081Y3279D01*
X5095Y3276D01*
X5106Y3278D01*
X5108Y3277D01*
X5111Y3262D01*
X5119Y3249D01*
X5131Y3241D01*
X5146Y3238D01*
X5161Y3241D01*
X5173Y3249D01*
X5182Y3262D01*
X5184Y3277D01*
X5182Y3291D01*
X5173Y3304D01*
X5169Y3306D01*
Y3521D01*
X5276Y3628D01*
X5284Y3622D01*
X5298Y3619D01*
X5313Y3622D01*
X5326Y3630D01*
X5334Y3643D01*
X5337Y3658D01*
X5334Y3672D01*
X5326Y3685D01*
X5313Y3693D01*
X5298Y3696D01*
X5284Y3693D01*
X5271Y3685D01*
X5268Y3680D01*
X5264Y3679D01*
X5257Y3674D01*
X5130Y3547D01*
X5127Y3542D01*
X5114Y3545D01*
Y3702D01*
X5127Y3710D01*
X5136Y3708D01*
X5151Y3711D01*
X5163Y3719D01*
X5171Y3732D01*
X5185Y3737D01*
X5187Y3735D01*
X5197Y3734D01*
X5207Y3735D01*
X5215Y3741D01*
X5221Y3749D01*
X5222Y3759D01*
X5221Y3769D01*
X5215Y3777D01*
X5207Y3783D01*
X5197Y3785D01*
X5187Y3783D01*
X5179Y3777D01*
X5177Y3775D01*
X5164Y3774D01*
X5162Y3774D01*
X5151Y3782D01*
X5136Y3785D01*
X5131Y3784D01*
X5118Y3794D01*
Y4077D01*
X5117Y4086D01*
X5112Y4093D01*
X5095Y4110D01*
X5096Y4115D01*
X5093Y4129D01*
X5084Y4142D01*
X5072Y4150D01*
X5057Y4153D01*
X5042Y4150D01*
X5030Y4142D01*
X5029Y4141D01*
X5017Y4145D01*
Y4318D01*
X5015Y4327D01*
X5010Y4334D01*
X4991Y4353D01*
Y4389D01*
X5004Y4393D01*
X5005Y4392D01*
D02*
G37*
G36*
X4932Y3546D02*
Y3302D01*
X4934Y3293D01*
X4939Y3286D01*
X4957Y3268D01*
X4958Y3262D01*
X4966Y3249D01*
X4975Y3244D01*
X4971Y3231D01*
X4912D01*
X4904Y3229D01*
X4896Y3224D01*
X4849Y3177D01*
X4838Y3184D01*
X4839Y3190D01*
X4837Y3200D01*
X4831Y3208D01*
X4823Y3214D01*
X4813Y3216D01*
X4803Y3214D01*
X4795Y3208D01*
X4790Y3200D01*
X4788Y3193D01*
X4775Y3194D01*
Y3219D01*
X4788Y3227D01*
X4793Y3226D01*
X4803Y3228D01*
X4811Y3233D01*
X4817Y3241D01*
X4819Y3251D01*
X4817Y3261D01*
X4811Y3269D01*
X4803Y3275D01*
X4793Y3277D01*
X4788Y3276D01*
X4775Y3284D01*
Y3344D01*
X4778Y3346D01*
X4788Y3350D01*
X4793Y3346D01*
X4803Y3344D01*
X4813Y3346D01*
X4821Y3352D01*
X4827Y3360D01*
X4829Y3370D01*
X4827Y3380D01*
X4821Y3388D01*
X4821Y3404D01*
X4870Y3453D01*
X4875Y3461D01*
X4877Y3470D01*
X4877Y3470D01*
Y3585D01*
X4879Y3587D01*
X4882Y3588D01*
X4890Y3589D01*
X4932Y3546D01*
D02*
G37*
G36*
X3252Y4367D02*
X3264Y4359D01*
X3268Y4358D01*
X3273Y4344D01*
X3035Y4107D01*
X3032D01*
X3023Y4105D01*
X3015Y4100D01*
X2940Y4024D01*
X2940Y4024D01*
X2917Y4002D01*
X2912Y3995D01*
X2911Y3986D01*
Y3977D01*
X2907Y3974D01*
X2898Y3962D01*
X2895Y3947D01*
X2898Y3932D01*
X2907Y3920D01*
X2919Y3912D01*
X2934Y3909D01*
X2948Y3912D01*
X2961Y3920D01*
X2969Y3932D01*
X2971Y3943D01*
X2983Y3948D01*
X2984Y3948D01*
X3021Y3911D01*
X3014Y3899D01*
X3012Y3899D01*
X2998Y3896D01*
X2985Y3888D01*
X2977Y3875D01*
X2974Y3861D01*
X2977Y3848D01*
X2911Y3782D01*
X2905Y3783D01*
X2898Y3787D01*
X2896Y3794D01*
X2891Y3803D01*
X2883Y3808D01*
X2873Y3810D01*
X2863Y3808D01*
X2855Y3803D01*
X2849Y3794D01*
X2847Y3785D01*
X2849Y3775D01*
X2855Y3766D01*
X2863Y3761D01*
X2871Y3759D01*
X2875Y3753D01*
X2878Y3747D01*
X2877Y3745D01*
X2875Y3736D01*
Y3466D01*
X2868Y3465D01*
X2856Y3457D01*
X2853Y3457D01*
X2841Y3458D01*
X2840Y3460D01*
X2832Y3465D01*
X2822Y3467D01*
X2812Y3465D01*
X2804Y3460D01*
X2798Y3452D01*
X2796Y3442D01*
X2798Y3432D01*
X2804Y3424D01*
X2812Y3418D01*
X2822Y3416D01*
X2832Y3418D01*
X2833Y3419D01*
X2847Y3415D01*
X2847Y3414D01*
X2855Y3402D01*
X2868Y3394D01*
X2872Y3393D01*
X2873Y3392D01*
X2882Y3390D01*
X2891Y3392D01*
X2893Y3393D01*
X2897Y3394D01*
X2909Y3402D01*
X2918Y3415D01*
X2919Y3419D01*
X2919Y3420D01*
X2921Y3429D01*
Y3547D01*
X2934Y3554D01*
X2934Y3554D01*
X2949Y3551D01*
X2951Y3549D01*
Y3513D01*
X2953Y3504D01*
X2958Y3497D01*
X3010Y3445D01*
Y3279D01*
X3012Y3270D01*
X3005Y3261D01*
X3000Y3252D01*
X2998Y3243D01*
X3000Y3233D01*
X3005Y3225D01*
X3013Y3219D01*
X3023Y3217D01*
X3033Y3219D01*
X3041Y3225D01*
X3044Y3225D01*
X3055Y3214D01*
Y3137D01*
X3055Y3136D01*
X3054Y3128D01*
Y3024D01*
X3055Y3016D01*
X3060Y3008D01*
X3146Y2923D01*
X3153Y2918D01*
X3162Y2916D01*
X3227D01*
X3234Y2903D01*
X3234Y2903D01*
X3231Y2888D01*
X3234Y2873D01*
X3242Y2861D01*
X3244Y2859D01*
X3240Y2847D01*
X2793D01*
X2784Y2845D01*
X2782Y2844D01*
X2757Y2846D01*
X2723Y2857D01*
X2692Y2873D01*
X2665Y2896D01*
X2642Y2923D01*
X2626Y2955D01*
X2615Y2988D01*
X2612Y3024D01*
X2612Y3024D01*
Y3725D01*
X2613Y3726D01*
X2624Y3731D01*
X2629Y3728D01*
X2639Y3726D01*
X2649Y3728D01*
X2657Y3733D01*
X2663Y3742D01*
X2665Y3752D01*
X2663Y3761D01*
X2657Y3770D01*
X2649Y3775D01*
X2639Y3777D01*
X2629Y3775D01*
X2624Y3772D01*
X2613Y3777D01*
X2612Y3778D01*
Y4020D01*
X2624Y4026D01*
X2701Y3949D01*
X2679Y3926D01*
X2674Y3919D01*
X2672Y3910D01*
Y3883D01*
X2674Y3874D01*
X2679Y3866D01*
X2697Y3848D01*
X2689Y3838D01*
X2684Y3841D01*
X2675Y3843D01*
X2665Y3841D01*
X2656Y3836D01*
X2651Y3827D01*
X2649Y3818D01*
X2651Y3808D01*
X2656Y3799D01*
X2665Y3794D01*
X2675Y3792D01*
X2684Y3794D01*
X2692Y3799D01*
X2696Y3798D01*
X2705Y3794D01*
Y3662D01*
X2641Y3598D01*
X2636Y3590D01*
X2634Y3581D01*
Y3467D01*
X2636Y3458D01*
X2641Y3451D01*
X2670Y3421D01*
X2669Y3416D01*
X2672Y3402D01*
X2680Y3389D01*
X2693Y3381D01*
X2708Y3378D01*
X2722Y3381D01*
X2735Y3389D01*
X2743Y3402D01*
X2746Y3416D01*
X2743Y3431D01*
X2735Y3443D01*
X2722Y3452D01*
X2708Y3455D01*
X2703Y3454D01*
X2680Y3477D01*
Y3572D01*
X2744Y3636D01*
X2749Y3643D01*
X2751Y3652D01*
Y3740D01*
X2763Y3749D01*
X2766Y3749D01*
X2776Y3751D01*
X2784Y3756D01*
X2790Y3765D01*
X2792Y3774D01*
X2790Y3784D01*
X2784Y3793D01*
X2776Y3798D01*
X2766Y3800D01*
X2763Y3800D01*
X2751Y3809D01*
Y3850D01*
X2749Y3859D01*
X2746Y3863D01*
X2746Y3878D01*
X2752Y3887D01*
X2754Y3896D01*
X2752Y3906D01*
X2748Y3912D01*
X2757Y3921D01*
X2761Y3918D01*
X2771Y3916D01*
X2781Y3918D01*
X2789Y3924D01*
X2795Y3932D01*
X2797Y3942D01*
X2795Y3952D01*
X2789Y3960D01*
X2781Y3966D01*
X2771Y3968D01*
X2762Y3966D01*
X2750Y3964D01*
X2745Y3969D01*
X2744Y3971D01*
X2670Y4045D01*
X2677Y4057D01*
X2680Y4056D01*
X2694Y4059D01*
X2707Y4067D01*
X2715Y4080D01*
X2718Y4094D01*
X2715Y4109D01*
X2713Y4113D01*
X2761Y4161D01*
X2768Y4163D01*
X2776Y4168D01*
X2894Y4286D01*
X2898Y4287D01*
X2901Y4286D01*
X2908Y4283D01*
X2908Y4280D01*
X2901Y4269D01*
X2898Y4254D01*
X2901Y4240D01*
X2909Y4227D01*
X2922Y4219D01*
X2936Y4216D01*
X2946Y4218D01*
X2952Y4206D01*
X2823Y4077D01*
X2818Y4070D01*
X2817Y4061D01*
Y4051D01*
X2813Y4048D01*
X2804Y4036D01*
X2801Y4021D01*
X2804Y4006D01*
X2813Y3994D01*
X2825Y3985D01*
X2840Y3982D01*
X2854Y3985D01*
X2867Y3994D01*
X2875Y4006D01*
X2878Y4021D01*
X2875Y4036D01*
X2867Y4048D01*
X2871Y4060D01*
X3182Y4371D01*
X3249D01*
X3252Y4367D01*
D02*
G37*
G36*
X5523Y5610D02*
X5531Y5605D01*
X5540Y5603D01*
X5770D01*
X5771Y5600D01*
Y4843D01*
X5767Y4840D01*
X5758Y4828D01*
X5757Y4824D01*
X5744Y4820D01*
X5626Y4937D01*
Y5182D01*
X5625Y5190D01*
X5620Y5198D01*
X5521Y5297D01*
X5527Y5308D01*
X5537Y5310D01*
X5545Y5316D01*
X5551Y5324D01*
X5553Y5334D01*
X5551Y5344D01*
X5545Y5352D01*
X5537Y5358D01*
X5527Y5360D01*
X5517Y5358D01*
X5509Y5352D01*
X5503Y5344D01*
X5501Y5334D01*
X5490Y5328D01*
X5410Y5407D01*
Y5439D01*
X5472Y5501D01*
X5477Y5508D01*
X5479Y5517D01*
Y5545D01*
X5483Y5548D01*
X5491Y5561D01*
X5494Y5575D01*
X5491Y5590D01*
X5483Y5602D01*
X5482Y5603D01*
X5486Y5616D01*
X5517D01*
X5523Y5610D01*
D02*
G37*
G36*
X4094Y4695D02*
Y4493D01*
X4076Y4474D01*
X4071Y4467D01*
X4069Y4458D01*
Y4445D01*
X4067Y4444D01*
X4056Y4440D01*
X4051Y4443D01*
X4041Y4445D01*
X4031Y4443D01*
X4023Y4438D01*
X4017Y4429D01*
X4015Y4420D01*
X4017Y4410D01*
X4023Y4401D01*
X4031Y4396D01*
X4041Y4394D01*
X4051Y4396D01*
X4056Y4399D01*
X4067Y4396D01*
X4069Y4394D01*
Y4382D01*
X4066Y4380D01*
X4057Y4376D01*
X4055Y4377D01*
X4051Y4380D01*
X4041Y4382D01*
X4031Y4380D01*
X4023Y4374D01*
X4017Y4366D01*
X4015Y4356D01*
X4017Y4346D01*
X4023Y4338D01*
X4031Y4332D01*
X4034Y4332D01*
X4042Y4328D01*
X4044Y4318D01*
X4043Y4317D01*
Y4251D01*
X4040Y4246D01*
X4038Y4237D01*
Y4218D01*
X3987Y4167D01*
X3982Y4159D01*
X3980Y4150D01*
Y3497D01*
X3976Y3494D01*
X3968Y3482D01*
X3965Y3467D01*
X3968Y3452D01*
X3976Y3440D01*
X3987Y3432D01*
X3988Y3426D01*
X3987Y3419D01*
X3981Y3414D01*
X3961Y3395D01*
X3949Y3401D01*
X3950Y3404D01*
Y4013D01*
X3948Y4022D01*
X3943Y4030D01*
X3910Y4063D01*
Y4203D01*
X3922Y4210D01*
X3922Y4210D01*
X3932Y4209D01*
X3942Y4210D01*
X3950Y4216D01*
X3956Y4224D01*
X3958Y4234D01*
X3956Y4244D01*
X3950Y4252D01*
X3942Y4258D01*
X3932Y4260D01*
X3922Y4258D01*
X3922Y4258D01*
X3910Y4265D01*
Y4325D01*
X3918Y4334D01*
X3923Y4341D01*
X3925Y4350D01*
Y4562D01*
X3943Y4581D01*
X3948Y4589D01*
X3950Y4597D01*
Y4614D01*
X3952Y4616D01*
X3967Y4617D01*
X3975Y4612D01*
X3985Y4610D01*
X3995Y4612D01*
X4003Y4617D01*
X4009Y4626D01*
X4011Y4635D01*
X4009Y4645D01*
X4009Y4646D01*
X4011Y4659D01*
X4013Y4660D01*
X4019Y4664D01*
X4055Y4701D01*
X4067Y4699D01*
X4081Y4702D01*
X4082Y4702D01*
X4094Y4695D01*
D02*
G37*
G36*
X2857Y4671D02*
Y4314D01*
X2782Y4239D01*
X2769Y4244D01*
X2769Y4244D01*
X2760Y4256D01*
X2756Y4259D01*
Y4588D01*
X2844Y4676D01*
X2857Y4671D01*
D02*
G37*
G36*
X3218Y3882D02*
Y3365D01*
X3220Y3357D01*
X3225Y3349D01*
X3231Y3343D01*
Y3311D01*
X3219Y3306D01*
X3171Y3354D01*
X3178Y3365D01*
X3187Y3367D01*
X3196Y3373D01*
X3201Y3381D01*
X3203Y3391D01*
X3201Y3401D01*
X3196Y3409D01*
X3187Y3415D01*
X3178Y3417D01*
X3168Y3415D01*
X3159Y3409D01*
X3154Y3401D01*
X3140Y3396D01*
X3137Y3397D01*
Y3521D01*
X3181Y3565D01*
X3186Y3573D01*
X3188Y3581D01*
Y3884D01*
X3190Y3886D01*
X3205Y3889D01*
X3205Y3889D01*
X3218Y3882D01*
D02*
G37*
G36*
X5826Y6197D02*
X5859Y6187D01*
X5890Y6171D01*
X5917Y6148D01*
X5939Y6121D01*
X5956Y6091D01*
X5966Y6057D01*
X5969Y6026D01*
X5968Y6022D01*
Y5043D01*
X5953Y5032D01*
X5943Y5017D01*
X5939Y4999D01*
X5940D01*
Y4450D01*
X5939D01*
X5943Y4432D01*
X5953Y4416D01*
X5968Y4406D01*
Y4058D01*
X5956Y4056D01*
X5955Y4061D01*
X5949Y4069D01*
X5941Y4075D01*
X5931Y4077D01*
Y4206D01*
X5937Y4212D01*
X5942Y4219D01*
X5944Y4228D01*
Y4290D01*
X5942Y4299D01*
X5937Y4307D01*
X5885Y4358D01*
Y5126D01*
X5883Y5135D01*
X5882Y5137D01*
X5883Y5144D01*
X5880Y5158D01*
X5872Y5171D01*
X5859Y5179D01*
X5845Y5182D01*
X5830Y5179D01*
X5821Y5187D01*
X5821Y5187D01*
X5821Y5191D01*
X5834Y5196D01*
X5835Y5196D01*
X5845Y5194D01*
X5854Y5196D01*
X5863Y5202D01*
X5868Y5210D01*
X5870Y5220D01*
X5868Y5230D01*
X5863Y5238D01*
X5854Y5243D01*
X5845Y5245D01*
X5835Y5243D01*
X5830Y5240D01*
X5819Y5244D01*
X5817Y5246D01*
Y5577D01*
X5821Y5578D01*
X5834Y5586D01*
X5842Y5599D01*
X5845Y5613D01*
X5842Y5628D01*
X5834Y5641D01*
X5821Y5649D01*
X5806Y5652D01*
X5793Y5649D01*
X5549D01*
X5543Y5655D01*
X5536Y5660D01*
X5527Y5662D01*
X5359D01*
X5347Y5674D01*
Y5693D01*
X5353Y5699D01*
X5358Y5706D01*
X5360Y5715D01*
Y5778D01*
X5358Y5787D01*
X5353Y5795D01*
X5347Y5801D01*
Y5879D01*
X5360Y5883D01*
X5362Y5880D01*
X5370Y5874D01*
X5380Y5872D01*
X5390Y5874D01*
X5398Y5880D01*
X5403Y5888D01*
X5405Y5898D01*
X5403Y5908D01*
X5398Y5916D01*
X5390Y5922D01*
X5380Y5924D01*
X5370Y5922D01*
X5362Y5916D01*
X5360Y5913D01*
X5347Y5917D01*
Y5982D01*
X5345Y5991D01*
X5340Y5998D01*
X5306Y6033D01*
X5381Y6107D01*
X5386Y6107D01*
X5398Y6099D01*
X5413Y6096D01*
X5427Y6099D01*
X5440Y6107D01*
X5448Y6119D01*
X5451Y6134D01*
X5448Y6149D01*
X5440Y6161D01*
X5427Y6170D01*
X5413Y6172D01*
X5398Y6170D01*
X5386Y6161D01*
X5383Y6157D01*
X5375D01*
X5366Y6155D01*
X5358Y6150D01*
X5263Y6056D01*
X5005D01*
X5005Y6056D01*
X4997Y6061D01*
X4988Y6063D01*
X4911D01*
X4903Y6061D01*
X4895Y6056D01*
X4869Y6030D01*
X3855D01*
X3852Y6034D01*
X3840Y6043D01*
X3825Y6045D01*
X3811Y6043D01*
X3798Y6034D01*
X3790Y6022D01*
X3787Y6007D01*
X3790Y5992D01*
X3798Y5980D01*
X3811Y5972D01*
X3825Y5969D01*
X3840Y5972D01*
X3852Y5980D01*
X3855Y5984D01*
X4879D01*
X4888Y5986D01*
X4893Y5989D01*
X4902Y5987D01*
X4906Y5985D01*
X4907Y5984D01*
X4912Y5976D01*
X4920Y5971D01*
X4930Y5969D01*
X4940Y5971D01*
X4948Y5976D01*
X4954Y5985D01*
X4956Y5994D01*
X4954Y6004D01*
X4954Y6004D01*
X4961Y6017D01*
X4979D01*
X4979Y6016D01*
X4987Y6011D01*
X4996Y6009D01*
X5019D01*
X5020Y6007D01*
X5024Y5997D01*
X5021Y5992D01*
X5019Y5982D01*
X5021Y5972D01*
X5026Y5964D01*
X5035Y5958D01*
X5044Y5956D01*
X5054Y5958D01*
X5063Y5964D01*
X5068Y5972D01*
X5070Y5982D01*
X5068Y5992D01*
X5065Y5997D01*
X5069Y6007D01*
X5070Y6009D01*
X5263D01*
X5301Y5972D01*
Y5791D01*
X5303Y5782D01*
X5308Y5775D01*
X5313Y5769D01*
Y5725D01*
X5308Y5719D01*
X5303Y5711D01*
X5301Y5702D01*
Y5664D01*
X5303Y5655D01*
X5308Y5648D01*
X5324Y5631D01*
X5319Y5618D01*
X5304D01*
Y5570D01*
Y5522D01*
X5359D01*
Y5570D01*
X5384D01*
Y5522D01*
X5410D01*
X5416Y5509D01*
X5371Y5465D01*
X5366Y5457D01*
X5364Y5448D01*
Y5397D01*
X5366Y5389D01*
X5371Y5381D01*
X5580Y5172D01*
Y4928D01*
X5582Y4919D01*
X5587Y4911D01*
X5771Y4728D01*
Y4683D01*
X5760Y4673D01*
X5756Y4674D01*
X5744Y4671D01*
X5740Y4676D01*
X5737Y4682D01*
X5741Y4689D01*
X5743Y4699D01*
X5741Y4709D01*
X5736Y4717D01*
X5727Y4723D01*
X5718Y4725D01*
X5708Y4723D01*
X5699Y4717D01*
X5694Y4709D01*
X5692Y4699D01*
X5694Y4689D01*
X5699Y4681D01*
X5708Y4675D01*
X5718Y4673D01*
X5723Y4675D01*
X5728Y4663D01*
X5728Y4663D01*
X5720Y4650D01*
X5717Y4635D01*
X5720Y4621D01*
X5728Y4608D01*
X5741Y4600D01*
X5756Y4597D01*
X5770Y4600D01*
X5783Y4608D01*
X5791Y4621D01*
X5793Y4632D01*
X5796Y4634D01*
X5809Y4628D01*
Y4216D01*
X5811Y4208D01*
X5816Y4200D01*
X5821Y4195D01*
X5816Y4183D01*
X5654D01*
X5651Y4181D01*
Y3970D01*
X5855D01*
Y3948D01*
X5845Y3937D01*
X5835Y3935D01*
X5826Y3930D01*
X5821Y3921D01*
X5819Y3912D01*
X5821Y3902D01*
X5826Y3893D01*
X5835Y3888D01*
X5845Y3886D01*
X5855Y3875D01*
Y3853D01*
X5841Y3839D01*
X5836Y3832D01*
X5834Y3823D01*
Y3538D01*
X5836Y3529D01*
X5841Y3522D01*
X5846Y3516D01*
X5844Y3505D01*
X5845Y3500D01*
X5822Y3477D01*
X5783D01*
Y3777D01*
X5471D01*
X5466Y3772D01*
Y3477D01*
X5464D01*
X5455Y3476D01*
X5449Y3472D01*
X5443Y3473D01*
X5436Y3476D01*
Y3835D01*
X5434Y3844D01*
X5429Y3852D01*
X5195Y4086D01*
Y4280D01*
X5193Y4289D01*
X5188Y4296D01*
X5069Y4415D01*
X5070Y4420D01*
X5067Y4434D01*
X5059Y4447D01*
X5046Y4455D01*
X5032Y4458D01*
X5017Y4455D01*
X5005Y4447D01*
X5004Y4446D01*
X4991Y4450D01*
Y4450D01*
X4990Y4459D01*
X4985Y4466D01*
X4951Y4500D01*
Y4595D01*
X4955Y4598D01*
X4963Y4611D01*
X4966Y4625D01*
X4963Y4640D01*
X4955Y4652D01*
X4942Y4661D01*
X4928Y4664D01*
X4913Y4661D01*
X4900Y4652D01*
X4892Y4640D01*
X4889Y4625D01*
X4892Y4611D01*
X4900Y4598D01*
X4905Y4595D01*
Y4491D01*
X4906Y4482D01*
X4911Y4474D01*
X4918Y4468D01*
X4911Y4457D01*
X4905Y4458D01*
X4895Y4456D01*
X4887Y4450D01*
X4881Y4442D01*
X4879Y4432D01*
X4881Y4422D01*
X4887Y4414D01*
X4895Y4409D01*
X4905Y4407D01*
X4915Y4409D01*
X4923Y4414D01*
X4928Y4422D01*
X4929Y4428D01*
X4940Y4434D01*
X4943Y4435D01*
X4945Y4433D01*
Y4343D01*
X4947Y4335D01*
X4952Y4327D01*
X4966Y4313D01*
X4965Y4308D01*
X4952Y4304D01*
X4941Y4314D01*
X4940Y4320D01*
X4932Y4332D01*
X4919Y4341D01*
X4905Y4344D01*
X4890Y4341D01*
X4878Y4332D01*
X4869Y4320D01*
X4866Y4305D01*
X4869Y4291D01*
X4878Y4278D01*
X4890Y4270D01*
X4905Y4267D01*
X4914Y4269D01*
X4923Y4260D01*
X4915Y4253D01*
X4905Y4255D01*
X4895Y4253D01*
X4887Y4247D01*
X4881Y4239D01*
X4879Y4229D01*
X4881Y4219D01*
X4887Y4211D01*
X4895Y4205D01*
X4905Y4203D01*
X4915Y4205D01*
X4920Y4209D01*
X4930Y4205D01*
X4932Y4203D01*
Y4157D01*
X4920Y4150D01*
X4919Y4150D01*
X4905Y4153D01*
X4890Y4150D01*
X4878Y4142D01*
X4869Y4129D01*
X4866Y4115D01*
X4869Y4100D01*
X4878Y4088D01*
X4882Y4085D01*
Y3807D01*
X4874Y3803D01*
X4869Y3802D01*
X4852Y3820D01*
Y4356D01*
X4850Y4365D01*
X4845Y4372D01*
X4790Y4427D01*
X4791Y4432D01*
X4788Y4447D01*
X4779Y4459D01*
X4767Y4468D01*
X4752Y4471D01*
X4738Y4468D01*
X4725Y4459D01*
X4720Y4452D01*
X4707Y4446D01*
X4692Y4449D01*
X4677Y4446D01*
X4665Y4438D01*
X4657Y4425D01*
X4654Y4410D01*
X4657Y4396D01*
X4665Y4383D01*
X4677Y4375D01*
X4692Y4372D01*
X4697Y4373D01*
X4709Y4361D01*
Y4358D01*
X4711Y4349D01*
X4716Y4341D01*
X4735Y4322D01*
X4743Y4317D01*
X4751Y4315D01*
X4754D01*
X4767Y4302D01*
Y4157D01*
X4755Y4150D01*
X4754Y4150D01*
X4740Y4153D01*
X4725Y4150D01*
X4712Y4142D01*
X4704Y4129D01*
X4701Y4115D01*
X4702Y4112D01*
X4691Y4100D01*
X4636D01*
Y4136D01*
X4634Y4144D01*
X4629Y4152D01*
X4628Y4155D01*
X4623Y4163D01*
X4614Y4172D01*
X4607Y4177D01*
X4599Y4179D01*
X4578Y4200D01*
Y4210D01*
X4579Y4212D01*
X4589Y4220D01*
X4595Y4219D01*
X4609Y4222D01*
X4620Y4229D01*
X4628Y4241D01*
X4631Y4254D01*
X4628Y4268D01*
X4624Y4274D01*
X4629Y4288D01*
X4629Y4288D01*
X4640Y4295D01*
X4648Y4307D01*
X4651Y4321D01*
X4648Y4334D01*
X4640Y4346D01*
X4629Y4354D01*
X4615Y4356D01*
X4602Y4354D01*
X4590Y4346D01*
X4582Y4334D01*
X4579Y4321D01*
X4582Y4307D01*
X4586Y4301D01*
X4581Y4287D01*
X4581Y4287D01*
X4570Y4280D01*
X4562Y4268D01*
X4560Y4257D01*
X4553Y4253D01*
X4547Y4251D01*
X4534Y4264D01*
Y4365D01*
X4547Y4372D01*
X4547Y4371D01*
X4562Y4369D01*
X4577Y4371D01*
X4589Y4380D01*
X4597Y4392D01*
X4600Y4407D01*
X4597Y4422D01*
X4589Y4434D01*
X4585Y4437D01*
Y4550D01*
X4611Y4576D01*
X4616Y4583D01*
X4617Y4592D01*
Y4684D01*
X4692Y4759D01*
X4697Y4766D01*
X4699Y4775D01*
Y4970D01*
X4712Y4971D01*
X4713Y4964D01*
X4719Y4955D01*
X4727Y4950D01*
X4737Y4948D01*
X4747Y4950D01*
X4755Y4955D01*
X4761Y4964D01*
X4763Y4973D01*
X4761Y4983D01*
X4755Y4991D01*
X4747Y4997D01*
X4737Y4999D01*
X4727Y4997D01*
X4719Y4991D01*
X4713Y4983D01*
X4712Y4976D01*
X4699Y4977D01*
Y5063D01*
X4703Y5066D01*
X4712Y5078D01*
X4715Y5093D01*
X4712Y5107D01*
X4703Y5120D01*
X4691Y5128D01*
X4676Y5131D01*
X4661Y5128D01*
X4661Y5128D01*
X4648Y5135D01*
Y5253D01*
X4652Y5256D01*
X4661Y5269D01*
X4664Y5283D01*
X4661Y5298D01*
X4652Y5310D01*
X4640Y5319D01*
X4625Y5322D01*
X4611Y5319D01*
X4598Y5310D01*
X4590Y5298D01*
X4587Y5283D01*
X4590Y5269D01*
X4598Y5256D01*
X4602Y5253D01*
Y4992D01*
X4600Y4990D01*
X4590Y4986D01*
X4584Y4989D01*
X4575Y4991D01*
X4565Y4989D01*
X4560Y4986D01*
X4549Y4990D01*
X4547Y4992D01*
Y5080D01*
X4545Y5089D01*
X4540Y5096D01*
X4421Y5215D01*
X4422Y5220D01*
X4422Y5224D01*
X4427Y5237D01*
X4431Y5239D01*
X4435Y5242D01*
X4441Y5251D01*
X4443Y5260D01*
X4441Y5270D01*
X4435Y5278D01*
X4427Y5284D01*
X4417Y5286D01*
X4407Y5284D01*
X4399Y5278D01*
X4393Y5270D01*
X4391Y5260D01*
X4379Y5257D01*
X4369Y5255D01*
X4357Y5247D01*
X4349Y5234D01*
X4346Y5220D01*
X4349Y5205D01*
X4357Y5193D01*
X4369Y5184D01*
X4384Y5181D01*
X4389Y5182D01*
X4501Y5070D01*
Y4836D01*
X4457Y4792D01*
X4452Y4784D01*
X4450Y4775D01*
Y4216D01*
X4452Y4208D01*
X4457Y4200D01*
X4461Y4196D01*
X4460Y4191D01*
X4463Y4176D01*
X4471Y4164D01*
X4484Y4156D01*
X4498Y4153D01*
X4513Y4156D01*
X4525Y4164D01*
X4532Y4162D01*
X4530Y4150D01*
X4530Y4150D01*
X4521Y4137D01*
X4518Y4122D01*
X4521Y4108D01*
X4530Y4095D01*
X4534Y4093D01*
Y3751D01*
X4534Y3751D01*
X4307Y3524D01*
X4293Y3528D01*
X4293Y3528D01*
X4288Y3536D01*
X4280Y3542D01*
X4270Y3544D01*
X4260Y3542D01*
X4257Y3540D01*
X4245Y3547D01*
Y4136D01*
X4257Y4138D01*
X4260Y4126D01*
X4268Y4113D01*
X4280Y4105D01*
X4295Y4102D01*
X4310Y4105D01*
X4322Y4113D01*
X4331Y4126D01*
X4334Y4140D01*
X4331Y4155D01*
X4322Y4167D01*
X4318Y4170D01*
Y4435D01*
X4350Y4467D01*
X4355Y4474D01*
X4356Y4483D01*
Y4847D01*
X4360Y4850D01*
X4369Y4862D01*
X4372Y4877D01*
X4369Y4891D01*
X4360Y4904D01*
X4348Y4912D01*
X4333Y4915D01*
X4319Y4912D01*
X4306Y4904D01*
X4298Y4891D01*
X4295Y4877D01*
X4298Y4862D01*
X4306Y4850D01*
X4310Y4847D01*
Y4493D01*
X4279Y4461D01*
X4274Y4454D01*
X4272Y4445D01*
Y4170D01*
X4268Y4167D01*
X4260Y4155D01*
X4257Y4143D01*
X4245Y4144D01*
Y4407D01*
X4244Y4408D01*
X4244Y4409D01*
X4243Y4412D01*
X4243Y4413D01*
X4245Y4420D01*
X4242Y4434D01*
X4233Y4447D01*
X4221Y4455D01*
X4206Y4458D01*
X4192Y4455D01*
X4179Y4447D01*
X4171Y4434D01*
X4168Y4420D01*
X4166Y4418D01*
X4155Y4420D01*
X4141Y4417D01*
X4128Y4409D01*
X4128Y4408D01*
X4115Y4412D01*
Y4448D01*
X4134Y4467D01*
X4139Y4474D01*
X4140Y4483D01*
Y4762D01*
X4139Y4771D01*
X4134Y4779D01*
X4090Y4823D01*
Y5067D01*
X4092Y5069D01*
X4102Y5072D01*
X4108Y5069D01*
X4117Y5067D01*
X4127Y5069D01*
X4135Y5075D01*
X4141Y5083D01*
X4143Y5093D01*
X4141Y5103D01*
X4135Y5111D01*
X4127Y5116D01*
X4117Y5118D01*
X4108Y5116D01*
X4098Y5125D01*
X4097Y5128D01*
X4097Y5129D01*
X4355Y5387D01*
X4634D01*
X4642Y5389D01*
X4650Y5394D01*
X4727Y5471D01*
X4883D01*
X4891Y5458D01*
X4889Y5448D01*
X4892Y5434D01*
X4900Y5421D01*
X4913Y5413D01*
X4928Y5410D01*
X4932Y5411D01*
X4992Y5351D01*
X5000Y5346D01*
X5003Y5345D01*
X5110Y5238D01*
Y4986D01*
X5112Y4977D01*
X5117Y4970D01*
X5212Y4875D01*
Y4674D01*
X5214Y4665D01*
X5216Y4662D01*
X5215Y4660D01*
X5214Y4657D01*
X5212Y4646D01*
X5200Y4648D01*
X5197Y4648D01*
X5182Y4646D01*
X5171Y4638D01*
X5163Y4640D01*
X5158Y4642D01*
X5157Y4645D01*
X5151Y4654D01*
X5143Y4659D01*
X5133Y4661D01*
X5124Y4659D01*
X5115Y4654D01*
X5110Y4645D01*
X5108Y4635D01*
X5110Y4626D01*
X5115Y4617D01*
X5124Y4612D01*
X5133Y4610D01*
X5143Y4612D01*
X5146Y4614D01*
X5151Y4612D01*
X5159Y4607D01*
X5161Y4595D01*
X5170Y4583D01*
X5182Y4575D01*
X5197Y4572D01*
X5202Y4573D01*
X5219Y4556D01*
X5226Y4551D01*
X5235Y4549D01*
X5298D01*
X5307Y4551D01*
X5315Y4556D01*
X5378Y4619D01*
X5383Y4627D01*
X5385Y4635D01*
Y5007D01*
X5480Y5102D01*
X5485Y5109D01*
X5487Y5118D01*
Y5182D01*
X5485Y5190D01*
X5480Y5198D01*
X5454Y5223D01*
X5447Y5228D01*
X5438Y5230D01*
X5371D01*
X5240Y5362D01*
X5245Y5370D01*
X5248Y5385D01*
X5245Y5399D01*
X5237Y5412D01*
X5224Y5420D01*
X5210Y5423D01*
X5195Y5420D01*
X5182Y5412D01*
X5174Y5399D01*
X5171Y5385D01*
X5174Y5370D01*
X5182Y5358D01*
X5188Y5354D01*
X5188Y5351D01*
X5193Y5343D01*
X5346Y5191D01*
X5353Y5186D01*
X5362Y5184D01*
X5387D01*
X5389Y5182D01*
X5393Y5171D01*
X5389Y5166D01*
X5387Y5156D01*
X5389Y5146D01*
X5395Y5138D01*
X5403Y5133D01*
X5413Y5131D01*
X5423Y5133D01*
X5433Y5124D01*
X5433Y5121D01*
X5433Y5120D01*
X5346Y5033D01*
X5341Y5025D01*
X5339Y5017D01*
Y4645D01*
X5289Y4595D01*
X5254D01*
X5253Y4608D01*
X5265Y4610D01*
X5277Y4619D01*
X5286Y4631D01*
X5289Y4646D01*
X5288Y4649D01*
X5286Y4660D01*
X5297Y4663D01*
X5300Y4664D01*
X5313Y4672D01*
X5321Y4684D01*
X5324Y4699D01*
X5321Y4714D01*
X5313Y4726D01*
X5309Y4729D01*
Y5078D01*
X5319Y5087D01*
X5333Y5090D01*
X5346Y5099D01*
X5354Y5111D01*
X5357Y5126D01*
X5354Y5140D01*
X5346Y5153D01*
X5333Y5161D01*
X5319Y5164D01*
X5304Y5161D01*
X5292Y5153D01*
X5283Y5140D01*
X5280Y5126D01*
X5281Y5120D01*
X5270Y5110D01*
X5270Y5109D01*
X5269Y5109D01*
X5267Y5106D01*
X5265Y5102D01*
X5265Y5102D01*
X5264Y5102D01*
X5264Y5098D01*
X5263Y5094D01*
X5263Y5093D01*
X5263Y5093D01*
Y4906D01*
X5255Y4903D01*
X5250Y4902D01*
X5156Y4996D01*
Y5240D01*
X5157Y5241D01*
X5159Y5250D01*
Y5428D01*
X5218Y5488D01*
X5224Y5489D01*
X5237Y5497D01*
X5245Y5510D01*
X5247Y5522D01*
X5278D01*
Y5558D01*
X5232D01*
X5230Y5556D01*
X5224Y5560D01*
X5211Y5563D01*
X5210Y5563D01*
X5208Y5565D01*
X5201Y5574D01*
X5202Y5578D01*
X5200Y5588D01*
X5195Y5596D01*
X5186Y5602D01*
X5177Y5603D01*
X5167Y5602D01*
X5158Y5596D01*
X5153Y5588D01*
X5151Y5578D01*
X5153Y5568D01*
X5158Y5560D01*
X5167Y5554D01*
X5169Y5554D01*
X5174Y5540D01*
X5174Y5539D01*
X5171Y5524D01*
X5174Y5510D01*
X5174Y5509D01*
X5117Y5452D01*
X5112Y5444D01*
X5110Y5436D01*
X5112Y5427D01*
X5112Y5426D01*
Y5408D01*
X5100Y5401D01*
X5100Y5401D01*
X5090Y5403D01*
X5080Y5401D01*
X5072Y5395D01*
X5066Y5387D01*
X5065Y5377D01*
X5066Y5367D01*
X5071Y5361D01*
X5061Y5352D01*
X5030Y5384D01*
X5023Y5389D01*
X5019Y5389D01*
X4999Y5410D01*
X5007Y5420D01*
X5017Y5413D01*
X5032Y5410D01*
X5046Y5413D01*
X5059Y5421D01*
X5067Y5434D01*
X5070Y5448D01*
X5067Y5463D01*
X5059Y5475D01*
X5046Y5484D01*
X5032Y5487D01*
X5027Y5486D01*
X5003Y5510D01*
X4995Y5515D01*
X4986Y5517D01*
X4734D01*
X4727Y5524D01*
X4725Y5534D01*
X4720Y5543D01*
X4711Y5548D01*
X4702Y5550D01*
X4692Y5548D01*
X4683Y5543D01*
X4678Y5534D01*
X4676Y5524D01*
X4678Y5515D01*
X4683Y5506D01*
X4685Y5494D01*
X4624Y5433D01*
X4346D01*
X4337Y5432D01*
X4330Y5427D01*
X4050Y5147D01*
X4045Y5140D01*
X4043Y5131D01*
Y4813D01*
X4045Y4804D01*
X4050Y4797D01*
X4060Y4787D01*
X4056Y4773D01*
X4052Y4773D01*
X4039Y4764D01*
X4031Y4752D01*
X4029Y4739D01*
X3993Y4704D01*
X3967D01*
X3958Y4702D01*
X3950Y4697D01*
X3911Y4657D01*
X3906Y4650D01*
X3904Y4641D01*
Y4607D01*
X3885Y4588D01*
X3880Y4581D01*
X3878Y4572D01*
Y4395D01*
X3876Y4393D01*
X3866Y4389D01*
X3860Y4392D01*
X3851Y4394D01*
X3841Y4392D01*
X3833Y4387D01*
X3827Y4379D01*
X3825Y4369D01*
X3827Y4359D01*
X3833Y4351D01*
X3841Y4345D01*
X3851Y4343D01*
X3852Y4343D01*
X3859Y4338D01*
X3864Y4333D01*
Y4053D01*
X3865Y4045D01*
X3870Y4037D01*
X3904Y4004D01*
Y3419D01*
X3901Y3417D01*
X3887Y3414D01*
X3874Y3405D01*
X3874Y3404D01*
X3861Y3408D01*
Y4008D01*
X3859Y4017D01*
X3854Y4024D01*
X3739Y4140D01*
Y4631D01*
X3897Y4789D01*
X3901Y4788D01*
X3916Y4791D01*
X3929Y4799D01*
X3937Y4811D01*
X3940Y4826D01*
X3937Y4841D01*
X3929Y4853D01*
X3916Y4861D01*
X3901Y4864D01*
X3887Y4861D01*
X3874Y4853D01*
X3866Y4841D01*
X3863Y4826D01*
X3864Y4821D01*
X3700Y4657D01*
X3695Y4649D01*
X3693Y4641D01*
Y4130D01*
X3695Y4121D01*
X3700Y4114D01*
X3815Y3999D01*
Y3368D01*
X3815Y3368D01*
X3815Y3367D01*
X3816Y3363D01*
X3810Y3355D01*
X3807Y3340D01*
X3810Y3325D01*
X3818Y3313D01*
X3831Y3305D01*
X3846Y3302D01*
X3860Y3305D01*
X3873Y3313D01*
X3881Y3325D01*
X3882Y3332D01*
X3886Y3340D01*
X3896Y3341D01*
X3901Y3340D01*
X3916Y3343D01*
X3929Y3351D01*
X3929Y3352D01*
X3942Y3348D01*
Y3319D01*
X3938Y3316D01*
X3929Y3304D01*
X3927Y3289D01*
X3929Y3275D01*
X3938Y3262D01*
X3950Y3254D01*
X3965Y3251D01*
X3980Y3254D01*
X3992Y3262D01*
X4000Y3275D01*
X4003Y3289D01*
X4000Y3304D01*
X4000Y3305D01*
X4007Y3315D01*
X4013Y3315D01*
X4016Y3314D01*
X4019Y3315D01*
X4019Y3315D01*
X4030Y3304D01*
X4028Y3297D01*
X4031Y3282D01*
X4039Y3270D01*
X4052Y3261D01*
X4067Y3259D01*
X4081Y3261D01*
X4094Y3270D01*
X4096Y3274D01*
X4100D01*
X4108Y3276D01*
X4116Y3281D01*
X4184Y3349D01*
X4186Y3351D01*
X4198Y3347D01*
Y3283D01*
X4192Y3278D01*
X4183Y3266D01*
X4181Y3251D01*
X4183Y3237D01*
X4192Y3224D01*
X4204Y3216D01*
X4219Y3213D01*
X4234Y3216D01*
X4246Y3224D01*
X4249Y3229D01*
X4255Y3236D01*
X4265Y3233D01*
X4275Y3231D01*
X4285Y3233D01*
X4292Y3237D01*
X4297Y3236D01*
X4305Y3233D01*
Y3209D01*
X4303Y3208D01*
X4292Y3203D01*
X4287Y3206D01*
X4277Y3208D01*
X4268Y3206D01*
X4259Y3201D01*
X4254Y3192D01*
X4252Y3183D01*
X4254Y3173D01*
X4259Y3164D01*
X4268Y3159D01*
X4277Y3157D01*
X4287Y3159D01*
X4297Y3150D01*
X4297Y3149D01*
X4168Y3019D01*
X4163Y3020D01*
X4148Y3017D01*
X4136Y3009D01*
X4128Y2997D01*
X4125Y2982D01*
X4127Y2969D01*
X4120Y2957D01*
X3962D01*
X3943Y2975D01*
X3936Y2980D01*
X3927Y2982D01*
X3861D01*
X3857Y2992D01*
X3856Y2995D01*
X3862Y3003D01*
X3864Y3012D01*
X3862Y3022D01*
X3856Y3031D01*
X3848Y3036D01*
X3838Y3038D01*
X3828Y3036D01*
X3820Y3031D01*
X3814Y3022D01*
X3812Y3012D01*
X3814Y3003D01*
X3819Y2995D01*
X3819Y2992D01*
X3815Y2982D01*
X3698D01*
X3689Y2980D01*
X3682Y2975D01*
X3618Y2912D01*
X3618Y2911D01*
X3572D01*
X3569Y2916D01*
X3567Y2924D01*
X3574Y2934D01*
X3577Y2949D01*
X3574Y2964D01*
X3565Y2976D01*
X3553Y2984D01*
X3538Y2987D01*
X3524Y2984D01*
X3511Y2976D01*
X3503Y2964D01*
X3502Y2962D01*
X3171D01*
X3147Y2987D01*
X3155Y2996D01*
X3165Y2990D01*
X3180Y2987D01*
X3195Y2990D01*
X3207Y2998D01*
X3216Y3010D01*
X3228Y3010D01*
X3238Y3012D01*
X3246Y3017D01*
X3252Y3025D01*
X3254Y3035D01*
X3252Y3045D01*
X3246Y3053D01*
X3238Y3059D01*
X3228Y3061D01*
X3219Y3059D01*
X3210Y3053D01*
X3198Y3058D01*
X3195Y3061D01*
X3189Y3062D01*
X3184Y3076D01*
X3188Y3082D01*
X3189Y3087D01*
X3203Y3096D01*
X3207Y3095D01*
X3214Y3084D01*
X3226Y3076D01*
X3241Y3073D01*
X3256Y3076D01*
X3266Y3083D01*
X3275Y3082D01*
X3280Y3079D01*
X3282Y3071D01*
X3290Y3059D01*
X3303Y3051D01*
X3317Y3048D01*
X3332Y3051D01*
X3344Y3059D01*
X3348Y3064D01*
X3361D01*
X3370Y3054D01*
X3370Y3041D01*
X3370Y3041D01*
X3365Y3032D01*
X3363Y3023D01*
X3365Y3013D01*
X3370Y3004D01*
X3379Y2999D01*
X3388Y2997D01*
X3398Y2999D01*
X3406Y3004D01*
X3412Y3013D01*
X3414Y3023D01*
X3412Y3032D01*
X3408Y3038D01*
X3408Y3045D01*
X3411Y3053D01*
X3421Y3059D01*
X3421Y3059D01*
X3437Y3061D01*
X3458Y3040D01*
X3457Y3035D01*
X3460Y3021D01*
X3468Y3008D01*
X3480Y3000D01*
X3495Y2997D01*
X3510Y3000D01*
X3522Y3008D01*
X3531Y3021D01*
X3533Y3035D01*
X3531Y3050D01*
X3522Y3062D01*
X3521Y3063D01*
X3520Y3065D01*
X3522Y3078D01*
X3526Y3081D01*
X3531Y3089D01*
X3533Y3099D01*
X3531Y3109D01*
X3526Y3117D01*
X3518Y3123D01*
X3508Y3124D01*
X3498Y3123D01*
X3490Y3117D01*
X3484Y3109D01*
X3470Y3104D01*
X3467Y3105D01*
Y3260D01*
X3480Y3267D01*
X3480Y3267D01*
X3495Y3264D01*
X3510Y3267D01*
X3522Y3275D01*
X3531Y3287D01*
X3533Y3302D01*
X3531Y3315D01*
X3532Y3318D01*
X3538Y3328D01*
X3543Y3329D01*
X3551Y3335D01*
X3557Y3343D01*
X3559Y3353D01*
X3557Y3363D01*
X3551Y3371D01*
X3543Y3376D01*
X3533Y3378D01*
X3523Y3376D01*
X3515Y3371D01*
X3510Y3363D01*
X3509Y3363D01*
X3496Y3359D01*
X3480Y3375D01*
Y3673D01*
X3528Y3722D01*
X3533Y3721D01*
X3548Y3724D01*
X3560Y3732D01*
X3569Y3745D01*
X3572Y3759D01*
X3569Y3774D01*
X3560Y3786D01*
X3548Y3795D01*
X3533Y3798D01*
X3518Y3795D01*
X3506Y3786D01*
X3498Y3774D01*
X3495Y3759D01*
X3496Y3754D01*
X3454Y3712D01*
X3442Y3717D01*
Y3739D01*
X3446Y3742D01*
X3454Y3755D01*
X3457Y3769D01*
X3454Y3784D01*
X3446Y3797D01*
X3434Y3805D01*
X3419Y3808D01*
X3404Y3805D01*
X3392Y3797D01*
X3383Y3784D01*
X3380Y3769D01*
X3383Y3755D01*
X3392Y3742D01*
X3396Y3739D01*
Y3340D01*
X3398Y3331D01*
X3401Y3326D01*
X3397Y3318D01*
X3393Y3315D01*
X3393Y3315D01*
X3384Y3313D01*
X3375Y3307D01*
X3370Y3299D01*
X3368Y3289D01*
X3370Y3279D01*
X3375Y3271D01*
X3384Y3266D01*
X3393Y3264D01*
X3403Y3266D01*
X3408Y3269D01*
X3419Y3265D01*
X3421Y3263D01*
Y3222D01*
X3414Y3219D01*
X3408Y3218D01*
X3353Y3273D01*
Y3739D01*
X3357Y3742D01*
X3365Y3755D01*
X3368Y3769D01*
X3365Y3784D01*
X3357Y3797D01*
X3345Y3805D01*
X3330Y3808D01*
X3315Y3805D01*
X3315Y3805D01*
X3302Y3811D01*
Y4098D01*
X3315Y4110D01*
X3328Y4106D01*
X3329Y4102D01*
X3335Y4094D01*
X3343Y4089D01*
X3353Y4087D01*
X3363Y4089D01*
X3371Y4094D01*
X3376Y4102D01*
X3378Y4112D01*
X3376Y4122D01*
X3371Y4130D01*
X3363Y4136D01*
X3353Y4138D01*
X3352Y4138D01*
X3346Y4141D01*
X3340Y4148D01*
Y4201D01*
X3348Y4212D01*
X3351Y4227D01*
X3348Y4241D01*
X3339Y4254D01*
X3327Y4262D01*
X3312Y4265D01*
X3297Y4262D01*
X3285Y4254D01*
X3277Y4241D01*
X3274Y4228D01*
X3273Y4225D01*
X3263Y4216D01*
X3252Y4214D01*
X3239Y4205D01*
X3231Y4193D01*
X3228Y4178D01*
X3229Y4175D01*
X3226Y4173D01*
X3225Y4172D01*
X3225Y4172D01*
X3223Y4169D01*
X3220Y4165D01*
X3220Y4165D01*
X3220Y4164D01*
X3219Y4160D01*
X3218Y4157D01*
X3218Y4156D01*
X3218Y4155D01*
Y4117D01*
X3205Y4113D01*
X3205Y4114D01*
X3189Y4125D01*
X3170Y4129D01*
X3151Y4125D01*
X3135Y4114D01*
X3125Y4098D01*
X3121Y4080D01*
X3125Y4061D01*
X3135Y4045D01*
X3151Y4035D01*
X3170Y4031D01*
X3189Y4035D01*
X3205Y4045D01*
X3205Y4046D01*
X3218Y4042D01*
Y3966D01*
X3205Y3960D01*
X3205Y3960D01*
X3190Y3963D01*
X3176Y3960D01*
X3163Y3951D01*
X3155Y3939D01*
X3152Y3924D01*
X3153Y3919D01*
X3149Y3915D01*
X3144Y3908D01*
X3142Y3899D01*
Y3870D01*
X3130Y3865D01*
X2998Y3999D01*
X2998Y3999D01*
X2998Y3999D01*
X2995Y4002D01*
X2995Y4015D01*
X3041Y4061D01*
X3045D01*
X3054Y4063D01*
X3061Y4068D01*
X3389Y4395D01*
X3393Y4394D01*
X3408Y4397D01*
X3421Y4405D01*
X3429Y4418D01*
X3432Y4432D01*
X3429Y4447D01*
X3421Y4459D01*
X3408Y4468D01*
X3393Y4471D01*
X3379Y4468D01*
X3366Y4459D01*
X3358Y4447D01*
X3355Y4432D01*
X3356Y4427D01*
X3329Y4401D01*
X3315Y4405D01*
X3315Y4409D01*
X3306Y4421D01*
X3294Y4430D01*
X3279Y4433D01*
X3264Y4430D01*
X3252Y4421D01*
X3249Y4417D01*
X3173D01*
X3164Y4416D01*
X3157Y4411D01*
X2984Y4238D01*
X2973Y4245D01*
X2975Y4254D01*
X2972Y4269D01*
X2963Y4282D01*
X2959Y4284D01*
Y5101D01*
X2963Y5104D01*
X2972Y5116D01*
X2975Y5131D01*
X2972Y5145D01*
X2963Y5158D01*
X2951Y5166D01*
X2936Y5169D01*
X2922Y5166D01*
X2909Y5158D01*
X2901Y5145D01*
X2898Y5131D01*
X2899Y5123D01*
X2888Y5115D01*
X2887Y5115D01*
X2873Y5118D01*
X2858Y5115D01*
X2846Y5107D01*
X2837Y5095D01*
X2834Y5080D01*
X2837Y5065D01*
X2846Y5053D01*
X2857Y5045D01*
Y4858D01*
X2844Y4850D01*
X2835Y4852D01*
X2820Y4849D01*
X2807Y4840D01*
X2799Y4828D01*
X2796Y4813D01*
X2799Y4799D01*
X2807Y4786D01*
X2812Y4783D01*
Y4755D01*
X2799Y4751D01*
X2798Y4752D01*
X2786Y4760D01*
X2771Y4763D01*
X2756Y4760D01*
X2744Y4752D01*
X2736Y4739D01*
X2733Y4724D01*
X2734Y4720D01*
X2717Y4703D01*
X2705Y4708D01*
Y4982D01*
X2749Y5026D01*
X2754Y5033D01*
X2756Y5042D01*
Y5156D01*
X2754Y5165D01*
X2749Y5173D01*
X2743Y5178D01*
Y5553D01*
X2754Y5563D01*
X2758Y5562D01*
X2773Y5565D01*
X2786Y5574D01*
X2794Y5586D01*
X2797Y5601D01*
X2794Y5615D01*
X2786Y5628D01*
X2773Y5636D01*
X2758Y5639D01*
X2744Y5636D01*
X2731Y5628D01*
X2723Y5615D01*
X2720Y5601D01*
X2721Y5596D01*
X2704Y5579D01*
X2699Y5571D01*
X2697Y5563D01*
Y5169D01*
X2699Y5160D01*
X2704Y5153D01*
X2710Y5147D01*
Y5051D01*
X2666Y5007D01*
X2661Y5000D01*
X2659Y4991D01*
Y4635D01*
Y4218D01*
X2624Y4184D01*
X2612Y4189D01*
Y4406D01*
X2614Y4406D01*
X2630Y4416D01*
X2640Y4432D01*
X2644Y4450D01*
X2643D01*
Y4999D01*
X2644D01*
X2640Y5017D01*
X2630Y5032D01*
X2614Y5043D01*
X2612Y5043D01*
Y6015D01*
X2613Y6022D01*
X2613D01*
X2613Y6022D01*
X2617Y6057D01*
X2627Y6091D01*
X2643Y6121D01*
X2665Y6148D01*
X2692Y6171D01*
X2723Y6187D01*
X2757Y6197D01*
X2784Y6200D01*
X2791Y6198D01*
X5791D01*
X5799Y6200D01*
X5826Y6197D01*
D02*
G37*
G36*
X3936Y2917D02*
X3943Y2912D01*
X3952Y2911D01*
X4022D01*
X4031Y2898D01*
X4030Y2895D01*
X4032Y2885D01*
X4038Y2877D01*
X4046Y2871D01*
X4055Y2869D01*
X4055Y2869D01*
X4057Y2866D01*
X4061Y2857D01*
X4054Y2847D01*
X3307D01*
X3301Y2859D01*
X3305Y2865D01*
X3635D01*
X3644Y2867D01*
X3651Y2872D01*
X3656Y2879D01*
X3657Y2886D01*
X3708Y2936D01*
X3917D01*
X3936Y2917D01*
D02*
G37*
%LPC*%
G36*
X5451Y4458D02*
X5441Y4456D01*
X5433Y4450D01*
X5427Y4442D01*
X5425Y4432D01*
X5427Y4422D01*
X5433Y4414D01*
X5441Y4409D01*
X5451Y4407D01*
X5461Y4409D01*
X5469Y4414D01*
X5475Y4422D01*
X5476Y4432D01*
X5475Y4442D01*
X5469Y4450D01*
X5461Y4456D01*
X5451Y4458D01*
D02*
G37*
G36*
X5387Y4445D02*
X5378Y4443D01*
X5369Y4438D01*
X5364Y4429D01*
X5362Y4420D01*
X5364Y4410D01*
X5369Y4401D01*
X5378Y4396D01*
X5387Y4394D01*
X5397Y4396D01*
X5405Y4401D01*
X5411Y4410D01*
X5413Y4420D01*
X5411Y4429D01*
X5405Y4438D01*
X5397Y4443D01*
X5387Y4445D01*
D02*
G37*
G36*
X5748Y4478D02*
X5738Y4476D01*
X5730Y4471D01*
X5724Y4462D01*
X5722Y4453D01*
X5724Y4443D01*
X5730Y4434D01*
X5738Y4429D01*
X5748Y4427D01*
X5758Y4429D01*
X5766Y4434D01*
X5772Y4443D01*
X5774Y4453D01*
X5772Y4462D01*
X5766Y4471D01*
X5758Y4476D01*
X5748Y4478D01*
D02*
G37*
G36*
X3838Y4471D02*
X3828Y4469D01*
X3820Y4463D01*
X3814Y4455D01*
X3812Y4445D01*
X3814Y4435D01*
X3820Y4427D01*
X3828Y4421D01*
X3838Y4419D01*
X3848Y4421D01*
X3856Y4427D01*
X3862Y4435D01*
X3864Y4445D01*
X3862Y4455D01*
X3856Y4463D01*
X3848Y4469D01*
X3838Y4471D01*
D02*
G37*
G36*
X3965Y4445D02*
X3955Y4443D01*
X3947Y4438D01*
X3941Y4429D01*
X3939Y4420D01*
X3941Y4410D01*
X3947Y4401D01*
X3955Y4396D01*
X3965Y4394D01*
X3975Y4396D01*
X3983Y4401D01*
X3989Y4410D01*
X3991Y4420D01*
X3989Y4429D01*
X3983Y4438D01*
X3975Y4443D01*
X3965Y4445D01*
D02*
G37*
G36*
X3089D02*
X3079Y4443D01*
X3071Y4438D01*
X3065Y4429D01*
X3063Y4420D01*
X3065Y4410D01*
X3071Y4401D01*
X3079Y4396D01*
X3089Y4394D01*
X3098Y4396D01*
X3107Y4401D01*
X3112Y4410D01*
X3114Y4420D01*
X3112Y4429D01*
X3107Y4438D01*
X3098Y4443D01*
X3089Y4445D01*
D02*
G37*
G36*
X3566Y4404D02*
X3556Y4403D01*
X3548Y4397D01*
X3543Y4389D01*
X3541Y4379D01*
X3543Y4369D01*
X3548Y4361D01*
X3556Y4355D01*
X3566Y4353D01*
X3576Y4355D01*
X3584Y4361D01*
X3590Y4369D01*
X3592Y4379D01*
X3590Y4389D01*
X3584Y4397D01*
X3576Y4403D01*
X3566Y4404D01*
D02*
G37*
G36*
X5667Y4331D02*
X5657Y4329D01*
X5649Y4323D01*
X5643Y4315D01*
X5641Y4305D01*
X5643Y4295D01*
X5649Y4287D01*
X5657Y4282D01*
X5667Y4280D01*
X5677Y4282D01*
X5685Y4287D01*
X5690Y4295D01*
X5692Y4305D01*
X5690Y4315D01*
X5685Y4323D01*
X5677Y4329D01*
X5667Y4331D01*
D02*
G37*
G36*
X3800Y4344D02*
X3790Y4342D01*
X3782Y4336D01*
X3776Y4328D01*
X3774Y4318D01*
X3776Y4308D01*
X3782Y4300D01*
X3790Y4294D01*
X3800Y4292D01*
X3810Y4294D01*
X3818Y4300D01*
X3824Y4308D01*
X3825Y4318D01*
X3824Y4328D01*
X3818Y4336D01*
X3810Y4342D01*
X3800Y4344D01*
D02*
G37*
G36*
X4049Y4636D02*
X4039Y4634D01*
X4031Y4628D01*
X4025Y4620D01*
X4023Y4610D01*
X4025Y4600D01*
X4031Y4592D01*
X4039Y4586D01*
X4049Y4584D01*
X4059Y4586D01*
X4067Y4592D01*
X4072Y4600D01*
X4074Y4610D01*
X4072Y4620D01*
X4067Y4628D01*
X4059Y4634D01*
X4049Y4636D01*
D02*
G37*
G36*
X3724Y4788D02*
X3714Y4786D01*
X3706Y4781D01*
X3700Y4772D01*
X3698Y4762D01*
X3700Y4753D01*
X3706Y4744D01*
X3714Y4739D01*
X3724Y4737D01*
X3733Y4739D01*
X3742Y4744D01*
X3747Y4753D01*
X3749Y4762D01*
X3747Y4772D01*
X3742Y4781D01*
X3733Y4786D01*
X3724Y4788D01*
D02*
G37*
G36*
X3546Y4763D02*
X3536Y4761D01*
X3528Y4755D01*
X3522Y4747D01*
X3520Y4737D01*
X3522Y4727D01*
X3528Y4719D01*
X3536Y4713D01*
X3546Y4711D01*
X3556Y4713D01*
X3564Y4719D01*
X3570Y4727D01*
X3571Y4737D01*
X3570Y4747D01*
X3564Y4755D01*
X3556Y4761D01*
X3546Y4763D01*
D02*
G37*
G36*
X3406Y4801D02*
X3396Y4799D01*
X3388Y4793D01*
X3382Y4785D01*
X3380Y4775D01*
X3382Y4765D01*
X3388Y4757D01*
X3396Y4751D01*
X3406Y4750D01*
X3416Y4751D01*
X3424Y4757D01*
X3430Y4765D01*
X3432Y4775D01*
X3430Y4785D01*
X3424Y4793D01*
X3416Y4799D01*
X3406Y4801D01*
D02*
G37*
G36*
X4244Y4788D02*
X4235Y4786D01*
X4226Y4781D01*
X4221Y4772D01*
X4219Y4762D01*
X4221Y4753D01*
X4226Y4744D01*
X4235Y4739D01*
X4244Y4737D01*
X4254Y4739D01*
X4262Y4744D01*
X4268Y4753D01*
X4270Y4762D01*
X4268Y4772D01*
X4262Y4781D01*
X4254Y4786D01*
X4244Y4788D01*
D02*
G37*
G36*
X5083Y4699D02*
X5073Y4697D01*
X5064Y4692D01*
X5059Y4683D01*
X5057Y4674D01*
X5059Y4664D01*
X5064Y4655D01*
X5073Y4650D01*
X5083Y4648D01*
X5092Y4650D01*
X5101Y4655D01*
X5106Y4664D01*
X5108Y4674D01*
X5106Y4683D01*
X5101Y4692D01*
X5092Y4697D01*
X5083Y4699D01*
D02*
G37*
G36*
X4194Y4648D02*
X4184Y4647D01*
X4175Y4641D01*
X4170Y4633D01*
X4168Y4623D01*
X4170Y4613D01*
X4175Y4605D01*
X4184Y4599D01*
X4194Y4597D01*
X4203Y4599D01*
X4212Y4605D01*
X4217Y4613D01*
X4219Y4623D01*
X4217Y4633D01*
X4212Y4641D01*
X4203Y4647D01*
X4194Y4648D01*
D02*
G37*
G36*
X4844Y4646D02*
X4834Y4644D01*
X4826Y4638D01*
X4820Y4630D01*
X4818Y4620D01*
X4820Y4610D01*
X4826Y4602D01*
X4834Y4597D01*
X4844Y4595D01*
X4854Y4597D01*
X4862Y4602D01*
X4867Y4610D01*
X4869Y4620D01*
X4867Y4630D01*
X4862Y4638D01*
X4854Y4644D01*
X4844Y4646D01*
D02*
G37*
G36*
X5019Y4674D02*
X5009Y4672D01*
X5001Y4666D01*
X4995Y4658D01*
X4993Y4648D01*
X4995Y4638D01*
X5001Y4630D01*
X5009Y4624D01*
X5019Y4623D01*
X5029Y4624D01*
X5037Y4630D01*
X5043Y4638D01*
X5045Y4648D01*
X5043Y4658D01*
X5037Y4666D01*
X5029Y4672D01*
X5019Y4674D01*
D02*
G37*
G36*
X3553Y4651D02*
X3544Y4649D01*
X3535Y4643D01*
X3530Y4635D01*
X3528Y4625D01*
X3530Y4616D01*
X3535Y4607D01*
X3544Y4602D01*
X3553Y4600D01*
X3563Y4602D01*
X3572Y4607D01*
X3577Y4616D01*
X3579Y4625D01*
X3577Y4635D01*
X3572Y4643D01*
X3563Y4649D01*
X3553Y4651D01*
D02*
G37*
G36*
X4397Y3429D02*
X4387Y3427D01*
X4379Y3422D01*
X4373Y3413D01*
X4371Y3404D01*
X4373Y3394D01*
X4379Y3385D01*
X4387Y3380D01*
X4397Y3378D01*
X4407Y3380D01*
X4415Y3385D01*
X4420Y3394D01*
X4422Y3404D01*
X4420Y3413D01*
X4415Y3422D01*
X4407Y3427D01*
X4397Y3429D01*
D02*
G37*
G36*
X4600Y3417D02*
X4590Y3415D01*
X4582Y3409D01*
X4576Y3401D01*
X4574Y3391D01*
X4576Y3381D01*
X4582Y3373D01*
X4590Y3367D01*
X4600Y3365D01*
X4610Y3367D01*
X4618Y3373D01*
X4624Y3381D01*
X4626Y3391D01*
X4624Y3401D01*
X4618Y3409D01*
X4610Y3415D01*
X4600Y3417D01*
D02*
G37*
G36*
X4498Y3467D02*
X4489Y3465D01*
X4480Y3460D01*
X4475Y3452D01*
X4473Y3442D01*
X4475Y3432D01*
X4480Y3424D01*
X4489Y3418D01*
X4498Y3416D01*
X4508Y3418D01*
X4516Y3424D01*
X4522Y3432D01*
X4524Y3442D01*
X4522Y3452D01*
X4516Y3460D01*
X4508Y3465D01*
X4498Y3467D01*
D02*
G37*
G36*
X2720Y3531D02*
X2711Y3529D01*
X2702Y3523D01*
X2697Y3515D01*
X2695Y3505D01*
X2697Y3495D01*
X2702Y3487D01*
X2711Y3481D01*
X2720Y3480D01*
X2730Y3481D01*
X2738Y3487D01*
X2744Y3495D01*
X2746Y3505D01*
X2744Y3515D01*
X2738Y3523D01*
X2730Y3529D01*
X2720Y3531D01*
D02*
G37*
G36*
X4600Y3480D02*
X4590Y3478D01*
X4582Y3473D01*
X4576Y3464D01*
X4574Y3454D01*
X4576Y3445D01*
X4582Y3436D01*
X4590Y3431D01*
X4600Y3429D01*
X4610Y3431D01*
X4618Y3436D01*
X4624Y3445D01*
X4626Y3454D01*
X4624Y3464D01*
X4618Y3473D01*
X4610Y3478D01*
X4600Y3480D01*
D02*
G37*
G36*
X2926Y3373D02*
X2916Y3371D01*
X2908Y3366D01*
X2902Y3358D01*
X2900Y3348D01*
X2902Y3338D01*
X2908Y3330D01*
X2916Y3324D01*
X2926Y3322D01*
X2936Y3324D01*
X2944Y3330D01*
X2950Y3338D01*
X2952Y3348D01*
X2950Y3358D01*
X2944Y3366D01*
X2936Y3371D01*
X2926Y3373D01*
D02*
G37*
G36*
X3736Y3366D02*
X3727Y3364D01*
X3718Y3358D01*
X3713Y3350D01*
X3711Y3340D01*
X3713Y3330D01*
X3718Y3322D01*
X3727Y3316D01*
X3736Y3314D01*
X3746Y3316D01*
X3754Y3322D01*
X3760Y3330D01*
X3762Y3340D01*
X3760Y3350D01*
X3754Y3358D01*
X3746Y3364D01*
X3736Y3366D01*
D02*
G37*
G36*
X4493Y3386D02*
X4483Y3384D01*
X4475Y3379D01*
X4470Y3370D01*
X4468Y3360D01*
X4470Y3351D01*
X4475Y3342D01*
X4483Y3337D01*
X4493Y3335D01*
X4503Y3337D01*
X4511Y3342D01*
X4517Y3351D01*
X4519Y3360D01*
X4517Y3370D01*
X4511Y3379D01*
X4503Y3384D01*
X4493Y3386D01*
D02*
G37*
G36*
X2784Y3417D02*
X2774Y3415D01*
X2766Y3409D01*
X2760Y3401D01*
X2758Y3391D01*
X2760Y3381D01*
X2766Y3373D01*
X2774Y3367D01*
X2784Y3365D01*
X2794Y3367D01*
X2802Y3373D01*
X2808Y3381D01*
X2809Y3391D01*
X2808Y3401D01*
X2802Y3409D01*
X2794Y3415D01*
X2784Y3417D01*
D02*
G37*
G36*
X3637Y3188D02*
X3627Y3186D01*
X3619Y3180D01*
X3614Y3172D01*
X3612Y3162D01*
X3614Y3152D01*
X3619Y3144D01*
X3627Y3139D01*
X3637Y3137D01*
X3647Y3139D01*
X3655Y3144D01*
X3661Y3152D01*
X3663Y3162D01*
X3661Y3172D01*
X3655Y3180D01*
X3647Y3186D01*
X3637Y3188D01*
D02*
G37*
G36*
X3665Y3541D02*
X3655Y3539D01*
X3647Y3533D01*
X3642Y3525D01*
X3640Y3515D01*
X3642Y3506D01*
X3647Y3497D01*
X3655Y3492D01*
X3665Y3490D01*
X3675Y3492D01*
X3683Y3497D01*
X3689Y3506D01*
X3691Y3515D01*
X3689Y3525D01*
X3683Y3533D01*
X3675Y3539D01*
X3665Y3541D01*
D02*
G37*
G36*
X5372Y4129D02*
X5354Y4125D01*
X5338Y4114D01*
X5327Y4098D01*
X5323Y4080D01*
X5327Y4061D01*
X5338Y4045D01*
X5354Y4035D01*
X5372Y4031D01*
X5391Y4035D01*
X5407Y4045D01*
X5417Y4061D01*
X5421Y4080D01*
X5417Y4098D01*
X5407Y4114D01*
X5391Y4125D01*
X5372Y4129D01*
D02*
G37*
G36*
X2791Y3149D02*
X2759Y3145D01*
X2728Y3132D01*
X2702Y3112D01*
X2682Y3086D01*
X2669Y3055D01*
X2665Y3023D01*
X2669Y2990D01*
X2682Y2959D01*
X2702Y2933D01*
X2728Y2913D01*
X2759Y2900D01*
X2791Y2896D01*
X2824Y2900D01*
X2855Y2913D01*
X2881Y2933D01*
X2901Y2959D01*
X2914Y2990D01*
X2918Y3023D01*
X2914Y3055D01*
X2901Y3086D01*
X2881Y3112D01*
X2855Y3132D01*
X2824Y3145D01*
X2791Y3149D01*
D02*
G37*
G36*
X5260Y4217D02*
X5251Y4215D01*
X5242Y4209D01*
X5237Y4201D01*
X5235Y4191D01*
X5237Y4181D01*
X5242Y4173D01*
X5251Y4167D01*
X5260Y4165D01*
X5270Y4167D01*
X5278Y4173D01*
X5284Y4181D01*
X5286Y4191D01*
X5284Y4201D01*
X5278Y4209D01*
X5270Y4215D01*
X5260Y4217D01*
D02*
G37*
G36*
X3774Y2921D02*
X3765Y2919D01*
X3756Y2914D01*
X3751Y2905D01*
X3749Y2896D01*
X3751Y2886D01*
X3756Y2877D01*
X3765Y2872D01*
X3774Y2870D01*
X3784Y2872D01*
X3793Y2877D01*
X3798Y2886D01*
X3800Y2896D01*
X3798Y2905D01*
X3793Y2914D01*
X3784Y2919D01*
X3774Y2921D01*
D02*
G37*
G36*
X4308Y5195D02*
X4293Y5192D01*
X4281Y5183D01*
X4272Y5171D01*
X4269Y5156D01*
X4272Y5142D01*
X4281Y5129D01*
X4293Y5121D01*
X4308Y5118D01*
X4313Y5119D01*
X4386Y5045D01*
Y4295D01*
X4384Y4293D01*
X4369Y4290D01*
X4357Y4282D01*
X4349Y4269D01*
X4346Y4254D01*
X4349Y4240D01*
X4357Y4227D01*
X4369Y4219D01*
X4384Y4216D01*
X4399Y4219D01*
X4411Y4227D01*
X4420Y4240D01*
X4422Y4254D01*
X4421Y4259D01*
X4426Y4264D01*
X4431Y4271D01*
X4433Y4280D01*
Y5055D01*
X4431Y5063D01*
X4426Y5071D01*
X4345Y5151D01*
X4346Y5156D01*
X4343Y5171D01*
X4335Y5183D01*
X4323Y5192D01*
X4308Y5195D01*
D02*
G37*
G36*
X4778Y2972D02*
X4768Y2970D01*
X4760Y2965D01*
X4755Y2957D01*
X4750Y2957D01*
X4742Y2959D01*
Y2959D01*
X4709D01*
Y2926D01*
X4742D01*
Y2927D01*
X4744Y2928D01*
X4760Y2928D01*
X4768Y2923D01*
X4778Y2921D01*
X4788Y2923D01*
X4796Y2928D01*
X4801Y2937D01*
X4803Y2946D01*
X4801Y2956D01*
X4796Y2965D01*
X4788Y2970D01*
X4778Y2972D01*
D02*
G37*
G36*
X3711Y3627D02*
X3701Y3625D01*
X3693Y3620D01*
X3687Y3612D01*
X3685Y3602D01*
X3687Y3592D01*
X3693Y3584D01*
X3701Y3578D01*
X3711Y3576D01*
X3721Y3578D01*
X3729Y3584D01*
X3735Y3592D01*
X3737Y3602D01*
X3735Y3612D01*
X3729Y3620D01*
X3721Y3625D01*
X3711Y3627D01*
D02*
G37*
G36*
X4684Y2959D02*
X4651D01*
Y2926D01*
X4684D01*
Y2959D01*
D02*
G37*
G36*
X5514Y4001D02*
X5505Y3999D01*
X5496Y3993D01*
X5491Y3985D01*
X5489Y3975D01*
X5491Y3965D01*
X5496Y3957D01*
X5505Y3951D01*
X5514Y3949D01*
X5524Y3951D01*
X5532Y3957D01*
X5538Y3965D01*
X5540Y3975D01*
X5538Y3985D01*
X5532Y3993D01*
X5524Y3999D01*
X5514Y4001D01*
D02*
G37*
G36*
X5626Y3922D02*
X5616Y3920D01*
X5608Y3914D01*
X5602Y3906D01*
X5600Y3896D01*
X5602Y3887D01*
X5608Y3878D01*
X5616Y3873D01*
X5626Y3871D01*
X5636Y3873D01*
X5644Y3878D01*
X5650Y3887D01*
X5652Y3896D01*
X5650Y3906D01*
X5644Y3914D01*
X5636Y3920D01*
X5626Y3922D01*
D02*
G37*
G36*
X3254Y5741D02*
X3244Y5739D01*
X3236Y5733D01*
X3230Y5725D01*
X3228Y5715D01*
X3230Y5705D01*
X3236Y5697D01*
X3244Y5691D01*
X3254Y5689D01*
X3264Y5691D01*
X3272Y5697D01*
X3277Y5705D01*
X3279Y5715D01*
X3277Y5725D01*
X3272Y5733D01*
X3264Y5739D01*
X3254Y5741D01*
D02*
G37*
G36*
X4232Y5677D02*
X4222Y5675D01*
X4214Y5670D01*
X4208Y5661D01*
X4206Y5651D01*
X4208Y5642D01*
X4214Y5633D01*
X4222Y5628D01*
X4232Y5626D01*
X4241Y5628D01*
X4250Y5633D01*
X4255Y5642D01*
X4257Y5651D01*
X4255Y5661D01*
X4250Y5670D01*
X4241Y5675D01*
X4232Y5677D01*
D02*
G37*
G36*
X5278Y5618D02*
X5243D01*
Y5583D01*
X5278D01*
Y5618D01*
D02*
G37*
G36*
X3317Y5791D02*
X3307Y5790D01*
X3299Y5784D01*
X3294Y5776D01*
X3292Y5766D01*
X3294Y5756D01*
X3299Y5748D01*
X3307Y5742D01*
X3317Y5740D01*
X3327Y5742D01*
X3335Y5748D01*
X3341Y5756D01*
X3343Y5766D01*
X3341Y5776D01*
X3335Y5784D01*
X3327Y5790D01*
X3317Y5791D01*
D02*
G37*
G36*
X5232Y5817D02*
X5218Y5814D01*
X5205Y5806D01*
X5203Y5802D01*
X3758D01*
X3749Y5800D01*
X3742Y5795D01*
X3495Y5548D01*
X3436D01*
X3433Y5552D01*
X3421Y5560D01*
X3406Y5563D01*
X3391Y5560D01*
X3379Y5552D01*
X3371Y5539D01*
X3368Y5524D01*
X3371Y5510D01*
X3379Y5497D01*
X3391Y5489D01*
X3406Y5486D01*
X3421Y5489D01*
X3433Y5497D01*
X3436Y5501D01*
X3504D01*
X3513Y5503D01*
X3521Y5508D01*
X3768Y5755D01*
X5203D01*
X5205Y5751D01*
X5218Y5743D01*
X5232Y5740D01*
X5247Y5743D01*
X5260Y5751D01*
X5268Y5764D01*
X5271Y5778D01*
X5268Y5793D01*
X5260Y5806D01*
X5247Y5814D01*
X5232Y5817D01*
D02*
G37*
G36*
X5489Y5753D02*
X5479Y5751D01*
X5471Y5746D01*
X5465Y5738D01*
X5463Y5728D01*
X5465Y5718D01*
X5471Y5710D01*
X5479Y5704D01*
X5489Y5702D01*
X5499Y5704D01*
X5507Y5710D01*
X5513Y5718D01*
X5515Y5728D01*
X5513Y5738D01*
X5507Y5746D01*
X5499Y5751D01*
X5489Y5753D01*
D02*
G37*
G36*
X5667Y5474D02*
X5657Y5472D01*
X5649Y5466D01*
X5643Y5458D01*
X5641Y5448D01*
X5643Y5438D01*
X5649Y5430D01*
X5657Y5425D01*
X5667Y5423D01*
X5677Y5425D01*
X5685Y5430D01*
X5690Y5438D01*
X5692Y5448D01*
X5690Y5458D01*
X5685Y5466D01*
X5677Y5472D01*
X5667Y5474D01*
D02*
G37*
G36*
X4171Y5471D02*
X4161Y5469D01*
X4153Y5464D01*
X4147Y5456D01*
X4145Y5446D01*
X4147Y5436D01*
X4153Y5428D01*
X4161Y5422D01*
X4171Y5420D01*
X4180Y5422D01*
X4189Y5428D01*
X4194Y5436D01*
X4196Y5446D01*
X4194Y5456D01*
X4189Y5464D01*
X4180Y5469D01*
X4171Y5471D01*
D02*
G37*
G36*
X5451Y5449D02*
X5441Y5447D01*
X5433Y5441D01*
X5427Y5433D01*
X5425Y5423D01*
X5427Y5413D01*
X5433Y5405D01*
X5441Y5399D01*
X5451Y5397D01*
X5461Y5399D01*
X5469Y5405D01*
X5475Y5413D01*
X5476Y5423D01*
X5475Y5433D01*
X5469Y5441D01*
X5461Y5447D01*
X5451Y5449D01*
D02*
G37*
G36*
X3889Y5601D02*
X3879Y5599D01*
X3871Y5593D01*
X3865Y5585D01*
X3863Y5575D01*
X3865Y5565D01*
X3871Y5557D01*
X3879Y5552D01*
X3889Y5550D01*
X3899Y5552D01*
X3907Y5557D01*
X3912Y5565D01*
X3914Y5575D01*
X3912Y5585D01*
X3907Y5593D01*
X3899Y5599D01*
X3889Y5601D01*
D02*
G37*
G36*
X4191Y5583D02*
X4181Y5581D01*
X4173Y5576D01*
X4167Y5567D01*
X4165Y5558D01*
X4167Y5548D01*
X4173Y5539D01*
X4181Y5534D01*
X4191Y5532D01*
X4201Y5534D01*
X4209Y5539D01*
X4215Y5548D01*
X4217Y5558D01*
X4215Y5567D01*
X4209Y5576D01*
X4201Y5581D01*
X4191Y5583D01*
D02*
G37*
G36*
X3757Y5570D02*
X3747Y5569D01*
X3739Y5563D01*
X3733Y5555D01*
X3731Y5545D01*
X3733Y5535D01*
X3739Y5527D01*
X3747Y5521D01*
X3757Y5519D01*
X3766Y5521D01*
X3775Y5527D01*
X3780Y5535D01*
X3782Y5545D01*
X3780Y5555D01*
X3775Y5563D01*
X3766Y5569D01*
X3757Y5570D01*
D02*
G37*
G36*
X3813Y6134D02*
X3803Y6132D01*
X3794Y6127D01*
X3789Y6119D01*
X3787Y6109D01*
X3789Y6099D01*
X3794Y6091D01*
X3803Y6085D01*
X3813Y6083D01*
X3822Y6085D01*
X3831Y6091D01*
X3836Y6099D01*
X3838Y6109D01*
X3836Y6119D01*
X3831Y6127D01*
X3822Y6132D01*
X3813Y6134D01*
D02*
G37*
G36*
X4054Y6109D02*
X4044Y6107D01*
X4036Y6101D01*
X4030Y6093D01*
X4028Y6083D01*
X4030Y6073D01*
X4036Y6065D01*
X4044Y6060D01*
X4054Y6058D01*
X4064Y6060D01*
X4072Y6065D01*
X4078Y6073D01*
X4079Y6083D01*
X4078Y6093D01*
X4072Y6101D01*
X4064Y6107D01*
X4054Y6109D01*
D02*
G37*
G36*
X3940D02*
X3930Y6107D01*
X3921Y6101D01*
X3916Y6093D01*
X3914Y6083D01*
X3916Y6073D01*
X3921Y6065D01*
X3930Y6060D01*
X3940Y6058D01*
X3949Y6060D01*
X3958Y6065D01*
X3963Y6073D01*
X3965Y6083D01*
X3963Y6093D01*
X3958Y6101D01*
X3949Y6107D01*
X3940Y6109D01*
D02*
G37*
G36*
X5248Y6147D02*
X5238Y6145D01*
X5230Y6140D01*
X5224Y6131D01*
X5222Y6121D01*
X5224Y6112D01*
X5230Y6103D01*
X5238Y6098D01*
X5248Y6096D01*
X5257Y6098D01*
X5266Y6103D01*
X5271Y6112D01*
X5273Y6121D01*
X5271Y6131D01*
X5266Y6140D01*
X5257Y6145D01*
X5248Y6147D01*
D02*
G37*
G36*
X4638D02*
X4628Y6145D01*
X4620Y6140D01*
X4614Y6131D01*
X4612Y6121D01*
X4614Y6112D01*
X4620Y6103D01*
X4628Y6098D01*
X4638Y6096D01*
X4648Y6098D01*
X4656Y6103D01*
X4662Y6112D01*
X4664Y6121D01*
X4662Y6131D01*
X4656Y6140D01*
X4648Y6145D01*
X4638Y6147D01*
D02*
G37*
G36*
X4524D02*
X4514Y6145D01*
X4506Y6140D01*
X4500Y6131D01*
X4498Y6121D01*
X4500Y6112D01*
X4506Y6103D01*
X4514Y6098D01*
X4524Y6096D01*
X4534Y6098D01*
X4542Y6103D01*
X4547Y6112D01*
X4549Y6121D01*
X4547Y6131D01*
X4542Y6140D01*
X4534Y6145D01*
X4524Y6147D01*
D02*
G37*
G36*
X4600Y5931D02*
X4590Y5929D01*
X4582Y5924D01*
X4576Y5915D01*
X4574Y5906D01*
X4576Y5896D01*
X4582Y5887D01*
X4590Y5882D01*
X4600Y5880D01*
X4610Y5882D01*
X4618Y5887D01*
X4624Y5896D01*
X4626Y5906D01*
X4624Y5915D01*
X4618Y5924D01*
X4610Y5929D01*
X4600Y5931D01*
D02*
G37*
G36*
X4054D02*
X4044Y5929D01*
X4036Y5924D01*
X4030Y5915D01*
X4028Y5906D01*
X4030Y5896D01*
X4036Y5887D01*
X4044Y5882D01*
X4054Y5880D01*
X4064Y5882D01*
X4072Y5887D01*
X4078Y5896D01*
X4079Y5906D01*
X4078Y5915D01*
X4072Y5924D01*
X4064Y5929D01*
X4054Y5931D01*
D02*
G37*
G36*
X5489Y5817D02*
X5479Y5815D01*
X5471Y5809D01*
X5465Y5801D01*
X5463Y5791D01*
X5465Y5781D01*
X5471Y5773D01*
X5479Y5767D01*
X5489Y5766D01*
X5499Y5767D01*
X5507Y5773D01*
X5513Y5781D01*
X5515Y5791D01*
X5513Y5801D01*
X5507Y5809D01*
X5499Y5815D01*
X5489Y5817D01*
D02*
G37*
G36*
X5791Y6149D02*
X5758Y6145D01*
X5728Y6132D01*
X5702Y6112D01*
X5682Y6086D01*
X5669Y6055D01*
X5665Y6022D01*
X5669Y5990D01*
X5682Y5959D01*
X5702Y5933D01*
X5728Y5913D01*
X5758Y5900D01*
X5791Y5896D01*
X5824Y5900D01*
X5854Y5913D01*
X5881Y5933D01*
X5901Y5959D01*
X5913Y5990D01*
X5918Y6022D01*
X5913Y6055D01*
X5901Y6086D01*
X5881Y6112D01*
X5854Y6132D01*
X5824Y6145D01*
X5791Y6149D01*
D02*
G37*
G36*
X2791D02*
X2759Y6145D01*
X2728Y6132D01*
X2702Y6112D01*
X2682Y6086D01*
X2669Y6055D01*
X2665Y6022D01*
X2669Y5990D01*
X2682Y5959D01*
X2702Y5933D01*
X2728Y5913D01*
X2759Y5900D01*
X2791Y5896D01*
X2824Y5900D01*
X2855Y5913D01*
X2881Y5933D01*
X2901Y5959D01*
X2914Y5990D01*
X2918Y6022D01*
X2914Y6055D01*
X2901Y6086D01*
X2881Y6112D01*
X2855Y6132D01*
X2824Y6145D01*
X2791Y6149D01*
D02*
G37*
G36*
X4778Y5931D02*
X4768Y5929D01*
X4760Y5924D01*
X4754Y5915D01*
X4752Y5906D01*
X4754Y5896D01*
X4760Y5887D01*
X4768Y5882D01*
X4778Y5880D01*
X4788Y5882D01*
X4796Y5887D01*
X4801Y5896D01*
X4803Y5906D01*
X4801Y5915D01*
X4796Y5924D01*
X4788Y5929D01*
X4778Y5931D01*
D02*
G37*
G36*
X3785Y5123D02*
X3775Y5121D01*
X3766Y5116D01*
X3761Y5108D01*
X3759Y5098D01*
X3761Y5088D01*
X3766Y5080D01*
X3775Y5074D01*
X3785Y5072D01*
X3794Y5074D01*
X3803Y5080D01*
X3808Y5088D01*
X3810Y5098D01*
X3808Y5108D01*
X3803Y5116D01*
X3794Y5121D01*
X3785Y5123D01*
D02*
G37*
G36*
X3838Y5080D02*
X3828Y5078D01*
X3820Y5073D01*
X3814Y5064D01*
X3812Y5055D01*
X3814Y5045D01*
X3820Y5036D01*
X3828Y5031D01*
X3838Y5029D01*
X3848Y5031D01*
X3856Y5036D01*
X3862Y5045D01*
X3864Y5055D01*
X3862Y5064D01*
X3856Y5073D01*
X3848Y5078D01*
X3838Y5080D01*
D02*
G37*
G36*
X4219Y5042D02*
X4209Y5040D01*
X4201Y5035D01*
X4195Y5026D01*
X4193Y5017D01*
X4195Y5007D01*
X4201Y4998D01*
X4209Y4993D01*
X4219Y4991D01*
X4229Y4993D01*
X4237Y4998D01*
X4243Y5007D01*
X4245Y5017D01*
X4243Y5026D01*
X4237Y5035D01*
X4229Y5040D01*
X4219Y5042D01*
D02*
G37*
G36*
X4539Y5230D02*
X4529Y5228D01*
X4521Y5223D01*
X4515Y5214D01*
X4513Y5204D01*
X4515Y5195D01*
X4521Y5186D01*
X4529Y5181D01*
X4539Y5179D01*
X4549Y5181D01*
X4557Y5186D01*
X4563Y5195D01*
X4565Y5204D01*
X4563Y5214D01*
X4557Y5223D01*
X4549Y5228D01*
X4539Y5230D01*
D02*
G37*
G36*
X4854Y5195D02*
X4844Y5193D01*
X4836Y5187D01*
X4830Y5179D01*
X4828Y5169D01*
X4830Y5159D01*
X4836Y5151D01*
X4844Y5145D01*
X4854Y5143D01*
X4864Y5145D01*
X4872Y5151D01*
X4878Y5159D01*
X4880Y5169D01*
X4878Y5179D01*
X4872Y5187D01*
X4864Y5193D01*
X4854Y5195D01*
D02*
G37*
G36*
X4867Y5131D02*
X4857Y5129D01*
X4849Y5124D01*
X4843Y5115D01*
X4841Y5105D01*
X4843Y5096D01*
X4849Y5087D01*
X4857Y5082D01*
X4867Y5080D01*
X4876Y5082D01*
X4885Y5087D01*
X4890Y5096D01*
X4892Y5105D01*
X4890Y5115D01*
X4885Y5124D01*
X4876Y5129D01*
X4867Y5131D01*
D02*
G37*
G36*
X5476Y4839D02*
X5466Y4837D01*
X5458Y4831D01*
X5453Y4823D01*
X5451Y4813D01*
X5453Y4803D01*
X5458Y4795D01*
X5466Y4790D01*
X5476Y4788D01*
X5486Y4790D01*
X5494Y4795D01*
X5500Y4803D01*
X5502Y4813D01*
X5500Y4823D01*
X5494Y4831D01*
X5486Y4837D01*
X5476Y4839D01*
D02*
G37*
G36*
X4206D02*
X4196Y4837D01*
X4188Y4831D01*
X4183Y4823D01*
X4181Y4813D01*
X4183Y4803D01*
X4188Y4795D01*
X4196Y4790D01*
X4206Y4788D01*
X4216Y4790D01*
X4224Y4795D01*
X4230Y4803D01*
X4232Y4813D01*
X4230Y4823D01*
X4224Y4831D01*
X4216Y4837D01*
X4206Y4839D01*
D02*
G37*
G36*
X2758D02*
X2749Y4837D01*
X2740Y4831D01*
X2735Y4823D01*
X2733Y4813D01*
X2735Y4803D01*
X2740Y4795D01*
X2749Y4790D01*
X2758Y4788D01*
X2768Y4790D01*
X2777Y4795D01*
X2782Y4803D01*
X2784Y4813D01*
X2782Y4823D01*
X2777Y4831D01*
X2768Y4837D01*
X2758Y4839D01*
D02*
G37*
G36*
X3368Y6058D02*
X3353Y6055D01*
X3341Y6047D01*
X3333Y6034D01*
X3330Y6020D01*
X3333Y6005D01*
X3333Y6005D01*
X2912Y5584D01*
X2898D01*
X2880Y5580D01*
X2865Y5570D01*
X2855Y5555D01*
X2852Y5537D01*
X2855Y5519D01*
X2865Y5504D01*
X2880Y5494D01*
X2898Y5491D01*
X3069D01*
X3589Y4971D01*
X3589Y4971D01*
X3627Y4933D01*
X3629Y4932D01*
Y4833D01*
X3609Y4813D01*
X3601Y4802D01*
X3599Y4788D01*
Y4762D01*
X3596Y4750D01*
X3599Y4735D01*
X3608Y4723D01*
X3612Y4720D01*
Y4102D01*
X3613Y4093D01*
X3618Y4086D01*
X3726Y3978D01*
Y3882D01*
X3713Y3881D01*
X3705Y3893D01*
X3696Y3899D01*
Y3932D01*
X3694Y3941D01*
X3689Y3948D01*
X3582Y4056D01*
Y4187D01*
X3586Y4189D01*
X3594Y4202D01*
X3597Y4216D01*
X3594Y4231D01*
X3586Y4244D01*
X3573Y4252D01*
X3559Y4255D01*
X3544Y4252D01*
X3531Y4244D01*
X3523Y4231D01*
X3520Y4216D01*
X3523Y4202D01*
X3531Y4189D01*
X3535Y4187D01*
Y4046D01*
X3537Y4037D01*
X3542Y4030D01*
X3650Y3922D01*
Y3892D01*
X3642Y3881D01*
X3640Y3866D01*
X3642Y3851D01*
X3651Y3839D01*
X3663Y3830D01*
X3678Y3827D01*
X3693Y3830D01*
X3705Y3839D01*
X3713Y3851D01*
X3726Y3849D01*
Y3743D01*
X3580Y3598D01*
X3575Y3590D01*
X3574Y3581D01*
Y3429D01*
X3575Y3420D01*
X3580Y3413D01*
X3603Y3390D01*
X3597Y3378D01*
X3587Y3376D01*
X3579Y3371D01*
X3573Y3363D01*
X3571Y3353D01*
X3573Y3343D01*
X3579Y3335D01*
X3587Y3329D01*
X3597Y3327D01*
X3606Y3329D01*
X3612Y3333D01*
X3622Y3329D01*
X3624Y3327D01*
Y3289D01*
X3626Y3280D01*
X3631Y3273D01*
X3695Y3209D01*
X3702Y3204D01*
X3711Y3203D01*
X3720Y3204D01*
X3727Y3209D01*
X3729Y3211D01*
X3734Y3210D01*
X3748Y3213D01*
X3761Y3222D01*
X3769Y3234D01*
X3772Y3249D01*
X3769Y3263D01*
X3761Y3276D01*
X3748Y3284D01*
X3734Y3287D01*
X3719Y3284D01*
X3707Y3276D01*
X3695Y3275D01*
X3671Y3299D01*
Y3378D01*
X3669Y3387D01*
X3664Y3395D01*
X3620Y3439D01*
Y3572D01*
X3765Y3717D01*
X3770Y3725D01*
X3772Y3734D01*
Y3988D01*
X3770Y3997D01*
X3765Y4004D01*
X3658Y4112D01*
Y4720D01*
X3662Y4723D01*
X3670Y4735D01*
X3673Y4750D01*
X3671Y4762D01*
Y4773D01*
X3691Y4793D01*
X3698Y4805D01*
X3701Y4818D01*
Y4945D01*
X3703Y4948D01*
X3707Y4966D01*
X3706Y4968D01*
X3718Y4973D01*
X3718Y4973D01*
X3727Y4967D01*
X3736Y4965D01*
X3746Y4967D01*
X3754Y4973D01*
X3760Y4981D01*
X3762Y4991D01*
X3760Y5001D01*
X3754Y5009D01*
X3746Y5015D01*
X3736Y5017D01*
X3727Y5015D01*
X3718Y5009D01*
X3713Y5001D01*
X3711Y4994D01*
X3702Y4990D01*
X3699Y4990D01*
X3693Y4998D01*
X3680Y5011D01*
X3720Y5051D01*
X3728Y5063D01*
X3731Y5076D01*
Y5117D01*
X3740Y5125D01*
X3750Y5127D01*
X3758Y5133D01*
X3764Y5141D01*
X3766Y5151D01*
X3764Y5160D01*
X3758Y5169D01*
X3757Y5181D01*
X3775Y5198D01*
X3782Y5210D01*
X3785Y5224D01*
Y5232D01*
X3782Y5245D01*
X3775Y5257D01*
X3762Y5269D01*
Y5277D01*
X3768Y5283D01*
X3894D01*
X3907Y5285D01*
X3911Y5288D01*
X3914Y5288D01*
X3926Y5297D01*
X3934Y5309D01*
X3937Y5324D01*
X3934Y5339D01*
X3926Y5351D01*
X3914Y5359D01*
X3899Y5362D01*
X3884Y5359D01*
X3877Y5355D01*
X3753D01*
X3739Y5352D01*
X3728Y5344D01*
X3701Y5317D01*
X3693Y5306D01*
X3690Y5292D01*
Y5254D01*
X3693Y5240D01*
X3701Y5229D01*
X3702Y5228D01*
X3669Y5195D01*
X3661Y5183D01*
X3659Y5170D01*
Y5091D01*
X3629Y5062D01*
X3121Y5570D01*
X3106Y5580D01*
X3089Y5584D01*
X3089Y5584D01*
X2994D01*
X2989Y5595D01*
X3377Y5983D01*
X3383Y5984D01*
X3395Y5993D01*
X3404Y6005D01*
X3406Y6020D01*
X3404Y6034D01*
X3395Y6047D01*
X3383Y6055D01*
X3368Y6058D01*
D02*
G37*
G36*
X5019Y4966D02*
X5009Y4964D01*
X5001Y4958D01*
X4995Y4950D01*
X4993Y4940D01*
X4995Y4930D01*
X5001Y4922D01*
X5009Y4917D01*
X5019Y4915D01*
X5029Y4917D01*
X5037Y4922D01*
X5043Y4930D01*
X5045Y4940D01*
X5043Y4950D01*
X5037Y4958D01*
X5029Y4964D01*
X5019Y4966D01*
D02*
G37*
G36*
X3035Y4849D02*
X3025Y4847D01*
X3017Y4842D01*
X3012Y4833D01*
X3010Y4823D01*
X3012Y4814D01*
X3017Y4805D01*
X3025Y4800D01*
X3035Y4798D01*
X3045Y4800D01*
X3053Y4805D01*
X3059Y4814D01*
X3061Y4823D01*
X3059Y4833D01*
X3053Y4842D01*
X3045Y4847D01*
X3035Y4849D01*
D02*
G37*
G36*
X2891Y5329D02*
X2858D01*
Y5296D01*
X2891D01*
Y5329D01*
D02*
G37*
G36*
X5210Y5296D02*
X5200Y5294D01*
X5191Y5289D01*
X5186Y5280D01*
X5184Y5271D01*
X5186Y5261D01*
X5191Y5252D01*
X5200Y5247D01*
X5210Y5245D01*
X5219Y5247D01*
X5228Y5252D01*
X5233Y5261D01*
X5235Y5271D01*
X5233Y5280D01*
X5228Y5289D01*
X5219Y5294D01*
X5210Y5296D01*
D02*
G37*
G36*
X4549D02*
X4539Y5294D01*
X4531Y5289D01*
X4525Y5280D01*
X4523Y5271D01*
X4525Y5261D01*
X4531Y5252D01*
X4539Y5247D01*
X4549Y5245D01*
X4559Y5247D01*
X4567Y5252D01*
X4573Y5261D01*
X4575Y5271D01*
X4573Y5280D01*
X4567Y5289D01*
X4559Y5294D01*
X4549Y5296D01*
D02*
G37*
G36*
X5527Y5436D02*
X5517Y5434D01*
X5509Y5428D01*
X5503Y5420D01*
X5501Y5410D01*
X5503Y5400D01*
X5509Y5392D01*
X5517Y5387D01*
X5527Y5385D01*
X5537Y5387D01*
X5545Y5392D01*
X5551Y5400D01*
X5553Y5410D01*
X5551Y5420D01*
X5545Y5428D01*
X5537Y5434D01*
X5527Y5436D01*
D02*
G37*
G36*
X3749Y5423D02*
X3739Y5421D01*
X3731Y5416D01*
X3725Y5407D01*
X3723Y5397D01*
X3725Y5388D01*
X3731Y5379D01*
X3739Y5374D01*
X3749Y5372D01*
X3759Y5374D01*
X3767Y5379D01*
X3773Y5388D01*
X3775Y5397D01*
X3773Y5407D01*
X3767Y5416D01*
X3759Y5421D01*
X3749Y5423D01*
D02*
G37*
G36*
X2949Y5329D02*
X2916D01*
Y5296D01*
X2949D01*
Y5329D01*
D02*
G37*
G36*
X4778Y5271D02*
X4768Y5269D01*
X4760Y5263D01*
X4754Y5255D01*
X4752Y5245D01*
X4754Y5235D01*
X4760Y5227D01*
X4768Y5221D01*
X4778Y5219D01*
X4788Y5221D01*
X4796Y5227D01*
X4801Y5235D01*
X4803Y5245D01*
X4801Y5255D01*
X4796Y5263D01*
X4788Y5269D01*
X4778Y5271D01*
D02*
G37*
G36*
X3917Y5240D02*
X3907Y5238D01*
X3899Y5233D01*
X3893Y5224D01*
X3891Y5215D01*
X3893Y5205D01*
X3899Y5196D01*
X3907Y5191D01*
X3917Y5189D01*
X3926Y5191D01*
X3935Y5196D01*
X3940Y5205D01*
X3942Y5215D01*
X3940Y5224D01*
X3935Y5233D01*
X3926Y5238D01*
X3917Y5240D01*
D02*
G37*
G36*
X5248Y5233D02*
X5238Y5231D01*
X5230Y5225D01*
X5224Y5217D01*
X5222Y5207D01*
X5224Y5197D01*
X5230Y5189D01*
X5238Y5183D01*
X5248Y5181D01*
X5257Y5183D01*
X5266Y5189D01*
X5271Y5197D01*
X5273Y5207D01*
X5271Y5217D01*
X5266Y5225D01*
X5257Y5231D01*
X5248Y5233D01*
D02*
G37*
G36*
X2949Y5271D02*
X2916D01*
Y5237D01*
X2949D01*
Y5271D01*
D02*
G37*
G36*
X2891D02*
X2858D01*
Y5237D01*
X2891D01*
Y5271D01*
D02*
G37*
G36*
X3228Y5283D02*
X3219Y5281D01*
X3210Y5276D01*
X3205Y5268D01*
X3203Y5258D01*
X3205Y5248D01*
X3210Y5240D01*
X3219Y5234D01*
X3228Y5232D01*
X3238Y5234D01*
X3246Y5240D01*
X3252Y5248D01*
X3254Y5258D01*
X3252Y5268D01*
X3246Y5276D01*
X3238Y5281D01*
X3228Y5283D01*
D02*
G37*
%LPD*%
D17*
X4696Y2913D02*
D03*
D03*
D19*
X2903Y5283D02*
D03*
D60*
X4067Y5131D02*
X4346Y5410D01*
X4717Y5494D02*
X4986D01*
X4346Y5410D02*
X4634D01*
X4717Y5494D01*
X4986D02*
X5032Y5448D01*
X3158Y3096D02*
X3216Y3154D01*
X3152Y3096D02*
X3158D01*
X3145Y3025D02*
X3180D01*
X3033Y3279D02*
Y3454D01*
X3241Y3111D02*
X3254Y3124D01*
Y3353D01*
X3216Y3154D02*
Y3277D01*
X2657Y3581D02*
X2728Y3652D01*
X2898Y3429D02*
Y3736D01*
X2891Y3422D02*
X2898Y3429D01*
X2882Y3413D02*
Y3429D01*
X4562Y4407D02*
Y4559D01*
X4764Y4339D02*
X4790Y4312D01*
X4751Y4339D02*
X4764D01*
X4732Y4358D02*
X4751Y4339D01*
X4732Y4358D02*
Y4370D01*
X4692Y4410D02*
X4732Y4370D01*
X4790Y3860D02*
Y4312D01*
X4676Y4775D02*
Y5093D01*
X4625Y4877D02*
Y5283D01*
X4594Y4693D02*
X4676Y4775D01*
X4511Y4762D02*
X4625Y4877D01*
X4524Y4826D02*
Y5080D01*
X4384Y5220D02*
X4524Y5080D01*
X4473Y4775D02*
X4524Y4826D01*
X4117Y3429D02*
Y4267D01*
X4155Y4381D02*
X4168Y4369D01*
X4594Y4592D02*
Y4693D01*
X4562Y4559D02*
X4594Y4592D01*
X4829Y3810D02*
Y4356D01*
X4752Y4432D02*
X4829Y4356D01*
X4905Y4305D02*
X4917D01*
X4613Y4089D02*
Y4136D01*
X4607Y4141D02*
X4613Y4136D01*
X4607Y4141D02*
Y4146D01*
X4598Y4156D02*
X4607Y4146D01*
X4589Y4156D02*
X4598D01*
X4557Y3751D02*
Y4122D01*
X4555Y4190D02*
X4589Y4156D01*
X4555Y4190D02*
Y4211D01*
X4511Y4254D02*
X4555Y4211D01*
X4473Y4216D02*
X4498Y4191D01*
X4511Y4254D02*
Y4762D01*
X4473Y4216D02*
Y4775D01*
X4409Y4280D02*
Y5055D01*
X4384Y4254D02*
X4409Y4280D01*
X4557Y3751D02*
X4562Y3746D01*
X4613Y4089D02*
X4625Y4077D01*
X3711Y3226D02*
X3734Y3249D01*
X3647Y3289D02*
X3711Y3226D01*
X3698Y2959D02*
X3927D01*
X3444Y3086D02*
X3495Y3035D01*
X3528Y2939D02*
X3538Y2949D01*
X3269Y2888D02*
X3635D01*
X3393Y3086D02*
Y3200D01*
X3597Y3429D02*
X3647Y3378D01*
Y3289D02*
Y3378D01*
X3495Y3302D02*
Y3327D01*
X3444Y3086D02*
Y3315D01*
X3419Y3340D02*
X3444Y3315D01*
X3419Y3340D02*
Y3769D01*
X3330Y3264D02*
X3393Y3200D01*
X3330Y3264D02*
Y3769D01*
Y3111D02*
Y3213D01*
X3292Y3251D02*
X3330Y3213D01*
X3838Y3368D02*
Y4008D01*
X4752Y3368D02*
X4854Y3470D01*
Y3586D02*
Y3785D01*
X3045Y4084D02*
X3393Y4432D01*
X3312Y4227D02*
X3317Y4219D01*
X4067Y4813D02*
Y5131D01*
Y4813D02*
X4117Y4762D01*
X3927Y4597D02*
Y4641D01*
X3967Y4681D01*
X4003D02*
X4067Y4745D01*
X3967Y4681D02*
X4003D01*
X3635Y4102D02*
Y4750D01*
X4092Y4369D02*
Y4458D01*
X2956Y4008D02*
X2982Y3983D01*
X2956Y4008D02*
X3032Y4084D01*
X2934Y3986D02*
X2956Y4008D01*
X2934Y3947D02*
Y3986D01*
X3032Y4084D02*
X3045D01*
X2880Y4304D02*
Y5073D01*
X2873Y5080D02*
X2880Y5073D01*
X3173Y4394D02*
X3279D01*
X2840Y4061D02*
X3173Y4394D01*
X4288Y3297D02*
X4328Y3257D01*
X4288Y3297D02*
Y3472D01*
X4562Y3746D01*
X3758Y5778D02*
X5232D01*
X3406Y5524D02*
X3504D01*
X3758Y5778D01*
X4996Y6033D02*
X5273D01*
X4988Y6040D02*
X4996Y6033D01*
X4911Y6040D02*
X4988D01*
X4879Y6007D02*
X4911Y6040D01*
X3825Y6007D02*
X4879D01*
X4718Y3788D02*
X4790Y3860D01*
X4717Y3788D02*
X4718D01*
X4689Y3759D02*
X4717Y3788D01*
X5794Y4813D02*
X5832Y4775D01*
X4956Y3632D02*
X4986Y3602D01*
Y3424D02*
Y3602D01*
Y3424D02*
X5044Y3365D01*
X4905Y3607D02*
X4956Y3556D01*
Y3302D02*
Y3556D01*
Y3302D02*
X4981Y3277D01*
X4669Y3350D02*
X4689Y3330D01*
X4669Y3350D02*
Y3578D01*
X4689Y3599D02*
Y3759D01*
X4669Y3578D02*
X4689Y3599D01*
X3317Y4145D02*
Y4219D01*
X3279Y4107D02*
X3317Y4145D01*
X3279Y3492D02*
Y4107D01*
X5456Y5517D02*
Y5575D01*
X5387Y5448D02*
X5456Y5517D01*
X5387Y5397D02*
Y5448D01*
X5603Y4928D02*
X5794Y4737D01*
Y4674D02*
Y4737D01*
X5756Y4635D02*
X5794Y4674D01*
X3635Y2888D02*
Y2896D01*
X3698Y2959D01*
X5883Y3505D02*
Y3513D01*
X5273Y6033D02*
X5375Y6134D01*
X5794Y5626D02*
X5806Y5613D01*
X5540Y5626D02*
X5794D01*
X5337Y5715D02*
Y5778D01*
X5324Y5702D02*
X5337Y5715D01*
X5324Y5664D02*
Y5702D01*
Y5664D02*
X5349Y5639D01*
X5527D01*
X5540Y5626D01*
X5794Y4813D02*
Y5601D01*
X5806Y5613D01*
X5832Y3454D02*
X5883Y3505D01*
X5464Y3454D02*
X5832D01*
X5464Y3315D02*
Y3454D01*
X5387Y3238D02*
X5464Y3315D01*
X3952Y2934D02*
X4168D01*
X3927Y2959D02*
X3952Y2934D01*
X2682Y4635D02*
X2771Y4724D01*
X2657Y3467D02*
X2708Y3416D01*
X2657Y3467D02*
Y3581D01*
X2682Y4635D02*
Y4991D01*
X2733Y5042D01*
Y5156D01*
X2720Y5169D02*
X2733Y5156D01*
X2720Y5169D02*
Y5563D01*
X2758Y5601D01*
X4917Y4305D02*
X4956Y4267D01*
Y3632D02*
Y4267D01*
X4483Y3078D02*
X4511Y3048D01*
X4727D02*
X4752Y3073D01*
X4829Y3810D02*
X4854Y3785D01*
X5319Y5123D02*
Y5126D01*
X5286Y5093D02*
X5319Y5123D01*
X5286Y4699D02*
Y5093D01*
X4333Y4483D02*
Y4877D01*
X4295Y4445D02*
X4333Y4483D01*
X4295Y4140D02*
Y4445D01*
X4308Y5156D02*
X4409Y5055D01*
X5387Y3315D02*
Y3327D01*
X5413Y3353D01*
Y3835D01*
X5171Y4077D02*
X5413Y3835D01*
X5171Y4077D02*
Y4280D01*
X2982Y3983D02*
X3127Y3835D01*
Y3594D02*
Y3835D01*
X3063Y3531D02*
X3127Y3594D01*
X3063Y3378D02*
Y3531D01*
X5197Y4610D02*
X5235Y4572D01*
X5298D01*
X5362Y4635D01*
Y5017D01*
X5464Y5118D01*
Y5182D01*
X5438Y5207D02*
X5464Y5182D01*
X5362Y5207D02*
X5438D01*
X5210Y5359D02*
X5362Y5207D01*
X5210Y5359D02*
Y5385D01*
X2936Y4254D02*
Y5131D01*
X3846Y3340D02*
Y3360D01*
X4067Y4737D02*
Y4745D01*
X3901Y4572D02*
X3927Y4597D01*
X3901Y3378D02*
X3927Y3404D01*
X4054Y4128D02*
X4061Y4135D01*
X4054Y3442D02*
Y4128D01*
X4010Y3398D02*
X4054Y3442D01*
X4016Y3353D02*
X4041D01*
X4117Y3429D01*
X4067Y3297D02*
X4100D01*
X4168Y3365D01*
Y4369D01*
X4219Y3238D02*
X4221Y3241D01*
X4206Y4420D02*
X4221Y4407D01*
X4219Y3238D02*
Y3251D01*
X4221Y3241D02*
Y4407D01*
X3012Y3851D02*
Y3861D01*
X2898Y3736D02*
X3012Y3851D01*
X3673Y3871D02*
X3678Y3866D01*
X4968Y4343D02*
X4994Y4318D01*
X4981Y3277D02*
X4994D01*
X4905Y3607D02*
Y4115D01*
X5273Y3658D02*
X5298D01*
X5146Y3531D02*
X5273Y3658D01*
X5146Y3277D02*
Y3531D01*
X5057Y4115D02*
X5095Y4077D01*
X3317Y3086D02*
Y3099D01*
X3330Y3111D01*
X3279Y3492D02*
X3292Y3480D01*
Y3251D02*
Y3480D01*
X3457Y3683D02*
X3533Y3759D01*
X3457Y3365D02*
Y3683D01*
Y3365D02*
X3495Y3327D01*
X3241Y4155D02*
X3266Y4178D01*
X3241Y3365D02*
Y4155D01*
Y3365D02*
X3254Y3353D01*
X3165Y3899D02*
X3190Y3924D01*
X3165Y3581D02*
Y3899D01*
X3114Y3531D02*
X3165Y3581D01*
X3114Y3378D02*
Y3531D01*
X3597Y3429D02*
Y3581D01*
X3749Y3734D01*
Y3988D01*
X2898Y5537D02*
X3368Y6007D01*
Y6020D01*
X2835Y4699D02*
Y4813D01*
X4740Y4077D02*
Y4115D01*
X4625Y4077D02*
X4740D01*
X5250Y4646D02*
X5258D01*
X5260Y4648D01*
X5210Y5512D02*
Y5524D01*
X5133Y5436D02*
X5210Y5512D01*
X5235Y4674D02*
X5260Y4648D01*
X4003Y4150D02*
X4061Y4209D01*
Y4237D01*
X4067Y4242D01*
X4092Y4458D02*
X4117Y4483D01*
Y4762D01*
X4003Y3467D02*
Y4150D01*
X5044Y3251D02*
Y3365D01*
X4912Y3208D02*
X5001D01*
X5044Y3251D01*
X3965Y3289D02*
Y3353D01*
X3970Y3358D01*
Y3372D01*
X3997Y3398D01*
X4010D01*
X3838Y3368D02*
X3846Y3360D01*
X3887Y4053D02*
X3927Y4013D01*
Y3404D02*
Y4013D01*
X3635Y4102D02*
X3749Y3988D01*
X3716Y4641D02*
X3901Y4826D01*
X4067Y4242D02*
Y4317D01*
X4086Y4337D01*
Y4363D01*
X4092Y4369D01*
X3716Y4130D02*
Y4641D01*
Y4130D02*
X3838Y4008D01*
X3559Y4046D02*
Y4216D01*
Y4046D02*
X3673Y3932D01*
Y3871D02*
Y3932D01*
X3887Y4053D02*
Y4335D01*
X3901Y4350D01*
Y4572D01*
X4928Y4491D02*
Y4625D01*
Y4491D02*
X4968Y4450D01*
Y4343D02*
Y4450D01*
X5133Y4986D02*
X5235Y4884D01*
Y4674D02*
Y4884D01*
X5014Y5367D02*
X5133Y5248D01*
Y4986D02*
Y5248D01*
Y5436D02*
X5135Y5433D01*
Y5250D02*
Y5433D01*
X5133Y5248D02*
X5135Y5250D01*
X5009Y5367D02*
X5014D01*
X4928Y5448D02*
X5009Y5367D01*
X5845Y5144D02*
X5862Y5126D01*
Y4349D02*
Y5126D01*
X5032Y4420D02*
X5171Y4280D01*
X5387Y5397D02*
X5603Y5182D01*
Y4928D02*
Y5182D01*
X2974Y3513D02*
X3033Y3454D01*
X2974Y3513D02*
Y3581D01*
X2957D02*
X2974D01*
X2949Y3589D02*
X2957Y3581D01*
X4994Y3650D02*
X5044Y3599D01*
Y3442D02*
Y3599D01*
X4994Y3650D02*
Y4318D01*
X5091Y3765D02*
X5095Y3770D01*
Y4077D01*
X5091Y3319D02*
X5095Y3315D01*
X5091Y3319D02*
Y3765D01*
X2759Y4184D02*
X2880Y4304D01*
X2733Y4597D02*
X2835Y4699D01*
X2751Y4184D02*
X2759D01*
X2840Y4021D02*
Y4061D01*
X2682Y4209D02*
Y4635D01*
X2733Y4229D02*
Y4597D01*
X3114Y3378D02*
X3216Y3277D01*
X3063Y3378D02*
X3139Y3302D01*
Y3226D02*
Y3302D01*
X3162Y2939D02*
X3528D01*
X3033Y3279D02*
X3078Y3234D01*
X3109Y3195D02*
X3139Y3226D01*
X3109Y3117D02*
Y3195D01*
X3107Y3115D02*
X3109Y3117D01*
X3077Y3128D02*
X3078Y3129D01*
Y3234D01*
X3077Y3024D02*
Y3128D01*
X3107Y3063D02*
Y3115D01*
Y3063D02*
X3145Y3025D01*
X3077Y3024D02*
X3162Y2939D01*
X5331Y2921D02*
X5387Y2977D01*
Y3238D01*
X5857Y3538D02*
X5883Y3513D01*
X5832Y4216D02*
Y4775D01*
X5857Y3538D02*
Y3823D01*
X5878Y3843D01*
X5832Y4216D02*
X5878Y4170D01*
Y3843D02*
Y4015D01*
X5868Y4025D02*
X5878Y4015D01*
X5868Y4077D02*
X5878Y4087D01*
Y4170D01*
X5908Y4216D02*
X5921Y4228D01*
X5908Y3759D02*
Y4028D01*
Y4075D02*
Y4216D01*
X5898Y4065D02*
X5908Y4075D01*
X5898Y4038D02*
Y4065D01*
Y4038D02*
X5908Y4028D01*
X5868Y4025D02*
Y4077D01*
X5921Y4228D02*
Y4290D01*
X5862Y4349D02*
X5921Y4290D01*
X2695Y3883D02*
Y3910D01*
X2728Y3942D02*
Y3955D01*
Y3652D02*
Y3850D01*
X2695Y3883D02*
X2728Y3850D01*
X2695Y3910D02*
X2728Y3942D01*
X4328Y3147D02*
Y3257D01*
X4163Y2982D02*
X4328Y3147D01*
X4460Y2896D02*
X4468Y2888D01*
X4168Y2934D02*
X4214Y2888D01*
X4452D01*
X4460Y2896D01*
X4468Y2888D02*
X4474D01*
X4475Y2889D01*
X4511D01*
X2697Y4129D02*
X2751Y4184D01*
X2680Y4112D02*
X2697Y4129D01*
X2680Y4094D02*
Y4112D01*
X2634Y4048D02*
Y4161D01*
Y4048D02*
X2728Y3955D01*
X2634Y4161D02*
X2682Y4209D01*
X5375Y6134D02*
X5413D01*
X5273Y6033D02*
X5324Y5982D01*
Y5791D02*
X5337Y5778D01*
X5324Y5791D02*
Y5982D01*
X4722Y3105D02*
Y3143D01*
X4676Y3317D02*
X4689Y3330D01*
X4676Y3117D02*
Y3317D01*
X4752Y3073D02*
Y3075D01*
X4722Y3105D02*
X4752Y3075D01*
X4722Y3143D02*
X4752Y3173D01*
X4829Y3124D02*
X4912Y3208D01*
X4511Y2889D02*
X4517Y2883D01*
X4604D02*
X4616Y2870D01*
X4816D01*
X4867Y2921D01*
X5331D01*
X4517Y2883D02*
X4604D01*
X4483Y3078D02*
Y3114D01*
X4460Y2896D02*
Y2972D01*
X4511Y3048D02*
X4727D01*
X4752Y3173D02*
Y3368D01*
X4768Y3124D02*
X4829D01*
D61*
X4854Y3470D02*
Y3586D01*
D63*
X3695Y5170D02*
X3749Y5224D01*
X3695Y5076D02*
Y5170D01*
X3622Y5004D02*
X3695Y5076D01*
X3749Y5224D02*
Y5232D01*
X3726Y5254D02*
X3749Y5232D01*
X3726Y5254D02*
Y5292D01*
X3753Y5319D01*
X3894D01*
X3899Y5324D01*
X3665Y4818D02*
Y4961D01*
X3635Y4788D02*
X3665Y4818D01*
X3635Y4750D02*
Y4788D01*
X3660Y4966D02*
X3665Y4961D01*
D65*
X5291Y5570D02*
D03*
X5371D02*
D03*
D69*
X3152Y3096D02*
D03*
X3241Y3111D02*
D03*
X3180Y3025D02*
D03*
X2882Y3429D02*
D03*
X4562Y4407D02*
D03*
X4692Y4410D02*
D03*
X4676Y5093D02*
D03*
X4117Y4267D02*
D03*
X4155Y4381D02*
D03*
X4905Y4305D02*
D03*
X4557Y4122D02*
D03*
X4498Y4191D02*
D03*
X3734Y3249D02*
D03*
X3495Y3035D02*
D03*
X3538Y2949D02*
D03*
X3393Y3086D02*
D03*
X3696Y3396D02*
D03*
X3495Y3302D02*
D03*
X4216Y3167D02*
D03*
X3899Y5324D02*
D03*
X3416Y5027D02*
D03*
X3312Y4227D02*
D03*
X3950Y4343D02*
D03*
X3635Y4750D02*
D03*
X4915Y5639D02*
D03*
X4851Y5550D02*
D03*
X5456Y5575D02*
D03*
X5756Y4635D02*
D03*
X3825Y6007D02*
D03*
X3269Y2888D02*
D03*
X2708Y3416D02*
D03*
X5806Y5613D02*
D03*
X5794Y4813D02*
D03*
X5883Y3505D02*
D03*
X5387Y3238D02*
D03*
X2771Y4724D02*
D03*
X2758Y5601D02*
D03*
X4752Y4432D02*
D03*
X5319Y5126D02*
D03*
X5286Y4699D02*
D03*
X4333Y4877D02*
D03*
X4295Y4140D02*
D03*
X4384Y5220D02*
D03*
Y4254D02*
D03*
X4308Y5156D02*
D03*
X5387Y3315D02*
D03*
X5032Y4420D02*
D03*
X5908Y3759D02*
D03*
X5845Y5144D02*
D03*
X3406Y5524D02*
D03*
X5232Y5778D02*
D03*
X3393Y4432D02*
D03*
X2934Y3947D02*
D03*
X3419Y3769D02*
D03*
X3279Y4394D02*
D03*
X5210Y5385D02*
D03*
X5197Y4610D02*
D03*
X2873Y5080D02*
D03*
X2936Y4254D02*
D03*
Y5131D02*
D03*
X4163Y2982D02*
D03*
X3901Y4826D02*
D03*
X3846Y3340D02*
D03*
X4067Y4737D02*
D03*
X3901Y3378D02*
D03*
X4061Y4135D02*
D03*
X3965Y3289D02*
D03*
X4016Y3353D02*
D03*
X4067Y3297D02*
D03*
X4206Y4420D02*
D03*
X4219Y3251D02*
D03*
X3012Y3861D02*
D03*
X3678Y3866D02*
D03*
X5044Y3442D02*
D03*
X4905Y4115D02*
D03*
X4994Y3277D02*
D03*
X5298Y3658D02*
D03*
X5146Y3277D02*
D03*
X5095Y3315D02*
D03*
X5057Y4115D02*
D03*
X3317Y3086D02*
D03*
X3533Y3759D02*
D03*
X3266Y4178D02*
D03*
X3330Y3769D02*
D03*
X3190Y3924D02*
D03*
X2898Y5537D02*
D03*
X3368Y6020D02*
D03*
X2835Y4813D02*
D03*
X4813Y6088D02*
D03*
X3876Y2896D02*
D03*
X2781Y4270D02*
D03*
X5502Y4496D02*
D03*
X5705Y5245D02*
D03*
X4448Y3762D02*
D03*
X4333Y3416D02*
D03*
X3051Y4039D02*
D03*
X3241Y4762D02*
D03*
X2830Y3891D02*
D03*
X3597Y5707D02*
D03*
X3368Y5842D02*
D03*
X4860Y3411D02*
D03*
X5349Y5359D02*
D03*
X5806Y3785D02*
D03*
X5337Y3797D02*
D03*
X3965Y5626D02*
D03*
X4054Y3061D02*
D03*
X3299Y3023D02*
D03*
X3162Y3505D02*
D03*
X4740Y4115D02*
D03*
X4625Y5283D02*
D03*
X5210Y5524D02*
D03*
X5250Y4646D02*
D03*
X4928Y5448D02*
D03*
X4003Y3467D02*
D03*
X5032Y5448D02*
D03*
X3559Y4216D02*
D03*
X4928Y4625D02*
D03*
X2949Y3589D02*
D03*
X2840Y4021D02*
D03*
X2733Y4229D02*
D03*
X2978Y3314D02*
D03*
X2680Y4094D02*
D03*
X5509Y5893D02*
D03*
X5413Y6134D02*
D03*
X4676Y3117D02*
D03*
X4483Y3114D02*
D03*
X4460Y2972D02*
D03*
X4590Y2987D02*
D03*
X4768Y3124D02*
D03*
D70*
X4856Y3023D02*
D03*
D71*
X3238Y4902D02*
D03*
D74*
X3089Y5537D02*
X3622Y5004D01*
X2898Y5537D02*
X3089D01*
X3622Y5004D02*
X3660Y4966D01*
M02*
