G04 Layer_Color=2752767*
%FSLAX42Y42*%
%MOMM*%
G71*
G01*
G75*
%ADD258C,0.05*%
%ADD311C,0.07*%
D258*
X5271Y5550D02*
Y5591D01*
X5311D01*
Y5550D01*
X5271D01*
X5351D02*
Y5591D01*
X5392D01*
Y5550D01*
X5351D01*
X4676Y2893D02*
Y2934D01*
X4717D01*
Y2893D01*
X4676D01*
X2883Y5263D02*
Y5304D01*
X2924D01*
Y5263D01*
X2883D01*
X4676Y2893D02*
Y2934D01*
X4717D01*
Y2893D01*
X4676D01*
X5791Y6002D02*
X5771Y6043D01*
X5812D01*
X5791Y6002D01*
X2791D02*
X2771Y6043D01*
X2812D01*
X2791Y6002D01*
Y3002D02*
X2771Y3043D01*
X2812D01*
X2791Y3002D01*
X3023Y3222D02*
X3033Y3232D01*
X3044D01*
X3033Y3243D01*
X3044Y3253D01*
X3033D01*
X3023Y3263D01*
X3013Y3253D01*
X3003D01*
X3013Y3243D01*
X3003Y3232D01*
X3013D01*
X3023Y3222D01*
X3155Y3139D02*
X3165Y3160D01*
X3155Y3180D01*
X3175Y3170D01*
X3195Y3180D01*
X3185Y3160D01*
X3195Y3139D01*
X3175Y3150D01*
X3155Y3139D01*
X3160Y3005D02*
X3170Y3025D01*
X3160Y3045D01*
X3180Y3035D01*
X3200Y3045D01*
X3190Y3025D01*
X3200Y3005D01*
X3180Y3015D01*
X3160Y3005D01*
X3025Y3708D02*
X3035Y3729D01*
X3025Y3749D01*
X3045Y3739D01*
X3066Y3749D01*
X3056Y3729D01*
X3066Y3708D01*
X3045Y3719D01*
X3025Y3708D01*
X2962Y3731D02*
X2972Y3752D01*
X2962Y3772D01*
X2982Y3762D01*
X3002Y3772D01*
X2992Y3752D01*
X3002Y3731D01*
X2982Y3741D01*
X2962Y3731D01*
X2862Y3409D02*
X2872Y3429D01*
X2862Y3450D01*
X2882Y3439D01*
X2903Y3450D01*
X2892Y3429D01*
X2903Y3409D01*
X2882Y3419D01*
X2862Y3409D01*
X4595Y4234D02*
X4605Y4244D01*
X4615D01*
X4605Y4254D01*
X4615Y4265D01*
X4605D01*
X4595Y4275D01*
X4585Y4265D01*
X4575D01*
X4585Y4254D01*
X4575Y4244D01*
X4585D01*
X4595Y4234D01*
X4615Y4300D02*
X4625Y4310D01*
X4635D01*
X4625Y4321D01*
X4635Y4331D01*
X4625D01*
X4615Y4341D01*
X4605Y4331D01*
X4595D01*
X4605Y4321D01*
X4595Y4310D01*
X4605D01*
X4615Y4300D01*
X4745Y4351D02*
X4755Y4371D01*
X4745Y4392D01*
X4765Y4381D01*
X4785Y4392D01*
X4775Y4371D01*
X4785Y4351D01*
X4765Y4361D01*
X4745Y4351D01*
X4519Y5184D02*
X4529Y5204D01*
X4519Y5225D01*
X4539Y5215D01*
X4559Y5225D01*
X4549Y5204D01*
X4559Y5184D01*
X4539Y5194D01*
X4519Y5184D01*
X4397Y5240D02*
X4407Y5260D01*
X4397Y5281D01*
X4417Y5271D01*
X4437Y5281D01*
X4427Y5260D01*
X4437Y5240D01*
X4417Y5250D01*
X4397Y5240D01*
X4717Y4953D02*
X4727Y4973D01*
X4717Y4994D01*
X4737Y4983D01*
X4757Y4994D01*
X4747Y4973D01*
X4757Y4953D01*
X4737Y4963D01*
X4717Y4953D01*
X4554Y4945D02*
X4564Y4966D01*
X4554Y4986D01*
X4575Y4976D01*
X4595Y4986D01*
X4585Y4966D01*
X4595Y4945D01*
X4575Y4956D01*
X4554Y4945D01*
X4846Y5085D02*
X4856Y5105D01*
X4846Y5126D01*
X4867Y5116D01*
X4887Y5126D01*
X4877Y5105D01*
X4887Y5085D01*
X4867Y5095D01*
X4846Y5085D01*
X4656Y5072D02*
X4666Y5093D01*
X4656Y5113D01*
X4676Y5103D01*
X4696Y5113D01*
X4686Y5093D01*
X4696Y5072D01*
X4676Y5083D01*
X4656Y5072D01*
X4097Y4247D02*
X4107Y4267D01*
X4097Y4288D01*
X4117Y4277D01*
X4138Y4288D01*
X4128Y4267D01*
X4138Y4247D01*
X4117Y4257D01*
X4097Y4247D01*
X4021Y4336D02*
X4031Y4356D01*
X4021Y4376D01*
X4041Y4366D01*
X4061Y4376D01*
X4051Y4356D01*
X4061Y4336D01*
X4041Y4346D01*
X4021Y4336D01*
X4135Y4361D02*
X4145Y4381D01*
X4135Y4402D01*
X4155Y4392D01*
X4176Y4402D01*
X4166Y4381D01*
X4176Y4361D01*
X4155Y4371D01*
X4135Y4361D01*
X3487Y3078D02*
X3498Y3099D01*
X3487Y3119D01*
X3508Y3109D01*
X3528Y3119D01*
X3518Y3099D01*
X3528Y3078D01*
X3508Y3089D01*
X3487Y3078D01*
X3675Y3376D02*
X3686Y3396D01*
X3675Y3416D01*
X3696Y3406D01*
X3716Y3416D01*
X3706Y3396D01*
X3716Y3376D01*
X3696Y3386D01*
X3675Y3376D01*
X3645Y3495D02*
X3655Y3515D01*
X3645Y3536D01*
X3665Y3526D01*
X3686Y3536D01*
X3675Y3515D01*
X3686Y3495D01*
X3665Y3505D01*
X3645Y3495D01*
X4254Y3236D02*
X4265Y3256D01*
X4254Y3277D01*
X4275Y3266D01*
X4295Y3277D01*
X4285Y3256D01*
X4295Y3236D01*
X4275Y3246D01*
X4254Y3236D01*
X4257Y3162D02*
X4267Y3183D01*
X4257Y3203D01*
X4277Y3193D01*
X4298Y3203D01*
X4288Y3183D01*
X4298Y3162D01*
X4277Y3172D01*
X4257Y3162D01*
X4196Y3147D02*
X4206Y3167D01*
X4196Y3188D01*
X4216Y3178D01*
X4237Y3188D01*
X4227Y3167D01*
X4237Y3147D01*
X4216Y3157D01*
X4196Y3147D01*
X3720Y5130D02*
X3730Y5151D01*
X3720Y5171D01*
X3740Y5161D01*
X3760Y5171D01*
X3750Y5151D01*
X3760Y5130D01*
X3740Y5141D01*
X3720Y5130D01*
X3764Y5077D02*
X3774Y5098D01*
X3764Y5118D01*
X3785Y5108D01*
X3805Y5118D01*
X3795Y5098D01*
X3805Y5077D01*
X3785Y5088D01*
X3764Y5077D01*
X3896Y5194D02*
X3907Y5215D01*
X3896Y5235D01*
X3917Y5225D01*
X3937Y5235D01*
X3927Y5215D01*
X3937Y5194D01*
X3917Y5204D01*
X3896Y5194D01*
X3879Y5304D02*
X3889Y5324D01*
X3879Y5344D01*
X3899Y5334D01*
X3919Y5344D01*
X3909Y5324D01*
X3919Y5304D01*
X3899Y5314D01*
X3879Y5304D01*
X4150Y5425D02*
X4161Y5446D01*
X4150Y5466D01*
X4171Y5456D01*
X4191Y5466D01*
X4181Y5446D01*
X4191Y5425D01*
X4171Y5436D01*
X4150Y5425D01*
X3396Y5006D02*
X3406Y5027D01*
X3396Y5047D01*
X3416Y5037D01*
X3437Y5047D01*
X3426Y5027D01*
X3437Y5006D01*
X3416Y5017D01*
X3396Y5006D01*
X3566Y4359D02*
X3576Y4369D01*
X3586D01*
X3576Y4379D01*
X3586Y4389D01*
X3576D01*
X3566Y4399D01*
X3556Y4389D01*
X3546D01*
X3556Y4379D01*
X3546Y4369D01*
X3556D01*
X3566Y4359D01*
X3386Y4755D02*
X3396Y4775D01*
X3386Y4796D01*
X3406Y4785D01*
X3426Y4796D01*
X3416Y4775D01*
X3426Y4755D01*
X3406Y4765D01*
X3386Y4755D01*
X3292Y4206D02*
X3302Y4227D01*
X3292Y4247D01*
X3312Y4237D01*
X3332Y4247D01*
X3322Y4227D01*
X3332Y4206D01*
X3312Y4216D01*
X3292Y4206D01*
X3965Y4615D02*
X3975Y4635D01*
X3965Y4656D01*
X3985Y4646D01*
X4006Y4656D01*
X3995Y4635D01*
X4006Y4615D01*
X3985Y4625D01*
X3965Y4615D01*
X3015Y4803D02*
X3025Y4823D01*
X3015Y4844D01*
X3035Y4834D01*
X3056Y4844D01*
X3045Y4823D01*
X3056Y4803D01*
X3035Y4813D01*
X3015Y4803D01*
X3929Y4323D02*
X3940Y4343D01*
X3929Y4364D01*
X3950Y4354D01*
X3970Y4364D01*
X3960Y4343D01*
X3970Y4323D01*
X3950Y4333D01*
X3929Y4323D01*
X3912Y4214D02*
X3922Y4234D01*
X3912Y4254D01*
X3932Y4244D01*
X3952Y4254D01*
X3942Y4234D01*
X3952Y4214D01*
X3932Y4224D01*
X3912Y4214D01*
X3780Y4298D02*
X3790Y4318D01*
X3780Y4338D01*
X3800Y4328D01*
X3820Y4338D01*
X3810Y4318D01*
X3820Y4298D01*
X3800Y4308D01*
X3780Y4298D01*
X3818Y4425D02*
X3828Y4445D01*
X3818Y4465D01*
X3838Y4455D01*
X3858Y4465D01*
X3848Y4445D01*
X3858Y4425D01*
X3838Y4435D01*
X3818Y4425D01*
X4679Y3813D02*
X4689Y3833D01*
X4679Y3853D01*
X4699Y3843D01*
X4719Y3853D01*
X4709Y3833D01*
X4719Y3813D01*
X4699Y3823D01*
X4679Y3813D01*
X3332Y4092D02*
X3343Y4112D01*
X3332Y4133D01*
X3353Y4122D01*
X3373Y4133D01*
X3363Y4112D01*
X3373Y4092D01*
X3353Y4102D01*
X3332Y4092D01*
X4895Y5618D02*
X4905Y5639D01*
X4895Y5659D01*
X4915Y5649D01*
X4935Y5659D01*
X4925Y5639D01*
X4935Y5618D01*
X4915Y5629D01*
X4895Y5618D01*
X4831Y5530D02*
X4841Y5550D01*
X4831Y5570D01*
X4851Y5560D01*
X4872Y5570D01*
X4862Y5550D01*
X4872Y5530D01*
X4851Y5540D01*
X4831Y5530D01*
X3238Y4882D02*
X3249Y4892D01*
X3259D01*
X3249Y4902D01*
X3259Y4912D01*
X3249D01*
X3238Y4923D01*
X3228Y4912D01*
X3218D01*
X3228Y4902D01*
X3218Y4892D01*
X3228D01*
X3238Y4882D01*
X4757Y5885D02*
X4768Y5906D01*
X4757Y5926D01*
X4778Y5916D01*
X4798Y5926D01*
X4788Y5906D01*
X4798Y5885D01*
X4778Y5895D01*
X4757Y5885D01*
X5024Y5961D02*
X5034Y5982D01*
X5024Y6002D01*
X5044Y5992D01*
X5065Y6002D01*
X5055Y5982D01*
X5065Y5961D01*
X5044Y5972D01*
X5024Y5961D01*
X5431Y5403D02*
X5441Y5423D01*
X5431Y5443D01*
X5451Y5433D01*
X5471Y5443D01*
X5461Y5423D01*
X5471Y5403D01*
X5451Y5413D01*
X5431Y5403D01*
X5436Y5555D02*
X5446Y5575D01*
X5436Y5596D01*
X5456Y5585D01*
X5476Y5596D01*
X5466Y5575D01*
X5476Y5555D01*
X5456Y5565D01*
X5436Y5555D01*
X5507Y5390D02*
X5517Y5410D01*
X5507Y5431D01*
X5527Y5420D01*
X5547Y5431D01*
X5537Y5410D01*
X5547Y5390D01*
X5527Y5400D01*
X5507Y5390D01*
X5469Y5771D02*
X5479Y5791D01*
X5469Y5812D01*
X5489Y5801D01*
X5509Y5812D01*
X5499Y5791D01*
X5509Y5771D01*
X5489Y5781D01*
X5469Y5771D01*
X5824Y3891D02*
X5834Y3912D01*
X5824Y3932D01*
X5845Y3922D01*
X5865Y3932D01*
X5855Y3912D01*
X5865Y3891D01*
X5845Y3901D01*
X5824Y3891D01*
X4618Y6101D02*
X4628Y6121D01*
X4618Y6142D01*
X4638Y6132D01*
X4658Y6142D01*
X4648Y6121D01*
X4658Y6101D01*
X4638Y6111D01*
X4618Y6101D01*
X4503D02*
X4514Y6121D01*
X4503Y6142D01*
X4524Y6132D01*
X4544Y6142D01*
X4534Y6121D01*
X4544Y6101D01*
X4524Y6111D01*
X4503Y6101D01*
X4034Y6063D02*
X4044Y6083D01*
X4034Y6104D01*
X4054Y6093D01*
X4074Y6104D01*
X4064Y6083D01*
X4074Y6063D01*
X4054Y6073D01*
X4034Y6063D01*
X3919D02*
X3929Y6083D01*
X3919Y6104D01*
X3940Y6093D01*
X3960Y6104D01*
X3950Y6083D01*
X3960Y6063D01*
X3940Y6073D01*
X3919Y6063D01*
X4580Y5885D02*
X4590Y5906D01*
X4580Y5926D01*
X4600Y5916D01*
X4620Y5926D01*
X4610Y5906D01*
X4620Y5885D01*
X4600Y5895D01*
X4580Y5885D01*
X4034D02*
X4044Y5906D01*
X4034Y5926D01*
X4054Y5916D01*
X4074Y5926D01*
X4064Y5906D01*
X4074Y5885D01*
X4054Y5895D01*
X4034Y5885D01*
X5626Y3325D02*
X5636Y3345D01*
X5626Y3365D01*
X5646Y3355D01*
X5667Y3365D01*
X5657Y3345D01*
X5667Y3325D01*
X5646Y3335D01*
X5626Y3325D01*
X5606Y3876D02*
X5616Y3896D01*
X5606Y3917D01*
X5626Y3907D01*
X5646Y3917D01*
X5636Y3896D01*
X5646Y3876D01*
X5626Y3886D01*
X5606Y3876D01*
X3805Y5987D02*
X3815Y6007D01*
X3805Y6027D01*
X3825Y6017D01*
X3846Y6027D01*
X3835Y6007D01*
X3846Y5987D01*
X3825Y5997D01*
X3805Y5987D01*
X3249Y2868D02*
X3259Y2888D01*
X3249Y2908D01*
X3269Y2898D01*
X3289Y2908D01*
X3279Y2888D01*
X3289Y2868D01*
X3269Y2878D01*
X3249Y2868D01*
X2687Y3396D02*
X2697Y3416D01*
X2687Y3437D01*
X2708Y3426D01*
X2728Y3437D01*
X2718Y3416D01*
X2728Y3396D01*
X2708Y3406D01*
X2687Y3396D01*
X4999Y4920D02*
X5009Y4940D01*
X4999Y4961D01*
X5019Y4950D01*
X5039Y4961D01*
X5029Y4940D01*
X5039Y4920D01*
X5019Y4930D01*
X4999Y4920D01*
X4224Y4742D02*
X4234Y4762D01*
X4224Y4783D01*
X4244Y4773D01*
X4265Y4783D01*
X4254Y4762D01*
X4265Y4742D01*
X4244Y4752D01*
X4224Y4742D01*
X4028Y4590D02*
X4039Y4610D01*
X4028Y4630D01*
X4049Y4620D01*
X4069Y4630D01*
X4059Y4610D01*
X4069Y4590D01*
X4049Y4600D01*
X4028Y4590D01*
X5156Y5558D02*
X5166Y5578D01*
X5156Y5598D01*
X5177Y5588D01*
X5197Y5598D01*
X5187Y5578D01*
X5197Y5558D01*
X5177Y5568D01*
X5156Y5558D01*
X5227Y6101D02*
X5237Y6121D01*
X5227Y6142D01*
X5248Y6132D01*
X5268Y6142D01*
X5258Y6121D01*
X5268Y6101D01*
X5248Y6111D01*
X5227Y6101D01*
X2738Y4793D02*
X2748Y4813D01*
X2738Y4834D01*
X2758Y4823D01*
X2779Y4834D01*
X2769Y4813D01*
X2779Y4793D01*
X2758Y4803D01*
X2738Y4793D01*
X3792Y6088D02*
X3802Y6109D01*
X3792Y6129D01*
X3813Y6119D01*
X3833Y6129D01*
X3823Y6109D01*
X3833Y6088D01*
X3813Y6099D01*
X3792Y6088D01*
X3386Y5504D02*
X3396Y5524D01*
X3386Y5545D01*
X3406Y5535D01*
X3426Y5545D01*
X3416Y5524D01*
X3426Y5504D01*
X3406Y5514D01*
X3386Y5504D01*
X3373Y4412D02*
X3383Y4432D01*
X3373Y4453D01*
X3393Y4442D01*
X3414Y4453D01*
X3404Y4432D01*
X3414Y4412D01*
X3393Y4422D01*
X3373Y4412D01*
X2913Y3927D02*
X2924Y3947D01*
X2913Y3967D01*
X2934Y3957D01*
X2954Y3967D01*
X2944Y3947D01*
X2954Y3927D01*
X2934Y3937D01*
X2913Y3927D01*
X5240Y4171D02*
X5250Y4191D01*
X5240Y4211D01*
X5260Y4201D01*
X5281Y4211D01*
X5271Y4191D01*
X5281Y4171D01*
X5260Y4181D01*
X5240Y4171D01*
X3297Y5745D02*
X3307Y5766D01*
X3297Y5786D01*
X3317Y5776D01*
X3338Y5786D01*
X3327Y5766D01*
X3338Y5745D01*
X3317Y5756D01*
X3297Y5745D01*
X5062Y4653D02*
X5072Y4674D01*
X5062Y4694D01*
X5083Y4684D01*
X5103Y4694D01*
X5093Y4674D01*
X5103Y4653D01*
X5083Y4663D01*
X5062Y4653D01*
X2700Y3485D02*
X2710Y3505D01*
X2700Y3526D01*
X2720Y3515D01*
X2741Y3526D01*
X2731Y3505D01*
X2741Y3485D01*
X2720Y3495D01*
X2700Y3485D01*
X3399Y3749D02*
X3409Y3769D01*
X3399Y3790D01*
X3419Y3780D01*
X3439Y3790D01*
X3429Y3769D01*
X3439Y3749D01*
X3419Y3759D01*
X3399Y3749D01*
X5469Y5707D02*
X5479Y5728D01*
X5469Y5748D01*
X5489Y5738D01*
X5509Y5748D01*
X5499Y5728D01*
X5509Y5707D01*
X5489Y5718D01*
X5469Y5707D01*
X3513Y3332D02*
X3523Y3353D01*
X3513Y3373D01*
X3533Y3363D01*
X3553Y3373D01*
X3543Y3353D01*
X3553Y3332D01*
X3533Y3343D01*
X3513Y3332D01*
X3368Y3002D02*
X3378Y3023D01*
X3368Y3043D01*
X3388Y3033D01*
X3409Y3043D01*
X3399Y3023D01*
X3409Y3002D01*
X3388Y3012D01*
X3368Y3002D01*
X3259Y4374D02*
X3269Y4394D01*
X3259Y4415D01*
X3279Y4404D01*
X3299Y4415D01*
X3289Y4394D01*
X3299Y4374D01*
X3279Y4384D01*
X3259Y4374D01*
X4757Y5225D02*
X4768Y5245D01*
X4757Y5265D01*
X4778Y5255D01*
X4798Y5265D01*
X4788Y5245D01*
X4798Y5225D01*
X4778Y5235D01*
X4757Y5225D01*
X3068Y4399D02*
X3078Y4420D01*
X3068Y4440D01*
X3089Y4430D01*
X3109Y4440D01*
X3099Y4420D01*
X3109Y4399D01*
X3089Y4409D01*
X3068Y4399D01*
X5189Y5364D02*
X5199Y5385D01*
X5189Y5405D01*
X5210Y5395D01*
X5230Y5405D01*
X5220Y5385D01*
X5230Y5364D01*
X5210Y5375D01*
X5189Y5364D01*
X2852Y5060D02*
X2863Y5080D01*
X2852Y5100D01*
X2873Y5090D01*
X2893Y5100D01*
X2883Y5080D01*
X2893Y5060D01*
X2873Y5070D01*
X2852Y5060D01*
X2916Y5110D02*
X2926Y5131D01*
X2916Y5151D01*
X2936Y5141D01*
X2957Y5151D01*
X2946Y5131D01*
X2957Y5110D01*
X2936Y5121D01*
X2916Y5110D01*
X5189Y5250D02*
X5199Y5271D01*
X5189Y5291D01*
X5210Y5281D01*
X5230Y5291D01*
X5220Y5271D01*
X5230Y5250D01*
X5210Y5260D01*
X5189Y5250D01*
X5227Y5187D02*
X5237Y5207D01*
X5227Y5227D01*
X5248Y5217D01*
X5268Y5227D01*
X5258Y5207D01*
X5268Y5187D01*
X5248Y5197D01*
X5227Y5187D01*
X3716Y4971D02*
X3726Y4991D01*
X3716Y5011D01*
X3736Y5001D01*
X3757Y5011D01*
X3747Y4991D01*
X3757Y4971D01*
X3736Y4981D01*
X3716Y4971D01*
X3208Y3015D02*
X3218Y3035D01*
X3208Y3056D01*
X3228Y3045D01*
X3249Y3056D01*
X3238Y3035D01*
X3249Y3015D01*
X3228Y3025D01*
X3208Y3015D01*
X4186Y4793D02*
X4196Y4813D01*
X4186Y4834D01*
X4206Y4823D01*
X4227Y4834D01*
X4216Y4813D01*
X4227Y4793D01*
X4206Y4803D01*
X4186Y4793D01*
X4046Y4717D02*
X4056Y4737D01*
X4046Y4757D01*
X4067Y4747D01*
X4087Y4757D01*
X4077Y4737D01*
X4087Y4717D01*
X4067Y4727D01*
X4046Y4717D01*
X4041Y4115D02*
X4051Y4135D01*
X4041Y4155D01*
X4061Y4145D01*
X4082Y4155D01*
X4072Y4135D01*
X4082Y4115D01*
X4061Y4125D01*
X4041Y4115D01*
X4186Y4399D02*
X4196Y4420D01*
X4186Y4440D01*
X4206Y4430D01*
X4227Y4440D01*
X4216Y4420D01*
X4227Y4399D01*
X4206Y4409D01*
X4186Y4399D01*
X3945D02*
X3955Y4420D01*
X3945Y4440D01*
X3965Y4430D01*
X3985Y4440D01*
X3975Y4420D01*
X3985Y4399D01*
X3965Y4409D01*
X3945Y4399D01*
X2654Y3797D02*
X2664Y3818D01*
X2654Y3838D01*
X2675Y3828D01*
X2695Y3838D01*
X2685Y3818D01*
X2695Y3797D01*
X2675Y3807D01*
X2654Y3797D01*
X2764Y3371D02*
X2774Y3391D01*
X2764Y3411D01*
X2784Y3401D01*
X2804Y3411D01*
X2794Y3391D01*
X2804Y3371D01*
X2784Y3381D01*
X2764Y3371D01*
X3658Y3846D02*
X3668Y3866D01*
X3658Y3886D01*
X3678Y3876D01*
X3698Y3886D01*
X3688Y3866D01*
X3698Y3846D01*
X3678Y3856D01*
X3658Y3846D01*
X4884Y4412D02*
X4895Y4432D01*
X4884Y4453D01*
X4905Y4442D01*
X4925Y4453D01*
X4915Y4432D01*
X4925Y4412D01*
X4905Y4422D01*
X4884Y4412D01*
X4910Y5974D02*
X4920Y5994D01*
X4910Y6015D01*
X4930Y6005D01*
X4950Y6015D01*
X4940Y5994D01*
X4950Y5974D01*
X4930Y5984D01*
X4910Y5974D01*
X4173Y4602D02*
X4183Y4623D01*
X4173Y4643D01*
X4194Y4633D01*
X4214Y4643D01*
X4204Y4623D01*
X4214Y4602D01*
X4194Y4613D01*
X4173Y4602D01*
X3208Y5237D02*
X3218Y5258D01*
X3208Y5278D01*
X3228Y5268D01*
X3249Y5278D01*
X3238Y5258D01*
X3249Y5237D01*
X3228Y5248D01*
X3208Y5237D01*
X5728Y4432D02*
X5738Y4453D01*
X5728Y4473D01*
X5748Y4463D01*
X5768Y4473D01*
X5758Y4453D01*
X5768Y4432D01*
X5748Y4442D01*
X5728Y4432D01*
X5494Y3955D02*
X5504Y3975D01*
X5494Y3995D01*
X5514Y3985D01*
X5535Y3995D01*
X5524Y3975D01*
X5535Y3955D01*
X5514Y3965D01*
X5494Y3955D01*
X5786Y3383D02*
X5796Y3404D01*
X5786Y3424D01*
X5806Y3414D01*
X5827Y3424D01*
X5817Y3404D01*
X5827Y3383D01*
X5806Y3393D01*
X5786Y3383D01*
X5507Y5314D02*
X5517Y5334D01*
X5507Y5354D01*
X5527Y5344D01*
X5547Y5354D01*
X5537Y5334D01*
X5547Y5314D01*
X5527Y5324D01*
X5507Y5314D01*
X4884Y4094D02*
X4895Y4115D01*
X4884Y4135D01*
X4905Y4125D01*
X4925Y4135D01*
X4915Y4115D01*
X4925Y4094D01*
X4905Y4105D01*
X4884Y4094D01*
X5278Y3637D02*
X5288Y3658D01*
X5278Y3678D01*
X5298Y3668D01*
X5319Y3678D01*
X5309Y3658D01*
X5319Y3637D01*
X5298Y3647D01*
X5278Y3637D01*
X5037Y4094D02*
X5047Y4115D01*
X5037Y4135D01*
X5057Y4125D01*
X5077Y4135D01*
X5067Y4115D01*
X5077Y4094D01*
X5057Y4105D01*
X5037Y4094D01*
X4783Y3350D02*
X4793Y3370D01*
X4783Y3390D01*
X4803Y3380D01*
X4823Y3390D01*
X4813Y3370D01*
X4823Y3350D01*
X4803Y3360D01*
X4783Y3350D01*
X4709Y3378D02*
X4719Y3399D01*
X4709Y3419D01*
X4729Y3409D01*
X4750Y3419D01*
X4740Y3399D01*
X4750Y3378D01*
X4729Y3388D01*
X4709Y3378D01*
X4605Y3282D02*
X4615Y3302D01*
X4605Y3322D01*
X4625Y3312D01*
X4646Y3322D01*
X4635Y3302D01*
X4646Y3282D01*
X4625Y3292D01*
X4605Y3282D01*
X4580Y3371D02*
X4590Y3391D01*
X4580Y3411D01*
X4600Y3401D01*
X4620Y3411D01*
X4610Y3391D01*
X4620Y3371D01*
X4600Y3381D01*
X4580Y3371D01*
Y3434D02*
X4590Y3454D01*
X4580Y3475D01*
X4600Y3465D01*
X4620Y3475D01*
X4610Y3454D01*
X4620Y3434D01*
X4600Y3444D01*
X4580Y3434D01*
X4376Y3383D02*
X4387Y3404D01*
X4376Y3424D01*
X4397Y3414D01*
X4417Y3424D01*
X4407Y3404D01*
X4417Y3383D01*
X4397Y3393D01*
X4376Y3383D01*
X4473Y3340D02*
X4483Y3360D01*
X4473Y3381D01*
X4493Y3371D01*
X4514Y3381D01*
X4503Y3360D01*
X4514Y3340D01*
X4493Y3350D01*
X4473Y3340D01*
X4478Y3421D02*
X4488Y3442D01*
X4478Y3462D01*
X4498Y3452D01*
X4519Y3462D01*
X4508Y3442D01*
X4519Y3421D01*
X4498Y3432D01*
X4478Y3421D01*
X4884Y4209D02*
X4895Y4229D01*
X4884Y4249D01*
X4905Y4239D01*
X4925Y4249D01*
X4915Y4229D01*
X4925Y4209D01*
X4905Y4219D01*
X4884Y4209D01*
X3729Y5377D02*
X3739Y5397D01*
X3729Y5418D01*
X3749Y5408D01*
X3769Y5418D01*
X3759Y5397D01*
X3769Y5377D01*
X3749Y5387D01*
X3729Y5377D01*
X4529Y5250D02*
X4539Y5271D01*
X4529Y5291D01*
X4549Y5281D01*
X4569Y5291D01*
X4559Y5271D01*
X4569Y5250D01*
X4549Y5260D01*
X4529Y5250D01*
X3736Y5524D02*
X3747Y5545D01*
X3736Y5565D01*
X3757Y5555D01*
X3777Y5565D01*
X3767Y5545D01*
X3777Y5524D01*
X3757Y5535D01*
X3736Y5524D01*
X3868Y5555D02*
X3879Y5575D01*
X3868Y5596D01*
X3889Y5585D01*
X3909Y5596D01*
X3899Y5575D01*
X3909Y5555D01*
X3889Y5565D01*
X3868Y5555D01*
X3018Y3625D02*
X3028Y3645D01*
X3018Y3665D01*
X3038Y3655D01*
X3058Y3665D01*
X3048Y3645D01*
X3058Y3625D01*
X3038Y3635D01*
X3018Y3625D01*
X3246Y4158D02*
X3256Y4178D01*
X3246Y4199D01*
X3266Y4188D01*
X3287Y4199D01*
X3277Y4178D01*
X3287Y4158D01*
X3266Y4168D01*
X3246Y4158D01*
X2906Y3327D02*
X2916Y3348D01*
X2906Y3368D01*
X2926Y3358D01*
X2946Y3368D01*
X2936Y3348D01*
X2946Y3327D01*
X2926Y3338D01*
X2906Y3327D01*
X2802Y3421D02*
X2812Y3442D01*
X2802Y3462D01*
X2822Y3452D01*
X2842Y3462D01*
X2832Y3442D01*
X2842Y3421D01*
X2822Y3432D01*
X2802Y3421D01*
X3030Y3790D02*
X3040Y3810D01*
X3030Y3830D01*
X3051Y3820D01*
X3071Y3830D01*
X3061Y3810D01*
X3071Y3790D01*
X3051Y3800D01*
X3030Y3790D01*
X3170Y3904D02*
X3180Y3924D01*
X3170Y3945D01*
X3190Y3934D01*
X3211Y3945D01*
X3200Y3924D01*
X3211Y3904D01*
X3190Y3914D01*
X3170Y3904D01*
X5431Y4412D02*
X5441Y4432D01*
X5431Y4453D01*
X5451Y4442D01*
X5471Y4453D01*
X5461Y4432D01*
X5471Y4412D01*
X5451Y4422D01*
X5431Y4412D01*
X5367Y4399D02*
X5377Y4420D01*
X5367Y4440D01*
X5387Y4430D01*
X5408Y4440D01*
X5397Y4420D01*
X5408Y4399D01*
X5387Y4409D01*
X5367Y4399D01*
X2878Y5517D02*
X2888Y5537D01*
X2878Y5558D01*
X2898Y5547D01*
X2918Y5558D01*
X2908Y5537D01*
X2918Y5517D01*
X2898Y5527D01*
X2878Y5517D01*
X3818Y5034D02*
X3828Y5055D01*
X3818Y5075D01*
X3838Y5065D01*
X3858Y5075D01*
X3848Y5055D01*
X3858Y5034D01*
X3838Y5044D01*
X3818Y5034D01*
X5113Y4615D02*
X5123Y4635D01*
X5113Y4656D01*
X5133Y4646D01*
X5154Y4656D01*
X5144Y4635D01*
X5154Y4615D01*
X5133Y4625D01*
X5113Y4615D01*
X4249Y3498D02*
X4260Y3518D01*
X4249Y3538D01*
X4270Y3528D01*
X4290Y3538D01*
X4280Y3518D01*
X4290Y3498D01*
X4270Y3508D01*
X4249Y3498D01*
X4211Y5631D02*
X4221Y5651D01*
X4211Y5672D01*
X4232Y5662D01*
X4252Y5672D01*
X4242Y5651D01*
X4252Y5631D01*
X4232Y5641D01*
X4211Y5631D01*
X5697Y4679D02*
X5707Y4699D01*
X5697Y4719D01*
X5718Y4709D01*
X5738Y4719D01*
X5728Y4699D01*
X5738Y4679D01*
X5718Y4689D01*
X5697Y4679D01*
X5646Y5428D02*
X5657Y5448D01*
X5646Y5469D01*
X5667Y5458D01*
X5687Y5469D01*
X5677Y5448D01*
X5687Y5428D01*
X5667Y5438D01*
X5646Y5428D01*
Y4285D02*
X5657Y4305D01*
X5646Y4326D01*
X5667Y4315D01*
X5687Y4326D01*
X5677Y4305D01*
X5687Y4285D01*
X5667Y4295D01*
X5646Y4285D01*
X4742Y3739D02*
X4752Y3759D01*
X4742Y3780D01*
X4762Y3769D01*
X4783Y3780D01*
X4773Y3759D01*
X4783Y3739D01*
X4762Y3749D01*
X4742Y3739D01*
X2814Y4793D02*
X2824Y4813D01*
X2814Y4834D01*
X2835Y4823D01*
X2855Y4834D01*
X2845Y4813D01*
X2855Y4793D01*
X2835Y4803D01*
X2814Y4793D01*
X4681Y5504D02*
X4691Y5524D01*
X4681Y5545D01*
X4702Y5535D01*
X4722Y5545D01*
X4712Y5524D01*
X4722Y5504D01*
X4702Y5514D01*
X4681Y5504D01*
X4793Y6068D02*
X4803Y6088D01*
X4793Y6109D01*
X4813Y6099D01*
X4834Y6109D01*
X4823Y6088D01*
X4834Y6068D01*
X4813Y6078D01*
X4793Y6068D01*
X2761Y4249D02*
X2771Y4270D01*
X2761Y4290D01*
X2781Y4280D01*
X2802Y4290D01*
X2791Y4270D01*
X2802Y4249D01*
X2781Y4260D01*
X2761Y4249D01*
X5481Y4475D02*
X5491Y4496D01*
X5481Y4516D01*
X5502Y4506D01*
X5522Y4516D01*
X5512Y4496D01*
X5522Y4475D01*
X5502Y4486D01*
X5481Y4475D01*
X5685Y5225D02*
X5695Y5245D01*
X5685Y5265D01*
X5705Y5255D01*
X5725Y5265D01*
X5715Y5245D01*
X5725Y5225D01*
X5705Y5235D01*
X5685Y5225D01*
X4427Y3741D02*
X4437Y3762D01*
X4427Y3782D01*
X4448Y3772D01*
X4468Y3782D01*
X4458Y3762D01*
X4468Y3741D01*
X4448Y3752D01*
X4427Y3741D01*
X4313Y3396D02*
X4323Y3416D01*
X4313Y3437D01*
X4333Y3426D01*
X4354Y3437D01*
X4343Y3416D01*
X4354Y3396D01*
X4333Y3406D01*
X4313Y3396D01*
X3030Y4018D02*
X3040Y4039D01*
X3030Y4059D01*
X3051Y4049D01*
X3071Y4059D01*
X3061Y4039D01*
X3071Y4018D01*
X3051Y4028D01*
X3030Y4018D01*
X3221Y4742D02*
X3231Y4762D01*
X3221Y4783D01*
X3241Y4773D01*
X3261Y4783D01*
X3251Y4762D01*
X3261Y4742D01*
X3241Y4752D01*
X3221Y4742D01*
X2809Y3871D02*
X2819Y3891D01*
X2809Y3912D01*
X2830Y3901D01*
X2850Y3912D01*
X2840Y3891D01*
X2850Y3871D01*
X2830Y3881D01*
X2809Y3871D01*
X3576Y5687D02*
X3586Y5707D01*
X3576Y5728D01*
X3597Y5718D01*
X3617Y5728D01*
X3607Y5707D01*
X3617Y5687D01*
X3597Y5697D01*
X3576Y5687D01*
X3348Y5822D02*
X3358Y5842D01*
X3348Y5862D01*
X3368Y5852D01*
X3388Y5862D01*
X3378Y5842D01*
X3388Y5822D01*
X3368Y5832D01*
X3348Y5822D01*
X4840Y3391D02*
X4850Y3411D01*
X4840Y3432D01*
X4860Y3421D01*
X4880Y3432D01*
X4870Y3411D01*
X4880Y3391D01*
X4860Y3401D01*
X4840Y3391D01*
X5329Y5339D02*
X5339Y5359D01*
X5329Y5380D01*
X5349Y5370D01*
X5370Y5380D01*
X5359Y5359D01*
X5370Y5339D01*
X5349Y5349D01*
X5329Y5339D01*
X5786Y3764D02*
X5796Y3785D01*
X5786Y3805D01*
X5806Y3795D01*
X5827Y3805D01*
X5817Y3785D01*
X5827Y3764D01*
X5806Y3774D01*
X5786Y3764D01*
X5316Y3777D02*
X5326Y3797D01*
X5316Y3818D01*
X5337Y3807D01*
X5357Y3818D01*
X5347Y3797D01*
X5357Y3777D01*
X5337Y3787D01*
X5316Y3777D01*
X3945Y5606D02*
X3955Y5626D01*
X3945Y5646D01*
X3965Y5636D01*
X3985Y5646D01*
X3975Y5626D01*
X3985Y5606D01*
X3965Y5616D01*
X3945Y5606D01*
X4034Y3040D02*
X4044Y3061D01*
X4034Y3081D01*
X4054Y3071D01*
X4074Y3081D01*
X4064Y3061D01*
X4074Y3040D01*
X4054Y3051D01*
X4034Y3040D01*
X3279Y3002D02*
X3289Y3023D01*
X3279Y3043D01*
X3299Y3033D01*
X3320Y3043D01*
X3310Y3023D01*
X3320Y3002D01*
X3299Y3012D01*
X3279Y3002D01*
X3142Y3485D02*
X3152Y3505D01*
X3142Y3526D01*
X3162Y3515D01*
X3183Y3526D01*
X3172Y3505D01*
X3183Y3485D01*
X3162Y3495D01*
X3142Y3485D01*
X4605Y5263D02*
X4615Y5283D01*
X4605Y5304D01*
X4625Y5293D01*
X4646Y5304D01*
X4635Y5283D01*
X4646Y5263D01*
X4625Y5273D01*
X4605Y5263D01*
X4834Y5149D02*
X4844Y5169D01*
X4834Y5189D01*
X4854Y5179D01*
X4874Y5189D01*
X4864Y5169D01*
X4874Y5149D01*
X4854Y5159D01*
X4834Y5149D01*
X4907Y5428D02*
X4917Y5448D01*
X4907Y5469D01*
X4928Y5458D01*
X4948Y5469D01*
X4938Y5448D01*
X4948Y5428D01*
X4928Y5438D01*
X4907Y5428D01*
X3691Y3581D02*
X3701Y3602D01*
X3691Y3622D01*
X3711Y3612D01*
X3731Y3622D01*
X3721Y3602D01*
X3731Y3581D01*
X3711Y3592D01*
X3691Y3581D01*
X4907Y4605D02*
X4917Y4625D01*
X4907Y4646D01*
X4928Y4635D01*
X4948Y4646D01*
X4938Y4625D01*
X4948Y4605D01*
X4928Y4615D01*
X4907Y4605D01*
X5070Y5357D02*
X5080Y5377D01*
X5070Y5397D01*
X5090Y5387D01*
X5110Y5397D01*
X5100Y5377D01*
X5110Y5357D01*
X5090Y5367D01*
X5070Y5357D01*
X3533Y4605D02*
X3543Y4625D01*
X3533Y4646D01*
X3553Y4635D01*
X3574Y4646D01*
X3564Y4625D01*
X3574Y4605D01*
X3553Y4615D01*
X3533Y4605D01*
X5177Y3739D02*
X5187Y3759D01*
X5177Y3780D01*
X5197Y3769D01*
X5217Y3780D01*
X5207Y3759D01*
X5217Y3739D01*
X5197Y3749D01*
X5177Y3739D01*
X2819Y4001D02*
X2830Y4021D01*
X2819Y4041D01*
X2840Y4031D01*
X2860Y4041D01*
X2850Y4021D01*
X2860Y4001D01*
X2840Y4011D01*
X2819Y4001D01*
X3818Y2992D02*
X3828Y3012D01*
X3818Y3033D01*
X3838Y3023D01*
X3858Y3033D01*
X3848Y3012D01*
X3858Y2992D01*
X3838Y3002D01*
X3818Y2992D01*
X3071Y3256D02*
X3081Y3277D01*
X3071Y3297D01*
X3091Y3287D01*
X3111Y3297D01*
X3101Y3277D01*
X3111Y3256D01*
X3091Y3266D01*
X3071Y3256D01*
X2958Y3294D02*
X2968Y3314D01*
X2958Y3335D01*
X2978Y3324D01*
X2998Y3335D01*
X2988Y3314D01*
X2998Y3294D01*
X2978Y3304D01*
X2958Y3294D01*
X5911Y4031D02*
X5921Y4051D01*
X5911Y4072D01*
X5931Y4061D01*
X5951Y4072D01*
X5941Y4051D01*
X5951Y4031D01*
X5931Y4041D01*
X5911Y4031D01*
X5858Y4242D02*
X5868Y4263D01*
X5858Y4283D01*
X5878Y4273D01*
X5898Y4283D01*
X5888Y4263D01*
X5898Y4242D01*
X5878Y4252D01*
X5858Y4242D01*
X2746Y3754D02*
X2756Y3774D01*
X2746Y3795D01*
X2766Y3785D01*
X2786Y3795D01*
X2776Y3774D01*
X2786Y3754D01*
X2766Y3764D01*
X2746Y3754D01*
X2751Y3922D02*
X2761Y3942D01*
X2751Y3962D01*
X2771Y3952D01*
X2791Y3962D01*
X2781Y3942D01*
X2791Y3922D01*
X2771Y3932D01*
X2751Y3922D01*
X2708Y3876D02*
X2718Y3896D01*
X2708Y3917D01*
X2728Y3907D01*
X2748Y3917D01*
X2738Y3896D01*
X2748Y3876D01*
X2728Y3886D01*
X2708Y3876D01*
X5489Y5872D02*
X5499Y5893D01*
X5489Y5913D01*
X5509Y5903D01*
X5530Y5913D01*
X5519Y5893D01*
X5530Y5872D01*
X5509Y5883D01*
X5489Y5872D01*
X4656Y3096D02*
X4666Y3117D01*
X4656Y3137D01*
X4676Y3127D01*
X4696Y3137D01*
X4686Y3117D01*
X4696Y3096D01*
X4676Y3106D01*
X4656Y3096D01*
X4592D02*
X4602Y3117D01*
X4592Y3137D01*
X4613Y3127D01*
X4633Y3137D01*
X4623Y3117D01*
X4633Y3096D01*
X4613Y3106D01*
X4592Y3096D01*
X4854Y2858D02*
X4864Y2878D01*
X4854Y2898D01*
X4874Y2888D01*
X4895Y2898D01*
X4884Y2878D01*
X4895Y2858D01*
X4874Y2868D01*
X4854Y2858D01*
X4397Y3096D02*
X4407Y3117D01*
X4397Y3137D01*
X4417Y3127D01*
X4437Y3137D01*
X4427Y3117D01*
X4437Y3096D01*
X4417Y3106D01*
X4397Y3096D01*
X4463Y3094D02*
X4473Y3114D01*
X4463Y3134D01*
X4483Y3124D01*
X4503Y3134D01*
X4493Y3114D01*
X4503Y3094D01*
X4483Y3104D01*
X4463Y3094D01*
X4527Y2924D02*
X4537Y2944D01*
X4527Y2964D01*
X4547Y2954D01*
X4568Y2964D01*
X4558Y2944D01*
X4568Y2924D01*
X4547Y2934D01*
X4527Y2924D01*
X4569Y2967D02*
X4580Y2987D01*
X4569Y3007D01*
X4590Y2997D01*
X4610Y3007D01*
X4600Y2987D01*
X4610Y2967D01*
X4590Y2977D01*
X4569Y2967D01*
X4773Y3231D02*
X4783Y3251D01*
X4773Y3272D01*
X4793Y3261D01*
X4813Y3272D01*
X4803Y3251D01*
X4813Y3231D01*
X4793Y3241D01*
X4773Y3231D01*
X4793Y3170D02*
X4803Y3190D01*
X4793Y3211D01*
X4813Y3200D01*
X4834Y3211D01*
X4823Y3190D01*
X4834Y3170D01*
X4813Y3180D01*
X4793Y3170D01*
X4747Y3104D02*
X4757Y3124D01*
X4747Y3145D01*
X4768Y3134D01*
X4788Y3145D01*
X4778Y3124D01*
X4788Y3104D01*
X4768Y3114D01*
X4747Y3104D01*
D311*
X3190Y4080D02*
G03*
X3190Y4080I-20J0D01*
G01*
M02*
