M48
;Layer_Color=9474304
;FILE_FORMAT=4:2
METRIC,LZ
;TYPE=PLATED
T1F00S00C0.20
;TYPE=NON_PLATED
%
T01
X003063Y003492
X003137Y003759
X003228Y003772
X003355Y003556
X003635Y003302
X003686Y003086
X003787Y003048
X003838Y003086
X003889Y003048
X003899Y002987
X003807Y002951
X003698Y002946
Y003759
X003777Y003889
X003559Y00395
X002835Y003955
X002644Y003937
X003978Y003734
X004117Y00367
X00427Y003861
X004473Y003691
X004321Y00348
X004376Y003289
X004524Y003302
X004549Y003099
X004651Y003
X00477Y002995
X004803Y003073
X004994Y00334
X005159Y003353
Y003454
X005298Y003492
Y003353
X00526Y003289
X005337Y003721
X005438Y003861
Y003937
X005578
X005756Y003353
X005128Y002908
X004384Y002934
X004346Y003124
X004079
X004041Y003208
X00398Y002921
X004867Y003823
X004816Y00395
X004956Y004064
X005032Y004191
X005083Y004229
Y004305
X005197Y004331
X005248Y004432
X005349Y004508
X005324Y00428
X005578Y004001
X005939Y004328
X005895Y004699
X005537Y004862
X005502Y005232
X005794Y005309
X005911Y005217
X005133Y004851
X004917Y004928
X004778Y004826
X004689Y004813
X004638Y004864
X004473
X004486Y004762
X004575Y004699
X004549Y004623
X004841Y004724
X004397Y00494
X004346Y005042
X004371Y005156
X004549Y005105
X004613Y00541
X00489Y005499
X004905Y005766
X005083Y005804
X005133Y005766
X005286Y00574
X004559Y005751
X004356Y005724
X00429
X004244Y004864
X00413Y004826
X004244Y004064
X00427Y004001
X004384Y004013
X003965Y004178
X003868Y004247
X003787Y004381
X003777Y004442
X003686Y004432
X003675Y004562
X0038Y004595
Y004991
X003571Y004826
X003406Y004839
X003366Y004693
X003317Y004635
X003315Y004448
X003152Y004318
X003114Y004267
X003101Y003975
X003432Y004039
X003437Y004101
X003399Y004155
X003647Y004153
X003698Y004102
X003749Y004051
X0038Y004001
X003736Y005461
Y005626
X003559Y005499
X003406Y005448
X003305Y005524
X003508Y005817
X003843Y005852
X002822Y005537
X002771Y005474
X002898Y005017
X002911Y00489
X003063Y005004
X003175Y004968
X003216Y005042
M30
