G04 Layer_Color=2752767*
%FSLAX42Y42*%
%MOMM*%
G71*
G01*
G75*
%ADD258C,0.05*%
D258*
X4356Y5703D02*
X4366Y5713D01*
X4376D01*
X4366Y5724D01*
X4376Y5734D01*
X4366D01*
X4356Y5744D01*
X4346Y5734D01*
X4335D01*
X4346Y5724D01*
X4335Y5713D01*
X4346D01*
X4356Y5703D01*
X4290D02*
X4301Y5713D01*
X4311D01*
X4301Y5724D01*
X4311Y5734D01*
X4301D01*
X4290Y5744D01*
X4280Y5734D01*
X4270D01*
X4280Y5724D01*
X4270Y5713D01*
X4280D01*
X4290Y5703D01*
X4529Y5085D02*
X4539Y5105D01*
X4529Y5126D01*
X4549Y5116D01*
X4569Y5126D01*
X4559Y5105D01*
X4569Y5085D01*
X4549Y5095D01*
X4529Y5085D01*
X4351Y5136D02*
X4361Y5156D01*
X4351Y5177D01*
X4371Y5166D01*
X4392Y5177D01*
X4381Y5156D01*
X4392Y5136D01*
X4371Y5146D01*
X4351Y5136D01*
X4539Y5730D02*
X4549Y5751D01*
X4539Y5771D01*
X4559Y5761D01*
X4580Y5771D01*
X4569Y5751D01*
X4580Y5730D01*
X4559Y5740D01*
X4539Y5730D01*
X3614Y3282D02*
X3625Y3302D01*
X3614Y3322D01*
X3635Y3312D01*
X3655Y3322D01*
X3645Y3302D01*
X3655Y3282D01*
X3635Y3292D01*
X3614Y3282D01*
X3843Y5832D02*
X3853Y5842D01*
X3863D01*
X3853Y5852D01*
X3863Y5862D01*
X3853D01*
X3843Y5872D01*
X3833Y5862D01*
X3823D01*
X3833Y5852D01*
X3823Y5842D01*
X3833D01*
X3843Y5832D01*
X4021Y3188D02*
X4031Y3208D01*
X4021Y3228D01*
X4041Y3218D01*
X4061Y3228D01*
X4051Y3208D01*
X4061Y3188D01*
X4041Y3198D01*
X4021Y3188D01*
X3315Y4427D02*
X3325Y4437D01*
X3335D01*
X3325Y4448D01*
X3335Y4458D01*
X3325D01*
X3315Y4468D01*
X3305Y4458D01*
X3294D01*
X3305Y4448D01*
X3294Y4437D01*
X3305D01*
X3315Y4427D01*
X3399Y4135D02*
X3409Y4145D01*
X3419D01*
X3409Y4155D01*
X3419Y4166D01*
X3409D01*
X3399Y4176D01*
X3388Y4166D01*
X3378D01*
X3388Y4155D01*
X3378Y4145D01*
X3388D01*
X3399Y4135D01*
X3366Y4673D02*
X3376Y4683D01*
X3387D01*
X3376Y4693D01*
X3387Y4704D01*
X3376D01*
X3366Y4714D01*
X3356Y4704D01*
X3346D01*
X3356Y4693D01*
X3346Y4683D01*
X3356D01*
X3366Y4673D01*
X3655Y4542D02*
X3665Y4562D01*
X3655Y4582D01*
X3675Y4572D01*
X3696Y4582D01*
X3686Y4562D01*
X3696Y4542D01*
X3675Y4552D01*
X3655Y4542D01*
X3386Y4818D02*
X3396Y4839D01*
X3386Y4859D01*
X3406Y4849D01*
X3426Y4859D01*
X3416Y4839D01*
X3426Y4818D01*
X3406Y4829D01*
X3386Y4818D01*
X3195Y5022D02*
X3205Y5042D01*
X3195Y5062D01*
X3216Y5052D01*
X3236Y5062D01*
X3226Y5042D01*
X3236Y5022D01*
X3216Y5032D01*
X3195Y5022D01*
X3551Y4806D02*
X3561Y4826D01*
X3551Y4846D01*
X3571Y4836D01*
X3592Y4846D01*
X3581Y4826D01*
X3592Y4806D01*
X3571Y4816D01*
X3551Y4806D01*
X3757Y4422D02*
X3767Y4442D01*
X3757Y4463D01*
X3777Y4453D01*
X3797Y4463D01*
X3787Y4442D01*
X3797Y4422D01*
X3777Y4432D01*
X3757Y4422D01*
X3437Y4081D02*
X3448Y4091D01*
X3458D01*
X3448Y4101D01*
X3458Y4111D01*
X3448D01*
X3437Y4122D01*
X3427Y4111D01*
X3417D01*
X3427Y4101D01*
X3417Y4091D01*
X3427D01*
X3437Y4081D01*
X3848Y4227D02*
X3858Y4247D01*
X3848Y4267D01*
X3868Y4257D01*
X3889Y4267D01*
X3879Y4247D01*
X3889Y4227D01*
X3868Y4237D01*
X3848Y4227D01*
X3665Y4412D02*
X3675Y4432D01*
X3665Y4453D01*
X3686Y4442D01*
X3706Y4453D01*
X3696Y4432D01*
X3706Y4412D01*
X3686Y4422D01*
X3665Y4412D01*
X3767Y4361D02*
X3777Y4381D01*
X3767Y4402D01*
X3787Y4392D01*
X3807Y4402D01*
X3797Y4381D01*
X3807Y4361D01*
X3787Y4371D01*
X3767Y4361D01*
X3780Y4575D02*
X3790Y4595D01*
X3780Y4615D01*
X3800Y4605D01*
X3820Y4615D01*
X3810Y4595D01*
X3820Y4575D01*
X3800Y4585D01*
X3780Y4575D01*
X3297Y4615D02*
X3307Y4635D01*
X3297Y4656D01*
X3317Y4646D01*
X3338Y4656D01*
X3327Y4635D01*
X3338Y4615D01*
X3317Y4625D01*
X3297Y4615D01*
X3945Y4158D02*
X3955Y4178D01*
X3945Y4199D01*
X3965Y4188D01*
X3985Y4199D01*
X3975Y4178D01*
X3985Y4158D01*
X3965Y4168D01*
X3945Y4158D01*
X4364Y3993D02*
X4374Y4013D01*
X4364Y4034D01*
X4384Y4023D01*
X4404Y4034D01*
X4394Y4013D01*
X4404Y3993D01*
X4384Y4003D01*
X4364Y3993D01*
X5890Y5197D02*
X5900Y5217D01*
X5890Y5237D01*
X5911Y5227D01*
X5931Y5237D01*
X5921Y5217D01*
X5931Y5197D01*
X5911Y5207D01*
X5890Y5197D01*
X3155Y4948D02*
X3165Y4968D01*
X3155Y4989D01*
X3175Y4978D01*
X3195Y4989D01*
X3185Y4968D01*
X3195Y4948D01*
X3175Y4958D01*
X3155Y4948D01*
X5558Y3980D02*
X5568Y4001D01*
X5558Y4021D01*
X5578Y4011D01*
X5598Y4021D01*
X5588Y4001D01*
X5598Y3980D01*
X5578Y3990D01*
X5558Y3980D01*
X3284Y5504D02*
X3294Y5524D01*
X3284Y5545D01*
X3305Y5535D01*
X3325Y5545D01*
X3315Y5524D01*
X3325Y5504D01*
X3305Y5514D01*
X3284Y5504D01*
X3716Y5606D02*
X3726Y5626D01*
X3716Y5646D01*
X3736Y5636D01*
X3757Y5646D01*
X3747Y5626D01*
X3757Y5606D01*
X3736Y5616D01*
X3716Y5606D01*
X3208Y3752D02*
X3218Y3772D01*
X3208Y3792D01*
X3228Y3782D01*
X3249Y3792D01*
X3238Y3772D01*
X3249Y3752D01*
X3228Y3762D01*
X3208Y3752D01*
X5735Y3332D02*
X5745Y3353D01*
X5735Y3373D01*
X5756Y3363D01*
X5776Y3373D01*
X5766Y3353D01*
X5776Y3332D01*
X5756Y3343D01*
X5735Y3332D01*
X5875Y4679D02*
X5885Y4699D01*
X5875Y4719D01*
X5895Y4709D01*
X5916Y4719D01*
X5906Y4699D01*
X5916Y4679D01*
X5895Y4689D01*
X5875Y4679D01*
X5316Y3701D02*
X5326Y3721D01*
X5316Y3741D01*
X5337Y3731D01*
X5357Y3741D01*
X5347Y3721D01*
X5357Y3701D01*
X5337Y3711D01*
X5316Y3701D01*
X4249Y3840D02*
X4260Y3861D01*
X4249Y3881D01*
X4270Y3871D01*
X4290Y3881D01*
X4280Y3861D01*
X4290Y3840D01*
X4270Y3851D01*
X4249Y3840D01*
Y3980D02*
X4260Y4001D01*
X4249Y4021D01*
X4270Y4011D01*
X4290Y4021D01*
X4280Y4001D01*
X4290Y3980D01*
X4270Y3990D01*
X4249Y3980D01*
X5265Y5720D02*
X5276Y5740D01*
X5265Y5761D01*
X5286Y5751D01*
X5306Y5761D01*
X5296Y5740D01*
X5306Y5720D01*
X5286Y5730D01*
X5265Y5720D01*
X3538Y3929D02*
X3548Y3950D01*
X3538Y3970D01*
X3559Y3960D01*
X3579Y3970D01*
X3569Y3950D01*
X3579Y3929D01*
X3559Y3940D01*
X3538Y3929D01*
X3094Y4247D02*
X3104Y4267D01*
X3094Y4288D01*
X3114Y4277D01*
X3134Y4288D01*
X3124Y4267D01*
X3134Y4247D01*
X3114Y4257D01*
X3094Y4247D01*
X5113Y5745D02*
X5123Y5766D01*
X5113Y5786D01*
X5133Y5776D01*
X5154Y5786D01*
X5144Y5766D01*
X5154Y5745D01*
X5133Y5756D01*
X5113Y5745D01*
X5329Y4488D02*
X5339Y4508D01*
X5329Y4529D01*
X5349Y4519D01*
X5370Y4529D01*
X5359Y4508D01*
X5370Y4488D01*
X5349Y4498D01*
X5329Y4488D01*
X4110Y4806D02*
X4120Y4826D01*
X4110Y4846D01*
X4130Y4836D01*
X4150Y4846D01*
X4140Y4826D01*
X4150Y4806D01*
X4130Y4816D01*
X4110Y4806D01*
X2878Y4996D02*
X2888Y5017D01*
X2878Y5037D01*
X2898Y5027D01*
X2918Y5037D01*
X2908Y5017D01*
X2918Y4996D01*
X2898Y5006D01*
X2878Y4996D01*
X4935Y4044D02*
X4945Y4064D01*
X4935Y4084D01*
X4956Y4074D01*
X4976Y4084D01*
X4966Y4064D01*
X4976Y4044D01*
X4956Y4054D01*
X4935Y4044D01*
X4224D02*
X4234Y4064D01*
X4224Y4084D01*
X4244Y4074D01*
X4265Y4084D01*
X4254Y4064D01*
X4265Y4044D01*
X4244Y4054D01*
X4224Y4044D01*
X5062Y4209D02*
X5072Y4229D01*
X5062Y4249D01*
X5083Y4239D01*
X5103Y4249D01*
X5093Y4229D01*
X5103Y4209D01*
X5083Y4219D01*
X5062Y4209D01*
X3411Y4018D02*
X3421Y4039D01*
X3411Y4059D01*
X3432Y4049D01*
X3452Y4059D01*
X3442Y4039D01*
X3452Y4018D01*
X3432Y4028D01*
X3411Y4018D01*
X5240Y3269D02*
X5250Y3289D01*
X5240Y3310D01*
X5260Y3299D01*
X5281Y3310D01*
X5271Y3289D01*
X5281Y3269D01*
X5260Y3279D01*
X5240Y3269D01*
X4059Y3104D02*
X4069Y3124D01*
X4059Y3145D01*
X4079Y3134D01*
X4100Y3145D01*
X4089Y3124D01*
X4100Y3104D01*
X4079Y3114D01*
X4059Y3104D01*
X4097Y3650D02*
X4107Y3670D01*
X4097Y3691D01*
X4117Y3680D01*
X4138Y3691D01*
X4128Y3670D01*
X4138Y3650D01*
X4117Y3660D01*
X4097Y3650D01*
X3081Y3955D02*
X3091Y3975D01*
X3081Y3995D01*
X3101Y3985D01*
X3122Y3995D01*
X3111Y3975D01*
X3122Y3955D01*
X3101Y3965D01*
X3081Y3955D01*
X3678Y3739D02*
X3688Y3759D01*
X3678Y3780D01*
X3698Y3769D01*
X3719Y3780D01*
X3708Y3759D01*
X3719Y3739D01*
X3698Y3749D01*
X3678Y3739D01*
X2751Y5453D02*
X2761Y5474D01*
X2751Y5494D01*
X2771Y5484D01*
X2791Y5494D01*
X2781Y5474D01*
X2791Y5453D01*
X2771Y5464D01*
X2751Y5453D01*
X3132Y4298D02*
X3142Y4318D01*
X3132Y4338D01*
X3152Y4328D01*
X3172Y4338D01*
X3162Y4318D01*
X3172Y4298D01*
X3152Y4308D01*
X3132Y4298D01*
X5138Y3434D02*
X5149Y3454D01*
X5138Y3475D01*
X5159Y3465D01*
X5179Y3475D01*
X5169Y3454D01*
X5179Y3434D01*
X5159Y3444D01*
X5138Y3434D01*
X3780Y3980D02*
X3790Y4001D01*
X3780Y4021D01*
X3800Y4011D01*
X3820Y4021D01*
X3810Y4001D01*
X3820Y3980D01*
X3800Y3990D01*
X3780Y3980D01*
X4592Y5390D02*
X4602Y5410D01*
X4592Y5431D01*
X4613Y5420D01*
X4633Y5431D01*
X4623Y5410D01*
X4633Y5390D01*
X4613Y5400D01*
X4592Y5390D01*
X5481Y5212D02*
X5491Y5232D01*
X5481Y5253D01*
X5502Y5243D01*
X5522Y5253D01*
X5512Y5232D01*
X5522Y5212D01*
X5502Y5222D01*
X5481Y5212D01*
X5773Y5288D02*
X5784Y5309D01*
X5773Y5329D01*
X5794Y5319D01*
X5814Y5329D01*
X5804Y5309D01*
X5814Y5288D01*
X5794Y5298D01*
X5773Y5288D01*
X4846Y3802D02*
X4856Y3823D01*
X4846Y3843D01*
X4867Y3833D01*
X4887Y3843D01*
X4877Y3823D01*
X4887Y3802D01*
X4867Y3813D01*
X4846Y3802D01*
X5418Y3840D02*
X5428Y3861D01*
X5418Y3881D01*
X5438Y3871D01*
X5458Y3881D01*
X5448Y3861D01*
X5458Y3840D01*
X5438Y3851D01*
X5418Y3840D01*
X5558Y3917D02*
X5568Y3937D01*
X5558Y3957D01*
X5578Y3947D01*
X5598Y3957D01*
X5588Y3937D01*
X5598Y3917D01*
X5578Y3927D01*
X5558Y3917D01*
X5138Y3332D02*
X5149Y3353D01*
X5138Y3373D01*
X5159Y3363D01*
X5179Y3373D01*
X5169Y3353D01*
X5179Y3332D01*
X5159Y3343D01*
X5138Y3332D01*
X5278Y3472D02*
X5288Y3492D01*
X5278Y3513D01*
X5298Y3503D01*
X5319Y3513D01*
X5309Y3492D01*
X5319Y3472D01*
X5298Y3482D01*
X5278Y3472D01*
X4973Y3320D02*
X4983Y3340D01*
X4973Y3360D01*
X4994Y3350D01*
X5014Y3360D01*
X5004Y3340D01*
X5014Y3320D01*
X4994Y3330D01*
X4973Y3320D01*
X4796Y3929D02*
X4806Y3950D01*
X4796Y3970D01*
X4816Y3960D01*
X4836Y3970D01*
X4826Y3950D01*
X4836Y3929D01*
X4816Y3940D01*
X4796Y3929D01*
X5418Y3917D02*
X5428Y3937D01*
X5418Y3957D01*
X5438Y3947D01*
X5458Y3957D01*
X5448Y3937D01*
X5458Y3917D01*
X5438Y3927D01*
X5418Y3917D01*
X4503Y3282D02*
X4514Y3302D01*
X4503Y3322D01*
X4524Y3312D01*
X4544Y3322D01*
X4534Y3302D01*
X4544Y3282D01*
X4524Y3292D01*
X4503Y3282D01*
X3043Y3472D02*
X3053Y3492D01*
X3043Y3513D01*
X3063Y3503D01*
X3084Y3513D01*
X3073Y3492D01*
X3084Y3472D01*
X3063Y3482D01*
X3043Y3472D01*
X4618Y4844D02*
X4628Y4864D01*
X4618Y4884D01*
X4638Y4874D01*
X4658Y4884D01*
X4648Y4864D01*
X4658Y4844D01*
X4638Y4854D01*
X4618Y4844D01*
X5113Y4831D02*
X5123Y4851D01*
X5113Y4872D01*
X5133Y4862D01*
X5154Y4872D01*
X5144Y4851D01*
X5154Y4831D01*
X5133Y4841D01*
X5113Y4831D01*
X5011Y4171D02*
X5022Y4191D01*
X5011Y4211D01*
X5032Y4201D01*
X5052Y4211D01*
X5042Y4191D01*
X5052Y4171D01*
X5032Y4181D01*
X5011Y4171D01*
X5062Y4285D02*
X5072Y4305D01*
X5062Y4326D01*
X5083Y4315D01*
X5103Y4326D01*
X5093Y4305D01*
X5103Y4285D01*
X5083Y4295D01*
X5062Y4285D01*
X5177Y4310D02*
X5187Y4331D01*
X5177Y4351D01*
X5197Y4341D01*
X5217Y4351D01*
X5207Y4331D01*
X5217Y4310D01*
X5197Y4321D01*
X5177Y4310D01*
X5304Y4260D02*
X5314Y4280D01*
X5304Y4300D01*
X5324Y4290D01*
X5344Y4300D01*
X5334Y4280D01*
X5344Y4260D01*
X5324Y4270D01*
X5304Y4260D01*
X3678Y4082D02*
X3688Y4102D01*
X3678Y4122D01*
X3698Y4112D01*
X3719Y4122D01*
X3708Y4102D01*
X3719Y4082D01*
X3698Y4092D01*
X3678Y4082D01*
X3627Y4133D02*
X3637Y4153D01*
X3627Y4173D01*
X3647Y4163D01*
X3668Y4173D01*
X3658Y4153D01*
X3668Y4133D01*
X3647Y4143D01*
X3627Y4133D01*
X3665Y3066D02*
X3675Y3086D01*
X3665Y3106D01*
X3686Y3096D01*
X3706Y3106D01*
X3696Y3086D01*
X3706Y3066D01*
X3686Y3076D01*
X3665Y3066D01*
X3335Y3536D02*
X3345Y3556D01*
X3335Y3576D01*
X3355Y3566D01*
X3376Y3576D01*
X3365Y3556D01*
X3376Y3536D01*
X3355Y3546D01*
X3335Y3536D01*
X3487Y5796D02*
X3498Y5817D01*
X3487Y5837D01*
X3508Y5827D01*
X3528Y5837D01*
X3518Y5817D01*
X3528Y5796D01*
X3508Y5806D01*
X3487Y5796D01*
X5227Y4412D02*
X5237Y4432D01*
X5227Y4453D01*
X5248Y4442D01*
X5268Y4453D01*
X5258Y4432D01*
X5268Y4412D01*
X5248Y4422D01*
X5227Y4412D01*
X2891Y4869D02*
X2901Y4890D01*
X2891Y4910D01*
X2911Y4900D01*
X2931Y4910D01*
X2921Y4890D01*
X2931Y4869D01*
X2911Y4879D01*
X2891Y4869D01*
X2802Y5517D02*
X2812Y5537D01*
X2802Y5558D01*
X2822Y5547D01*
X2842Y5558D01*
X2832Y5537D01*
X2842Y5517D01*
X2822Y5527D01*
X2802Y5517D01*
X3780Y4971D02*
X3790Y4991D01*
X3780Y5011D01*
X3800Y5001D01*
X3820Y5011D01*
X3810Y4991D01*
X3820Y4971D01*
X3800Y4981D01*
X3780Y4971D01*
X4869Y5479D02*
X4879Y5499D01*
X4869Y5519D01*
X4890Y5509D01*
X4910Y5519D01*
X4900Y5499D01*
X4910Y5479D01*
X4890Y5489D01*
X4869Y5479D01*
X4300Y3459D02*
X4310Y3480D01*
X4300Y3500D01*
X4321Y3490D01*
X4341Y3500D01*
X4331Y3480D01*
X4341Y3459D01*
X4321Y3470D01*
X4300Y3459D01*
X4453Y3670D02*
X4463Y3691D01*
X4453Y3711D01*
X4473Y3701D01*
X4493Y3711D01*
X4483Y3691D01*
X4493Y3670D01*
X4473Y3680D01*
X4453Y3670D01*
X4757Y4806D02*
X4768Y4826D01*
X4757Y4846D01*
X4778Y4836D01*
X4798Y4846D01*
X4788Y4826D01*
X4798Y4806D01*
X4778Y4816D01*
X4757Y4806D01*
X4669Y4793D02*
X4679Y4813D01*
X4669Y4834D01*
X4689Y4823D01*
X4709Y4834D01*
X4699Y4813D01*
X4709Y4793D01*
X4689Y4803D01*
X4669Y4793D01*
X4821Y4704D02*
X4831Y4724D01*
X4821Y4745D01*
X4841Y4735D01*
X4862Y4745D01*
X4851Y4724D01*
X4862Y4704D01*
X4841Y4714D01*
X4821Y4704D01*
X4554Y4679D02*
X4564Y4699D01*
X4554Y4719D01*
X4575Y4709D01*
X4595Y4719D01*
X4585Y4699D01*
X4595Y4679D01*
X4575Y4689D01*
X4554Y4679D01*
X5517Y4841D02*
X5527Y4862D01*
X5517Y4882D01*
X5537Y4872D01*
X5558Y4882D01*
X5547Y4862D01*
X5558Y4841D01*
X5537Y4851D01*
X5517Y4841D01*
X4529Y4602D02*
X4539Y4623D01*
X4529Y4643D01*
X4549Y4633D01*
X4569Y4643D01*
X4559Y4623D01*
X4569Y4602D01*
X4549Y4613D01*
X4529Y4602D01*
X4376Y4920D02*
X4387Y4940D01*
X4376Y4961D01*
X4397Y4950D01*
X4417Y4961D01*
X4407Y4940D01*
X4417Y4920D01*
X4397Y4930D01*
X4376Y4920D01*
X4326Y5022D02*
X4336Y5042D01*
X4326Y5062D01*
X4346Y5052D01*
X4366Y5062D01*
X4356Y5042D01*
X4366Y5022D01*
X4346Y5032D01*
X4326Y5022D01*
X4465Y4742D02*
X4475Y4762D01*
X4465Y4783D01*
X4486Y4773D01*
X4506Y4783D01*
X4496Y4762D01*
X4506Y4742D01*
X4486Y4752D01*
X4465Y4742D01*
X4453Y4844D02*
X4463Y4864D01*
X4453Y4884D01*
X4473Y4874D01*
X4493Y4884D01*
X4483Y4864D01*
X4493Y4844D01*
X4473Y4854D01*
X4453Y4844D01*
X3729Y4031D02*
X3739Y4051D01*
X3729Y4072D01*
X3749Y4061D01*
X3769Y4072D01*
X3759Y4051D01*
X3769Y4031D01*
X3749Y4041D01*
X3729Y4031D01*
X2814Y3934D02*
X2824Y3955D01*
X2814Y3975D01*
X2835Y3965D01*
X2855Y3975D01*
X2845Y3955D01*
X2855Y3934D01*
X2835Y3945D01*
X2814Y3934D01*
X5278Y3332D02*
X5288Y3353D01*
X5278Y3373D01*
X5298Y3363D01*
X5319Y3373D01*
X5309Y3353D01*
X5319Y3332D01*
X5298Y3343D01*
X5278Y3332D01*
X4897Y4907D02*
X4907Y4928D01*
X4897Y4948D01*
X4917Y4938D01*
X4938Y4948D01*
X4928Y4928D01*
X4938Y4907D01*
X4917Y4917D01*
X4897Y4907D01*
X4224Y4844D02*
X4234Y4864D01*
X4224Y4884D01*
X4244Y4874D01*
X4265Y4884D01*
X4254Y4864D01*
X4265Y4844D01*
X4244Y4854D01*
X4224Y4844D01*
X3386Y5428D02*
X3396Y5448D01*
X3386Y5469D01*
X3406Y5458D01*
X3426Y5469D01*
X3416Y5448D01*
X3426Y5428D01*
X3406Y5438D01*
X3386Y5428D01*
X3716Y5441D02*
X3726Y5461D01*
X3716Y5481D01*
X3736Y5471D01*
X3757Y5481D01*
X3747Y5461D01*
X3757Y5441D01*
X3736Y5451D01*
X3716Y5441D01*
X3043Y4983D02*
X3053Y5004D01*
X3043Y5024D01*
X3063Y5014D01*
X3084Y5024D01*
X3073Y5004D01*
X3084Y4983D01*
X3063Y4994D01*
X3043Y4983D01*
X3538Y5479D02*
X3548Y5499D01*
X3538Y5519D01*
X3559Y5509D01*
X3579Y5519D01*
X3569Y5499D01*
X3579Y5479D01*
X3559Y5489D01*
X3538Y5479D01*
X3757Y3868D02*
X3767Y3889D01*
X3757Y3909D01*
X3777Y3899D01*
X3797Y3909D01*
X3787Y3889D01*
X3797Y3868D01*
X3777Y3879D01*
X3757Y3868D01*
X5062Y5784D02*
X5072Y5804D01*
X5062Y5824D01*
X5083Y5814D01*
X5103Y5824D01*
X5093Y5804D01*
X5103Y5784D01*
X5083Y5794D01*
X5062Y5784D01*
X4884Y5745D02*
X4895Y5766D01*
X4884Y5786D01*
X4905Y5776D01*
X4925Y5786D01*
X4915Y5766D01*
X4925Y5745D01*
X4905Y5756D01*
X4884Y5745D01*
X3678Y2926D02*
X3688Y2946D01*
X3678Y2967D01*
X3698Y2957D01*
X3719Y2967D01*
X3708Y2946D01*
X3719Y2926D01*
X3698Y2936D01*
X3678Y2926D01*
X3767Y3028D02*
X3777Y3048D01*
X3767Y3068D01*
X3787Y3058D01*
X3807Y3068D01*
X3797Y3048D01*
X3807Y3028D01*
X3787Y3038D01*
X3767Y3028D01*
X3818Y3066D02*
X3828Y3086D01*
X3818Y3106D01*
X3838Y3096D01*
X3858Y3106D01*
X3848Y3086D01*
X3858Y3066D01*
X3838Y3076D01*
X3818Y3066D01*
X3957Y3713D02*
X3967Y3734D01*
X3957Y3754D01*
X3978Y3744D01*
X3998Y3754D01*
X3988Y3734D01*
X3998Y3713D01*
X3978Y3724D01*
X3957Y3713D01*
X3868Y3028D02*
X3879Y3048D01*
X3868Y3068D01*
X3889Y3058D01*
X3909Y3068D01*
X3899Y3048D01*
X3909Y3028D01*
X3889Y3038D01*
X3868Y3028D01*
X3787Y2931D02*
X3797Y2951D01*
X3787Y2972D01*
X3807Y2962D01*
X3828Y2972D01*
X3818Y2951D01*
X3828Y2931D01*
X3807Y2941D01*
X3787Y2931D01*
X3879Y2967D02*
X3889Y2987D01*
X3879Y3007D01*
X3899Y2997D01*
X3919Y3007D01*
X3909Y2987D01*
X3919Y2967D01*
X3899Y2977D01*
X3879Y2967D01*
X3960Y2901D02*
X3970Y2921D01*
X3960Y2941D01*
X3980Y2931D01*
X4001Y2941D01*
X3990Y2921D01*
X4001Y2901D01*
X3980Y2911D01*
X3960Y2901D01*
X5108Y2888D02*
X5118Y2908D01*
X5108Y2929D01*
X5128Y2918D01*
X5149Y2929D01*
X5138Y2908D01*
X5149Y2888D01*
X5128Y2898D01*
X5108Y2888D01*
X5939Y4308D02*
X5949Y4318D01*
X5959D01*
X5949Y4328D01*
X5959Y4338D01*
X5949D01*
X5939Y4348D01*
X5928Y4338D01*
X5918D01*
X5928Y4328D01*
X5918Y4318D01*
X5928D01*
X5939Y4308D01*
X2624Y3917D02*
X2634Y3937D01*
X2624Y3957D01*
X2644Y3947D01*
X2664Y3957D01*
X2654Y3937D01*
X2664Y3917D01*
X2644Y3927D01*
X2624Y3917D01*
X3137Y3739D02*
X3147Y3749D01*
X3157D01*
X3147Y3759D01*
X3157Y3769D01*
X3147D01*
X3137Y3780D01*
X3127Y3769D01*
X3117D01*
X3127Y3759D01*
X3117Y3749D01*
X3127D01*
X3137Y3739D01*
X4529Y3078D02*
X4539Y3099D01*
X4529Y3119D01*
X4549Y3109D01*
X4569Y3119D01*
X4559Y3099D01*
X4569Y3078D01*
X4549Y3089D01*
X4529Y3078D01*
X4750Y2974D02*
X4760Y2995D01*
X4750Y3015D01*
X4770Y3005D01*
X4790Y3015D01*
X4780Y2995D01*
X4790Y2974D01*
X4770Y2984D01*
X4750Y2974D01*
X4326Y3104D02*
X4336Y3124D01*
X4326Y3145D01*
X4346Y3134D01*
X4366Y3145D01*
X4356Y3124D01*
X4366Y3104D01*
X4346Y3114D01*
X4326Y3104D01*
X4364Y2913D02*
X4374Y2934D01*
X4364Y2954D01*
X4384Y2944D01*
X4404Y2954D01*
X4394Y2934D01*
X4404Y2913D01*
X4384Y2924D01*
X4364Y2913D01*
X4356Y3269D02*
X4366Y3289D01*
X4356Y3310D01*
X4376Y3299D01*
X4397Y3310D01*
X4387Y3289D01*
X4397Y3269D01*
X4376Y3279D01*
X4356Y3269D01*
X4783Y3053D02*
X4793Y3073D01*
X4783Y3094D01*
X4803Y3084D01*
X4823Y3094D01*
X4813Y3073D01*
X4823Y3053D01*
X4803Y3063D01*
X4783Y3053D01*
X4630Y2980D02*
X4641Y3000D01*
X4630Y3020D01*
X4651Y3010D01*
X4671Y3020D01*
X4661Y3000D01*
X4671Y2980D01*
X4651Y2990D01*
X4630Y2980D01*
M02*
