M48
;Layer_Color=9474304
;FILE_FORMAT=4:2
METRIC,LZ
;TYPE=PLATED
T1F00S00C0.20
T2F00S00C0.30
T4F00S00C1.80
;TYPE=NON_PLATED
T5F00S00C0.66
%
T01
X002708Y003416
X00272Y003505
X002822Y003442
X002882Y003429
X002926Y003348
X002978Y003314
X003023Y003243
X003091Y003277
X003175Y00316
X00318Y003025
X003228Y003035
X003299Y003023
X003388
X003508Y003099
X003533Y003353
X003696Y003396
X003665Y003515
X003711Y003602
X003678Y003866
X003419Y003769
X00319Y003924
X003051Y00381
X003045Y003729
X002982Y003752
X003038Y003645
X003162Y003505
X002784Y003391
X002766Y003774
X002675Y003818
X002728Y003896
X002771Y003942
X00283Y003891
X002934Y003947
X003269Y002888
X003838Y003012
X004054Y003061
X004216Y003167
X004277Y003183
X004275Y003256
X004333Y003416
X004397Y003404
X004493Y00336
X004498Y003442
X0046Y003454
Y003391
X004625Y003302
X004613Y003117
X004676
X004768Y003124
X004813Y00319
X004793Y003251
X004803Y00337
X00486Y003411
X004729Y003399
X004762Y003759
X004699Y003833
X004448Y003762
X00427Y003518
X004417Y003117
X004483Y003114
X00459Y002987
X004547Y002944
X004874Y002878
X005298Y003658
X005337Y003797
X005197Y003759
X005626Y003896
X005845Y003912
X005806Y003785
Y003404
X005646Y003345
X005514Y003975
X00526Y004191
X005057Y004115
X004905
Y004229
Y004432
X004765Y004371
X004615Y004321
X004595Y004254
X004117Y004267
X004155Y004381
X004206Y00442
X004194Y004623
X004049Y00461
X003985Y004635
X004067Y004737
X004244Y004762
X004206Y004813
X004575Y004966
X004737Y004973
X004676Y005093
X004867Y005105
X004854Y005169
X004778Y005245
X004625Y005283
X004549Y005271
X004539Y005204
X004417Y00526
X004171Y005446
X004232Y005651
X004054Y005906
Y006083
X004524Y006121
X004638
X004813Y006088
X00493Y005994
X005044Y005982
X004778Y005906
X0046
X004702Y005524
X004851Y00555
X004915Y005639
X004928Y005448
X00509Y005377
X00521Y005385
Y005271
X005248Y005207
X005349Y005359
X005451Y005423
X005527Y00541
Y005334
X005667Y005448
X005705Y005245
X005718Y004699
X005748Y004453
X005667Y004305
X005878Y004263
X005931Y004051
X005451Y004432
X005387Y00442
X005502Y004496
X005133Y004635
X005083Y004674
X004928Y004625
X005019Y00494
X005177Y005578
X005456Y005575
X005489Y005728
Y005791
X005509Y005893
X005248Y006121
X004041Y004356
X004061Y004135
X003932Y004234
X00395Y004343
X003965Y00442
X003838Y004445
X0038Y004318
X003566Y004379
X003393Y004432
X003279Y004394
X003312Y004227
X003266Y004178
X003353Y004112
X003051Y004039
X00284Y004021
X002781Y00427
X003089Y00442
X003035Y004823
X002835Y004813
X002758
X002873Y00508
X002936Y005131
X003228Y005258
X003238Y004902
X003241Y004762
X003406Y004775
X003416Y005027
X003736Y004991
X003785Y005098
X003838Y005055
X00374Y005151
X003917Y005215
X003899Y005324
X003749Y005397
X003757Y005545
X003889Y005575
X003965Y005626
X003597Y005707
X003317Y005766
X003368Y005842
X003406Y005524
X002898Y005537
X003825Y006007
X003813Y006109
X00394Y006083
X003553Y004625
T02
X004696Y002913
X005291Y00557
X005371
X002903Y005283
T04
X002791Y003023
X005791Y006022
X002791
T05
X00317Y00408
M30
