M48
;Layer_Color=9474304
;FILE_FORMAT=4:2
METRIC,LZ
;TYPE=PLATED
T1F00S00C0.20
;TYPE=NON_PLATED
%
T01
X003152Y003096
X003241Y003111
X003317Y003086
X003393
X003495Y003035
X003538Y002949
X003774Y002896
X003876
X003846Y00334
X003901Y003378
X003965Y003289
X003734Y003249
X003736Y00334
X003597Y003353
X003495Y003302
X003393Y003289
X003178Y003391
X002949Y003589
X002873Y003785
X003012Y003861
X00333Y003769
X003533Y003759
X003637Y003162
X002639Y003752
X004003Y003467
X004016Y003353
X004067Y003297
X004219Y003251
X004224Y00299
X004163Y002982
X004056Y002895
X00446Y002972
X004778Y002946
X004856Y003023
X004892Y003073
X004994Y003277
X005095Y003315
X005146Y003277
X005044Y003442
Y003757
X005136Y003747
X005387Y003315
Y003238
X005535Y003233
X00558Y003313
X005883Y003505
X005908Y003759
X005006Y00287
X00474Y004115
X004557Y004122
X004498Y004191
X004384Y004254
X004295Y00414
X004562Y004407
X004692Y00441
X004752Y004432
X004844Y00462
X005019Y004648
X005197Y00461
X00525Y004646
X005286Y004699
X005476Y004813
X005794
X005756Y004635
X005845Y005144
Y00522
X005806Y005613
X00521Y005524
X005032Y005448
X005232Y005778
X00538Y005898
X005413Y006134
Y005156
X005319Y005126
X005032Y00442
X004905Y004305
X004041Y00442
X004333Y004877
X004219Y005017
X004117Y005093
X004308Y005156
X004384Y00522
X004191Y005558
X003901Y004826
X003724Y004762
X003635Y00475
X003546Y004737
X003559Y004216
X003851Y004369
X002936Y004254
X002733Y004229
X00268Y004094
X002771Y004724
X002758Y005601
X003254Y005715
X003368Y00602
M30
