G04 Layer_Physical_Order=7*
G04 Layer_Color=12632256*
%FSLAX42Y42*%
%MOMM*%
G71*
G01*
G75*
%ADD17R,0.41X0.41*%
%ADD19R,0.41X0.41*%
%ADD60C,0.15*%
%ADD65R,0.46X0.46*%
%ADD69C,0.45*%
%ADD70C,0.20*%
%ADD71C,0.40*%
G36*
X5826Y6197D02*
X5859Y6187D01*
X5890Y6171D01*
X5917Y6148D01*
X5939Y6121D01*
X5956Y6091D01*
X5966Y6057D01*
X5969Y6026D01*
X5968Y6022D01*
Y5043D01*
X5953Y5032D01*
X5943Y5017D01*
X5939Y4999D01*
X5940D01*
Y4450D01*
X5939D01*
X5943Y4432D01*
X5953Y4416D01*
X5968Y4406D01*
Y4070D01*
X5968Y4058D01*
X5968Y4058D01*
Y4058D01*
X5956Y4056D01*
X5955Y4058D01*
X5955Y4061D01*
X5949Y4069D01*
X5941Y4075D01*
X5931Y4077D01*
X5921Y4075D01*
X5913Y4069D01*
X5907Y4061D01*
X5905Y4051D01*
X5907Y4041D01*
X5913Y4033D01*
X5921Y4028D01*
X5931Y4026D01*
X5941Y4028D01*
X5949Y4033D01*
X5955Y4041D01*
X5955Y4044D01*
X5956Y4046D01*
X5968Y4045D01*
Y4045D01*
X5968Y4045D01*
X5968Y4032D01*
Y3293D01*
X5791D01*
Y3294D01*
X5749Y3290D01*
X5707Y3280D01*
X5668Y3264D01*
X5632Y3242D01*
X5599Y3214D01*
X5572Y3182D01*
X5550Y3146D01*
X5533Y3106D01*
X5523Y3065D01*
X5520Y3023D01*
X5521D01*
Y2847D01*
X5036D01*
X5029Y2859D01*
X5030Y2860D01*
X5032Y2870D01*
X5030Y2880D01*
X5024Y2888D01*
X5016Y2894D01*
X5006Y2896D01*
X4997Y2894D01*
X4988Y2888D01*
X4983Y2880D01*
X4981Y2870D01*
X4983Y2860D01*
X4983Y2859D01*
X4976Y2847D01*
X4896D01*
X4892Y2859D01*
X4892Y2860D01*
X4898Y2868D01*
X4900Y2878D01*
X4898Y2888D01*
X4892Y2896D01*
X4884Y2902D01*
X4874Y2903D01*
X4864Y2902D01*
X4856Y2896D01*
X4851Y2888D01*
X4849Y2878D01*
X4851Y2868D01*
X4856Y2860D01*
X4856Y2859D01*
X4853Y2847D01*
X4529D01*
X4519Y2861D01*
X4504Y2871D01*
X4486Y2875D01*
Y2874D01*
X4097D01*
Y2875D01*
X4086Y2873D01*
X4079Y2884D01*
X4079Y2885D01*
X4081Y2895D01*
X4079Y2905D01*
X4074Y2913D01*
X4065Y2919D01*
X4056Y2921D01*
X4046Y2919D01*
X4038Y2913D01*
X4032Y2905D01*
X4030Y2895D01*
X4032Y2885D01*
X4038Y2877D01*
X4046Y2871D01*
X4055Y2869D01*
X4055Y2869D01*
X4057Y2866D01*
X4061Y2857D01*
X4054Y2847D01*
X2793D01*
X2784Y2845D01*
X2782Y2844D01*
X2757Y2846D01*
X2723Y2857D01*
X2692Y2873D01*
X2665Y2896D01*
X2642Y2923D01*
X2626Y2955D01*
X2615Y2988D01*
X2612Y3024D01*
X2612Y3024D01*
Y3725D01*
X2613Y3726D01*
X2624Y3731D01*
X2629Y3728D01*
X2639Y3726D01*
X2649Y3728D01*
X2657Y3733D01*
X2663Y3742D01*
X2665Y3752D01*
X2663Y3761D01*
X2657Y3770D01*
X2649Y3775D01*
X2639Y3777D01*
X2629Y3775D01*
X2624Y3772D01*
X2613Y3777D01*
X2612Y3778D01*
Y4406D01*
X2614Y4406D01*
X2630Y4416D01*
X2640Y4432D01*
X2644Y4450D01*
X2643D01*
Y4999D01*
X2644D01*
X2640Y5017D01*
X2630Y5032D01*
X2614Y5043D01*
X2612Y5043D01*
Y6015D01*
X2613Y6022D01*
X2613D01*
X2613Y6022D01*
X2617Y6057D01*
X2627Y6091D01*
X2643Y6121D01*
X2665Y6148D01*
X2692Y6171D01*
X2723Y6187D01*
X2757Y6197D01*
X2784Y6200D01*
X2791Y6198D01*
X5791D01*
X5799Y6200D01*
X5826Y6197D01*
D02*
G37*
%LPC*%
G36*
X3330Y3795D02*
X3320Y3793D01*
X3312Y3787D01*
X3306Y3779D01*
X3304Y3769D01*
X3306Y3760D01*
X3312Y3751D01*
X3320Y3746D01*
X3330Y3744D01*
X3340Y3746D01*
X3348Y3751D01*
X3354Y3760D01*
X3356Y3769D01*
X3354Y3779D01*
X3348Y3787D01*
X3340Y3793D01*
X3330Y3795D01*
D02*
G37*
G36*
X3419D02*
X3409Y3793D01*
X3401Y3787D01*
X3395Y3779D01*
X3393Y3769D01*
X3395Y3760D01*
X3401Y3751D01*
X3409Y3746D01*
X3419Y3744D01*
X3429Y3746D01*
X3437Y3751D01*
X3443Y3760D01*
X3444Y3769D01*
X3443Y3779D01*
X3437Y3787D01*
X3429Y3793D01*
X3419Y3795D01*
D02*
G37*
G36*
X2766Y3800D02*
X2756Y3798D01*
X2748Y3793D01*
X2742Y3784D01*
X2740Y3774D01*
X2742Y3765D01*
X2748Y3756D01*
X2756Y3751D01*
X2766Y3749D01*
X2776Y3751D01*
X2784Y3756D01*
X2790Y3765D01*
X2792Y3774D01*
X2790Y3784D01*
X2784Y3793D01*
X2776Y3798D01*
X2766Y3800D01*
D02*
G37*
G36*
X5908Y3785D02*
X5898Y3783D01*
X5890Y3777D01*
X5884Y3769D01*
X5882Y3759D01*
X5884Y3749D01*
X5890Y3741D01*
X5898Y3735D01*
X5908Y3734D01*
X5918Y3735D01*
X5926Y3741D01*
X5932Y3749D01*
X5934Y3759D01*
X5932Y3769D01*
X5926Y3777D01*
X5918Y3783D01*
X5908Y3785D01*
D02*
G37*
G36*
X2982Y3777D02*
X2972Y3775D01*
X2964Y3770D01*
X2958Y3761D01*
X2956Y3752D01*
X2958Y3742D01*
X2964Y3733D01*
X2972Y3728D01*
X2982Y3726D01*
X2992Y3728D01*
X3000Y3733D01*
X3006Y3742D01*
X3008Y3752D01*
X3006Y3761D01*
X3000Y3770D01*
X2992Y3775D01*
X2982Y3777D01*
D02*
G37*
G36*
X3533Y3785D02*
X3523Y3783D01*
X3515Y3777D01*
X3509Y3769D01*
X3507Y3759D01*
X3509Y3749D01*
X3515Y3741D01*
X3523Y3735D01*
X3533Y3734D01*
X3543Y3735D01*
X3551Y3741D01*
X3557Y3749D01*
X3559Y3759D01*
X3557Y3769D01*
X3551Y3777D01*
X3543Y3783D01*
X3533Y3785D01*
D02*
G37*
G36*
X4762D02*
X4753Y3783D01*
X4744Y3777D01*
X4739Y3769D01*
X4737Y3759D01*
X4739Y3749D01*
X4744Y3741D01*
X4753Y3735D01*
X4762Y3734D01*
X4772Y3735D01*
X4781Y3741D01*
X4786Y3749D01*
X4788Y3759D01*
X4786Y3769D01*
X4781Y3777D01*
X4772Y3783D01*
X4762Y3785D01*
D02*
G37*
G36*
X2873Y3810D02*
X2863Y3808D01*
X2855Y3803D01*
X2849Y3794D01*
X2847Y3785D01*
X2849Y3775D01*
X2855Y3766D01*
X2863Y3761D01*
X2873Y3759D01*
X2883Y3761D01*
X2891Y3766D01*
X2896Y3775D01*
X2898Y3785D01*
X2896Y3794D01*
X2891Y3803D01*
X2883Y3808D01*
X2873Y3810D01*
D02*
G37*
G36*
X3012Y3886D02*
X3003Y3885D01*
X2994Y3879D01*
X2989Y3871D01*
X2987Y3861D01*
X2989Y3851D01*
X2994Y3843D01*
X3003Y3837D01*
X3012Y3835D01*
X3022Y3837D01*
X3031Y3843D01*
X3036Y3851D01*
X3038Y3861D01*
X3036Y3871D01*
X3031Y3879D01*
X3022Y3885D01*
X3012Y3886D01*
D02*
G37*
G36*
X3678Y3892D02*
X3668Y3890D01*
X3660Y3884D01*
X3654Y3876D01*
X3652Y3866D01*
X3654Y3856D01*
X3660Y3848D01*
X3668Y3842D01*
X3678Y3840D01*
X3688Y3842D01*
X3696Y3848D01*
X3702Y3856D01*
X3704Y3866D01*
X3702Y3876D01*
X3696Y3884D01*
X3688Y3890D01*
X3678Y3892D01*
D02*
G37*
G36*
X5626Y3922D02*
X5616Y3920D01*
X5608Y3914D01*
X5602Y3906D01*
X5600Y3896D01*
X5602Y3887D01*
X5608Y3878D01*
X5616Y3873D01*
X5626Y3871D01*
X5636Y3873D01*
X5644Y3878D01*
X5650Y3887D01*
X5652Y3896D01*
X5650Y3906D01*
X5644Y3914D01*
X5636Y3920D01*
X5626Y3922D01*
D02*
G37*
G36*
X4699Y3859D02*
X4689Y3857D01*
X4681Y3851D01*
X4675Y3843D01*
X4673Y3833D01*
X4675Y3823D01*
X4681Y3815D01*
X4689Y3809D01*
X4699Y3807D01*
X4709Y3809D01*
X4717Y3815D01*
X4723Y3823D01*
X4725Y3833D01*
X4723Y3843D01*
X4717Y3851D01*
X4709Y3857D01*
X4699Y3859D01*
D02*
G37*
G36*
X5197Y3785D02*
X5187Y3783D01*
X5179Y3777D01*
X5177Y3775D01*
X5164Y3774D01*
X5162Y3774D01*
X5151Y3782D01*
X5136Y3785D01*
X5121Y3782D01*
X5109Y3774D01*
X5101Y3761D01*
X5098Y3747D01*
X5101Y3732D01*
X5109Y3719D01*
X5121Y3711D01*
X5136Y3708D01*
X5151Y3711D01*
X5163Y3719D01*
X5171Y3732D01*
X5185Y3737D01*
X5187Y3735D01*
X5197Y3734D01*
X5207Y3735D01*
X5215Y3741D01*
X5221Y3749D01*
X5222Y3759D01*
X5221Y3769D01*
X5215Y3777D01*
X5207Y3783D01*
X5197Y3785D01*
D02*
G37*
G36*
X3051Y3836D02*
X3041Y3834D01*
X3032Y3828D01*
X3027Y3820D01*
X3025Y3810D01*
X3027Y3800D01*
X3032Y3792D01*
X3041Y3786D01*
X3051Y3784D01*
X3060Y3786D01*
X3069Y3792D01*
X3074Y3800D01*
X3076Y3810D01*
X3074Y3820D01*
X3069Y3828D01*
X3060Y3834D01*
X3051Y3836D01*
D02*
G37*
G36*
X2675Y3843D02*
X2665Y3841D01*
X2656Y3836D01*
X2651Y3827D01*
X2649Y3818D01*
X2651Y3808D01*
X2656Y3799D01*
X2665Y3794D01*
X2675Y3792D01*
X2684Y3794D01*
X2693Y3799D01*
X2698Y3808D01*
X2700Y3818D01*
X2698Y3827D01*
X2693Y3836D01*
X2684Y3841D01*
X2675Y3843D01*
D02*
G37*
G36*
X5044Y3795D02*
X5030Y3792D01*
X5017Y3784D01*
X5009Y3771D01*
X5006Y3757D01*
X5009Y3742D01*
X5017Y3730D01*
X5030Y3721D01*
X5044Y3718D01*
X5059Y3721D01*
X5071Y3730D01*
X5080Y3742D01*
X5083Y3757D01*
X5080Y3771D01*
X5071Y3784D01*
X5059Y3792D01*
X5044Y3795D01*
D02*
G37*
G36*
X4003Y3493D02*
X3993Y3491D01*
X3985Y3485D01*
X3979Y3477D01*
X3977Y3467D01*
X3979Y3457D01*
X3985Y3449D01*
X3993Y3443D01*
X4003Y3441D01*
X4013Y3443D01*
X4021Y3449D01*
X4027Y3457D01*
X4029Y3467D01*
X4027Y3477D01*
X4021Y3485D01*
X4013Y3491D01*
X4003Y3493D01*
D02*
G37*
G36*
X5783Y3777D02*
X5471D01*
X5466Y3772D01*
Y3452D01*
X5772Y3452D01*
X5781Y3452D01*
X5784Y3454D01*
X5783Y3455D01*
X5783Y3464D01*
Y3777D01*
D02*
G37*
G36*
X2720Y3531D02*
X2711Y3529D01*
X2702Y3523D01*
X2697Y3515D01*
X2695Y3505D01*
X2697Y3495D01*
X2702Y3487D01*
X2711Y3481D01*
X2720Y3480D01*
X2730Y3481D01*
X2738Y3487D01*
X2744Y3495D01*
X2746Y3505D01*
X2744Y3515D01*
X2738Y3523D01*
X2730Y3529D01*
X2720Y3531D01*
D02*
G37*
G36*
X4600Y3480D02*
X4590Y3478D01*
X4582Y3473D01*
X4576Y3464D01*
X4574Y3454D01*
X4576Y3445D01*
X4582Y3436D01*
X4590Y3431D01*
X4600Y3429D01*
X4610Y3431D01*
X4618Y3436D01*
X4624Y3445D01*
X4626Y3454D01*
X4624Y3464D01*
X4618Y3473D01*
X4610Y3478D01*
X4600Y3480D01*
D02*
G37*
G36*
X2822Y3467D02*
X2812Y3465D01*
X2804Y3460D01*
X2798Y3452D01*
X2796Y3442D01*
X2798Y3432D01*
X2804Y3424D01*
X2812Y3418D01*
X2822Y3416D01*
X2832Y3418D01*
X2838Y3422D01*
X2840Y3424D01*
X2847Y3430D01*
X2854Y3429D01*
X2859Y3419D01*
X2860Y3418D01*
X2864Y3411D01*
X2872Y3405D01*
X2882Y3404D01*
X2892Y3405D01*
X2900Y3411D01*
X2906Y3419D01*
X2908Y3429D01*
X2906Y3439D01*
X2900Y3447D01*
X2892Y3453D01*
X2882Y3455D01*
X2872Y3453D01*
X2866Y3449D01*
X2864Y3447D01*
X2857Y3441D01*
X2850Y3442D01*
X2846Y3452D01*
X2844Y3453D01*
X2840Y3460D01*
X2832Y3465D01*
X2822Y3467D01*
D02*
G37*
G36*
X4498D02*
X4489Y3465D01*
X4480Y3460D01*
X4475Y3452D01*
X4473Y3442D01*
X4475Y3432D01*
X4480Y3424D01*
X4489Y3418D01*
X4498Y3416D01*
X4508Y3418D01*
X4516Y3424D01*
X4522Y3432D01*
X4524Y3442D01*
X4522Y3452D01*
X4516Y3460D01*
X4508Y3465D01*
X4498Y3467D01*
D02*
G37*
G36*
X5044D02*
X5035Y3465D01*
X5026Y3460D01*
X5021Y3452D01*
X5019Y3442D01*
X5021Y3432D01*
X5026Y3424D01*
X5035Y3418D01*
X5044Y3416D01*
X5054Y3418D01*
X5063Y3424D01*
X5068Y3432D01*
X5070Y3442D01*
X5068Y3452D01*
X5063Y3460D01*
X5054Y3465D01*
X5044Y3467D01*
D02*
G37*
G36*
X5883Y3531D02*
X5873Y3529D01*
X5865Y3523D01*
X5859Y3515D01*
X5857Y3505D01*
X5859Y3495D01*
X5865Y3487D01*
X5873Y3481D01*
X5883Y3480D01*
X5892Y3481D01*
X5901Y3487D01*
X5906Y3495D01*
X5908Y3505D01*
X5906Y3515D01*
X5901Y3523D01*
X5892Y3529D01*
X5883Y3531D01*
D02*
G37*
G36*
X3038Y3671D02*
X3028Y3669D01*
X3020Y3663D01*
X3014Y3655D01*
X3012Y3645D01*
X3014Y3635D01*
X3020Y3627D01*
X3028Y3621D01*
X3038Y3619D01*
X3048Y3621D01*
X3056Y3627D01*
X3062Y3635D01*
X3063Y3645D01*
X3062Y3655D01*
X3056Y3663D01*
X3048Y3669D01*
X3038Y3671D01*
D02*
G37*
G36*
X5298Y3683D02*
X5289Y3681D01*
X5280Y3676D01*
X5275Y3667D01*
X5273Y3658D01*
X5275Y3648D01*
X5280Y3639D01*
X5289Y3634D01*
X5298Y3632D01*
X5308Y3634D01*
X5317Y3639D01*
X5322Y3648D01*
X5324Y3658D01*
X5322Y3667D01*
X5317Y3676D01*
X5308Y3681D01*
X5298Y3683D01*
D02*
G37*
G36*
X3045Y3754D02*
X3036Y3752D01*
X3027Y3747D01*
X3022Y3739D01*
X3020Y3729D01*
X3022Y3719D01*
X3027Y3711D01*
X3036Y3705D01*
X3045Y3703D01*
X3055Y3705D01*
X3064Y3711D01*
X3069Y3719D01*
X3071Y3729D01*
X3069Y3739D01*
X3064Y3747D01*
X3055Y3752D01*
X3045Y3754D01*
D02*
G37*
G36*
X3711Y3627D02*
X3701Y3625D01*
X3693Y3620D01*
X3687Y3612D01*
X3685Y3602D01*
X3687Y3592D01*
X3693Y3584D01*
X3701Y3578D01*
X3711Y3576D01*
X3721Y3578D01*
X3729Y3584D01*
X3735Y3592D01*
X3737Y3602D01*
X3735Y3612D01*
X3729Y3620D01*
X3721Y3625D01*
X3711Y3627D01*
D02*
G37*
G36*
X3665Y3541D02*
X3655Y3539D01*
X3647Y3533D01*
X3642Y3525D01*
X3640Y3515D01*
X3642Y3506D01*
X3647Y3497D01*
X3655Y3492D01*
X3665Y3490D01*
X3675Y3492D01*
X3683Y3497D01*
X3689Y3506D01*
X3691Y3515D01*
X3689Y3525D01*
X3683Y3533D01*
X3675Y3539D01*
X3665Y3541D01*
D02*
G37*
G36*
X4270Y3544D02*
X4260Y3542D01*
X4252Y3536D01*
X4246Y3528D01*
X4244Y3518D01*
X4246Y3508D01*
X4252Y3500D01*
X4260Y3494D01*
X4270Y3492D01*
X4280Y3494D01*
X4288Y3500D01*
X4293Y3508D01*
X4295Y3518D01*
X4293Y3528D01*
X4288Y3536D01*
X4280Y3542D01*
X4270Y3544D01*
D02*
G37*
G36*
X2949Y3615D02*
X2939Y3613D01*
X2931Y3607D01*
X2925Y3599D01*
X2923Y3589D01*
X2925Y3579D01*
X2931Y3571D01*
X2939Y3565D01*
X2949Y3563D01*
X2959Y3565D01*
X2967Y3571D01*
X2973Y3579D01*
X2975Y3589D01*
X2973Y3599D01*
X2967Y3607D01*
X2959Y3613D01*
X2949Y3615D01*
D02*
G37*
G36*
X5845Y3937D02*
X5835Y3935D01*
X5826Y3930D01*
X5821Y3921D01*
X5819Y3912D01*
X5821Y3902D01*
X5826Y3893D01*
X5835Y3888D01*
X5845Y3886D01*
X5854Y3888D01*
X5863Y3893D01*
X5868Y3902D01*
X5870Y3912D01*
X5868Y3921D01*
X5863Y3930D01*
X5854Y3935D01*
X5845Y3937D01*
D02*
G37*
G36*
X3312Y4252D02*
X3302Y4250D01*
X3294Y4245D01*
X3288Y4236D01*
X3287Y4227D01*
X3288Y4217D01*
X3294Y4208D01*
X3302Y4203D01*
X3312Y4201D01*
X3322Y4203D01*
X3330Y4208D01*
X3336Y4217D01*
X3338Y4227D01*
X3336Y4236D01*
X3330Y4245D01*
X3322Y4250D01*
X3312Y4252D01*
D02*
G37*
G36*
X2733Y4255D02*
X2723Y4253D01*
X2715Y4247D01*
X2709Y4239D01*
X2707Y4229D01*
X2709Y4219D01*
X2715Y4211D01*
X2723Y4205D01*
X2733Y4203D01*
X2743Y4205D01*
X2751Y4211D01*
X2757Y4219D01*
X2759Y4229D01*
X2757Y4239D01*
X2751Y4247D01*
X2743Y4253D01*
X2733Y4255D01*
D02*
G37*
G36*
X4905D02*
X4895Y4253D01*
X4887Y4247D01*
X4881Y4239D01*
X4879Y4229D01*
X4881Y4219D01*
X4887Y4211D01*
X4895Y4205D01*
X4905Y4203D01*
X4915Y4205D01*
X4923Y4211D01*
X4928Y4219D01*
X4930Y4229D01*
X4928Y4239D01*
X4923Y4247D01*
X4915Y4253D01*
X4905Y4255D01*
D02*
G37*
G36*
X3559Y4242D02*
X3549Y4240D01*
X3540Y4235D01*
X3535Y4226D01*
X3533Y4216D01*
X3535Y4207D01*
X3540Y4198D01*
X3549Y4193D01*
X3559Y4191D01*
X3568Y4193D01*
X3577Y4198D01*
X3582Y4207D01*
X3584Y4216D01*
X3582Y4226D01*
X3577Y4235D01*
X3568Y4240D01*
X3559Y4242D01*
D02*
G37*
G36*
X3266Y4204D02*
X3257Y4202D01*
X3248Y4196D01*
X3243Y4188D01*
X3241Y4178D01*
X3243Y4168D01*
X3248Y4160D01*
X3257Y4155D01*
X3266Y4153D01*
X3276Y4155D01*
X3285Y4160D01*
X3290Y4168D01*
X3292Y4178D01*
X3290Y4188D01*
X3285Y4196D01*
X3276Y4202D01*
X3266Y4204D01*
D02*
G37*
G36*
X4498Y4217D02*
X4489Y4215D01*
X4480Y4209D01*
X4475Y4201D01*
X4473Y4191D01*
X4475Y4181D01*
X4480Y4173D01*
X4489Y4167D01*
X4498Y4165D01*
X4508Y4167D01*
X4516Y4173D01*
X4522Y4181D01*
X4524Y4191D01*
X4522Y4201D01*
X4516Y4209D01*
X4508Y4215D01*
X4498Y4217D01*
D02*
G37*
G36*
X5260D02*
X5251Y4215D01*
X5242Y4209D01*
X5237Y4201D01*
X5235Y4191D01*
X5237Y4181D01*
X5242Y4173D01*
X5251Y4167D01*
X5260Y4165D01*
X5270Y4167D01*
X5278Y4173D01*
X5284Y4181D01*
X5286Y4191D01*
X5284Y4201D01*
X5278Y4209D01*
X5270Y4215D01*
X5260Y4217D01*
D02*
G37*
G36*
X3932Y4260D02*
X3922Y4258D01*
X3914Y4252D01*
X3908Y4244D01*
X3906Y4234D01*
X3908Y4224D01*
X3914Y4216D01*
X3922Y4210D01*
X3932Y4209D01*
X3942Y4210D01*
X3950Y4216D01*
X3956Y4224D01*
X3958Y4234D01*
X3956Y4244D01*
X3950Y4252D01*
X3942Y4258D01*
X3932Y4260D01*
D02*
G37*
G36*
X4117Y4293D02*
X4108Y4291D01*
X4099Y4285D01*
X4094Y4277D01*
X4092Y4267D01*
X4094Y4257D01*
X4099Y4249D01*
X4108Y4244D01*
X4117Y4242D01*
X4127Y4244D01*
X4135Y4249D01*
X4141Y4257D01*
X4143Y4267D01*
X4141Y4277D01*
X4135Y4285D01*
X4127Y4291D01*
X4117Y4293D01*
D02*
G37*
G36*
X4905Y4331D02*
X4895Y4329D01*
X4887Y4323D01*
X4881Y4315D01*
X4879Y4305D01*
X4881Y4295D01*
X4887Y4287D01*
X4895Y4282D01*
X4905Y4280D01*
X4915Y4282D01*
X4923Y4287D01*
X4928Y4295D01*
X4930Y4305D01*
X4928Y4315D01*
X4923Y4323D01*
X4915Y4329D01*
X4905Y4331D01*
D02*
G37*
G36*
X5667D02*
X5657Y4329D01*
X5649Y4323D01*
X5643Y4315D01*
X5641Y4305D01*
X5643Y4295D01*
X5649Y4287D01*
X5657Y4282D01*
X5667Y4280D01*
X5677Y4282D01*
X5685Y4287D01*
X5690Y4295D01*
X5692Y4305D01*
X5690Y4315D01*
X5685Y4323D01*
X5677Y4329D01*
X5667Y4331D01*
D02*
G37*
G36*
X5878Y4288D02*
X5868Y4286D01*
X5860Y4281D01*
X5854Y4272D01*
X5852Y4263D01*
X5854Y4253D01*
X5860Y4244D01*
X5868Y4239D01*
X5878Y4237D01*
X5888Y4239D01*
X5896Y4244D01*
X5902Y4253D01*
X5903Y4263D01*
X5902Y4272D01*
X5896Y4281D01*
X5888Y4286D01*
X5878Y4288D01*
D02*
G37*
G36*
X4615Y4356D02*
X4602Y4354D01*
X4590Y4346D01*
X4582Y4334D01*
X4579Y4321D01*
X4582Y4307D01*
X4586Y4301D01*
X4581Y4287D01*
X4581Y4287D01*
X4570Y4280D01*
X4562Y4268D01*
X4559Y4254D01*
X4562Y4241D01*
X4570Y4229D01*
X4581Y4222D01*
X4595Y4219D01*
X4609Y4222D01*
X4620Y4229D01*
X4628Y4241D01*
X4631Y4254D01*
X4628Y4268D01*
X4624Y4274D01*
X4629Y4288D01*
X4629Y4288D01*
X4640Y4295D01*
X4648Y4307D01*
X4651Y4321D01*
X4648Y4334D01*
X4640Y4346D01*
X4629Y4354D01*
X4615Y4356D01*
D02*
G37*
G36*
X2936Y4280D02*
X2926Y4278D01*
X2918Y4273D01*
X2913Y4264D01*
X2911Y4254D01*
X2913Y4245D01*
X2918Y4236D01*
X2926Y4231D01*
X2936Y4229D01*
X2946Y4231D01*
X2954Y4236D01*
X2960Y4245D01*
X2962Y4254D01*
X2960Y4264D01*
X2954Y4273D01*
X2946Y4278D01*
X2936Y4280D01*
D02*
G37*
G36*
X4384D02*
X4374Y4278D01*
X4366Y4273D01*
X4360Y4264D01*
X4358Y4254D01*
X4360Y4245D01*
X4366Y4236D01*
X4374Y4231D01*
X4384Y4229D01*
X4394Y4231D01*
X4402Y4236D01*
X4408Y4245D01*
X4410Y4254D01*
X4408Y4264D01*
X4402Y4273D01*
X4394Y4278D01*
X4384Y4280D01*
D02*
G37*
G36*
X4295Y4166D02*
X4285Y4164D01*
X4277Y4158D01*
X4271Y4150D01*
X4269Y4140D01*
X4271Y4130D01*
X4277Y4122D01*
X4285Y4117D01*
X4295Y4115D01*
X4305Y4117D01*
X4313Y4122D01*
X4319Y4130D01*
X4321Y4140D01*
X4319Y4150D01*
X4313Y4158D01*
X4305Y4164D01*
X4295Y4166D01*
D02*
G37*
G36*
X5865Y4183D02*
X5654D01*
X5651Y4181D01*
Y3970D01*
X5865D01*
Y4183D01*
D02*
G37*
G36*
X2840Y4046D02*
X2830Y4045D01*
X2822Y4039D01*
X2816Y4031D01*
X2814Y4021D01*
X2816Y4011D01*
X2822Y4003D01*
X2830Y3997D01*
X2840Y3995D01*
X2850Y3997D01*
X2858Y4003D01*
X2863Y4011D01*
X2865Y4021D01*
X2863Y4031D01*
X2858Y4039D01*
X2850Y4045D01*
X2840Y4046D01*
D02*
G37*
G36*
X3170Y4129D02*
X3151Y4125D01*
X3135Y4114D01*
X3125Y4098D01*
X3121Y4080D01*
X3125Y4061D01*
X3135Y4045D01*
X3151Y4035D01*
X3170Y4031D01*
X3189Y4035D01*
X3205Y4045D01*
X3215Y4061D01*
X3219Y4080D01*
X3215Y4098D01*
X3205Y4114D01*
X3189Y4125D01*
X3170Y4129D01*
D02*
G37*
G36*
X5514Y4001D02*
X5505Y3999D01*
X5496Y3993D01*
X5491Y3985D01*
X5489Y3975D01*
X5491Y3965D01*
X5496Y3957D01*
X5505Y3951D01*
X5514Y3949D01*
X5524Y3951D01*
X5532Y3957D01*
X5538Y3965D01*
X5540Y3975D01*
X5538Y3985D01*
X5532Y3993D01*
X5524Y3999D01*
X5514Y4001D01*
D02*
G37*
G36*
X3190Y3950D02*
X3180Y3948D01*
X3172Y3942D01*
X3167Y3934D01*
X3165Y3924D01*
X3167Y3914D01*
X3172Y3906D01*
X3180Y3901D01*
X3190Y3899D01*
X3200Y3901D01*
X3208Y3906D01*
X3214Y3914D01*
X3216Y3924D01*
X3214Y3934D01*
X3208Y3942D01*
X3200Y3948D01*
X3190Y3950D01*
D02*
G37*
G36*
X2771Y3968D02*
X2761Y3966D01*
X2753Y3960D01*
X2747Y3952D01*
X2745Y3942D01*
X2747Y3932D01*
X2752Y3926D01*
X2742Y3917D01*
X2738Y3920D01*
X2728Y3922D01*
X2718Y3920D01*
X2710Y3914D01*
X2704Y3906D01*
X2702Y3896D01*
X2704Y3887D01*
X2710Y3878D01*
X2718Y3873D01*
X2728Y3871D01*
X2738Y3873D01*
X2746Y3878D01*
X2752Y3887D01*
X2754Y3896D01*
X2752Y3906D01*
X2748Y3912D01*
X2757Y3921D01*
X2761Y3918D01*
X2771Y3916D01*
X2781Y3918D01*
X2789Y3924D01*
X2795Y3932D01*
X2797Y3942D01*
X2795Y3952D01*
X2789Y3960D01*
X2781Y3966D01*
X2771Y3968D01*
D02*
G37*
G36*
X2934Y3973D02*
X2924Y3971D01*
X2916Y3965D01*
X2910Y3957D01*
X2908Y3947D01*
X2910Y3937D01*
X2916Y3929D01*
X2924Y3923D01*
X2934Y3922D01*
X2944Y3923D01*
X2952Y3929D01*
X2957Y3937D01*
X2959Y3947D01*
X2957Y3957D01*
X2952Y3965D01*
X2944Y3971D01*
X2934Y3973D01*
D02*
G37*
G36*
X5372Y4129D02*
X5354Y4125D01*
X5338Y4114D01*
X5327Y4098D01*
X5323Y4080D01*
X5327Y4061D01*
X5338Y4045D01*
X5354Y4035D01*
X5372Y4031D01*
X5391Y4035D01*
X5407Y4045D01*
X5417Y4061D01*
X5421Y4080D01*
X5417Y4098D01*
X5407Y4114D01*
X5391Y4125D01*
X5372Y4129D01*
D02*
G37*
G36*
X5057Y4140D02*
X5047Y4138D01*
X5039Y4133D01*
X5033Y4125D01*
X5031Y4115D01*
X5033Y4105D01*
X5039Y4097D01*
X5047Y4091D01*
X5057Y4089D01*
X5067Y4091D01*
X5075Y4097D01*
X5081Y4105D01*
X5083Y4115D01*
X5081Y4125D01*
X5075Y4133D01*
X5067Y4138D01*
X5057Y4140D01*
D02*
G37*
G36*
X4557Y4148D02*
X4547Y4146D01*
X4539Y4141D01*
X4533Y4132D01*
X4531Y4122D01*
X4533Y4113D01*
X4539Y4104D01*
X4547Y4099D01*
X4557Y4097D01*
X4567Y4099D01*
X4575Y4104D01*
X4580Y4113D01*
X4582Y4122D01*
X4580Y4132D01*
X4575Y4141D01*
X4567Y4146D01*
X4557Y4148D01*
D02*
G37*
G36*
X4061Y4161D02*
X4052Y4159D01*
X4043Y4153D01*
X4038Y4145D01*
X4036Y4135D01*
X4038Y4125D01*
X4043Y4117D01*
X4052Y4111D01*
X4061Y4109D01*
X4071Y4111D01*
X4080Y4117D01*
X4085Y4125D01*
X4087Y4135D01*
X4085Y4145D01*
X4080Y4153D01*
X4071Y4159D01*
X4061Y4161D01*
D02*
G37*
G36*
X4905Y4140D02*
X4895Y4138D01*
X4887Y4133D01*
X4881Y4125D01*
X4879Y4115D01*
X4881Y4105D01*
X4887Y4097D01*
X4895Y4091D01*
X4905Y4089D01*
X4915Y4091D01*
X4923Y4097D01*
X4928Y4105D01*
X4930Y4115D01*
X4928Y4125D01*
X4923Y4133D01*
X4915Y4138D01*
X4905Y4140D01*
D02*
G37*
G36*
X2680Y4120D02*
X2670Y4118D01*
X2662Y4113D01*
X2656Y4104D01*
X2654Y4094D01*
X2656Y4085D01*
X2662Y4076D01*
X2670Y4071D01*
X2680Y4069D01*
X2690Y4071D01*
X2698Y4076D01*
X2703Y4085D01*
X2705Y4094D01*
X2703Y4104D01*
X2698Y4113D01*
X2690Y4118D01*
X2680Y4120D01*
D02*
G37*
G36*
X3353Y4138D02*
X3343Y4136D01*
X3335Y4130D01*
X3329Y4122D01*
X3327Y4112D01*
X3329Y4102D01*
X3335Y4094D01*
X3343Y4089D01*
X3353Y4087D01*
X3363Y4089D01*
X3371Y4094D01*
X3376Y4102D01*
X3378Y4112D01*
X3376Y4122D01*
X3371Y4130D01*
X3363Y4136D01*
X3353Y4138D01*
D02*
G37*
G36*
X4740Y4140D02*
X4730Y4138D01*
X4722Y4133D01*
X4716Y4125D01*
X4714Y4115D01*
X4716Y4105D01*
X4722Y4097D01*
X4730Y4091D01*
X4740Y4089D01*
X4749Y4091D01*
X4758Y4097D01*
X4763Y4105D01*
X4765Y4115D01*
X4763Y4125D01*
X4758Y4133D01*
X4749Y4138D01*
X4740Y4140D01*
D02*
G37*
G36*
X3241Y3137D02*
X3231Y3135D01*
X3223Y3130D01*
X3217Y3121D01*
X3215Y3111D01*
X3217Y3102D01*
X3223Y3093D01*
X3231Y3088D01*
X3241Y3086D01*
X3251Y3088D01*
X3259Y3093D01*
X3265Y3102D01*
X3267Y3111D01*
X3265Y3121D01*
X3259Y3130D01*
X3251Y3135D01*
X3241Y3137D01*
D02*
G37*
G36*
X4483Y3140D02*
X4473Y3138D01*
X4465Y3132D01*
X4459Y3124D01*
X4457Y3114D01*
X4459Y3104D01*
X4465Y3096D01*
X4473Y3090D01*
X4483Y3088D01*
X4493Y3090D01*
X4501Y3096D01*
X4507Y3104D01*
X4509Y3114D01*
X4507Y3124D01*
X4501Y3132D01*
X4493Y3138D01*
X4483Y3140D01*
D02*
G37*
G36*
X4417Y3142D02*
X4407Y3140D01*
X4399Y3135D01*
X4393Y3126D01*
X4391Y3117D01*
X4393Y3107D01*
X4399Y3098D01*
X4407Y3093D01*
X4417Y3091D01*
X4427Y3093D01*
X4435Y3098D01*
X4441Y3107D01*
X4443Y3117D01*
X4441Y3126D01*
X4435Y3135D01*
X4427Y3140D01*
X4417Y3142D01*
D02*
G37*
G36*
X3508Y3124D02*
X3498Y3123D01*
X3490Y3117D01*
X3484Y3109D01*
X3482Y3099D01*
X3484Y3089D01*
X3490Y3081D01*
X3498Y3075D01*
X3508Y3073D01*
X3518Y3075D01*
X3526Y3081D01*
X3531Y3089D01*
X3533Y3099D01*
X3531Y3109D01*
X3526Y3117D01*
X3518Y3123D01*
X3508Y3124D01*
D02*
G37*
G36*
X3317Y3112D02*
X3307Y3110D01*
X3299Y3104D01*
X3294Y3096D01*
X3292Y3086D01*
X3294Y3076D01*
X3299Y3068D01*
X3307Y3062D01*
X3317Y3060D01*
X3327Y3062D01*
X3335Y3068D01*
X3341Y3076D01*
X3343Y3086D01*
X3341Y3096D01*
X3335Y3104D01*
X3327Y3110D01*
X3317Y3112D01*
D02*
G37*
G36*
X3393D02*
X3384Y3110D01*
X3375Y3104D01*
X3370Y3096D01*
X3368Y3086D01*
X3370Y3076D01*
X3375Y3068D01*
X3384Y3062D01*
X3393Y3060D01*
X3403Y3062D01*
X3412Y3068D01*
X3417Y3076D01*
X3419Y3086D01*
X3417Y3096D01*
X3412Y3104D01*
X3403Y3110D01*
X3393Y3112D01*
D02*
G37*
G36*
X3152Y3122D02*
X3142Y3120D01*
X3134Y3114D01*
X3128Y3106D01*
X3126Y3096D01*
X3128Y3086D01*
X3134Y3078D01*
X3142Y3073D01*
X3152Y3071D01*
X3162Y3073D01*
X3170Y3078D01*
X3176Y3086D01*
X3178Y3096D01*
X3176Y3106D01*
X3170Y3114D01*
X3162Y3120D01*
X3152Y3122D01*
D02*
G37*
G36*
X4613Y3142D02*
X4603Y3140D01*
X4595Y3135D01*
X4589Y3126D01*
X4587Y3117D01*
X4589Y3107D01*
X4595Y3098D01*
X4603Y3093D01*
X4613Y3091D01*
X4622Y3093D01*
X4631Y3098D01*
X4636Y3107D01*
X4638Y3117D01*
X4636Y3126D01*
X4631Y3135D01*
X4622Y3140D01*
X4613Y3142D01*
D02*
G37*
G36*
X4277Y3208D02*
X4268Y3206D01*
X4259Y3201D01*
X4254Y3192D01*
X4252Y3183D01*
X4254Y3173D01*
X4259Y3164D01*
X4268Y3159D01*
X4277Y3157D01*
X4287Y3159D01*
X4295Y3164D01*
X4301Y3173D01*
X4303Y3183D01*
X4301Y3192D01*
X4295Y3201D01*
X4287Y3206D01*
X4277Y3208D01*
D02*
G37*
G36*
X4813Y3216D02*
X4803Y3214D01*
X4795Y3208D01*
X4790Y3200D01*
X4788Y3190D01*
X4790Y3180D01*
X4795Y3172D01*
X4803Y3167D01*
X4813Y3165D01*
X4823Y3167D01*
X4831Y3172D01*
X4837Y3180D01*
X4839Y3190D01*
X4837Y3200D01*
X4831Y3208D01*
X4823Y3214D01*
X4813Y3216D01*
D02*
G37*
G36*
X5535Y3272D02*
X5520Y3269D01*
X5508Y3260D01*
X5499Y3248D01*
X5496Y3233D01*
X5499Y3219D01*
X5508Y3206D01*
X5520Y3198D01*
X5535Y3195D01*
X5549Y3198D01*
X5562Y3206D01*
X5570Y3219D01*
X5573Y3233D01*
X5570Y3248D01*
X5562Y3260D01*
X5549Y3269D01*
X5535Y3272D01*
D02*
G37*
G36*
X3637Y3188D02*
X3627Y3186D01*
X3619Y3180D01*
X3614Y3172D01*
X3612Y3162D01*
X3614Y3152D01*
X3619Y3144D01*
X3627Y3139D01*
X3637Y3137D01*
X3647Y3139D01*
X3655Y3144D01*
X3661Y3152D01*
X3663Y3162D01*
X3661Y3172D01*
X3655Y3180D01*
X3647Y3186D01*
X3637Y3188D01*
D02*
G37*
G36*
X4676Y3142D02*
X4666Y3140D01*
X4658Y3135D01*
X4652Y3126D01*
X4650Y3117D01*
X4652Y3107D01*
X4658Y3098D01*
X4666Y3093D01*
X4676Y3091D01*
X4686Y3093D01*
X4694Y3098D01*
X4700Y3107D01*
X4702Y3117D01*
X4700Y3126D01*
X4694Y3135D01*
X4686Y3140D01*
X4676Y3142D01*
D02*
G37*
G36*
X4768Y3150D02*
X4758Y3148D01*
X4749Y3142D01*
X4744Y3134D01*
X4742Y3124D01*
X4744Y3114D01*
X4749Y3106D01*
X4758Y3100D01*
X4768Y3099D01*
X4777Y3100D01*
X4786Y3106D01*
X4791Y3114D01*
X4793Y3124D01*
X4791Y3134D01*
X4786Y3142D01*
X4777Y3148D01*
X4768Y3150D01*
D02*
G37*
G36*
X3175Y3185D02*
X3165Y3183D01*
X3157Y3178D01*
X3151Y3170D01*
X3149Y3160D01*
X3151Y3150D01*
X3157Y3142D01*
X3165Y3136D01*
X3175Y3134D01*
X3185Y3136D01*
X3193Y3142D01*
X3199Y3150D01*
X3201Y3160D01*
X3199Y3170D01*
X3193Y3178D01*
X3185Y3183D01*
X3175Y3185D01*
D02*
G37*
G36*
X3228Y3061D02*
X3219Y3059D01*
X3210Y3053D01*
X3208Y3051D01*
X3202Y3046D01*
X3192Y3047D01*
X3190Y3049D01*
X3180Y3051D01*
X3170Y3049D01*
X3162Y3043D01*
X3156Y3035D01*
X3154Y3025D01*
X3156Y3015D01*
X3162Y3007D01*
X3170Y3001D01*
X3180Y2999D01*
X3190Y3001D01*
X3198Y3007D01*
X3200Y3010D01*
X3207Y3015D01*
X3216Y3013D01*
X3219Y3012D01*
X3228Y3010D01*
X3238Y3012D01*
X3246Y3017D01*
X3252Y3025D01*
X3254Y3035D01*
X3252Y3045D01*
X3246Y3053D01*
X3238Y3059D01*
X3228Y3061D01*
D02*
G37*
G36*
X2791Y3149D02*
X2759Y3145D01*
X2728Y3132D01*
X2702Y3112D01*
X2682Y3086D01*
X2669Y3055D01*
X2665Y3023D01*
X2669Y2990D01*
X2682Y2959D01*
X2702Y2933D01*
X2728Y2913D01*
X2759Y2900D01*
X2791Y2896D01*
X2824Y2900D01*
X2855Y2913D01*
X2881Y2933D01*
X2901Y2959D01*
X2914Y2990D01*
X2918Y3023D01*
X2914Y3055D01*
X2901Y3086D01*
X2881Y3112D01*
X2855Y3132D01*
X2824Y3145D01*
X2791Y3149D01*
D02*
G37*
G36*
X4547Y2970D02*
X4538Y2968D01*
X4529Y2962D01*
X4524Y2954D01*
X4522Y2944D01*
X4524Y2934D01*
X4529Y2926D01*
X4538Y2920D01*
X4547Y2918D01*
X4557Y2920D01*
X4566Y2926D01*
X4571Y2934D01*
X4573Y2944D01*
X4571Y2954D01*
X4566Y2962D01*
X4557Y2968D01*
X4547Y2970D01*
D02*
G37*
G36*
X3538Y2975D02*
X3528Y2973D01*
X3520Y2967D01*
X3515Y2959D01*
X3513Y2949D01*
X3515Y2939D01*
X3520Y2931D01*
X3528Y2925D01*
X3538Y2923D01*
X3548Y2925D01*
X3556Y2931D01*
X3562Y2939D01*
X3564Y2949D01*
X3562Y2959D01*
X3556Y2967D01*
X3548Y2973D01*
X3538Y2975D01*
D02*
G37*
G36*
X3774Y2921D02*
X3765Y2919D01*
X3756Y2914D01*
X3751Y2905D01*
X3749Y2896D01*
X3751Y2886D01*
X3756Y2877D01*
X3765Y2872D01*
X3774Y2870D01*
X3784Y2872D01*
X3793Y2877D01*
X3798Y2886D01*
X3800Y2896D01*
X3798Y2905D01*
X3793Y2914D01*
X3784Y2919D01*
X3774Y2921D01*
D02*
G37*
G36*
X3269Y2914D02*
X3259Y2912D01*
X3251Y2906D01*
X3245Y2898D01*
X3243Y2888D01*
X3245Y2878D01*
X3251Y2870D01*
X3259Y2864D01*
X3269Y2862D01*
X3279Y2864D01*
X3287Y2870D01*
X3293Y2878D01*
X3295Y2888D01*
X3293Y2898D01*
X3287Y2906D01*
X3279Y2912D01*
X3269Y2914D01*
D02*
G37*
G36*
X4684Y2901D02*
X4651D01*
Y2868D01*
X4684D01*
Y2901D01*
D02*
G37*
G36*
X4742D02*
X4709D01*
Y2868D01*
X4742D01*
Y2901D01*
D02*
G37*
G36*
X4684Y2959D02*
X4651D01*
Y2926D01*
X4684D01*
Y2959D01*
D02*
G37*
G36*
X4224Y3015D02*
X4214Y3013D01*
X4206Y3008D01*
X4200Y2999D01*
X4199Y2994D01*
X4190Y2992D01*
X4186Y2993D01*
X4181Y3000D01*
X4173Y3006D01*
X4163Y3008D01*
X4153Y3006D01*
X4145Y3000D01*
X4139Y2992D01*
X4137Y2982D01*
X4139Y2972D01*
X4145Y2964D01*
X4153Y2958D01*
X4163Y2956D01*
X4173Y2958D01*
X4181Y2964D01*
X4187Y2972D01*
X4188Y2977D01*
X4197Y2979D01*
X4201Y2979D01*
X4206Y2971D01*
X4214Y2966D01*
X4224Y2964D01*
X4234Y2966D01*
X4242Y2971D01*
X4248Y2980D01*
X4250Y2990D01*
X4248Y2999D01*
X4242Y3008D01*
X4234Y3013D01*
X4224Y3015D01*
D02*
G37*
G36*
X3388Y3048D02*
X3379Y3046D01*
X3370Y3041D01*
X3365Y3032D01*
X3363Y3023D01*
X3365Y3013D01*
X3370Y3004D01*
X3379Y2999D01*
X3388Y2997D01*
X3398Y2999D01*
X3406Y3004D01*
X3412Y3013D01*
X3414Y3023D01*
X3412Y3032D01*
X3406Y3041D01*
X3398Y3046D01*
X3388Y3048D01*
D02*
G37*
G36*
X3495Y3061D02*
X3485Y3059D01*
X3477Y3053D01*
X3471Y3045D01*
X3469Y3035D01*
X3471Y3025D01*
X3477Y3017D01*
X3485Y3012D01*
X3495Y3010D01*
X3505Y3012D01*
X3513Y3017D01*
X3519Y3025D01*
X3521Y3035D01*
X3519Y3045D01*
X3513Y3053D01*
X3505Y3059D01*
X3495Y3061D01*
D02*
G37*
G36*
X3838Y3038D02*
X3828Y3036D01*
X3820Y3031D01*
X3814Y3022D01*
X3812Y3012D01*
X3814Y3003D01*
X3820Y2994D01*
X3828Y2989D01*
X3838Y2987D01*
X3848Y2989D01*
X3856Y2994D01*
X3862Y3003D01*
X3864Y3012D01*
X3862Y3022D01*
X3856Y3031D01*
X3848Y3036D01*
X3838Y3038D01*
D02*
G37*
G36*
X5349Y3175D02*
X4910D01*
X4907Y3172D01*
X4905Y3109D01*
X4892Y3099D01*
X4882Y3097D01*
X4874Y3092D01*
X4868Y3083D01*
X4866Y3073D01*
X4868Y3064D01*
X4874Y3055D01*
X4882Y3050D01*
X4892Y3048D01*
X4901Y3037D01*
X4898Y2946D01*
X5351D01*
X5352Y2946D01*
X5354Y2944D01*
X5362Y2951D01*
X5362Y2954D01*
Y3160D01*
X5349Y3172D01*
Y3175D01*
D02*
G37*
G36*
X4460Y2997D02*
X4450Y2995D01*
X4442Y2990D01*
X4437Y2982D01*
X4435Y2972D01*
X4437Y2962D01*
X4442Y2954D01*
X4450Y2948D01*
X4460Y2946D01*
X4470Y2948D01*
X4478Y2954D01*
X4484Y2962D01*
X4486Y2972D01*
X4484Y2982D01*
X4478Y2990D01*
X4470Y2995D01*
X4460Y2997D01*
D02*
G37*
G36*
X4778Y2972D02*
X4768Y2970D01*
X4760Y2965D01*
X4755Y2957D01*
X4750Y2957D01*
X4742Y2959D01*
Y2959D01*
X4709D01*
Y2926D01*
X4742D01*
Y2927D01*
X4744Y2928D01*
X4760Y2928D01*
X4768Y2923D01*
X4778Y2921D01*
X4788Y2923D01*
X4796Y2928D01*
X4801Y2937D01*
X4803Y2946D01*
X4801Y2956D01*
X4796Y2965D01*
X4788Y2970D01*
X4778Y2972D01*
D02*
G37*
G36*
X5387Y3264D02*
X5378Y3262D01*
X5369Y3257D01*
X5364Y3248D01*
X5362Y3238D01*
X5364Y3229D01*
X5369Y3220D01*
X5378Y3215D01*
X5387Y3213D01*
X5397Y3215D01*
X5405Y3220D01*
X5411Y3229D01*
X5413Y3238D01*
X5411Y3248D01*
X5405Y3257D01*
X5397Y3262D01*
X5387Y3264D01*
D02*
G37*
G36*
X4493Y3386D02*
X4483Y3384D01*
X4475Y3379D01*
X4470Y3370D01*
X4468Y3360D01*
X4470Y3351D01*
X4475Y3342D01*
X4483Y3337D01*
X4493Y3335D01*
X4503Y3337D01*
X4511Y3342D01*
X4517Y3351D01*
X4519Y3360D01*
X4517Y3370D01*
X4511Y3379D01*
X4503Y3384D01*
X4493Y3386D01*
D02*
G37*
G36*
X5646Y3371D02*
X5637Y3369D01*
X5628Y3363D01*
X5623Y3355D01*
X5621Y3345D01*
X5622Y3341D01*
X5610Y3336D01*
X5607Y3340D01*
X5595Y3348D01*
X5580Y3351D01*
X5566Y3348D01*
X5553Y3340D01*
X5545Y3327D01*
X5542Y3313D01*
X5545Y3298D01*
X5553Y3286D01*
X5566Y3277D01*
X5580Y3275D01*
X5595Y3277D01*
X5607Y3286D01*
X5616Y3298D01*
X5618Y3313D01*
X5617Y3322D01*
X5627Y3327D01*
X5629Y3327D01*
X5637Y3321D01*
X5646Y3320D01*
X5656Y3321D01*
X5665Y3327D01*
X5670Y3335D01*
X5672Y3345D01*
X5670Y3355D01*
X5665Y3363D01*
X5656Y3369D01*
X5646Y3371D01*
D02*
G37*
G36*
X4803Y3396D02*
X4793Y3394D01*
X4785Y3388D01*
X4779Y3380D01*
X4777Y3370D01*
X4779Y3360D01*
X4785Y3352D01*
X4793Y3346D01*
X4803Y3344D01*
X4813Y3346D01*
X4821Y3352D01*
X4827Y3360D01*
X4829Y3370D01*
X4827Y3380D01*
X4821Y3388D01*
X4813Y3394D01*
X4803Y3396D01*
D02*
G37*
G36*
X4016Y3378D02*
X4006Y3376D01*
X3998Y3371D01*
X3992Y3363D01*
X3990Y3353D01*
X3992Y3343D01*
X3998Y3335D01*
X4006Y3329D01*
X4016Y3327D01*
X4026Y3329D01*
X4034Y3335D01*
X4039Y3343D01*
X4041Y3353D01*
X4039Y3363D01*
X4034Y3371D01*
X4026Y3376D01*
X4016Y3378D01*
D02*
G37*
G36*
X2926Y3373D02*
X2916Y3371D01*
X2908Y3366D01*
X2902Y3358D01*
X2900Y3348D01*
X2902Y3338D01*
X2908Y3330D01*
X2916Y3324D01*
X2926Y3322D01*
X2936Y3324D01*
X2944Y3330D01*
X2950Y3338D01*
X2952Y3348D01*
X2950Y3358D01*
X2944Y3366D01*
X2936Y3371D01*
X2926Y3373D01*
D02*
G37*
G36*
X3533Y3378D02*
X3523Y3376D01*
X3515Y3371D01*
X3509Y3363D01*
X3507Y3353D01*
X3509Y3343D01*
X3515Y3335D01*
X3523Y3329D01*
X3533Y3327D01*
X3543Y3329D01*
X3551Y3335D01*
X3557Y3343D01*
X3559Y3353D01*
X3557Y3363D01*
X3551Y3371D01*
X3543Y3376D01*
X3533Y3378D01*
D02*
G37*
G36*
X3597D02*
X3587Y3376D01*
X3579Y3371D01*
X3573Y3363D01*
X3571Y3353D01*
X3573Y3343D01*
X3579Y3335D01*
X3587Y3329D01*
X3597Y3327D01*
X3606Y3329D01*
X3615Y3335D01*
X3620Y3343D01*
X3622Y3353D01*
X3620Y3363D01*
X3615Y3371D01*
X3606Y3376D01*
X3597Y3378D01*
D02*
G37*
G36*
X3901Y3404D02*
X3892Y3402D01*
X3883Y3396D01*
X3878Y3388D01*
X3876Y3378D01*
X3878Y3368D01*
X3883Y3360D01*
X3892Y3354D01*
X3901Y3353D01*
X3911Y3354D01*
X3920Y3360D01*
X3925Y3368D01*
X3927Y3378D01*
X3925Y3388D01*
X3920Y3396D01*
X3911Y3402D01*
X3901Y3404D01*
D02*
G37*
G36*
X4397Y3429D02*
X4387Y3427D01*
X4379Y3422D01*
X4373Y3413D01*
X4371Y3404D01*
X4373Y3394D01*
X4379Y3385D01*
X4387Y3380D01*
X4397Y3378D01*
X4407Y3380D01*
X4415Y3385D01*
X4420Y3394D01*
X4422Y3404D01*
X4420Y3413D01*
X4415Y3422D01*
X4407Y3427D01*
X4397Y3429D01*
D02*
G37*
G36*
X5806D02*
X5797Y3427D01*
X5788Y3422D01*
X5783Y3413D01*
X5781Y3404D01*
X5783Y3394D01*
X5788Y3385D01*
X5797Y3380D01*
X5806Y3378D01*
X5816Y3380D01*
X5825Y3385D01*
X5830Y3394D01*
X5832Y3404D01*
X5830Y3413D01*
X5825Y3422D01*
X5816Y3427D01*
X5806Y3429D01*
D02*
G37*
G36*
X2708Y3442D02*
X2698Y3440D01*
X2690Y3434D01*
X2684Y3426D01*
X2682Y3416D01*
X2684Y3406D01*
X2690Y3398D01*
X2698Y3393D01*
X2708Y3391D01*
X2717Y3393D01*
X2726Y3398D01*
X2731Y3406D01*
X2733Y3416D01*
X2731Y3426D01*
X2726Y3434D01*
X2717Y3440D01*
X2708Y3442D01*
D02*
G37*
G36*
X4729Y3424D02*
X4720Y3422D01*
X4711Y3417D01*
X4706Y3408D01*
X4704Y3399D01*
X4706Y3389D01*
X4711Y3380D01*
X4720Y3375D01*
X4729Y3373D01*
X4739Y3375D01*
X4748Y3380D01*
X4753Y3389D01*
X4755Y3399D01*
X4753Y3408D01*
X4748Y3417D01*
X4739Y3422D01*
X4729Y3424D01*
D02*
G37*
G36*
X2784Y3417D02*
X2774Y3415D01*
X2766Y3409D01*
X2760Y3401D01*
X2758Y3391D01*
X2760Y3381D01*
X2766Y3373D01*
X2774Y3367D01*
X2784Y3365D01*
X2794Y3367D01*
X2802Y3373D01*
X2808Y3381D01*
X2809Y3391D01*
X2808Y3401D01*
X2802Y3409D01*
X2794Y3415D01*
X2784Y3417D01*
D02*
G37*
G36*
X3178D02*
X3168Y3415D01*
X3159Y3409D01*
X3154Y3401D01*
X3152Y3391D01*
X3154Y3381D01*
X3159Y3373D01*
X3168Y3367D01*
X3178Y3365D01*
X3187Y3367D01*
X3196Y3373D01*
X3201Y3381D01*
X3203Y3391D01*
X3201Y3401D01*
X3196Y3409D01*
X3187Y3415D01*
X3178Y3417D01*
D02*
G37*
G36*
X4600D02*
X4590Y3415D01*
X4582Y3409D01*
X4576Y3401D01*
X4574Y3391D01*
X4576Y3381D01*
X4582Y3373D01*
X4590Y3367D01*
X4600Y3365D01*
X4610Y3367D01*
X4618Y3373D01*
X4624Y3381D01*
X4626Y3391D01*
X4624Y3401D01*
X4618Y3409D01*
X4610Y3415D01*
X4600Y3417D01*
D02*
G37*
G36*
X3846Y3366D02*
X3836Y3364D01*
X3827Y3358D01*
X3822Y3350D01*
X3820Y3340D01*
X3822Y3330D01*
X3827Y3322D01*
X3836Y3316D01*
X3846Y3314D01*
X3855Y3316D01*
X3864Y3322D01*
X3869Y3330D01*
X3871Y3340D01*
X3869Y3350D01*
X3864Y3358D01*
X3855Y3364D01*
X3846Y3366D01*
D02*
G37*
G36*
X4994Y3302D02*
X4984Y3300D01*
X4976Y3295D01*
X4970Y3286D01*
X4968Y3277D01*
X4970Y3267D01*
X4976Y3258D01*
X4984Y3253D01*
X4994Y3251D01*
X5003Y3253D01*
X5012Y3258D01*
X5017Y3267D01*
X5019Y3277D01*
X5017Y3286D01*
X5012Y3295D01*
X5003Y3300D01*
X4994Y3302D01*
D02*
G37*
G36*
X5146D02*
X5136Y3300D01*
X5128Y3295D01*
X5122Y3286D01*
X5120Y3277D01*
X5122Y3267D01*
X5128Y3258D01*
X5136Y3253D01*
X5146Y3251D01*
X5156Y3253D01*
X5164Y3258D01*
X5170Y3267D01*
X5172Y3277D01*
X5170Y3286D01*
X5164Y3295D01*
X5156Y3300D01*
X5146Y3302D01*
D02*
G37*
G36*
X3393Y3315D02*
X3384Y3313D01*
X3375Y3307D01*
X3370Y3299D01*
X3368Y3289D01*
X3370Y3279D01*
X3375Y3271D01*
X3384Y3266D01*
X3393Y3264D01*
X3403Y3266D01*
X3412Y3271D01*
X3417Y3279D01*
X3419Y3289D01*
X3417Y3299D01*
X3412Y3307D01*
X3403Y3313D01*
X3393Y3315D01*
D02*
G37*
G36*
X3091Y3302D02*
X3081Y3300D01*
X3073Y3295D01*
X3067Y3286D01*
X3066Y3277D01*
X3067Y3267D01*
X3073Y3258D01*
X3081Y3253D01*
X3091Y3251D01*
X3101Y3253D01*
X3109Y3258D01*
X3115Y3267D01*
X3117Y3277D01*
X3115Y3286D01*
X3109Y3295D01*
X3101Y3300D01*
X3091Y3302D01*
D02*
G37*
G36*
X3023Y3268D02*
X3013Y3266D01*
X3005Y3261D01*
X3000Y3252D01*
X2998Y3243D01*
X3000Y3233D01*
X3005Y3225D01*
X3013Y3219D01*
X3023Y3217D01*
X3033Y3219D01*
X3041Y3225D01*
X3047Y3233D01*
X3049Y3243D01*
X3047Y3252D01*
X3041Y3261D01*
X3033Y3266D01*
X3023Y3268D01*
D02*
G37*
G36*
X3734Y3274D02*
X3724Y3272D01*
X3716Y3267D01*
X3710Y3258D01*
X3708Y3249D01*
X3710Y3239D01*
X3716Y3231D01*
X3724Y3225D01*
X3734Y3223D01*
X3744Y3225D01*
X3752Y3231D01*
X3758Y3239D01*
X3759Y3249D01*
X3758Y3258D01*
X3752Y3267D01*
X3744Y3272D01*
X3734Y3274D01*
D02*
G37*
G36*
X4793Y3277D02*
X4783Y3275D01*
X4775Y3269D01*
X4769Y3261D01*
X4767Y3251D01*
X4769Y3241D01*
X4775Y3233D01*
X4783Y3228D01*
X4793Y3226D01*
X4803Y3228D01*
X4811Y3233D01*
X4817Y3241D01*
X4819Y3251D01*
X4817Y3261D01*
X4811Y3269D01*
X4803Y3275D01*
X4793Y3277D01*
D02*
G37*
G36*
X3965Y3315D02*
X3955Y3313D01*
X3947Y3307D01*
X3941Y3299D01*
X3939Y3289D01*
X3941Y3279D01*
X3947Y3271D01*
X3955Y3266D01*
X3965Y3264D01*
X3975Y3266D01*
X3983Y3271D01*
X3989Y3279D01*
X3991Y3289D01*
X3989Y3299D01*
X3983Y3307D01*
X3975Y3313D01*
X3965Y3315D01*
D02*
G37*
G36*
X5095Y3340D02*
X5085Y3338D01*
X5077Y3333D01*
X5072Y3325D01*
X5070Y3315D01*
X5072Y3305D01*
X5077Y3297D01*
X5085Y3291D01*
X5095Y3289D01*
X5105Y3291D01*
X5113Y3297D01*
X5119Y3305D01*
X5121Y3315D01*
X5119Y3325D01*
X5113Y3333D01*
X5105Y3338D01*
X5095Y3340D01*
D02*
G37*
G36*
X5387D02*
X5378Y3338D01*
X5369Y3333D01*
X5364Y3325D01*
X5362Y3315D01*
X5364Y3305D01*
X5369Y3297D01*
X5378Y3291D01*
X5387Y3289D01*
X5397Y3291D01*
X5405Y3297D01*
X5411Y3305D01*
X5413Y3315D01*
X5411Y3325D01*
X5405Y3333D01*
X5397Y3338D01*
X5387Y3340D01*
D02*
G37*
G36*
X3736Y3366D02*
X3727Y3364D01*
X3718Y3358D01*
X3713Y3350D01*
X3711Y3340D01*
X3713Y3330D01*
X3718Y3322D01*
X3727Y3316D01*
X3736Y3314D01*
X3746Y3316D01*
X3754Y3322D01*
X3760Y3330D01*
X3762Y3340D01*
X3760Y3350D01*
X3754Y3358D01*
X3746Y3364D01*
X3736Y3366D01*
D02*
G37*
G36*
X4625Y3328D02*
X4616Y3326D01*
X4607Y3320D01*
X4602Y3312D01*
X4600Y3302D01*
X4602Y3292D01*
X4607Y3284D01*
X4616Y3278D01*
X4625Y3276D01*
X4635Y3278D01*
X4643Y3284D01*
X4649Y3292D01*
X4651Y3302D01*
X4649Y3312D01*
X4643Y3320D01*
X4635Y3326D01*
X4625Y3328D01*
D02*
G37*
G36*
X4275Y3282D02*
X4265Y3280D01*
X4257Y3274D01*
X4253Y3269D01*
X4243Y3267D01*
X4238Y3267D01*
X4237Y3269D01*
X4229Y3275D01*
X4219Y3277D01*
X4209Y3275D01*
X4201Y3269D01*
X4195Y3261D01*
X4193Y3251D01*
X4195Y3241D01*
X4201Y3233D01*
X4209Y3228D01*
X4219Y3226D01*
X4229Y3228D01*
X4237Y3233D01*
X4241Y3239D01*
X4251Y3241D01*
X4255Y3240D01*
X4257Y3238D01*
X4265Y3233D01*
X4275Y3231D01*
X4285Y3233D01*
X4293Y3238D01*
X4299Y3246D01*
X4300Y3256D01*
X4299Y3266D01*
X4293Y3274D01*
X4285Y3280D01*
X4275Y3282D01*
D02*
G37*
G36*
X4067Y3323D02*
X4057Y3321D01*
X4048Y3315D01*
X4043Y3307D01*
X4041Y3297D01*
X4043Y3287D01*
X4048Y3279D01*
X4057Y3273D01*
X4067Y3271D01*
X4076Y3273D01*
X4085Y3279D01*
X4090Y3287D01*
X4092Y3297D01*
X4090Y3307D01*
X4085Y3315D01*
X4076Y3321D01*
X4067Y3323D01*
D02*
G37*
G36*
X3495Y3328D02*
X3485Y3326D01*
X3477Y3320D01*
X3471Y3312D01*
X3469Y3302D01*
X3471Y3292D01*
X3477Y3284D01*
X3485Y3278D01*
X3495Y3276D01*
X3505Y3278D01*
X3513Y3284D01*
X3519Y3292D01*
X3521Y3302D01*
X3519Y3312D01*
X3513Y3320D01*
X3505Y3326D01*
X3495Y3328D01*
D02*
G37*
G36*
X3800Y4344D02*
X3790Y4342D01*
X3782Y4336D01*
X3776Y4328D01*
X3774Y4318D01*
X3776Y4308D01*
X3782Y4300D01*
X3790Y4294D01*
X3800Y4292D01*
X3810Y4294D01*
X3818Y4300D01*
X3824Y4308D01*
X3825Y4318D01*
X3824Y4328D01*
X3818Y4336D01*
X3810Y4342D01*
X3800Y4344D01*
D02*
G37*
G36*
X5210Y5410D02*
X5200Y5408D01*
X5191Y5403D01*
X5186Y5395D01*
X5184Y5385D01*
X5186Y5375D01*
X5191Y5367D01*
X5200Y5361D01*
X5210Y5359D01*
X5219Y5361D01*
X5228Y5367D01*
X5233Y5375D01*
X5235Y5385D01*
X5233Y5395D01*
X5228Y5403D01*
X5219Y5408D01*
X5210Y5410D01*
D02*
G37*
G36*
X3749Y5423D02*
X3739Y5421D01*
X3731Y5416D01*
X3725Y5407D01*
X3723Y5397D01*
X3725Y5388D01*
X3731Y5379D01*
X3739Y5374D01*
X3749Y5372D01*
X3759Y5374D01*
X3767Y5379D01*
X3773Y5388D01*
X3775Y5397D01*
X3773Y5407D01*
X3767Y5416D01*
X3759Y5421D01*
X3749Y5423D01*
D02*
G37*
G36*
X5527Y5436D02*
X5517Y5434D01*
X5509Y5428D01*
X5503Y5420D01*
X5501Y5410D01*
X5503Y5400D01*
X5509Y5392D01*
X5517Y5387D01*
X5527Y5385D01*
X5537Y5387D01*
X5545Y5392D01*
X5551Y5400D01*
X5553Y5410D01*
X5551Y5420D01*
X5545Y5428D01*
X5537Y5434D01*
X5527Y5436D01*
D02*
G37*
G36*
X5090Y5403D02*
X5080Y5401D01*
X5072Y5395D01*
X5066Y5387D01*
X5065Y5377D01*
X5066Y5367D01*
X5072Y5359D01*
X5080Y5353D01*
X5090Y5352D01*
X5100Y5353D01*
X5108Y5359D01*
X5114Y5367D01*
X5116Y5377D01*
X5114Y5387D01*
X5108Y5395D01*
X5100Y5401D01*
X5090Y5403D01*
D02*
G37*
G36*
X2949Y5329D02*
X2916D01*
Y5296D01*
X2949D01*
Y5329D01*
D02*
G37*
G36*
X3899Y5349D02*
X3889Y5348D01*
X3881Y5342D01*
X3875Y5334D01*
X3873Y5324D01*
X3875Y5314D01*
X3881Y5306D01*
X3889Y5300D01*
X3899Y5298D01*
X3909Y5300D01*
X3917Y5306D01*
X3923Y5314D01*
X3925Y5324D01*
X3923Y5334D01*
X3917Y5342D01*
X3909Y5348D01*
X3899Y5349D01*
D02*
G37*
G36*
X5527Y5360D02*
X5517Y5358D01*
X5509Y5352D01*
X5503Y5344D01*
X5501Y5334D01*
X5503Y5324D01*
X5509Y5316D01*
X5517Y5310D01*
X5527Y5308D01*
X5537Y5310D01*
X5545Y5316D01*
X5551Y5324D01*
X5553Y5334D01*
X5551Y5344D01*
X5545Y5352D01*
X5537Y5358D01*
X5527Y5360D01*
D02*
G37*
G36*
X5451Y5449D02*
X5441Y5447D01*
X5433Y5441D01*
X5427Y5433D01*
X5425Y5423D01*
X5427Y5413D01*
X5433Y5405D01*
X5441Y5399D01*
X5451Y5397D01*
X5461Y5399D01*
X5469Y5405D01*
X5475Y5413D01*
X5476Y5423D01*
X5475Y5433D01*
X5469Y5441D01*
X5461Y5447D01*
X5451Y5449D01*
D02*
G37*
G36*
X3406Y5550D02*
X3396Y5548D01*
X3388Y5543D01*
X3382Y5534D01*
X3380Y5524D01*
X3382Y5515D01*
X3388Y5506D01*
X3396Y5501D01*
X3406Y5499D01*
X3416Y5501D01*
X3424Y5506D01*
X3430Y5515D01*
X3432Y5524D01*
X3430Y5534D01*
X3424Y5543D01*
X3416Y5548D01*
X3406Y5550D01*
D02*
G37*
G36*
X4702D02*
X4692Y5548D01*
X4683Y5543D01*
X4678Y5534D01*
X4676Y5524D01*
X4678Y5515D01*
X4683Y5506D01*
X4692Y5501D01*
X4702Y5499D01*
X4711Y5501D01*
X4720Y5506D01*
X4725Y5515D01*
X4727Y5524D01*
X4725Y5534D01*
X4720Y5543D01*
X4711Y5548D01*
X4702Y5550D01*
D02*
G37*
G36*
X5177Y5603D02*
X5167Y5602D01*
X5158Y5596D01*
X5153Y5588D01*
X5151Y5578D01*
X5153Y5568D01*
X5158Y5560D01*
X5167Y5554D01*
X5177Y5552D01*
X5185Y5554D01*
X5192Y5544D01*
X5191Y5543D01*
X5190Y5541D01*
X5186Y5534D01*
X5184Y5524D01*
X5186Y5515D01*
X5191Y5506D01*
X5200Y5501D01*
X5210Y5499D01*
X5219Y5501D01*
X5228Y5506D01*
X5233Y5515D01*
X5243Y5522D01*
X5248Y5522D01*
X5278D01*
Y5558D01*
X5243D01*
Y5543D01*
X5230Y5539D01*
X5228Y5543D01*
X5219Y5548D01*
X5210Y5550D01*
X5201Y5548D01*
X5194Y5559D01*
X5195Y5560D01*
X5196Y5562D01*
X5200Y5568D01*
X5202Y5578D01*
X5200Y5588D01*
X5195Y5596D01*
X5186Y5602D01*
X5177Y5603D01*
D02*
G37*
G36*
X5667Y5474D02*
X5657Y5472D01*
X5649Y5466D01*
X5643Y5458D01*
X5641Y5448D01*
X5643Y5438D01*
X5649Y5430D01*
X5657Y5425D01*
X5667Y5423D01*
X5677Y5425D01*
X5685Y5430D01*
X5690Y5438D01*
X5692Y5448D01*
X5690Y5458D01*
X5685Y5466D01*
X5677Y5472D01*
X5667Y5474D01*
D02*
G37*
G36*
X4171Y5471D02*
X4161Y5469D01*
X4153Y5464D01*
X4147Y5456D01*
X4145Y5446D01*
X4147Y5436D01*
X4153Y5428D01*
X4161Y5422D01*
X4171Y5420D01*
X4180Y5422D01*
X4189Y5428D01*
X4194Y5436D01*
X4196Y5446D01*
X4194Y5456D01*
X4189Y5464D01*
X4180Y5469D01*
X4171Y5471D01*
D02*
G37*
G36*
X4928Y5474D02*
X4918Y5472D01*
X4909Y5466D01*
X4904Y5458D01*
X4902Y5448D01*
X4904Y5438D01*
X4909Y5430D01*
X4918Y5425D01*
X4928Y5423D01*
X4937Y5425D01*
X4946Y5430D01*
X4951Y5438D01*
X4953Y5448D01*
X4951Y5458D01*
X4946Y5466D01*
X4937Y5472D01*
X4928Y5474D01*
D02*
G37*
G36*
X5032D02*
X5022Y5472D01*
X5014Y5466D01*
X5008Y5458D01*
X5006Y5448D01*
X5008Y5438D01*
X5014Y5430D01*
X5022Y5425D01*
X5032Y5423D01*
X5042Y5425D01*
X5050Y5430D01*
X5055Y5438D01*
X5057Y5448D01*
X5055Y5458D01*
X5050Y5466D01*
X5042Y5472D01*
X5032Y5474D01*
D02*
G37*
G36*
X2891Y5329D02*
X2858D01*
Y5296D01*
X2891D01*
Y5329D01*
D02*
G37*
G36*
X5248Y5233D02*
X5238Y5231D01*
X5230Y5225D01*
X5224Y5217D01*
X5222Y5207D01*
X5224Y5197D01*
X5230Y5189D01*
X5238Y5183D01*
X5248Y5181D01*
X5257Y5183D01*
X5266Y5189D01*
X5271Y5197D01*
X5273Y5207D01*
X5271Y5217D01*
X5266Y5225D01*
X5257Y5231D01*
X5248Y5233D01*
D02*
G37*
G36*
X3917Y5240D02*
X3907Y5238D01*
X3899Y5233D01*
X3893Y5224D01*
X3891Y5215D01*
X3893Y5205D01*
X3899Y5196D01*
X3907Y5191D01*
X3917Y5189D01*
X3926Y5191D01*
X3935Y5196D01*
X3940Y5205D01*
X3942Y5215D01*
X3940Y5224D01*
X3935Y5233D01*
X3926Y5238D01*
X3917Y5240D01*
D02*
G37*
G36*
X4417Y5286D02*
X4407Y5284D01*
X4399Y5278D01*
X4393Y5270D01*
X4391Y5260D01*
X4392Y5257D01*
X4385Y5246D01*
X4382Y5245D01*
X4374Y5243D01*
X4366Y5238D01*
X4360Y5230D01*
X4358Y5220D01*
X4360Y5210D01*
X4366Y5202D01*
X4374Y5196D01*
X4384Y5194D01*
X4394Y5196D01*
X4402Y5202D01*
X4408Y5210D01*
X4410Y5220D01*
X4409Y5223D01*
X4417Y5234D01*
X4419Y5235D01*
X4427Y5237D01*
X4435Y5242D01*
X4441Y5251D01*
X4443Y5260D01*
X4441Y5270D01*
X4435Y5278D01*
X4427Y5284D01*
X4417Y5286D01*
D02*
G37*
G36*
X4539Y5230D02*
X4529Y5228D01*
X4521Y5223D01*
X4515Y5214D01*
X4513Y5204D01*
X4515Y5195D01*
X4521Y5186D01*
X4529Y5181D01*
X4539Y5179D01*
X4549Y5181D01*
X4557Y5186D01*
X4563Y5195D01*
X4565Y5204D01*
X4563Y5214D01*
X4557Y5223D01*
X4549Y5228D01*
X4539Y5230D01*
D02*
G37*
G36*
X4308Y5182D02*
X4298Y5180D01*
X4290Y5174D01*
X4284Y5166D01*
X4282Y5156D01*
X4284Y5146D01*
X4290Y5138D01*
X4298Y5133D01*
X4308Y5131D01*
X4318Y5133D01*
X4326Y5138D01*
X4332Y5146D01*
X4333Y5156D01*
X4332Y5166D01*
X4326Y5174D01*
X4318Y5180D01*
X4308Y5182D01*
D02*
G37*
G36*
X5413D02*
X5403Y5180D01*
X5395Y5174D01*
X5389Y5166D01*
X5387Y5156D01*
X5389Y5146D01*
X5395Y5138D01*
X5403Y5133D01*
X5413Y5131D01*
X5423Y5133D01*
X5431Y5138D01*
X5436Y5146D01*
X5438Y5156D01*
X5436Y5166D01*
X5431Y5174D01*
X5423Y5180D01*
X5413Y5182D01*
D02*
G37*
G36*
X4854Y5195D02*
X4844Y5193D01*
X4836Y5187D01*
X4830Y5179D01*
X4828Y5169D01*
X4830Y5159D01*
X4836Y5151D01*
X4844Y5145D01*
X4854Y5143D01*
X4864Y5145D01*
X4872Y5151D01*
X4878Y5159D01*
X4880Y5169D01*
X4878Y5179D01*
X4872Y5187D01*
X4864Y5193D01*
X4854Y5195D01*
D02*
G37*
G36*
X5845Y5245D02*
X5835Y5243D01*
X5826Y5238D01*
X5821Y5230D01*
X5819Y5220D01*
X5821Y5210D01*
X5826Y5202D01*
X5835Y5196D01*
X5845Y5194D01*
X5854Y5196D01*
X5863Y5202D01*
X5868Y5210D01*
X5870Y5220D01*
X5868Y5230D01*
X5863Y5238D01*
X5854Y5243D01*
X5845Y5245D01*
D02*
G37*
G36*
X4549Y5296D02*
X4539Y5294D01*
X4531Y5289D01*
X4525Y5280D01*
X4523Y5271D01*
X4525Y5261D01*
X4531Y5252D01*
X4539Y5247D01*
X4549Y5245D01*
X4559Y5247D01*
X4567Y5252D01*
X4573Y5261D01*
X4575Y5271D01*
X4573Y5280D01*
X4567Y5289D01*
X4559Y5294D01*
X4549Y5296D01*
D02*
G37*
G36*
X5210D02*
X5200Y5294D01*
X5191Y5289D01*
X5186Y5280D01*
X5184Y5271D01*
X5186Y5261D01*
X5191Y5252D01*
X5200Y5247D01*
X5210Y5245D01*
X5219Y5247D01*
X5228Y5252D01*
X5233Y5261D01*
X5235Y5271D01*
X5233Y5280D01*
X5228Y5289D01*
X5219Y5294D01*
X5210Y5296D01*
D02*
G37*
G36*
X4625Y5309D02*
X4616Y5307D01*
X4607Y5301D01*
X4602Y5293D01*
X4600Y5283D01*
X4602Y5273D01*
X4607Y5265D01*
X4616Y5260D01*
X4625Y5258D01*
X4635Y5260D01*
X4643Y5265D01*
X4649Y5273D01*
X4651Y5283D01*
X4649Y5293D01*
X4643Y5301D01*
X4635Y5307D01*
X4625Y5309D01*
D02*
G37*
G36*
X2949Y5271D02*
X2916D01*
Y5237D01*
X2949D01*
Y5271D01*
D02*
G37*
G36*
X4778Y5271D02*
X4768Y5269D01*
X4760Y5263D01*
X4754Y5255D01*
X4752Y5245D01*
X4754Y5235D01*
X4760Y5227D01*
X4768Y5221D01*
X4778Y5219D01*
X4788Y5221D01*
X4796Y5227D01*
X4801Y5235D01*
X4803Y5245D01*
X4801Y5255D01*
X4796Y5263D01*
X4788Y5269D01*
X4778Y5271D01*
D02*
G37*
G36*
X3228Y5283D02*
X3219Y5281D01*
X3210Y5276D01*
X3205Y5268D01*
X3203Y5258D01*
X3205Y5248D01*
X3210Y5240D01*
X3219Y5234D01*
X3228Y5232D01*
X3238Y5234D01*
X3246Y5240D01*
X3252Y5248D01*
X3254Y5258D01*
X3252Y5268D01*
X3246Y5276D01*
X3238Y5281D01*
X3228Y5283D01*
D02*
G37*
G36*
X2891Y5271D02*
X2858D01*
Y5237D01*
X2891D01*
Y5271D01*
D02*
G37*
G36*
X2898Y5563D02*
X2888Y5561D01*
X2880Y5555D01*
X2874Y5547D01*
X2872Y5537D01*
X2874Y5527D01*
X2880Y5519D01*
X2888Y5513D01*
X2898Y5512D01*
X2908Y5513D01*
X2916Y5519D01*
X2922Y5527D01*
X2924Y5537D01*
X2922Y5547D01*
X2916Y5555D01*
X2908Y5561D01*
X2898Y5563D01*
D02*
G37*
G36*
X5044Y6007D02*
X5035Y6005D01*
X5026Y6000D01*
X5021Y5992D01*
X5019Y5982D01*
X5021Y5972D01*
X5026Y5964D01*
X5035Y5958D01*
X5044Y5956D01*
X5054Y5958D01*
X5063Y5964D01*
X5068Y5972D01*
X5070Y5982D01*
X5068Y5992D01*
X5063Y6000D01*
X5054Y6005D01*
X5044Y6007D01*
D02*
G37*
G36*
X4930Y6020D02*
X4920Y6018D01*
X4912Y6013D01*
X4906Y6004D01*
X4904Y5994D01*
X4906Y5985D01*
X4912Y5976D01*
X4920Y5971D01*
X4930Y5969D01*
X4940Y5971D01*
X4948Y5976D01*
X4954Y5985D01*
X4956Y5994D01*
X4954Y6004D01*
X4948Y6013D01*
X4940Y6018D01*
X4930Y6020D01*
D02*
G37*
G36*
X3825Y6033D02*
X3815Y6031D01*
X3807Y6025D01*
X3802Y6017D01*
X3800Y6007D01*
X3802Y5997D01*
X3807Y5989D01*
X3815Y5983D01*
X3825Y5981D01*
X3835Y5983D01*
X3843Y5989D01*
X3849Y5997D01*
X3851Y6007D01*
X3849Y6017D01*
X3843Y6025D01*
X3835Y6031D01*
X3825Y6033D01*
D02*
G37*
G36*
X5791Y6149D02*
X5758Y6145D01*
X5728Y6132D01*
X5702Y6112D01*
X5682Y6086D01*
X5669Y6055D01*
X5665Y6022D01*
X5669Y5990D01*
X5682Y5959D01*
X5702Y5933D01*
X5728Y5913D01*
X5758Y5900D01*
X5791Y5896D01*
X5824Y5900D01*
X5854Y5913D01*
X5881Y5933D01*
X5901Y5959D01*
X5913Y5990D01*
X5918Y6022D01*
X5913Y6055D01*
X5901Y6086D01*
X5881Y6112D01*
X5854Y6132D01*
X5824Y6145D01*
X5791Y6149D01*
D02*
G37*
G36*
X4600Y5931D02*
X4590Y5929D01*
X4582Y5924D01*
X4576Y5915D01*
X4574Y5906D01*
X4576Y5896D01*
X4582Y5887D01*
X4590Y5882D01*
X4600Y5880D01*
X4610Y5882D01*
X4618Y5887D01*
X4624Y5896D01*
X4626Y5906D01*
X4624Y5915D01*
X4618Y5924D01*
X4610Y5929D01*
X4600Y5931D01*
D02*
G37*
G36*
X4778D02*
X4768Y5929D01*
X4760Y5924D01*
X4754Y5915D01*
X4752Y5906D01*
X4754Y5896D01*
X4760Y5887D01*
X4768Y5882D01*
X4778Y5880D01*
X4788Y5882D01*
X4796Y5887D01*
X4801Y5896D01*
X4803Y5906D01*
X4801Y5915D01*
X4796Y5924D01*
X4788Y5929D01*
X4778Y5931D01*
D02*
G37*
G36*
X2791Y6149D02*
X2759Y6145D01*
X2728Y6132D01*
X2702Y6112D01*
X2682Y6086D01*
X2669Y6055D01*
X2665Y6022D01*
X2669Y5990D01*
X2682Y5959D01*
X2702Y5933D01*
X2728Y5913D01*
X2759Y5900D01*
X2791Y5896D01*
X2824Y5900D01*
X2855Y5913D01*
X2881Y5933D01*
X2901Y5959D01*
X2914Y5990D01*
X2918Y6022D01*
X2914Y6055D01*
X2901Y6086D01*
X2881Y6112D01*
X2855Y6132D01*
X2824Y6145D01*
X2791Y6149D01*
D02*
G37*
G36*
X3368Y6045D02*
X3358Y6044D01*
X3350Y6038D01*
X3344Y6030D01*
X3342Y6020D01*
X3344Y6010D01*
X3350Y6002D01*
X3358Y5996D01*
X3368Y5994D01*
X3378Y5996D01*
X3386Y6002D01*
X3392Y6010D01*
X3394Y6020D01*
X3392Y6030D01*
X3386Y6038D01*
X3378Y6044D01*
X3368Y6045D01*
D02*
G37*
G36*
X4638Y6147D02*
X4628Y6145D01*
X4620Y6140D01*
X4614Y6131D01*
X4612Y6121D01*
X4614Y6112D01*
X4620Y6103D01*
X4628Y6098D01*
X4638Y6096D01*
X4648Y6098D01*
X4656Y6103D01*
X4662Y6112D01*
X4664Y6121D01*
X4662Y6131D01*
X4656Y6140D01*
X4648Y6145D01*
X4638Y6147D01*
D02*
G37*
G36*
X5248D02*
X5238Y6145D01*
X5230Y6140D01*
X5224Y6131D01*
X5222Y6121D01*
X5224Y6112D01*
X5230Y6103D01*
X5238Y6098D01*
X5248Y6096D01*
X5257Y6098D01*
X5266Y6103D01*
X5271Y6112D01*
X5273Y6121D01*
X5271Y6131D01*
X5266Y6140D01*
X5257Y6145D01*
X5248Y6147D01*
D02*
G37*
G36*
X5413Y6160D02*
X5403Y6158D01*
X5395Y6152D01*
X5389Y6144D01*
X5387Y6134D01*
X5389Y6124D01*
X5395Y6116D01*
X5403Y6110D01*
X5413Y6108D01*
X5423Y6110D01*
X5431Y6116D01*
X5436Y6124D01*
X5438Y6134D01*
X5436Y6144D01*
X5431Y6152D01*
X5423Y6158D01*
X5413Y6160D01*
D02*
G37*
G36*
X4524Y6147D02*
X4514Y6145D01*
X4506Y6140D01*
X4500Y6131D01*
X4498Y6121D01*
X4500Y6112D01*
X4506Y6103D01*
X4514Y6098D01*
X4524Y6096D01*
X4534Y6098D01*
X4542Y6103D01*
X4547Y6112D01*
X4549Y6121D01*
X4547Y6131D01*
X4542Y6140D01*
X4534Y6145D01*
X4524Y6147D01*
D02*
G37*
G36*
X3940Y6109D02*
X3930Y6107D01*
X3921Y6101D01*
X3916Y6093D01*
X3914Y6083D01*
X3916Y6073D01*
X3921Y6065D01*
X3930Y6060D01*
X3940Y6058D01*
X3949Y6060D01*
X3958Y6065D01*
X3963Y6073D01*
X3965Y6083D01*
X3963Y6093D01*
X3958Y6101D01*
X3949Y6107D01*
X3940Y6109D01*
D02*
G37*
G36*
X4054D02*
X4044Y6107D01*
X4036Y6101D01*
X4030Y6093D01*
X4028Y6083D01*
X4030Y6073D01*
X4036Y6065D01*
X4044Y6060D01*
X4054Y6058D01*
X4064Y6060D01*
X4072Y6065D01*
X4078Y6073D01*
X4079Y6083D01*
X4078Y6093D01*
X4072Y6101D01*
X4064Y6107D01*
X4054Y6109D01*
D02*
G37*
G36*
X3813Y6134D02*
X3803Y6132D01*
X3794Y6127D01*
X3789Y6119D01*
X3787Y6109D01*
X3789Y6099D01*
X3794Y6091D01*
X3803Y6085D01*
X3813Y6083D01*
X3822Y6085D01*
X3831Y6091D01*
X3836Y6099D01*
X3838Y6109D01*
X3836Y6119D01*
X3831Y6127D01*
X3822Y6132D01*
X3813Y6134D01*
D02*
G37*
G36*
X4054Y5931D02*
X4044Y5929D01*
X4036Y5924D01*
X4030Y5915D01*
X4028Y5906D01*
X4030Y5896D01*
X4036Y5887D01*
X4044Y5882D01*
X4054Y5880D01*
X4064Y5882D01*
X4072Y5887D01*
X4078Y5896D01*
X4079Y5906D01*
X4078Y5915D01*
X4072Y5924D01*
X4064Y5929D01*
X4054Y5931D01*
D02*
G37*
G36*
X5420Y5618D02*
X5384D01*
Y5570D01*
Y5522D01*
X5420D01*
Y5563D01*
X5432Y5565D01*
X5438Y5557D01*
X5446Y5552D01*
X5456Y5550D01*
X5466Y5552D01*
X5474Y5557D01*
X5480Y5565D01*
X5482Y5575D01*
X5480Y5585D01*
X5474Y5593D01*
X5466Y5599D01*
X5456Y5601D01*
X5446Y5599D01*
X5438Y5593D01*
X5432Y5585D01*
X5420Y5587D01*
Y5618D01*
D02*
G37*
G36*
X2758Y5626D02*
X2749Y5624D01*
X2740Y5619D01*
X2735Y5611D01*
X2733Y5601D01*
X2735Y5591D01*
X2740Y5583D01*
X2749Y5577D01*
X2758Y5575D01*
X2768Y5577D01*
X2777Y5583D01*
X2782Y5591D01*
X2784Y5601D01*
X2782Y5611D01*
X2777Y5619D01*
X2768Y5624D01*
X2758Y5626D01*
D02*
G37*
G36*
X5278Y5618D02*
X5243D01*
Y5583D01*
X5278D01*
Y5618D01*
D02*
G37*
G36*
X3889Y5601D02*
X3879Y5599D01*
X3871Y5593D01*
X3865Y5585D01*
X3863Y5575D01*
X3865Y5565D01*
X3871Y5557D01*
X3879Y5552D01*
X3889Y5550D01*
X3899Y5552D01*
X3907Y5557D01*
X3912Y5565D01*
X3914Y5575D01*
X3912Y5585D01*
X3907Y5593D01*
X3899Y5599D01*
X3889Y5601D01*
D02*
G37*
G36*
X3757Y5570D02*
X3747Y5569D01*
X3739Y5563D01*
X3733Y5555D01*
X3731Y5545D01*
X3733Y5535D01*
X3739Y5527D01*
X3747Y5521D01*
X3757Y5519D01*
X3766Y5521D01*
X3775Y5527D01*
X3780Y5535D01*
X3782Y5545D01*
X3780Y5555D01*
X3775Y5563D01*
X3766Y5569D01*
X3757Y5570D01*
D02*
G37*
G36*
X5359Y5618D02*
X5304D01*
Y5570D01*
Y5522D01*
X5359D01*
Y5570D01*
Y5618D01*
D02*
G37*
G36*
X4191Y5583D02*
X4181Y5581D01*
X4173Y5576D01*
X4167Y5567D01*
X4165Y5558D01*
X4167Y5548D01*
X4173Y5539D01*
X4181Y5534D01*
X4191Y5532D01*
X4201Y5534D01*
X4209Y5539D01*
X4215Y5548D01*
X4217Y5558D01*
X4215Y5567D01*
X4209Y5576D01*
X4201Y5581D01*
X4191Y5583D01*
D02*
G37*
G36*
X5806Y5639D02*
X5797Y5637D01*
X5788Y5632D01*
X5783Y5623D01*
X5781Y5613D01*
X5783Y5604D01*
X5788Y5595D01*
X5797Y5590D01*
X5806Y5588D01*
X5816Y5590D01*
X5825Y5595D01*
X5830Y5604D01*
X5832Y5613D01*
X5830Y5623D01*
X5825Y5632D01*
X5816Y5637D01*
X5806Y5639D01*
D02*
G37*
G36*
X5232Y5804D02*
X5223Y5802D01*
X5214Y5797D01*
X5209Y5788D01*
X5207Y5778D01*
X5209Y5769D01*
X5214Y5760D01*
X5223Y5755D01*
X5232Y5753D01*
X5242Y5755D01*
X5251Y5760D01*
X5256Y5769D01*
X5258Y5778D01*
X5256Y5788D01*
X5251Y5797D01*
X5242Y5802D01*
X5232Y5804D01*
D02*
G37*
G36*
X5489Y5817D02*
X5479Y5815D01*
X5471Y5809D01*
X5465Y5801D01*
X5463Y5791D01*
X5465Y5781D01*
X5471Y5773D01*
X5479Y5767D01*
X5489Y5766D01*
X5499Y5767D01*
X5507Y5773D01*
X5513Y5781D01*
X5515Y5791D01*
X5513Y5801D01*
X5507Y5809D01*
X5499Y5815D01*
X5489Y5817D01*
D02*
G37*
G36*
X5380Y5924D02*
X5370Y5922D01*
X5362Y5916D01*
X5356Y5908D01*
X5354Y5898D01*
X5356Y5888D01*
X5362Y5880D01*
X5370Y5874D01*
X5380Y5872D01*
X5390Y5874D01*
X5398Y5880D01*
X5403Y5888D01*
X5405Y5898D01*
X5403Y5908D01*
X5398Y5916D01*
X5390Y5922D01*
X5380Y5924D01*
D02*
G37*
G36*
X3317Y5791D02*
X3307Y5790D01*
X3299Y5784D01*
X3294Y5776D01*
X3292Y5766D01*
X3294Y5756D01*
X3299Y5748D01*
X3307Y5742D01*
X3317Y5740D01*
X3327Y5742D01*
X3335Y5748D01*
X3341Y5756D01*
X3343Y5766D01*
X3341Y5776D01*
X3335Y5784D01*
X3327Y5790D01*
X3317Y5791D01*
D02*
G37*
G36*
X4232Y5677D02*
X4222Y5675D01*
X4214Y5670D01*
X4208Y5661D01*
X4206Y5651D01*
X4208Y5642D01*
X4214Y5633D01*
X4222Y5628D01*
X4232Y5626D01*
X4241Y5628D01*
X4250Y5633D01*
X4255Y5642D01*
X4257Y5651D01*
X4255Y5661D01*
X4250Y5670D01*
X4241Y5675D01*
X4232Y5677D01*
D02*
G37*
G36*
X3254Y5741D02*
X3244Y5739D01*
X3236Y5733D01*
X3230Y5725D01*
X3228Y5715D01*
X3230Y5705D01*
X3236Y5697D01*
X3244Y5691D01*
X3254Y5689D01*
X3264Y5691D01*
X3272Y5697D01*
X3277Y5705D01*
X3279Y5715D01*
X3277Y5725D01*
X3272Y5733D01*
X3264Y5739D01*
X3254Y5741D01*
D02*
G37*
G36*
X5489Y5753D02*
X5479Y5751D01*
X5471Y5746D01*
X5465Y5738D01*
X5463Y5728D01*
X5465Y5718D01*
X5471Y5710D01*
X5479Y5704D01*
X5489Y5702D01*
X5499Y5704D01*
X5507Y5710D01*
X5513Y5718D01*
X5515Y5728D01*
X5513Y5738D01*
X5507Y5746D01*
X5499Y5751D01*
X5489Y5753D01*
D02*
G37*
G36*
X5197Y4636D02*
X5187Y4634D01*
X5179Y4628D01*
X5173Y4620D01*
X5171Y4610D01*
X5173Y4600D01*
X5179Y4592D01*
X5187Y4586D01*
X5197Y4584D01*
X5207Y4586D01*
X5215Y4592D01*
X5221Y4600D01*
X5222Y4610D01*
X5221Y4620D01*
X5215Y4628D01*
X5207Y4634D01*
X5197Y4636D01*
D02*
G37*
G36*
X4844Y4646D02*
X4834Y4644D01*
X4826Y4638D01*
X4820Y4630D01*
X4818Y4620D01*
X4820Y4610D01*
X4826Y4602D01*
X4834Y4597D01*
X4844Y4595D01*
X4854Y4597D01*
X4862Y4602D01*
X4867Y4610D01*
X4869Y4620D01*
X4867Y4630D01*
X4862Y4638D01*
X4854Y4644D01*
X4844Y4646D01*
D02*
G37*
G36*
X4194Y4648D02*
X4184Y4647D01*
X4175Y4641D01*
X4170Y4633D01*
X4168Y4623D01*
X4170Y4613D01*
X4175Y4605D01*
X4184Y4599D01*
X4194Y4597D01*
X4203Y4599D01*
X4212Y4605D01*
X4217Y4613D01*
X4219Y4623D01*
X4217Y4633D01*
X4212Y4641D01*
X4203Y4647D01*
X4194Y4648D01*
D02*
G37*
G36*
X4049Y4636D02*
X4039Y4634D01*
X4031Y4628D01*
X4025Y4620D01*
X4023Y4610D01*
X4025Y4600D01*
X4031Y4592D01*
X4039Y4586D01*
X4049Y4584D01*
X4059Y4586D01*
X4067Y4592D01*
X4072Y4600D01*
X4074Y4610D01*
X4072Y4620D01*
X4067Y4628D01*
X4059Y4634D01*
X4049Y4636D01*
D02*
G37*
G36*
X5451Y4458D02*
X5441Y4456D01*
X5433Y4450D01*
X5427Y4442D01*
X5425Y4432D01*
X5427Y4422D01*
X5433Y4414D01*
X5441Y4409D01*
X5451Y4407D01*
X5461Y4409D01*
X5469Y4414D01*
X5475Y4422D01*
X5476Y4432D01*
X5475Y4442D01*
X5469Y4450D01*
X5461Y4456D01*
X5451Y4458D01*
D02*
G37*
G36*
X3838Y4471D02*
X3828Y4469D01*
X3820Y4463D01*
X3814Y4455D01*
X3812Y4445D01*
X3814Y4435D01*
X3820Y4427D01*
X3828Y4421D01*
X3838Y4419D01*
X3848Y4421D01*
X3856Y4427D01*
X3862Y4435D01*
X3864Y4445D01*
X3862Y4455D01*
X3856Y4463D01*
X3848Y4469D01*
X3838Y4471D01*
D02*
G37*
G36*
X5748Y4478D02*
X5738Y4476D01*
X5730Y4471D01*
X5724Y4462D01*
X5722Y4453D01*
X5724Y4443D01*
X5730Y4434D01*
X5738Y4429D01*
X5748Y4427D01*
X5758Y4429D01*
X5766Y4434D01*
X5772Y4443D01*
X5774Y4453D01*
X5772Y4462D01*
X5766Y4471D01*
X5758Y4476D01*
X5748Y4478D01*
D02*
G37*
G36*
X3553Y4651D02*
X3544Y4649D01*
X3535Y4643D01*
X3530Y4635D01*
X3528Y4625D01*
X3530Y4616D01*
X3535Y4607D01*
X3544Y4602D01*
X3553Y4600D01*
X3563Y4602D01*
X3572Y4607D01*
X3577Y4616D01*
X3579Y4625D01*
X3577Y4635D01*
X3572Y4643D01*
X3563Y4649D01*
X3553Y4651D01*
D02*
G37*
G36*
X5250Y4671D02*
X5240Y4669D01*
X5232Y4664D01*
X5226Y4655D01*
X5225Y4646D01*
X5226Y4636D01*
X5232Y4628D01*
X5240Y4622D01*
X5250Y4620D01*
X5260Y4622D01*
X5268Y4628D01*
X5274Y4636D01*
X5276Y4646D01*
X5274Y4655D01*
X5268Y4664D01*
X5260Y4669D01*
X5250Y4671D01*
D02*
G37*
G36*
X5019Y4674D02*
X5009Y4672D01*
X5001Y4666D01*
X4995Y4658D01*
X4993Y4648D01*
X4995Y4638D01*
X5001Y4630D01*
X5009Y4624D01*
X5019Y4623D01*
X5029Y4624D01*
X5037Y4630D01*
X5043Y4638D01*
X5045Y4648D01*
X5043Y4658D01*
X5037Y4666D01*
X5029Y4672D01*
X5019Y4674D01*
D02*
G37*
G36*
X5083Y4699D02*
X5073Y4697D01*
X5064Y4692D01*
X5059Y4683D01*
X5057Y4674D01*
X5059Y4664D01*
X5064Y4655D01*
X5073Y4650D01*
X5083Y4648D01*
X5092Y4650D01*
X5101Y4655D01*
X5106Y4664D01*
X5108Y4674D01*
X5106Y4683D01*
X5101Y4692D01*
X5092Y4697D01*
X5083Y4699D01*
D02*
G37*
G36*
X5756Y4661D02*
X5746Y4659D01*
X5738Y4654D01*
X5732Y4645D01*
X5730Y4635D01*
X5732Y4626D01*
X5738Y4617D01*
X5746Y4612D01*
X5756Y4610D01*
X5765Y4612D01*
X5774Y4617D01*
X5779Y4626D01*
X5781Y4635D01*
X5779Y4645D01*
X5774Y4654D01*
X5765Y4659D01*
X5756Y4661D01*
D02*
G37*
G36*
X4928Y4651D02*
X4918Y4649D01*
X4909Y4643D01*
X4904Y4635D01*
X4902Y4625D01*
X4904Y4616D01*
X4909Y4607D01*
X4918Y4602D01*
X4928Y4600D01*
X4937Y4602D01*
X4946Y4607D01*
X4951Y4616D01*
X4953Y4625D01*
X4951Y4635D01*
X4946Y4643D01*
X4937Y4649D01*
X4928Y4651D01*
D02*
G37*
G36*
X3985Y4661D02*
X3975Y4659D01*
X3967Y4654D01*
X3962Y4645D01*
X3960Y4635D01*
X3962Y4626D01*
X3967Y4617D01*
X3975Y4612D01*
X3985Y4610D01*
X3995Y4612D01*
X4003Y4617D01*
X4009Y4626D01*
X4011Y4635D01*
X4009Y4645D01*
X4003Y4654D01*
X3995Y4659D01*
X3985Y4661D01*
D02*
G37*
G36*
X5133D02*
X5124Y4659D01*
X5115Y4654D01*
X5110Y4645D01*
X5108Y4635D01*
X5110Y4626D01*
X5115Y4617D01*
X5124Y4612D01*
X5133Y4610D01*
X5143Y4612D01*
X5151Y4617D01*
X5157Y4626D01*
X5159Y4635D01*
X5157Y4645D01*
X5151Y4654D01*
X5143Y4659D01*
X5133Y4661D01*
D02*
G37*
G36*
X4905Y4458D02*
X4895Y4456D01*
X4887Y4450D01*
X4881Y4442D01*
X4879Y4432D01*
X4881Y4422D01*
X4887Y4414D01*
X4895Y4409D01*
X4905Y4407D01*
X4915Y4409D01*
X4923Y4414D01*
X4928Y4422D01*
X4930Y4432D01*
X4928Y4442D01*
X4923Y4450D01*
X4915Y4456D01*
X4905Y4458D01*
D02*
G37*
G36*
X4155Y4407D02*
X4146Y4405D01*
X4137Y4400D01*
X4132Y4391D01*
X4130Y4381D01*
X4132Y4372D01*
X4137Y4363D01*
X4146Y4358D01*
X4155Y4356D01*
X4165Y4358D01*
X4174Y4363D01*
X4179Y4372D01*
X4181Y4381D01*
X4179Y4391D01*
X4174Y4400D01*
X4165Y4405D01*
X4155Y4407D01*
D02*
G37*
G36*
X3279Y4420D02*
X3269Y4418D01*
X3261Y4412D01*
X3255Y4404D01*
X3253Y4394D01*
X3255Y4384D01*
X3261Y4376D01*
X3269Y4371D01*
X3279Y4369D01*
X3289Y4371D01*
X3297Y4376D01*
X3303Y4384D01*
X3305Y4394D01*
X3303Y4404D01*
X3297Y4412D01*
X3289Y4418D01*
X3279Y4420D01*
D02*
G37*
G36*
X4562Y4433D02*
X4552Y4431D01*
X4544Y4425D01*
X4538Y4417D01*
X4536Y4407D01*
X4538Y4397D01*
X4544Y4389D01*
X4552Y4383D01*
X4562Y4381D01*
X4572Y4383D01*
X4580Y4389D01*
X4586Y4397D01*
X4587Y4407D01*
X4586Y4417D01*
X4580Y4425D01*
X4572Y4431D01*
X4562Y4433D01*
D02*
G37*
G36*
X3566Y4404D02*
X3556Y4403D01*
X3548Y4397D01*
X3543Y4389D01*
X3541Y4379D01*
X3543Y4369D01*
X3548Y4361D01*
X3556Y4355D01*
X3566Y4353D01*
X3576Y4355D01*
X3584Y4361D01*
X3590Y4369D01*
X3592Y4379D01*
X3590Y4389D01*
X3584Y4397D01*
X3576Y4403D01*
X3566Y4404D01*
D02*
G37*
G36*
X4041Y4382D02*
X4031Y4380D01*
X4023Y4374D01*
X4017Y4366D01*
X4015Y4356D01*
X4017Y4346D01*
X4023Y4338D01*
X4031Y4332D01*
X4041Y4330D01*
X4051Y4332D01*
X4059Y4338D01*
X4065Y4346D01*
X4067Y4356D01*
X4065Y4366D01*
X4059Y4374D01*
X4051Y4380D01*
X4041Y4382D01*
D02*
G37*
G36*
X3851Y4394D02*
X3841Y4392D01*
X3833Y4387D01*
X3827Y4379D01*
X3825Y4369D01*
X3827Y4359D01*
X3833Y4351D01*
X3841Y4345D01*
X3851Y4343D01*
X3860Y4345D01*
X3869Y4351D01*
X3874Y4359D01*
X3876Y4369D01*
X3874Y4379D01*
X3869Y4387D01*
X3860Y4392D01*
X3851Y4394D01*
D02*
G37*
G36*
X4752Y4458D02*
X4743Y4456D01*
X4734Y4450D01*
X4729Y4442D01*
X4727Y4432D01*
X4729Y4422D01*
X4734Y4414D01*
X4743Y4409D01*
X4750Y4407D01*
X4752Y4407D01*
X4755Y4395D01*
X4753Y4394D01*
X4747Y4389D01*
X4741Y4381D01*
X4739Y4371D01*
X4741Y4362D01*
X4747Y4353D01*
X4755Y4348D01*
X4765Y4346D01*
X4775Y4348D01*
X4783Y4353D01*
X4789Y4362D01*
X4791Y4371D01*
X4789Y4381D01*
X4783Y4389D01*
X4775Y4395D01*
X4767Y4397D01*
X4765Y4397D01*
X4762Y4409D01*
X4764Y4410D01*
X4770Y4414D01*
X4776Y4422D01*
X4778Y4432D01*
X4776Y4442D01*
X4770Y4450D01*
X4762Y4456D01*
X4752Y4458D01*
D02*
G37*
G36*
X4692Y4436D02*
X4682Y4434D01*
X4674Y4429D01*
X4668Y4420D01*
X4666Y4410D01*
X4668Y4401D01*
X4674Y4392D01*
X4682Y4387D01*
X4692Y4385D01*
X4702Y4387D01*
X4710Y4392D01*
X4716Y4401D01*
X4718Y4410D01*
X4716Y4420D01*
X4710Y4429D01*
X4702Y4434D01*
X4692Y4436D01*
D02*
G37*
G36*
X5032Y4445D02*
X5022Y4443D01*
X5014Y4438D01*
X5008Y4429D01*
X5006Y4420D01*
X5008Y4410D01*
X5014Y4401D01*
X5022Y4396D01*
X5032Y4394D01*
X5042Y4396D01*
X5050Y4401D01*
X5055Y4410D01*
X5057Y4420D01*
X5055Y4429D01*
X5050Y4438D01*
X5042Y4443D01*
X5032Y4445D01*
D02*
G37*
G36*
X5387D02*
X5378Y4443D01*
X5369Y4438D01*
X5364Y4429D01*
X5362Y4420D01*
X5364Y4410D01*
X5369Y4401D01*
X5378Y4396D01*
X5387Y4394D01*
X5397Y4396D01*
X5405Y4401D01*
X5411Y4410D01*
X5413Y4420D01*
X5411Y4429D01*
X5405Y4438D01*
X5397Y4443D01*
X5387Y4445D01*
D02*
G37*
G36*
X3393Y4458D02*
X3384Y4456D01*
X3375Y4450D01*
X3370Y4442D01*
X3368Y4432D01*
X3370Y4422D01*
X3375Y4414D01*
X3384Y4409D01*
X3393Y4407D01*
X3403Y4409D01*
X3412Y4414D01*
X3417Y4422D01*
X3419Y4432D01*
X3417Y4442D01*
X3412Y4450D01*
X3403Y4456D01*
X3393Y4458D01*
D02*
G37*
G36*
X4206Y4445D02*
X4196Y4443D01*
X4188Y4438D01*
X4183Y4429D01*
X4181Y4420D01*
X4183Y4410D01*
X4188Y4401D01*
X4196Y4396D01*
X4206Y4394D01*
X4216Y4396D01*
X4224Y4401D01*
X4230Y4410D01*
X4232Y4420D01*
X4230Y4429D01*
X4224Y4438D01*
X4216Y4443D01*
X4206Y4445D01*
D02*
G37*
G36*
X3089D02*
X3079Y4443D01*
X3071Y4438D01*
X3065Y4429D01*
X3063Y4420D01*
X3065Y4410D01*
X3071Y4401D01*
X3079Y4396D01*
X3089Y4394D01*
X3098Y4396D01*
X3107Y4401D01*
X3112Y4410D01*
X3114Y4420D01*
X3112Y4429D01*
X3107Y4438D01*
X3098Y4443D01*
X3089Y4445D01*
D02*
G37*
G36*
X3965D02*
X3955Y4443D01*
X3947Y4438D01*
X3941Y4429D01*
X3939Y4420D01*
X3941Y4410D01*
X3947Y4401D01*
X3955Y4396D01*
X3965Y4394D01*
X3975Y4396D01*
X3983Y4401D01*
X3989Y4410D01*
X3991Y4420D01*
X3989Y4429D01*
X3983Y4438D01*
X3975Y4443D01*
X3965Y4445D01*
D02*
G37*
G36*
X4041D02*
X4031Y4443D01*
X4023Y4438D01*
X4017Y4429D01*
X4015Y4420D01*
X4017Y4410D01*
X4023Y4401D01*
X4031Y4396D01*
X4041Y4394D01*
X4051Y4396D01*
X4059Y4401D01*
X4065Y4410D01*
X4067Y4420D01*
X4065Y4429D01*
X4059Y4438D01*
X4051Y4443D01*
X4041Y4445D01*
D02*
G37*
G36*
X5286Y4725D02*
X5276Y4723D01*
X5268Y4717D01*
X5262Y4709D01*
X5260Y4699D01*
X5262Y4689D01*
X5268Y4681D01*
X5276Y4675D01*
X5286Y4673D01*
X5296Y4675D01*
X5304Y4681D01*
X5309Y4689D01*
X5311Y4699D01*
X5309Y4709D01*
X5304Y4717D01*
X5296Y4723D01*
X5286Y4725D01*
D02*
G37*
G36*
X4219Y5042D02*
X4209Y5040D01*
X4201Y5035D01*
X4195Y5026D01*
X4193Y5017D01*
X4195Y5007D01*
X4201Y4998D01*
X4209Y4993D01*
X4219Y4991D01*
X4229Y4993D01*
X4237Y4998D01*
X4243Y5007D01*
X4245Y5017D01*
X4243Y5026D01*
X4237Y5035D01*
X4229Y5040D01*
X4219Y5042D01*
D02*
G37*
G36*
X3838Y5080D02*
X3828Y5078D01*
X3820Y5073D01*
X3814Y5064D01*
X3812Y5055D01*
X3814Y5045D01*
X3820Y5036D01*
X3828Y5031D01*
X3838Y5029D01*
X3848Y5031D01*
X3856Y5036D01*
X3862Y5045D01*
X3864Y5055D01*
X3862Y5064D01*
X3856Y5073D01*
X3848Y5078D01*
X3838Y5080D01*
D02*
G37*
G36*
X2873Y5106D02*
X2863Y5104D01*
X2855Y5098D01*
X2849Y5090D01*
X2847Y5080D01*
X2849Y5070D01*
X2855Y5062D01*
X2863Y5056D01*
X2873Y5054D01*
X2883Y5056D01*
X2891Y5062D01*
X2896Y5070D01*
X2898Y5080D01*
X2896Y5090D01*
X2891Y5098D01*
X2883Y5104D01*
X2873Y5106D01*
D02*
G37*
G36*
X3736Y5017D02*
X3727Y5015D01*
X3718Y5009D01*
X3713Y5001D01*
X3711Y4991D01*
X3713Y4981D01*
X3718Y4973D01*
X3727Y4967D01*
X3736Y4965D01*
X3746Y4967D01*
X3754Y4973D01*
X3760Y4981D01*
X3762Y4991D01*
X3760Y5001D01*
X3754Y5009D01*
X3746Y5015D01*
X3736Y5017D01*
D02*
G37*
G36*
X5019Y4966D02*
X5009Y4964D01*
X5001Y4958D01*
X4995Y4950D01*
X4993Y4940D01*
X4995Y4930D01*
X5001Y4922D01*
X5009Y4917D01*
X5019Y4915D01*
X5029Y4917D01*
X5037Y4922D01*
X5043Y4930D01*
X5045Y4940D01*
X5043Y4950D01*
X5037Y4958D01*
X5029Y4964D01*
X5019Y4966D01*
D02*
G37*
G36*
X4575Y4991D02*
X4565Y4989D01*
X4556Y4984D01*
X4551Y4976D01*
X4549Y4966D01*
X4551Y4956D01*
X4556Y4948D01*
X4565Y4942D01*
X4575Y4940D01*
X4584Y4942D01*
X4593Y4948D01*
X4598Y4956D01*
X4600Y4966D01*
X4598Y4976D01*
X4593Y4984D01*
X4584Y4989D01*
X4575Y4991D01*
D02*
G37*
G36*
X4737Y4999D02*
X4727Y4997D01*
X4719Y4991D01*
X4713Y4983D01*
X4711Y4973D01*
X4713Y4964D01*
X4719Y4955D01*
X4727Y4950D01*
X4737Y4948D01*
X4747Y4950D01*
X4755Y4955D01*
X4761Y4964D01*
X4763Y4973D01*
X4761Y4983D01*
X4755Y4991D01*
X4747Y4997D01*
X4737Y4999D01*
D02*
G37*
G36*
X4117Y5118D02*
X4108Y5116D01*
X4099Y5111D01*
X4094Y5103D01*
X4092Y5093D01*
X4094Y5083D01*
X4099Y5075D01*
X4108Y5069D01*
X4117Y5067D01*
X4127Y5069D01*
X4135Y5075D01*
X4141Y5083D01*
X4143Y5093D01*
X4141Y5103D01*
X4135Y5111D01*
X4127Y5116D01*
X4117Y5118D01*
D02*
G37*
G36*
X2936Y5156D02*
X2926Y5154D01*
X2918Y5149D01*
X2913Y5141D01*
X2911Y5131D01*
X2913Y5121D01*
X2918Y5113D01*
X2926Y5107D01*
X2936Y5105D01*
X2946Y5107D01*
X2954Y5113D01*
X2960Y5121D01*
X2962Y5131D01*
X2960Y5141D01*
X2954Y5149D01*
X2946Y5154D01*
X2936Y5156D01*
D02*
G37*
G36*
X5845Y5169D02*
X5835Y5167D01*
X5826Y5162D01*
X5821Y5153D01*
X5819Y5144D01*
X5821Y5134D01*
X5826Y5125D01*
X5835Y5120D01*
X5845Y5118D01*
X5854Y5120D01*
X5863Y5125D01*
X5868Y5134D01*
X5870Y5144D01*
X5868Y5153D01*
X5863Y5162D01*
X5854Y5167D01*
X5845Y5169D01*
D02*
G37*
G36*
X3740Y5176D02*
X3730Y5174D01*
X3722Y5169D01*
X3716Y5160D01*
X3714Y5151D01*
X3716Y5141D01*
X3722Y5133D01*
X3730Y5127D01*
X3740Y5125D01*
X3750Y5127D01*
X3758Y5133D01*
X3764Y5141D01*
X3766Y5151D01*
X3764Y5160D01*
X3758Y5169D01*
X3750Y5174D01*
X3740Y5176D01*
D02*
G37*
G36*
X5319Y5151D02*
X5309Y5149D01*
X5301Y5144D01*
X5295Y5136D01*
X5293Y5126D01*
X5295Y5116D01*
X5301Y5108D01*
X5309Y5102D01*
X5319Y5100D01*
X5329Y5102D01*
X5337Y5108D01*
X5342Y5116D01*
X5344Y5126D01*
X5342Y5136D01*
X5337Y5144D01*
X5329Y5149D01*
X5319Y5151D01*
D02*
G37*
G36*
X4676Y5118D02*
X4666Y5116D01*
X4658Y5111D01*
X4652Y5103D01*
X4650Y5093D01*
X4652Y5083D01*
X4658Y5075D01*
X4666Y5069D01*
X4676Y5067D01*
X4686Y5069D01*
X4694Y5075D01*
X4700Y5083D01*
X4702Y5093D01*
X4700Y5103D01*
X4694Y5111D01*
X4686Y5116D01*
X4676Y5118D01*
D02*
G37*
G36*
X3785Y5123D02*
X3775Y5121D01*
X3766Y5116D01*
X3761Y5108D01*
X3759Y5098D01*
X3761Y5088D01*
X3766Y5080D01*
X3775Y5074D01*
X3785Y5072D01*
X3794Y5074D01*
X3803Y5080D01*
X3808Y5088D01*
X3810Y5098D01*
X3808Y5108D01*
X3803Y5116D01*
X3794Y5121D01*
X3785Y5123D01*
D02*
G37*
G36*
X4867Y5131D02*
X4857Y5129D01*
X4849Y5124D01*
X4843Y5115D01*
X4841Y5105D01*
X4843Y5096D01*
X4849Y5087D01*
X4857Y5082D01*
X4867Y5080D01*
X4876Y5082D01*
X4885Y5087D01*
X4890Y5096D01*
X4892Y5105D01*
X4890Y5115D01*
X4885Y5124D01*
X4876Y5129D01*
X4867Y5131D01*
D02*
G37*
G36*
X4333Y4902D02*
X4323Y4901D01*
X4315Y4895D01*
X4310Y4887D01*
X4308Y4877D01*
X4310Y4867D01*
X4315Y4859D01*
X4323Y4853D01*
X4333Y4851D01*
X4343Y4853D01*
X4351Y4859D01*
X4357Y4867D01*
X4359Y4877D01*
X4357Y4887D01*
X4351Y4895D01*
X4343Y4901D01*
X4333Y4902D01*
D02*
G37*
G36*
X3635Y4775D02*
X3625Y4774D01*
X3617Y4768D01*
X3611Y4760D01*
X3609Y4750D01*
X3611Y4740D01*
X3617Y4732D01*
X3625Y4726D01*
X3635Y4724D01*
X3645Y4726D01*
X3653Y4732D01*
X3658Y4740D01*
X3660Y4750D01*
X3658Y4760D01*
X3653Y4768D01*
X3645Y4774D01*
X3635Y4775D01*
D02*
G37*
G36*
X3724Y4788D02*
X3714Y4786D01*
X3706Y4781D01*
X3700Y4772D01*
X3698Y4762D01*
X3700Y4753D01*
X3706Y4744D01*
X3714Y4739D01*
X3724Y4737D01*
X3733Y4739D01*
X3742Y4744D01*
X3747Y4753D01*
X3749Y4762D01*
X3747Y4772D01*
X3742Y4781D01*
X3733Y4786D01*
X3724Y4788D01*
D02*
G37*
G36*
X4244D02*
X4235Y4786D01*
X4226Y4781D01*
X4221Y4772D01*
X4219Y4762D01*
X4221Y4753D01*
X4226Y4744D01*
X4235Y4739D01*
X4244Y4737D01*
X4254Y4739D01*
X4262Y4744D01*
X4268Y4753D01*
X4270Y4762D01*
X4268Y4772D01*
X4262Y4781D01*
X4254Y4786D01*
X4244Y4788D01*
D02*
G37*
G36*
X4067Y4763D02*
X4057Y4761D01*
X4048Y4755D01*
X4043Y4747D01*
X4041Y4737D01*
X4043Y4727D01*
X4048Y4719D01*
X4057Y4713D01*
X4067Y4711D01*
X4076Y4713D01*
X4085Y4719D01*
X4090Y4727D01*
X4092Y4737D01*
X4090Y4747D01*
X4085Y4755D01*
X4076Y4761D01*
X4067Y4763D01*
D02*
G37*
G36*
X5718Y4725D02*
X5708Y4723D01*
X5699Y4717D01*
X5694Y4709D01*
X5692Y4699D01*
X5694Y4689D01*
X5699Y4681D01*
X5708Y4675D01*
X5718Y4673D01*
X5727Y4675D01*
X5736Y4681D01*
X5741Y4689D01*
X5743Y4699D01*
X5741Y4709D01*
X5736Y4717D01*
X5727Y4723D01*
X5718Y4725D01*
D02*
G37*
G36*
X2771Y4750D02*
X2761Y4748D01*
X2753Y4743D01*
X2747Y4734D01*
X2745Y4724D01*
X2747Y4715D01*
X2753Y4706D01*
X2761Y4701D01*
X2771Y4699D01*
X2781Y4701D01*
X2789Y4706D01*
X2795Y4715D01*
X2797Y4724D01*
X2795Y4734D01*
X2789Y4743D01*
X2781Y4748D01*
X2771Y4750D01*
D02*
G37*
G36*
X3546Y4763D02*
X3536Y4761D01*
X3528Y4755D01*
X3522Y4747D01*
X3520Y4737D01*
X3522Y4727D01*
X3528Y4719D01*
X3536Y4713D01*
X3546Y4711D01*
X3556Y4713D01*
X3564Y4719D01*
X3570Y4727D01*
X3571Y4737D01*
X3570Y4747D01*
X3564Y4755D01*
X3556Y4761D01*
X3546Y4763D01*
D02*
G37*
G36*
X3406Y4801D02*
X3396Y4799D01*
X3388Y4793D01*
X3382Y4785D01*
X3380Y4775D01*
X3382Y4765D01*
X3388Y4757D01*
X3396Y4751D01*
X3406Y4750D01*
X3416Y4751D01*
X3424Y4757D01*
X3430Y4765D01*
X3432Y4775D01*
X3430Y4785D01*
X3424Y4793D01*
X3416Y4799D01*
X3406Y4801D01*
D02*
G37*
G36*
X5794Y4839D02*
X5784Y4837D01*
X5776Y4831D01*
X5770Y4823D01*
X5768Y4813D01*
X5770Y4803D01*
X5776Y4795D01*
X5784Y4790D01*
X5794Y4788D01*
X5804Y4790D01*
X5812Y4795D01*
X5817Y4803D01*
X5819Y4813D01*
X5817Y4823D01*
X5812Y4831D01*
X5804Y4837D01*
X5794Y4839D01*
D02*
G37*
G36*
X3035Y4849D02*
X3025Y4847D01*
X3017Y4842D01*
X3012Y4833D01*
X3010Y4823D01*
X3012Y4814D01*
X3017Y4805D01*
X3025Y4800D01*
X3035Y4798D01*
X3045Y4800D01*
X3053Y4805D01*
X3059Y4814D01*
X3061Y4823D01*
X3059Y4833D01*
X3053Y4842D01*
X3045Y4847D01*
X3035Y4849D01*
D02*
G37*
G36*
X3901Y4852D02*
X3892Y4850D01*
X3883Y4844D01*
X3878Y4836D01*
X3876Y4826D01*
X3878Y4816D01*
X3883Y4808D01*
X3892Y4802D01*
X3901Y4800D01*
X3911Y4802D01*
X3920Y4808D01*
X3925Y4816D01*
X3927Y4826D01*
X3925Y4836D01*
X3920Y4844D01*
X3911Y4850D01*
X3901Y4852D01*
D02*
G37*
G36*
X5476Y4839D02*
X5466Y4837D01*
X5458Y4831D01*
X5453Y4823D01*
X5451Y4813D01*
X5453Y4803D01*
X5458Y4795D01*
X5466Y4790D01*
X5476Y4788D01*
X5486Y4790D01*
X5494Y4795D01*
X5500Y4803D01*
X5502Y4813D01*
X5500Y4823D01*
X5494Y4831D01*
X5486Y4837D01*
X5476Y4839D01*
D02*
G37*
G36*
X2758D02*
X2749Y4837D01*
X2740Y4831D01*
X2735Y4823D01*
X2733Y4813D01*
X2735Y4803D01*
X2740Y4795D01*
X2749Y4790D01*
X2758Y4788D01*
X2768Y4790D01*
X2777Y4795D01*
X2782Y4803D01*
X2784Y4813D01*
X2782Y4823D01*
X2777Y4831D01*
X2768Y4837D01*
X2758Y4839D01*
D02*
G37*
G36*
X2835D02*
X2825Y4837D01*
X2817Y4831D01*
X2811Y4823D01*
X2809Y4813D01*
X2811Y4803D01*
X2817Y4795D01*
X2825Y4790D01*
X2835Y4788D01*
X2844Y4790D01*
X2853Y4795D01*
X2858Y4803D01*
X2860Y4813D01*
X2858Y4823D01*
X2853Y4831D01*
X2844Y4837D01*
X2835Y4839D01*
D02*
G37*
G36*
X4206D02*
X4196Y4837D01*
X4188Y4831D01*
X4183Y4823D01*
X4181Y4813D01*
X4183Y4803D01*
X4188Y4795D01*
X4196Y4790D01*
X4206Y4788D01*
X4216Y4790D01*
X4224Y4795D01*
X4230Y4803D01*
X4232Y4813D01*
X4230Y4823D01*
X4224Y4831D01*
X4216Y4837D01*
X4206Y4839D01*
D02*
G37*
%LPD*%
D17*
X4696Y2913D02*
D03*
D03*
D19*
X2903Y5283D02*
D03*
D60*
X3015Y4003D02*
X3051Y4039D01*
X3015Y3945D02*
Y4003D01*
X2962Y3891D02*
X3015Y3945D01*
X2830Y3891D02*
X2962D01*
D65*
X5291Y5570D02*
D03*
X5371D02*
D03*
D69*
X3696Y3396D02*
D03*
X4216Y3167D02*
D03*
X3416Y5027D02*
D03*
X3950Y4343D02*
D03*
X4915Y5639D02*
D03*
X4851Y5550D02*
D03*
X4813Y6088D02*
D03*
X3876Y2896D02*
D03*
X2781Y4270D02*
D03*
X5502Y4496D02*
D03*
X5705Y5245D02*
D03*
X4448Y3762D02*
D03*
X4333Y3416D02*
D03*
X3051Y4039D02*
D03*
X3241Y4762D02*
D03*
X2830Y3891D02*
D03*
X3597Y5707D02*
D03*
X3368Y5842D02*
D03*
X4860Y3411D02*
D03*
X5349Y5359D02*
D03*
X5806Y3785D02*
D03*
X5337Y3797D02*
D03*
X3965Y5626D02*
D03*
X4054Y3061D02*
D03*
X3299Y3023D02*
D03*
X3162Y3505D02*
D03*
X2978Y3314D02*
D03*
X5509Y5893D02*
D03*
X4590Y2987D02*
D03*
D70*
X4856Y3023D02*
D03*
D71*
X3238Y4902D02*
D03*
M02*
