G04 Layer_Color=16711935*
%FSLAX42Y42*%
%MOMM*%
G71*
G01*
G75*
%ADD277C,0.01*%
D277*
X2590Y3024D02*
G03*
X2793Y2821I203J0D01*
G01*
X2596Y4425D02*
G03*
X2621Y4450I0J25D01*
G01*
Y4999D02*
G03*
X2596Y5024I-25J0D01*
G01*
X2791Y6222D02*
G03*
X2591Y6022I0J-200D01*
G01*
X5991D02*
G03*
X5791Y6222I-200J0D01*
G01*
X5987Y5024D02*
G03*
X5961Y4999I0J-25D01*
G01*
Y4450D02*
G03*
X5987Y4425I25J0D01*
G01*
X5791Y3272D02*
G03*
X5542Y3023I0J-249D01*
G01*
X4511Y2827D02*
G03*
X4486Y2852I-25J0D01*
G01*
X4097D02*
G03*
X4072Y2827I0J-25D01*
G01*
X2590Y3024D02*
Y4425D01*
X2596D01*
X2621Y4450D02*
Y4999D01*
X2590Y5024D02*
X2596D01*
X2590D02*
Y6022D01*
X2591D01*
X2791Y6220D02*
Y6222D01*
Y6220D02*
X5791D01*
Y6222D01*
X5990Y6022D02*
X5991D01*
X5990Y5024D02*
Y6022D01*
X5987Y5024D02*
X5990D01*
X5961Y4450D02*
Y4999D01*
X5987Y4425D02*
X5990D01*
Y3272D02*
Y4425D01*
X5791Y3272D02*
X5990D01*
X5542Y2825D02*
Y3023D01*
X4511Y2825D02*
X5542D01*
X4511D02*
Y2827D01*
X4097Y2852D02*
X4486D01*
X4072Y2825D02*
Y2827D01*
X4066Y2819D02*
X4072Y2825D01*
X2793Y2821D02*
X4066Y2819D01*
M02*
