G04 Layer_Color=255*
%FSLAX42Y42*%
%MOMM*%
G71*
G01*
G75*
%ADD10R,0.51X0.61*%
%ADD11R,0.61X0.51*%
G04:AMPARAMS|DCode=12|XSize=0.51mm|YSize=0.61mm|CornerRadius=0mm|HoleSize=0mm|Usage=FLASHONLY|Rotation=225.000|XOffset=0mm|YOffset=0mm|HoleType=Round|Shape=Rectangle|*
%AMROTATEDRECTD12*
4,1,4,-0.04,0.40,0.40,-0.04,0.04,-0.40,-0.40,0.04,-0.04,0.40,0.0*
%
%ADD12ROTATEDRECTD12*%

%ADD13R,0.20X0.71*%
%ADD14R,0.30X0.51*%
%ADD15R,1.60X0.91*%
%ADD16R,0.61X0.61*%
%ADD17R,0.41X0.41*%
G04:AMPARAMS|DCode=18|XSize=0.41mm|YSize=0.41mm|CornerRadius=0.1mm|HoleSize=0mm|Usage=FLASHONLY|Rotation=0.000|XOffset=0mm|YOffset=0mm|HoleType=Round|Shape=RoundedRectangle|*
%AMROUNDEDRECTD18*
21,1,0.41,0.20,0,0,0.0*
21,1,0.20,0.41,0,0,0.0*
1,1,0.20,0.10,-0.10*
1,1,0.20,-0.10,-0.10*
1,1,0.20,-0.10,0.10*
1,1,0.20,0.10,0.10*
%
%ADD18ROUNDEDRECTD18*%
%ADD19R,0.41X0.41*%
%ADD20R,0.61X0.61*%
G04:AMPARAMS|DCode=21|XSize=1.02mm|YSize=1.8mm|CornerRadius=0mm|HoleSize=0mm|Usage=FLASHONLY|Rotation=45.000|XOffset=0mm|YOffset=0mm|HoleType=Round|Shape=Rectangle|*
%AMROTATEDRECTD21*
4,1,4,0.28,-1.00,-1.00,0.28,-0.28,1.00,1.00,-0.28,0.28,-1.00,0.0*
%
%ADD21ROTATEDRECTD21*%

%ADD22R,0.81X0.91*%
G04:AMPARAMS|DCode=23|XSize=0.61mm|YSize=0.91mm|CornerRadius=0.15mm|HoleSize=0mm|Usage=FLASHONLY|Rotation=180.000|XOffset=0mm|YOffset=0mm|HoleType=Round|Shape=RoundedRectangle|*
%AMROUNDEDRECTD23*
21,1,0.61,0.61,0,0,180.0*
21,1,0.30,0.91,0,0,180.0*
1,1,0.30,-0.15,0.30*
1,1,0.30,0.15,0.30*
1,1,0.30,0.15,-0.30*
1,1,0.30,-0.15,-0.30*
%
%ADD23ROUNDEDRECTD23*%
G04:AMPARAMS|DCode=24|XSize=0.71mm|YSize=1.32mm|CornerRadius=0.18mm|HoleSize=0mm|Usage=FLASHONLY|Rotation=90.000|XOffset=0mm|YOffset=0mm|HoleType=Round|Shape=RoundedRectangle|*
%AMROUNDEDRECTD24*
21,1,0.71,0.97,0,0,90.0*
21,1,0.36,1.32,0,0,90.0*
1,1,0.36,0.48,0.18*
1,1,0.36,0.48,-0.18*
1,1,0.36,-0.48,-0.18*
1,1,0.36,-0.48,0.18*
%
%ADD24ROUNDEDRECTD24*%
G04:AMPARAMS|DCode=25|XSize=0.51mm|YSize=0.61mm|CornerRadius=0.13mm|HoleSize=0mm|Usage=FLASHONLY|Rotation=90.000|XOffset=0mm|YOffset=0mm|HoleType=Round|Shape=RoundedRectangle|*
%AMROUNDEDRECTD25*
21,1,0.51,0.36,0,0,90.0*
21,1,0.25,0.61,0,0,90.0*
1,1,0.25,0.18,0.13*
1,1,0.25,0.18,-0.13*
1,1,0.25,-0.18,-0.13*
1,1,0.25,-0.18,0.13*
%
%ADD25ROUNDEDRECTD25*%
G04:AMPARAMS|DCode=26|XSize=0.51mm|YSize=0.61mm|CornerRadius=0.13mm|HoleSize=0mm|Usage=FLASHONLY|Rotation=0.000|XOffset=0mm|YOffset=0mm|HoleType=Round|Shape=RoundedRectangle|*
%AMROUNDEDRECTD26*
21,1,0.51,0.36,0,0,0.0*
21,1,0.25,0.61,0,0,0.0*
1,1,0.25,0.13,-0.18*
1,1,0.25,-0.13,-0.18*
1,1,0.25,-0.13,0.18*
1,1,0.25,0.13,0.18*
%
%ADD26ROUNDEDRECTD26*%
%ADD27R,0.46X0.30*%
%ADD28R,0.30X0.46*%
%ADD29R,0.38X0.51*%
%ADD30R,0.25X0.51*%
%ADD31R,1.42X1.02*%
%ADD32R,0.51X0.38*%
%ADD33R,0.51X0.25*%
%ADD34R,1.02X1.42*%
%ADD35R,1.12X1.02*%
G04:AMPARAMS|DCode=36|XSize=0.71mm|YSize=1.32mm|CornerRadius=0.18mm|HoleSize=0mm|Usage=FLASHONLY|Rotation=0.000|XOffset=0mm|YOffset=0mm|HoleType=Round|Shape=RoundedRectangle|*
%AMROUNDEDRECTD36*
21,1,0.71,0.97,0,0,0.0*
21,1,0.36,1.32,0,0,0.0*
1,1,0.36,0.18,-0.48*
1,1,0.36,-0.18,-0.48*
1,1,0.36,-0.18,0.48*
1,1,0.36,0.18,0.48*
%
%ADD36ROUNDEDRECTD36*%
%ADD37R,0.51X0.30*%
G04:AMPARAMS|DCode=38|XSize=0.51mm|YSize=0.3mm|CornerRadius=0.06mm|HoleSize=0mm|Usage=FLASHONLY|Rotation=0.000|XOffset=0mm|YOffset=0mm|HoleType=Round|Shape=RoundedRectangle|*
%AMROUNDEDRECTD38*
21,1,0.51,0.18,0,0,0.0*
21,1,0.39,0.30,0,0,0.0*
1,1,0.12,0.19,-0.09*
1,1,0.12,-0.19,-0.09*
1,1,0.12,-0.19,0.09*
1,1,0.12,0.19,0.09*
%
%ADD38ROUNDEDRECTD38*%
G04:AMPARAMS|DCode=39|XSize=0.71mm|YSize=1.42mm|CornerRadius=0.14mm|HoleSize=0mm|Usage=FLASHONLY|Rotation=0.000|XOffset=0mm|YOffset=0mm|HoleType=Round|Shape=RoundedRectangle|*
%AMROUNDEDRECTD39*
21,1,0.71,1.14,0,0,0.0*
21,1,0.43,1.42,0,0,0.0*
1,1,0.28,0.21,-0.57*
1,1,0.28,-0.21,-0.57*
1,1,0.28,-0.21,0.57*
1,1,0.28,0.21,0.57*
%
%ADD39ROUNDEDRECTD39*%
%ADD40R,0.46X0.30*%
%ADD41R,0.61X2.21*%
G04:AMPARAMS|DCode=42|XSize=0.3mm|YSize=1.52mm|CornerRadius=0mm|HoleSize=0mm|Usage=FLASHONLY|Rotation=45.000|XOffset=0mm|YOffset=0mm|HoleType=Round|Shape=Rectangle|*
%AMROTATEDRECTD42*
4,1,4,0.43,-0.65,-0.65,0.43,-0.43,0.65,0.65,-0.43,0.43,-0.65,0.0*
%
%ADD42ROTATEDRECTD42*%

G04:AMPARAMS|DCode=43|XSize=1.52mm|YSize=0.3mm|CornerRadius=0mm|HoleSize=0mm|Usage=FLASHONLY|Rotation=45.000|XOffset=0mm|YOffset=0mm|HoleType=Round|Shape=Rectangle|*
%AMROTATEDRECTD43*
4,1,4,-0.43,-0.65,-0.65,-0.43,0.43,0.65,0.65,0.43,-0.43,-0.65,0.0*
%
%ADD43ROTATEDRECTD43*%

G04:AMPARAMS|DCode=44|XSize=0.3mm|YSize=1.5mm|CornerRadius=0mm|HoleSize=0mm|Usage=FLASHONLY|Rotation=45.000|XOffset=0mm|YOffset=0mm|HoleType=Round|Shape=Rectangle|*
%AMROTATEDRECTD44*
4,1,4,0.42,-0.64,-0.64,0.42,-0.42,0.64,0.64,-0.42,0.42,-0.64,0.0*
%
%ADD44ROTATEDRECTD44*%

%ADD45R,0.46X1.30*%
%ADD46R,1.50X2.11*%
%ADD47R,2.39X1.60*%
%ADD48R,2.39X1.60*%
%ADD49R,1.19X1.60*%
G04:AMPARAMS|DCode=50|XSize=0.51mm|YSize=0.61mm|CornerRadius=0.13mm|HoleSize=0mm|Usage=FLASHONLY|Rotation=315.000|XOffset=0mm|YOffset=0mm|HoleType=Round|Shape=RoundedRectangle|*
%AMROUNDEDRECTD50*
21,1,0.51,0.36,0,0,315.0*
21,1,0.25,0.61,0,0,315.0*
1,1,0.25,-0.04,-0.22*
1,1,0.25,-0.22,-0.04*
1,1,0.25,0.04,0.22*
1,1,0.25,0.22,0.04*
%
%ADD50ROUNDEDRECTD50*%
G04:AMPARAMS|DCode=51|XSize=1.42mm|YSize=1.22mm|CornerRadius=0mm|HoleSize=0mm|Usage=FLASHONLY|Rotation=45.000|XOffset=0mm|YOffset=0mm|HoleType=Round|Shape=Rectangle|*
%AMROTATEDRECTD51*
4,1,4,-0.07,-0.93,-0.93,-0.07,0.07,0.93,0.93,0.07,-0.07,-0.93,0.0*
%
%ADD51ROTATEDRECTD51*%

G04:AMPARAMS|DCode=52|XSize=1.02mm|YSize=0.25mm|CornerRadius=0mm|HoleSize=0mm|Usage=FLASHONLY|Rotation=225.000|XOffset=0mm|YOffset=0mm|HoleType=Round|Shape=Rectangle|*
%AMROTATEDRECTD52*
4,1,4,0.27,0.45,0.45,0.27,-0.27,-0.45,-0.45,-0.27,0.27,0.45,0.0*
%
%ADD52ROTATEDRECTD52*%

G04:AMPARAMS|DCode=53|XSize=0.25mm|YSize=1.02mm|CornerRadius=0mm|HoleSize=0mm|Usage=FLASHONLY|Rotation=225.000|XOffset=0mm|YOffset=0mm|HoleType=Round|Shape=Rectangle|*
%AMROTATEDRECTD53*
4,1,4,-0.27,0.45,0.45,-0.27,0.27,-0.45,-0.45,0.27,-0.27,0.45,0.0*
%
%ADD53ROTATEDRECTD53*%

G04:AMPARAMS|DCode=54|XSize=0.51mm|YSize=0.61mm|CornerRadius=0.13mm|HoleSize=0mm|Usage=FLASHONLY|Rotation=225.000|XOffset=0mm|YOffset=0mm|HoleType=Round|Shape=RoundedRectangle|*
%AMROUNDEDRECTD54*
21,1,0.51,0.36,0,0,225.0*
21,1,0.25,0.61,0,0,225.0*
1,1,0.25,-0.22,0.04*
1,1,0.25,-0.04,0.22*
1,1,0.25,0.22,-0.04*
1,1,0.25,0.04,-0.22*
%
%ADD54ROUNDEDRECTD54*%
%ADD55R,0.61X1.12*%
G04:AMPARAMS|DCode=56|XSize=1.42mm|YSize=1.22mm|CornerRadius=0mm|HoleSize=0mm|Usage=FLASHONLY|Rotation=135.000|XOffset=0mm|YOffset=0mm|HoleType=Round|Shape=Rectangle|*
%AMROTATEDRECTD56*
4,1,4,0.93,-0.07,0.07,-0.93,-0.93,0.07,-0.07,0.93,0.93,-0.07,0.0*
%
%ADD56ROTATEDRECTD56*%

G04:AMPARAMS|DCode=57|XSize=0.51mm|YSize=0.61mm|CornerRadius=0mm|HoleSize=0mm|Usage=FLASHONLY|Rotation=315.000|XOffset=0mm|YOffset=0mm|HoleType=Round|Shape=Rectangle|*
%AMROTATEDRECTD57*
4,1,4,-0.40,-0.04,0.04,0.40,0.40,0.04,-0.04,-0.40,-0.40,-0.04,0.0*
%
%ADD57ROTATEDRECTD57*%

G04:AMPARAMS|DCode=58|XSize=0.46mm|YSize=0.23mm|CornerRadius=0.08mm|HoleSize=0mm|Usage=FLASHONLY|Rotation=270.000|XOffset=0mm|YOffset=0mm|HoleType=Round|Shape=RoundedRectangle|*
%AMROUNDEDRECTD58*
21,1,0.46,0.07,0,0,270.0*
21,1,0.30,0.23,0,0,270.0*
1,1,0.16,-0.03,-0.15*
1,1,0.16,-0.03,0.15*
1,1,0.16,0.03,0.15*
1,1,0.16,0.03,-0.15*
%
%ADD58ROUNDEDRECTD58*%
G04:AMPARAMS|DCode=59|XSize=0.46mm|YSize=0.23mm|CornerRadius=0.06mm|HoleSize=0mm|Usage=FLASHONLY|Rotation=270.000|XOffset=0mm|YOffset=0mm|HoleType=Round|Shape=RoundedRectangle|*
%AMROUNDEDRECTD59*
21,1,0.46,0.11,0,0,270.0*
21,1,0.34,0.23,0,0,270.0*
1,1,0.11,-0.06,-0.17*
1,1,0.11,-0.06,0.17*
1,1,0.11,0.06,0.17*
1,1,0.11,0.06,-0.17*
%
%ADD59ROUNDEDRECTD59*%
G04:AMPARAMS|DCode=60|XSize=0.46mm|YSize=0.23mm|CornerRadius=0.1mm|HoleSize=0mm|Usage=FLASHONLY|Rotation=270.000|XOffset=0mm|YOffset=0mm|HoleType=Round|Shape=RoundedRectangle|*
%AMROUNDEDRECTD60*
21,1,0.46,0.02,0,0,270.0*
21,1,0.25,0.23,0,0,270.0*
1,1,0.21,-0.01,-0.13*
1,1,0.21,-0.01,0.13*
1,1,0.21,0.01,0.13*
1,1,0.21,0.01,-0.13*
%
%ADD60ROUNDEDRECTD60*%
G04:AMPARAMS|DCode=61|XSize=0.46mm|YSize=0.23mm|CornerRadius=0.1mm|HoleSize=0mm|Usage=FLASHONLY|Rotation=0.000|XOffset=0mm|YOffset=0mm|HoleType=Round|Shape=RoundedRectangle|*
%AMROUNDEDRECTD61*
21,1,0.46,0.02,0,0,0.0*
21,1,0.25,0.23,0,0,0.0*
1,1,0.21,0.13,-0.01*
1,1,0.21,-0.13,-0.01*
1,1,0.21,-0.13,0.01*
1,1,0.21,0.13,0.01*
%
%ADD61ROUNDEDRECTD61*%
G04:AMPARAMS|DCode=62|XSize=0.46mm|YSize=0.23mm|CornerRadius=0.06mm|HoleSize=0mm|Usage=FLASHONLY|Rotation=0.000|XOffset=0mm|YOffset=0mm|HoleType=Round|Shape=RoundedRectangle|*
%AMROUNDEDRECTD62*
21,1,0.46,0.11,0,0,0.0*
21,1,0.34,0.23,0,0,0.0*
1,1,0.11,0.17,-0.06*
1,1,0.11,-0.17,-0.06*
1,1,0.11,-0.17,0.06*
1,1,0.11,0.17,0.06*
%
%ADD62ROUNDEDRECTD62*%
G04:AMPARAMS|DCode=63|XSize=0.46mm|YSize=0.23mm|CornerRadius=0.08mm|HoleSize=0mm|Usage=FLASHONLY|Rotation=0.000|XOffset=0mm|YOffset=0mm|HoleType=Round|Shape=RoundedRectangle|*
%AMROUNDEDRECTD63*
21,1,0.46,0.07,0,0,0.0*
21,1,0.30,0.23,0,0,0.0*
1,1,0.16,0.15,-0.03*
1,1,0.16,-0.15,-0.03*
1,1,0.16,-0.15,0.03*
1,1,0.16,0.15,0.03*
%
%ADD63ROUNDEDRECTD63*%
%ADD69R,0.46X0.46*%
%ADD70C,0.66*%
%ADD71C,2.21*%
D10*
X3304Y3155D02*
D03*
X3203Y3155D02*
D03*
X4030Y5702D02*
D03*
X3929D02*
D03*
X5823Y4582D02*
D03*
X5723D02*
D03*
X3675Y5814D02*
D03*
X3575D02*
D03*
X3665Y6088D02*
D03*
X3564D02*
D03*
X3673Y4953D02*
D03*
X3572D02*
D03*
X3736Y5083D02*
D03*
X3636D02*
D03*
X2771Y5692D02*
D03*
X2872D02*
D03*
X4205Y2933D02*
D03*
X4306D02*
D03*
D11*
X3802Y5208D02*
D03*
Y5309D02*
D03*
X3386Y4507D02*
D03*
Y4608D02*
D03*
X3472Y4507D02*
D03*
Y4608D02*
D03*
X5806Y4818D02*
D03*
Y4718D02*
D03*
X3594Y5306D02*
D03*
Y5205D02*
D03*
X3686Y5306D02*
D03*
Y5205D02*
D03*
X2710Y4890D02*
D03*
Y4990D02*
D03*
X3393Y3033D02*
D03*
Y2932D02*
D03*
X3579Y4534D02*
D03*
Y4433D02*
D03*
X3302Y4608D02*
D03*
Y4507D02*
D03*
D12*
X3970Y5197D02*
D03*
X3899Y5125D02*
D03*
D13*
X3556Y3160D02*
D03*
Y2878D02*
D03*
X3596Y3160D02*
D03*
Y2878D02*
D03*
X3636Y3160D02*
D03*
Y2878D02*
D03*
X3676Y3160D02*
D03*
Y2878D02*
D03*
X3716Y3160D02*
D03*
Y2878D02*
D03*
X3757Y3160D02*
D03*
Y2878D02*
D03*
X3797Y3160D02*
D03*
Y2878D02*
D03*
X3838Y3160D02*
D03*
X3879D02*
D03*
X3917D02*
D03*
X3838Y2878D02*
D03*
X3879D02*
D03*
X3917D02*
D03*
D14*
X5406Y5474D02*
D03*
X5356D02*
D03*
X5306D02*
D03*
X5255D02*
D03*
Y5665D02*
D03*
X5306D02*
D03*
X5356D02*
D03*
X5406D02*
D03*
D15*
X5331Y5570D02*
D03*
D16*
X4616Y2913D02*
D03*
X4778D02*
D03*
D17*
X4696Y2873D02*
D03*
Y2913D02*
D03*
D03*
D18*
Y2954D02*
D03*
D19*
X2944Y5283D02*
D03*
X2863D02*
D03*
X2903D02*
D03*
D20*
Y5202D02*
D03*
Y5363D02*
D03*
D21*
X3988Y5354D02*
D03*
X4187Y5554D02*
D03*
D22*
X4861Y5917D02*
D03*
X5052D02*
D03*
X4956Y6129D02*
D03*
D23*
X5320Y5855D02*
D03*
X5180D02*
D03*
X5320Y5966D02*
D03*
X5180D02*
D03*
X3341Y5072D02*
D03*
X3481D02*
D03*
X5678Y4463D02*
D03*
X5818D02*
D03*
D24*
X5136Y5696D02*
D03*
X5136Y5536D02*
D03*
X2751Y5376D02*
D03*
Y5216D02*
D03*
D25*
X5423Y5835D02*
D03*
Y5915D02*
D03*
X3203Y4598D02*
D03*
Y4678D02*
D03*
D26*
X5849Y4331D02*
D03*
X5769D02*
D03*
X3136Y5314D02*
D03*
X3056D02*
D03*
X3310Y5194D02*
D03*
X3390D02*
D03*
X2791Y5093D02*
D03*
X2711D02*
D03*
X3319Y2959D02*
D03*
X3239D02*
D03*
X3228Y4864D02*
D03*
X3148D02*
D03*
X4712Y5621D02*
D03*
X4792D02*
D03*
X3238Y4427D02*
D03*
X3158D02*
D03*
X5394Y5298D02*
D03*
X5314D02*
D03*
D27*
X5888Y4002D02*
D03*
Y4052D02*
D03*
Y4153D02*
D03*
X5631Y4002D02*
D03*
Y4153D02*
D03*
Y4052D02*
D03*
Y4102D02*
D03*
X5888D02*
D03*
D28*
X5683Y3949D02*
D03*
X5834D02*
D03*
X5784D02*
D03*
X5683Y4206D02*
D03*
X5834D02*
D03*
X5784D02*
D03*
X5733Y3949D02*
D03*
Y4206D02*
D03*
D29*
X4354Y3198D02*
D03*
X4704D02*
D03*
Y3047D02*
D03*
X4354D02*
D03*
D30*
X4404Y3198D02*
D03*
X4454D02*
D03*
X4504D02*
D03*
X4554D02*
D03*
X4605D02*
D03*
X4656D02*
D03*
Y3047D02*
D03*
X4605D02*
D03*
X4554D02*
D03*
X4504D02*
D03*
X4454D02*
D03*
X4404D02*
D03*
D31*
X3523Y5956D02*
D03*
X3301Y5860D02*
D03*
Y6051D02*
D03*
D32*
X3670Y5385D02*
D03*
Y5735D02*
D03*
X3822D02*
D03*
Y5385D02*
D03*
D33*
X3670Y5435D02*
D03*
Y5485D02*
D03*
Y5535D02*
D03*
Y5585D02*
D03*
Y5636D02*
D03*
Y5687D02*
D03*
X3822D02*
D03*
Y5636D02*
D03*
Y5585D02*
D03*
Y5535D02*
D03*
Y5485D02*
D03*
Y5435D02*
D03*
D34*
X3001Y5470D02*
D03*
X3193D02*
D03*
X3096Y5692D02*
D03*
D35*
X3496Y5621D02*
D03*
X3325D02*
D03*
D36*
X3471Y4877D02*
D03*
X3311D02*
D03*
X3481Y5344D02*
D03*
X3321D02*
D03*
D37*
X3016Y5199D02*
D03*
D38*
Y5149D02*
D03*
Y5098D02*
D03*
Y5048D02*
D03*
X3178D02*
D03*
Y5098D02*
D03*
Y5149D02*
D03*
Y5199D02*
D03*
D39*
X3096Y5123D02*
D03*
D40*
X4715Y5712D02*
D03*
Y5813D02*
D03*
Y5763D02*
D03*
X4851Y5712D02*
D03*
Y5763D02*
D03*
Y5813D02*
D03*
D41*
X5908Y5568D02*
D03*
X5781D02*
D03*
X5654D02*
D03*
X5527D02*
D03*
Y5044D02*
D03*
X5654D02*
D03*
X5781D02*
D03*
X5908D02*
D03*
D42*
X3620Y4635D02*
D03*
X3655Y4670D02*
D03*
X3691Y4705D02*
D03*
X3726Y4741D02*
D03*
X3762Y4776D02*
D03*
X3797Y4812D02*
D03*
X3832Y4847D02*
D03*
X3868Y4882D02*
D03*
X3903Y4918D02*
D03*
X3938Y4953D02*
D03*
X3974Y4988D02*
D03*
X4009Y5024D02*
D03*
X4044Y5059D02*
D03*
X4080Y5095D02*
D03*
X4116Y5131D02*
D03*
X4152Y5167D02*
D03*
X4186Y5201D02*
D03*
X4222Y5237D02*
D03*
X4258Y5273D02*
D03*
X4292Y5307D02*
D03*
X4328Y5343D02*
D03*
X4364Y5379D02*
D03*
X4398Y5413D02*
D03*
X4434Y5449D02*
D03*
X4470Y5485D02*
D03*
X5601Y4353D02*
D03*
X5566Y4317D02*
D03*
X5530Y4281D02*
D03*
X5495Y4247D02*
D03*
X5460Y4211D02*
D03*
X5424Y4175D02*
D03*
X5390Y4141D02*
D03*
X5318Y4069D02*
D03*
X5284Y4035D02*
D03*
X5248Y3999D02*
D03*
X5212Y3963D02*
D03*
X5176Y3928D02*
D03*
X5140Y3892D02*
D03*
X5105Y3857D02*
D03*
X5070Y3822D02*
D03*
X5034Y3786D02*
D03*
X4999Y3751D02*
D03*
X4964Y3715D02*
D03*
X4928Y3680D02*
D03*
X4893Y3645D02*
D03*
X4858Y3609D02*
D03*
X4822Y3574D02*
D03*
X4787Y3539D02*
D03*
X4752Y3503D02*
D03*
D43*
X4750Y5485D02*
D03*
X4786Y5449D02*
D03*
X4822Y5413D02*
D03*
X4856Y5379D02*
D03*
X4892Y5343D02*
D03*
X4928Y5307D02*
D03*
X4962Y5273D02*
D03*
X4998Y5237D02*
D03*
X5034Y5201D02*
D03*
X5068Y5167D02*
D03*
X5104Y5131D02*
D03*
X5140Y5095D02*
D03*
X5176Y5059D02*
D03*
X5211Y5024D02*
D03*
X5247Y4988D02*
D03*
X5282Y4953D02*
D03*
X5317Y4918D02*
D03*
X5353Y4882D02*
D03*
X5388Y4847D02*
D03*
X5423Y4812D02*
D03*
X5459Y4776D02*
D03*
X5494Y4741D02*
D03*
X5529Y4705D02*
D03*
X5565Y4670D02*
D03*
X5600Y4635D02*
D03*
X4469Y3503D02*
D03*
X4433Y3539D02*
D03*
X4398Y3574D02*
D03*
X4363Y3609D02*
D03*
X4327Y3645D02*
D03*
X4292Y3680D02*
D03*
X4257Y3715D02*
D03*
X4221Y3751D02*
D03*
X4186Y3786D02*
D03*
X4150Y3822D02*
D03*
X4115Y3857D02*
D03*
X4080Y3892D02*
D03*
X4044Y3928D02*
D03*
X4008Y3963D02*
D03*
X3973Y3999D02*
D03*
X3937Y4035D02*
D03*
X3903Y4069D02*
D03*
X3867Y4105D02*
D03*
X3831Y4141D02*
D03*
X3797Y4175D02*
D03*
X3761Y4211D02*
D03*
X3725Y4247D02*
D03*
X3691Y4281D02*
D03*
X3655Y4317D02*
D03*
X3619Y4353D02*
D03*
D44*
X5354Y4105D02*
D03*
D45*
X4290Y5824D02*
D03*
X4356D02*
D03*
X4225D02*
D03*
X4160D02*
D03*
X4422D02*
D03*
D46*
X4542Y5895D02*
D03*
X4040D02*
D03*
D47*
X4587Y6117D02*
D03*
D48*
X3995D02*
D03*
D49*
X4206D02*
D03*
X4374D02*
D03*
D50*
X2677Y4387D02*
D03*
X2733Y4330D02*
D03*
X3078Y4776D02*
D03*
X3135Y4719D02*
D03*
X3830Y3323D02*
D03*
X3887Y3266D02*
D03*
D51*
X2764Y4548D02*
D03*
X2921Y4704D02*
D03*
X2886Y4426D02*
D03*
X3042Y4583D02*
D03*
D52*
X3311Y4356D02*
D03*
X3347Y4320D02*
D03*
X3382Y4285D02*
D03*
X3418Y4250D02*
D03*
X3453Y4214D02*
D03*
X3488Y4179D02*
D03*
X3524Y4143D02*
D03*
X3560Y4107D02*
D03*
X3596Y4071D02*
D03*
X3630Y4037D02*
D03*
X3666Y4001D02*
D03*
X3702Y3965D02*
D03*
X3064Y3328D02*
D03*
X3028Y3363D02*
D03*
X2992Y3399D02*
D03*
X2958Y3434D02*
D03*
X2922Y3469D02*
D03*
X2886Y3505D02*
D03*
X2850Y3541D02*
D03*
X2815Y3576D02*
D03*
X2780Y3612D02*
D03*
X2744Y3647D02*
D03*
X2709Y3682D02*
D03*
X2674Y3718D02*
D03*
D53*
X3702D02*
D03*
X3666Y3682D02*
D03*
X3631Y3647D02*
D03*
X3596Y3612D02*
D03*
X3560Y3576D02*
D03*
X3525Y3541D02*
D03*
X3489Y3505D02*
D03*
X3454Y3469D02*
D03*
X3418Y3434D02*
D03*
X3383Y3399D02*
D03*
X3348Y3363D02*
D03*
X3312Y3328D02*
D03*
X2674Y3965D02*
D03*
X2710Y4001D02*
D03*
X2746Y4037D02*
D03*
X2780Y4071D02*
D03*
X2816Y4107D02*
D03*
X2852Y4143D02*
D03*
X2887Y4179D02*
D03*
X2923Y4214D02*
D03*
X2958Y4250D02*
D03*
X2993Y4285D02*
D03*
X3029Y4320D02*
D03*
X3064Y4356D02*
D03*
D54*
X3861Y3884D02*
D03*
X3805Y3827D02*
D03*
X4283Y3353D02*
D03*
X4226Y3297D02*
D03*
X4140Y3345D02*
D03*
X4196Y3401D02*
D03*
D55*
X4940Y3172D02*
D03*
X5065D02*
D03*
X5191D02*
D03*
X5316D02*
D03*
Y2951D02*
D03*
X5191D02*
D03*
X5065D02*
D03*
X4940D02*
D03*
D56*
X3977Y3389D02*
D03*
X3820Y3546D02*
D03*
X4098Y3510D02*
D03*
X3941Y3667D02*
D03*
D57*
X3229Y3645D02*
D03*
X3157Y3716D02*
D03*
D58*
X5524Y3749D02*
D03*
X5725Y3469D02*
D03*
X5524D02*
D03*
D59*
X5564Y3749D02*
D03*
X5604D02*
D03*
X5644D02*
D03*
X5685D02*
D03*
Y3469D02*
D03*
X5644D02*
D03*
X5604D02*
D03*
X5564D02*
D03*
D60*
X5725Y3749D02*
D03*
D61*
X5764Y3711D02*
D03*
D62*
Y3670D02*
D03*
Y3630D02*
D03*
Y3589D02*
D03*
Y3549D02*
D03*
X5484D02*
D03*
Y3589D02*
D03*
Y3630D02*
D03*
Y3670D02*
D03*
D63*
X5764Y3509D02*
D03*
X5484D02*
D03*
Y3711D02*
D03*
D69*
X5291Y5570D02*
D03*
X5371D02*
D03*
D70*
X3170Y4080D02*
D03*
D71*
X5791Y6022D02*
D03*
X2791D02*
D03*
Y3023D02*
D03*
M02*
