G04 Layer_Color=2752767*
%FSLAX42Y42*%
%MOMM*%
G71*
G01*
G75*
%ADD279C,0.05*%
D279*
X3876Y2875D02*
X3886Y2885D01*
X3896D01*
X3886Y2896D01*
X3896Y2906D01*
X3886D01*
X3876Y2916D01*
X3866Y2906D01*
X3856D01*
X3866Y2896D01*
X3856Y2885D01*
X3866D01*
X3876Y2875D01*
X5514Y3213D02*
X5524Y3233D01*
X5514Y3254D01*
X5535Y3244D01*
X5555Y3254D01*
X5545Y3233D01*
X5555Y3213D01*
X5535Y3223D01*
X5514Y3213D01*
X2639Y3731D02*
X2649Y3741D01*
X2659D01*
X2649Y3752D01*
X2659Y3762D01*
X2649D01*
X2639Y3772D01*
X2629Y3762D01*
X2619D01*
X2629Y3752D01*
X2619Y3741D01*
X2629D01*
X2639Y3731D01*
X4562Y4387D02*
X4572Y4397D01*
X4582D01*
X4572Y4407D01*
X4582Y4417D01*
X4572D01*
X4562Y4427D01*
X4552Y4417D01*
X4542D01*
X4552Y4407D01*
X4542Y4397D01*
X4552D01*
X4562Y4387D01*
X4692Y4390D02*
X4702Y4400D01*
X4712D01*
X4702Y4410D01*
X4712Y4421D01*
X4702D01*
X4692Y4431D01*
X4682Y4421D01*
X4672D01*
X4682Y4410D01*
X4672Y4400D01*
X4682D01*
X4692Y4390D01*
X4844Y4600D02*
X4854Y4610D01*
X4864D01*
X4854Y4620D01*
X4864Y4630D01*
X4854D01*
X4844Y4641D01*
X4834Y4630D01*
X4823D01*
X4834Y4620D01*
X4823Y4610D01*
X4834D01*
X4844Y4600D01*
X4191Y5537D02*
X4201Y5547D01*
X4211D01*
X4201Y5558D01*
X4211Y5568D01*
X4201D01*
X4191Y5578D01*
X4181Y5568D01*
X4171D01*
X4181Y5558D01*
X4171Y5547D01*
X4181D01*
X4191Y5537D01*
X4905Y4285D02*
X4915Y4295D01*
X4925D01*
X4915Y4305D01*
X4925Y4315D01*
X4915D01*
X4905Y4326D01*
X4895Y4315D01*
X4884D01*
X4895Y4305D01*
X4884Y4295D01*
X4895D01*
X4905Y4285D01*
X4557Y4102D02*
X4567Y4112D01*
X4577D01*
X4567Y4122D01*
X4577Y4133D01*
X4567D01*
X4557Y4143D01*
X4547Y4133D01*
X4536D01*
X4547Y4122D01*
X4536Y4112D01*
X4547D01*
X4557Y4102D01*
X4498Y4171D02*
X4508Y4181D01*
X4519D01*
X4508Y4191D01*
X4519Y4201D01*
X4508D01*
X4498Y4211D01*
X4488Y4201D01*
X4478D01*
X4488Y4191D01*
X4478Y4181D01*
X4488D01*
X4498Y4171D01*
X3546Y4717D02*
X3556Y4727D01*
X3566D01*
X3556Y4737D01*
X3566Y4747D01*
X3556D01*
X3546Y4757D01*
X3536Y4747D01*
X3526D01*
X3536Y4737D01*
X3526Y4727D01*
X3536D01*
X3546Y4717D01*
X3851Y4348D02*
X3861Y4359D01*
X3871D01*
X3861Y4369D01*
X3871Y4379D01*
X3861D01*
X3851Y4389D01*
X3840Y4379D01*
X3830D01*
X3840Y4369D01*
X3830Y4359D01*
X3840D01*
X3851Y4348D01*
X3635Y4729D02*
X3645Y4740D01*
X3655D01*
X3645Y4750D01*
X3655Y4760D01*
X3645D01*
X3635Y4770D01*
X3625Y4760D01*
X3614D01*
X3625Y4750D01*
X3614Y4740D01*
X3625D01*
X3635Y4729D01*
X5756Y4615D02*
X5766Y4625D01*
X5776D01*
X5766Y4635D01*
X5776Y4646D01*
X5766D01*
X5756Y4656D01*
X5745Y4646D01*
X5735D01*
X5745Y4635D01*
X5735Y4625D01*
X5745D01*
X5756Y4615D01*
X5019Y4628D02*
X5029Y4638D01*
X5039D01*
X5029Y4648D01*
X5039Y4658D01*
X5029D01*
X5019Y4669D01*
X5009Y4658D01*
X4999D01*
X5009Y4648D01*
X4999Y4638D01*
X5009D01*
X5019Y4628D01*
X5806Y5593D02*
X5817Y5603D01*
X5827D01*
X5817Y5613D01*
X5827Y5624D01*
X5817D01*
X5806Y5634D01*
X5796Y5624D01*
X5786D01*
X5796Y5613D01*
X5786Y5603D01*
X5796D01*
X5806Y5593D01*
X5794Y4793D02*
X5804Y4803D01*
X5814D01*
X5804Y4813D01*
X5814Y4823D01*
X5804D01*
X5794Y4834D01*
X5784Y4823D01*
X5773D01*
X5784Y4813D01*
X5773Y4803D01*
X5784D01*
X5794Y4793D01*
X5883Y3485D02*
X5893Y3495D01*
X5903D01*
X5893Y3505D01*
X5903Y3515D01*
X5893D01*
X5883Y3526D01*
X5872Y3515D01*
X5862D01*
X5872Y3505D01*
X5862Y3495D01*
X5872D01*
X5883Y3485D01*
X5387Y3218D02*
X5397Y3228D01*
X5408D01*
X5397Y3238D01*
X5408Y3249D01*
X5397D01*
X5387Y3259D01*
X5377Y3249D01*
X5367D01*
X5377Y3238D01*
X5367Y3228D01*
X5377D01*
X5387Y3218D01*
X2771Y4704D02*
X2781Y4714D01*
X2791D01*
X2781Y4724D01*
X2791Y4735D01*
X2781D01*
X2771Y4745D01*
X2761Y4735D01*
X2751D01*
X2761Y4724D01*
X2751Y4714D01*
X2761D01*
X2771Y4704D01*
X2758Y5580D02*
X2769Y5591D01*
X2779D01*
X2769Y5601D01*
X2779Y5611D01*
X2769D01*
X2758Y5621D01*
X2748Y5611D01*
X2738D01*
X2748Y5601D01*
X2738Y5591D01*
X2748D01*
X2758Y5580D01*
X4752Y4412D02*
X4762Y4422D01*
X4773D01*
X4762Y4432D01*
X4773Y4442D01*
X4762D01*
X4752Y4453D01*
X4742Y4442D01*
X4732D01*
X4742Y4432D01*
X4732Y4422D01*
X4742D01*
X4752Y4412D01*
X5319Y5105D02*
X5329Y5116D01*
X5339D01*
X5329Y5126D01*
X5339Y5136D01*
X5329D01*
X5319Y5146D01*
X5309Y5136D01*
X5298D01*
X5309Y5126D01*
X5298Y5116D01*
X5309D01*
X5319Y5105D01*
X5286Y4679D02*
X5296Y4689D01*
X5306D01*
X5296Y4699D01*
X5306Y4709D01*
X5296D01*
X5286Y4719D01*
X5276Y4709D01*
X5265D01*
X5276Y4699D01*
X5265Y4689D01*
X5276D01*
X5286Y4679D01*
X4333Y4856D02*
X4343Y4867D01*
X4354D01*
X4343Y4877D01*
X4354Y4887D01*
X4343D01*
X4333Y4897D01*
X4323Y4887D01*
X4313D01*
X4323Y4877D01*
X4313Y4867D01*
X4323D01*
X4333Y4856D01*
X4295Y4120D02*
X4305Y4130D01*
X4315D01*
X4305Y4140D01*
X4315Y4150D01*
X4305D01*
X4295Y4161D01*
X4285Y4150D01*
X4275D01*
X4285Y4140D01*
X4275Y4130D01*
X4285D01*
X4295Y4120D01*
X4117Y5072D02*
X4128Y5083D01*
X4138D01*
X4128Y5093D01*
X4138Y5103D01*
X4128D01*
X4117Y5113D01*
X4107Y5103D01*
X4097D01*
X4107Y5093D01*
X4097Y5083D01*
X4107D01*
X4117Y5072D01*
X5413Y5136D02*
X5423Y5146D01*
X5433D01*
X5423Y5156D01*
X5433Y5166D01*
X5423D01*
X5413Y5177D01*
X5403Y5166D01*
X5392D01*
X5403Y5156D01*
X5392Y5146D01*
X5403D01*
X5413Y5136D01*
X4384Y4234D02*
X4394Y4244D01*
X4404D01*
X4394Y4254D01*
X4404Y4265D01*
X4394D01*
X4384Y4275D01*
X4374Y4265D01*
X4364D01*
X4374Y4254D01*
X4364Y4244D01*
X4374D01*
X4384Y4234D01*
X4308Y5136D02*
X4318Y5146D01*
X4328D01*
X4318Y5156D01*
X4328Y5166D01*
X4318D01*
X4308Y5177D01*
X4298Y5166D01*
X4288D01*
X4298Y5156D01*
X4288Y5146D01*
X4298D01*
X4308Y5136D01*
X3724Y4742D02*
X3734Y4752D01*
X3744D01*
X3734Y4762D01*
X3744Y4773D01*
X3734D01*
X3724Y4783D01*
X3713Y4773D01*
X3703D01*
X3713Y4762D01*
X3703Y4752D01*
X3713D01*
X3724Y4742D01*
X4778Y2926D02*
X4788Y2936D01*
X4798D01*
X4788Y2946D01*
X4798Y2957D01*
X4788D01*
X4778Y2967D01*
X4768Y2957D01*
X4757D01*
X4768Y2946D01*
X4757Y2936D01*
X4768D01*
X4778Y2926D01*
X5387Y3294D02*
X5397Y3305D01*
X5408D01*
X5397Y3315D01*
X5408Y3325D01*
X5397D01*
X5387Y3335D01*
X5377Y3325D01*
X5367D01*
X5377Y3315D01*
X5367Y3305D01*
X5377D01*
X5387Y3294D01*
X5032Y4399D02*
X5042Y4409D01*
X5052D01*
X5042Y4420D01*
X5052Y4430D01*
X5042D01*
X5032Y4440D01*
X5022Y4430D01*
X5011D01*
X5022Y4420D01*
X5011Y4409D01*
X5022D01*
X5032Y4399D01*
X4041D02*
X4051Y4409D01*
X4061D01*
X4051Y4420D01*
X4061Y4430D01*
X4051D01*
X4041Y4440D01*
X4031Y4430D01*
X4021D01*
X4031Y4420D01*
X4021Y4409D01*
X4031D01*
X4041Y4399D01*
X2873Y3764D02*
X2883Y3774D01*
X2893D01*
X2883Y3785D01*
X2893Y3795D01*
X2883D01*
X2873Y3805D01*
X2863Y3795D01*
X2852D01*
X2863Y3785D01*
X2852Y3774D01*
X2863D01*
X2873Y3764D01*
X3254Y5695D02*
X3264Y5705D01*
X3274D01*
X3264Y5715D01*
X3274Y5725D01*
X3264D01*
X3254Y5735D01*
X3244Y5725D01*
X3233D01*
X3244Y5715D01*
X3233Y5705D01*
X3244D01*
X3254Y5695D01*
X5006Y2850D02*
X5017Y2860D01*
X5027D01*
X5017Y2870D01*
X5027Y2880D01*
X5017D01*
X5006Y2891D01*
X4996Y2880D01*
X4986D01*
X4996Y2870D01*
X4986Y2860D01*
X4996D01*
X5006Y2850D01*
X5908Y3739D02*
X5918Y3749D01*
X5928D01*
X5918Y3759D01*
X5928Y3769D01*
X5918D01*
X5908Y3780D01*
X5898Y3769D01*
X5888D01*
X5898Y3759D01*
X5888Y3749D01*
X5898D01*
X5908Y3739D01*
X5845Y5123D02*
X5855Y5133D01*
X5865D01*
X5855Y5144D01*
X5865Y5154D01*
X5855D01*
X5845Y5164D01*
X5834Y5154D01*
X5824D01*
X5834Y5144D01*
X5824Y5133D01*
X5834D01*
X5845Y5123D01*
Y5199D02*
X5855Y5210D01*
X5865D01*
X5855Y5220D01*
X5865Y5230D01*
X5855D01*
X5845Y5240D01*
X5834Y5230D01*
X5824D01*
X5834Y5220D01*
X5824Y5210D01*
X5834D01*
X5845Y5199D01*
X5232Y5758D02*
X5243Y5768D01*
X5253D01*
X5243Y5778D01*
X5253Y5789D01*
X5243D01*
X5232Y5799D01*
X5222Y5789D01*
X5212D01*
X5222Y5778D01*
X5212Y5768D01*
X5222D01*
X5232Y5758D01*
X5197Y4590D02*
X5207Y4600D01*
X5217D01*
X5207Y4610D01*
X5217Y4620D01*
X5207D01*
X5197Y4630D01*
X5187Y4620D01*
X5177D01*
X5187Y4610D01*
X5177Y4600D01*
X5187D01*
X5197Y4590D01*
X2936Y4234D02*
X2946Y4244D01*
X2957D01*
X2946Y4254D01*
X2957Y4265D01*
X2946D01*
X2936Y4275D01*
X2926Y4265D01*
X2916D01*
X2926Y4254D01*
X2916Y4244D01*
X2926D01*
X2936Y4234D01*
X4163Y2962D02*
X4173Y2972D01*
X4183D01*
X4173Y2982D01*
X4183Y2992D01*
X4173D01*
X4163Y3002D01*
X4153Y2992D01*
X4143D01*
X4153Y2982D01*
X4143Y2972D01*
X4153D01*
X4163Y2962D01*
X3901Y4806D02*
X3912Y4816D01*
X3922D01*
X3912Y4826D01*
X3922Y4836D01*
X3912D01*
X3901Y4846D01*
X3891Y4836D01*
X3881D01*
X3891Y4826D01*
X3881Y4816D01*
X3891D01*
X3901Y4806D01*
Y3358D02*
X3912Y3368D01*
X3922D01*
X3912Y3378D01*
X3922Y3388D01*
X3912D01*
X3901Y3399D01*
X3891Y3388D01*
X3881D01*
X3891Y3378D01*
X3881Y3368D01*
X3891D01*
X3901Y3358D01*
X3965Y3269D02*
X3975Y3279D01*
X3985D01*
X3975Y3289D01*
X3985Y3299D01*
X3975D01*
X3965Y3310D01*
X3955Y3299D01*
X3945D01*
X3955Y3289D01*
X3945Y3279D01*
X3955D01*
X3965Y3269D01*
X4016Y3332D02*
X4026Y3343D01*
X4036D01*
X4026Y3353D01*
X4036Y3363D01*
X4026D01*
X4016Y3373D01*
X4006Y3363D01*
X3995D01*
X4006Y3353D01*
X3995Y3343D01*
X4006D01*
X4016Y3332D01*
X4067Y3277D02*
X4077Y3287D01*
X4087D01*
X4077Y3297D01*
X4087Y3307D01*
X4077D01*
X4067Y3317D01*
X4056Y3307D01*
X4046D01*
X4056Y3297D01*
X4046Y3287D01*
X4056D01*
X4067Y3277D01*
X4219Y3231D02*
X4229Y3241D01*
X4239D01*
X4229Y3251D01*
X4239Y3261D01*
X4229D01*
X4219Y3272D01*
X4209Y3261D01*
X4199D01*
X4209Y3251D01*
X4199Y3241D01*
X4209D01*
X4219Y3231D01*
X5044Y3421D02*
X5055Y3432D01*
X5065D01*
X5055Y3442D01*
X5065Y3452D01*
X5055D01*
X5044Y3462D01*
X5034Y3452D01*
X5024D01*
X5034Y3442D01*
X5024Y3432D01*
X5034D01*
X5044Y3421D01*
X4994Y3256D02*
X5004Y3266D01*
X5014D01*
X5004Y3277D01*
X5014Y3287D01*
X5004D01*
X4994Y3297D01*
X4983Y3287D01*
X4973D01*
X4983Y3277D01*
X4973Y3266D01*
X4983D01*
X4994Y3256D01*
X5146D02*
X5156Y3266D01*
X5166D01*
X5156Y3277D01*
X5166Y3287D01*
X5156D01*
X5146Y3297D01*
X5136Y3287D01*
X5126D01*
X5136Y3277D01*
X5126Y3266D01*
X5136D01*
X5146Y3256D01*
X5095Y3294D02*
X5105Y3305D01*
X5116D01*
X5105Y3315D01*
X5116Y3325D01*
X5105D01*
X5095Y3335D01*
X5085Y3325D01*
X5075D01*
X5085Y3315D01*
X5075Y3305D01*
X5085D01*
X5095Y3294D01*
X3368Y5999D02*
X3378Y6010D01*
X3388D01*
X3378Y6020D01*
X3388Y6030D01*
X3378D01*
X3368Y6040D01*
X3358Y6030D01*
X3348D01*
X3358Y6020D01*
X3348Y6010D01*
X3358D01*
X3368Y5999D01*
X5476Y4793D02*
X5486Y4803D01*
X5497D01*
X5486Y4813D01*
X5497Y4823D01*
X5486D01*
X5476Y4834D01*
X5466Y4823D01*
X5456D01*
X5466Y4813D01*
X5456Y4803D01*
X5466D01*
X5476Y4793D01*
X4892Y3053D02*
X4902Y3063D01*
X4912D01*
X4902Y3073D01*
X4912Y3084D01*
X4902D01*
X4892Y3094D01*
X4882Y3084D01*
X4872D01*
X4882Y3073D01*
X4872Y3063D01*
X4882D01*
X4892Y3053D01*
X4740Y4094D02*
X4750Y4105D01*
X4760D01*
X4750Y4115D01*
X4760Y4125D01*
X4750D01*
X4740Y4135D01*
X4729Y4125D01*
X4719D01*
X4729Y4115D01*
X4719Y4105D01*
X4729D01*
X4740Y4094D01*
X4219Y4996D02*
X4229Y5006D01*
X4239D01*
X4229Y5017D01*
X4239Y5027D01*
X4229D01*
X4219Y5037D01*
X4209Y5027D01*
X4199D01*
X4209Y5017D01*
X4199Y5006D01*
X4209D01*
X4219Y4996D01*
X5210Y5504D02*
X5220Y5514D01*
X5230D01*
X5220Y5524D01*
X5230Y5535D01*
X5220D01*
X5210Y5545D01*
X5199Y5535D01*
X5189D01*
X5199Y5524D01*
X5189Y5514D01*
X5199D01*
X5210Y5504D01*
X5250Y4625D02*
X5260Y4635D01*
X5271D01*
X5260Y4646D01*
X5271Y4656D01*
X5260D01*
X5250Y4666D01*
X5240Y4656D01*
X5230D01*
X5240Y4646D01*
X5230Y4635D01*
X5240D01*
X5250Y4625D01*
X4003Y3447D02*
X4013Y3457D01*
X4023D01*
X4013Y3467D01*
X4023Y3477D01*
X4013D01*
X4003Y3487D01*
X3993Y3477D01*
X3983D01*
X3993Y3467D01*
X3983Y3457D01*
X3993D01*
X4003Y3447D01*
X5032Y5428D02*
X5042Y5438D01*
X5052D01*
X5042Y5448D01*
X5052Y5458D01*
X5042D01*
X5032Y5469D01*
X5022Y5458D01*
X5011D01*
X5022Y5448D01*
X5011Y5438D01*
X5022D01*
X5032Y5428D01*
X3559Y4196D02*
X3569Y4206D01*
X3579D01*
X3569Y4216D01*
X3579Y4227D01*
X3569D01*
X3559Y4237D01*
X3548Y4227D01*
X3538D01*
X3548Y4216D01*
X3538Y4206D01*
X3548D01*
X3559Y4196D01*
X5116Y3726D02*
X5126Y3747D01*
X5116Y3767D01*
X5136Y3757D01*
X5156Y3767D01*
X5146Y3747D01*
X5156Y3726D01*
X5136Y3736D01*
X5116Y3726D01*
X5024Y3736D02*
X5034Y3757D01*
X5024Y3777D01*
X5044Y3767D01*
X5065Y3777D01*
X5055Y3757D01*
X5065Y3736D01*
X5044Y3747D01*
X5024Y3736D01*
X2733Y4209D02*
X2743Y4219D01*
X2753D01*
X2743Y4229D01*
X2753Y4239D01*
X2743D01*
X2733Y4249D01*
X2723Y4239D01*
X2713D01*
X2723Y4229D01*
X2713Y4219D01*
X2723D01*
X2733Y4209D01*
X4856Y3002D02*
X4867Y3012D01*
X4877D01*
X4867Y3023D01*
X4877Y3033D01*
X4867D01*
X4856Y3043D01*
X4846Y3033D01*
X4836D01*
X4846Y3023D01*
X4836Y3012D01*
X4846D01*
X4856Y3002D01*
X5560Y3292D02*
X5570Y3313D01*
X5560Y3333D01*
X5580Y3323D01*
X5601Y3333D01*
X5590Y3313D01*
X5601Y3292D01*
X5580Y3303D01*
X5560Y3292D01*
X4224Y2969D02*
X4234Y2979D01*
X4244D01*
X4234Y2990D01*
X4244Y3000D01*
X4234D01*
X4224Y3010D01*
X4214Y3000D01*
X4204D01*
X4214Y2990D01*
X4204Y2979D01*
X4214D01*
X4224Y2969D01*
X4056Y2875D02*
X4066Y2885D01*
X4076D01*
X4066Y2895D01*
X4076Y2905D01*
X4066D01*
X4056Y2915D01*
X4045Y2905D01*
X4035D01*
X4045Y2895D01*
X4035Y2885D01*
X4045D01*
X4056Y2875D01*
X2680Y4074D02*
X2690Y4084D01*
X2700D01*
X2690Y4094D01*
X2700Y4105D01*
X2690D01*
X2680Y4115D01*
X2670Y4105D01*
X2659D01*
X2670Y4094D01*
X2659Y4084D01*
X2670D01*
X2680Y4074D01*
X5413Y6114D02*
X5423Y6124D01*
X5433D01*
X5423Y6134D01*
X5433Y6144D01*
X5423D01*
X5413Y6154D01*
X5403Y6144D01*
X5392D01*
X5403Y6134D01*
X5392Y6124D01*
X5403D01*
X5413Y6114D01*
X5380Y5878D02*
X5390Y5888D01*
X5400D01*
X5390Y5898D01*
X5400Y5908D01*
X5390D01*
X5380Y5918D01*
X5370Y5908D01*
X5359D01*
X5370Y5898D01*
X5359Y5888D01*
X5370D01*
X5380Y5878D01*
X4460Y2951D02*
X4470Y2962D01*
X4481D01*
X4470Y2972D01*
X4481Y2982D01*
X4470D01*
X4460Y2992D01*
X4450Y2982D01*
X4440D01*
X4450Y2972D01*
X4440Y2962D01*
X4450D01*
X4460Y2951D01*
X2967Y2984D02*
X2977Y3005D01*
X2967Y3025D01*
X2987Y3015D01*
X3007Y3025D01*
X2997Y3005D01*
X3007Y2984D01*
X2987Y2995D01*
X2967Y2984D01*
X3774Y2875D02*
X3785Y2885D01*
X3795D01*
X3785Y2896D01*
X3795Y2906D01*
X3785D01*
X3774Y2916D01*
X3764Y2906D01*
X3754D01*
X3764Y2896D01*
X3754Y2885D01*
X3764D01*
X3774Y2875D01*
X3043Y3785D02*
X3053Y3795D01*
X3063D01*
X3053Y3805D01*
X3063Y3815D01*
X3053D01*
X3043Y3825D01*
X3033Y3815D01*
X3023D01*
X3033Y3805D01*
X3023Y3795D01*
X3033D01*
X3043Y3785D01*
X3315Y4702D02*
X3325Y4722D01*
X3315Y4742D01*
X3335Y4732D01*
X3355Y4742D01*
X3345Y4722D01*
X3355Y4702D01*
X3335Y4712D01*
X3315Y4702D01*
X3607Y3851D02*
X3617Y3871D01*
X3607Y3891D01*
X3627Y3881D01*
X3647Y3891D01*
X3637Y3871D01*
X3647Y3851D01*
X3627Y3861D01*
X3607Y3851D01*
X3526Y3764D02*
X3536Y3774D01*
X3546D01*
X3536Y3785D01*
X3546Y3795D01*
X3536D01*
X3526Y3805D01*
X3515Y3795D01*
X3505D01*
X3515Y3785D01*
X3505Y3774D01*
X3515D01*
X3526Y3764D01*
X3538Y2929D02*
X3548Y2939D01*
X3559D01*
X3548Y2949D01*
X3559Y2959D01*
X3548D01*
X3538Y2969D01*
X3528Y2959D01*
X3518D01*
X3528Y2949D01*
X3518Y2939D01*
X3528D01*
X3538Y2929D01*
X3846Y3320D02*
X3856Y3330D01*
X3866D01*
X3856Y3340D01*
X3866Y3350D01*
X3856D01*
X3846Y3360D01*
X3835Y3350D01*
X3825D01*
X3835Y3340D01*
X3825Y3330D01*
X3835D01*
X3846Y3320D01*
X3358Y3767D02*
X3368Y3777D01*
X3378D01*
X3368Y3787D01*
X3378Y3797D01*
X3368D01*
X3358Y3807D01*
X3348Y3797D01*
X3338D01*
X3348Y3787D01*
X3338Y3777D01*
X3348D01*
X3358Y3767D01*
X3637Y3142D02*
X3647Y3152D01*
X3658D01*
X3647Y3162D01*
X3658Y3172D01*
X3647D01*
X3637Y3183D01*
X3627Y3172D01*
X3617D01*
X3627Y3162D01*
X3617Y3152D01*
X3627D01*
X3637Y3142D01*
X3736Y3320D02*
X3747Y3330D01*
X3757D01*
X3747Y3340D01*
X3757Y3350D01*
X3747D01*
X3736Y3360D01*
X3726Y3350D01*
X3716D01*
X3726Y3340D01*
X3716Y3330D01*
X3726D01*
X3736Y3320D01*
X3734Y3228D02*
X3744Y3238D01*
X3754D01*
X3744Y3249D01*
X3754Y3259D01*
X3744D01*
X3734Y3269D01*
X3724Y3259D01*
X3713D01*
X3724Y3249D01*
X3713Y3238D01*
X3724D01*
X3734Y3228D01*
X3482Y3073D02*
X3492Y3093D01*
X3482Y3113D01*
X3502Y3103D01*
X3522Y3113D01*
X3512Y3093D01*
X3522Y3073D01*
X3502Y3083D01*
X3482Y3073D01*
X3043Y3089D02*
X3053Y3109D01*
X3043Y3129D01*
X3063Y3119D01*
X3084Y3129D01*
X3073Y3109D01*
X3084Y3089D01*
X3063Y3099D01*
X3043Y3089D01*
X3188Y4166D02*
X3198Y4186D01*
X3188Y4206D01*
X3208Y4196D01*
X3228Y4206D01*
X3218Y4186D01*
X3228Y4166D01*
X3208Y4176D01*
X3188Y4166D01*
X3388Y3055D02*
X3398Y3075D01*
X3388Y3096D01*
X3408Y3086D01*
X3429Y3096D01*
X3419Y3075D01*
X3429Y3055D01*
X3408Y3065D01*
X3388Y3055D01*
X3495Y3015D02*
X3505Y3025D01*
X3515D01*
X3505Y3035D01*
X3515Y3045D01*
X3505D01*
X3495Y3056D01*
X3485Y3045D01*
X3475D01*
X3485Y3035D01*
X3475Y3025D01*
X3485D01*
X3495Y3015D01*
X3526Y3106D02*
X3536Y3127D01*
X3526Y3147D01*
X3546Y3137D01*
X3566Y3147D01*
X3556Y3127D01*
X3566Y3106D01*
X3546Y3117D01*
X3526Y3106D01*
X3039Y3567D02*
X3050Y3587D01*
X3039Y3607D01*
X3060Y3597D01*
X3080Y3607D01*
X3070Y3587D01*
X3080Y3567D01*
X3060Y3577D01*
X3039Y3567D01*
X3612Y3635D02*
X3622Y3655D01*
X3612Y3675D01*
X3632Y3665D01*
X3653Y3675D01*
X3642Y3655D01*
X3653Y3635D01*
X3632Y3645D01*
X3612Y3635D01*
X3162Y3099D02*
X3172Y3109D01*
X3183D01*
X3172Y3119D01*
X3183Y3129D01*
X3172D01*
X3162Y3139D01*
X3152Y3129D01*
X3142D01*
X3152Y3119D01*
X3142Y3109D01*
X3152D01*
X3162Y3099D01*
X3376Y3104D02*
X3386Y3114D01*
X3396D01*
X3386Y3124D01*
X3396Y3134D01*
X3386D01*
X3376Y3145D01*
X3365Y3134D01*
X3355D01*
X3365Y3124D01*
X3355Y3114D01*
X3365D01*
X3376Y3104D01*
X3315Y3101D02*
X3325Y3111D01*
X3335D01*
X3325Y3122D01*
X3335Y3132D01*
X3325D01*
X3315Y3142D01*
X3305Y3132D01*
X3294D01*
X3305Y3122D01*
X3294Y3111D01*
X3305D01*
X3315Y3101D01*
X3254Y3096D02*
X3264Y3106D01*
X3274D01*
X3264Y3117D01*
X3274Y3127D01*
X3264D01*
X3254Y3137D01*
X3244Y3127D01*
X3233D01*
X3244Y3117D01*
X3233Y3106D01*
X3244D01*
X3254Y3096D01*
X3209Y3278D02*
X3219Y3288D01*
X3230D01*
X3219Y3298D01*
X3230Y3308D01*
X3219D01*
X3209Y3318D01*
X3199Y3308D01*
X3189D01*
X3199Y3298D01*
X3189Y3288D01*
X3199D01*
X3209Y3278D01*
X3279Y3279D02*
X3289Y3289D01*
X3299D01*
X3289Y3299D01*
X3299Y3310D01*
X3289D01*
X3279Y3320D01*
X3269Y3310D01*
X3259D01*
X3269Y3299D01*
X3259Y3289D01*
X3269D01*
X3279Y3279D01*
X3353Y3277D02*
X3363Y3287D01*
X3373D01*
X3363Y3297D01*
X3373Y3307D01*
X3363D01*
X3353Y3317D01*
X3343Y3307D01*
X3332D01*
X3343Y3297D01*
X3332Y3287D01*
X3343D01*
X3353Y3277D01*
X3421D02*
X3432Y3287D01*
X3442D01*
X3432Y3297D01*
X3442Y3307D01*
X3432D01*
X3421Y3317D01*
X3411Y3307D01*
X3401D01*
X3411Y3297D01*
X3401Y3287D01*
X3411D01*
X3421Y3277D01*
X3426Y3416D02*
X3437Y3426D01*
X3447D01*
X3437Y3437D01*
X3447Y3447D01*
X3437D01*
X3426Y3457D01*
X3416Y3447D01*
X3406D01*
X3416Y3437D01*
X3406Y3426D01*
X3416D01*
X3426Y3416D01*
X3355D02*
X3365Y3426D01*
X3376D01*
X3365Y3437D01*
X3376Y3447D01*
X3365D01*
X3355Y3457D01*
X3345Y3447D01*
X3335D01*
X3345Y3437D01*
X3335Y3426D01*
X3345D01*
X3355Y3416D01*
X3289D02*
X3299Y3426D01*
X3310D01*
X3299Y3437D01*
X3310Y3447D01*
X3299D01*
X3289Y3457D01*
X3279Y3447D01*
X3269D01*
X3279Y3437D01*
X3269Y3426D01*
X3279D01*
X3289Y3416D01*
X3185Y3353D02*
X3195Y3363D01*
X3205D01*
X3195Y3373D01*
X3205Y3383D01*
X3195D01*
X3185Y3393D01*
X3175Y3383D01*
X3165D01*
X3175Y3373D01*
X3165Y3363D01*
X3175D01*
X3185Y3353D01*
X4384Y5199D02*
X4394Y5210D01*
X4404D01*
X4394Y5220D01*
X4404Y5230D01*
X4394D01*
X4384Y5240D01*
X4374Y5230D01*
X4364D01*
X4374Y5220D01*
X4364Y5210D01*
X4374D01*
X4384Y5199D01*
M02*
