G04 Layer_Color=128*
%FSLAX42Y42*%
%MOMM*%
G71*
G01*
G75*
%ADD279C,0.05*%
D279*
X5276Y5570D02*
X5306D01*
X5291Y5555D02*
Y5585D01*
X5356Y5570D02*
X5387D01*
X5371Y5555D02*
Y5585D01*
X4681Y2913D02*
X4712D01*
X4696Y2898D02*
Y2929D01*
X2888Y5283D02*
X2918D01*
X2903Y5268D02*
Y5298D01*
X4681Y2913D02*
X4712D01*
X4696Y2898D02*
Y2929D01*
X3137Y4080D02*
X3203D01*
X3170Y4047D02*
Y4113D01*
X5701Y6022D02*
X5881D01*
X5791Y5932D02*
Y6113D01*
X2701Y6022D02*
X2882D01*
X2791Y5932D02*
Y6113D01*
X2701Y3023D02*
X2882D01*
X2791Y2932D02*
Y3113D01*
X3010Y3851D02*
X3030D01*
X3020Y3840D02*
Y3861D01*
X5578Y3856D02*
X5598D01*
X5588Y3846D02*
Y3866D01*
X5682Y3409D02*
X5702D01*
X5692Y3399D02*
Y3419D01*
X4044Y3061D02*
X4064D01*
X4054Y3051D02*
Y3071D01*
X3828Y3012D02*
X3848D01*
X3838Y3002D02*
Y3023D01*
X2872Y3429D02*
X2892D01*
X2882Y3419D02*
Y3439D01*
X4585Y4254D02*
X4605D01*
X4595Y4244D02*
Y4265D01*
X4605Y4321D02*
X4625D01*
X4615Y4311D02*
Y4331D01*
X4755Y4371D02*
X4775D01*
X4765Y4361D02*
Y4381D01*
X4529Y5204D02*
X4549D01*
X4539Y5194D02*
Y5215D01*
X4727Y4973D02*
X4747D01*
X4737Y4963D02*
Y4983D01*
X4564Y4966D02*
X4585D01*
X4575Y4956D02*
Y4976D01*
X4856Y5105D02*
X4877D01*
X4867Y5095D02*
Y5116D01*
X4666Y5093D02*
X4686D01*
X4676Y5083D02*
Y5103D01*
X4107Y4267D02*
X4128D01*
X4117Y4257D02*
Y4277D01*
X4031Y4356D02*
X4051D01*
X4041Y4346D02*
Y4366D01*
X4145Y4381D02*
X4166D01*
X4155Y4371D02*
Y4392D01*
X4265Y3256D02*
X4285D01*
X4275Y3246D02*
Y3266D01*
X4267Y3183D02*
X4288D01*
X4277Y3172D02*
Y3193D01*
X4206Y3167D02*
X4227D01*
X4216Y3157D02*
Y3178D01*
X3730Y5151D02*
X3750D01*
X3740Y5141D02*
Y5161D01*
X3774Y5098D02*
X3795D01*
X3785Y5088D02*
Y5108D01*
X3907Y5215D02*
X3927D01*
X3917Y5204D02*
Y5225D01*
X3889Y5324D02*
X3909D01*
X3899Y5314D02*
Y5334D01*
X4161Y5446D02*
X4181D01*
X4171Y5436D02*
Y5456D01*
X3406Y5027D02*
X3426D01*
X3416Y5017D02*
Y5037D01*
X3556Y4379D02*
X3576D01*
X3566Y4369D02*
Y4389D01*
X3396Y4775D02*
X3416D01*
X3406Y4765D02*
Y4785D01*
X3302Y4227D02*
X3322D01*
X3312Y4216D02*
Y4237D01*
X3975Y4635D02*
X3995D01*
X3985Y4625D02*
Y4646D01*
X3025Y4823D02*
X3045D01*
X3035Y4813D02*
Y4834D01*
X3940Y4343D02*
X3960D01*
X3950Y4333D02*
Y4354D01*
X3922Y4234D02*
X3942D01*
X3932Y4224D02*
Y4244D01*
X3790Y4318D02*
X3810D01*
X3800Y4308D02*
Y4328D01*
X3828Y4445D02*
X3848D01*
X3838Y4435D02*
Y4455D01*
X4689Y3833D02*
X4709D01*
X4699Y3823D02*
Y3843D01*
X3343Y4112D02*
X3363D01*
X3353Y4102D02*
Y4122D01*
X4905Y5639D02*
X4925D01*
X4915Y5629D02*
Y5649D01*
X4841Y5550D02*
X4862D01*
X4851Y5540D02*
Y5560D01*
X3228Y4902D02*
X3249D01*
X3238Y4892D02*
Y4912D01*
X4768Y5906D02*
X4788D01*
X4778Y5895D02*
Y5916D01*
X5034Y5982D02*
X5055D01*
X5044Y5972D02*
Y5992D01*
X5441Y5423D02*
X5461D01*
X5451Y5413D02*
Y5433D01*
X5446Y5575D02*
X5466D01*
X5456Y5565D02*
Y5585D01*
X5517Y5410D02*
X5537D01*
X5527Y5400D02*
Y5420D01*
X5479Y5791D02*
X5499D01*
X5489Y5781D02*
Y5801D01*
X5834Y3912D02*
X5855D01*
X5845Y3901D02*
Y3922D01*
X4628Y6121D02*
X4648D01*
X4638Y6111D02*
Y6132D01*
X4514Y6121D02*
X4534D01*
X4524Y6111D02*
Y6132D01*
X4044Y6083D02*
X4064D01*
X4054Y6073D02*
Y6093D01*
X3929Y6083D02*
X3950D01*
X3940Y6073D02*
Y6093D01*
X4590Y5906D02*
X4610D01*
X4600Y5895D02*
Y5916D01*
X4044Y5906D02*
X4064D01*
X4054Y5895D02*
Y5916D01*
X5636Y3345D02*
X5657D01*
X5646Y3335D02*
Y3355D01*
X3815Y6007D02*
X3835D01*
X3825Y5997D02*
Y6017D01*
X2697Y3416D02*
X2718D01*
X2708Y3406D02*
Y3426D01*
X5009Y4940D02*
X5029D01*
X5019Y4930D02*
Y4950D01*
X4234Y4762D02*
X4254D01*
X4244Y4752D02*
Y4773D01*
X4039Y4610D02*
X4059D01*
X4049Y4600D02*
Y4620D01*
X5166Y5578D02*
X5187D01*
X5177Y5568D02*
Y5588D01*
X5237Y6121D02*
X5258D01*
X5248Y6111D02*
Y6132D01*
X2748Y4813D02*
X2769D01*
X2758Y4803D02*
Y4823D01*
X3802Y6109D02*
X3823D01*
X3813Y6099D02*
Y6119D01*
X3396Y5524D02*
X3416D01*
X3406Y5514D02*
Y5535D01*
X3383Y4432D02*
X3404D01*
X3393Y4422D02*
Y4442D01*
X5250Y4191D02*
X5271D01*
X5260Y4181D02*
Y4201D01*
X3307Y5766D02*
X3327D01*
X3317Y5756D02*
Y5776D01*
X5072Y4674D02*
X5093D01*
X5083Y4663D02*
Y4684D01*
X2710Y3505D02*
X2731D01*
X2720Y3495D02*
Y3515D01*
X5479Y5728D02*
X5499D01*
X5489Y5718D02*
Y5738D01*
X3269Y4394D02*
X3289D01*
X3279Y4384D02*
Y4404D01*
X4768Y5245D02*
X4788D01*
X4778Y5235D02*
Y5255D01*
X3078Y4420D02*
X3099D01*
X3089Y4409D02*
Y4430D01*
X5199Y5385D02*
X5220D01*
X5210Y5375D02*
Y5395D01*
X2863Y5080D02*
X2883D01*
X2873Y5070D02*
Y5090D01*
X2926Y5131D02*
X2946D01*
X2936Y5121D02*
Y5141D01*
X5199Y5271D02*
X5220D01*
X5210Y5260D02*
Y5281D01*
X5237Y5207D02*
X5258D01*
X5248Y5197D02*
Y5217D01*
X3726Y4991D02*
X3747D01*
X3736Y4981D02*
Y5001D01*
X4196Y4813D02*
X4216D01*
X4206Y4803D02*
Y4823D01*
X4056Y4737D02*
X4077D01*
X4067Y4727D02*
Y4747D01*
X4051Y4135D02*
X4072D01*
X4061Y4125D02*
Y4145D01*
X4196Y4420D02*
X4216D01*
X4206Y4409D02*
Y4430D01*
X3955Y4420D02*
X3975D01*
X3965Y4409D02*
Y4430D01*
X2664Y3818D02*
X2685D01*
X2675Y3807D02*
Y3828D01*
X2774Y3391D02*
X2794D01*
X2784Y3381D02*
Y3401D01*
X4895Y4432D02*
X4915D01*
X4905Y4422D02*
Y4442D01*
X4920Y5994D02*
X4940D01*
X4930Y5984D02*
Y6005D01*
X4183Y4623D02*
X4204D01*
X4194Y4613D02*
Y4633D01*
X3218Y5258D02*
X3238D01*
X3228Y5248D02*
Y5268D01*
X5738Y4453D02*
X5758D01*
X5748Y4442D02*
Y4463D01*
X5796Y3404D02*
X5817D01*
X5806Y3393D02*
Y3414D01*
X5517Y5334D02*
X5537D01*
X5527Y5324D02*
Y5344D01*
X4895Y4115D02*
X4915D01*
X4905Y4105D02*
Y4125D01*
X5288Y3658D02*
X5309D01*
X5298Y3647D02*
Y3668D01*
X5047Y4115D02*
X5067D01*
X5057Y4105D02*
Y4125D01*
X4793Y3370D02*
X4813D01*
X4803Y3360D02*
Y3380D01*
X4719Y3399D02*
X4740D01*
X4729Y3388D02*
Y3409D01*
X4615Y3302D02*
X4635D01*
X4625Y3292D02*
Y3312D01*
X4590Y3391D02*
X4610D01*
X4600Y3381D02*
Y3401D01*
X4590Y3454D02*
X4610D01*
X4600Y3444D02*
Y3465D01*
X4387Y3404D02*
X4407D01*
X4397Y3393D02*
Y3414D01*
X4483Y3360D02*
X4503D01*
X4493Y3350D02*
Y3371D01*
X4488Y3442D02*
X4508D01*
X4498Y3432D02*
Y3452D01*
X4895Y4229D02*
X4915D01*
X4905Y4219D02*
Y4239D01*
X3739Y5397D02*
X3759D01*
X3749Y5387D02*
Y5408D01*
X4539Y5271D02*
X4559D01*
X4549Y5260D02*
Y5281D01*
X3747Y5545D02*
X3767D01*
X3757Y5535D02*
Y5555D01*
X3879Y5575D02*
X3899D01*
X3889Y5565D02*
Y5585D01*
X3256Y4178D02*
X3277D01*
X3266Y4168D02*
Y4188D01*
X2916Y3348D02*
X2936D01*
X2926Y3338D02*
Y3358D01*
X5441Y4432D02*
X5461D01*
X5451Y4422D02*
Y4442D01*
X5377Y4420D02*
X5397D01*
X5387Y4409D02*
Y4430D01*
X2888Y5537D02*
X2908D01*
X2898Y5527D02*
Y5547D01*
X3828Y5055D02*
X3848D01*
X3838Y5044D02*
Y5065D01*
X5123Y4635D02*
X5144D01*
X5133Y4625D02*
Y4646D01*
X4260Y3518D02*
X4280D01*
X4270Y3508D02*
Y3528D01*
X4221Y5651D02*
X4242D01*
X4232Y5641D02*
Y5662D01*
X5707Y4699D02*
X5728D01*
X5718Y4689D02*
Y4709D01*
X5657Y5448D02*
X5677D01*
X5667Y5438D02*
Y5458D01*
X5657Y4305D02*
X5677D01*
X5667Y4295D02*
Y4315D01*
X4752Y3759D02*
X4773D01*
X4762Y3749D02*
Y3769D01*
X2824Y4813D02*
X2845D01*
X2835Y4803D02*
Y4823D01*
X4691Y5524D02*
X4712D01*
X4702Y5514D02*
Y5535D01*
X4803Y6088D02*
X4823D01*
X4813Y6078D02*
Y6099D01*
X2771Y4270D02*
X2791D01*
X2781Y4260D02*
Y4280D01*
X5491Y4496D02*
X5512D01*
X5502Y4486D02*
Y4506D01*
X5695Y5245D02*
X5715D01*
X5705Y5235D02*
Y5255D01*
X4437Y3762D02*
X4458D01*
X4448Y3752D02*
Y3772D01*
X4323Y3416D02*
X4343D01*
X4333Y3406D02*
Y3426D01*
X3231Y4762D02*
X3251D01*
X3241Y4752D02*
Y4773D01*
X2819Y3891D02*
X2840D01*
X2830Y3881D02*
Y3901D01*
X3586Y5707D02*
X3607D01*
X3597Y5697D02*
Y5718D01*
X3358Y5842D02*
X3378D01*
X3368Y5832D02*
Y5852D01*
X4850Y3411D02*
X4870D01*
X4860Y3401D02*
Y3421D01*
X5339Y5359D02*
X5359D01*
X5349Y5349D02*
Y5370D01*
X5796Y3785D02*
X5817D01*
X5806Y3774D02*
Y3795D01*
X5326Y3797D02*
X5347D01*
X5337Y3787D02*
Y3807D01*
X3955Y5626D02*
X3975D01*
X3965Y5616D02*
Y5636D01*
X4615Y5283D02*
X4635D01*
X4625Y5273D02*
Y5293D01*
X4844Y5169D02*
X4864D01*
X4854Y5159D02*
Y5179D01*
X4917Y5448D02*
X4938D01*
X4928Y5438D02*
Y5458D01*
X4917Y4625D02*
X4938D01*
X4928Y4615D02*
Y4635D01*
X5080Y5377D02*
X5100D01*
X5090Y5367D02*
Y5387D01*
X3543Y4625D02*
X3564D01*
X3553Y4615D02*
Y4635D01*
X5187Y3759D02*
X5207D01*
X5197Y3749D02*
Y3769D01*
X2830Y4021D02*
X2850D01*
X2840Y4011D02*
Y4031D01*
X5921Y4051D02*
X5941D01*
X5931Y4041D02*
Y4061D01*
X5868Y4263D02*
X5888D01*
X5878Y4252D02*
Y4273D01*
X2756Y3774D02*
X2776D01*
X2766Y3764D02*
Y3785D01*
X2761Y3942D02*
X2781D01*
X2771Y3932D02*
Y3952D01*
X2718Y3896D02*
X2738D01*
X2728Y3886D02*
Y3907D01*
X5499Y5893D02*
X5519D01*
X5509Y5883D02*
Y5903D01*
X4666Y3117D02*
X4686D01*
X4676Y3106D02*
Y3127D01*
X4602Y3117D02*
X4623D01*
X4613Y3106D02*
Y3127D01*
X4864Y2878D02*
X4884D01*
X4874Y2868D02*
Y2888D01*
X4407Y3117D02*
X4427D01*
X4417Y3106D02*
Y3127D01*
X4473Y3114D02*
X4493D01*
X4483Y3104D02*
Y3124D01*
X4537Y2944D02*
X4558D01*
X4547Y2934D02*
Y2954D01*
X4580Y2987D02*
X4600D01*
X4590Y2977D02*
Y2997D01*
X4783Y3251D02*
X4803D01*
X4793Y3241D02*
Y3261D01*
X4803Y3190D02*
X4823D01*
X4813Y3180D02*
Y3200D01*
X4757Y3124D02*
X4778D01*
X4768Y3114D02*
Y3134D01*
X2812Y3442D02*
X2832D01*
X2822Y3432D02*
Y3452D01*
X3057Y3245D02*
X3077D01*
X3067Y3235D02*
Y3255D01*
X3444Y2987D02*
X3465D01*
X3454Y2977D02*
Y2997D01*
X3000Y2901D02*
X3020D01*
X3010Y2891D02*
Y2911D01*
X2972Y4107D02*
X2992D01*
X2982Y4097D02*
Y4117D01*
X3048D02*
X3068D01*
X3058Y4107D02*
Y4128D01*
X3680Y3858D02*
X3701D01*
X3691Y3848D02*
Y3868D01*
X2972Y3752D02*
X2992D01*
X2982Y3741D02*
Y3762D01*
X3013Y3707D02*
X3033D01*
X3023Y3697D02*
Y3717D01*
X3019Y3638D02*
X3039D01*
X3029Y3628D02*
Y3648D01*
X3686Y3396D02*
X3706D01*
X3696Y3386D02*
Y3406D01*
X3698Y3015D02*
X3719D01*
X3708Y3005D02*
Y3025D01*
X3139D02*
X3160D01*
X3150Y3015D02*
Y3035D01*
X3127Y2875D02*
X3147D01*
X3137Y2865D02*
Y2885D01*
X3289Y3023D02*
X3310D01*
X3299Y3012D02*
Y3033D01*
X3180Y3924D02*
X3200D01*
X3190Y3914D02*
Y3934D01*
X3701Y3602D02*
X3721D01*
X3711Y3592D02*
Y3612D01*
X3655Y3515D02*
X3675D01*
X3665Y3505D02*
Y3526D01*
X3454Y3787D02*
X3475D01*
X3465Y3777D02*
Y3797D01*
X2982Y3328D02*
X3002D01*
X2992Y3318D02*
Y3338D01*
X3259Y2873D02*
X3279D01*
X3269Y2863D02*
Y2883D01*
X4387Y5271D02*
X4407D01*
X4397Y5260D02*
Y5281D01*
M02*
