M48
;Layer_Color=9474304
;FILE_FORMAT=4:2
METRIC,LZ
;TYPE=PLATED
T1F00S00C0.20
;TYPE=NON_PLATED
%
T01
X002987Y003005
X003063Y003109
X003162Y003119
X003254Y003117
X003315Y003122
X003376Y003124
X003408Y003075
X003502Y003093
X003495Y003035
X003538Y002949
X003546Y003127
X003637Y003162
X003734Y003249
X003736Y00334
X003846
X003901Y003378
X003965Y003289
X003876Y002896
X003774
X003421Y003297
X003353
X003279Y003299
X003209Y003298
X003185Y003373
X003289Y003437
X003355
X003426
X003358Y003787
X003526Y003785
X003627Y003871
X003632Y003655
X00306Y003587
X003043Y003805
X002873Y003785
X002639Y003752
X004003Y003467
X004016Y003353
X004067Y003297
X004219Y003251
X004224Y00299
X004163Y002982
X004056Y002895
X00446Y002972
X004778Y002946
X004856Y003023
X004892Y003073
X004994Y003277
X005095Y003315
X005146Y003277
X005044Y003442
Y003757
X005136Y003747
X005387Y003315
Y003238
X005535Y003233
X00558Y003313
X005883Y003505
X005908Y003759
X005006Y00287
X00474Y004115
X004557Y004122
X004498Y004191
X004384Y004254
X004295Y00414
X004562Y004407
X004692Y00441
X004752Y004432
X004844Y00462
X005019Y004648
X005197Y00461
X00525Y004646
X005286Y004699
X005476Y004813
X005794
X005756Y004635
X005845Y005144
Y00522
X005806Y005613
X00521Y005524
X005032Y005448
X005232Y005778
X00538Y005898
X005413Y006134
Y005156
X005319Y005126
X005032Y00442
X004905Y004305
X004041Y00442
X004333Y004877
X004219Y005017
X004117Y005093
X004308Y005156
X004384Y00522
X004191Y005558
X003901Y004826
X003724Y004762
X003635Y00475
X003546Y004737
X003335Y004722
X002771Y004724
X002733Y004229
X00268Y004094
X002936Y004254
X003208Y004186
X003559Y004216
X003851Y004369
X003254Y005715
X003368Y00602
X002758Y005601
M30
