G04 Layer_Physical_Order=8*
G04 Layer_Color=16711680*
%FSLAX42Y42*%
%MOMM*%
G71*
G01*
G75*
%ADD10R,0.51X0.61*%
%ADD11R,0.61X0.51*%
%ADD16R,0.61X0.61*%
%ADD17R,0.41X0.41*%
%ADD19R,0.41X0.41*%
G04:AMPARAMS|DCode=23|XSize=0.61mm|YSize=0.91mm|CornerRadius=0.15mm|HoleSize=0mm|Usage=FLASHONLY|Rotation=180.000|XOffset=0mm|YOffset=0mm|HoleType=Round|Shape=RoundedRectangle|*
%AMROUNDEDRECTD23*
21,1,0.61,0.61,0,0,180.0*
21,1,0.30,0.91,0,0,180.0*
1,1,0.30,-0.15,0.30*
1,1,0.30,0.15,0.30*
1,1,0.30,0.15,-0.30*
1,1,0.30,-0.15,-0.30*
%
%ADD23ROUNDEDRECTD23*%
G04:AMPARAMS|DCode=25|XSize=0.51mm|YSize=0.61mm|CornerRadius=0.13mm|HoleSize=0mm|Usage=FLASHONLY|Rotation=90.000|XOffset=0mm|YOffset=0mm|HoleType=Round|Shape=RoundedRectangle|*
%AMROUNDEDRECTD25*
21,1,0.51,0.36,0,0,90.0*
21,1,0.25,0.61,0,0,90.0*
1,1,0.25,0.18,0.13*
1,1,0.25,0.18,-0.13*
1,1,0.25,-0.18,-0.13*
1,1,0.25,-0.18,0.13*
%
%ADD25ROUNDEDRECTD25*%
G04:AMPARAMS|DCode=26|XSize=0.51mm|YSize=0.61mm|CornerRadius=0.13mm|HoleSize=0mm|Usage=FLASHONLY|Rotation=0.000|XOffset=0mm|YOffset=0mm|HoleType=Round|Shape=RoundedRectangle|*
%AMROUNDEDRECTD26*
21,1,0.51,0.36,0,0,0.0*
21,1,0.25,0.61,0,0,0.0*
1,1,0.25,0.13,-0.18*
1,1,0.25,-0.13,-0.18*
1,1,0.25,-0.13,0.18*
1,1,0.25,0.13,0.18*
%
%ADD26ROUNDEDRECTD26*%
%ADD29R,0.38X0.51*%
%ADD30R,0.25X0.51*%
G04:AMPARAMS|DCode=36|XSize=0.71mm|YSize=1.32mm|CornerRadius=0.18mm|HoleSize=0mm|Usage=FLASHONLY|Rotation=0.000|XOffset=0mm|YOffset=0mm|HoleType=Round|Shape=RoundedRectangle|*
%AMROUNDEDRECTD36*
21,1,0.71,0.97,0,0,0.0*
21,1,0.36,1.32,0,0,0.0*
1,1,0.36,0.18,-0.48*
1,1,0.36,-0.18,-0.48*
1,1,0.36,-0.18,0.48*
1,1,0.36,0.18,0.48*
%
%ADD36ROUNDEDRECTD36*%
%ADD37R,0.51X0.30*%
G04:AMPARAMS|DCode=38|XSize=0.51mm|YSize=0.3mm|CornerRadius=0.06mm|HoleSize=0mm|Usage=FLASHONLY|Rotation=0.000|XOffset=0mm|YOffset=0mm|HoleType=Round|Shape=RoundedRectangle|*
%AMROUNDEDRECTD38*
21,1,0.51,0.18,0,0,0.0*
21,1,0.39,0.30,0,0,0.0*
1,1,0.12,0.19,-0.09*
1,1,0.12,-0.19,-0.09*
1,1,0.12,-0.19,0.09*
1,1,0.12,0.19,0.09*
%
%ADD38ROUNDEDRECTD38*%
G04:AMPARAMS|DCode=39|XSize=0.71mm|YSize=1.42mm|CornerRadius=0.14mm|HoleSize=0mm|Usage=FLASHONLY|Rotation=0.000|XOffset=0mm|YOffset=0mm|HoleType=Round|Shape=RoundedRectangle|*
%AMROUNDEDRECTD39*
21,1,0.71,1.14,0,0,0.0*
21,1,0.43,1.42,0,0,0.0*
1,1,0.28,0.21,-0.57*
1,1,0.28,-0.21,-0.57*
1,1,0.28,-0.21,0.57*
1,1,0.28,0.21,0.57*
%
%ADD39ROUNDEDRECTD39*%
%ADD64C,0.15*%
%ADD65C,0.15*%
%ADD66C,0.30*%
%ADD67C,0.41*%
%ADD68C,0.25*%
%ADD69R,0.46X0.46*%
%ADD70C,0.66*%
%ADD71C,2.21*%
%ADD72C,0.45*%
%ADD73C,0.40*%
%ADD74C,0.20*%
%ADD75C,0.45*%
%ADD76C,0.50*%
%ADD77C,0.20*%
%ADD78C,0.61*%
%ADD79C,0.10*%
G04:AMPARAMS|DCode=80|XSize=1.02mm|YSize=1.02mm|CornerRadius=0.51mm|HoleSize=0mm|Usage=FLASHONLY|Rotation=180.000|XOffset=0mm|YOffset=0mm|HoleType=Round|Shape=RoundedRectangle|*
%AMROUNDEDRECTD80*
21,1,1.02,0.00,0,0,180.0*
21,1,0.00,1.02,0,0,180.0*
1,1,1.02,0.00,0.00*
1,1,1.02,0.00,0.00*
1,1,1.02,0.00,0.00*
1,1,1.02,0.00,0.00*
%
%ADD80ROUNDEDRECTD80*%
G04:AMPARAMS|DCode=81|XSize=0.8mm|YSize=0.8mm|CornerRadius=0.4mm|HoleSize=0mm|Usage=FLASHONLY|Rotation=180.000|XOffset=0mm|YOffset=0mm|HoleType=Round|Shape=RoundedRectangle|*
%AMROUNDEDRECTD81*
21,1,0.80,0.00,0,0,180.0*
21,1,0.00,0.80,0,0,180.0*
1,1,0.80,0.00,0.00*
1,1,0.80,0.00,0.00*
1,1,0.80,0.00,0.00*
1,1,0.80,0.00,0.00*
%
%ADD81ROUNDEDRECTD81*%
G04:AMPARAMS|DCode=82|XSize=1.02mm|YSize=1.02mm|CornerRadius=0.51mm|HoleSize=0mm|Usage=FLASHONLY|Rotation=90.000|XOffset=0mm|YOffset=0mm|HoleType=Round|Shape=RoundedRectangle|*
%AMROUNDEDRECTD82*
21,1,1.02,0.00,0,0,90.0*
21,1,0.00,1.02,0,0,90.0*
1,1,1.02,0.00,0.00*
1,1,1.02,0.00,0.00*
1,1,1.02,0.00,0.00*
1,1,1.02,0.00,0.00*
%
%ADD82ROUNDEDRECTD82*%
%ADD83R,0.86X0.30*%
%ADD84R,0.30X0.86*%
%ADD85R,1.42X1.91*%
%ADD86R,1.80X1.42*%
%ADD87R,1.42X1.60*%
%ADD88R,0.81X1.52*%
%ADD89R,0.86X0.36*%
%ADD90R,0.61X0.91*%
%ADD91R,0.91X0.61*%
%ADD92R,1.22X0.81*%
%ADD93R,0.25X1.12*%
%ADD94R,1.42X2.11*%
G04:AMPARAMS|DCode=95|XSize=0.25mm|YSize=1.12mm|CornerRadius=0.13mm|HoleSize=0mm|Usage=FLASHONLY|Rotation=180.000|XOffset=0mm|YOffset=0mm|HoleType=Round|Shape=RoundedRectangle|*
%AMROUNDEDRECTD95*
21,1,0.25,0.86,0,0,180.0*
21,1,0.00,1.12,0,0,180.0*
1,1,0.25,0.00,0.43*
1,1,0.25,0.00,0.43*
1,1,0.25,0.00,-0.43*
1,1,0.25,0.00,-0.43*
%
%ADD95ROUNDEDRECTD95*%
%ADD96R,0.43X1.32*%
%ADD97R,0.61X0.81*%
%ADD98R,0.64X1.27*%
G04:AMPARAMS|DCode=99|XSize=0.3mm|YSize=0.86mm|CornerRadius=0.08mm|HoleSize=0mm|Usage=FLASHONLY|Rotation=270.000|XOffset=0mm|YOffset=0mm|HoleType=Round|Shape=RoundedRectangle|*
%AMROUNDEDRECTD99*
21,1,0.30,0.71,0,0,270.0*
21,1,0.15,0.86,0,0,270.0*
1,1,0.15,-0.36,-0.08*
1,1,0.15,-0.36,0.08*
1,1,0.15,0.36,0.08*
1,1,0.15,0.36,-0.08*
%
%ADD99ROUNDEDRECTD99*%
G04:AMPARAMS|DCode=100|XSize=0.3mm|YSize=0.86mm|CornerRadius=0.08mm|HoleSize=0mm|Usage=FLASHONLY|Rotation=180.000|XOffset=0mm|YOffset=0mm|HoleType=Round|Shape=RoundedRectangle|*
%AMROUNDEDRECTD100*
21,1,0.30,0.71,0,0,180.0*
21,1,0.15,0.86,0,0,180.0*
1,1,0.15,-0.08,0.36*
1,1,0.15,0.08,0.36*
1,1,0.15,0.08,-0.36*
1,1,0.15,-0.08,-0.36*
%
%ADD100ROUNDEDRECTD100*%
%ADD101C,0.40*%
G36*
X4179Y3252D02*
X4181Y3249D01*
X4183Y3237D01*
X4192Y3224D01*
X4204Y3216D01*
X4219Y3213D01*
X4234Y3216D01*
X4246Y3224D01*
X4249Y3229D01*
X4255Y3236D01*
X4265Y3233D01*
X4268Y3232D01*
Y3219D01*
X4263Y3218D01*
X4250Y3210D01*
X4242Y3197D01*
X4239Y3183D01*
X4241Y3170D01*
X4236Y3157D01*
X4206D01*
Y3154D01*
X4197Y3147D01*
X4165D01*
Y3259D01*
X4165D01*
X4165Y3259D01*
X4169Y3260D01*
X4179Y3252D01*
D02*
G37*
G36*
X5247Y4460D02*
X5250Y4460D01*
X5263Y4451D01*
Y4378D01*
X5130Y4245D01*
X5125Y4238D01*
X5123Y4229D01*
Y4081D01*
X5074D01*
X5070Y4093D01*
X5075Y4097D01*
X5081Y4105D01*
X5083Y4115D01*
X5081Y4125D01*
X5075Y4133D01*
X5067Y4138D01*
X5057Y4140D01*
X5047Y4138D01*
X5039Y4133D01*
X5033Y4125D01*
X5031Y4115D01*
X5033Y4105D01*
X5039Y4097D01*
X5044Y4093D01*
X5040Y4081D01*
X4922D01*
X4918Y4093D01*
X4923Y4097D01*
X4928Y4105D01*
X4930Y4115D01*
X4928Y4125D01*
X4923Y4133D01*
X4915Y4138D01*
X4905Y4140D01*
X4895Y4138D01*
X4887Y4133D01*
X4881Y4125D01*
X4879Y4115D01*
X4881Y4105D01*
X4887Y4097D01*
X4892Y4093D01*
X4888Y4081D01*
X4777D01*
X4771Y4093D01*
X4775Y4100D01*
X4778Y4115D01*
X4775Y4129D01*
X4767Y4142D01*
X4754Y4150D01*
X4740Y4153D01*
X4725Y4150D01*
X4712Y4142D01*
X4704Y4129D01*
X4701Y4115D01*
X4702Y4110D01*
X4680Y4088D01*
X4675Y4081D01*
X4620D01*
Y4094D01*
X4619Y4103D01*
X4614Y4111D01*
X4614Y4111D01*
X4593Y4131D01*
X4592Y4137D01*
X4584Y4150D01*
X4571Y4158D01*
X4557Y4161D01*
X4542Y4158D01*
X4530Y4150D01*
X4521Y4137D01*
X4518Y4122D01*
X4521Y4108D01*
X4530Y4095D01*
X4533Y4093D01*
X4529Y4081D01*
X3392D01*
X3385Y4093D01*
X3388Y4098D01*
X3391Y4112D01*
X3390Y4117D01*
X3452Y4179D01*
X3452Y4179D01*
X3457Y4186D01*
X3458Y4195D01*
Y4389D01*
X3511Y4441D01*
X3516Y4449D01*
X3518Y4456D01*
X3524Y4458D01*
X3531Y4458D01*
X3573Y4416D01*
X3567Y4404D01*
X3566Y4404D01*
X3556Y4403D01*
X3548Y4397D01*
X3543Y4389D01*
X3541Y4379D01*
X3543Y4369D01*
X3548Y4361D01*
X3556Y4355D01*
X3566Y4353D01*
X3569Y4354D01*
X3581Y4345D01*
Y4272D01*
X3564Y4254D01*
X3559Y4255D01*
X3544Y4252D01*
X3531Y4244D01*
X3523Y4231D01*
X3520Y4216D01*
X3523Y4202D01*
X3531Y4189D01*
X3544Y4181D01*
X3559Y4178D01*
X3573Y4181D01*
X3586Y4189D01*
X3594Y4202D01*
X3597Y4216D01*
X3596Y4221D01*
X3620Y4246D01*
X3620Y4246D01*
X3625Y4253D01*
X3627Y4262D01*
Y4399D01*
X3639Y4404D01*
X3741Y4302D01*
X3741Y4302D01*
X3749Y4297D01*
X3758Y4295D01*
X3758Y4295D01*
X3770D01*
X3773Y4291D01*
X3785Y4283D01*
X3800Y4280D01*
X3815Y4283D01*
X3827Y4291D01*
X3835Y4303D01*
X3838Y4318D01*
X3838Y4320D01*
X3849Y4331D01*
X3851Y4330D01*
X3865Y4333D01*
X3878Y4342D01*
X3886Y4354D01*
X3887Y4360D01*
X3905Y4378D01*
X3910Y4385D01*
X3912Y4394D01*
Y4401D01*
X3917Y4405D01*
X3919Y4405D01*
X3932Y4401D01*
X3938Y4392D01*
X3950Y4384D01*
X3965Y4381D01*
X3980Y4384D01*
X3992Y4392D01*
X3995Y4397D01*
X4011D01*
X4014Y4392D01*
Y4383D01*
X4006Y4371D01*
X4003Y4356D01*
X4006Y4341D01*
X4014Y4329D01*
X4026Y4321D01*
X4041Y4318D01*
X4056Y4321D01*
X4068Y4329D01*
X4077Y4341D01*
X4077Y4345D01*
X4078Y4345D01*
X4117Y4385D01*
X4124Y4383D01*
X4130Y4380D01*
X4132Y4372D01*
X4137Y4363D01*
X4146Y4358D01*
X4155Y4356D01*
X4165Y4358D01*
X4174Y4363D01*
X4179Y4372D01*
X4181Y4381D01*
X4179Y4391D01*
X4174Y4400D01*
X4165Y4405D01*
X4157Y4407D01*
X4154Y4413D01*
X4152Y4419D01*
X4164Y4431D01*
X4164Y4431D01*
X4169Y4439D01*
X4171Y4448D01*
X4171Y4448D01*
Y4460D01*
X4275D01*
Y4172D01*
X4268Y4167D01*
X4260Y4155D01*
X4257Y4140D01*
X4260Y4126D01*
X4268Y4113D01*
X4280Y4105D01*
X4295Y4102D01*
X4310Y4105D01*
X4322Y4113D01*
X4331Y4126D01*
X4334Y4140D01*
X4331Y4155D01*
X4322Y4167D01*
X4321Y4168D01*
Y4270D01*
X4333Y4275D01*
X4347Y4261D01*
X4346Y4254D01*
X4349Y4240D01*
X4357Y4227D01*
X4369Y4219D01*
X4384Y4216D01*
X4399Y4219D01*
X4411Y4227D01*
X4420Y4240D01*
X4422Y4254D01*
X4422Y4256D01*
X4434Y4262D01*
X4472Y4224D01*
X4471Y4218D01*
X4463Y4206D01*
X4460Y4191D01*
X4463Y4176D01*
X4471Y4164D01*
X4484Y4156D01*
X4498Y4153D01*
X4513Y4156D01*
X4525Y4164D01*
X4534Y4176D01*
X4537Y4191D01*
X4534Y4206D01*
X4525Y4218D01*
X4529Y4231D01*
X4531Y4232D01*
X4534Y4233D01*
X4539Y4232D01*
X4568D01*
X4570Y4229D01*
X4581Y4222D01*
X4595Y4219D01*
X4609Y4222D01*
X4620Y4229D01*
X4628Y4241D01*
X4631Y4254D01*
X4628Y4268D01*
X4624Y4274D01*
X4629Y4288D01*
X4629Y4288D01*
X4640Y4295D01*
X4648Y4307D01*
X4651Y4321D01*
X4648Y4334D01*
X4640Y4346D01*
X4629Y4354D01*
X4615Y4356D01*
X4602Y4354D01*
X4590Y4346D01*
X4588Y4343D01*
X4561D01*
X4546Y4359D01*
X4552Y4370D01*
X4562Y4369D01*
X4577Y4371D01*
X4589Y4380D01*
X4597Y4392D01*
X4600Y4407D01*
X4599Y4412D01*
X4610Y4423D01*
X4623Y4418D01*
Y4393D01*
X4624Y4388D01*
X4624Y4384D01*
X4624Y4384D01*
X4624Y4384D01*
X4627Y4380D01*
X4629Y4377D01*
X4669Y4335D01*
X4669Y4335D01*
X4669Y4335D01*
X4673Y4332D01*
X4677Y4330D01*
X4677Y4330D01*
X4677Y4330D01*
X4681Y4329D01*
X4685Y4328D01*
X4685Y4328D01*
X4686Y4328D01*
X4712D01*
X4730Y4310D01*
X4738Y4305D01*
X4746Y4303D01*
X4784D01*
X4793Y4305D01*
X4800Y4310D01*
X4800Y4310D01*
X4816D01*
X4838Y4289D01*
X4838Y4289D01*
X4845Y4284D01*
X4854Y4282D01*
X4875D01*
X4878Y4278D01*
X4883Y4275D01*
Y4260D01*
X4878Y4256D01*
X4869Y4244D01*
X4866Y4229D01*
X4869Y4214D01*
X4878Y4202D01*
X4890Y4194D01*
X4905Y4191D01*
X4919Y4194D01*
X4932Y4202D01*
X4940Y4214D01*
X4941Y4219D01*
X4943D01*
X4952Y4221D01*
X4959Y4226D01*
X5162Y4429D01*
X5167Y4436D01*
X5169Y4445D01*
Y4460D01*
X5225D01*
X5225Y4460D01*
X5238Y4462D01*
X5247Y4460D01*
D02*
G37*
G36*
X4591Y3130D02*
X4589Y3126D01*
X4587Y3117D01*
X4589Y3107D01*
X4595Y3098D01*
X4603Y3093D01*
X4613Y3091D01*
X4615Y3089D01*
Y3068D01*
X4666D01*
Y3043D01*
X4615D01*
Y3000D01*
X4651D01*
Y2959D01*
X4583D01*
X4575Y2971D01*
X4562Y2979D01*
X4547Y2982D01*
X4538Y2980D01*
X4525Y2988D01*
Y2989D01*
X4494D01*
X4487Y2999D01*
X4475Y3007D01*
X4467Y3009D01*
Y3081D01*
X4480Y3089D01*
X4483Y3088D01*
X4493Y3090D01*
X4501Y3096D01*
X4507Y3104D01*
X4509Y3114D01*
X4507Y3124D01*
X4503Y3130D01*
X4506Y3138D01*
X4508Y3142D01*
X4585D01*
X4591Y3130D01*
D02*
G37*
G36*
X4864Y3099D02*
X4857Y3088D01*
X4854Y3073D01*
X4857Y3059D01*
X4865Y3046D01*
X4877Y3038D01*
X4892Y3035D01*
X4894Y3035D01*
X4907Y3025D01*
X4906Y2985D01*
X4896Y2977D01*
X4888Y2983D01*
X4877Y2985D01*
X4852D01*
X4841Y2983D01*
X4832Y2977D01*
X4826Y2967D01*
X4824Y2964D01*
X4819Y2963D01*
X4812Y2963D01*
X4805Y2974D01*
X4801Y2976D01*
Y2990D01*
X4799Y2997D01*
X4799Y2999D01*
X4806Y3010D01*
X4807D01*
Y3101D01*
X4802D01*
X4795Y3113D01*
X4799Y3122D01*
X4841D01*
X4864Y3099D01*
D02*
G37*
G36*
X5353Y5871D02*
X5354Y5870D01*
X5357Y5852D01*
X5356Y5851D01*
X5344Y5851D01*
X5340Y5862D01*
X5348Y5871D01*
X5353Y5871D01*
D02*
G37*
G36*
X4563Y3483D02*
X4563Y3480D01*
X4559Y3477D01*
X4553Y3476D01*
X4546Y3471D01*
X4542Y3467D01*
X4526Y3469D01*
X4525Y3469D01*
X4513Y3477D01*
X4498Y3480D01*
X4484Y3477D01*
X4471Y3469D01*
X4463Y3456D01*
X4460Y3442D01*
X4461Y3437D01*
X4446Y3421D01*
X4442D01*
X4434Y3420D01*
X4432Y3419D01*
X4424Y3431D01*
X4411Y3439D01*
X4397Y3442D01*
X4382Y3439D01*
X4375Y3434D01*
X4366Y3439D01*
X4306D01*
Y3411D01*
X4352D01*
X4358Y3404D01*
X4361Y3389D01*
X4370Y3376D01*
X4371Y3375D01*
Y3259D01*
X4355D01*
X4352Y3270D01*
X4352D01*
Y3331D01*
X4140D01*
Y3422D01*
X4225D01*
Y3411D01*
X4281D01*
Y3452D01*
X4294D01*
Y3465D01*
X4362D01*
Y3492D01*
X4375Y3493D01*
X4556D01*
X4563Y3483D01*
D02*
G37*
G36*
X2842Y3704D02*
Y3645D01*
X2842Y3645D01*
Y3554D01*
X2844D01*
X2848Y3548D01*
X2850Y3541D01*
X2843Y3530D01*
X2840Y3515D01*
Y3510D01*
X2891D01*
Y3485D01*
X2840D01*
Y3480D01*
X2841Y3475D01*
X2837Y3471D01*
X2829Y3466D01*
X2822Y3467D01*
X2812Y3465D01*
X2804Y3460D01*
X2798Y3452D01*
X2796Y3442D01*
X2797Y3440D01*
X2786Y3429D01*
X2784Y3429D01*
X2769Y3426D01*
X2766Y3424D01*
X2753Y3431D01*
Y3478D01*
X2764Y3482D01*
X2771D01*
X2780Y3484D01*
X2787Y3489D01*
X2815Y3517D01*
X2815Y3517D01*
X2820Y3524D01*
X2822Y3533D01*
Y3554D01*
X2823D01*
Y3633D01*
X2823Y3645D01*
X2822Y3657D01*
Y3701D01*
X2831Y3708D01*
X2842Y3704D01*
D02*
G37*
G36*
X3186Y3739D02*
X3181Y3727D01*
X3161D01*
Y3651D01*
X3147Y3637D01*
X3134Y3642D01*
Y3668D01*
X3078D01*
Y3693D01*
X3134D01*
Y3731D01*
X3131D01*
X3124Y3741D01*
X3124Y3744D01*
Y3783D01*
X3137Y3788D01*
X3186Y3739D01*
D02*
G37*
G36*
X2784Y6201D02*
X2791Y6200D01*
X4940D01*
Y6127D01*
X5036D01*
Y6101D01*
X4940D01*
Y6040D01*
X4930Y6033D01*
X4915Y6030D01*
X4903Y6022D01*
X4895Y6009D01*
X4892Y5994D01*
X4895Y5980D01*
X4903Y5967D01*
X4915Y5959D01*
X4930Y5956D01*
X4935Y5957D01*
X5009Y5883D01*
Y5702D01*
X5011Y5694D01*
X5016Y5686D01*
X5041Y5661D01*
X5048Y5656D01*
X5057Y5654D01*
X5103D01*
Y5622D01*
X5152D01*
X5156Y5609D01*
X5149Y5605D01*
X5141Y5593D01*
X5138Y5578D01*
X5141Y5563D01*
X5148Y5552D01*
X5147Y5546D01*
X5143Y5540D01*
X5093D01*
Y5529D01*
X5083Y5522D01*
X5074Y5520D01*
X5066Y5515D01*
X5037Y5486D01*
X5032Y5487D01*
X5017Y5484D01*
X5005Y5475D01*
X4996Y5463D01*
X4993Y5448D01*
X4996Y5434D01*
X5005Y5421D01*
X5017Y5413D01*
X5032Y5410D01*
X5046Y5413D01*
X5059Y5421D01*
X5067Y5434D01*
X5070Y5448D01*
X5069Y5453D01*
X5080Y5464D01*
X5093Y5459D01*
Y5459D01*
X5177D01*
X5181Y5450D01*
X5173Y5439D01*
X5093D01*
Y5422D01*
X5089Y5421D01*
X5082Y5416D01*
X5082Y5416D01*
X5079Y5413D01*
X5075Y5413D01*
X5063Y5404D01*
X5055Y5392D01*
X5052Y5377D01*
X5055Y5362D01*
X5063Y5350D01*
X5075Y5342D01*
X5090Y5339D01*
X5093Y5337D01*
Y5276D01*
X5166D01*
X5172Y5265D01*
X5164Y5256D01*
X5093D01*
Y5240D01*
X4828D01*
X4816Y5245D01*
X4813Y5260D01*
X4805Y5272D01*
X4792Y5281D01*
X4778Y5283D01*
X4763Y5281D01*
X4751Y5272D01*
X4742Y5260D01*
X4739Y5245D01*
X4742Y5230D01*
X4751Y5218D01*
X4763Y5210D01*
X4778Y5207D01*
X4784Y5208D01*
X4793Y5200D01*
X4796Y5198D01*
X4799Y5196D01*
X4800Y5196D01*
X4800Y5196D01*
X4804Y5195D01*
X4808Y5194D01*
X4825D01*
X4832Y5182D01*
X4830Y5179D01*
X4828Y5169D01*
X4830Y5159D01*
X4836Y5151D01*
X4840Y5148D01*
X4841Y5135D01*
X4841Y5133D01*
X4839Y5133D01*
X4831Y5120D01*
X4828Y5105D01*
X4831Y5091D01*
X4839Y5078D01*
X4852Y5070D01*
X4867Y5067D01*
X4872Y5068D01*
X4924Y5018D01*
X4928Y5015D01*
X4932Y5013D01*
X4932Y5013D01*
X4932Y5013D01*
X4936Y5012D01*
X4940Y5011D01*
X5093D01*
Y4992D01*
X5184D01*
Y5073D01*
X5093D01*
Y5057D01*
X4950D01*
X4904Y5101D01*
X4905Y5105D01*
X4902Y5120D01*
X4894Y5133D01*
X4881Y5141D01*
X4880Y5141D01*
X4879Y5143D01*
X4875Y5155D01*
X4878Y5159D01*
X4880Y5169D01*
X4878Y5179D01*
X4876Y5182D01*
X4882Y5194D01*
X5093D01*
Y5175D01*
X5093Y5175D01*
Y5174D01*
X5093D01*
X5093Y5162D01*
Y5093D01*
X5184D01*
Y5114D01*
X5185Y5115D01*
X5193Y5120D01*
X5194Y5121D01*
X5206Y5116D01*
Y5062D01*
X5240D01*
Y5141D01*
X5231D01*
X5226Y5153D01*
X5243Y5170D01*
X5248Y5169D01*
X5262Y5172D01*
X5275Y5180D01*
X5283Y5192D01*
X5286Y5207D01*
X5285Y5211D01*
X5296Y5224D01*
X5307D01*
X5311Y5221D01*
Y5163D01*
X5304Y5161D01*
X5292Y5153D01*
X5284Y5141D01*
X5265D01*
Y5050D01*
Y4958D01*
X5300D01*
Y4968D01*
X5402D01*
Y4958D01*
X5437D01*
Y5050D01*
X5449D01*
Y5062D01*
X5496D01*
Y5141D01*
X5468D01*
X5460Y5153D01*
X5463Y5159D01*
X5493D01*
Y5250D01*
X5487D01*
X5477Y5263D01*
X5478Y5265D01*
Y5296D01*
X5512D01*
X5519Y5297D01*
X5527Y5296D01*
X5542Y5299D01*
X5554Y5307D01*
X5562Y5318D01*
X5565Y5319D01*
X5575Y5314D01*
X5578Y5311D01*
Y5230D01*
X5576D01*
Y5139D01*
X5580D01*
X5583Y5133D01*
X5585Y5126D01*
X5578Y5115D01*
X5575Y5100D01*
Y5095D01*
X5627D01*
Y5083D01*
X5639D01*
Y5026D01*
X5654Y5029D01*
X5667Y5037D01*
X5668Y5039D01*
X5674Y5045D01*
X5683Y5039D01*
X5694Y5037D01*
X5697D01*
X5708Y5031D01*
Y4951D01*
X5799D01*
X5806Y4947D01*
Y4940D01*
X5795Y4931D01*
X5708D01*
Y4850D01*
X5759D01*
X5760Y4848D01*
X5764Y4837D01*
X5758Y4828D01*
X5755Y4813D01*
X5758Y4799D01*
X5767Y4786D01*
X5779Y4778D01*
X5794Y4775D01*
X5797Y4775D01*
X5809Y4765D01*
Y4749D01*
X5931D01*
X5941Y4743D01*
Y4651D01*
X5872D01*
Y4585D01*
Y4519D01*
X5941D01*
Y4469D01*
X5936Y4459D01*
X5928Y4459D01*
X5785D01*
X5784Y4459D01*
X5772Y4461D01*
X5772Y4462D01*
X5766Y4471D01*
X5758Y4476D01*
X5748Y4478D01*
X5738Y4476D01*
X5730Y4471D01*
X5724Y4462D01*
X5722Y4453D01*
X5724Y4443D01*
X5730Y4434D01*
X5738Y4429D01*
X5748Y4427D01*
X5758Y4429D01*
X5766Y4434D01*
X5771Y4442D01*
X5772Y4442D01*
X5784Y4434D01*
Y4348D01*
X5818D01*
X5857Y4309D01*
X5855Y4293D01*
X5851Y4290D01*
X5842Y4277D01*
X5839Y4263D01*
X5842Y4248D01*
X5851Y4235D01*
X5862Y4228D01*
Y4183D01*
X5654D01*
X5651Y4181D01*
Y3970D01*
X5780D01*
X5785Y3958D01*
X5757Y3930D01*
X5746D01*
X5735Y3928D01*
X5726Y3921D01*
X5720Y3912D01*
X5718Y3901D01*
Y3866D01*
X5720Y3855D01*
X5726Y3846D01*
X5735Y3840D01*
X5746Y3838D01*
X5772D01*
X5782Y3840D01*
X5791Y3846D01*
X5806D01*
X5815Y3840D01*
X5826Y3838D01*
X5852D01*
X5862Y3840D01*
X5871Y3846D01*
X5878Y3855D01*
X5880Y3866D01*
Y3897D01*
X5880Y3897D01*
X5883Y3912D01*
X5880Y3926D01*
X5884Y3941D01*
X5901Y3959D01*
X5906Y3966D01*
X5908Y3975D01*
Y4007D01*
X5921Y4015D01*
X5931Y4013D01*
X5946Y4016D01*
X5957Y4023D01*
X5962Y4022D01*
X5970Y4019D01*
Y3413D01*
X5959Y3407D01*
X5949Y3412D01*
X5949Y3413D01*
X5948Y3413D01*
X5941Y3423D01*
Y3509D01*
X5920D01*
X5918Y3520D01*
X5910Y3532D01*
X5897Y3541D01*
X5883Y3544D01*
X5868Y3541D01*
X5855Y3532D01*
X5847Y3520D01*
X5845Y3509D01*
X5819D01*
Y3439D01*
X5807Y3429D01*
X5806Y3429D01*
X5797Y3427D01*
X5788Y3422D01*
X5783Y3413D01*
X5781Y3404D01*
X5783Y3394D01*
X5788Y3385D01*
X5797Y3380D01*
X5806Y3378D01*
X5816Y3380D01*
X5825Y3385D01*
X5830Y3394D01*
X5832Y3404D01*
X5832Y3405D01*
X5841Y3418D01*
X5868D01*
X5872Y3405D01*
X5869Y3402D01*
X5858Y3389D01*
X5852Y3373D01*
X5850Y3363D01*
X5705D01*
X5696Y3361D01*
X5695Y3360D01*
X5684Y3360D01*
X5679Y3364D01*
X5679Y3364D01*
X5674Y3372D01*
X5661Y3381D01*
X5646Y3384D01*
X5641Y3383D01*
X5620Y3404D01*
Y3426D01*
X5618Y3438D01*
X5617Y3439D01*
X5624Y3452D01*
X5772Y3452D01*
X5781Y3452D01*
X5784Y3454D01*
X5783Y3455D01*
X5783Y3464D01*
Y3777D01*
X5471D01*
X5466Y3772D01*
Y3656D01*
X5465Y3656D01*
Y3599D01*
Y3543D01*
X5466Y3542D01*
Y3478D01*
X5453Y3467D01*
X5449Y3468D01*
X5447D01*
Y3409D01*
X5491D01*
Y3426D01*
X5488Y3439D01*
X5495Y3452D01*
X5524D01*
X5531Y3439D01*
X5530Y3438D01*
X5528Y3426D01*
Y3365D01*
X5530Y3354D01*
X5537Y3344D01*
X5539Y3342D01*
X5545Y3327D01*
X5542Y3313D01*
X5543Y3309D01*
X5532Y3299D01*
X5517Y3298D01*
X5501Y3291D01*
X5488Y3280D01*
X5477Y3267D01*
X5471Y3251D01*
X5468Y3233D01*
X5471Y3216D01*
X5477Y3200D01*
X5488Y3186D01*
X5501Y3176D01*
X5504Y3175D01*
X5502Y3162D01*
X5410D01*
Y3209D01*
X5414Y3211D01*
X5423Y3224D01*
X5426Y3238D01*
X5423Y3253D01*
X5414Y3266D01*
X5402Y3274D01*
X5387Y3277D01*
X5373Y3274D01*
X5369Y3272D01*
X5357Y3279D01*
Y3293D01*
X5369Y3297D01*
X5378Y3291D01*
X5387Y3289D01*
X5397Y3291D01*
X5405Y3297D01*
X5411Y3305D01*
X5413Y3315D01*
X5421Y3322D01*
Y3396D01*
Y3468D01*
X5419D01*
X5403Y3465D01*
X5400Y3463D01*
X5387Y3470D01*
Y3554D01*
X5396Y3555D01*
X5405Y3561D01*
X5412Y3555D01*
X5413Y3554D01*
X5425Y3546D01*
X5440Y3543D01*
Y3599D01*
Y3656D01*
X5425Y3653D01*
X5413Y3644D01*
X5412Y3643D01*
X5405Y3637D01*
X5396Y3643D01*
X5385Y3645D01*
X5360D01*
X5349Y3643D01*
X5340Y3637D01*
X5334Y3628D01*
X5332Y3617D01*
Y3581D01*
X5334Y3571D01*
X5340Y3561D01*
X5342Y3560D01*
Y3482D01*
X5314D01*
Y3599D01*
X5314Y3599D01*
X5312Y3608D01*
X5307Y3615D01*
X5303Y3620D01*
X5307Y3634D01*
X5308Y3634D01*
X5317Y3639D01*
X5322Y3648D01*
X5324Y3658D01*
X5330Y3665D01*
X5339D01*
Y3721D01*
Y3777D01*
X5314D01*
X5311Y3790D01*
X5316Y3793D01*
X5325Y3807D01*
X5328Y3823D01*
Y3840D01*
X5284D01*
Y3777D01*
X5289Y3771D01*
X5289Y3769D01*
X5288Y3767D01*
X5241D01*
X5239Y3772D01*
X5248Y3783D01*
X5256Y3781D01*
X5259D01*
Y3853D01*
X5272D01*
Y3866D01*
X5328D01*
Y3884D01*
X5327Y3889D01*
X5335Y3898D01*
X5350Y3901D01*
X5360Y3908D01*
X5361Y3908D01*
X5368Y3895D01*
X5366Y3884D01*
Y3823D01*
X5368Y3811D01*
X5375Y3801D01*
X5385Y3794D01*
X5396Y3792D01*
X5427D01*
X5439Y3794D01*
X5449Y3801D01*
X5455Y3811D01*
X5458Y3823D01*
Y3828D01*
X5562D01*
X5573Y3820D01*
X5588Y3817D01*
X5603Y3820D01*
X5615Y3829D01*
X5623Y3841D01*
X5626Y3856D01*
X5623Y3870D01*
X5615Y3883D01*
X5603Y3891D01*
X5588Y3894D01*
X5573Y3891D01*
X5561Y3883D01*
X5555Y3874D01*
X5458D01*
Y3884D01*
X5455Y3895D01*
X5449Y3905D01*
X5443Y3909D01*
X5439Y3913D01*
X5440Y3925D01*
X5441Y3926D01*
X5443Y3937D01*
Y3973D01*
X5441Y3983D01*
X5435Y3993D01*
X5425Y3999D01*
X5415Y4001D01*
X5389D01*
X5378Y3999D01*
X5369Y3993D01*
X5363Y3999D01*
X5362Y4000D01*
X5350Y4008D01*
X5335Y4011D01*
D01*
Y3955D01*
X5309D01*
Y4011D01*
X5294Y4008D01*
X5288Y4004D01*
X5279Y4014D01*
X5282Y4017D01*
X5283Y4026D01*
X5283Y4026D01*
Y4161D01*
X5287Y4164D01*
X5296Y4176D01*
X5299Y4191D01*
X5296Y4206D01*
X5287Y4218D01*
X5275Y4226D01*
X5260Y4229D01*
X5260Y4229D01*
X5254Y4241D01*
X5340Y4327D01*
X5345Y4335D01*
X5347Y4343D01*
Y4390D01*
X5359Y4394D01*
X5360Y4392D01*
X5373Y4384D01*
X5376Y4384D01*
X5376Y4282D01*
X5472D01*
Y4270D01*
D01*
Y4282D01*
X5569D01*
Y4401D01*
X5490D01*
X5483Y4413D01*
X5486Y4418D01*
X5489Y4432D01*
X5486Y4447D01*
X5478Y4459D01*
X5474Y4462D01*
Y4527D01*
X5490D01*
Y4527D01*
X5500D01*
Y4527D01*
X5581D01*
Y4615D01*
Y4706D01*
X5520D01*
X5515Y4718D01*
X5530Y4733D01*
X5537Y4729D01*
X5547Y4727D01*
X5583D01*
X5594Y4729D01*
X5603Y4736D01*
X5615Y4732D01*
X5618Y4728D01*
Y4706D01*
X5601D01*
Y4615D01*
Y4527D01*
X5631D01*
Y4319D01*
X5628Y4305D01*
X5631Y4291D01*
X5640Y4278D01*
X5652Y4270D01*
X5667Y4267D01*
X5681Y4270D01*
X5694Y4278D01*
X5702Y4291D01*
X5705Y4305D01*
X5702Y4320D01*
X5694Y4332D01*
X5681Y4341D01*
X5677Y4342D01*
Y4527D01*
X5682D01*
Y4640D01*
X5682D01*
X5691Y4642D01*
X5698Y4647D01*
X5713Y4662D01*
X5718Y4661D01*
X5730Y4663D01*
X5733Y4659D01*
X5737Y4652D01*
X5732Y4645D01*
X5730Y4635D01*
X5732Y4626D01*
X5738Y4617D01*
X5746Y4612D01*
X5756Y4610D01*
X5761Y4611D01*
X5773Y4603D01*
Y4597D01*
X5847D01*
Y4651D01*
X5776D01*
X5774Y4654D01*
X5765Y4659D01*
X5756Y4661D01*
X5750Y4660D01*
X5745Y4672D01*
X5745Y4672D01*
X5753Y4684D01*
X5756Y4699D01*
X5753Y4714D01*
X5745Y4726D01*
X5732Y4734D01*
X5718Y4737D01*
X5703Y4734D01*
X5690Y4726D01*
X5682Y4714D01*
X5681Y4706D01*
X5664D01*
Y4737D01*
X5664Y4741D01*
X5663Y4745D01*
X5663Y4745D01*
X5663Y4746D01*
X5660Y4749D01*
X5658Y4752D01*
X5636Y4778D01*
X5635Y4778D01*
X5635Y4779D01*
X5631Y4781D01*
X5628Y4783D01*
X5628Y4783D01*
X5627Y4784D01*
X5623Y4784D01*
X5620Y4785D01*
X5619Y4785D01*
X5618Y4785D01*
X5610D01*
X5609Y4792D01*
X5603Y4801D01*
X5609Y4807D01*
X5610Y4808D01*
X5619Y4821D01*
X5622Y4836D01*
D01*
X5565D01*
Y4848D01*
X5552D01*
Y4900D01*
X5547D01*
X5532Y4897D01*
X5520Y4888D01*
X5511Y4876D01*
X5509Y4861D01*
Y4852D01*
X5497Y4846D01*
X5486Y4852D01*
Y4894D01*
X5431D01*
Y4904D01*
X5397D01*
Y4813D01*
X5372D01*
Y4904D01*
X5337D01*
Y4894D01*
X5216D01*
Y4751D01*
X5144Y4679D01*
X5139Y4680D01*
X5135Y4693D01*
X5160Y4718D01*
X5165Y4726D01*
X5166Y4735D01*
Y4744D01*
X5172Y4745D01*
X5181Y4751D01*
X5187Y4760D01*
X5190Y4771D01*
Y4796D01*
X5187Y4807D01*
X5181Y4816D01*
X5187Y4822D01*
X5189Y4823D01*
X5197Y4836D01*
X5200Y4851D01*
D01*
X5144D01*
X5087D01*
X5090Y4836D01*
X5098Y4823D01*
X5100Y4822D01*
X5106Y4816D01*
X5100Y4807D01*
X5097Y4796D01*
Y4771D01*
X5100Y4760D01*
X5106Y4751D01*
X5108Y4749D01*
X5110Y4734D01*
X5088Y4711D01*
X5083Y4712D01*
X5068Y4709D01*
X5055Y4701D01*
X5048Y4690D01*
X5044Y4687D01*
X5035Y4683D01*
X5034Y4684D01*
X5019Y4687D01*
X5004Y4684D01*
X4992Y4675D01*
X4984Y4663D01*
X4981Y4648D01*
X4984Y4634D01*
X4990Y4623D01*
X4983Y4613D01*
X4963D01*
X4953Y4625D01*
X4951Y4635D01*
X4946Y4643D01*
X4937Y4649D01*
X4928Y4651D01*
X4918Y4649D01*
X4909Y4643D01*
X4904Y4635D01*
X4902Y4625D01*
X4898Y4621D01*
X4883Y4620D01*
X4882Y4621D01*
X4879Y4635D01*
X4871Y4647D01*
X4858Y4656D01*
X4844Y4659D01*
X4829Y4656D01*
X4817Y4647D01*
X4808Y4635D01*
X4805Y4620D01*
X4806Y4615D01*
X4796Y4602D01*
X4571D01*
X4570Y4606D01*
X4565Y4614D01*
X4553Y4626D01*
X4545Y4631D01*
X4542Y4632D01*
Y4696D01*
X4426D01*
Y4709D01*
X4413D01*
Y4805D01*
X4318D01*
Y4839D01*
X4317Y4842D01*
X4318Y4844D01*
X4327Y4852D01*
X4327Y4852D01*
X4333Y4851D01*
X4343Y4853D01*
X4351Y4859D01*
X4357Y4867D01*
X4359Y4877D01*
X4357Y4887D01*
X4351Y4895D01*
X4343Y4901D01*
X4333Y4902D01*
X4323Y4901D01*
X4315Y4895D01*
X4310Y4887D01*
X4308Y4877D01*
X4308Y4877D01*
X4296Y4870D01*
X4242Y4924D01*
Y4987D01*
X4246Y4989D01*
X4254Y5002D01*
X4257Y5017D01*
X4257Y5017D01*
X4269Y5023D01*
X4388Y4904D01*
X4388Y4904D01*
X4395Y4899D01*
X4404Y4897D01*
X4404Y4897D01*
X4593D01*
X4602Y4899D01*
X4610Y4904D01*
X4656Y4950D01*
X4707D01*
X4710Y4946D01*
X4722Y4938D01*
X4737Y4935D01*
X4752Y4938D01*
X4764Y4946D01*
X4773Y4959D01*
X4775Y4973D01*
X4773Y4988D01*
X4764Y5000D01*
X4752Y5009D01*
X4737Y5012D01*
X4722Y5009D01*
X4710Y5000D01*
X4707Y4996D01*
X4646D01*
X4637Y4995D01*
X4630Y4990D01*
X4630Y4990D01*
X4622Y4981D01*
X4607Y4985D01*
X4602Y4993D01*
X4592Y4999D01*
Y5001D01*
X4591Y5010D01*
X4586Y5017D01*
X4494Y5109D01*
X4487Y5114D01*
X4478Y5116D01*
X4292D01*
X3912Y5496D01*
Y5545D01*
X3916Y5548D01*
X3924Y5561D01*
X3927Y5575D01*
X3924Y5590D01*
X3916Y5602D01*
X3909Y5607D01*
Y5649D01*
X3939D01*
Y5659D01*
X3980D01*
Y5761D01*
Y5862D01*
X3927D01*
Y5832D01*
X3719D01*
Y5649D01*
X3754D01*
Y5583D01*
X3742Y5580D01*
X3730Y5572D01*
X3721Y5560D01*
X3718Y5545D01*
X3721Y5530D01*
X3730Y5518D01*
X3742Y5509D01*
X3757Y5506D01*
X3771Y5509D01*
X3778Y5514D01*
X4225Y5067D01*
X4219Y5055D01*
X4219Y5055D01*
X4204Y5052D01*
X4192Y5044D01*
X4183Y5031D01*
X4181Y5017D01*
X4183Y5002D01*
X4192Y4989D01*
X4196Y4987D01*
Y4915D01*
X4198Y4906D01*
X4203Y4899D01*
X4272Y4829D01*
Y4788D01*
X4270Y4786D01*
X4259Y4783D01*
X4254Y4786D01*
X4244Y4788D01*
X4235Y4786D01*
X4226Y4781D01*
X4221Y4772D01*
X4219Y4762D01*
X4219Y4762D01*
X4207Y4756D01*
X4140Y4823D01*
Y5063D01*
X4144Y5066D01*
X4153Y5078D01*
X4156Y5093D01*
X4153Y5107D01*
X4144Y5120D01*
X4132Y5128D01*
X4117Y5131D01*
X4103Y5128D01*
X4090Y5120D01*
X4082Y5107D01*
X4079Y5093D01*
X4082Y5078D01*
X4090Y5066D01*
X4094Y5063D01*
Y4813D01*
X4096Y4805D01*
X4101Y4797D01*
X4221Y4677D01*
Y4665D01*
X4209Y4658D01*
X4208Y4658D01*
X4194Y4661D01*
X4179Y4658D01*
X4166Y4650D01*
X4158Y4637D01*
X4155Y4623D01*
X4157Y4615D01*
X4148Y4602D01*
X4094D01*
X4087Y4610D01*
X4084Y4625D01*
X4076Y4637D01*
X4063Y4646D01*
X4049Y4648D01*
X4035Y4646D01*
X4031Y4645D01*
X4023Y4648D01*
X4020Y4651D01*
X4012Y4663D01*
X4000Y4671D01*
X3985Y4674D01*
X3981Y4673D01*
X3971Y4681D01*
Y4696D01*
X3856D01*
Y4709D01*
X3843D01*
Y4805D01*
X3740D01*
Y4805D01*
X3727Y4800D01*
X3724Y4801D01*
X3709Y4798D01*
X3696Y4790D01*
X3688Y4777D01*
X3687Y4773D01*
X3673Y4764D01*
X3670Y4764D01*
X3662Y4777D01*
X3649Y4785D01*
X3635Y4788D01*
X3620Y4785D01*
X3608Y4777D01*
X3599Y4764D01*
X3596Y4750D01*
X3597Y4745D01*
X3586Y4736D01*
X3584Y4737D01*
X3581Y4752D01*
X3573Y4764D01*
X3568Y4768D01*
X3571Y4780D01*
X3571Y4781D01*
X3582Y4783D01*
X3591Y4789D01*
X3597Y4798D01*
X3599Y4809D01*
Y4834D01*
X3597Y4845D01*
X3591Y4854D01*
X3597Y4861D01*
X3599Y4861D01*
X3607Y4874D01*
X3610Y4889D01*
D01*
X3553D01*
X3497D01*
X3500Y4874D01*
X3508Y4861D01*
X3509Y4861D01*
X3516Y4854D01*
X3510Y4845D01*
X3509Y4842D01*
X3450D01*
X3441Y4840D01*
X3434Y4835D01*
X3411Y4813D01*
X3406Y4814D01*
X3391Y4811D01*
X3379Y4802D01*
X3371Y4790D01*
X3368Y4775D01*
X3371Y4761D01*
X3374Y4755D01*
X3373Y4751D01*
X3362Y4748D01*
X3359Y4748D01*
X3349Y4755D01*
X3335Y4758D01*
X3333Y4757D01*
X3320Y4767D01*
Y4809D01*
X3401Y4890D01*
X3469D01*
Y5002D01*
X3411D01*
X3409Y5003D01*
X3401Y5004D01*
X3398D01*
X3389Y5003D01*
X3387Y5002D01*
X3378D01*
Y4993D01*
X3376Y4990D01*
X3375Y4981D01*
X3376Y4973D01*
X3378Y4970D01*
Y4933D01*
X3281Y4835D01*
X3276Y4828D01*
X3274Y4819D01*
Y4757D01*
X3211Y4694D01*
X3162D01*
Y4716D01*
X3162Y4717D01*
X3163Y4729D01*
X3178Y4732D01*
X3192Y4742D01*
X3202Y4756D01*
X3205Y4773D01*
Y4808D01*
X3143D01*
Y4834D01*
X3205D01*
Y4869D01*
X3202Y4886D01*
X3192Y4900D01*
X3186Y4905D01*
Y4920D01*
X3192Y4924D01*
X3202Y4939D01*
X3205Y4956D01*
Y4991D01*
X3143D01*
X3081D01*
Y4956D01*
X3085Y4939D01*
X3094Y4924D01*
X3101Y4920D01*
Y4905D01*
X3094Y4900D01*
X3085Y4886D01*
X3081Y4869D01*
Y4845D01*
X3069Y4841D01*
X3062Y4851D01*
X3050Y4859D01*
X3044Y4860D01*
Y4966D01*
X3044Y4966D01*
X3042Y4975D01*
X3037Y4982D01*
X3037Y4982D01*
X3034Y4985D01*
Y5052D01*
X3032Y5065D01*
X3025Y5076D01*
X3014Y5083D01*
X3001Y5085D01*
X2965D01*
X2953Y5083D01*
X2942Y5076D01*
X2935Y5065D01*
X2932Y5052D01*
Y4956D01*
X2935Y4943D01*
X2942Y4932D01*
X2953Y4925D01*
X2965Y4922D01*
X2998D01*
Y4903D01*
X2965D01*
X2953Y4900D01*
X2942Y4893D01*
X2935Y4882D01*
X2932Y4869D01*
Y4773D01*
X2935Y4760D01*
X2942Y4749D01*
X2953Y4742D01*
X2965Y4739D01*
X2998D01*
Y4717D01*
X2980D01*
Y4633D01*
X2835D01*
X2835Y4633D01*
X2826Y4631D01*
X2818Y4626D01*
X2807Y4615D01*
X2802Y4615D01*
X2794Y4619D01*
Y4694D01*
X2798Y4697D01*
X2807Y4710D01*
X2810Y4724D01*
X2807Y4739D01*
X2798Y4752D01*
X2786Y4760D01*
X2771Y4763D01*
X2756Y4760D01*
X2752Y4757D01*
X2739Y4762D01*
X2738Y4767D01*
X2738Y4769D01*
X2749Y4777D01*
X2758Y4775D01*
X2773Y4778D01*
X2786Y4786D01*
X2794Y4799D01*
X2797Y4813D01*
X2794Y4828D01*
X2786Y4840D01*
X2773Y4849D01*
X2758Y4852D01*
X2748Y4850D01*
X2735Y4857D01*
Y4879D01*
X2644Y4879D01*
X2642Y4891D01*
Y4999D01*
X2642D01*
X2639Y5016D01*
X2629Y5031D01*
X2614Y5041D01*
X2610Y5042D01*
Y6015D01*
X2612Y6022D01*
X2612D01*
X2615Y6057D01*
X2626Y6091D01*
X2642Y6122D01*
X2664Y6149D01*
X2692Y6172D01*
X2723Y6188D01*
X2756Y6198D01*
X2784Y6201D01*
X2784Y6201D01*
D02*
G37*
G36*
X3269Y4524D02*
Y4460D01*
X3352D01*
X3358Y4448D01*
X3358Y4447D01*
X3355Y4432D01*
X3358Y4418D01*
X3366Y4405D01*
X3379Y4397D01*
X3393Y4394D01*
X3400Y4395D01*
X3412Y4386D01*
Y4204D01*
X3358Y4150D01*
X3353Y4151D01*
X3338Y4148D01*
X3326Y4139D01*
X3317Y4127D01*
X3314Y4112D01*
X3317Y4098D01*
X3320Y4093D01*
X3313Y4081D01*
X3269D01*
X3269Y4093D01*
Y4148D01*
X3268Y4153D01*
X3276Y4155D01*
X3285Y4160D01*
X3290Y4168D01*
X3292Y4178D01*
X3290Y4188D01*
X3285Y4196D01*
X3276Y4202D01*
X3266Y4204D01*
X3257Y4202D01*
X3254Y4200D01*
X3244Y4200D01*
X3238Y4204D01*
X3233Y4211D01*
X3222Y4219D01*
X3208Y4222D01*
X3194Y4219D01*
X3183Y4211D01*
X3180Y4207D01*
X3167Y4211D01*
Y4257D01*
X3084D01*
Y4139D01*
X3156D01*
X3157Y4126D01*
X3151Y4125D01*
X3135Y4114D01*
X3125Y4098D01*
X3121Y4080D01*
X3114Y4071D01*
X3000D01*
X2993Y4083D01*
X2993Y4084D01*
X3000Y4089D01*
X3006Y4097D01*
X3008Y4107D01*
X3006Y4117D01*
X3000Y4125D01*
X2999Y4126D01*
X3003Y4139D01*
X3058D01*
Y4270D01*
X3071D01*
Y4282D01*
X3167D01*
Y4401D01*
X3121D01*
X3119Y4403D01*
X3113Y4413D01*
X3114Y4420D01*
X3112Y4429D01*
X3107Y4438D01*
X3098Y4443D01*
X3089Y4445D01*
X3079Y4443D01*
X3071Y4438D01*
X3065Y4429D01*
X3063Y4420D01*
X3064Y4413D01*
X3059Y4403D01*
X3056Y4401D01*
X2974D01*
Y4288D01*
X2969Y4285D01*
X2962Y4283D01*
X2951Y4290D01*
X2936Y4293D01*
X2933Y4292D01*
X2921Y4303D01*
Y4371D01*
X2886D01*
Y4293D01*
X2903D01*
X2906Y4287D01*
X2908Y4280D01*
X2901Y4269D01*
X2898Y4254D01*
X2901Y4241D01*
X2900Y4239D01*
X2893Y4228D01*
X2856D01*
Y4239D01*
X2821D01*
Y4147D01*
X2796D01*
Y4239D01*
X2770D01*
X2769Y4244D01*
X2760Y4256D01*
X2748Y4265D01*
X2733Y4267D01*
X2718Y4265D01*
X2706Y4256D01*
X2698Y4244D01*
X2695Y4229D01*
X2694Y4228D01*
X2641D01*
Y4066D01*
X2644D01*
X2648Y4053D01*
X2642Y4044D01*
X2639Y4034D01*
Y3998D01*
X2642Y3987D01*
X2648Y3978D01*
X2657Y3972D01*
X2668Y3970D01*
X2689D01*
Y3912D01*
X2691Y3904D01*
X2691Y3902D01*
X2679Y3895D01*
X2677Y3895D01*
X2657Y3899D01*
X2635Y3895D01*
X2623Y3887D01*
X2610Y3893D01*
Y4400D01*
X2618Y4404D01*
X2630Y4397D01*
Y4397D01*
X2677D01*
Y4384D01*
X2690D01*
Y4293D01*
X2724D01*
Y4303D01*
X2827D01*
Y4293D01*
X2861D01*
Y4384D01*
X2874D01*
Y4397D01*
X2921D01*
Y4475D01*
X2917D01*
X2909Y4486D01*
X2913Y4497D01*
X2921Y4499D01*
X2953D01*
Y4539D01*
X3254D01*
X3269Y4524D01*
D02*
G37*
G36*
X2825Y3985D02*
X2840Y3982D01*
X2844Y3983D01*
X2855Y3971D01*
X2855Y3970D01*
X2856Y3967D01*
X2856Y3965D01*
X2857Y3964D01*
X2858Y3961D01*
X2859Y3959D01*
X2862Y3955D01*
Y3919D01*
X2850Y3909D01*
X2845Y3910D01*
D01*
Y3853D01*
X2833D01*
Y3840D01*
X2781D01*
Y3835D01*
X2784Y3821D01*
X2793Y3808D01*
X2805Y3800D01*
X2820Y3797D01*
X2827D01*
X2835Y3787D01*
X2834Y3785D01*
X2835Y3780D01*
X2792Y3736D01*
X2741D01*
Y3657D01*
X2741Y3645D01*
X2741Y3642D01*
X2738Y3638D01*
X2725Y3643D01*
Y3691D01*
X2634D01*
Y3629D01*
X2632D01*
Y3538D01*
X2681D01*
X2682Y3538D01*
X2686Y3524D01*
X2686Y3522D01*
X2685Y3520D01*
X2682Y3505D01*
X2685Y3491D01*
X2685Y3489D01*
X2678Y3478D01*
X2632D01*
Y3387D01*
X2683D01*
X2693Y3381D01*
X2708Y3378D01*
X2722Y3381D01*
X2724Y3382D01*
X2733Y3380D01*
X2743Y3373D01*
X2740Y3355D01*
X2743Y3338D01*
X2749Y3322D01*
X2760Y3308D01*
X2774Y3298D01*
X2790Y3291D01*
X2807Y3289D01*
X2824Y3291D01*
X2840Y3298D01*
X2854Y3308D01*
X2864Y3322D01*
X2871Y3338D01*
X2873Y3355D01*
X2871Y3373D01*
X2864Y3389D01*
X2854Y3402D01*
X2843Y3410D01*
X2841Y3419D01*
X2845Y3424D01*
X2845Y3424D01*
X2859Y3419D01*
X2864Y3411D01*
X2872Y3405D01*
X2882Y3404D01*
X2892Y3405D01*
X2900Y3411D01*
X2906Y3419D01*
X2908Y3429D01*
X2917Y3444D01*
X2919Y3444D01*
X2931Y3452D01*
X2932Y3454D01*
X2938Y3460D01*
X2948Y3454D01*
X2958Y3452D01*
X2984D01*
X2995Y3454D01*
X2998Y3456D01*
X3011Y3450D01*
Y3442D01*
X3014Y3429D01*
X3021Y3418D01*
X3032Y3411D01*
X3038Y3409D01*
Y3412D01*
X3068D01*
Y3449D01*
Y3491D01*
X3045D01*
X3032Y3488D01*
X3025Y3483D01*
X3013Y3488D01*
X3012Y3489D01*
Y3515D01*
X3010Y3526D01*
X3004Y3535D01*
X2995Y3541D01*
X2984Y3544D01*
X2979D01*
X2977Y3546D01*
Y3701D01*
X2978Y3704D01*
X2985Y3706D01*
X2999Y3698D01*
X2999Y3697D01*
X3005Y3689D01*
X3013Y3683D01*
X3023Y3682D01*
Y3663D01*
X3019Y3662D01*
X3011Y3656D01*
X3006Y3648D01*
X3004Y3638D01*
X3006Y3628D01*
X3011Y3620D01*
X3019Y3615D01*
X3020Y3614D01*
X3027Y3601D01*
X3027Y3600D01*
X3024Y3587D01*
X3027Y3574D01*
X3034Y3562D01*
X3046Y3554D01*
X3060Y3551D01*
X3073Y3554D01*
X3085Y3562D01*
X3087Y3565D01*
X3100Y3561D01*
Y3513D01*
X3101Y3504D01*
X3102Y3503D01*
X3095Y3491D01*
X3093D01*
Y3462D01*
X3149D01*
X3147Y3470D01*
X3142Y3478D01*
X3144Y3488D01*
X3147Y3491D01*
X3147Y3492D01*
X3155Y3496D01*
X3164Y3492D01*
X3173Y3490D01*
X3188D01*
X3197Y3492D01*
X3205Y3496D01*
X3214Y3492D01*
X3223Y3490D01*
X3238D01*
X3247Y3492D01*
X3254Y3497D01*
X3256D01*
X3264Y3492D01*
X3273Y3490D01*
X3288D01*
X3297Y3492D01*
X3305Y3496D01*
X3314Y3492D01*
X3323Y3490D01*
X3338D01*
X3347Y3492D01*
X3354Y3497D01*
X3356D01*
X3364Y3492D01*
X3373Y3490D01*
X3388D01*
X3397Y3492D01*
X3404Y3497D01*
X3407D01*
X3414Y3492D01*
X3423Y3490D01*
X3438D01*
X3447Y3492D01*
X3455Y3497D01*
X3465Y3492D01*
X3474Y3490D01*
X3489D01*
X3498Y3492D01*
X3499Y3491D01*
X3501Y3489D01*
X3512Y3482D01*
X3520Y3480D01*
Y3548D01*
X3545D01*
Y3480D01*
X3553Y3482D01*
X3562Y3488D01*
X3564Y3484D01*
X3578Y3471D01*
X3575Y3466D01*
X3573Y3457D01*
Y3442D01*
X3575Y3433D01*
X3580Y3425D01*
X3587Y3420D01*
X3596Y3419D01*
X3666D01*
Y3412D01*
X3673D01*
Y3411D01*
X3722D01*
Y3452D01*
Y3492D01*
X3709D01*
X3702Y3505D01*
X3704Y3515D01*
X3701Y3530D01*
X3692Y3543D01*
X3688Y3545D01*
Y3558D01*
X3701Y3565D01*
X3711Y3563D01*
X3726Y3566D01*
X3738Y3575D01*
X3742Y3580D01*
X3755Y3576D01*
Y3493D01*
X3748Y3493D01*
Y3465D01*
X3803D01*
Y3492D01*
X3816Y3493D01*
X3975D01*
X3981Y3480D01*
X3979Y3477D01*
X3977Y3467D01*
X3979Y3457D01*
X3985Y3449D01*
X3993Y3443D01*
X4003Y3441D01*
X4013Y3443D01*
X4021Y3449D01*
X4027Y3457D01*
X4029Y3467D01*
X4027Y3477D01*
X4025Y3480D01*
X4031Y3493D01*
X4085D01*
X4094Y3480D01*
X4094Y3480D01*
Y3439D01*
X4075Y3419D01*
X4044D01*
X4043Y3419D01*
X4034Y3421D01*
X3997D01*
X3988Y3419D01*
X3988Y3419D01*
X3957D01*
X3936Y3440D01*
X3929Y3445D01*
X3920Y3446D01*
X3883D01*
X3874Y3445D01*
X3867Y3440D01*
X3867Y3440D01*
X3866Y3439D01*
X3825D01*
X3816Y3437D01*
X3816Y3437D01*
X3813Y3439D01*
X3748D01*
Y3411D01*
X3771D01*
X3776Y3399D01*
X3752Y3375D01*
X3751Y3376D01*
X3736Y3378D01*
X3722Y3376D01*
X3709Y3367D01*
X3701Y3355D01*
X3698Y3340D01*
X3690Y3331D01*
X3677D01*
X3677Y3331D01*
Y3331D01*
X3665Y3329D01*
X3596D01*
X3587Y3327D01*
X3580Y3322D01*
X3575Y3315D01*
X3573Y3306D01*
Y3290D01*
X3575Y3282D01*
X3578Y3277D01*
X3565Y3264D01*
X3563Y3261D01*
X3551Y3256D01*
X3547Y3255D01*
X3540Y3257D01*
X3525D01*
X3516Y3255D01*
X3507Y3251D01*
X3498Y3255D01*
X3489Y3257D01*
X3474D01*
X3465Y3255D01*
X3456Y3251D01*
X3447Y3255D01*
X3438Y3257D01*
X3423D01*
X3414Y3255D01*
X3406Y3251D01*
X3397Y3255D01*
X3388Y3257D01*
X3373D01*
X3364Y3255D01*
X3355Y3251D01*
X3347Y3255D01*
X3338Y3257D01*
X3323D01*
X3314Y3255D01*
X3305Y3251D01*
X3297Y3255D01*
X3288Y3257D01*
X3273D01*
X3264Y3255D01*
X3255Y3251D01*
X3247Y3255D01*
X3238Y3257D01*
X3223D01*
X3214Y3255D01*
X3206Y3250D01*
X3204D01*
X3197Y3255D01*
X3188Y3257D01*
X3173D01*
X3164Y3255D01*
X3163Y3255D01*
X3162Y3257D01*
X3151Y3265D01*
X3147Y3274D01*
X3147Y3278D01*
X3149Y3285D01*
X3080D01*
X3012D01*
X3013Y3281D01*
X3006Y3267D01*
X3003Y3267D01*
X2987Y3260D01*
X2973Y3250D01*
X2963Y3236D01*
X2956Y3220D01*
X2954Y3203D01*
X2956Y3186D01*
X2963Y3170D01*
X2973Y3156D01*
X2987Y3145D01*
X3003Y3139D01*
X3020Y3137D01*
X3025Y3137D01*
X3032Y3125D01*
X3030Y3123D01*
X3028Y3109D01*
X3030Y3095D01*
X3038Y3084D01*
X3050Y3076D01*
X3063Y3073D01*
X3077Y3076D01*
X3086Y3082D01*
X3110Y3058D01*
X3110Y3058D01*
X3118Y3053D01*
X3123Y3052D01*
X3128Y3042D01*
X3128Y3038D01*
X3126Y3035D01*
X3124Y3025D01*
X3126Y3015D01*
X3131Y3007D01*
X3140Y3001D01*
X3150Y2999D01*
X3159Y3001D01*
X3168Y3007D01*
X3173Y3015D01*
X3175Y3025D01*
X3173Y3035D01*
X3171Y3038D01*
X3177Y3051D01*
X3181D01*
X3190Y3053D01*
X3197Y3058D01*
X3224Y3084D01*
X3232Y3086D01*
X3239Y3081D01*
X3254Y3078D01*
X3268Y3081D01*
X3281Y3089D01*
X3296Y3089D01*
X3300Y3086D01*
X3315Y3083D01*
X3329Y3086D01*
X3337Y3091D01*
X3349Y3097D01*
X3361Y3089D01*
X3366Y3088D01*
X3373Y3077D01*
X3373Y3075D01*
X3375Y3066D01*
X3375Y3066D01*
X3365Y3056D01*
X3359Y3056D01*
X3348Y3064D01*
X3333Y3067D01*
D01*
Y3010D01*
X3320D01*
Y2997D01*
X3269D01*
Y2992D01*
X3272Y2977D01*
X3280Y2965D01*
X3293Y2956D01*
X3300Y2955D01*
Y2913D01*
X3287Y2906D01*
X3284Y2908D01*
X3281Y2909D01*
X3255Y2935D01*
X3247Y2940D01*
X3239Y2941D01*
Y2979D01*
X3149D01*
Y2912D01*
X3137Y2901D01*
X3127Y2899D01*
X3119Y2893D01*
X3113Y2885D01*
X3111Y2875D01*
X3113Y2865D01*
X3119Y2857D01*
X3124Y2854D01*
X3120Y2841D01*
X2805Y2841D01*
X2793Y2842D01*
X2793Y2842D01*
X2793Y2842D01*
X2757Y2845D01*
X2723Y2855D01*
X2691Y2872D01*
X2664Y2895D01*
X2641Y2923D01*
X2624Y2954D01*
X2614Y2988D01*
X2610Y3024D01*
X2610D01*
Y3710D01*
X2623Y3717D01*
X2634Y3712D01*
Y3711D01*
X2725D01*
Y3792D01*
X2716D01*
X2713Y3797D01*
X2710Y3805D01*
X2713Y3818D01*
X2710Y3831D01*
X2713Y3843D01*
X2712Y3848D01*
X2723Y3859D01*
X2728Y3858D01*
X2743Y3861D01*
X2755Y3869D01*
X2763Y3882D01*
X2766Y3896D01*
X2765Y3905D01*
X2770Y3915D01*
X2774Y3917D01*
X2781Y3918D01*
X2789Y3924D01*
X2795Y3932D01*
X2797Y3942D01*
X2795Y3952D01*
X2789Y3960D01*
X2798Y3969D01*
X2801Y3970D01*
X2808Y3982D01*
X2811Y3984D01*
X2823Y3987D01*
X2825Y3985D01*
D02*
G37*
G36*
X3483Y2940D02*
Y2863D01*
X3561D01*
Y2858D01*
X3678D01*
Y2873D01*
X3744D01*
X3747Y2868D01*
X3760Y2860D01*
X3774Y2857D01*
X3789Y2860D01*
X3802Y2868D01*
X3810Y2881D01*
X3813Y2896D01*
X3810Y2910D01*
X3802Y2923D01*
X3796Y2927D01*
X3802Y2937D01*
X3806Y2937D01*
X3810Y2936D01*
X3895D01*
X3906Y2934D01*
Y2903D01*
X3975D01*
Y2878D01*
X3906D01*
Y2853D01*
X3897Y2840D01*
X3318Y2841D01*
X3311Y2854D01*
X3314Y2858D01*
X3391D01*
Y2863D01*
X3463D01*
Y2942D01*
X3470Y2947D01*
X3483Y2940D01*
D02*
G37*
G36*
X5519Y3134D02*
X5476D01*
Y3119D01*
Y3117D01*
X5476Y3116D01*
Y3115D01*
X5476Y3114D01*
X5476Y3113D01*
Y3112D01*
X5477Y3112D01*
Y3112D01*
X5477Y3110D01*
X5478Y3109D01*
X5478Y3108D01*
X5479Y3107D01*
X5479Y3107D01*
X5479Y3106D01*
X5479Y3106D01*
X5480Y3105D01*
X5481Y3104D01*
X5482Y3103D01*
X5483Y3102D01*
X5484Y3101D01*
X5485Y3100D01*
X5486Y3100D01*
X5486Y3100D01*
X5488Y3098D01*
X5490Y3097D01*
X5492Y3095D01*
X5494Y3093D01*
X5496Y3092D01*
X5497Y3092D01*
X5498Y3091D01*
X5498Y3091D01*
X5499Y3090D01*
X5499Y3090D01*
X5499D01*
X5519Y3077D01*
Y3061D01*
X5493Y3078D01*
X5490Y3080D01*
X5488Y3082D01*
X5485Y3084D01*
X5484Y3085D01*
X5482Y3087D01*
X5481Y3088D01*
X5480Y3089D01*
X5480Y3089D01*
Y3089D01*
X5479Y3090D01*
X5478Y3091D01*
X5477Y3094D01*
X5476Y3095D01*
X5475Y3096D01*
X5475Y3096D01*
X5475Y3097D01*
X5475Y3094D01*
X5474Y3092D01*
X5474Y3089D01*
X5473Y3087D01*
X5472Y3085D01*
X5471Y3084D01*
X5471Y3082D01*
X5470Y3081D01*
X5469Y3080D01*
X5468Y3079D01*
X5468Y3078D01*
X5467Y3077D01*
X5467Y3076D01*
X5466Y3076D01*
X5466Y3076D01*
X5466Y3076D01*
X5465Y3075D01*
X5463Y3073D01*
X5462Y3073D01*
X5460Y3072D01*
X5457Y3071D01*
X5455Y3070D01*
X5452Y3069D01*
X5451Y3069D01*
X5450Y3069D01*
X5450Y3069D01*
X5449D01*
X5446Y3069D01*
X5443Y3070D01*
X5440Y3070D01*
X5438Y3071D01*
X5436Y3072D01*
X5435Y3072D01*
X5434Y3073D01*
X5434Y3073D01*
X5434Y3073D01*
X5434D01*
X5432Y3075D01*
X5430Y3076D01*
X5428Y3078D01*
X5427Y3080D01*
X5426Y3082D01*
X5425Y3083D01*
X5425Y3083D01*
X5425Y3084D01*
X5424Y3084D01*
Y3084D01*
X5424Y3085D01*
X5424Y3087D01*
X5423Y3090D01*
X5422Y3093D01*
X5422Y3096D01*
X5422Y3098D01*
X5422Y3099D01*
Y3100D01*
X5422Y3102D01*
Y3102D01*
Y3103D01*
Y3104D01*
Y3104D01*
Y3147D01*
X5519D01*
Y3134D01*
D02*
G37*
G36*
X5826Y6198D02*
X5860Y6188D01*
X5891Y6172D01*
X5918Y6149D01*
X5941Y6122D01*
X5957Y6091D01*
X5967Y6057D01*
X5970Y6026D01*
X5970Y6022D01*
Y5042D01*
X5969Y5041D01*
X5954Y5031D01*
X5944Y5016D01*
X5940Y4999D01*
X5931Y4991D01*
X5931Y4991D01*
X5827D01*
X5822Y5003D01*
X5828Y5008D01*
X5828Y5008D01*
X5833Y5015D01*
X5834Y5024D01*
Y5095D01*
X5845Y5105D01*
X5859Y5108D01*
X5872Y5116D01*
X5880Y5129D01*
X5883Y5144D01*
X5880Y5158D01*
X5878Y5162D01*
X5885Y5174D01*
X5936D01*
Y5255D01*
X5859D01*
X5859Y5255D01*
X5845Y5258D01*
X5830Y5255D01*
X5817Y5247D01*
X5809Y5234D01*
X5806Y5220D01*
X5809Y5205D01*
X5817Y5193D01*
X5822Y5189D01*
Y5174D01*
X5817Y5171D01*
X5809Y5158D01*
X5806Y5144D01*
X5807Y5139D01*
X5795Y5127D01*
X5790Y5119D01*
X5789Y5111D01*
X5754D01*
X5751Y5116D01*
X5758Y5128D01*
X5768D01*
Y5171D01*
X5717D01*
Y5197D01*
X5768D01*
Y5240D01*
X5736D01*
X5735Y5253D01*
X5750Y5256D01*
X5763Y5264D01*
X5771Y5277D01*
X5774Y5291D01*
D01*
X5718D01*
X5661D01*
X5664Y5277D01*
X5672Y5264D01*
X5685Y5256D01*
X5700Y5253D01*
X5700Y5240D01*
X5666D01*
Y5237D01*
X5656Y5230D01*
X5634D01*
Y5337D01*
X5632Y5347D01*
X5626Y5357D01*
X5617Y5363D01*
X5614Y5363D01*
X5565Y5412D01*
X5563Y5425D01*
X5554Y5437D01*
X5542Y5446D01*
X5527Y5449D01*
X5512Y5446D01*
X5500Y5437D01*
X5492Y5425D01*
X5489Y5410D01*
X5492Y5396D01*
X5500Y5383D01*
X5505Y5380D01*
Y5364D01*
X5500Y5361D01*
X5492Y5349D01*
X5490Y5342D01*
X5473D01*
X5469Y5348D01*
X5459Y5355D01*
X5447Y5357D01*
X5417D01*
X5405Y5355D01*
X5395Y5348D01*
X5388Y5338D01*
X5386Y5326D01*
Y5265D01*
X5386Y5263D01*
X5377Y5250D01*
X5356D01*
X5347Y5260D01*
X5349Y5265D01*
Y5283D01*
X5292D01*
Y5309D01*
X5349D01*
Y5326D01*
X5345Y5342D01*
X5336Y5356D01*
X5326Y5362D01*
X5323Y5377D01*
X5410Y5463D01*
X5489D01*
X5498Y5465D01*
X5505Y5470D01*
X5542Y5507D01*
X5545Y5505D01*
X5561Y5498D01*
X5578Y5496D01*
X5595Y5498D01*
X5611Y5505D01*
X5625Y5516D01*
X5635Y5529D01*
X5642Y5545D01*
X5644Y5563D01*
X5642Y5580D01*
X5635Y5596D01*
X5625Y5610D01*
X5611Y5620D01*
X5595Y5627D01*
X5578Y5629D01*
X5561Y5627D01*
X5545Y5620D01*
X5531Y5610D01*
X5520Y5596D01*
X5514Y5580D01*
X5511Y5563D01*
X5514Y5545D01*
X5514Y5544D01*
X5479Y5509D01*
X5420D01*
X5420Y5522D01*
X5420D01*
Y5563D01*
X5432Y5565D01*
X5438Y5557D01*
X5446Y5552D01*
X5456Y5550D01*
X5466Y5552D01*
X5474Y5557D01*
X5480Y5565D01*
X5482Y5575D01*
X5480Y5585D01*
X5474Y5593D01*
X5466Y5599D01*
X5456Y5601D01*
X5446Y5599D01*
X5438Y5593D01*
X5432Y5585D01*
X5420Y5587D01*
Y5618D01*
X5384D01*
Y5570D01*
Y5522D01*
X5400D01*
X5400Y5509D01*
X5391Y5508D01*
X5384Y5503D01*
X5316Y5434D01*
X5305Y5441D01*
X5312Y5457D01*
X5314Y5474D01*
X5312Y5491D01*
X5305Y5507D01*
X5303Y5509D01*
X5310Y5522D01*
X5359D01*
Y5570D01*
Y5618D01*
X5304D01*
Y5570D01*
X5291D01*
Y5558D01*
X5232D01*
X5230Y5556D01*
X5224Y5560D01*
X5224Y5560D01*
X5214Y5575D01*
X5215Y5578D01*
X5214Y5582D01*
X5231Y5599D01*
X5243Y5594D01*
Y5583D01*
X5278D01*
Y5618D01*
X5268D01*
X5263Y5630D01*
X5280Y5647D01*
X5312D01*
Y5647D01*
X5325Y5657D01*
X5330Y5656D01*
X5339D01*
Y5753D01*
X5364D01*
Y5656D01*
X5373D01*
X5389Y5659D01*
X5391Y5661D01*
X5394Y5660D01*
X5399Y5653D01*
X5406Y5648D01*
X5414Y5646D01*
X5452D01*
X5461Y5648D01*
X5468Y5653D01*
X5472Y5660D01*
X5474Y5668D01*
Y5679D01*
X5484Y5689D01*
X5486Y5690D01*
X5489Y5689D01*
X5504Y5692D01*
X5516Y5701D01*
X5524Y5713D01*
X5527Y5728D01*
X5524Y5742D01*
X5519Y5751D01*
X5517Y5759D01*
X5519Y5768D01*
X5524Y5777D01*
X5527Y5791D01*
X5524Y5806D01*
X5516Y5818D01*
X5504Y5827D01*
X5489Y5830D01*
X5484Y5833D01*
Y5837D01*
X5482Y5850D01*
X5475Y5860D01*
X5465Y5867D01*
X5452Y5869D01*
X5446D01*
Y5828D01*
X5420D01*
Y5871D01*
X5414Y5882D01*
X5415Y5883D01*
X5418Y5898D01*
X5415Y5913D01*
X5407Y5925D01*
X5394Y5933D01*
X5380Y5936D01*
X5365Y5933D01*
X5353Y5925D01*
X5350Y5921D01*
X5342D01*
X5342Y5921D01*
X5333Y5919D01*
X5325Y5914D01*
X5296Y5885D01*
X5284Y5890D01*
X5284Y5961D01*
X5295Y5967D01*
X5352D01*
Y5962D01*
X5473D01*
Y6053D01*
X5434D01*
X5434Y6054D01*
X5429Y6061D01*
X5422Y6066D01*
X5413Y6068D01*
X5404Y6066D01*
X5397Y6061D01*
X5392Y6054D01*
X5391Y6053D01*
X5352D01*
Y6048D01*
X5266D01*
X5266Y5978D01*
X5255Y5971D01*
X5250Y5974D01*
Y6056D01*
X5219D01*
X5216Y6061D01*
X5208Y6066D01*
X5199Y6068D01*
X5177D01*
X5168Y6066D01*
X5160Y6061D01*
X5160Y6061D01*
X5155Y6056D01*
X5133D01*
Y6117D01*
X5210D01*
X5212Y6107D01*
X5220Y6094D01*
X5233Y6086D01*
X5248Y6083D01*
X5253Y6084D01*
X5266Y6074D01*
Y6068D01*
X5357D01*
Y6113D01*
X5382D01*
X5386Y6107D01*
X5398Y6099D01*
X5413Y6096D01*
X5427Y6099D01*
X5440Y6107D01*
X5444Y6113D01*
X5473D01*
Y6200D01*
X5791D01*
X5799Y6201D01*
X5799Y6201D01*
X5826Y6198D01*
D02*
G37*
G36*
X3673Y3914D02*
X3673Y3914D01*
X3673Y3914D01*
X3674Y3909D01*
X3675Y3905D01*
X3675Y3905D01*
X3675Y3905D01*
X3677Y3901D01*
X3679Y3898D01*
X3680Y3898D01*
X3680Y3898D01*
X3682Y3895D01*
X3682Y3889D01*
X3679Y3881D01*
X3672Y3876D01*
X3667Y3868D01*
X3665Y3860D01*
X3659Y3856D01*
X3653Y3853D01*
X3650Y3855D01*
X3635Y3858D01*
X3630D01*
Y3820D01*
X3674D01*
X3673Y3825D01*
X3676Y3828D01*
X3684Y3834D01*
X3691Y3833D01*
X3700Y3834D01*
X3701Y3834D01*
X3712Y3827D01*
Y3801D01*
X3677Y3766D01*
X3667Y3774D01*
X3671Y3779D01*
X3674Y3794D01*
D01*
X3617D01*
Y3807D01*
X3604D01*
Y3858D01*
X3599D01*
X3592Y3857D01*
X3582Y3865D01*
X3582Y3865D01*
X3588Y3878D01*
X3597Y3880D01*
X3605Y3885D01*
X3659Y3939D01*
X3673D01*
Y3914D01*
D02*
G37*
G36*
X4724Y3919D02*
X4725Y3915D01*
X4726Y3911D01*
X4726Y3911D01*
X4726Y3910D01*
X4728Y3907D01*
X4731Y3903D01*
X4800Y3832D01*
Y3792D01*
X5011D01*
Y3775D01*
X5009Y3771D01*
X5006Y3757D01*
X5009Y3742D01*
X5014Y3735D01*
X5008Y3722D01*
X4800D01*
Y3641D01*
X4811D01*
Y3614D01*
X4812Y3606D01*
X4817Y3598D01*
X4867Y3548D01*
Y3493D01*
X4860Y3493D01*
Y3465D01*
X4916D01*
Y3492D01*
X4929Y3493D01*
X5186D01*
X5191Y3480D01*
X5188Y3476D01*
X5187Y3467D01*
Y3383D01*
Y3307D01*
X5174Y3303D01*
X5173Y3304D01*
X5161Y3312D01*
X5146Y3315D01*
X5135Y3313D01*
X5134Y3315D01*
X5131Y3329D01*
X5122Y3342D01*
X5110Y3350D01*
X5095Y3353D01*
X5081Y3350D01*
X5080Y3350D01*
X5067Y3357D01*
Y3412D01*
X5072Y3415D01*
X5080Y3427D01*
X5083Y3442D01*
X5080Y3456D01*
X5072Y3469D01*
X5059Y3477D01*
X5044Y3480D01*
X5030Y3477D01*
X5017Y3469D01*
X5009Y3456D01*
X5006Y3442D01*
X5009Y3427D01*
X5017Y3415D01*
X5021Y3412D01*
Y3319D01*
X5009Y3312D01*
X5008Y3312D01*
X4994Y3315D01*
X4979Y3312D01*
X4978Y3312D01*
X4966Y3319D01*
Y3327D01*
X4964Y3336D01*
X4959Y3344D01*
X4934Y3369D01*
X4926Y3374D01*
X4917Y3376D01*
X4840D01*
X4839Y3385D01*
X4830Y3397D01*
X4828Y3399D01*
X4832Y3411D01*
X4835D01*
Y3452D01*
Y3492D01*
X4779D01*
Y3482D01*
X4763D01*
Y3619D01*
X4762Y3624D01*
X4761Y3628D01*
X4761Y3628D01*
X4761Y3628D01*
X4758Y3632D01*
X4756Y3635D01*
X4695Y3699D01*
X4695Y3699D01*
X4695Y3699D01*
X4691Y3702D01*
X4688Y3704D01*
X4688Y3704D01*
X4687Y3704D01*
X4683Y3705D01*
X4679Y3706D01*
X4674Y3717D01*
Y3722D01*
X4256D01*
X4246Y3729D01*
X4239Y3740D01*
X4226Y3749D01*
X4211Y3752D01*
X4206D01*
Y3700D01*
X4181D01*
Y3756D01*
X4177Y3764D01*
X4185Y3772D01*
X4190Y3779D01*
X4192Y3788D01*
Y3881D01*
X4204Y3887D01*
X4256Y3836D01*
Y3792D01*
X4674D01*
X4674Y3792D01*
X4687Y3797D01*
X4699Y3794D01*
X4714Y3797D01*
X4726Y3806D01*
X4734Y3818D01*
X4737Y3833D01*
X4734Y3848D01*
X4726Y3860D01*
X4722Y3863D01*
Y3876D01*
X4722Y3876D01*
X4720Y3885D01*
X4715Y3892D01*
X4715Y3892D01*
X4681Y3926D01*
X4687Y3939D01*
X4724D01*
Y3919D01*
D02*
G37*
G36*
X5474Y3006D02*
X5476Y3006D01*
X5481Y3006D01*
X5484Y3005D01*
X5486Y3005D01*
X5488Y3004D01*
X5490Y3003D01*
X5491Y3003D01*
X5493Y3002D01*
X5494Y3002D01*
X5495Y3001D01*
X5496Y3001D01*
X5497Y3001D01*
X5497Y3001D01*
X5497D01*
X5499Y2999D01*
X5501Y2998D01*
X5503Y2997D01*
X5505Y2995D01*
X5506Y2994D01*
X5508Y2992D01*
X5509Y2991D01*
X5510Y2989D01*
X5511Y2988D01*
X5512Y2987D01*
X5513Y2986D01*
X5514Y2985D01*
X5514Y2984D01*
X5515Y2983D01*
X5515Y2983D01*
X5515Y2983D01*
X5516Y2981D01*
X5517Y2978D01*
X5519Y2974D01*
X5520Y2969D01*
X5520Y2967D01*
X5520Y2965D01*
X5521Y2964D01*
X5521Y2962D01*
X5521Y2960D01*
Y2959D01*
X5521Y2958D01*
Y2957D01*
Y2957D01*
Y2957D01*
X5521Y2953D01*
X5520Y2949D01*
X5520Y2945D01*
X5519Y2942D01*
X5519Y2941D01*
X5518Y2940D01*
X5518Y2939D01*
X5518Y2938D01*
X5518Y2937D01*
X5517Y2936D01*
X5517Y2936D01*
Y2936D01*
X5516Y2932D01*
X5514Y2928D01*
X5512Y2925D01*
X5510Y2922D01*
X5509Y2921D01*
X5508Y2920D01*
X5508Y2919D01*
X5507Y2918D01*
X5507Y2917D01*
X5506Y2917D01*
X5506Y2916D01*
X5506Y2916D01*
X5470D01*
Y2958D01*
X5481D01*
Y2929D01*
X5499D01*
X5501Y2931D01*
X5502Y2933D01*
X5503Y2935D01*
X5504Y2936D01*
X5505Y2938D01*
X5506Y2940D01*
X5506Y2940D01*
X5506Y2941D01*
X5506Y2941D01*
Y2941D01*
X5507Y2944D01*
X5508Y2947D01*
X5509Y2950D01*
X5509Y2952D01*
X5509Y2954D01*
Y2955D01*
X5510Y2956D01*
Y2957D01*
Y2957D01*
Y2957D01*
Y2957D01*
X5509Y2961D01*
X5509Y2964D01*
X5508Y2967D01*
X5507Y2970D01*
X5507Y2971D01*
X5507Y2972D01*
X5506Y2973D01*
X5506Y2974D01*
X5506Y2975D01*
X5505Y2975D01*
X5505Y2976D01*
Y2976D01*
X5504Y2979D01*
X5502Y2981D01*
X5499Y2984D01*
X5497Y2985D01*
X5495Y2987D01*
X5494Y2987D01*
X5494Y2988D01*
X5493Y2988D01*
X5493Y2988D01*
X5492Y2989D01*
X5492D01*
X5489Y2990D01*
X5485Y2991D01*
X5481Y2992D01*
X5478Y2993D01*
X5476Y2993D01*
X5475Y2993D01*
X5474Y2993D01*
X5473D01*
X5472Y2993D01*
X5470D01*
X5466Y2993D01*
X5463Y2993D01*
X5459Y2992D01*
X5457Y2991D01*
X5455Y2991D01*
X5454Y2991D01*
X5453Y2990D01*
X5452Y2990D01*
X5452Y2990D01*
X5451Y2990D01*
X5451Y2989D01*
X5451D01*
X5449Y2989D01*
X5447Y2988D01*
X5445Y2987D01*
X5444Y2986D01*
X5443Y2985D01*
X5442Y2984D01*
X5441Y2983D01*
X5441Y2983D01*
X5440Y2982D01*
X5438Y2980D01*
X5437Y2978D01*
X5436Y2977D01*
X5435Y2975D01*
X5434Y2974D01*
X5434Y2973D01*
X5434Y2973D01*
Y2973D01*
X5433Y2970D01*
X5432Y2968D01*
X5432Y2965D01*
X5432Y2963D01*
X5431Y2961D01*
Y2960D01*
X5431Y2959D01*
Y2958D01*
Y2958D01*
Y2958D01*
Y2958D01*
X5431Y2955D01*
X5432Y2952D01*
X5432Y2950D01*
X5432Y2948D01*
X5433Y2947D01*
X5433Y2945D01*
X5434Y2944D01*
X5434Y2944D01*
Y2944D01*
X5435Y2942D01*
X5436Y2940D01*
X5437Y2939D01*
X5438Y2937D01*
X5439Y2936D01*
X5440Y2935D01*
X5440Y2935D01*
X5441Y2935D01*
X5442Y2934D01*
X5444Y2933D01*
X5446Y2932D01*
X5448Y2931D01*
X5450Y2930D01*
X5451Y2930D01*
X5452Y2930D01*
X5452Y2930D01*
X5452Y2929D01*
X5452D01*
X5449Y2918D01*
X5446Y2919D01*
X5442Y2920D01*
X5440Y2921D01*
X5438Y2922D01*
X5436Y2924D01*
X5435Y2924D01*
X5434Y2924D01*
X5434Y2925D01*
X5433Y2925D01*
X5433Y2925D01*
X5433D01*
X5431Y2927D01*
X5429Y2929D01*
X5427Y2932D01*
X5426Y2934D01*
X5425Y2936D01*
X5425Y2936D01*
X5424Y2937D01*
X5424Y2938D01*
X5424Y2938D01*
X5424Y2938D01*
Y2939D01*
X5423Y2942D01*
X5422Y2945D01*
X5421Y2948D01*
X5420Y2951D01*
X5420Y2953D01*
X5420Y2954D01*
Y2955D01*
X5420Y2956D01*
Y2957D01*
Y2957D01*
Y2958D01*
Y2958D01*
X5420Y2960D01*
X5420Y2963D01*
X5421Y2968D01*
X5422Y2970D01*
X5422Y2972D01*
X5423Y2974D01*
X5423Y2976D01*
X5424Y2978D01*
X5424Y2979D01*
X5425Y2980D01*
X5425Y2981D01*
X5426Y2982D01*
X5426Y2983D01*
X5426Y2983D01*
X5426Y2983D01*
X5427Y2986D01*
X5429Y2987D01*
X5432Y2991D01*
X5433Y2992D01*
X5435Y2994D01*
X5436Y2995D01*
X5438Y2996D01*
X5439Y2997D01*
X5440Y2998D01*
X5441Y2999D01*
X5442Y2999D01*
X5443Y3000D01*
X5444Y3000D01*
X5444Y3001D01*
X5444Y3001D01*
X5447Y3002D01*
X5449Y3003D01*
X5454Y3004D01*
X5458Y3005D01*
X5460Y3005D01*
X5462Y3006D01*
X5464Y3006D01*
X5466Y3006D01*
X5467Y3006D01*
X5469D01*
X5470Y3006D01*
X5471D01*
X5474Y3006D01*
D02*
G37*
G36*
X5490Y3018D02*
X5478D01*
Y3055D01*
X5490D01*
Y3018D01*
D02*
G37*
G36*
X4957Y2882D02*
X4960Y2883D01*
X4969Y2874D01*
X4968Y2870D01*
X4970Y2858D01*
X4964Y2845D01*
X4913D01*
X4906Y2858D01*
X4910Y2863D01*
X4912Y2874D01*
X4912Y2875D01*
X4921Y2882D01*
X4924Y2884D01*
X4932Y2882D01*
Y2939D01*
X4957D01*
Y2882D01*
D02*
G37*
%LPC*%
G36*
X3312Y4252D02*
X3302Y4250D01*
X3294Y4245D01*
X3288Y4236D01*
X3287Y4227D01*
X3288Y4217D01*
X3294Y4208D01*
X3302Y4203D01*
X3312Y4201D01*
X3322Y4203D01*
X3330Y4208D01*
X3336Y4217D01*
X3338Y4227D01*
X3336Y4236D01*
X3330Y4245D01*
X3322Y4250D01*
X3312Y4252D01*
D02*
G37*
G36*
X4061Y4161D02*
X4052Y4159D01*
X4043Y4153D01*
X4038Y4145D01*
X4036Y4135D01*
X4038Y4125D01*
X4043Y4117D01*
X4052Y4111D01*
X4061Y4109D01*
X4071Y4111D01*
X4080Y4117D01*
X4085Y4125D01*
X4087Y4135D01*
X4085Y4145D01*
X4080Y4153D01*
X4071Y4159D01*
X4061Y4161D01*
D02*
G37*
G36*
X5460Y4257D02*
X5376D01*
X5376Y4141D01*
X5376Y4141D01*
X5372Y4132D01*
X5361Y4126D01*
X5354Y4125D01*
X5338Y4114D01*
X5327Y4098D01*
X5323Y4080D01*
X5327Y4061D01*
X5338Y4045D01*
X5354Y4035D01*
X5372Y4031D01*
X5391Y4035D01*
X5407Y4045D01*
X5417Y4061D01*
X5421Y4080D01*
X5417Y4098D01*
X5407Y4114D01*
X5395Y4122D01*
X5391Y4125D01*
X5385Y4129D01*
Y4129D01*
X5385D01*
X5386Y4139D01*
X5386Y4139D01*
X5386Y4139D01*
X5388Y4139D01*
X5460D01*
Y4257D01*
D02*
G37*
G36*
X5569D02*
X5485D01*
Y4139D01*
X5569D01*
Y4257D01*
D02*
G37*
G36*
X4067Y4763D02*
X4057Y4761D01*
X4048Y4755D01*
X4043Y4747D01*
X4041Y4737D01*
X4043Y4727D01*
X4048Y4719D01*
X4057Y4713D01*
X4067Y4711D01*
X4076Y4713D01*
X4085Y4719D01*
X4090Y4727D01*
X4092Y4737D01*
X4090Y4747D01*
X4085Y4755D01*
X4076Y4761D01*
X4067Y4763D01*
D02*
G37*
G36*
X5847Y4572D02*
X5773D01*
Y4519D01*
X5847D01*
Y4572D01*
D02*
G37*
G36*
X3901Y4852D02*
X3892Y4850D01*
X3883Y4844D01*
X3878Y4836D01*
X3876Y4826D01*
X3877Y4818D01*
X3876Y4814D01*
X3870Y4805D01*
X3868D01*
Y4721D01*
X3971D01*
Y4805D01*
X3933D01*
X3927Y4814D01*
X3925Y4818D01*
X3927Y4826D01*
X3925Y4836D01*
X3920Y4844D01*
X3911Y4850D01*
X3901Y4852D01*
D02*
G37*
G36*
X2835Y4839D02*
X2825Y4837D01*
X2817Y4831D01*
X2811Y4823D01*
X2809Y4813D01*
X2811Y4803D01*
X2817Y4795D01*
X2825Y4790D01*
X2835Y4788D01*
X2844Y4790D01*
X2853Y4795D01*
X2858Y4803D01*
X2860Y4813D01*
X2858Y4823D01*
X2853Y4831D01*
X2844Y4837D01*
X2835Y4839D01*
D02*
G37*
G36*
X4542Y4805D02*
X4439D01*
Y4721D01*
X4542D01*
Y4805D01*
D02*
G37*
G36*
X4117Y4293D02*
X4108Y4291D01*
X4099Y4285D01*
X4094Y4277D01*
X4092Y4267D01*
X4094Y4257D01*
X4099Y4249D01*
X4108Y4244D01*
X4117Y4242D01*
X4127Y4244D01*
X4135Y4249D01*
X4141Y4257D01*
X4143Y4267D01*
X4141Y4277D01*
X4135Y4285D01*
X4127Y4291D01*
X4117Y4293D01*
D02*
G37*
G36*
X3932Y4260D02*
X3922Y4258D01*
X3914Y4252D01*
X3908Y4244D01*
X3906Y4234D01*
X3908Y4224D01*
X3914Y4216D01*
X3922Y4210D01*
X3932Y4209D01*
X3942Y4210D01*
X3950Y4216D01*
X3956Y4224D01*
X3958Y4234D01*
X3956Y4244D01*
X3950Y4252D01*
X3942Y4258D01*
X3932Y4260D01*
D02*
G37*
G36*
X2664Y4371D02*
X2630D01*
Y4293D01*
X2664D01*
Y4371D01*
D02*
G37*
G36*
X4206Y4445D02*
X4196Y4443D01*
X4188Y4438D01*
X4183Y4429D01*
X4181Y4420D01*
X4183Y4410D01*
X4188Y4401D01*
X4196Y4396D01*
X4206Y4394D01*
X4216Y4396D01*
X4224Y4401D01*
X4230Y4410D01*
X4232Y4420D01*
X4230Y4429D01*
X4224Y4438D01*
X4216Y4443D01*
X4206Y4445D01*
D02*
G37*
G36*
X3279Y4420D02*
X3269Y4418D01*
X3261Y4412D01*
X3255Y4404D01*
X3253Y4394D01*
X3255Y4384D01*
X3261Y4376D01*
X3269Y4371D01*
X3279Y4369D01*
X3289Y4371D01*
X3297Y4376D01*
X3303Y4384D01*
X3305Y4394D01*
X3303Y4404D01*
X3297Y4412D01*
X3289Y4418D01*
X3279Y4420D01*
D02*
G37*
G36*
X3038Y3338D02*
X3032Y3337D01*
X3021Y3330D01*
X3014Y3319D01*
X3012Y3311D01*
X3068D01*
Y3334D01*
X3038D01*
Y3338D01*
D02*
G37*
G36*
X3308Y3067D02*
X3293Y3064D01*
X3280Y3055D01*
X3272Y3043D01*
X3269Y3028D01*
Y3023D01*
X3308D01*
Y3067D01*
D02*
G37*
G36*
X2926Y3373D02*
X2916Y3371D01*
X2908Y3366D01*
X2902Y3358D01*
X2900Y3348D01*
X2902Y3338D01*
X2908Y3330D01*
X2916Y3324D01*
X2926Y3322D01*
X2936Y3324D01*
X2944Y3330D01*
X2950Y3338D01*
X2952Y3348D01*
X2950Y3358D01*
X2944Y3366D01*
X2936Y3371D01*
X2926Y3373D01*
D02*
G37*
G36*
X3133Y3334D02*
X3093D01*
Y3311D01*
X3149D01*
X3147Y3319D01*
X3140Y3330D01*
X3133Y3334D01*
D02*
G37*
G36*
X3010Y2926D02*
X3000Y2924D01*
X2992Y2919D01*
X2986Y2910D01*
X2984Y2901D01*
X2986Y2891D01*
X2992Y2883D01*
X3000Y2877D01*
X3010Y2875D01*
X3020Y2877D01*
X3028Y2883D01*
X3034Y2891D01*
X3036Y2901D01*
X3034Y2910D01*
X3028Y2919D01*
X3020Y2924D01*
X3010Y2926D01*
D02*
G37*
G36*
X5465Y3134D02*
X5433D01*
Y3103D01*
Y3101D01*
X5433Y3099D01*
X5433Y3098D01*
X5433Y3096D01*
X5434Y3095D01*
X5434Y3093D01*
X5434Y3092D01*
X5435Y3091D01*
X5436Y3090D01*
X5436Y3088D01*
X5437Y3088D01*
X5437Y3087D01*
X5439Y3086D01*
X5441Y3084D01*
X5443Y3084D01*
X5444Y3083D01*
X5446Y3083D01*
X5447Y3082D01*
X5448Y3082D01*
X5449D01*
X5450Y3082D01*
X5452Y3083D01*
X5453Y3083D01*
X5455Y3084D01*
X5456Y3084D01*
X5457Y3085D01*
X5457Y3085D01*
X5457Y3085D01*
X5459Y3086D01*
X5460Y3087D01*
X5461Y3089D01*
X5462Y3090D01*
X5462Y3091D01*
X5463Y3092D01*
X5463Y3092D01*
X5463Y3093D01*
X5464Y3095D01*
X5464Y3097D01*
X5465Y3099D01*
X5465Y3101D01*
X5465Y3103D01*
X5465Y3104D01*
Y3105D01*
Y3106D01*
Y3106D01*
Y3106D01*
Y3106D01*
Y3134D01*
D02*
G37*
G36*
X2987Y3046D02*
X2971Y3042D01*
X2958Y3034D01*
X2949Y3020D01*
X2946Y3005D01*
X2949Y2989D01*
X2958Y2976D01*
X2971Y2967D01*
X2987Y2964D01*
X3003Y2967D01*
X3016Y2976D01*
X3025Y2989D01*
X3028Y3005D01*
X3025Y3020D01*
X3016Y3034D01*
X3003Y3042D01*
X2987Y3046D01*
D02*
G37*
G36*
X2791Y3149D02*
X2759Y3145D01*
X2728Y3132D01*
X2702Y3112D01*
X2682Y3086D01*
X2669Y3055D01*
X2665Y3023D01*
X2669Y2990D01*
X2682Y2959D01*
X2702Y2933D01*
X2728Y2913D01*
X2759Y2900D01*
X2791Y2896D01*
X2824Y2900D01*
X2855Y2913D01*
X2881Y2933D01*
X2901Y2959D01*
X2914Y2990D01*
X2918Y3023D01*
X2914Y3055D01*
X2901Y3086D01*
X2881Y3112D01*
X2855Y3132D01*
X2824Y3145D01*
X2791Y3149D01*
D02*
G37*
G36*
X5491Y3383D02*
X5447D01*
Y3324D01*
X5449D01*
X5465Y3327D01*
X5479Y3336D01*
X5488Y3350D01*
X5491Y3365D01*
Y3383D01*
D02*
G37*
G36*
X5403Y3777D02*
X5364D01*
Y3734D01*
X5403D01*
Y3777D01*
D02*
G37*
G36*
X4762Y3785D02*
X4753Y3783D01*
X4744Y3777D01*
X4739Y3769D01*
X4737Y3759D01*
X4739Y3749D01*
X4744Y3741D01*
X4753Y3735D01*
X4762Y3734D01*
X4772Y3735D01*
X4781Y3741D01*
X4786Y3749D01*
X4788Y3759D01*
X4786Y3769D01*
X4781Y3777D01*
X4772Y3783D01*
X4762Y3785D01*
D02*
G37*
G36*
X2820Y3910D02*
X2805Y3907D01*
X2793Y3898D01*
X2784Y3886D01*
X2781Y3871D01*
Y3866D01*
X2820D01*
Y3910D01*
D02*
G37*
G36*
X2766Y3800D02*
X2756Y3798D01*
X2748Y3793D01*
X2742Y3784D01*
X2740Y3774D01*
X2742Y3765D01*
X2748Y3756D01*
X2756Y3751D01*
X2766Y3749D01*
X2776Y3751D01*
X2784Y3756D01*
X2790Y3765D01*
X2792Y3774D01*
X2790Y3784D01*
X2784Y3793D01*
X2776Y3798D01*
X2766Y3800D01*
D02*
G37*
G36*
X3149Y3437D02*
X3093D01*
Y3412D01*
X3131D01*
X3140Y3418D01*
X3147Y3429D01*
X3149Y3437D01*
D02*
G37*
G36*
X4916Y3439D02*
X4860D01*
Y3411D01*
X4916D01*
Y3439D01*
D02*
G37*
G36*
X5403Y3708D02*
X5364D01*
Y3665D01*
X5403D01*
Y3708D01*
D02*
G37*
G36*
X5926Y3822D02*
X5835D01*
Y3742D01*
X5870D01*
X5876Y3733D01*
X5870Y3722D01*
X5835D01*
Y3660D01*
X5819D01*
Y3569D01*
X5941D01*
Y3660D01*
X5926D01*
Y3722D01*
X5934Y3731D01*
X5935Y3732D01*
X5944Y3745D01*
X5946Y3759D01*
X5944Y3774D01*
X5935Y3786D01*
X5926Y3793D01*
Y3822D01*
D02*
G37*
G36*
X4928Y5474D02*
X4918Y5472D01*
X4909Y5466D01*
X4904Y5458D01*
X4902Y5448D01*
X4904Y5438D01*
X4909Y5430D01*
X4918Y5425D01*
X4928Y5423D01*
X4937Y5425D01*
X4946Y5430D01*
X4951Y5438D01*
X4953Y5448D01*
X4951Y5458D01*
X4946Y5466D01*
X4937Y5472D01*
X4928Y5474D01*
D02*
G37*
G36*
X5451Y5449D02*
X5441Y5447D01*
X5433Y5441D01*
X5427Y5433D01*
X5425Y5423D01*
X5427Y5413D01*
X5433Y5405D01*
X5441Y5399D01*
X5451Y5397D01*
X5461Y5399D01*
X5469Y5405D01*
X5475Y5413D01*
X5476Y5423D01*
X5475Y5433D01*
X5469Y5441D01*
X5461Y5447D01*
X5451Y5449D01*
D02*
G37*
G36*
X5718Y5743D02*
X5700Y5741D01*
X5684Y5734D01*
X5671Y5724D01*
X5660Y5710D01*
X5653Y5694D01*
X5651Y5677D01*
X5653Y5660D01*
X5660Y5644D01*
X5671Y5630D01*
X5684Y5619D01*
X5695Y5615D01*
Y5509D01*
X5672Y5486D01*
X5667Y5487D01*
X5652Y5484D01*
X5640Y5475D01*
X5631Y5463D01*
X5628Y5448D01*
X5631Y5434D01*
X5640Y5421D01*
X5652Y5413D01*
X5664Y5410D01*
X5672Y5400D01*
X5672Y5397D01*
Y5371D01*
X5674Y5361D01*
X5680Y5351D01*
X5674Y5345D01*
X5672Y5344D01*
X5664Y5332D01*
X5661Y5317D01*
D01*
X5718D01*
X5774D01*
X5771Y5332D01*
X5763Y5344D01*
X5762Y5345D01*
X5755Y5351D01*
X5761Y5361D01*
X5764Y5371D01*
Y5397D01*
X5761Y5408D01*
X5755Y5417D01*
X5746Y5423D01*
X5735Y5425D01*
X5730D01*
X5705Y5450D01*
X5704Y5453D01*
X5734Y5483D01*
X5739Y5490D01*
X5740Y5499D01*
X5740Y5499D01*
Y5615D01*
X5751Y5619D01*
X5757Y5624D01*
X5769Y5617D01*
X5768Y5613D01*
X5771Y5599D01*
X5779Y5586D01*
X5792Y5578D01*
X5806Y5575D01*
X5817Y5577D01*
X5830Y5569D01*
Y5498D01*
X5951D01*
Y5589D01*
X5880D01*
X5875Y5595D01*
Y5613D01*
X5873Y5622D01*
X5868Y5630D01*
X5861Y5635D01*
X5852Y5636D01*
X5836D01*
X5834Y5641D01*
X5821Y5649D01*
X5806Y5652D01*
X5792Y5649D01*
X5791Y5648D01*
X5780Y5657D01*
X5782Y5660D01*
X5784Y5677D01*
X5782Y5694D01*
X5775Y5710D01*
X5764Y5724D01*
X5751Y5734D01*
X5735Y5741D01*
X5718Y5743D01*
D02*
G37*
G36*
X4702Y5550D02*
X4692Y5548D01*
X4683Y5543D01*
X4678Y5534D01*
X4676Y5524D01*
X4678Y5515D01*
X4683Y5506D01*
X4692Y5501D01*
X4702Y5499D01*
X4711Y5501D01*
X4720Y5506D01*
X4725Y5515D01*
X4727Y5524D01*
X4725Y5534D01*
X4720Y5543D01*
X4711Y5548D01*
X4702Y5550D01*
D02*
G37*
G36*
X3406D02*
X3396Y5548D01*
X3388Y5543D01*
X3382Y5534D01*
X3380Y5524D01*
X3382Y5515D01*
X3388Y5506D01*
X3396Y5501D01*
X3406Y5499D01*
X3416Y5501D01*
X3424Y5506D01*
X3430Y5515D01*
X3432Y5524D01*
X3430Y5534D01*
X3424Y5543D01*
X3416Y5548D01*
X3406Y5550D01*
D02*
G37*
G36*
X2751Y5540D02*
X2629D01*
Y5449D01*
X2644D01*
Y5387D01*
X2735D01*
Y5449D01*
X2751D01*
Y5540D01*
D02*
G37*
G36*
X2891Y5329D02*
X2858D01*
Y5296D01*
X2891D01*
Y5329D01*
D02*
G37*
G36*
X5891Y5438D02*
X5890Y5438D01*
X5830D01*
Y5347D01*
X5845D01*
Y5275D01*
X5936D01*
Y5347D01*
X5951D01*
Y5438D01*
X5893D01*
X5891Y5438D01*
D02*
G37*
G36*
X2949Y5329D02*
X2916D01*
Y5296D01*
X2949D01*
Y5329D01*
D02*
G37*
G36*
X3749Y5423D02*
X3739Y5421D01*
X3731Y5416D01*
X3725Y5407D01*
X3723Y5397D01*
X3725Y5388D01*
X3731Y5379D01*
X3739Y5374D01*
X3749Y5372D01*
X3759Y5374D01*
X3767Y5379D01*
X3773Y5388D01*
X3775Y5397D01*
X3773Y5407D01*
X3767Y5416D01*
X3759Y5421D01*
X3749Y5423D01*
D02*
G37*
G36*
X3899Y5349D02*
X3889Y5348D01*
X3881Y5342D01*
X3875Y5334D01*
X3873Y5324D01*
X3875Y5314D01*
X3881Y5306D01*
X3889Y5300D01*
X3899Y5298D01*
X3909Y5300D01*
X3917Y5306D01*
X3923Y5314D01*
X3925Y5324D01*
X3923Y5334D01*
X3917Y5342D01*
X3909Y5348D01*
X3899Y5349D01*
D02*
G37*
G36*
X3203Y5536D02*
X3201Y5536D01*
X3200Y5536D01*
X3198Y5535D01*
X3195Y5535D01*
X3194Y5534D01*
X3192Y5533D01*
X3191Y5532D01*
X3189Y5530D01*
X3189Y5530D01*
X3188Y5529D01*
X3187Y5527D01*
X3185Y5524D01*
X3184Y5524D01*
X3184Y5523D01*
X3184Y5523D01*
X3177Y5499D01*
X3175Y5498D01*
X3174Y5496D01*
X3173Y5495D01*
X3171Y5493D01*
X3169Y5491D01*
X3169Y5489D01*
X3168Y5488D01*
X3166Y5485D01*
X3166Y5484D01*
X3165Y5483D01*
X3164Y5480D01*
X3164Y5479D01*
X3164Y5478D01*
X3163Y5474D01*
X3163Y5473D01*
X3162Y5473D01*
X3162Y5468D01*
X3162Y5468D01*
X3162Y5468D01*
X3161Y5466D01*
X3161Y5466D01*
X3160Y5465D01*
X3159Y5465D01*
X3157Y5463D01*
X3156Y5462D01*
X3154Y5461D01*
X3152Y5459D01*
X3151Y5457D01*
X3150Y5456D01*
X3149Y5454D01*
X3148Y5453D01*
X3147Y5452D01*
X3147Y5451D01*
X3147Y5451D01*
X3145Y5449D01*
X3143Y5448D01*
X3142Y5447D01*
X3141Y5445D01*
X3140Y5444D01*
X3138Y5442D01*
X3138Y5440D01*
X3137Y5438D01*
X3136Y5436D01*
X3136Y5435D01*
X3135Y5433D01*
X3133Y5430D01*
X3130Y5427D01*
X3130Y5427D01*
X3130Y5426D01*
X3126Y5422D01*
X3126Y5421D01*
X3125Y5420D01*
X3124Y5418D01*
X3123Y5415D01*
X3123Y5414D01*
X3122Y5412D01*
X3122Y5409D01*
X3121Y5405D01*
X3120Y5402D01*
X3120Y5402D01*
X3120Y5402D01*
X3119Y5398D01*
X3119Y5398D01*
X3119Y5398D01*
X3118Y5394D01*
X3118Y5393D01*
X3118Y5392D01*
X3118Y5388D01*
X3118Y5387D01*
X3118Y5385D01*
X3118Y5382D01*
X3119Y5381D01*
X3119Y5379D01*
X3119Y5376D01*
X3120Y5375D01*
X3120Y5375D01*
X3121Y5372D01*
X3121Y5371D01*
X3121Y5371D01*
X3122Y5367D01*
X3124Y5363D01*
X3124Y5361D01*
X3125Y5358D01*
X3125Y5357D01*
X3127Y5347D01*
X3135Y5336D01*
X3143Y5309D01*
X3143Y5309D01*
X3144Y5306D01*
X3149Y5299D01*
X3149Y5299D01*
X3149Y5299D01*
X3155Y5295D01*
X3159Y5294D01*
X3159Y5294D01*
X3159Y5292D01*
X3158Y5288D01*
X3159Y5280D01*
X3159Y5279D01*
X3159Y5279D01*
X3160Y5276D01*
X3161Y5273D01*
X3161Y5272D01*
X3161Y5271D01*
X3166Y5264D01*
X3167Y5263D01*
X3167Y5261D01*
X3169Y5260D01*
X3171Y5258D01*
X3172Y5257D01*
X3173Y5256D01*
X3174Y5256D01*
X3176Y5254D01*
X3179Y5252D01*
X3179Y5251D01*
X3180Y5251D01*
X3183Y5250D01*
X3186Y5248D01*
X3187Y5248D01*
X3187Y5248D01*
X3191Y5248D01*
X3194Y5248D01*
X3205Y5248D01*
X3210Y5240D01*
X3219Y5234D01*
X3228Y5232D01*
X3238Y5234D01*
X3246Y5240D01*
X3252Y5248D01*
X3254Y5258D01*
X3252Y5268D01*
X3246Y5276D01*
X3238Y5281D01*
X3228Y5283D01*
X3228Y5284D01*
X3227Y5286D01*
X3227Y5286D01*
X3227Y5298D01*
X3228Y5299D01*
X3229Y5300D01*
X3230Y5300D01*
X3233Y5303D01*
X3234Y5303D01*
X3235Y5304D01*
X3238Y5307D01*
X3239Y5308D01*
X3240Y5309D01*
X3243Y5313D01*
X3244Y5314D01*
X3245Y5315D01*
X3248Y5319D01*
X3248Y5321D01*
X3250Y5323D01*
X3250Y5325D01*
X3250Y5326D01*
X3250Y5326D01*
X3251Y5326D01*
X3253Y5327D01*
X3253Y5327D01*
X3253Y5327D01*
X3253Y5327D01*
X3254Y5327D01*
X3255Y5327D01*
X3255Y5327D01*
X3256Y5327D01*
X3256Y5327D01*
X3256Y5328D01*
X3256Y5328D01*
X3257Y5328D01*
X3258Y5328D01*
X3259Y5328D01*
X3260Y5329D01*
X3261Y5329D01*
X3263Y5330D01*
X3263Y5330D01*
X3263Y5330D01*
X3264Y5330D01*
X3264Y5331D01*
X3265Y5331D01*
X3266Y5332D01*
X3267Y5333D01*
X3267Y5333D01*
X3268Y5334D01*
X3269Y5335D01*
X3269Y5335D01*
X3269Y5335D01*
X3270Y5336D01*
X3271Y5337D01*
X3271Y5338D01*
X3272Y5339D01*
X3272Y5339D01*
X3272Y5339D01*
X3273Y5340D01*
X3273Y5342D01*
X3273Y5342D01*
X3274Y5342D01*
X3276Y5342D01*
X3277Y5342D01*
X3289Y5341D01*
X3302Y5334D01*
X3303Y5332D01*
X3305Y5329D01*
X3305Y5329D01*
X3306Y5329D01*
X3309Y5327D01*
X3312Y5325D01*
X3312Y5325D01*
X3312Y5325D01*
X3316Y5324D01*
X3318Y5324D01*
X3317Y5322D01*
X3334Y5320D01*
X3335Y5320D01*
X3337Y5318D01*
X3340Y5316D01*
X3341Y5316D01*
X3341Y5316D01*
X3343Y5314D01*
X3344Y5314D01*
X3345Y5313D01*
X3348Y5312D01*
X3349Y5311D01*
X3351Y5311D01*
X3354Y5310D01*
X3356Y5310D01*
X3358Y5309D01*
X3361Y5309D01*
X3363Y5309D01*
X3365Y5309D01*
X3369Y5309D01*
X3370Y5309D01*
X3370Y5309D01*
X3374Y5310D01*
X3374Y5310D01*
X3374Y5310D01*
X3377Y5310D01*
X3378Y5311D01*
X3378Y5311D01*
X3381Y5311D01*
X3382Y5312D01*
X3383Y5312D01*
X3383Y5313D01*
X3384Y5313D01*
X3384Y5313D01*
X3385Y5313D01*
X3387Y5315D01*
X3388Y5315D01*
X3388Y5316D01*
X3390Y5317D01*
X3391Y5317D01*
X3391Y5318D01*
X3391Y5318D01*
X3392Y5319D01*
X3393Y5321D01*
X3394Y5323D01*
X3395Y5324D01*
X3395Y5324D01*
X3395Y5324D01*
X3395Y5324D01*
X3395Y5324D01*
X3395Y5324D01*
X3395Y5325D01*
X3396Y5328D01*
X3397Y5329D01*
X3397Y5330D01*
X3397Y5331D01*
X3397Y5332D01*
X3397Y5332D01*
X3397Y5332D01*
X3397Y5333D01*
X3397Y5333D01*
X3397Y5333D01*
X3397Y5334D01*
X3397Y5335D01*
X3397Y5337D01*
X3397Y5338D01*
X3396Y5339D01*
X3396Y5340D01*
X3396Y5340D01*
X3396Y5341D01*
X3395Y5342D01*
X3395Y5343D01*
X3395Y5343D01*
X3396Y5346D01*
X3396Y5347D01*
X3397Y5347D01*
X3398Y5350D01*
X3399Y5351D01*
X3399Y5353D01*
X3400Y5355D01*
X3400Y5357D01*
X3414Y5378D01*
X3415Y5380D01*
X3416Y5382D01*
X3416Y5384D01*
X3417Y5385D01*
X3416Y5388D01*
X3417Y5390D01*
X3417Y5391D01*
X3417Y5393D01*
X3417Y5393D01*
X3418Y5394D01*
X3419Y5399D01*
X3419Y5400D01*
X3419Y5400D01*
X3420Y5405D01*
X3420Y5405D01*
X3420Y5406D01*
X3421Y5411D01*
X3421Y5412D01*
X3421Y5412D01*
X3421Y5418D01*
X3421Y5423D01*
X3422Y5430D01*
X3422Y5433D01*
X3421Y5436D01*
X3421Y5437D01*
X3421Y5438D01*
X3420Y5440D01*
X3418Y5443D01*
X3418Y5444D01*
X3417Y5445D01*
X3415Y5447D01*
X3412Y5449D01*
X3412Y5449D01*
X3411Y5450D01*
X3408Y5451D01*
X3407Y5451D01*
X3406Y5452D01*
X3406Y5452D01*
X3406Y5452D01*
X3404Y5456D01*
X3403Y5456D01*
X3403Y5456D01*
X3400Y5458D01*
X3398Y5461D01*
X3397Y5461D01*
X3397Y5461D01*
X3394Y5462D01*
X3390Y5463D01*
X3389Y5464D01*
X3389Y5464D01*
X3389Y5464D01*
X3387Y5466D01*
X3386Y5466D01*
X3385Y5467D01*
X3382Y5468D01*
X3380Y5469D01*
X3379Y5469D01*
X3377Y5470D01*
X3375Y5470D01*
X3374Y5471D01*
X3372Y5471D01*
X3371Y5471D01*
X3370Y5471D01*
X3368Y5471D01*
X3365Y5476D01*
X3364Y5480D01*
X3364Y5480D01*
X3364Y5481D01*
X3363Y5485D01*
X3362Y5486D01*
X3362Y5487D01*
X3360Y5490D01*
X3358Y5492D01*
X3357Y5495D01*
X3356Y5496D01*
X3355Y5496D01*
X3353Y5498D01*
X3350Y5500D01*
X3350Y5500D01*
X3350Y5500D01*
X3348Y5503D01*
X3346Y5504D01*
X3343Y5506D01*
X3341Y5508D01*
X3338Y5509D01*
X3336Y5509D01*
X3334Y5510D01*
X3331Y5511D01*
X3330Y5511D01*
X3328Y5511D01*
X3325Y5511D01*
X3324Y5511D01*
X3323Y5511D01*
X3321Y5511D01*
X3320Y5510D01*
X3319Y5510D01*
X3317Y5510D01*
X3314Y5509D01*
X3311Y5508D01*
X3308Y5512D01*
X3308Y5512D01*
X3307Y5514D01*
X3306Y5514D01*
X3306Y5515D01*
X3306Y5515D01*
X3305Y5515D01*
X3304Y5516D01*
X3303Y5517D01*
X3301Y5518D01*
X3300Y5519D01*
X3300Y5519D01*
X3300Y5519D01*
X3299Y5519D01*
X3298Y5520D01*
X3296Y5521D01*
X3295Y5521D01*
X3295Y5521D01*
X3295Y5522D01*
X3295Y5522D01*
X3293Y5525D01*
X3292Y5525D01*
X3292Y5526D01*
X3289Y5528D01*
X3286Y5530D01*
X3286Y5530D01*
X3285Y5530D01*
X3282Y5530D01*
X3278Y5531D01*
X3278Y5531D01*
X3277Y5531D01*
X3274Y5530D01*
X3273Y5530D01*
X3273Y5531D01*
X3255Y5524D01*
X3255Y5524D01*
X3254Y5524D01*
X3253Y5524D01*
X3252Y5524D01*
X3250Y5524D01*
X3250Y5524D01*
X3248Y5523D01*
X3248Y5523D01*
X3248Y5523D01*
X3248Y5523D01*
X3246Y5523D01*
X3246Y5523D01*
X3245Y5523D01*
X3245Y5523D01*
X3244Y5522D01*
X3242Y5521D01*
X3241Y5521D01*
X3241Y5520D01*
X3241Y5520D01*
X3241Y5520D01*
X3241Y5520D01*
X3238Y5519D01*
X3236Y5519D01*
X3233Y5520D01*
X3228Y5521D01*
X3228Y5521D01*
X3226Y5522D01*
X3225Y5523D01*
X3224Y5524D01*
X3223Y5525D01*
X3221Y5528D01*
X3219Y5529D01*
X3217Y5531D01*
X3215Y5533D01*
X3213Y5533D01*
X3211Y5535D01*
X3209Y5535D01*
X3208Y5536D01*
X3205Y5536D01*
X3203Y5536D01*
D02*
G37*
G36*
X3452Y6180D02*
X3279D01*
Y6068D01*
X3244D01*
Y6014D01*
X3235Y6005D01*
X3223Y6010D01*
Y6068D01*
X3219D01*
Y6180D01*
X3128D01*
Y6058D01*
X3132D01*
Y5987D01*
X3199D01*
X3204Y5976D01*
X3196Y5967D01*
X3132D01*
Y5886D01*
X3122Y5879D01*
X2971D01*
Y5769D01*
X2958Y5762D01*
X2944Y5764D01*
X2927Y5761D01*
X2911Y5755D01*
X2897Y5744D01*
X2886Y5730D01*
X2880Y5714D01*
X2877Y5697D01*
X2878Y5693D01*
X2877Y5691D01*
X2875Y5682D01*
Y5548D01*
X2874Y5547D01*
X2872Y5537D01*
X2874Y5527D01*
X2880Y5519D01*
X2888Y5513D01*
X2898Y5512D01*
X2908Y5513D01*
X2916Y5519D01*
X2922Y5527D01*
X2924Y5537D01*
X2922Y5547D01*
X2921Y5548D01*
Y5623D01*
X2934Y5632D01*
X2944Y5631D01*
X2961Y5633D01*
X2977Y5640D01*
X2991Y5650D01*
X3001Y5664D01*
X3008Y5680D01*
X3010Y5697D01*
X3008Y5714D01*
X3001Y5730D01*
X2997Y5736D01*
X3003Y5749D01*
X3169D01*
X3170Y5736D01*
X3169Y5736D01*
X3161Y5731D01*
X2782Y5352D01*
X2735D01*
Y5367D01*
X2644D01*
Y5286D01*
X2735D01*
Y5306D01*
X2779D01*
X2780Y5305D01*
X2789Y5303D01*
X2798Y5305D01*
X2805Y5310D01*
X3187Y5692D01*
X3224D01*
X3227Y5688D01*
X3239Y5680D01*
X3254Y5677D01*
X3268Y5680D01*
X3281Y5688D01*
X3284Y5692D01*
X3470D01*
X3478Y5694D01*
X3486Y5699D01*
X3549Y5762D01*
X3549Y5762D01*
X3554Y5770D01*
X3556Y5778D01*
Y5951D01*
X3574D01*
Y6042D01*
X3493D01*
Y5951D01*
X3510D01*
Y5788D01*
X3460Y5738D01*
X3359D01*
X3352Y5751D01*
X3353Y5751D01*
X3356Y5766D01*
X3353Y5780D01*
X3344Y5793D01*
X3332Y5801D01*
X3317Y5804D01*
X3312Y5816D01*
Y5886D01*
X3335D01*
Y5967D01*
X3279D01*
X3274Y5978D01*
X3281Y5987D01*
X3335D01*
X3335Y5987D01*
Y5987D01*
X3347Y5988D01*
X3353Y5984D01*
X3368Y5981D01*
X3379Y5984D01*
X3392Y5976D01*
Y5951D01*
X3473D01*
Y6042D01*
X3457D01*
Y6096D01*
X3457Y6097D01*
X3457Y6097D01*
X3456Y6101D01*
X3455Y6105D01*
X3455Y6105D01*
X3455Y6106D01*
X3452Y6109D01*
X3452Y6110D01*
Y6180D01*
D02*
G37*
G36*
X3838Y6182D02*
X3609D01*
X3601Y6181D01*
X3599Y6180D01*
X3512D01*
Y6058D01*
X3599D01*
Y6038D01*
X3696D01*
Y6025D01*
X3708D01*
Y5904D01*
X3792D01*
Y5969D01*
X3805Y5975D01*
X3811Y5972D01*
X3825Y5969D01*
X3840Y5972D01*
X3852Y5980D01*
X3861Y5992D01*
X3864Y6007D01*
X3863Y6012D01*
X3880Y6029D01*
X3885Y6036D01*
X3886Y6045D01*
Y6134D01*
X3885Y6143D01*
X3880Y6150D01*
X3854Y6176D01*
X3847Y6181D01*
X3838Y6182D01*
D02*
G37*
G36*
X4524Y6147D02*
X4514Y6145D01*
X4506Y6140D01*
X4500Y6131D01*
X4498Y6121D01*
X4500Y6112D01*
X4506Y6103D01*
X4514Y6098D01*
X4524Y6096D01*
X4534Y6098D01*
X4542Y6103D01*
X4547Y6112D01*
X4549Y6121D01*
X4547Y6131D01*
X4542Y6140D01*
X4534Y6145D01*
X4524Y6147D01*
D02*
G37*
G36*
X4054Y6122D02*
X4042Y6119D01*
X3952D01*
X3940Y6122D01*
X3925Y6119D01*
X3912Y6110D01*
X3904Y6098D01*
X3901Y6083D01*
X3904Y6069D01*
X3912Y6056D01*
X3925Y6048D01*
X3940Y6045D01*
X3952Y6047D01*
X4042D01*
X4054Y6045D01*
X4069Y6048D01*
X4081Y6056D01*
X4089Y6069D01*
X4092Y6083D01*
X4089Y6098D01*
X4081Y6110D01*
X4069Y6119D01*
X4054Y6122D01*
D02*
G37*
G36*
X4638Y6147D02*
X4628Y6145D01*
X4620Y6140D01*
X4614Y6131D01*
X4612Y6121D01*
X4614Y6112D01*
X4620Y6103D01*
X4628Y6098D01*
X4638Y6096D01*
X4648Y6098D01*
X4656Y6103D01*
X4662Y6112D01*
X4664Y6121D01*
X4662Y6131D01*
X4656Y6140D01*
X4648Y6145D01*
X4638Y6147D01*
D02*
G37*
G36*
X4600Y5944D02*
X4585Y5941D01*
X4573Y5933D01*
X4570Y5928D01*
X4084D01*
X4081Y5933D01*
X4069Y5941D01*
X4054Y5944D01*
X4039Y5941D01*
X4027Y5933D01*
X4018Y5920D01*
X4015Y5906D01*
X4018Y5891D01*
X4027Y5878D01*
X4032Y5875D01*
X4028Y5862D01*
X4006D01*
Y5761D01*
Y5659D01*
X4049D01*
Y5649D01*
X4084D01*
Y5575D01*
X4086Y5567D01*
X4091Y5559D01*
X4167Y5484D01*
X4162Y5470D01*
X4161Y5469D01*
X4153Y5464D01*
X4147Y5456D01*
X4145Y5446D01*
X4147Y5436D01*
X4153Y5428D01*
X4161Y5422D01*
X4171Y5420D01*
X4180Y5422D01*
X4189Y5428D01*
X4194Y5436D01*
X4195Y5437D01*
X4208Y5442D01*
X4363Y5287D01*
X4361Y5285D01*
X4358Y5271D01*
X4361Y5256D01*
X4364Y5252D01*
X4366Y5238D01*
X4360Y5230D01*
X4358Y5220D01*
X4360Y5210D01*
X4366Y5202D01*
X4374Y5196D01*
X4384Y5194D01*
X4394Y5196D01*
X4402Y5202D01*
X4408Y5210D01*
X4410Y5220D01*
X4410Y5221D01*
X4416Y5235D01*
X4424Y5240D01*
X4433Y5249D01*
X4438Y5257D01*
X4440Y5265D01*
X4438Y5274D01*
X4433Y5282D01*
X4433Y5282D01*
X4433Y5282D01*
X4432Y5285D01*
X4424Y5298D01*
X4411Y5306D01*
X4408Y5307D01*
X4205Y5510D01*
X4209Y5524D01*
X4218Y5530D01*
X4221Y5535D01*
X4237D01*
X4240Y5533D01*
X4248Y5531D01*
X4257Y5533D01*
X4265Y5538D01*
X4334Y5608D01*
X4339Y5615D01*
X4341Y5624D01*
Y5640D01*
X4350Y5649D01*
X4379Y5649D01*
X4379Y5637D01*
Y5609D01*
X4420D01*
X4421Y5607D01*
X4465Y5563D01*
Y5256D01*
X4467Y5247D01*
X4472Y5239D01*
X4502Y5209D01*
X4501Y5204D01*
X4504Y5190D01*
X4512Y5177D01*
X4524Y5169D01*
X4539Y5166D01*
X4554Y5169D01*
X4566Y5177D01*
X4574Y5190D01*
X4577Y5204D01*
X4574Y5219D01*
X4566Y5232D01*
X4574Y5242D01*
X4576Y5243D01*
X4585Y5256D01*
X4588Y5271D01*
X4585Y5285D01*
X4576Y5298D01*
X4564Y5306D01*
X4549Y5309D01*
X4547Y5311D01*
Y5568D01*
X4598Y5620D01*
X4603Y5627D01*
X4605Y5636D01*
Y5705D01*
X4603Y5714D01*
X4601Y5718D01*
Y5832D01*
X4489D01*
Y5791D01*
X4379Y5791D01*
X4379Y5803D01*
Y5832D01*
X4269D01*
Y5852D01*
X4158D01*
Y5832D01*
X4059D01*
Y5855D01*
X4059Y5862D01*
X4068Y5870D01*
X4069Y5870D01*
X4081Y5878D01*
X4084Y5883D01*
X4570D01*
X4573Y5878D01*
X4585Y5870D01*
X4600Y5867D01*
X4615Y5870D01*
X4627Y5878D01*
X4635Y5891D01*
X4638Y5906D01*
X4635Y5920D01*
X4627Y5933D01*
X4615Y5941D01*
X4600Y5944D01*
D02*
G37*
G36*
X4778Y5931D02*
X4768Y5929D01*
X4760Y5924D01*
X4754Y5915D01*
X4752Y5906D01*
X4754Y5896D01*
X4760Y5887D01*
X4768Y5882D01*
X4778Y5880D01*
X4788Y5882D01*
X4796Y5887D01*
X4801Y5896D01*
X4803Y5906D01*
X4801Y5915D01*
X4796Y5924D01*
X4788Y5929D01*
X4778Y5931D01*
D02*
G37*
G36*
X2751Y5691D02*
X2629D01*
Y5600D01*
X2699D01*
X2714Y5584D01*
X2722Y5580D01*
X2728Y5578D01*
X2731Y5574D01*
X2744Y5565D01*
X2758Y5562D01*
X2773Y5565D01*
X2786Y5574D01*
X2794Y5586D01*
X2797Y5601D01*
X2794Y5615D01*
X2786Y5628D01*
X2773Y5636D01*
X2758Y5639D01*
X2751Y5646D01*
Y5691D01*
D02*
G37*
G36*
X2791Y6149D02*
X2759Y6145D01*
X2728Y6132D01*
X2702Y6112D01*
X2682Y6086D01*
X2669Y6055D01*
X2665Y6022D01*
X2669Y5990D01*
X2682Y5959D01*
X2702Y5933D01*
X2728Y5913D01*
X2759Y5900D01*
X2791Y5896D01*
X2824Y5900D01*
X2855Y5913D01*
X2881Y5933D01*
X2901Y5959D01*
X2914Y5990D01*
X2918Y6022D01*
X2914Y6055D01*
X2901Y6086D01*
X2881Y6112D01*
X2855Y6132D01*
X2824Y6145D01*
X2791Y6149D01*
D02*
G37*
G36*
X3683Y6012D02*
X3599D01*
Y5904D01*
X3683D01*
Y6012D01*
D02*
G37*
G36*
X5791Y6149D02*
X5758Y6145D01*
X5728Y6132D01*
X5702Y6112D01*
X5682Y6086D01*
X5669Y6055D01*
X5665Y6022D01*
X5669Y5990D01*
X5682Y5959D01*
X5702Y5933D01*
X5728Y5913D01*
X5758Y5900D01*
X5791Y5896D01*
X5824Y5900D01*
X5854Y5913D01*
X5881Y5933D01*
X5901Y5959D01*
X5913Y5990D01*
X5918Y6022D01*
X5913Y6055D01*
X5901Y6086D01*
X5881Y6112D01*
X5854Y6132D01*
X5824Y6145D01*
X5791Y6149D01*
D02*
G37*
G36*
X5496Y5037D02*
X5462D01*
Y4958D01*
X5496D01*
Y5037D01*
D02*
G37*
G36*
X5240D02*
X5206D01*
Y4958D01*
X5240D01*
Y5037D01*
D02*
G37*
G36*
X3599Y5136D02*
X3508D01*
Y5058D01*
X3508Y5055D01*
X3500Y5045D01*
X3498D01*
Y5007D01*
X3553D01*
X3609D01*
Y5044D01*
X3609Y5045D01*
X3611Y5057D01*
X3651D01*
X3701Y5006D01*
X3701Y5006D01*
X3698Y4991D01*
X3701Y4976D01*
X3709Y4964D01*
X3722Y4956D01*
X3736Y4953D01*
X3751Y4956D01*
X3763Y4964D01*
X3772Y4976D01*
X3775Y4991D01*
X3772Y5006D01*
X3763Y5018D01*
X3751Y5027D01*
X3745Y5028D01*
X3676Y5096D01*
X3669Y5101D01*
X3660Y5103D01*
X3599D01*
Y5136D01*
D02*
G37*
G36*
X5614Y5070D02*
X5575D01*
Y5065D01*
X5578Y5050D01*
X5587Y5037D01*
X5599Y5029D01*
X5614Y5026D01*
D01*
Y5070D01*
D02*
G37*
G36*
X3161Y5096D02*
X3156D01*
Y5017D01*
X3205D01*
Y5052D01*
X3202Y5069D01*
X3192Y5083D01*
X3178Y5093D01*
X3161Y5096D01*
D02*
G37*
G36*
X3131D02*
X3125D01*
X3109Y5093D01*
X3094Y5083D01*
X3085Y5069D01*
X3081Y5052D01*
Y5017D01*
X3131D01*
Y5096D01*
D02*
G37*
G36*
X5131Y4915D02*
X5126D01*
X5111Y4912D01*
X5098Y4904D01*
X5090Y4891D01*
X5087Y4876D01*
D01*
X5131D01*
Y4915D01*
D02*
G37*
G36*
X5583Y4900D02*
X5578D01*
Y4861D01*
X5622D01*
X5619Y4876D01*
X5610Y4888D01*
X5598Y4897D01*
X5583Y4900D01*
D02*
G37*
G36*
X4206Y4839D02*
X4196Y4837D01*
X4188Y4831D01*
X4183Y4823D01*
X4181Y4813D01*
X4183Y4803D01*
X4188Y4795D01*
X4196Y4790D01*
X4206Y4788D01*
X4216Y4790D01*
X4224Y4795D01*
X4230Y4803D01*
X4232Y4813D01*
X4230Y4823D01*
X4224Y4831D01*
X4216Y4837D01*
X4206Y4839D01*
D02*
G37*
G36*
X5019Y4966D02*
X5009Y4964D01*
X5001Y4958D01*
X4995Y4950D01*
X4993Y4940D01*
X4995Y4930D01*
X5001Y4922D01*
X5009Y4917D01*
X5019Y4915D01*
X5029Y4917D01*
X5037Y4922D01*
X5043Y4930D01*
X5045Y4940D01*
X5043Y4950D01*
X5037Y4958D01*
X5029Y4964D01*
X5019Y4966D01*
D02*
G37*
G36*
X3609Y4982D02*
X3553D01*
X3498D01*
Y4944D01*
X3498Y4944D01*
X3498D01*
X3501Y4931D01*
X3500Y4929D01*
X3497Y4914D01*
D01*
X3553D01*
X3610D01*
X3607Y4929D01*
X3606Y4931D01*
X3609Y4944D01*
X3609D01*
X3609Y4944D01*
Y4982D01*
D02*
G37*
G36*
X5161Y4915D02*
X5156D01*
Y4876D01*
X5200D01*
X5197Y4891D01*
X5189Y4904D01*
X5176Y4912D01*
X5161Y4915D01*
D02*
G37*
G36*
X3917Y5240D02*
X3907Y5238D01*
X3899Y5233D01*
X3893Y5224D01*
X3891Y5215D01*
X3893Y5205D01*
X3899Y5196D01*
X3907Y5191D01*
X3917Y5189D01*
X3926Y5191D01*
X3935Y5196D01*
X3940Y5205D01*
X3942Y5215D01*
X3940Y5224D01*
X3935Y5233D01*
X3926Y5238D01*
X3917Y5240D01*
D02*
G37*
G36*
X4308Y5182D02*
X4298Y5180D01*
X4290Y5174D01*
X4284Y5166D01*
X4282Y5156D01*
X4284Y5146D01*
X4290Y5138D01*
X4298Y5133D01*
X4308Y5131D01*
X4318Y5133D01*
X4326Y5138D01*
X4332Y5146D01*
X4333Y5156D01*
X4332Y5166D01*
X4326Y5174D01*
X4318Y5180D01*
X4308Y5182D01*
D02*
G37*
G36*
X2891Y5271D02*
X2858D01*
Y5237D01*
X2891D01*
Y5271D01*
D02*
G37*
G36*
X4625Y5309D02*
X4616Y5307D01*
X4607Y5301D01*
X4602Y5293D01*
X4600Y5283D01*
X4602Y5273D01*
X4607Y5265D01*
X4616Y5260D01*
X4625Y5258D01*
X4635Y5260D01*
X4643Y5265D01*
X4649Y5273D01*
X4651Y5283D01*
X4649Y5293D01*
X4643Y5301D01*
X4635Y5307D01*
X4625Y5309D01*
D02*
G37*
G36*
X2949Y5271D02*
X2916D01*
Y5237D01*
X2949D01*
Y5271D01*
D02*
G37*
G36*
X3740Y5176D02*
X3730Y5174D01*
X3722Y5169D01*
X3716Y5160D01*
X3714Y5151D01*
X3716Y5141D01*
X3722Y5133D01*
X3730Y5127D01*
X3740Y5125D01*
X3750Y5127D01*
X3758Y5133D01*
X3764Y5141D01*
X3766Y5151D01*
X3764Y5160D01*
X3758Y5169D01*
X3750Y5174D01*
X3740Y5176D01*
D02*
G37*
G36*
X4676Y5118D02*
X4666Y5116D01*
X4658Y5111D01*
X4652Y5103D01*
X4650Y5093D01*
X4652Y5083D01*
X4658Y5075D01*
X4666Y5069D01*
X4676Y5067D01*
X4686Y5069D01*
X4694Y5075D01*
X4700Y5083D01*
X4702Y5093D01*
X4700Y5103D01*
X4694Y5111D01*
X4686Y5116D01*
X4676Y5118D01*
D02*
G37*
G36*
X2873Y5106D02*
X2863Y5104D01*
X2855Y5098D01*
X2849Y5090D01*
X2847Y5080D01*
X2849Y5070D01*
X2855Y5062D01*
X2863Y5056D01*
X2873Y5054D01*
X2883Y5056D01*
X2891Y5062D01*
X2896Y5070D01*
X2898Y5080D01*
X2896Y5090D01*
X2891Y5098D01*
X2883Y5104D01*
X2873Y5106D01*
D02*
G37*
G36*
X3838Y5080D02*
X3828Y5078D01*
X3820Y5073D01*
X3814Y5064D01*
X3812Y5055D01*
X3814Y5045D01*
X3820Y5036D01*
X3828Y5031D01*
X3838Y5029D01*
X3848Y5031D01*
X3856Y5036D01*
X3862Y5045D01*
X3864Y5055D01*
X3862Y5064D01*
X3856Y5073D01*
X3848Y5078D01*
X3838Y5080D01*
D02*
G37*
G36*
X2936Y5156D02*
X2926Y5154D01*
X2918Y5149D01*
X2913Y5141D01*
X2911Y5131D01*
X2913Y5121D01*
X2918Y5113D01*
X2926Y5107D01*
X2936Y5105D01*
X2946Y5107D01*
X2954Y5113D01*
X2960Y5121D01*
X2962Y5131D01*
X2960Y5141D01*
X2954Y5149D01*
X2946Y5154D01*
X2936Y5156D01*
D02*
G37*
G36*
X3785Y5123D02*
X3775Y5121D01*
X3766Y5116D01*
X3761Y5108D01*
X3759Y5098D01*
X3761Y5088D01*
X3766Y5080D01*
X3775Y5074D01*
X3785Y5072D01*
X3794Y5074D01*
X3803Y5080D01*
X3808Y5088D01*
X3810Y5098D01*
X3808Y5108D01*
X3803Y5116D01*
X3794Y5121D01*
X3785Y5123D01*
D02*
G37*
%LPD*%
G36*
X3171Y5766D02*
X3135D01*
X3132Y5766D01*
X3129Y5766D01*
X3126Y5766D01*
X3124Y5767D01*
X3122Y5767D01*
X3122Y5767D01*
X3121Y5767D01*
X3120Y5767D01*
X3120D01*
X3120Y5767D01*
X3120D01*
X3117Y5768D01*
X3115Y5769D01*
X3113Y5770D01*
X3111Y5770D01*
X3110Y5771D01*
X3109Y5772D01*
X3108Y5772D01*
X3108Y5772D01*
X3106Y5774D01*
X3105Y5775D01*
X3103Y5777D01*
X3102Y5778D01*
X3101Y5779D01*
X3100Y5780D01*
X3099Y5781D01*
X3099Y5781D01*
X3098Y5783D01*
X3096Y5786D01*
X3095Y5788D01*
X3094Y5790D01*
X3093Y5792D01*
X3093Y5793D01*
X3093Y5794D01*
X3093Y5795D01*
X3093Y5795D01*
X3092Y5795D01*
Y5795D01*
X3092Y5799D01*
X3091Y5802D01*
X3090Y5805D01*
X3090Y5808D01*
X3090Y5810D01*
X3090Y5811D01*
Y5812D01*
X3090Y5813D01*
Y5814D01*
Y5815D01*
Y5815D01*
Y5815D01*
X3090Y5820D01*
X3090Y5824D01*
X3091Y5826D01*
X3091Y5828D01*
X3091Y5830D01*
X3092Y5832D01*
X3092Y5833D01*
X3092Y5834D01*
X3093Y5836D01*
X3093Y5837D01*
X3093Y5837D01*
X3094Y5838D01*
X3094Y5838D01*
Y5838D01*
X3095Y5842D01*
X3097Y5845D01*
X3099Y5848D01*
X3101Y5851D01*
X3102Y5852D01*
X3103Y5852D01*
X3103Y5853D01*
X3104Y5854D01*
X3105Y5854D01*
X3105Y5855D01*
X3105Y5855D01*
X3105Y5855D01*
X3108Y5857D01*
X3110Y5858D01*
X3112Y5859D01*
X3115Y5860D01*
X3117Y5861D01*
X3117Y5861D01*
X3118Y5862D01*
X3119Y5862D01*
X3119Y5862D01*
X3120Y5862D01*
X3120D01*
X3122Y5862D01*
X3125Y5863D01*
X3128Y5863D01*
X3131Y5863D01*
X3133D01*
X3134Y5863D01*
X3171D01*
Y5766D01*
D02*
G37*
G36*
X3072D02*
X3059D01*
Y5809D01*
X3042D01*
X3041Y5809D01*
X3039D01*
X3038Y5809D01*
X3038Y5809D01*
X3037D01*
X3037Y5809D01*
X3037D01*
X3035Y5808D01*
X3034Y5807D01*
X3033Y5807D01*
X3032Y5807D01*
X3031Y5806D01*
X3031Y5806D01*
X3031Y5806D01*
X3030Y5805D01*
X3029Y5804D01*
X3028Y5803D01*
X3027Y5802D01*
X3026Y5801D01*
X3025Y5800D01*
X3025Y5800D01*
X3024Y5799D01*
X3023Y5797D01*
X3021Y5795D01*
X3020Y5793D01*
X3018Y5791D01*
X3017Y5789D01*
X3016Y5788D01*
X3016Y5787D01*
X3015Y5787D01*
X3015Y5786D01*
X3015Y5786D01*
Y5786D01*
X3002Y5766D01*
X2986D01*
X3003Y5792D01*
X3005Y5795D01*
X3007Y5798D01*
X3008Y5800D01*
X3010Y5802D01*
X3012Y5803D01*
X3013Y5804D01*
X3013Y5805D01*
X3013Y5805D01*
X3014D01*
X3015Y5806D01*
X3016Y5807D01*
X3018Y5809D01*
X3020Y5809D01*
X3020Y5810D01*
X3021Y5810D01*
X3021Y5810D01*
X3019Y5811D01*
X3016Y5811D01*
X3014Y5812D01*
X3012Y5812D01*
X3010Y5813D01*
X3009Y5814D01*
X3007Y5815D01*
X3006Y5815D01*
X3004Y5816D01*
X3003Y5817D01*
X3003Y5817D01*
X3002Y5818D01*
X3001Y5819D01*
X3001Y5819D01*
X3001Y5819D01*
X3001Y5819D01*
X2999Y5821D01*
X2998Y5822D01*
X2997Y5823D01*
X2997Y5825D01*
X2995Y5828D01*
X2995Y5831D01*
X2994Y5833D01*
X2994Y5834D01*
X2994Y5835D01*
X2994Y5836D01*
Y5836D01*
Y5837D01*
Y5837D01*
X2994Y5840D01*
X2994Y5842D01*
X2995Y5845D01*
X2996Y5847D01*
X2997Y5849D01*
X2997Y5850D01*
X2997Y5851D01*
X2998Y5851D01*
X2998Y5851D01*
Y5851D01*
X2999Y5854D01*
X3001Y5856D01*
X3003Y5857D01*
X3005Y5859D01*
X3006Y5860D01*
X3008Y5860D01*
X3008Y5861D01*
X3009Y5861D01*
X3009Y5861D01*
X3009D01*
X3010Y5861D01*
X3012Y5862D01*
X3015Y5862D01*
X3018Y5863D01*
X3021Y5863D01*
X3023Y5863D01*
X3024Y5863D01*
X3025D01*
X3026Y5863D01*
X3072D01*
Y5766D01*
D02*
G37*
G36*
X3223Y5864D02*
X3225Y5864D01*
X3229Y5863D01*
X3232Y5862D01*
X3233Y5861D01*
X3235Y5861D01*
X3236Y5860D01*
X3237Y5859D01*
X3238Y5859D01*
X3239Y5858D01*
X3239Y5858D01*
X3240Y5857D01*
X3240Y5857D01*
X3240Y5857D01*
X3242Y5856D01*
X3243Y5854D01*
X3245Y5851D01*
X3247Y5848D01*
X3248Y5845D01*
X3249Y5844D01*
X3249Y5843D01*
X3249Y5841D01*
X3250Y5841D01*
X3250Y5840D01*
X3250Y5839D01*
X3250Y5839D01*
Y5839D01*
X3238Y5836D01*
X3237Y5839D01*
X3237Y5842D01*
X3236Y5844D01*
X3235Y5846D01*
X3234Y5848D01*
X3233Y5849D01*
X3233Y5849D01*
X3232Y5849D01*
X3230Y5851D01*
X3228Y5852D01*
X3226Y5853D01*
X3225Y5853D01*
X3223Y5854D01*
X3222Y5854D01*
X3221Y5854D01*
X3220D01*
X3218Y5854D01*
X3216Y5853D01*
X3214Y5853D01*
X3212Y5852D01*
X3211Y5851D01*
X3210Y5850D01*
X3209Y5850D01*
X3209Y5849D01*
X3208Y5848D01*
X3206Y5846D01*
X3206Y5844D01*
X3205Y5843D01*
X3205Y5841D01*
X3205Y5840D01*
X3204Y5839D01*
Y5839D01*
Y5839D01*
X3205Y5837D01*
X3205Y5836D01*
X3205Y5833D01*
X3206Y5831D01*
X3208Y5829D01*
X3209Y5828D01*
X3210Y5827D01*
X3210Y5827D01*
X3211Y5826D01*
X3211D01*
X3213Y5825D01*
X3215Y5824D01*
X3218Y5823D01*
X3220Y5823D01*
X3222Y5823D01*
X3223Y5822D01*
X3224Y5822D01*
X3225D01*
X3226Y5822D01*
X3226Y5823D01*
X3226D01*
X3228Y5812D01*
X3226Y5812D01*
X3224Y5813D01*
X3223Y5813D01*
X3221Y5813D01*
X3221Y5813D01*
X3219D01*
X3216Y5813D01*
X3213Y5812D01*
X3211Y5812D01*
X3209Y5811D01*
X3208Y5810D01*
X3206Y5809D01*
X3206Y5808D01*
X3205Y5808D01*
X3204Y5807D01*
X3204Y5806D01*
X3202Y5804D01*
X3201Y5801D01*
X3201Y5799D01*
X3200Y5797D01*
X3200Y5796D01*
Y5796D01*
X3200Y5795D01*
Y5795D01*
Y5795D01*
Y5794D01*
Y5793D01*
X3200Y5791D01*
X3201Y5789D01*
X3202Y5786D01*
X3203Y5784D01*
X3204Y5782D01*
X3205Y5781D01*
X3205Y5781D01*
X3206Y5780D01*
X3206Y5780D01*
X3206Y5780D01*
X3207Y5779D01*
X3208Y5778D01*
X3211Y5776D01*
X3213Y5775D01*
X3215Y5775D01*
X3217Y5774D01*
X3218Y5774D01*
X3219D01*
X3219Y5774D01*
X3220D01*
X3223Y5774D01*
X3225Y5775D01*
X3227Y5775D01*
X3229Y5776D01*
X3230Y5777D01*
X3232Y5778D01*
X3232Y5778D01*
X3232Y5778D01*
X3233Y5779D01*
X3234Y5780D01*
X3235Y5783D01*
X3237Y5785D01*
X3238Y5788D01*
X3238Y5790D01*
X3239Y5791D01*
X3239Y5792D01*
X3239Y5792D01*
X3239Y5793D01*
X3239Y5793D01*
Y5793D01*
X3251Y5792D01*
X3251Y5789D01*
X3250Y5787D01*
X3250Y5785D01*
X3249Y5783D01*
X3248Y5782D01*
X3248Y5780D01*
X3247Y5778D01*
X3246Y5777D01*
X3245Y5776D01*
X3244Y5775D01*
X3244Y5774D01*
X3243Y5773D01*
X3242Y5773D01*
X3242Y5772D01*
X3242Y5772D01*
X3242Y5772D01*
X3240Y5770D01*
X3238Y5769D01*
X3236Y5768D01*
X3235Y5767D01*
X3233Y5767D01*
X3231Y5766D01*
X3228Y5765D01*
X3226Y5765D01*
X3225Y5765D01*
X3223Y5764D01*
X3222Y5764D01*
X3221Y5764D01*
X3220D01*
X3218Y5764D01*
X3215Y5765D01*
X3213Y5765D01*
X3211Y5766D01*
X3208Y5766D01*
X3206Y5767D01*
X3205Y5768D01*
X3203Y5769D01*
X3202Y5769D01*
X3200Y5770D01*
X3199Y5771D01*
X3198Y5772D01*
X3198Y5772D01*
X3197Y5773D01*
X3197Y5773D01*
X3197Y5773D01*
X3195Y5775D01*
X3194Y5776D01*
X3192Y5778D01*
X3191Y5780D01*
X3190Y5782D01*
X3190Y5784D01*
X3189Y5785D01*
X3188Y5787D01*
X3188Y5789D01*
X3188Y5790D01*
X3188Y5791D01*
X3187Y5792D01*
X3187Y5793D01*
Y5794D01*
Y5795D01*
Y5795D01*
X3188Y5798D01*
X3188Y5801D01*
X3189Y5804D01*
X3190Y5806D01*
X3191Y5808D01*
X3191Y5808D01*
X3191Y5809D01*
X3192Y5810D01*
X3192Y5810D01*
X3192Y5810D01*
Y5810D01*
X3194Y5812D01*
X3196Y5814D01*
X3198Y5816D01*
X3201Y5817D01*
X3203Y5818D01*
X3203Y5818D01*
X3204Y5818D01*
X3205Y5818D01*
X3205Y5819D01*
X3205Y5819D01*
X3206D01*
X3203Y5820D01*
X3201Y5821D01*
X3200Y5823D01*
X3198Y5824D01*
X3197Y5825D01*
X3196Y5826D01*
X3196Y5827D01*
X3196Y5827D01*
X3194Y5829D01*
X3194Y5831D01*
X3193Y5833D01*
X3193Y5835D01*
X3192Y5836D01*
X3192Y5837D01*
Y5838D01*
Y5838D01*
Y5838D01*
X3192Y5841D01*
X3193Y5843D01*
X3193Y5845D01*
X3194Y5847D01*
X3195Y5849D01*
X3195Y5850D01*
X3196Y5851D01*
X3196Y5851D01*
Y5851D01*
X3197Y5853D01*
X3199Y5855D01*
X3201Y5857D01*
X3202Y5858D01*
X3204Y5859D01*
X3205Y5860D01*
X3205Y5860D01*
X3206Y5860D01*
X3206Y5860D01*
X3206D01*
X3209Y5862D01*
X3211Y5862D01*
X3214Y5863D01*
X3216Y5863D01*
X3218Y5864D01*
X3219D01*
X3219Y5864D01*
X3221D01*
X3223Y5864D01*
D02*
G37*
G36*
X3212Y5507D02*
Y5482D01*
X3219Y5475D01*
Y5465D01*
X3222Y5462D01*
X3227Y5467D01*
X3239D01*
X3252Y5480D01*
Y5480D01*
X3257Y5485D01*
X3254Y5487D01*
Y5500D01*
X3259Y5505D01*
X3277D01*
X3282Y5500D01*
X3292Y5500D01*
Y5497D01*
X3297Y5492D01*
Y5482D01*
X3299Y5482D01*
X3302Y5480D01*
X3304Y5482D01*
X3314Y5482D01*
X3322Y5490D01*
X3332D01*
X3337Y5482D01*
X3344Y5475D01*
Y5465D01*
X3359Y5450D01*
X3382Y5450D01*
X3399Y5432D01*
Y5400D01*
X3389Y5390D01*
Y5372D01*
X3372Y5355D01*
X3372Y5340D01*
X3377Y5335D01*
X3372Y5330D01*
X3359D01*
X3352Y5337D01*
X3342D01*
X3334Y5345D01*
X3322D01*
X3304Y5362D01*
X3267D01*
X3254Y5350D01*
X3252Y5352D01*
X3242D01*
X3229Y5340D01*
Y5327D01*
X3227D01*
X3212Y5312D01*
X3204D01*
X3199Y5307D01*
X3172D01*
X3159Y5320D01*
Y5340D01*
X3144Y5355D01*
X3144Y5372D01*
X3137Y5380D01*
X3137Y5400D01*
X3147Y5410D01*
Y5417D01*
X3157Y5427D01*
Y5432D01*
X3159D01*
X3169Y5442D01*
Y5445D01*
X3184Y5460D01*
Y5477D01*
X3192Y5485D01*
X3197D01*
Y5497D01*
X3204Y5505D01*
Y5512D01*
X3207Y5512D01*
X3212Y5507D01*
D02*
G37*
%LPC*%
G36*
X3059Y5853D02*
X3026D01*
X3024Y5852D01*
X3023Y5852D01*
X3021Y5852D01*
X3020Y5852D01*
X3018Y5851D01*
X3017Y5851D01*
X3016Y5850D01*
X3014Y5849D01*
X3013Y5849D01*
X3012Y5848D01*
X3012Y5848D01*
X3011Y5846D01*
X3009Y5844D01*
X3008Y5843D01*
X3008Y5841D01*
X3007Y5839D01*
X3007Y5838D01*
X3007Y5837D01*
Y5837D01*
Y5837D01*
Y5837D01*
X3007Y5835D01*
X3007Y5833D01*
X3008Y5832D01*
X3008Y5831D01*
X3009Y5829D01*
X3009Y5829D01*
X3010Y5828D01*
X3010Y5828D01*
X3011Y5827D01*
X3012Y5825D01*
X3013Y5824D01*
X3014Y5823D01*
X3016Y5823D01*
X3017Y5822D01*
X3017Y5822D01*
X3017Y5822D01*
X3019Y5821D01*
X3022Y5821D01*
X3024Y5821D01*
X3026Y5821D01*
X3028Y5820D01*
X3029Y5820D01*
X3059D01*
Y5853D01*
D02*
G37*
G36*
X3158Y5852D02*
X3135D01*
X3133Y5852D01*
X3131D01*
X3130Y5852D01*
X3128Y5851D01*
X3127Y5851D01*
X3125Y5851D01*
X3124Y5851D01*
X3123Y5851D01*
X3123Y5851D01*
X3122Y5850D01*
X3121Y5850D01*
X3121Y5850D01*
X3121Y5850D01*
X3120Y5850D01*
X3119Y5849D01*
X3118Y5849D01*
X3115Y5847D01*
X3113Y5845D01*
X3112Y5843D01*
X3110Y5842D01*
X3109Y5840D01*
X3109Y5840D01*
X3108Y5839D01*
X3108Y5839D01*
Y5839D01*
X3107Y5837D01*
X3107Y5835D01*
X3105Y5832D01*
X3104Y5828D01*
X3104Y5824D01*
X3103Y5822D01*
X3103Y5821D01*
X3103Y5819D01*
Y5818D01*
X3103Y5817D01*
Y5816D01*
Y5815D01*
Y5815D01*
X3103Y5811D01*
X3103Y5808D01*
X3104Y5805D01*
X3104Y5803D01*
X3104Y5802D01*
X3105Y5801D01*
X3105Y5800D01*
X3105Y5799D01*
X3105Y5798D01*
X3106Y5797D01*
X3106Y5797D01*
X3106Y5797D01*
Y5797D01*
X3107Y5794D01*
X3108Y5791D01*
X3109Y5789D01*
X3110Y5787D01*
X3111Y5786D01*
X3112Y5785D01*
X3113Y5784D01*
X3113Y5784D01*
X3114Y5783D01*
X3116Y5782D01*
X3117Y5781D01*
X3118Y5780D01*
X3120Y5780D01*
X3121Y5780D01*
X3121Y5779D01*
X3122Y5779D01*
X3122D01*
X3124Y5778D01*
X3126Y5778D01*
X3129Y5778D01*
X3131Y5778D01*
X3133Y5777D01*
X3134Y5777D01*
X3158D01*
Y5852D01*
D02*
G37*
%LPD*%
D10*
X3533Y5997D02*
D03*
X3432D02*
D03*
X5616Y5184D02*
D03*
X5717D02*
D03*
X3523Y2908D02*
D03*
X3422D02*
D03*
X4155Y2916D02*
D03*
X4256D02*
D03*
X5022Y2908D02*
D03*
X5122D02*
D03*
X5349Y4661D02*
D03*
X5450D02*
D03*
X5349Y4572D02*
D03*
X5450D02*
D03*
X5641D02*
D03*
X5541D02*
D03*
X5641Y4661D02*
D03*
X5541D02*
D03*
X2812Y4544D02*
D03*
X2913D02*
D03*
X5352Y5204D02*
D03*
X5453D02*
D03*
X4666Y3056D02*
D03*
X4767D02*
D03*
X2781Y3691D02*
D03*
X2882D02*
D03*
X5143Y5916D02*
D03*
X5244D02*
D03*
X4156Y3101D02*
D03*
X4257D02*
D03*
X2883Y3599D02*
D03*
X2782D02*
D03*
X4326Y3053D02*
D03*
X4426D02*
D03*
X3122Y4671D02*
D03*
X3021D02*
D03*
X5352Y3721D02*
D03*
X5251D02*
D03*
D11*
X5311Y6109D02*
D03*
Y6008D02*
D03*
X2690Y5326D02*
D03*
Y5427D02*
D03*
Y4839D02*
D03*
Y4738D02*
D03*
X2680Y3752D02*
D03*
Y3651D02*
D03*
X5880Y3782D02*
D03*
Y3681D02*
D03*
X5753Y4991D02*
D03*
Y4890D02*
D03*
X5890Y5215D02*
D03*
Y5315D02*
D03*
X3178Y6027D02*
D03*
Y5927D02*
D03*
X4084Y2960D02*
D03*
Y3061D02*
D03*
X3289Y6027D02*
D03*
Y5927D02*
D03*
X5138Y5499D02*
D03*
Y5398D02*
D03*
Y5133D02*
D03*
Y5033D02*
D03*
Y5316D02*
D03*
Y5215D02*
D03*
X5149Y5763D02*
D03*
Y5662D02*
D03*
X3078Y3680D02*
D03*
Y3781D02*
D03*
X3553Y5095D02*
D03*
Y4994D02*
D03*
D16*
X4615Y2913D02*
D03*
X4776D02*
D03*
D17*
X4696Y2954D02*
D03*
Y2873D02*
D03*
Y2913D02*
D03*
D03*
D19*
X2903Y5283D02*
D03*
D23*
X5412Y3853D02*
D03*
X5272D02*
D03*
X5574Y3396D02*
D03*
X5434D02*
D03*
X5432Y5296D02*
D03*
X5292D02*
D03*
D25*
X5565Y4768D02*
D03*
Y4848D02*
D03*
X3617Y3727D02*
D03*
Y3807D02*
D03*
X5718Y5384D02*
D03*
Y5304D02*
D03*
X4194Y3600D02*
D03*
Y3700D02*
D03*
X5144Y4863D02*
D03*
Y4783D02*
D03*
X3553Y4822D02*
D03*
Y4902D02*
D03*
D26*
X5707Y5083D02*
D03*
X5627D02*
D03*
X5839Y3884D02*
D03*
X5759D02*
D03*
X5402Y3955D02*
D03*
X5322D02*
D03*
X2680Y4016D02*
D03*
X2760D02*
D03*
X3400Y3010D02*
D03*
X3320D02*
D03*
X2971Y3498D02*
D03*
X2891D02*
D03*
X5373Y3599D02*
D03*
X5453D02*
D03*
X2913Y3853D02*
D03*
X2833D02*
D03*
X4865Y2939D02*
D03*
X4945D02*
D03*
D29*
X5184Y3833D02*
D03*
X4834D02*
D03*
Y3682D02*
D03*
X5184D02*
D03*
X4640Y3833D02*
D03*
X4290D02*
D03*
Y3682D02*
D03*
X4640D02*
D03*
X3546Y3838D02*
D03*
X3195D02*
D03*
Y3687D02*
D03*
X3546D02*
D03*
X4097Y3835D02*
D03*
X3747D02*
D03*
Y3684D02*
D03*
X4097D02*
D03*
D30*
X5134Y3833D02*
D03*
X5084D02*
D03*
X5034D02*
D03*
X4983D02*
D03*
X4933D02*
D03*
X4882D02*
D03*
Y3682D02*
D03*
X4933D02*
D03*
X4983D02*
D03*
X5034D02*
D03*
X5084D02*
D03*
X5134D02*
D03*
X4590Y3833D02*
D03*
X4540D02*
D03*
X4490D02*
D03*
X4440D02*
D03*
X4389D02*
D03*
X4338D02*
D03*
Y3682D02*
D03*
X4389D02*
D03*
X4440D02*
D03*
X4490D02*
D03*
X4540D02*
D03*
X4590D02*
D03*
X3496Y3838D02*
D03*
X3446D02*
D03*
X3396D02*
D03*
X3345D02*
D03*
X3294D02*
D03*
X3244D02*
D03*
Y3687D02*
D03*
X3294D02*
D03*
X3345D02*
D03*
X3396D02*
D03*
X3446D02*
D03*
X3496D02*
D03*
X4047Y3835D02*
D03*
X3997D02*
D03*
X3947D02*
D03*
X3896D02*
D03*
X3846D02*
D03*
X3795D02*
D03*
Y3684D02*
D03*
X3846D02*
D03*
X3896D02*
D03*
X3947D02*
D03*
X3997D02*
D03*
X4047D02*
D03*
D36*
X2983Y5004D02*
D03*
X3143Y5004D02*
D03*
X2983Y4821D02*
D03*
X3143Y4821D02*
D03*
D37*
X5272Y5677D02*
D03*
D38*
X5433D02*
D03*
Y5728D02*
D03*
Y5778D02*
D03*
Y5828D02*
D03*
X5272D02*
D03*
Y5778D02*
D03*
Y5728D02*
D03*
D39*
X5352Y5753D02*
D03*
D64*
X5413Y3851D02*
X5583D01*
X5588Y3856D01*
X5413Y3851D02*
X5418Y3853D01*
X5413Y3851D02*
X5413Y3851D01*
X5402Y3955D02*
X5412Y3945D01*
Y3853D02*
Y3945D01*
X5337Y3785D02*
X5443D01*
X5456Y3797D01*
X5464Y3531D02*
Y3612D01*
X5354Y3721D02*
X5464Y3612D01*
X5352Y3721D02*
X5354D01*
X3532Y3133D02*
Y3198D01*
X4028Y3089D02*
X4054Y3061D01*
X3838Y3012D02*
Y3020D01*
X3876Y2896D02*
X3973D01*
X3754Y2987D02*
Y3034D01*
X3195Y2918D02*
X3238D01*
X2978Y3397D02*
X2982Y3401D01*
X3353Y4112D02*
X3435Y4195D01*
Y4398D01*
X3495Y4458D01*
X3546Y4475D02*
X3604Y4417D01*
Y4262D02*
Y4417D01*
X3559Y4216D02*
X3604Y4262D01*
X3758Y4318D02*
X3800D01*
X3601Y4474D02*
X3758Y4318D01*
X5217Y3391D02*
X5362D01*
X5210Y3289D02*
Y3383D01*
X5217Y3391D01*
X5705Y3340D02*
X5895D01*
X5705Y3340D02*
Y3340D01*
X5665Y3300D02*
X5705Y3340D01*
X5628Y3300D02*
X5665D01*
X5618Y3310D02*
X5628Y3300D01*
X2896Y3826D02*
Y3826D01*
X2924Y3853D01*
X2971Y3498D02*
X2982Y3508D01*
X2896Y3487D02*
X2982Y3401D01*
X2904Y3487D02*
Y3511D01*
X3995Y5657D02*
Y5761D01*
X4539Y4254D02*
X4595D01*
X4447Y4346D02*
X4539Y4254D01*
X4447Y4346D02*
Y4531D01*
X4552Y4321D02*
X4615D01*
X4497Y4375D02*
X4552Y4321D01*
X4497Y4375D02*
Y4531D01*
X4562Y4407D02*
X4597Y4442D01*
X4721Y4351D02*
X4746Y4326D01*
X4686Y4351D02*
X4721D01*
X4646Y4393D02*
X4686Y4351D01*
X4692Y4394D02*
Y4410D01*
X4791Y4333D02*
X4826D01*
X4784Y4326D02*
X4791Y4333D01*
X4746Y4326D02*
X4784D01*
X4826Y4333D02*
X4854Y4305D01*
X4692Y4394D02*
X4696Y4389D01*
X4646Y4393D02*
Y4529D01*
X4765Y4371D02*
X4801D01*
X4803Y4369D01*
X4107Y5575D02*
X4417Y5265D01*
X3787Y5537D02*
X4404Y4920D01*
X4593D01*
X4646Y4973D01*
X4737D01*
X4569Y4971D02*
Y5001D01*
X4478Y5093D02*
X4569Y5001D01*
Y4971D02*
X4575Y4966D01*
X4282Y5093D02*
X4478D01*
X4867Y5105D02*
X4940Y5034D01*
X4041Y4356D02*
X4046Y4361D01*
X4148Y4448D02*
Y4529D01*
X4061Y4361D02*
X4148Y4448D01*
X4846Y4529D02*
Y4618D01*
X4844Y4620D02*
X4846Y4618D01*
X4882Y4646D02*
Y4740D01*
Y4646D02*
X4889Y4639D01*
Y4602D02*
Y4639D01*
X4883Y4595D02*
X4889Y4602D01*
X4883Y4543D02*
Y4595D01*
X4216Y5649D02*
Y5761D01*
X4318Y5624D02*
Y5733D01*
X4326Y5740D01*
X4248Y5554D02*
X4318Y5624D01*
X4191Y5558D02*
X4245D01*
X4248Y5554D01*
X4547Y5740D02*
X4582Y5705D01*
X4440Y5625D02*
Y5697D01*
X4437Y5623D02*
X4440Y5625D01*
X4437Y5700D02*
X4440Y5697D01*
X4524Y5296D02*
X4549Y5271D01*
X4854Y4305D02*
X4905D01*
X4557Y4122D02*
X4569D01*
X4498Y4191D02*
Y4229D01*
X4569Y4122D02*
X4597Y4094D01*
X4844Y5710D02*
Y6119D01*
Y5710D02*
X4915Y5639D01*
X3202Y4762D02*
X3241D01*
X3143Y4821D02*
X3202Y4762D01*
X3143Y4821D02*
Y5004D01*
X3021Y4671D02*
Y4966D01*
X2983Y5004D02*
X3021Y4966D01*
X3122Y4671D02*
X3221D01*
X3297Y4747D01*
Y4819D01*
X3424Y4946D01*
X3650Y3150D02*
X3736D01*
X3810Y2959D02*
X4077D01*
X3838Y3020D02*
X3909D01*
X3398Y4981D02*
X3401D01*
X3424Y4958D01*
Y4946D02*
Y4958D01*
X4329Y3416D02*
X4333D01*
X4294Y3452D02*
X4329Y3416D01*
X4275Y3256D02*
X4294Y3275D01*
Y3301D01*
X4295Y3201D02*
X4344D01*
X4277Y3183D02*
X4295Y3201D01*
X4216Y3142D02*
X4257Y3101D01*
X4216Y3142D02*
Y3167D01*
X4798Y3251D02*
X4847Y3301D01*
X4887Y3190D02*
X4897Y3200D01*
X3734Y3299D02*
Y3338D01*
X4915Y2939D02*
X4940Y2914D01*
X5098Y4529D02*
Y4602D01*
X3990Y4610D02*
Y4641D01*
X3985Y4635D02*
X3990Y4641D01*
X3264Y4562D02*
X3297Y4529D01*
X2918Y4562D02*
X3264D01*
X2918Y4539D02*
Y4562D01*
X3264Y4610D02*
X3269Y4615D01*
X3424Y4694D02*
Y4757D01*
X3406Y4775D02*
X3424Y4757D01*
X3523Y5004D02*
X3554D01*
X3500Y5027D02*
X3523Y5004D01*
X3416Y5027D02*
X3500D01*
X3601Y4474D02*
Y4524D01*
X3460Y4610D02*
X3535D01*
X3460Y4544D02*
Y4610D01*
X3495Y4458D02*
Y4529D01*
X3348D02*
Y4595D01*
X3553Y5095D02*
X3569Y5080D01*
X3555Y4900D02*
X3767D01*
X3553Y4902D02*
X3555Y4900D01*
X3553Y4902D02*
Y4994D01*
X3767Y4900D02*
X3787Y4879D01*
X3450Y4819D02*
X3553D01*
X3546Y4737D02*
X3647Y4638D01*
X3447Y4531D02*
X3460Y4544D01*
X3269Y4615D02*
X3330D01*
X3406Y4775D02*
X3450Y4819D01*
X3569Y5080D02*
X3660D01*
X2682Y4839D02*
X2708Y4813D01*
X3597Y4529D02*
X3601Y4524D01*
X3546Y4475D02*
Y4529D01*
X3851Y4369D02*
X3863D01*
X3838Y4445D02*
X3846Y4453D01*
X3889Y4420D02*
X3940Y4470D01*
X3889Y4394D02*
Y4420D01*
X3863Y4369D02*
X3889Y4394D01*
X5232Y5778D02*
X5273D01*
X2690Y5329D02*
X2786D01*
X5382Y5126D02*
X5385Y5128D01*
X5412Y5157D02*
X5438Y5182D01*
X5382Y5128D02*
X5412Y5157D01*
X4651Y3924D02*
X4699Y3876D01*
Y3833D02*
Y3876D01*
X4676Y3477D02*
X4689Y3490D01*
X4676Y3264D02*
Y3477D01*
X4689Y3490D02*
Y3548D01*
X4923Y3622D02*
X4943Y3602D01*
X4892Y3622D02*
X4923D01*
X4882Y3632D02*
X4892Y3622D01*
X4882Y3632D02*
Y3682D01*
X4943Y3553D02*
Y3602D01*
X4994Y3553D02*
Y3599D01*
X4933Y3660D02*
X4994Y3599D01*
X4933Y3660D02*
Y3680D01*
X5044Y3551D02*
Y3597D01*
X4983Y3658D02*
X5044Y3597D01*
X4254Y3569D02*
Y3627D01*
X4232Y3650D02*
X4254Y3627D01*
X4153Y3650D02*
X4232D01*
X4119Y3684D02*
X4153Y3650D01*
X4097Y3684D02*
X4119D01*
X4138Y3757D02*
X4169Y3788D01*
X4125Y3787D02*
X4138Y3801D01*
X4210Y3687D02*
X4285Y3762D01*
X4143Y3924D02*
X4169Y3898D01*
X4092Y3924D02*
X4138Y3878D01*
Y3801D02*
Y3878D01*
X4169Y3788D02*
Y3898D01*
X4285Y3762D02*
X4448D01*
X4194Y3703D02*
X4210Y3687D01*
X2672Y4016D02*
X2695D01*
X4879Y3835D02*
Y3871D01*
X4796Y3955D02*
X4879Y3871D01*
X4796Y3955D02*
Y4011D01*
X4846Y3952D02*
Y4011D01*
Y3952D02*
X4930Y3869D01*
Y3833D02*
Y3869D01*
X3409Y6119D02*
X3434Y6096D01*
Y5997D02*
Y6096D01*
X5311Y6010D02*
X5314Y6007D01*
X5382D01*
X5413Y6038D01*
Y6045D01*
X4696Y4389D02*
Y4529D01*
X5019Y4648D02*
X5047Y4623D01*
Y4529D02*
Y4623D01*
X5476Y5778D02*
X5489Y5791D01*
X5433Y5778D02*
X5476D01*
X5481D02*
X5489D01*
Y5791D01*
X5845Y4402D02*
X5847Y4404D01*
X5860D01*
X5832Y4366D02*
Y4394D01*
X5845Y4407D01*
Y4402D02*
Y4407D01*
Y4394D02*
Y4402D01*
Y4394D02*
X5847D01*
X5845Y3912D02*
X5847D01*
X5832D02*
X5845D01*
X4054Y5906D02*
X4600D01*
X4041D02*
X4054D01*
X5596Y3396D02*
X5646Y3345D01*
X5580Y3396D02*
X5596D01*
X2690Y4521D02*
Y4524D01*
X2771Y4605D01*
X2692Y3434D02*
X2708Y3416D01*
X4473Y2918D02*
Y2962D01*
X5880Y3503D02*
X5883Y3505D01*
X5880Y3465D02*
Y3503D01*
X5852Y5585D02*
X5890Y5545D01*
X5852Y5585D02*
Y5613D01*
X5872Y4813D02*
X5890Y4796D01*
X5794Y4813D02*
X5872D01*
X3559Y6119D02*
X3561Y6121D01*
X3571D01*
X2690Y5641D02*
Y5646D01*
Y5641D02*
X2731Y5601D01*
X3825Y6007D02*
X3863Y6045D01*
Y6134D01*
X3838Y6160D02*
X3863Y6134D01*
X3609Y6160D02*
X3838D01*
X3571Y6121D02*
X3609Y6160D01*
X5806Y5613D02*
X5852D01*
X5347Y2918D02*
X5387Y2959D01*
X2771Y4605D02*
Y4724D01*
X2731Y5601D02*
X2758D01*
X2690Y5428D02*
Y5497D01*
Y4671D02*
Y4740D01*
X2692Y3561D02*
Y3584D01*
Y3561D02*
X2695Y3559D01*
X2692Y3584D02*
Y3642D01*
X2680Y3653D02*
X2692Y3642D01*
X2695Y3556D02*
Y3559D01*
X3345Y2918D02*
X3355Y2908D01*
X3424D01*
X4254D02*
X4265Y2918D01*
X4323D01*
X5118Y2908D02*
X5128Y2918D01*
X5197D01*
X5880Y3614D02*
Y3683D01*
X5885Y4945D02*
X5890D01*
X5885Y5400D02*
X5890Y5395D01*
Y5316D02*
Y5395D01*
X5885Y5400D02*
X5895Y5410D01*
X5893Y5415D02*
X5895Y5410D01*
X4747Y4440D02*
X4752Y4432D01*
X4747Y4440D02*
Y4529D01*
X5098Y3950D02*
Y4011D01*
Y3950D02*
X5184Y3861D01*
Y3833D02*
Y3861D01*
Y3830D02*
Y3833D01*
X5047Y3950D02*
Y4011D01*
Y3950D02*
X5133Y3861D01*
Y3833D02*
Y3861D01*
Y3830D02*
Y3833D01*
X5197Y3551D02*
Y3614D01*
X5179Y3632D02*
X5197Y3614D01*
X5154Y3632D02*
X5179D01*
X5133Y3653D02*
X5154Y3632D01*
X5133Y3653D02*
Y3658D01*
Y3660D01*
Y3680D01*
X5197Y3551D02*
Y3594D01*
X5184Y3680D02*
X5202D01*
X5230Y3650D01*
X5240D01*
X5291Y3599D01*
Y3454D02*
X5296Y3449D01*
X5291Y3454D02*
Y3599D01*
X5184Y3678D02*
X5189Y3670D01*
X5184Y3678D02*
Y3680D01*
X5286Y3459D02*
X5296Y3449D01*
X3747Y3650D02*
Y3683D01*
Y3650D02*
X3785Y3614D01*
Y3551D02*
Y3614D01*
X3797Y3680D02*
Y3683D01*
Y3650D02*
Y3680D01*
Y3650D02*
X3835Y3614D01*
Y3551D02*
Y3614D01*
X3846Y3683D02*
X3848Y3680D01*
Y3650D02*
Y3680D01*
Y3650D02*
X3884Y3617D01*
Y3551D02*
Y3617D01*
X3896Y3683D02*
X3899Y3680D01*
Y3650D02*
Y3680D01*
Y3650D02*
X3934Y3617D01*
Y3551D02*
Y3617D01*
X3947Y3683D02*
X3950Y3680D01*
Y3650D02*
Y3680D01*
Y3650D02*
X3985Y3617D01*
Y3551D02*
Y3617D01*
X3995Y3683D02*
X4001Y3678D01*
Y3650D02*
Y3678D01*
Y3650D02*
X4034Y3619D01*
Y3551D02*
Y3619D01*
X4046Y3683D02*
X4051Y3678D01*
Y3650D02*
Y3678D01*
Y3650D02*
X4084Y3619D01*
Y3551D02*
Y3619D01*
X4183Y3449D02*
X4201Y3467D01*
X4204D01*
Y3518D02*
X4254Y3569D01*
X4204Y3467D02*
Y3518D01*
X5349Y5202D02*
X5354Y5204D01*
X5319Y5126D02*
X5321Y5123D01*
Y5050D02*
Y5123D01*
X4295Y4140D02*
X4298Y4143D01*
Y4529D01*
X5319Y5126D02*
X5349Y5156D01*
Y5202D01*
X5443Y5194D02*
X5453Y5204D01*
X5438Y5194D02*
X5443D01*
X5382Y5126D02*
Y5128D01*
X5385D02*
X5413Y5156D01*
X5385Y5050D02*
Y5128D01*
X4244Y4610D02*
Y4686D01*
Y4610D02*
X4247D01*
Y4529D02*
Y4610D01*
X5438Y5182D02*
Y5194D01*
X4117Y4813D02*
X4244Y4686D01*
X4117Y4813D02*
Y5093D01*
X3696Y4008D02*
Y4011D01*
Y3914D02*
Y4008D01*
Y3914D02*
X3747Y3866D01*
Y3833D02*
Y3866D01*
X3998Y4011D02*
X4001Y4006D01*
Y3914D02*
Y4006D01*
Y3914D02*
X4046Y3871D01*
Y3833D02*
Y3871D01*
X3947Y4011D02*
X3950Y4006D01*
Y3914D02*
Y4006D01*
Y3914D02*
X3995Y3871D01*
Y3833D02*
Y3871D01*
X3896Y4011D02*
X3899Y4006D01*
Y3914D02*
Y4006D01*
Y3914D02*
X3947Y3868D01*
Y3833D02*
Y3868D01*
X3846Y4011D02*
X3848Y4008D01*
Y3914D02*
Y4008D01*
Y3914D02*
X3896Y3868D01*
Y3833D02*
Y3868D01*
X2814Y4526D02*
Y4547D01*
X2822Y4557D01*
X2731Y4379D02*
Y4381D01*
X2733Y4387D01*
Y4445D02*
X2814Y4526D01*
X2733Y4387D02*
Y4445D01*
X2822Y4557D02*
Y4597D01*
X2835Y4610D01*
X3264D01*
X3330D02*
Y4615D01*
Y4610D02*
X3348Y4595D01*
X2913Y4544D02*
X2918Y4539D01*
X2885Y4521D02*
X2888D01*
X2913Y4544D01*
X2794Y4379D02*
Y4455D01*
X2822Y4483D01*
X2873D01*
X2885Y4496D01*
Y4521D01*
X4397Y4333D02*
Y4529D01*
Y4333D02*
X4498Y4229D01*
X4346Y4295D02*
X4384Y4254D01*
X4346Y4295D02*
Y4529D01*
X5337Y4572D02*
X5352D01*
X5197Y4216D02*
X5324Y4343D01*
Y4559D01*
X5337Y4572D01*
X5197Y4011D02*
Y4216D01*
X5286Y4605D02*
X5352Y4669D01*
Y4661D02*
Y4669D01*
X5286Y4369D02*
Y4605D01*
X5146Y4229D02*
X5286Y4369D01*
X5146Y4011D02*
Y4229D01*
X3724Y4762D02*
X3736Y4750D01*
X3741D01*
X3787Y4521D02*
X3797Y4529D01*
X3787Y4521D02*
Y4610D01*
X3741D02*
X3787D01*
X3741D02*
Y4750D01*
X3846Y4453D02*
Y4529D01*
X3901Y4610D02*
X3990D01*
X3896Y4605D02*
X3901Y4610D01*
X3896Y4529D02*
Y4605D01*
X4049Y4531D02*
Y4610D01*
X4046Y4529D02*
X4049Y4531D01*
X4041Y4420D02*
X4097Y4475D01*
Y4529D01*
X4762Y2888D02*
X4770Y2896D01*
X4778D01*
Y2946D02*
X4785Y2954D01*
Y2946D02*
Y2954D01*
X4778Y2896D02*
Y2946D01*
Y2990D01*
X2883Y3599D02*
Y3691D01*
X5149Y5939D02*
Y6017D01*
X5177Y6045D01*
X5199D01*
X3175Y6033D02*
Y6119D01*
Y6033D02*
X3178Y6027D01*
X3190Y5928D02*
X3289Y6027D01*
X3178Y5928D02*
X3190D01*
X2784Y3691D02*
Y3696D01*
X2873Y3785D01*
X3940Y4534D02*
X3947Y4529D01*
X3940Y4470D02*
Y4534D01*
X3178Y5715D02*
X3254D01*
X2789Y5326D02*
X3178Y5715D01*
X2682Y4839D02*
X2690D01*
X5812Y5110D02*
X5845Y5144D01*
X5812Y5088D02*
Y5110D01*
X5766Y4978D02*
X5812Y5024D01*
Y5088D01*
X5718Y5083D02*
X5720Y5088D01*
X5177Y5578D02*
X5278Y5677D01*
X5260D02*
X5271D01*
X5273Y5679D01*
X5199Y6170D02*
X5248Y6121D01*
X2786Y5329D02*
X2789Y5326D01*
X3254Y5715D02*
X3470D01*
X5311Y6109D02*
Y6121D01*
X5248D02*
X5311D01*
X5720Y5088D02*
X5812D01*
X5271Y5677D02*
X5278D01*
X3647Y4529D02*
Y4638D01*
X2708Y4813D02*
X2758D01*
X4803Y4369D02*
Y4458D01*
X4796Y4468D02*
X4803Y4458D01*
X4796Y4468D02*
Y4529D01*
X3393Y4526D02*
X3396Y4529D01*
X3393Y4432D02*
Y4526D01*
X3747Y4008D02*
Y4011D01*
Y3914D02*
Y4008D01*
Y3914D02*
X3795Y3868D01*
Y3835D02*
Y3868D01*
Y3835D02*
X3797Y3833D01*
X3289Y5794D02*
X3317Y5766D01*
X3289Y5794D02*
Y5928D01*
X5248Y4011D02*
Y4013D01*
X5260Y4026D01*
Y4191D01*
X4834Y3614D02*
Y3680D01*
Y3614D02*
X4897Y3551D01*
X4943Y3553D02*
X4948Y3551D01*
X5083Y4615D02*
Y4674D01*
Y4615D02*
X5098Y4602D01*
X5083Y4674D02*
X5144Y4735D01*
Y4775D01*
X4046Y4361D02*
X4061D01*
X4994Y3553D02*
X4996Y3551D01*
X4983Y3658D02*
Y3680D01*
X5044Y3551D02*
X5047D01*
X5034Y3658D02*
Y3680D01*
Y3658D02*
X5095Y3594D01*
Y3551D02*
Y3594D01*
Y3551D02*
X5098D01*
X5083Y3660D02*
Y3680D01*
Y3660D02*
X5146Y3594D01*
Y3551D02*
Y3594D01*
X4293Y3602D02*
Y3683D01*
Y3602D02*
X4343Y3551D01*
X4341Y3647D02*
Y3683D01*
Y3647D02*
X4394Y3594D01*
Y3551D02*
Y3594D01*
X4392Y3647D02*
Y3683D01*
Y3647D02*
X4442Y3597D01*
Y3551D02*
Y3597D01*
Y3647D02*
Y3683D01*
Y3647D02*
X4493Y3597D01*
Y3551D02*
Y3597D01*
X4491Y3650D02*
Y3683D01*
Y3650D02*
X4544Y3597D01*
Y3551D02*
Y3597D01*
X4542Y3650D02*
Y3683D01*
Y3650D02*
X4592Y3599D01*
Y3551D02*
Y3599D01*
X4590Y3683D02*
X4592D01*
X4590Y3650D02*
Y3683D01*
Y3650D02*
X4643Y3599D01*
Y3551D02*
Y3599D01*
X4679Y3683D02*
X4740Y3619D01*
X4641Y3683D02*
X4679D01*
X4740Y3452D02*
Y3619D01*
Y3452D02*
X4742Y3449D01*
X4046Y4011D02*
X4051Y4003D01*
Y3914D02*
Y4003D01*
Y3914D02*
X4097Y3871D01*
Y3833D02*
Y3871D01*
X3797Y4008D02*
Y4011D01*
Y3914D02*
Y4008D01*
Y3914D02*
X3846Y3868D01*
Y3833D02*
Y3868D01*
X2720Y3505D02*
X2771D01*
X2799Y3533D01*
X2784Y3599D02*
X2791D01*
X2799Y3594D01*
Y3533D02*
Y3594D01*
X5098Y5400D02*
X5138D01*
X2878Y3973D02*
Y3980D01*
X2906Y3853D02*
X2924D01*
X2885Y3874D02*
X2906Y3853D01*
X4651Y3924D02*
Y4011D01*
X4646D02*
X4651D01*
X5489Y5728D02*
X5491Y5730D01*
X2878Y3973D02*
X2885Y3962D01*
Y3874D02*
Y3962D01*
X4940Y5034D02*
X5138D01*
X4778Y5245D02*
X4808Y5217D01*
X5138D01*
X5210Y5385D02*
X5222Y5372D01*
X5286D01*
X5400Y5486D01*
X5489D01*
X5565Y5563D01*
X5578D01*
X5197Y4529D02*
Y4610D01*
X2860Y4143D02*
Y4145D01*
X2936Y4224D01*
Y4254D01*
X5138Y5316D02*
X5146Y5309D01*
X5184D01*
X5210Y5283D01*
Y5271D02*
Y5283D01*
X5138Y5133D02*
X5144Y5136D01*
X5177D01*
X5248Y5207D01*
X3660Y5080D02*
X3736Y5004D01*
Y4991D02*
Y5004D01*
X4597Y4011D02*
Y4094D01*
X3787Y2979D02*
X3810Y2959D01*
X4077D02*
X4084Y2964D01*
Y2962D02*
Y2964D01*
X4097Y2977D01*
X4084Y2964D02*
Y2972D01*
X4097Y2977D02*
Y2984D01*
X3785Y3142D02*
Y3200D01*
Y3142D02*
X3787Y3137D01*
X3622Y2893D02*
X3625D01*
X3627Y2896D01*
X4143Y3114D02*
X4158Y3101D01*
X4143Y3114D02*
Y3132D01*
X3835Y3200D02*
X3838Y3195D01*
X3901Y3114D02*
X3919Y3132D01*
X3975Y3020D02*
Y3023D01*
X3838Y3020D02*
Y3195D01*
X3919Y3132D02*
X4143D01*
X4158Y3101D02*
X4171D01*
X3835Y3155D02*
Y3200D01*
X3909Y3020D02*
X3975D01*
X3846Y3312D02*
X3884Y3272D01*
Y3200D02*
Y3272D01*
X3934Y3200D02*
Y3246D01*
X3914Y3264D02*
Y3315D01*
Y3264D02*
X3934Y3246D01*
X3985Y3200D02*
Y3272D01*
X3965Y3289D02*
X3985Y3272D01*
X4016Y3269D02*
Y3353D01*
X4028Y3205D02*
X4034Y3200D01*
X4016Y3269D02*
X4031Y3254D01*
Y3246D02*
Y3254D01*
X4028Y3244D02*
X4031Y3246D01*
X4028Y3205D02*
Y3244D01*
X4067Y3297D02*
X4084Y3279D01*
Y3200D02*
Y3279D01*
X4183Y3299D02*
X4219Y3264D01*
Y3251D02*
Y3264D01*
X3990Y4524D02*
X3998Y4529D01*
X3990Y4445D02*
Y4524D01*
X3965Y4420D02*
X3990Y4445D01*
X2626Y3818D02*
X2675D01*
X3495Y4529D02*
X3498D01*
X2832Y3338D02*
Y3358D01*
Y3338D02*
X2835Y3340D01*
X2784Y3391D02*
X2835Y3340D01*
X4994Y4529D02*
X4996D01*
X4994Y4458D02*
Y4529D01*
X4968Y4432D02*
X4994Y4458D01*
X4905Y4432D02*
X4968D01*
X5149Y5667D02*
X5159Y5677D01*
X5149Y5664D02*
Y5667D01*
X4930Y5994D02*
X5032Y5893D01*
Y5702D02*
Y5893D01*
Y5702D02*
X5057Y5677D01*
X5159D01*
X4194Y4529D02*
X4196D01*
X4194Y4526D02*
Y4529D01*
Y4623D01*
X5512Y5319D02*
X5527Y5334D01*
X5431Y5319D02*
X5512D01*
X5438Y5296D02*
Y5309D01*
X5431Y5319D02*
X5438Y5309D01*
X4597Y4442D02*
Y4529D01*
X5044Y3200D02*
Y3442D01*
Y3200D02*
X5047D01*
X4994Y3277D02*
X4996D01*
Y3200D02*
Y3277D01*
X5146Y3200D02*
Y3277D01*
X5095Y3200D02*
X5098D01*
X5095D02*
Y3315D01*
X4943Y3203D02*
X4948Y3200D01*
X4943Y3203D02*
Y3327D01*
X4917Y3353D02*
X4943Y3327D01*
X4803Y3353D02*
X4917D01*
X4742Y3299D02*
X4752Y3312D01*
Y3391D01*
X4625Y3302D02*
X4638Y3289D01*
Y3205D02*
Y3289D01*
Y3205D02*
X4643Y3200D01*
X4600Y3353D02*
Y3391D01*
X4575Y3327D02*
X4600Y3353D01*
X4575Y3264D02*
Y3327D01*
Y3264D02*
X4587Y3251D01*
Y3205D02*
Y3251D01*
Y3205D02*
X4592Y3200D01*
X4562Y3454D02*
X4600D01*
X4549Y3442D02*
X4562Y3454D01*
X4549Y3353D02*
Y3442D01*
X4536Y3340D02*
X4549Y3353D01*
X4536Y3213D02*
Y3340D01*
Y3213D02*
X4544D01*
X4549Y3208D01*
X4544Y3200D02*
X4549Y3208D01*
X4394Y3401D02*
X4397Y3404D01*
X4394Y3200D02*
Y3401D01*
X4455Y3399D02*
X4498Y3442D01*
X4442Y3399D02*
X4455D01*
X4897Y3947D02*
Y4011D01*
Y3947D02*
X4981Y3861D01*
Y3833D02*
Y3861D01*
Y3833D02*
X4983Y3830D01*
X4930Y3833D02*
X4933Y3830D01*
X4879Y3835D02*
X4884Y3830D01*
X4747Y3919D02*
Y4011D01*
Y3919D02*
X4834Y3830D01*
X4542Y3856D02*
Y3858D01*
Y3833D02*
Y3856D01*
X4448Y3952D02*
Y4011D01*
Y3952D02*
X4542Y3858D01*
X4442Y3833D02*
Y3856D01*
X4346Y3952D02*
Y4011D01*
Y3952D02*
X4442Y3856D01*
X4392Y3833D02*
Y3861D01*
X4298Y3957D02*
Y4011D01*
Y3957D02*
X4392Y3861D01*
X4905Y4229D02*
X4917Y4242D01*
X4943D01*
X5146Y4445D02*
Y4529D01*
X4943Y4242D02*
X5146Y4445D01*
X4107Y5575D02*
Y5740D01*
X4641Y3858D02*
X4643D01*
X4641Y3833D02*
Y3858D01*
X4547Y3955D02*
Y4011D01*
Y3955D02*
X4643Y3858D01*
X4592Y3833D02*
Y3858D01*
X4496Y3955D02*
Y4011D01*
Y3955D02*
X4592Y3858D01*
X4491Y3856D02*
X4493D01*
X4491Y3833D02*
Y3856D01*
X4397Y3952D02*
Y4011D01*
Y3952D02*
X4493Y3856D01*
X4536Y5204D02*
Y5207D01*
X3757Y5545D02*
X3762Y5537D01*
X3787D01*
X3757Y5545D02*
X3777Y5565D01*
Y5740D01*
X3886Y5580D02*
X3889Y5575D01*
X3886Y5580D02*
Y5740D01*
X3889Y5486D02*
Y5575D01*
Y5486D02*
X4282Y5093D01*
X4247Y3955D02*
X4341Y3861D01*
Y3833D02*
Y3861D01*
X4247Y3955D02*
Y4011D01*
X4293Y3833D02*
X4295D01*
Y3835D01*
X4293Y3840D02*
X4295Y3835D01*
X4194Y3929D02*
X4293Y3833D01*
X4194Y4008D02*
X4196Y4011D01*
X4194Y3929D02*
Y4008D01*
X5451Y4559D02*
Y4572D01*
X5542D01*
X5451Y4432D02*
Y4559D01*
X5400Y4623D02*
X5441Y4661D01*
X5451D01*
X5542D01*
X5400Y4508D02*
Y4623D01*
X5387Y4496D02*
X5400Y4508D01*
X5387Y4420D02*
Y4496D01*
X3698Y4686D02*
Y4689D01*
X3325Y6142D02*
X3330Y6147D01*
X3325Y6119D02*
Y6142D01*
Y6104D02*
X3330Y6096D01*
X3325Y6104D02*
Y6119D01*
X3330Y6088D02*
X3350Y6068D01*
X3330Y6088D02*
Y6096D01*
X3350Y6038D02*
Y6068D01*
Y6038D02*
X3368Y6020D01*
X3696Y4529D02*
X3747D01*
X3327Y6149D02*
X3330Y6147D01*
X5451Y4813D02*
X5453Y4811D01*
X5474D01*
X5476Y4813D01*
X5133Y4635D02*
X5255Y4757D01*
Y4813D01*
X5133Y4635D02*
Y4648D01*
X4135Y3551D02*
X4143D01*
X4194Y3602D01*
X5667Y4300D02*
Y4305D01*
X4892Y3073D02*
X4940Y3122D01*
X5230D01*
X5248Y3139D01*
X5362Y3391D02*
X5364Y3393D01*
Y3599D01*
X5654Y4313D02*
X5667Y4300D01*
X5641Y4572D02*
Y4575D01*
X5324Y4750D02*
X5357Y4719D01*
X5484D01*
X5527Y4762D02*
X5530Y4760D01*
X5565D01*
X5568Y4762D01*
X5618D01*
X5641Y4661D02*
Y4737D01*
Y4661D02*
X5644Y4663D01*
X5682D01*
X5321Y4813D02*
X5324Y4808D01*
X4216Y5649D02*
X4219Y5651D01*
X4232D01*
X5667Y5448D02*
X5718Y5499D01*
Y5677D01*
X4130Y3492D02*
Y3548D01*
X4117Y3480D02*
X4130Y3492D01*
X4117Y3429D02*
Y3480D01*
Y3264D02*
Y3429D01*
X4676Y3264D02*
X4694Y3249D01*
X5618Y4762D02*
X5641Y4737D01*
X5324Y4750D02*
Y4808D01*
X5484Y4719D02*
X5527Y4762D01*
X5682Y4663D02*
X5718Y4699D01*
X5654Y4313D02*
Y4559D01*
X5641Y4575D02*
X5654Y4559D01*
X5641Y4572D02*
Y4661D01*
X5210Y3383D02*
Y3467D01*
X4135Y3200D02*
Y3249D01*
X4117Y3264D02*
X4135Y3249D01*
X4130Y3548D02*
X4135Y3551D01*
X4689Y3548D02*
X4694Y3551D01*
X5248Y3139D02*
Y3254D01*
X5210Y3289D02*
X5248Y3254D01*
X5210Y3467D02*
X5248Y3505D01*
Y3551D01*
X4813Y6088D02*
X4844Y6119D01*
X2659Y4374D02*
X2664Y4379D01*
X4681Y2889D02*
Y2929D01*
X4844Y6119D02*
X4854Y6129D01*
X5014D01*
X5019Y6134D01*
X3597Y5707D02*
X3640Y5751D01*
Y5809D01*
X3660Y5829D01*
X5860Y4585D02*
Y4635D01*
X5778Y4562D02*
Y4564D01*
Y4562D02*
X5781Y4559D01*
X5563Y5027D02*
X5565Y5022D01*
X5646D01*
X3787Y4737D02*
Y4879D01*
Y4737D02*
X3800Y4724D01*
X5324Y3797D02*
X5337D01*
X5268Y3853D02*
X5324Y3797D01*
X2771Y4016D02*
X2797Y4044D01*
X2860Y4379D02*
X2863Y4381D01*
X4194Y3701D02*
Y3703D01*
X2863Y4381D02*
X2962D01*
X2771Y4016D02*
X2794Y4041D01*
Y4143D01*
X3734Y3434D02*
Y3449D01*
X3975Y3089D02*
X4028D01*
X3973Y2896D02*
X3975Y2893D01*
X5347Y3726D02*
X5352Y3721D01*
X5347Y3726D02*
Y3764D01*
X5428Y3399D02*
X5431Y3396D01*
X5428Y3399D02*
Y3495D01*
X4895Y4524D02*
X4900Y4529D01*
X5349Y5593D02*
X5372Y5570D01*
X4409Y4818D02*
X4420Y4808D01*
X4569D01*
X4651Y4727D01*
X4752D01*
X4813Y4788D01*
X4864D01*
X4892Y4760D01*
Y4750D02*
Y4760D01*
X5837Y4559D02*
X5860Y4585D01*
X5781Y4559D02*
X5837D01*
X5705Y5184D02*
X5718D01*
X5550Y4874D02*
X5565Y4859D01*
X5451Y5050D02*
X5464Y5034D01*
Y5029D02*
Y5034D01*
X5618Y5085D02*
X5718Y5184D01*
X5618Y5083D02*
Y5085D01*
X5563Y5027D02*
X5618Y5083D01*
X5555Y5019D02*
X5563Y5027D01*
X5555Y5017D02*
Y5019D01*
X5448Y5047D02*
X5451Y5050D01*
X5448Y4950D02*
Y5047D01*
X5298Y5309D02*
X5349Y5359D01*
X5298Y5306D02*
Y5309D01*
X5288Y5298D02*
X5349Y5359D01*
X5288Y5296D02*
Y5298D01*
X5144Y4874D02*
X5164Y4892D01*
X5169D01*
X5253Y4976D02*
X5255Y4978D01*
Y5050D01*
X5253Y5052D02*
X5255Y5050D01*
X5253Y5052D02*
Y5136D01*
X5349Y5728D02*
Y5751D01*
X5352Y5753D01*
X3368Y5903D02*
X3406Y5941D01*
X3368Y5842D02*
Y5903D01*
X2962Y4381D02*
X3071Y4270D01*
X2776Y4265D02*
X2797Y4242D01*
X5527Y5017D02*
X5555D01*
X5705Y5184D02*
Y5245D01*
Y5169D02*
Y5184D01*
X5502Y4300D02*
Y4496D01*
X5471Y4270D02*
X5502Y4300D01*
X5349Y5593D02*
Y5728D01*
X5464Y5029D02*
X5514D01*
X5527Y5017D01*
X5591Y4953D01*
Y4915D02*
Y4953D01*
X5550Y4874D02*
X5591Y4915D01*
X5537Y4862D02*
X5550Y4874D01*
X4897Y4529D02*
X4905Y4539D01*
X4892Y4750D02*
X5017Y4874D01*
X5144D01*
X5428Y3495D02*
X5464Y3531D01*
X4897Y4529D02*
X4948D01*
X5273Y5730D02*
X5349D01*
Y5728D02*
Y5730D01*
X5169Y4892D02*
X5253Y4976D01*
X3965Y5626D02*
X3995Y5657D01*
X3406Y5941D02*
X3434D01*
X4841Y3447D02*
X4846Y3449D01*
X4841Y3404D02*
Y3447D01*
X5298Y5306D02*
X5306Y5311D01*
X5298Y5182D02*
Y5306D01*
X5253Y5136D02*
X5298Y5182D01*
X5387Y4890D02*
X5448Y4950D01*
X5385Y4813D02*
X5387Y4816D01*
Y4890D01*
X5349Y4928D02*
X5387Y4890D01*
X5298Y4928D02*
X5349D01*
X5253Y4976D02*
X5298Y4928D01*
X5268Y3853D02*
X5314Y3899D01*
Y3955D01*
X5806Y3785D02*
Y3797D01*
X5337Y3772D02*
X5347Y3764D01*
X5337Y3772D02*
Y3797D01*
X2797Y4242D02*
X2809D01*
X2860Y4293D01*
Y4379D01*
X2797Y4044D02*
Y4242D01*
X4996Y3950D02*
Y4011D01*
Y3950D02*
X5083Y3861D01*
X4948Y3947D02*
Y4011D01*
Y3947D02*
X5032Y3861D01*
X4696Y4072D02*
X4740Y4115D01*
X4696Y4011D02*
Y4072D01*
X4547Y4529D02*
X4549Y4534D01*
Y4597D01*
X4536Y4610D02*
X4549Y4597D01*
X4308Y4610D02*
X4536D01*
X4295Y4623D02*
X4308Y4610D01*
X4295Y4623D02*
Y4839D01*
X4219Y4915D02*
X4295Y4839D01*
X4219Y4915D02*
Y5017D01*
X5235Y3721D02*
X5253D01*
X5248Y4643D02*
X5250Y4646D01*
X5248Y4529D02*
Y4643D01*
X4092Y4006D02*
X4097Y4011D01*
X4092Y3924D02*
Y4006D01*
X4143D02*
X4148Y4011D01*
X4143Y3924D02*
Y4006D01*
X5083Y5499D02*
X5138D01*
X5032Y5448D02*
X5083Y5499D01*
X4143Y4013D02*
X4148Y4011D01*
X4882Y4740D02*
X4892Y4750D01*
X4883Y4543D02*
X4897Y4529D01*
X5090Y5392D02*
X5098Y5400D01*
X5090Y5377D02*
Y5392D01*
X2898Y5537D02*
Y5682D01*
X2921Y5659D01*
X5032Y3833D02*
X5034Y3830D01*
X5032Y3833D02*
Y3861D01*
X5034Y3767D02*
Y3830D01*
X5084Y3833D02*
X5092Y3825D01*
Y3775D02*
Y3825D01*
X5083Y3830D02*
Y3861D01*
X5197Y3759D02*
X5235Y3721D01*
X5121Y3747D02*
X5136D01*
X5092Y3775D02*
X5121Y3747D01*
X2840Y4021D02*
X2878Y3980D01*
X2659Y4290D02*
Y4374D01*
Y4290D02*
X2670Y4280D01*
X2758D01*
X2731Y4227D02*
X2733Y4229D01*
X5387Y2959D02*
Y3238D01*
X5580Y3313D02*
X5583Y3310D01*
X5618D01*
X5759Y3884D02*
Y3900D01*
X5817Y3957D01*
X5867D01*
X5885Y3975D01*
X5832Y4366D02*
X5890Y4308D01*
X5897D01*
X5878Y4263D02*
X5885Y4255D01*
Y3975D02*
Y4255D01*
X5915Y4079D02*
X5944Y4051D01*
X5915Y4079D02*
Y4236D01*
X5923Y4244D01*
Y4281D01*
X5897Y4308D02*
X5923Y4281D01*
X2921Y5659D02*
X2954D01*
X2695Y4016D02*
X2712Y3998D01*
Y3912D02*
X2728Y3896D01*
X2712Y3912D02*
Y3998D01*
X4329Y3048D02*
X4331Y3045D01*
X4084Y2972D02*
X4160Y3048D01*
X4224Y2990D02*
X4231Y2997D01*
X4056Y2895D02*
X4069Y2908D01*
X4155D01*
X5669Y4826D02*
X5860Y4635D01*
X5669Y4826D02*
Y4999D01*
X5646Y5022D02*
X5669Y4999D01*
X5778Y4892D02*
X5832D01*
X5885Y4945D01*
X4547Y2943D02*
X4602Y2888D01*
X2697Y4041D02*
X2720Y4064D01*
Y4067D01*
X2725Y4072D01*
X2731D01*
Y4227D01*
X2670Y4089D02*
X2682Y4077D01*
X2664Y4143D02*
X2697Y4111D01*
X2680Y4079D02*
X2682Y4077D01*
X2680Y4079D02*
Y4094D01*
X2681D02*
X2697Y4111D01*
X2680Y4094D02*
X2681D01*
X5413Y6134D02*
Y6158D01*
X5352Y5753D02*
Y5845D01*
X5360Y5853D01*
X5398D01*
X5439Y5893D02*
X5509D01*
X5398Y5853D02*
X5439Y5893D01*
X5273Y5829D02*
X5342Y5898D01*
X5380D01*
X5149Y5763D02*
Y5800D01*
X5240Y5891D01*
Y5920D01*
X5433Y5730D02*
X5491D01*
X4694Y3201D02*
X4737D01*
X4793Y3145D01*
X4851D02*
X4892Y3104D01*
Y3073D02*
Y3104D01*
X4694Y3201D02*
Y3249D01*
X4767Y3001D02*
X4778Y2990D01*
X4767Y3001D02*
Y3056D01*
X4681Y2889D02*
X4696Y2873D01*
X4846Y2880D02*
Y2908D01*
X4859Y3025D02*
X4880D01*
X4915Y2990D01*
Y2939D02*
Y2990D01*
X4846Y2880D02*
X4849Y2878D01*
X4874D01*
X4160Y3048D02*
X4329D01*
X4442Y3200D02*
Y3399D01*
X4493Y3200D02*
Y3360D01*
X4231Y2997D02*
X4370D01*
X4426Y3053D01*
X4460Y2972D02*
X4473Y2962D01*
X4547Y2943D02*
Y2944D01*
X4793Y3251D02*
X4798D01*
X4813Y3190D02*
X4887D01*
X4793Y3145D02*
X4851D01*
X3230Y3548D02*
Y3601D01*
X3294Y3665D01*
Y3687D01*
X3280Y3548D02*
Y3603D01*
X3345Y3667D01*
Y3687D01*
X3330Y3548D02*
Y3602D01*
X3396Y3667D01*
Y3687D01*
X3380Y3548D02*
Y3601D01*
X3446Y3667D01*
Y3687D01*
X3431Y3548D02*
Y3602D01*
X3481Y3652D01*
Y3675D01*
X3484D01*
X3496Y3687D01*
X3482Y3548D02*
Y3596D01*
X3546Y3660D01*
Y3687D01*
X3180Y3594D02*
X3244Y3657D01*
X3180Y3548D02*
Y3594D01*
X3244Y3657D02*
Y3687D01*
X3195Y3653D02*
Y3687D01*
X3130Y3588D02*
X3195Y3653D01*
X3130Y3548D02*
Y3588D01*
X3581Y3500D02*
Y3548D01*
Y3500D02*
X3631Y3449D01*
X3080Y3449D02*
X3218D01*
X3130Y3198D02*
Y3295D01*
X3080Y3298D02*
X3209D01*
X3532Y3398D02*
Y3548D01*
X3579Y3383D02*
X3592Y3396D01*
X3195Y3838D02*
Y3871D01*
X3396Y3960D02*
Y4010D01*
X3413Y3931D02*
X3418D01*
X3447Y3960D01*
Y4010D01*
X3396Y3838D02*
Y3866D01*
X3461Y3931D01*
X3469D01*
X3495Y3957D01*
Y4010D01*
X3446Y3838D02*
Y3873D01*
X3473Y3901D01*
X3487D01*
X3546Y3960D01*
Y4010D01*
X3496Y3838D02*
Y3871D01*
X3499D02*
X3560Y3931D01*
X3568D01*
X3597Y3960D01*
Y4010D01*
X3496Y3871D02*
X3499D01*
X3546Y3838D02*
Y3874D01*
X3572Y3901D01*
X3588D01*
X3645Y3957D01*
Y4010D01*
X3345Y3957D02*
Y3990D01*
X3307Y3925D02*
X3312D01*
X3244Y3838D02*
Y3861D01*
X3312Y3925D02*
X3345Y3957D01*
X3297Y3973D02*
Y4010D01*
X3380Y3155D02*
Y3198D01*
X3280Y3153D02*
Y3198D01*
X3256Y3129D02*
X3280Y3153D01*
X3256Y3129D02*
X3257Y3129D01*
X3901Y3028D02*
X3909Y3020D01*
X3901Y3028D02*
Y3114D01*
X3627Y2896D02*
X3774D01*
X3622Y2959D02*
X3630Y2951D01*
X3787Y2979D02*
Y3137D01*
X3630Y2951D02*
X3719D01*
X3736Y3051D02*
X3754Y3034D01*
X3619Y3022D02*
X3701D01*
X3586Y3023D02*
X3622D01*
X3581Y3248D02*
X3631Y3298D01*
X3162Y3139D02*
X3180Y3157D01*
Y3198D01*
X3218Y3186D02*
X3230Y3198D01*
X3257Y3113D02*
Y3117D01*
X3318Y3186D02*
X3330Y3198D01*
X3376Y3193D02*
X3380Y3198D01*
X3482Y3115D02*
Y3198D01*
X3532Y3133D02*
X3539Y3127D01*
X3482Y3115D02*
X3502Y3095D01*
X3048Y3812D02*
X3050D01*
X3043Y3805D02*
X3050Y3812D01*
X3048D02*
X3078Y3781D01*
X3617Y3727D02*
Y3735D01*
X3150Y3807D02*
X3222Y3735D01*
X3150Y3807D02*
Y3838D01*
X3084Y3904D02*
X3150Y3838D01*
X3018Y3904D02*
X3084D01*
X3000Y3922D02*
X3018Y3904D01*
X3000Y3922D02*
Y3950D01*
X3470Y5715D02*
X3533Y5778D01*
Y5997D01*
X3222Y3735D02*
X3617D01*
X3670Y3727D02*
X3731Y3787D01*
X4125D01*
X3901Y3327D02*
X3914Y3315D01*
X3901Y3327D02*
Y3378D01*
X3846Y3312D02*
Y3340D01*
X3592Y3396D02*
X3696D01*
X3734Y3434D01*
X3736Y3051D02*
Y3150D01*
X3719Y2951D02*
X3754Y2987D01*
X3701Y3022D02*
X3708Y3015D01*
X3318Y3150D02*
Y3186D01*
X3622Y3089D02*
Y3111D01*
X3637Y3162D02*
X3650Y3150D01*
X3734Y3338D02*
X3736Y3340D01*
X3749D01*
X3581Y3151D02*
X3622Y3111D01*
X3502Y3093D02*
Y3095D01*
X3063Y3109D02*
X3091D01*
X3126Y3074D01*
X3181D01*
X3207Y3139D02*
X3218Y3150D01*
Y3186D01*
X3345Y3838D02*
Y3864D01*
X3413Y3931D01*
X3294Y3838D02*
Y3858D01*
X3396Y3960D01*
X3244Y3861D02*
X3307Y3925D01*
X3195Y3871D02*
X3297Y3973D01*
X3539Y3127D02*
X3546D01*
X3705Y3719D02*
X3743Y3757D01*
X4138D01*
X3617Y3727D02*
X3626Y3717D01*
X3711Y3602D02*
Y3643D01*
X3705Y3649D02*
X3711Y3643D01*
X3705Y3649D02*
Y3719D01*
X3665Y3513D02*
Y3515D01*
X3581Y3548D02*
X3626Y3594D01*
X3665Y3515D02*
Y3620D01*
X3590Y3637D02*
Y3673D01*
X3615Y3698D01*
X3626D01*
Y3717D01*
X3670Y3677D02*
X3675Y3673D01*
X3670Y3677D02*
Y3727D01*
X3675Y3629D02*
Y3673D01*
X3626Y3594D02*
Y3601D01*
X3590Y3637D02*
X3626Y3601D01*
X3665Y3620D02*
X3675Y3629D01*
X3631Y3298D02*
X3670Y3259D01*
Y3249D02*
Y3259D01*
X3315Y3147D02*
X3318Y3150D01*
X3162Y3119D02*
Y3139D01*
X3207Y3139D02*
Y3139D01*
X3254Y3125D02*
X3257Y3129D01*
X3376Y3124D02*
Y3193D01*
X3315Y3122D02*
Y3147D01*
X3181Y3074D02*
X3208Y3100D01*
Y3138D01*
X3207Y3139D02*
X3208Y3138D01*
X3254Y3117D02*
X3257Y3113D01*
X3254Y3117D02*
Y3125D01*
X2978Y3397D02*
X2992Y3383D01*
Y3328D02*
Y3383D01*
X3581Y3151D02*
Y3248D01*
X3238Y2918D02*
X3269Y2888D01*
Y2873D02*
Y2888D01*
X2954Y3536D02*
X2982Y3508D01*
X2954Y3536D02*
Y3724D01*
X2982Y3752D01*
X4408Y5256D02*
X4417Y5265D01*
X4397Y5267D02*
X4408Y5256D01*
X4397Y5267D02*
Y5271D01*
X4437Y5623D02*
Y5623D01*
Y5623D02*
X4488Y5572D01*
Y5256D02*
Y5572D01*
Y5256D02*
X4536Y5207D01*
X4524Y5296D02*
Y5578D01*
X4582Y5636D01*
Y5705D01*
X3749Y3340D02*
X3825Y3416D01*
X3876D01*
X3883Y3423D01*
X3920D01*
X3948Y3396D01*
X4084D02*
X4117Y3429D01*
X3948Y3396D02*
X3995D01*
X3997Y3398D01*
X4034D01*
X4036Y3396D01*
X4084D01*
X5456Y3797D02*
X5806D01*
D65*
X3400Y3010D02*
X3432D01*
X3454Y2987D01*
X3431Y3098D02*
Y3198D01*
X3411Y3078D02*
X3431Y3098D01*
X3089Y3993D02*
X3178D01*
X3246Y4061D01*
Y4148D01*
X3617Y3807D02*
Y3861D01*
X3627Y3871D01*
X3208Y4186D02*
X3246Y4148D01*
X3405Y3078D02*
X3408Y3075D01*
X3405Y3078D02*
X3411D01*
X3078Y3671D02*
Y3680D01*
X2996Y3652D02*
X3016Y3671D01*
X2996Y3590D02*
Y3652D01*
Y3590D02*
X3038Y3549D01*
X3016Y3671D02*
X3078D01*
D66*
X3635Y4750D02*
X3698Y4689D01*
D67*
X3940Y6083D02*
X4054D01*
X3698Y4529D02*
Y4686D01*
D68*
X5527Y5410D02*
X5601Y5337D01*
X5606D01*
Y5184D02*
Y5337D01*
Y5184D02*
X5618D01*
X3696Y4529D02*
X3698D01*
X5667Y5448D02*
X5718Y5397D01*
Y5395D02*
Y5397D01*
X5705Y5245D02*
X5718Y5258D01*
Y5296D01*
D69*
X5291Y5570D02*
D03*
X5371D02*
D03*
D70*
X3170Y4080D02*
D03*
X5372D02*
D03*
D71*
X5791Y6022D02*
D03*
X2791D02*
D03*
Y3023D02*
D03*
D72*
X5588Y3856D02*
D03*
X5692Y3409D02*
D03*
X4054Y3061D02*
D03*
X3838Y3012D02*
D03*
X3876Y2896D02*
D03*
X2639Y3752D02*
D03*
X4562Y4407D02*
D03*
X4692Y4410D02*
D03*
X4765Y4371D02*
D03*
X4539Y5204D02*
D03*
X4737Y4973D02*
D03*
X4575Y4966D02*
D03*
X4867Y5105D02*
D03*
X4041Y4356D02*
D03*
X4844Y4620D02*
D03*
X4191Y5558D02*
D03*
X4905Y4305D02*
D03*
X4557Y4122D02*
D03*
X4498Y4191D02*
D03*
X4277Y3183D02*
D03*
X4216Y3167D02*
D03*
X3416Y5027D02*
D03*
X3406Y4775D02*
D03*
X3546Y4737D02*
D03*
X3985Y4635D02*
D03*
X3035Y4823D02*
D03*
X3950Y4343D02*
D03*
X3800Y4318D02*
D03*
X3851Y4369D02*
D03*
X3838Y4445D02*
D03*
X3635Y4750D02*
D03*
X4699Y3833D02*
D03*
X3353Y4112D02*
D03*
X4915Y5639D02*
D03*
X4851Y5550D02*
D03*
X5019Y4648D02*
D03*
X5527Y5410D02*
D03*
X5489Y5791D02*
D03*
X5845Y3912D02*
D03*
X4054Y6083D02*
D03*
X3940D02*
D03*
X4600Y5906D02*
D03*
X4054D02*
D03*
X5646Y3345D02*
D03*
X3825Y6007D02*
D03*
X2708Y3416D02*
D03*
X5806Y5613D02*
D03*
X5794Y4813D02*
D03*
X5883Y3505D02*
D03*
X5387Y3238D02*
D03*
X2771Y4724D02*
D03*
X2758Y5601D02*
D03*
X4752Y4432D02*
D03*
X5319Y5126D02*
D03*
X4295Y4140D02*
D03*
X4117Y5093D02*
D03*
X5413Y5156D02*
D03*
X4384Y4254D02*
D03*
X3724Y4762D02*
D03*
X4049Y4610D02*
D03*
X4778Y2946D02*
D03*
X4041Y4420D02*
D03*
X2873Y3785D02*
D03*
X3254Y5715D02*
D03*
X5177Y5578D02*
D03*
X5248Y6121D02*
D03*
X2758Y4813D02*
D03*
X5006Y2870D02*
D03*
X5908Y3759D02*
D03*
X5845Y5144D02*
D03*
Y5220D02*
D03*
X5232Y5778D02*
D03*
X3393Y4432D02*
D03*
X5260Y4191D02*
D03*
X3317Y5766D02*
D03*
X5083Y4674D02*
D03*
X2720Y3505D02*
D03*
X5489Y5728D02*
D03*
X4778Y5245D02*
D03*
X5210Y5385D02*
D03*
X5197Y4610D02*
D03*
X2936Y4254D02*
D03*
X5210Y5271D02*
D03*
X5248Y5207D02*
D03*
X3736Y4991D02*
D03*
X3901Y3378D02*
D03*
X3965Y3289D02*
D03*
X4016Y3353D02*
D03*
X4067Y3297D02*
D03*
X4219Y3251D02*
D03*
X3965Y4420D02*
D03*
X2675Y3818D02*
D03*
X2784Y3391D02*
D03*
X4905Y4432D02*
D03*
X4930Y5994D02*
D03*
X4194Y4623D02*
D03*
X5527Y5334D02*
D03*
X5044Y3442D02*
D03*
X4994Y3277D02*
D03*
X5146D02*
D03*
X5095Y3315D02*
D03*
X4803Y3370D02*
D03*
X4729Y3399D02*
D03*
X4625Y3302D02*
D03*
X4600Y3391D02*
D03*
Y3454D02*
D03*
X4397Y3404D02*
D03*
X4493Y3360D02*
D03*
X4498Y3442D02*
D03*
X4905Y4229D02*
D03*
X4549Y5271D02*
D03*
X3757Y5545D02*
D03*
X3889Y5575D02*
D03*
X5451Y4432D02*
D03*
X5387Y4420D02*
D03*
X3368Y6020D02*
D03*
X5476Y4813D02*
D03*
X5133Y4635D02*
D03*
X4892Y3073D02*
D03*
X4232Y5651D02*
D03*
X5718Y4699D02*
D03*
X5667Y5448D02*
D03*
Y4305D02*
D03*
X4813Y6088D02*
D03*
X2781Y4270D02*
D03*
X5502Y4496D02*
D03*
X5705Y5245D02*
D03*
X4448Y3762D02*
D03*
X4333Y3416D02*
D03*
X3241Y4762D02*
D03*
X2830Y3891D02*
D03*
X3597Y5707D02*
D03*
X3368Y5842D02*
D03*
X4860Y3411D02*
D03*
X5349Y5359D02*
D03*
X5806Y3785D02*
D03*
X5337Y3797D02*
D03*
X3965Y5626D02*
D03*
X4740Y4115D02*
D03*
X4219Y5017D02*
D03*
X5210Y5524D02*
D03*
X5250Y4646D02*
D03*
X5032Y5448D02*
D03*
X3559Y4216D02*
D03*
X5090Y5377D02*
D03*
X3553Y4625D02*
D03*
X5197Y3759D02*
D03*
X2840Y4021D02*
D03*
X2733Y4229D02*
D03*
X4856Y3023D02*
D03*
X5931Y4051D02*
D03*
X5878Y4263D02*
D03*
X2728Y3896D02*
D03*
X4224Y2990D02*
D03*
X4056Y2895D02*
D03*
X2680Y4094D02*
D03*
X5509Y5893D02*
D03*
X5413Y6134D02*
D03*
X5380Y5898D02*
D03*
X4874Y2878D02*
D03*
X4460Y2972D02*
D03*
X4547Y2944D02*
D03*
X4590Y2987D02*
D03*
X4813Y3190D02*
D03*
X3067Y3245D02*
D03*
X3774Y2896D02*
D03*
X3454Y2987D02*
D03*
X3043Y3805D02*
D03*
X3058Y4117D02*
D03*
X2982Y3752D02*
D03*
X3538Y2949D02*
D03*
X3846Y3340D02*
D03*
X3696Y3396D02*
D03*
X3708Y3015D02*
D03*
X3299Y3023D02*
D03*
X3637Y3162D02*
D03*
X3736Y3340D02*
D03*
X3711Y3602D02*
D03*
X3665Y3515D02*
D03*
X3162Y3119D02*
D03*
X3376Y3124D02*
D03*
X3315Y3122D02*
D03*
X3254Y3117D02*
D03*
X2992Y3328D02*
D03*
X3209Y3298D02*
D03*
X3279Y3299D02*
D03*
X3353Y3297D02*
D03*
X3421D02*
D03*
X3426Y3437D02*
D03*
X3355D02*
D03*
X3289D02*
D03*
X3185Y3373D02*
D03*
X3269Y2873D02*
D03*
X4397Y5271D02*
D03*
D73*
X4595Y4254D02*
D03*
X4615Y4321D02*
D03*
X3238Y4902D02*
D03*
X3335Y4722D02*
D03*
X3502Y3093D02*
D03*
X3063Y3109D02*
D03*
X3208Y4186D02*
D03*
X3408Y3075D02*
D03*
X3546Y3127D02*
D03*
X3060Y3587D02*
D03*
X3632Y3655D02*
D03*
D74*
X3020Y3851D02*
D03*
X2882Y3429D02*
D03*
X4676Y5093D02*
D03*
X4117Y4267D02*
D03*
X4155Y4381D02*
D03*
X4275Y3256D02*
D03*
X3740Y5151D02*
D03*
X3785Y5098D02*
D03*
X3917Y5215D02*
D03*
X3899Y5324D02*
D03*
X4171Y5446D02*
D03*
X3312Y4227D02*
D03*
X3932Y4234D02*
D03*
X4778Y5906D02*
D03*
X5044Y5982D02*
D03*
X5451Y5423D02*
D03*
X5456Y5575D02*
D03*
X5756Y4635D02*
D03*
X4638Y6121D02*
D03*
X4524D02*
D03*
X5286Y4699D02*
D03*
X4333Y4877D02*
D03*
X4308Y5156D02*
D03*
X5019Y4940D02*
D03*
X4244Y4762D02*
D03*
X5387Y3315D02*
D03*
X5032Y4420D02*
D03*
X3813Y6109D02*
D03*
X3406Y5524D02*
D03*
X3279Y4394D02*
D03*
X3089Y4420D02*
D03*
X2873Y5080D02*
D03*
X2936Y5131D02*
D03*
X4163Y2982D02*
D03*
X3901Y4826D02*
D03*
X4206Y4813D02*
D03*
X4067Y4737D02*
D03*
X4061Y4135D02*
D03*
X4206Y4420D02*
D03*
X3228Y5258D02*
D03*
X5748Y4453D02*
D03*
X5806Y3404D02*
D03*
X4905Y4115D02*
D03*
X5298Y3658D02*
D03*
X5057Y4115D02*
D03*
X3749Y5397D02*
D03*
X3266Y4178D02*
D03*
X2926Y3348D02*
D03*
X2898Y5537D02*
D03*
X3838Y5055D02*
D03*
X4270Y3518D02*
D03*
X4762Y3759D02*
D03*
X2835Y4813D02*
D03*
X4702Y5524D02*
D03*
X4625Y5283D02*
D03*
X4854Y5169D02*
D03*
X4928Y5448D02*
D03*
X4003Y3467D02*
D03*
X4928Y4625D02*
D03*
X2766Y3774D02*
D03*
X2771Y3942D02*
D03*
X4676Y3117D02*
D03*
X4613D02*
D03*
X4417D02*
D03*
X4483Y3114D02*
D03*
X4793Y3251D02*
D03*
X4768Y3124D02*
D03*
X2822Y3442D02*
D03*
X3010Y2901D02*
D03*
X2982Y4107D02*
D03*
X3691Y3858D02*
D03*
X3023Y3707D02*
D03*
X3029Y3638D02*
D03*
X3526Y3785D02*
D03*
X3150Y3025D02*
D03*
X3137Y2875D02*
D03*
X3358Y3787D02*
D03*
X3734Y3249D02*
D03*
X3190Y3924D02*
D03*
X3495Y3035D02*
D03*
X3465Y3787D02*
D03*
X4384Y5220D02*
D03*
D75*
X5535Y3233D02*
D03*
X5136Y3747D02*
D03*
X5044Y3757D02*
D03*
X5580Y3313D02*
D03*
D76*
X2987Y3005D02*
D03*
X3627Y3871D02*
D03*
X3670Y3249D02*
D03*
D77*
X3566Y4379D02*
D03*
D78*
X3660Y5829D02*
X3673Y5842D01*
Y6020D01*
X4867Y6134D02*
X5019D01*
X4409Y4712D02*
Y4818D01*
Y4826D01*
X3800Y4724D02*
Y4890D01*
D79*
X3278Y5511D02*
G03*
X3258Y5503I32J-117D01*
G01*
X3216Y5474D02*
G03*
X3223Y5464I50J24D01*
G01*
X3203Y5516D02*
G03*
X3196Y5485I125J-48D01*
G01*
X3145Y5362D02*
G03*
X3153Y5347I18J1D01*
G01*
X3163Y5314D02*
G03*
X3153Y5347I-182J-38D01*
G01*
X3183Y5304D02*
G03*
X3163Y5314I-25J-26D01*
G01*
X3242Y5356D02*
G03*
X3249Y5353I9J8D01*
G01*
X3317Y5350D02*
G03*
X3297Y5360I-98J-169D01*
G01*
X3341Y5340D02*
G03*
X3320Y5343I-40J-156D01*
G01*
X3387Y5443D02*
X3390Y5440D01*
X3392Y5437D01*
X3394Y5435D01*
X3396Y5433D01*
X3399Y5432D01*
X3402Y5432D01*
X3373Y5450D02*
X3376Y5448D01*
X3378Y5447D01*
X3381Y5445D01*
X3383Y5444D01*
X3385Y5444D01*
X3387Y5443D01*
X3358Y5452D02*
X3360Y5451D01*
X3363Y5451D01*
X3366Y5451D01*
X3369Y5451D01*
X3371Y5450D01*
X3373Y5450D01*
X3401Y5425D02*
X3402Y5432D01*
X3401Y5419D02*
X3401Y5425D01*
X3400Y5413D02*
X3401Y5419D01*
X3400Y5408D02*
X3400Y5413D01*
X3399Y5404D02*
X3400Y5408D01*
X3398Y5399D02*
X3399Y5404D01*
X3396Y5394D02*
X3398Y5399D01*
X3394Y5390D02*
X3396Y5394D01*
X3336Y5482D02*
X3337Y5481D01*
X3338Y5480D01*
X3338Y5480D01*
X3339Y5479D01*
X3339Y5479D01*
X3339Y5479D01*
X3340Y5479D01*
X3340Y5479D01*
X3341Y5480D01*
X3342Y5481D01*
X3320Y5490D02*
X3322Y5490D01*
X3325Y5491D01*
X3328Y5491D01*
X3330Y5490D01*
X3332Y5489D01*
X3334Y5488D01*
X3335Y5486D01*
X3335Y5484D01*
X3336Y5482D01*
X3295D02*
X3299Y5481D01*
X3303Y5480D01*
X3306Y5480D01*
X3308Y5481D01*
X3311Y5482D01*
X3314Y5484D01*
X3317Y5486D01*
X3320Y5490D01*
X3293Y5496D02*
X3295Y5495D01*
X3296Y5494D01*
X3297Y5493D01*
X3297Y5492D01*
X3297Y5490D02*
X3297Y5492D01*
X3297Y5488D02*
X3297Y5490D01*
X3296Y5486D02*
X3297Y5488D01*
X3296Y5484D02*
X3296Y5486D01*
X3295Y5482D02*
X3296Y5484D01*
X3273Y5504D02*
X3275Y5504D01*
X3276Y5504D01*
X3279Y5504D01*
X3281Y5503D01*
X3283Y5503D01*
X3286Y5502D01*
X3288Y5502D01*
X3290Y5501D01*
X3292Y5500D01*
X3293Y5499D01*
X3293Y5498D01*
X3293Y5497D01*
X3293Y5496D02*
X3293Y5497D01*
X3278Y5511D02*
X3278Y5510D01*
X3278Y5510D02*
X3278Y5510D01*
X3278Y5509D02*
X3278Y5510D01*
X3278Y5509D02*
X3278Y5509D01*
X3277Y5509D02*
X3278Y5509D01*
X3276Y5508D02*
X3277Y5509D01*
X3275Y5508D02*
X3276Y5508D01*
X3274Y5507D02*
X3275Y5508D01*
X3274Y5506D02*
X3274Y5507D01*
X3273Y5505D02*
X3274Y5506D01*
X3273Y5504D02*
X3273Y5505D01*
X3342Y5481D02*
X3344Y5478D01*
X3345Y5474D01*
X3346Y5471D01*
X3347Y5467D01*
X3348Y5463D01*
X3349Y5461D01*
X3351Y5458D01*
X3353Y5456D01*
X3355Y5454D01*
X3358Y5452D01*
X3255Y5491D02*
X3255Y5492D01*
X3256Y5492D01*
X3256Y5493D01*
X3257Y5493D01*
X3257Y5494D02*
X3257Y5493D01*
X3256Y5495D02*
X3257Y5494D01*
X3256Y5495D02*
X3256Y5495D01*
X3255Y5496D02*
X3256Y5495D01*
X3254Y5496D02*
X3255Y5496D01*
X3253Y5496D02*
X3254Y5496D01*
X3223Y5464D02*
X3226Y5464D01*
X3229Y5465D01*
X3233Y5467D01*
X3236Y5469D01*
X3240Y5471D01*
X3243Y5474D01*
X3247Y5477D01*
X3251Y5480D01*
X3254Y5482D01*
X3258Y5485D01*
X3203Y5516D02*
X3206Y5514D01*
X3208Y5512D01*
X3209Y5509D01*
X3211Y5506D01*
X3212Y5502D01*
X3213Y5498D01*
X3214Y5494D01*
X3214Y5489D01*
X3215Y5485D01*
X3215Y5481D01*
X3216Y5477D01*
X3216Y5474D01*
X3180Y5454D02*
X3181Y5457D01*
X3181Y5461D01*
X3182Y5465D01*
X3183Y5469D01*
X3184Y5473D01*
X3185Y5476D01*
X3186Y5479D01*
X3188Y5481D01*
X3189Y5483D01*
X3191Y5484D01*
X3193Y5485D01*
X3196Y5485D01*
X3167Y5445D02*
X3169Y5447D01*
X3171Y5448D01*
X3174Y5450D01*
X3177Y5452D01*
X3180Y5454D01*
X3157Y5433D02*
X3159Y5434D01*
X3160Y5434D01*
X3162Y5435D01*
X3162Y5437D01*
X3163Y5438D01*
X3164Y5440D01*
X3165Y5442D01*
X3167Y5445D01*
X3142Y5410D02*
X3146Y5414D01*
X3149Y5418D01*
X3152Y5422D01*
X3154Y5425D01*
X3156Y5429D01*
X3157Y5433D01*
X3138Y5390D02*
X3139Y5394D01*
X3140Y5397D01*
X3141Y5401D01*
X3142Y5405D01*
X3142Y5410D01*
X3144Y5366D02*
X3145Y5362D01*
X3143Y5370D02*
X3144Y5366D01*
X3142Y5374D02*
X3143Y5370D01*
X3140Y5378D02*
X3142Y5374D01*
X3139Y5381D02*
X3140Y5378D01*
X3139Y5384D02*
X3139Y5381D01*
X3138Y5387D02*
X3139Y5384D01*
X3138Y5387D02*
X3138Y5390D01*
X3195Y5306D02*
X3197Y5305D01*
X3193Y5307D02*
X3195Y5306D01*
X3191Y5307D02*
X3193Y5307D01*
X3190Y5308D02*
X3191Y5307D01*
X3189Y5308D02*
X3190Y5308D01*
X3188Y5307D02*
X3189Y5308D01*
X3187Y5306D02*
X3188Y5307D01*
X3185Y5305D02*
X3187Y5306D01*
X3183Y5304D02*
X3185Y5305D01*
X3228Y5326D02*
X3231Y5331D01*
X3224Y5322D02*
X3228Y5326D01*
X3221Y5319D02*
X3224Y5322D01*
X3217Y5316D02*
X3221Y5319D01*
X3214Y5314D02*
X3217Y5316D01*
X3208Y5311D02*
X3214Y5314D01*
X3203Y5308D02*
X3208Y5311D01*
X3197Y5305D02*
X3203Y5308D01*
X3231Y5341D02*
X3233Y5343D01*
X3230Y5339D02*
X3231Y5341D01*
X3229Y5337D02*
X3230Y5339D01*
X3229Y5335D02*
X3229Y5337D01*
X3229Y5335D02*
X3229Y5333D01*
X3231Y5331D01*
X3236Y5348D02*
X3236Y5349D01*
X3236Y5348D02*
X3237Y5347D01*
X3237Y5345D01*
X3237Y5344D01*
X3237Y5344D01*
X3237Y5343D02*
X3237Y5344D01*
X3237Y5343D02*
X3237Y5343D01*
X3237Y5343D02*
X3237Y5343D01*
X3237Y5343D02*
X3237Y5343D01*
X3236Y5343D02*
X3237Y5343D01*
X3236Y5343D02*
X3236Y5343D01*
X3235Y5343D02*
X3236Y5343D01*
X3234Y5343D02*
X3235Y5343D01*
X3233Y5343D02*
X3234Y5343D01*
X3242Y5346D02*
X3243Y5345D01*
X3241Y5347D02*
X3242Y5346D01*
X3240Y5349D02*
X3241Y5347D01*
X3240Y5350D02*
X3240Y5349D01*
X3239Y5351D02*
X3240Y5350D01*
X3239Y5351D02*
X3239Y5351D01*
X3238Y5351D02*
X3239Y5351D01*
X3238Y5351D02*
X3238Y5351D01*
X3238Y5351D02*
X3238Y5351D01*
X3237Y5351D02*
X3238Y5351D01*
X3237Y5351D02*
X3237Y5351D01*
X3237Y5350D02*
X3237Y5351D01*
X3236Y5349D02*
X3237Y5350D01*
X3242Y5356D02*
X3242Y5356D01*
X3242Y5356D02*
X3242Y5355D01*
X3243Y5354D01*
X3243Y5351D01*
X3244Y5349D01*
X3244Y5347D01*
X3244Y5346D01*
X3244Y5345D02*
X3244Y5346D01*
X3244Y5345D02*
X3244Y5345D01*
X3244Y5345D02*
X3244Y5345D01*
X3243Y5345D02*
X3244Y5345D01*
X3243Y5345D02*
X3243Y5345D01*
X3255Y5351D02*
X3256Y5353D01*
X3254Y5349D02*
X3255Y5351D01*
X3254Y5348D02*
X3254Y5349D01*
X3253Y5348D02*
X3254Y5348D01*
X3253Y5348D02*
X3253Y5348D01*
X3253Y5348D02*
X3253Y5348D01*
X3253Y5348D02*
X3253Y5348D01*
X3252Y5348D02*
X3253Y5348D01*
X3252Y5348D02*
X3252Y5348D01*
X3251Y5349D02*
X3252Y5348D01*
X3250Y5351D02*
X3251Y5349D01*
X3249Y5353D02*
X3250Y5351D01*
X3293Y5361D02*
X3297Y5360D01*
X3289Y5362D02*
X3293Y5361D01*
X3284Y5363D02*
X3289Y5362D01*
X3279Y5363D02*
X3284Y5363D01*
X3274Y5363D02*
X3279Y5363D01*
X3270Y5362D02*
X3274Y5363D01*
X3267Y5361D02*
X3270Y5362D01*
X3263Y5360D02*
X3267Y5361D01*
X3260Y5358D02*
X3263Y5360D01*
X3258Y5356D02*
X3260Y5358D01*
X3256Y5353D02*
X3258Y5356D01*
X3363Y5329D02*
X3367Y5329D01*
X3360Y5329D02*
X3363Y5329D01*
X3357Y5330D02*
X3360Y5329D01*
X3354Y5331D02*
X3357Y5330D01*
X3352Y5333D02*
X3354Y5331D01*
X3348Y5335D02*
X3352Y5333D01*
X3345Y5338D02*
X3348Y5335D01*
X3341Y5340D02*
X3345Y5338D01*
X3373Y5341D02*
X3374Y5339D01*
X3376Y5337D01*
X3376Y5335D01*
X3377Y5334D01*
X3377Y5333D01*
X3377Y5333D02*
X3377Y5333D01*
X3376Y5332D02*
X3377Y5333D01*
X3376Y5332D02*
X3376Y5332D01*
X3375Y5331D02*
X3376Y5332D01*
X3373Y5330D02*
X3375Y5331D01*
X3370Y5330D02*
X3373Y5330D01*
X3367Y5329D02*
X3370Y5330D01*
X3381Y5361D02*
X3381Y5364D01*
X3380Y5359D02*
X3381Y5361D01*
X3379Y5356D02*
X3380Y5359D01*
X3377Y5354D02*
X3379Y5356D01*
X3374Y5350D02*
X3377Y5354D01*
X3372Y5346D02*
X3374Y5350D01*
X3252Y5499D02*
X3253Y5496D01*
X3251Y5501D02*
X3252Y5499D01*
X3251Y5502D02*
X3251Y5501D01*
X3251Y5502D02*
X3251Y5503D01*
X3251Y5503D01*
X3252Y5503D01*
X3252Y5504D01*
X3253Y5504D01*
X3254Y5504D01*
X3255Y5503D01*
X3258Y5503D01*
X3189Y5288D02*
X3198Y5292D01*
X3179Y5290D02*
X3189Y5288D01*
X3179Y5289D02*
X3179Y5290D01*
X3179Y5289D02*
X3179Y5281D01*
X3183Y5274D01*
X3186Y5276D01*
X3190Y5268D01*
X3192Y5269D01*
X3198Y5277D01*
X3199Y5282D01*
X3198Y5283D02*
X3199Y5282D01*
X3198Y5283D02*
X3200Y5287D01*
Y5292D01*
X3198Y5292D02*
X3200Y5292D01*
X3394Y5390D02*
X3396Y5389D01*
X3381Y5364D02*
X3396Y5389D01*
X3255Y5491D02*
X3258Y5485D01*
X3317Y5350D02*
X3320Y5343D01*
X3372Y5346D02*
X3373Y5341D01*
D80*
X3020Y3203D02*
D03*
X2807Y3355D02*
D03*
X5578Y5563D02*
D03*
X5248Y5474D02*
D03*
X2944Y5697D02*
D03*
D81*
X2657Y3843D02*
D03*
D82*
X5718Y5677D02*
D03*
X5916Y3355D02*
D03*
X5535Y3233D02*
D03*
D83*
X4186Y3301D02*
D03*
Y3452D02*
D03*
X3735D02*
D03*
Y3301D02*
D03*
X5298D02*
D03*
Y3452D02*
D03*
X4847D02*
D03*
Y3301D02*
D03*
X4745D02*
D03*
Y3452D02*
D03*
X4294D02*
D03*
Y3301D02*
D03*
D84*
X4135Y3551D02*
D03*
X4087D02*
D03*
X4036D02*
D03*
X3985D02*
D03*
X3935D02*
D03*
X3885D02*
D03*
X3835D02*
D03*
X3785D02*
D03*
Y3201D02*
D03*
X3835D02*
D03*
X3885D02*
D03*
X3935D02*
D03*
X3985D02*
D03*
X4036D02*
D03*
X4087D02*
D03*
X4135D02*
D03*
X5248Y3551D02*
D03*
X5199D02*
D03*
X5149D02*
D03*
X5098D02*
D03*
X5047D02*
D03*
X4997D02*
D03*
X4947D02*
D03*
X4897D02*
D03*
Y3201D02*
D03*
X4947D02*
D03*
X4997D02*
D03*
X5047D02*
D03*
X5098D02*
D03*
X5149D02*
D03*
X5199D02*
D03*
X5248D02*
D03*
X4694Y3551D02*
D03*
X4646D02*
D03*
X4595D02*
D03*
X4544D02*
D03*
X4494D02*
D03*
X4444D02*
D03*
X4394D02*
D03*
X4344D02*
D03*
Y3201D02*
D03*
X4394D02*
D03*
X4444D02*
D03*
X4494D02*
D03*
X4544D02*
D03*
X4595D02*
D03*
X4646D02*
D03*
X4694D02*
D03*
D85*
X3696Y6025D02*
D03*
D86*
X3856Y4709D02*
D03*
X4426D02*
D03*
D87*
X5036Y6114D02*
D03*
D88*
X3774Y5740D02*
D03*
X3884D02*
D03*
X3993Y5761D02*
D03*
X4105Y5740D02*
D03*
X4214Y5761D02*
D03*
X4323Y5740D02*
D03*
X4435Y5700D02*
D03*
X4545Y5740D02*
D03*
D89*
X3619Y3022D02*
D03*
X3975D02*
D03*
X3619Y2957D02*
D03*
Y2891D02*
D03*
X3975Y2957D02*
D03*
Y2891D02*
D03*
Y3087D02*
D03*
X3619D02*
D03*
D90*
X3406Y6119D02*
D03*
X3557D02*
D03*
X3345Y2918D02*
D03*
X3194D02*
D03*
X4328Y2929D02*
D03*
X4479D02*
D03*
X5207Y2918D02*
D03*
X5358D02*
D03*
X3174Y6119D02*
D03*
X3325D02*
D03*
D91*
X5413Y6007D02*
D03*
Y6158D02*
D03*
X2690Y5494D02*
D03*
Y5645D02*
D03*
Y4671D02*
D03*
Y4520D02*
D03*
X2692Y3584D02*
D03*
Y3433D02*
D03*
X5880Y3614D02*
D03*
Y3463D02*
D03*
X5870Y4945D02*
D03*
Y4794D02*
D03*
X5890Y5392D02*
D03*
Y5544D02*
D03*
X5189Y6011D02*
D03*
Y6162D02*
D03*
D92*
X5860Y4585D02*
D03*
Y4403D02*
D03*
D93*
X3297Y4010D02*
D03*
Y4531D02*
D03*
X3345Y4010D02*
D03*
Y4531D02*
D03*
X3396Y4010D02*
D03*
Y4531D02*
D03*
X3447Y4010D02*
D03*
Y4531D02*
D03*
X3495Y4010D02*
D03*
Y4531D02*
D03*
X3546Y4010D02*
D03*
Y4531D02*
D03*
X3597Y4010D02*
D03*
Y4531D02*
D03*
X3645Y4010D02*
D03*
Y4531D02*
D03*
X3696Y4010D02*
D03*
Y4531D02*
D03*
X3747Y4010D02*
D03*
Y4531D02*
D03*
X3795D02*
D03*
X3846D02*
D03*
X3896D02*
D03*
X3947D02*
D03*
X3995D02*
D03*
X4046D02*
D03*
X4097D02*
D03*
X4145D02*
D03*
X4196D02*
D03*
X4247D02*
D03*
X4297D02*
D03*
X4347D02*
D03*
X4397D02*
D03*
X4447D02*
D03*
X4497D02*
D03*
X4547D02*
D03*
X4597D02*
D03*
X4647D02*
D03*
X4697D02*
D03*
X4747D02*
D03*
X4797D02*
D03*
X4847D02*
D03*
X4897D02*
D03*
X4947D02*
D03*
X4997D02*
D03*
X5047D02*
D03*
X5097D02*
D03*
X5147D02*
D03*
X5197D02*
D03*
X3795Y4010D02*
D03*
X3846D02*
D03*
X3896D02*
D03*
X3947D02*
D03*
X3995D02*
D03*
X4046D02*
D03*
X4097D02*
D03*
X4145D02*
D03*
X4196D02*
D03*
X4247D02*
D03*
X4297D02*
D03*
X4347D02*
D03*
X4397D02*
D03*
X4447D02*
D03*
X4497D02*
D03*
X4547D02*
D03*
X4597D02*
D03*
X4647D02*
D03*
X4697D02*
D03*
X4747D02*
D03*
X4797D02*
D03*
X4847D02*
D03*
X4897D02*
D03*
X4947D02*
D03*
X4997D02*
D03*
X5047D02*
D03*
X5097D02*
D03*
X5147D02*
D03*
X5197D02*
D03*
X5247D02*
D03*
D94*
X3071Y4270D02*
D03*
X5472D02*
D03*
D95*
X5247Y4531D02*
D03*
D96*
X2874Y4384D02*
D03*
X2809D02*
D03*
X2743D02*
D03*
X2677D02*
D03*
Y4147D02*
D03*
X2743D02*
D03*
X2809D02*
D03*
X2874D02*
D03*
X5449Y5050D02*
D03*
X5384D02*
D03*
X5319D02*
D03*
X5253D02*
D03*
Y4813D02*
D03*
X5319D02*
D03*
X5384D02*
D03*
X5449D02*
D03*
D97*
X3424Y4694D02*
D03*
Y4946D02*
D03*
D98*
X2911Y3993D02*
D03*
X3000D02*
D03*
X3089D02*
D03*
D99*
X3631Y3298D02*
D03*
Y3449D02*
D03*
X3080Y3298D02*
D03*
X3080Y3449D02*
D03*
D100*
X3581Y3548D02*
D03*
X3532Y3548D02*
D03*
X3482D02*
D03*
X3431Y3548D02*
D03*
X3380D02*
D03*
X3330D02*
D03*
X3280Y3548D02*
D03*
X3280Y3198D02*
D03*
X3330D02*
D03*
X3380D02*
D03*
X3431D02*
D03*
X3482D02*
D03*
X3532D02*
D03*
X3581D02*
D03*
X3130D02*
D03*
Y3548D02*
D03*
X3230Y3198D02*
D03*
X3180D02*
D03*
Y3548D02*
D03*
X3230D02*
D03*
D101*
X2912Y3993D02*
X3000D01*
M02*
