G04 Layer_Color=2752767*
%FSLAX42Y42*%
%MOMM*%
G71*
G01*
G75*
%ADD279C,0.05*%
D279*
X5479Y3856D02*
X5489Y3866D01*
X5499D01*
X5489Y3876D01*
X5499Y3886D01*
X5489D01*
X5479Y3896D01*
X5469Y3886D01*
X5458D01*
X5469Y3876D01*
X5458Y3866D01*
X5469D01*
X5479Y3856D01*
X5517Y3924D02*
X5527Y3934D01*
X5537D01*
X5527Y3945D01*
X5537Y3955D01*
X5527D01*
X5517Y3965D01*
X5507Y3955D01*
X5497D01*
X5507Y3945D01*
X5497Y3934D01*
X5507D01*
X5517Y3924D01*
X5608Y3919D02*
X5618Y3929D01*
X5629D01*
X5618Y3940D01*
X5629Y3950D01*
X5618D01*
X5608Y3960D01*
X5598Y3950D01*
X5588D01*
X5598Y3940D01*
X5588Y3929D01*
X5598D01*
X5608Y3919D01*
X5413Y3724D02*
X5423Y3744D01*
X5413Y3764D01*
X5433Y3754D01*
X5453Y3764D01*
X5443Y3744D01*
X5453Y3724D01*
X5433Y3734D01*
X5413Y3724D01*
X5682Y3863D02*
X5692Y3874D01*
X5702D01*
X5692Y3884D01*
X5702Y3894D01*
X5692D01*
X5682Y3904D01*
X5672Y3894D01*
X5662D01*
X5672Y3884D01*
X5662Y3874D01*
X5672D01*
X5682Y3863D01*
X5540Y3388D02*
X5550Y3409D01*
X5540Y3429D01*
X5560Y3419D01*
X5580Y3429D01*
X5570Y3409D01*
X5580Y3388D01*
X5560Y3399D01*
X5540Y3388D01*
X5585Y3777D02*
X5596Y3797D01*
X5585Y3818D01*
X5606Y3807D01*
X5626Y3818D01*
X5616Y3797D01*
X5626Y3777D01*
X5606Y3787D01*
X5585Y3777D01*
X3787Y3028D02*
X3797Y3038D01*
X3807D01*
X3797Y3048D01*
X3807Y3058D01*
X3797D01*
X3787Y3068D01*
X3777Y3058D01*
X3767D01*
X3777Y3048D01*
X3767Y3038D01*
X3777D01*
X3787Y3028D01*
X3838Y3066D02*
X3848Y3076D01*
X3858D01*
X3848Y3086D01*
X3858Y3096D01*
X3848D01*
X3838Y3106D01*
X3828Y3096D01*
X3818D01*
X3828Y3086D01*
X3818Y3076D01*
X3828D01*
X3838Y3066D01*
X3899Y2967D02*
X3909Y2977D01*
X3919D01*
X3909Y2987D01*
X3919Y2997D01*
X3909D01*
X3899Y3007D01*
X3889Y2997D01*
X3879D01*
X3889Y2987D01*
X3879Y2977D01*
X3889D01*
X3899Y2967D01*
X3980Y2901D02*
X3990Y2911D01*
X4001D01*
X3990Y2921D01*
X4001Y2931D01*
X3990D01*
X3980Y2941D01*
X3970Y2931D01*
X3960D01*
X3970Y2921D01*
X3960Y2911D01*
X3970D01*
X3980Y2901D01*
X4041Y3188D02*
X4051Y3198D01*
X4061D01*
X4051Y3208D01*
X4061Y3218D01*
X4051D01*
X4041Y3228D01*
X4031Y3218D01*
X4021D01*
X4031Y3208D01*
X4021Y3198D01*
X4031D01*
X4041Y3188D01*
X4079Y3104D02*
X4089Y3114D01*
X4100D01*
X4089Y3124D01*
X4100Y3134D01*
X4089D01*
X4079Y3145D01*
X4069Y3134D01*
X4059D01*
X4069Y3124D01*
X4059Y3114D01*
X4069D01*
X4079Y3104D01*
X4335Y5703D02*
X4346Y5724D01*
X4335Y5744D01*
X4356Y5734D01*
X4376Y5744D01*
X4366Y5724D01*
X4376Y5703D01*
X4356Y5713D01*
X4335Y5703D01*
X4270D02*
X4280Y5724D01*
X4270Y5744D01*
X4290Y5734D01*
X4311Y5744D01*
X4301Y5724D01*
X4311Y5703D01*
X4290Y5713D01*
X4270Y5703D01*
X4549Y5085D02*
X4559Y5095D01*
X4569D01*
X4559Y5105D01*
X4569Y5116D01*
X4559D01*
X4549Y5126D01*
X4539Y5116D01*
X4529D01*
X4539Y5105D01*
X4529Y5095D01*
X4539D01*
X4549Y5085D01*
X4371Y5136D02*
X4381Y5146D01*
X4392D01*
X4381Y5156D01*
X4392Y5166D01*
X4381D01*
X4371Y5177D01*
X4361Y5166D01*
X4351D01*
X4361Y5156D01*
X4351Y5146D01*
X4361D01*
X4371Y5136D01*
X4559Y5730D02*
X4569Y5740D01*
X4580D01*
X4569Y5751D01*
X4580Y5761D01*
X4569D01*
X4559Y5771D01*
X4549Y5761D01*
X4539D01*
X4549Y5751D01*
X4539Y5740D01*
X4549D01*
X4559Y5730D01*
X3823Y5832D02*
X3833Y5852D01*
X3823Y5872D01*
X3843Y5862D01*
X3863Y5872D01*
X3853Y5852D01*
X3863Y5832D01*
X3843Y5842D01*
X3823Y5832D01*
X3294Y4427D02*
X3305Y4448D01*
X3294Y4468D01*
X3315Y4458D01*
X3335Y4468D01*
X3325Y4448D01*
X3335Y4427D01*
X3315Y4437D01*
X3294Y4427D01*
X3378Y4135D02*
X3388Y4155D01*
X3378Y4176D01*
X3399Y4166D01*
X3419Y4176D01*
X3409Y4155D01*
X3419Y4135D01*
X3399Y4145D01*
X3378Y4135D01*
X3346Y4673D02*
X3356Y4693D01*
X3346Y4714D01*
X3366Y4704D01*
X3387Y4714D01*
X3376Y4693D01*
X3387Y4673D01*
X3366Y4683D01*
X3346Y4673D01*
X3675Y4542D02*
X3686Y4552D01*
X3696D01*
X3686Y4562D01*
X3696Y4572D01*
X3686D01*
X3675Y4582D01*
X3665Y4572D01*
X3655D01*
X3665Y4562D01*
X3655Y4552D01*
X3665D01*
X3675Y4542D01*
X3406Y4818D02*
X3416Y4829D01*
X3426D01*
X3416Y4839D01*
X3426Y4849D01*
X3416D01*
X3406Y4859D01*
X3396Y4849D01*
X3386D01*
X3396Y4839D01*
X3386Y4829D01*
X3396D01*
X3406Y4818D01*
X3216Y5022D02*
X3226Y5032D01*
X3236D01*
X3226Y5042D01*
X3236Y5052D01*
X3226D01*
X3216Y5062D01*
X3205Y5052D01*
X3195D01*
X3205Y5042D01*
X3195Y5032D01*
X3205D01*
X3216Y5022D01*
X3571Y4806D02*
X3581Y4816D01*
X3592D01*
X3581Y4826D01*
X3592Y4836D01*
X3581D01*
X3571Y4846D01*
X3561Y4836D01*
X3551D01*
X3561Y4826D01*
X3551Y4816D01*
X3561D01*
X3571Y4806D01*
X3777Y4422D02*
X3787Y4432D01*
X3797D01*
X3787Y4442D01*
X3797Y4453D01*
X3787D01*
X3777Y4463D01*
X3767Y4453D01*
X3757D01*
X3767Y4442D01*
X3757Y4432D01*
X3767D01*
X3777Y4422D01*
X3417Y4081D02*
X3427Y4101D01*
X3417Y4122D01*
X3437Y4111D01*
X3458Y4122D01*
X3448Y4101D01*
X3458Y4081D01*
X3437Y4091D01*
X3417Y4081D01*
X3868Y4227D02*
X3879Y4237D01*
X3889D01*
X3879Y4247D01*
X3889Y4257D01*
X3879D01*
X3868Y4267D01*
X3858Y4257D01*
X3848D01*
X3858Y4247D01*
X3848Y4237D01*
X3858D01*
X3868Y4227D01*
X3686Y4412D02*
X3696Y4422D01*
X3706D01*
X3696Y4432D01*
X3706Y4442D01*
X3696D01*
X3686Y4453D01*
X3675Y4442D01*
X3665D01*
X3675Y4432D01*
X3665Y4422D01*
X3675D01*
X3686Y4412D01*
X3787Y4361D02*
X3797Y4371D01*
X3807D01*
X3797Y4381D01*
X3807Y4392D01*
X3797D01*
X3787Y4402D01*
X3777Y4392D01*
X3767D01*
X3777Y4381D01*
X3767Y4371D01*
X3777D01*
X3787Y4361D01*
X3800Y4575D02*
X3810Y4585D01*
X3820D01*
X3810Y4595D01*
X3820Y4605D01*
X3810D01*
X3800Y4615D01*
X3790Y4605D01*
X3780D01*
X3790Y4595D01*
X3780Y4585D01*
X3790D01*
X3800Y4575D01*
X3317Y4615D02*
X3327Y4625D01*
X3338D01*
X3327Y4635D01*
X3338Y4646D01*
X3327D01*
X3317Y4656D01*
X3307Y4646D01*
X3297D01*
X3307Y4635D01*
X3297Y4625D01*
X3307D01*
X3317Y4615D01*
X3965Y4158D02*
X3975Y4168D01*
X3985D01*
X3975Y4178D01*
X3985Y4188D01*
X3975D01*
X3965Y4199D01*
X3955Y4188D01*
X3945D01*
X3955Y4178D01*
X3945Y4168D01*
X3955D01*
X3965Y4158D01*
X4384Y3993D02*
X4394Y4003D01*
X4404D01*
X4394Y4013D01*
X4404Y4023D01*
X4394D01*
X4384Y4034D01*
X4374Y4023D01*
X4364D01*
X4374Y4013D01*
X4364Y4003D01*
X4374D01*
X4384Y3993D01*
X5911Y5197D02*
X5921Y5207D01*
X5931D01*
X5921Y5217D01*
X5931Y5227D01*
X5921D01*
X5911Y5237D01*
X5900Y5227D01*
X5890D01*
X5900Y5217D01*
X5890Y5207D01*
X5900D01*
X5911Y5197D01*
X3175Y4948D02*
X3185Y4958D01*
X3195D01*
X3185Y4968D01*
X3195Y4978D01*
X3185D01*
X3175Y4989D01*
X3165Y4978D01*
X3155D01*
X3165Y4968D01*
X3155Y4958D01*
X3165D01*
X3175Y4948D01*
X3305Y5504D02*
X3315Y5514D01*
X3325D01*
X3315Y5524D01*
X3325Y5535D01*
X3315D01*
X3305Y5545D01*
X3294Y5535D01*
X3284D01*
X3294Y5524D01*
X3284Y5514D01*
X3294D01*
X3305Y5504D01*
X3736Y5606D02*
X3747Y5616D01*
X3757D01*
X3747Y5626D01*
X3757Y5636D01*
X3747D01*
X3736Y5646D01*
X3726Y5636D01*
X3716D01*
X3726Y5626D01*
X3716Y5616D01*
X3726D01*
X3736Y5606D01*
X3228Y3752D02*
X3238Y3762D01*
X3249D01*
X3238Y3772D01*
X3249Y3782D01*
X3238D01*
X3228Y3792D01*
X3218Y3782D01*
X3208D01*
X3218Y3772D01*
X3208Y3762D01*
X3218D01*
X3228Y3752D01*
X5756Y3332D02*
X5766Y3343D01*
X5776D01*
X5766Y3353D01*
X5776Y3363D01*
X5766D01*
X5756Y3373D01*
X5745Y3363D01*
X5735D01*
X5745Y3353D01*
X5735Y3343D01*
X5745D01*
X5756Y3332D01*
X5895Y4679D02*
X5906Y4689D01*
X5916D01*
X5906Y4699D01*
X5916Y4709D01*
X5906D01*
X5895Y4719D01*
X5885Y4709D01*
X5875D01*
X5885Y4699D01*
X5875Y4689D01*
X5885D01*
X5895Y4679D01*
X4270Y3840D02*
X4280Y3851D01*
X4290D01*
X4280Y3861D01*
X4290Y3871D01*
X4280D01*
X4270Y3881D01*
X4260Y3871D01*
X4249D01*
X4260Y3861D01*
X4249Y3851D01*
X4260D01*
X4270Y3840D01*
Y3980D02*
X4280Y3990D01*
X4290D01*
X4280Y4001D01*
X4290Y4011D01*
X4280D01*
X4270Y4021D01*
X4260Y4011D01*
X4249D01*
X4260Y4001D01*
X4249Y3990D01*
X4260D01*
X4270Y3980D01*
X5286Y5720D02*
X5296Y5730D01*
X5306D01*
X5296Y5740D01*
X5306Y5751D01*
X5296D01*
X5286Y5761D01*
X5276Y5751D01*
X5265D01*
X5276Y5740D01*
X5265Y5730D01*
X5276D01*
X5286Y5720D01*
X3559Y3929D02*
X3569Y3940D01*
X3579D01*
X3569Y3950D01*
X3579Y3960D01*
X3569D01*
X3559Y3970D01*
X3548Y3960D01*
X3538D01*
X3548Y3950D01*
X3538Y3940D01*
X3548D01*
X3559Y3929D01*
X3114Y4247D02*
X3124Y4257D01*
X3134D01*
X3124Y4267D01*
X3134Y4277D01*
X3124D01*
X3114Y4288D01*
X3104Y4277D01*
X3094D01*
X3104Y4267D01*
X3094Y4257D01*
X3104D01*
X3114Y4247D01*
X5133Y5745D02*
X5144Y5756D01*
X5154D01*
X5144Y5766D01*
X5154Y5776D01*
X5144D01*
X5133Y5786D01*
X5123Y5776D01*
X5113D01*
X5123Y5766D01*
X5113Y5756D01*
X5123D01*
X5133Y5745D01*
X5349Y4488D02*
X5359Y4498D01*
X5370D01*
X5359Y4508D01*
X5370Y4519D01*
X5359D01*
X5349Y4529D01*
X5339Y4519D01*
X5329D01*
X5339Y4508D01*
X5329Y4498D01*
X5339D01*
X5349Y4488D01*
X4130Y4806D02*
X4140Y4816D01*
X4150D01*
X4140Y4826D01*
X4150Y4836D01*
X4140D01*
X4130Y4846D01*
X4120Y4836D01*
X4110D01*
X4120Y4826D01*
X4110Y4816D01*
X4120D01*
X4130Y4806D01*
X2898Y4996D02*
X2908Y5006D01*
X2918D01*
X2908Y5017D01*
X2918Y5027D01*
X2908D01*
X2898Y5037D01*
X2888Y5027D01*
X2878D01*
X2888Y5017D01*
X2878Y5006D01*
X2888D01*
X2898Y4996D01*
X4956Y4044D02*
X4966Y4054D01*
X4976D01*
X4966Y4064D01*
X4976Y4074D01*
X4966D01*
X4956Y4084D01*
X4945Y4074D01*
X4935D01*
X4945Y4064D01*
X4935Y4054D01*
X4945D01*
X4956Y4044D01*
X4244D02*
X4254Y4054D01*
X4265D01*
X4254Y4064D01*
X4265Y4074D01*
X4254D01*
X4244Y4084D01*
X4234Y4074D01*
X4224D01*
X4234Y4064D01*
X4224Y4054D01*
X4234D01*
X4244Y4044D01*
X5083Y4209D02*
X5093Y4219D01*
X5103D01*
X5093Y4229D01*
X5103Y4239D01*
X5093D01*
X5083Y4249D01*
X5072Y4239D01*
X5062D01*
X5072Y4229D01*
X5062Y4219D01*
X5072D01*
X5083Y4209D01*
X3432Y4018D02*
X3442Y4028D01*
X3452D01*
X3442Y4039D01*
X3452Y4049D01*
X3442D01*
X3432Y4059D01*
X3421Y4049D01*
X3411D01*
X3421Y4039D01*
X3411Y4028D01*
X3421D01*
X3432Y4018D01*
X5260Y3269D02*
X5271Y3279D01*
X5281D01*
X5271Y3289D01*
X5281Y3299D01*
X5271D01*
X5260Y3310D01*
X5250Y3299D01*
X5240D01*
X5250Y3289D01*
X5240Y3279D01*
X5250D01*
X5260Y3269D01*
X3698Y3739D02*
X3708Y3749D01*
X3719D01*
X3708Y3759D01*
X3719Y3769D01*
X3708D01*
X3698Y3780D01*
X3688Y3769D01*
X3678D01*
X3688Y3759D01*
X3678Y3749D01*
X3688D01*
X3698Y3739D01*
X2771Y5453D02*
X2781Y5464D01*
X2791D01*
X2781Y5474D01*
X2791Y5484D01*
X2781D01*
X2771Y5494D01*
X2761Y5484D01*
X2751D01*
X2761Y5474D01*
X2751Y5464D01*
X2761D01*
X2771Y5453D01*
X3152Y4298D02*
X3162Y4308D01*
X3172D01*
X3162Y4318D01*
X3172Y4328D01*
X3162D01*
X3152Y4338D01*
X3142Y4328D01*
X3132D01*
X3142Y4318D01*
X3132Y4308D01*
X3142D01*
X3152Y4298D01*
X5159Y3434D02*
X5169Y3444D01*
X5179D01*
X5169Y3454D01*
X5179Y3465D01*
X5169D01*
X5159Y3475D01*
X5149Y3465D01*
X5138D01*
X5149Y3454D01*
X5138Y3444D01*
X5149D01*
X5159Y3434D01*
X3800Y3980D02*
X3810Y3990D01*
X3820D01*
X3810Y4001D01*
X3820Y4011D01*
X3810D01*
X3800Y4021D01*
X3790Y4011D01*
X3780D01*
X3790Y4001D01*
X3780Y3990D01*
X3790D01*
X3800Y3980D01*
X4613Y5390D02*
X4623Y5400D01*
X4633D01*
X4623Y5410D01*
X4633Y5420D01*
X4623D01*
X4613Y5431D01*
X4602Y5420D01*
X4592D01*
X4602Y5410D01*
X4592Y5400D01*
X4602D01*
X4613Y5390D01*
X5502Y5212D02*
X5512Y5222D01*
X5522D01*
X5512Y5232D01*
X5522Y5243D01*
X5512D01*
X5502Y5253D01*
X5491Y5243D01*
X5481D01*
X5491Y5232D01*
X5481Y5222D01*
X5491D01*
X5502Y5212D01*
X5794Y5288D02*
X5804Y5298D01*
X5814D01*
X5804Y5309D01*
X5814Y5319D01*
X5804D01*
X5794Y5329D01*
X5784Y5319D01*
X5773D01*
X5784Y5309D01*
X5773Y5298D01*
X5784D01*
X5794Y5288D01*
X4867Y3802D02*
X4877Y3813D01*
X4887D01*
X4877Y3823D01*
X4887Y3833D01*
X4877D01*
X4867Y3843D01*
X4856Y3833D01*
X4846D01*
X4856Y3823D01*
X4846Y3813D01*
X4856D01*
X4867Y3802D01*
X5159Y3332D02*
X5169Y3343D01*
X5179D01*
X5169Y3353D01*
X5179Y3363D01*
X5169D01*
X5159Y3373D01*
X5149Y3363D01*
X5138D01*
X5149Y3353D01*
X5138Y3343D01*
X5149D01*
X5159Y3332D01*
X5298Y3472D02*
X5309Y3482D01*
X5319D01*
X5309Y3492D01*
X5319Y3503D01*
X5309D01*
X5298Y3513D01*
X5288Y3503D01*
X5278D01*
X5288Y3492D01*
X5278Y3482D01*
X5288D01*
X5298Y3472D01*
X4994Y3320D02*
X5004Y3330D01*
X5014D01*
X5004Y3340D01*
X5014Y3350D01*
X5004D01*
X4994Y3360D01*
X4983Y3350D01*
X4973D01*
X4983Y3340D01*
X4973Y3330D01*
X4983D01*
X4994Y3320D01*
X4816Y3929D02*
X4826Y3940D01*
X4836D01*
X4826Y3950D01*
X4836Y3960D01*
X4826D01*
X4816Y3970D01*
X4806Y3960D01*
X4796D01*
X4806Y3950D01*
X4796Y3940D01*
X4806D01*
X4816Y3929D01*
X4524Y3282D02*
X4534Y3292D01*
X4544D01*
X4534Y3302D01*
X4544Y3312D01*
X4534D01*
X4524Y3322D01*
X4514Y3312D01*
X4503D01*
X4514Y3302D01*
X4503Y3292D01*
X4514D01*
X4524Y3282D01*
X3063Y3472D02*
X3073Y3482D01*
X3084D01*
X3073Y3492D01*
X3084Y3503D01*
X3073D01*
X3063Y3513D01*
X3053Y3503D01*
X3043D01*
X3053Y3492D01*
X3043Y3482D01*
X3053D01*
X3063Y3472D01*
X4638Y4844D02*
X4648Y4854D01*
X4658D01*
X4648Y4864D01*
X4658Y4874D01*
X4648D01*
X4638Y4884D01*
X4628Y4874D01*
X4618D01*
X4628Y4864D01*
X4618Y4854D01*
X4628D01*
X4638Y4844D01*
X5133Y4831D02*
X5144Y4841D01*
X5154D01*
X5144Y4851D01*
X5154Y4862D01*
X5144D01*
X5133Y4872D01*
X5123Y4862D01*
X5113D01*
X5123Y4851D01*
X5113Y4841D01*
X5123D01*
X5133Y4831D01*
X5032Y4171D02*
X5042Y4181D01*
X5052D01*
X5042Y4191D01*
X5052Y4201D01*
X5042D01*
X5032Y4211D01*
X5022Y4201D01*
X5011D01*
X5022Y4191D01*
X5011Y4181D01*
X5022D01*
X5032Y4171D01*
X5083Y4285D02*
X5093Y4295D01*
X5103D01*
X5093Y4305D01*
X5103Y4315D01*
X5093D01*
X5083Y4326D01*
X5072Y4315D01*
X5062D01*
X5072Y4305D01*
X5062Y4295D01*
X5072D01*
X5083Y4285D01*
X5197Y4310D02*
X5207Y4321D01*
X5217D01*
X5207Y4331D01*
X5217Y4341D01*
X5207D01*
X5197Y4351D01*
X5187Y4341D01*
X5177D01*
X5187Y4331D01*
X5177Y4321D01*
X5187D01*
X5197Y4310D01*
X5324Y4260D02*
X5334Y4270D01*
X5344D01*
X5334Y4280D01*
X5344Y4290D01*
X5334D01*
X5324Y4300D01*
X5314Y4290D01*
X5304D01*
X5314Y4280D01*
X5304Y4270D01*
X5314D01*
X5324Y4260D01*
X3698Y4082D02*
X3708Y4092D01*
X3719D01*
X3708Y4102D01*
X3719Y4112D01*
X3708D01*
X3698Y4122D01*
X3688Y4112D01*
X3678D01*
X3688Y4102D01*
X3678Y4092D01*
X3688D01*
X3698Y4082D01*
X3647Y4133D02*
X3658Y4143D01*
X3668D01*
X3658Y4153D01*
X3668Y4163D01*
X3658D01*
X3647Y4173D01*
X3637Y4163D01*
X3627D01*
X3637Y4153D01*
X3627Y4143D01*
X3637D01*
X3647Y4133D01*
X3355Y3536D02*
X3365Y3546D01*
X3376D01*
X3365Y3556D01*
X3376Y3566D01*
X3365D01*
X3355Y3576D01*
X3345Y3566D01*
X3335D01*
X3345Y3556D01*
X3335Y3546D01*
X3345D01*
X3355Y3536D01*
X3508Y5796D02*
X3518Y5806D01*
X3528D01*
X3518Y5817D01*
X3528Y5827D01*
X3518D01*
X3508Y5837D01*
X3498Y5827D01*
X3487D01*
X3498Y5817D01*
X3487Y5806D01*
X3498D01*
X3508Y5796D01*
X5248Y4412D02*
X5258Y4422D01*
X5268D01*
X5258Y4432D01*
X5268Y4442D01*
X5258D01*
X5248Y4453D01*
X5237Y4442D01*
X5227D01*
X5237Y4432D01*
X5227Y4422D01*
X5237D01*
X5248Y4412D01*
X2911Y4869D02*
X2921Y4879D01*
X2931D01*
X2921Y4890D01*
X2931Y4900D01*
X2921D01*
X2911Y4910D01*
X2901Y4900D01*
X2891D01*
X2901Y4890D01*
X2891Y4879D01*
X2901D01*
X2911Y4869D01*
X2822Y5517D02*
X2832Y5527D01*
X2842D01*
X2832Y5537D01*
X2842Y5547D01*
X2832D01*
X2822Y5558D01*
X2812Y5547D01*
X2802D01*
X2812Y5537D01*
X2802Y5527D01*
X2812D01*
X2822Y5517D01*
X3800Y4971D02*
X3810Y4981D01*
X3820D01*
X3810Y4991D01*
X3820Y5001D01*
X3810D01*
X3800Y5011D01*
X3790Y5001D01*
X3780D01*
X3790Y4991D01*
X3780Y4981D01*
X3790D01*
X3800Y4971D01*
X4890Y5479D02*
X4900Y5489D01*
X4910D01*
X4900Y5499D01*
X4910Y5509D01*
X4900D01*
X4890Y5519D01*
X4879Y5509D01*
X4869D01*
X4879Y5499D01*
X4869Y5489D01*
X4879D01*
X4890Y5479D01*
X4321Y3459D02*
X4331Y3470D01*
X4341D01*
X4331Y3480D01*
X4341Y3490D01*
X4331D01*
X4321Y3500D01*
X4310Y3490D01*
X4300D01*
X4310Y3480D01*
X4300Y3470D01*
X4310D01*
X4321Y3459D01*
X4473Y3670D02*
X4483Y3680D01*
X4493D01*
X4483Y3691D01*
X4493Y3701D01*
X4483D01*
X4473Y3711D01*
X4463Y3701D01*
X4453D01*
X4463Y3691D01*
X4453Y3680D01*
X4463D01*
X4473Y3670D01*
X4778Y4806D02*
X4788Y4816D01*
X4798D01*
X4788Y4826D01*
X4798Y4836D01*
X4788D01*
X4778Y4846D01*
X4768Y4836D01*
X4757D01*
X4768Y4826D01*
X4757Y4816D01*
X4768D01*
X4778Y4806D01*
X4689Y4793D02*
X4699Y4803D01*
X4709D01*
X4699Y4813D01*
X4709Y4823D01*
X4699D01*
X4689Y4834D01*
X4679Y4823D01*
X4669D01*
X4679Y4813D01*
X4669Y4803D01*
X4679D01*
X4689Y4793D01*
X4841Y4704D02*
X4851Y4714D01*
X4862D01*
X4851Y4724D01*
X4862Y4735D01*
X4851D01*
X4841Y4745D01*
X4831Y4735D01*
X4821D01*
X4831Y4724D01*
X4821Y4714D01*
X4831D01*
X4841Y4704D01*
X4575Y4679D02*
X4585Y4689D01*
X4595D01*
X4585Y4699D01*
X4595Y4709D01*
X4585D01*
X4575Y4719D01*
X4564Y4709D01*
X4554D01*
X4564Y4699D01*
X4554Y4689D01*
X4564D01*
X4575Y4679D01*
X5537Y4841D02*
X5547Y4851D01*
X5558D01*
X5547Y4862D01*
X5558Y4872D01*
X5547D01*
X5537Y4882D01*
X5527Y4872D01*
X5517D01*
X5527Y4862D01*
X5517Y4851D01*
X5527D01*
X5537Y4841D01*
X4549Y4602D02*
X4559Y4613D01*
X4569D01*
X4559Y4623D01*
X4569Y4633D01*
X4559D01*
X4549Y4643D01*
X4539Y4633D01*
X4529D01*
X4539Y4623D01*
X4529Y4613D01*
X4539D01*
X4549Y4602D01*
X4397Y4920D02*
X4407Y4930D01*
X4417D01*
X4407Y4940D01*
X4417Y4950D01*
X4407D01*
X4397Y4961D01*
X4387Y4950D01*
X4376D01*
X4387Y4940D01*
X4376Y4930D01*
X4387D01*
X4397Y4920D01*
X4346Y5022D02*
X4356Y5032D01*
X4366D01*
X4356Y5042D01*
X4366Y5052D01*
X4356D01*
X4346Y5062D01*
X4336Y5052D01*
X4326D01*
X4336Y5042D01*
X4326Y5032D01*
X4336D01*
X4346Y5022D01*
X4486Y4742D02*
X4496Y4752D01*
X4506D01*
X4496Y4762D01*
X4506Y4773D01*
X4496D01*
X4486Y4783D01*
X4475Y4773D01*
X4465D01*
X4475Y4762D01*
X4465Y4752D01*
X4475D01*
X4486Y4742D01*
X4473Y4844D02*
X4483Y4854D01*
X4493D01*
X4483Y4864D01*
X4493Y4874D01*
X4483D01*
X4473Y4884D01*
X4463Y4874D01*
X4453D01*
X4463Y4864D01*
X4453Y4854D01*
X4463D01*
X4473Y4844D01*
X3749Y4031D02*
X3759Y4041D01*
X3769D01*
X3759Y4051D01*
X3769Y4061D01*
X3759D01*
X3749Y4072D01*
X3739Y4061D01*
X3729D01*
X3739Y4051D01*
X3729Y4041D01*
X3739D01*
X3749Y4031D01*
X2835Y3934D02*
X2845Y3945D01*
X2855D01*
X2845Y3955D01*
X2855Y3965D01*
X2845D01*
X2835Y3975D01*
X2824Y3965D01*
X2814D01*
X2824Y3955D01*
X2814Y3945D01*
X2824D01*
X2835Y3934D01*
X5298Y3332D02*
X5309Y3343D01*
X5319D01*
X5309Y3353D01*
X5319Y3363D01*
X5309D01*
X5298Y3373D01*
X5288Y3363D01*
X5278D01*
X5288Y3353D01*
X5278Y3343D01*
X5288D01*
X5298Y3332D01*
X4917Y4907D02*
X4928Y4917D01*
X4938D01*
X4928Y4928D01*
X4938Y4938D01*
X4928D01*
X4917Y4948D01*
X4907Y4938D01*
X4897D01*
X4907Y4928D01*
X4897Y4917D01*
X4907D01*
X4917Y4907D01*
X4244Y4844D02*
X4254Y4854D01*
X4265D01*
X4254Y4864D01*
X4265Y4874D01*
X4254D01*
X4244Y4884D01*
X4234Y4874D01*
X4224D01*
X4234Y4864D01*
X4224Y4854D01*
X4234D01*
X4244Y4844D01*
X3406Y5428D02*
X3416Y5438D01*
X3426D01*
X3416Y5448D01*
X3426Y5458D01*
X3416D01*
X3406Y5469D01*
X3396Y5458D01*
X3386D01*
X3396Y5448D01*
X3386Y5438D01*
X3396D01*
X3406Y5428D01*
X3736Y5441D02*
X3747Y5451D01*
X3757D01*
X3747Y5461D01*
X3757Y5471D01*
X3747D01*
X3736Y5481D01*
X3726Y5471D01*
X3716D01*
X3726Y5461D01*
X3716Y5451D01*
X3726D01*
X3736Y5441D01*
X3063Y4983D02*
X3073Y4994D01*
X3084D01*
X3073Y5004D01*
X3084Y5014D01*
X3073D01*
X3063Y5024D01*
X3053Y5014D01*
X3043D01*
X3053Y5004D01*
X3043Y4994D01*
X3053D01*
X3063Y4983D01*
X3559Y5479D02*
X3569Y5489D01*
X3579D01*
X3569Y5499D01*
X3579Y5509D01*
X3569D01*
X3559Y5519D01*
X3548Y5509D01*
X3538D01*
X3548Y5499D01*
X3538Y5489D01*
X3548D01*
X3559Y5479D01*
X3777Y3868D02*
X3787Y3879D01*
X3797D01*
X3787Y3889D01*
X3797Y3899D01*
X3787D01*
X3777Y3909D01*
X3767Y3899D01*
X3757D01*
X3767Y3889D01*
X3757Y3879D01*
X3767D01*
X3777Y3868D01*
X5083Y5784D02*
X5093Y5794D01*
X5103D01*
X5093Y5804D01*
X5103Y5814D01*
X5093D01*
X5083Y5824D01*
X5072Y5814D01*
X5062D01*
X5072Y5804D01*
X5062Y5794D01*
X5072D01*
X5083Y5784D01*
X4905Y5745D02*
X4915Y5756D01*
X4925D01*
X4915Y5766D01*
X4925Y5776D01*
X4915D01*
X4905Y5786D01*
X4895Y5776D01*
X4884D01*
X4895Y5766D01*
X4884Y5756D01*
X4895D01*
X4905Y5745D01*
X5128Y2888D02*
X5138Y2898D01*
X5149D01*
X5138Y2908D01*
X5149Y2918D01*
X5138D01*
X5128Y2929D01*
X5118Y2918D01*
X5108D01*
X5118Y2908D01*
X5108Y2898D01*
X5118D01*
X5128Y2888D01*
X5918Y4308D02*
X5928Y4328D01*
X5918Y4348D01*
X5939Y4338D01*
X5959Y4348D01*
X5949Y4328D01*
X5959Y4308D01*
X5939Y4318D01*
X5918Y4308D01*
X2644Y3917D02*
X2654Y3927D01*
X2664D01*
X2654Y3937D01*
X2664Y3947D01*
X2654D01*
X2644Y3957D01*
X2634Y3947D01*
X2624D01*
X2634Y3937D01*
X2624Y3927D01*
X2634D01*
X2644Y3917D01*
X3117Y3739D02*
X3127Y3759D01*
X3117Y3780D01*
X3137Y3769D01*
X3157Y3780D01*
X3147Y3759D01*
X3157Y3739D01*
X3137Y3749D01*
X3117Y3739D01*
X4549Y3078D02*
X4559Y3089D01*
X4569D01*
X4559Y3099D01*
X4569Y3109D01*
X4559D01*
X4549Y3119D01*
X4539Y3109D01*
X4529D01*
X4539Y3099D01*
X4529Y3089D01*
X4539D01*
X4549Y3078D01*
X4770Y2974D02*
X4780Y2984D01*
X4790D01*
X4780Y2995D01*
X4790Y3005D01*
X4780D01*
X4770Y3015D01*
X4760Y3005D01*
X4750D01*
X4760Y2995D01*
X4750Y2984D01*
X4760D01*
X4770Y2974D01*
X4346Y3104D02*
X4356Y3114D01*
X4366D01*
X4356Y3124D01*
X4366Y3134D01*
X4356D01*
X4346Y3145D01*
X4336Y3134D01*
X4326D01*
X4336Y3124D01*
X4326Y3114D01*
X4336D01*
X4346Y3104D01*
X4384Y2913D02*
X4394Y2924D01*
X4404D01*
X4394Y2934D01*
X4404Y2944D01*
X4394D01*
X4384Y2954D01*
X4374Y2944D01*
X4364D01*
X4374Y2934D01*
X4364Y2924D01*
X4374D01*
X4384Y2913D01*
X4376Y3269D02*
X4387Y3279D01*
X4397D01*
X4387Y3289D01*
X4397Y3299D01*
X4387D01*
X4376Y3310D01*
X4366Y3299D01*
X4356D01*
X4366Y3289D01*
X4356Y3279D01*
X4366D01*
X4376Y3269D01*
X4803Y3053D02*
X4813Y3063D01*
X4823D01*
X4813Y3073D01*
X4823Y3084D01*
X4813D01*
X4803Y3094D01*
X4793Y3084D01*
X4783D01*
X4793Y3073D01*
X4783Y3063D01*
X4793D01*
X4803Y3053D01*
X4651Y2980D02*
X4661Y2990D01*
X4671D01*
X4661Y3000D01*
X4671Y3010D01*
X4661D01*
X4651Y3020D01*
X4641Y3010D01*
X4630D01*
X4641Y3000D01*
X4630Y2990D01*
X4641D01*
X4651Y2980D01*
X3807Y2931D02*
X3818Y2941D01*
X3828D01*
X3818Y2951D01*
X3828Y2962D01*
X3818D01*
X3807Y2972D01*
X3797Y2962D01*
X3787D01*
X3797Y2951D01*
X3787Y2941D01*
X3797D01*
X3807Y2931D01*
X4117Y3650D02*
X4128Y3660D01*
X4138D01*
X4128Y3670D01*
X4138Y3680D01*
X4128D01*
X4117Y3691D01*
X4107Y3680D01*
X4097D01*
X4107Y3670D01*
X4097Y3660D01*
X4107D01*
X4117Y3650D01*
X3978Y3713D02*
X3988Y3724D01*
X3998D01*
X3988Y3734D01*
X3998Y3744D01*
X3988D01*
X3978Y3754D01*
X3967Y3744D01*
X3957D01*
X3967Y3734D01*
X3957Y3724D01*
X3967D01*
X3978Y3713D01*
X3889Y3028D02*
X3899Y3038D01*
X3909D01*
X3899Y3048D01*
X3909Y3058D01*
X3899D01*
X3889Y3068D01*
X3879Y3058D01*
X3868D01*
X3879Y3048D01*
X3868Y3038D01*
X3879D01*
X3889Y3028D01*
X2855Y3289D02*
X2865Y3310D01*
X2855Y3330D01*
X2875Y3320D01*
X2896Y3330D01*
X2885Y3310D01*
X2896Y3289D01*
X2875Y3299D01*
X2855Y3289D01*
X3101Y3955D02*
X3111Y3965D01*
X3122D01*
X3111Y3975D01*
X3122Y3985D01*
X3111D01*
X3101Y3995D01*
X3091Y3985D01*
X3081D01*
X3091Y3975D01*
X3081Y3965D01*
X3091D01*
X3101Y3955D01*
X3698Y2916D02*
X3708Y2926D01*
X3719D01*
X3708Y2936D01*
X3719Y2946D01*
X3708D01*
X3698Y2957D01*
X3688Y2946D01*
X3678D01*
X3688Y2936D01*
X3678Y2926D01*
X3688D01*
X3698Y2916D01*
X3668Y3068D02*
X3678Y3078D01*
X3688D01*
X3678Y3089D01*
X3688Y3099D01*
X3678D01*
X3668Y3109D01*
X3658Y3099D01*
X3647D01*
X3658Y3089D01*
X3647Y3078D01*
X3658D01*
X3668Y3068D01*
X3597Y3200D02*
X3607Y3211D01*
X3617D01*
X3607Y3221D01*
X3617Y3231D01*
X3607D01*
X3597Y3241D01*
X3586Y3231D01*
X3576D01*
X3586Y3221D01*
X3576Y3211D01*
X3586D01*
X3597Y3200D01*
M02*
