G04 Layer_Color=16711935*
%FSLAX42Y42*%
%MOMM*%
G71*
G01*
G75*
G04:AMPARAMS|DCode=23|XSize=0.61mm|YSize=0.91mm|CornerRadius=0.15mm|HoleSize=0mm|Usage=FLASHONLY|Rotation=180.000|XOffset=0mm|YOffset=0mm|HoleType=Round|Shape=RoundedRectangle|*
%AMROUNDEDRECTD23*
21,1,0.61,0.61,0,0,180.0*
21,1,0.30,0.91,0,0,180.0*
1,1,0.30,-0.15,0.30*
1,1,0.30,0.15,0.30*
1,1,0.30,0.15,-0.30*
1,1,0.30,-0.15,-0.30*
%
%ADD23ROUNDEDRECTD23*%
G04:AMPARAMS|DCode=25|XSize=0.51mm|YSize=0.61mm|CornerRadius=0.13mm|HoleSize=0mm|Usage=FLASHONLY|Rotation=90.000|XOffset=0mm|YOffset=0mm|HoleType=Round|Shape=RoundedRectangle|*
%AMROUNDEDRECTD25*
21,1,0.51,0.36,0,0,90.0*
21,1,0.25,0.61,0,0,90.0*
1,1,0.25,0.18,0.13*
1,1,0.25,0.18,-0.13*
1,1,0.25,-0.18,-0.13*
1,1,0.25,-0.18,0.13*
%
%ADD25ROUNDEDRECTD25*%
G04:AMPARAMS|DCode=26|XSize=0.51mm|YSize=0.61mm|CornerRadius=0.13mm|HoleSize=0mm|Usage=FLASHONLY|Rotation=0.000|XOffset=0mm|YOffset=0mm|HoleType=Round|Shape=RoundedRectangle|*
%AMROUNDEDRECTD26*
21,1,0.51,0.36,0,0,0.0*
21,1,0.25,0.61,0,0,0.0*
1,1,0.25,0.13,-0.18*
1,1,0.25,-0.13,-0.18*
1,1,0.25,-0.13,0.18*
1,1,0.25,0.13,0.18*
%
%ADD26ROUNDEDRECTD26*%
G04:AMPARAMS|DCode=36|XSize=0.71mm|YSize=1.32mm|CornerRadius=0.18mm|HoleSize=0mm|Usage=FLASHONLY|Rotation=0.000|XOffset=0mm|YOffset=0mm|HoleType=Round|Shape=RoundedRectangle|*
%AMROUNDEDRECTD36*
21,1,0.71,0.97,0,0,0.0*
21,1,0.36,1.32,0,0,0.0*
1,1,0.36,0.18,-0.48*
1,1,0.36,-0.18,-0.48*
1,1,0.36,-0.18,0.48*
1,1,0.36,0.18,0.48*
%
%ADD36ROUNDEDRECTD36*%
%ADD69R,0.46X0.46*%
%ADD114R,0.56X0.66*%
%ADD115R,0.66X0.56*%
%ADD120R,0.66X0.66*%
%ADD122R,0.46X0.46*%
%ADD132R,0.43X0.56*%
%ADD133R,0.30X0.56*%
%ADD140R,0.56X0.36*%
G04:AMPARAMS|DCode=141|XSize=0.56mm|YSize=0.36mm|CornerRadius=0.09mm|HoleSize=0mm|Usage=FLASHONLY|Rotation=0.000|XOffset=0mm|YOffset=0mm|HoleType=Round|Shape=RoundedRectangle|*
%AMROUNDEDRECTD141*
21,1,0.56,0.18,0,0,0.0*
21,1,0.39,0.36,0,0,0.0*
1,1,0.17,0.19,-0.09*
1,1,0.17,-0.19,-0.09*
1,1,0.17,-0.19,0.09*
1,1,0.17,0.19,0.09*
%
%ADD141ROUNDEDRECTD141*%
G04:AMPARAMS|DCode=142|XSize=0.76mm|YSize=1.47mm|CornerRadius=0.17mm|HoleSize=0mm|Usage=FLASHONLY|Rotation=0.000|XOffset=0mm|YOffset=0mm|HoleType=Round|Shape=RoundedRectangle|*
%AMROUNDEDRECTD142*
21,1,0.76,1.14,0,0,0.0*
21,1,0.43,1.47,0,0,0.0*
1,1,0.34,0.21,-0.57*
1,1,0.34,-0.21,-0.57*
1,1,0.34,-0.21,0.57*
1,1,0.34,0.21,0.57*
%
%ADD142ROUNDEDRECTD142*%
%ADD173R,0.51X0.51*%
%ADD174C,0.71*%
%ADD175C,2.26*%
%ADD177C,0.25*%
G04:AMPARAMS|DCode=178|XSize=1.07mm|YSize=1.07mm|CornerRadius=0.53mm|HoleSize=0mm|Usage=FLASHONLY|Rotation=180.000|XOffset=0mm|YOffset=0mm|HoleType=Round|Shape=RoundedRectangle|*
%AMROUNDEDRECTD178*
21,1,1.07,0.00,0,0,180.0*
21,1,0.00,1.07,0,0,180.0*
1,1,1.07,0.00,0.00*
1,1,1.07,0.00,0.00*
1,1,1.07,0.00,0.00*
1,1,1.07,0.00,0.00*
%
%ADD178ROUNDEDRECTD178*%
G04:AMPARAMS|DCode=179|XSize=0.85mm|YSize=0.85mm|CornerRadius=0.43mm|HoleSize=0mm|Usage=FLASHONLY|Rotation=180.000|XOffset=0mm|YOffset=0mm|HoleType=Round|Shape=RoundedRectangle|*
%AMROUNDEDRECTD179*
21,1,0.85,0.00,0,0,180.0*
21,1,0.00,0.85,0,0,180.0*
1,1,0.85,0.00,0.00*
1,1,0.85,0.00,0.00*
1,1,0.85,0.00,0.00*
1,1,0.85,0.00,0.00*
%
%ADD179ROUNDEDRECTD179*%
G04:AMPARAMS|DCode=180|XSize=1.07mm|YSize=1.07mm|CornerRadius=0.53mm|HoleSize=0mm|Usage=FLASHONLY|Rotation=90.000|XOffset=0mm|YOffset=0mm|HoleType=Round|Shape=RoundedRectangle|*
%AMROUNDEDRECTD180*
21,1,1.07,0.00,0,0,90.0*
21,1,0.00,1.07,0,0,90.0*
1,1,1.07,0.00,0.00*
1,1,1.07,0.00,0.00*
1,1,1.07,0.00,0.00*
1,1,1.07,0.00,0.00*
%
%ADD180ROUNDEDRECTD180*%
%ADD181R,0.91X0.36*%
%ADD182R,0.36X0.91*%
%ADD183R,1.47X1.96*%
%ADD184R,1.85X1.47*%
%ADD185R,1.47X1.66*%
%ADD186R,0.86X1.57*%
%ADD187R,0.91X0.41*%
%ADD188R,0.66X0.97*%
%ADD189R,0.97X0.66*%
%ADD190R,1.27X0.86*%
%ADD191R,0.30X1.17*%
%ADD192R,1.47X2.16*%
G04:AMPARAMS|DCode=193|XSize=0.3mm|YSize=1.17mm|CornerRadius=0.15mm|HoleSize=0mm|Usage=FLASHONLY|Rotation=180.000|XOffset=0mm|YOffset=0mm|HoleType=Round|Shape=RoundedRectangle|*
%AMROUNDEDRECTD193*
21,1,0.30,0.86,0,0,180.0*
21,1,0.00,1.17,0,0,180.0*
1,1,0.30,0.00,0.43*
1,1,0.30,0.00,0.43*
1,1,0.30,0.00,-0.43*
1,1,0.30,0.00,-0.43*
%
%ADD193ROUNDEDRECTD193*%
%ADD194R,0.48X1.37*%
%ADD195R,0.66X0.86*%
%ADD196R,0.69X1.32*%
G04:AMPARAMS|DCode=197|XSize=0.44mm|YSize=1mm|CornerRadius=0.15mm|HoleSize=0mm|Usage=FLASHONLY|Rotation=270.000|XOffset=0mm|YOffset=0mm|HoleType=Round|Shape=RoundedRectangle|*
%AMROUNDEDRECTD197*
21,1,0.44,0.71,0,0,270.0*
21,1,0.15,1.00,0,0,270.0*
1,1,0.29,-0.36,-0.08*
1,1,0.29,-0.36,0.08*
1,1,0.29,0.36,0.08*
1,1,0.29,0.36,-0.08*
%
%ADD197ROUNDEDRECTD197*%
G04:AMPARAMS|DCode=198|XSize=0.44mm|YSize=1mm|CornerRadius=0.15mm|HoleSize=0mm|Usage=FLASHONLY|Rotation=180.000|XOffset=0mm|YOffset=0mm|HoleType=Round|Shape=RoundedRectangle|*
%AMROUNDEDRECTD198*
21,1,0.44,0.71,0,0,180.0*
21,1,0.15,1.00,0,0,180.0*
1,1,0.29,-0.08,0.36*
1,1,0.29,0.08,0.36*
1,1,0.29,0.08,-0.36*
1,1,0.29,-0.08,-0.36*
%
%ADD198ROUNDEDRECTD198*%
G36*
X3135Y5311D02*
X3085D01*
X3135Y5362D01*
Y5311D01*
D02*
G37*
G36*
X3558Y3412D02*
X3673D01*
Y3389D01*
X3601D01*
Y3357D01*
X3673D01*
Y3334D01*
X3558D01*
Y3271D01*
X3153D01*
Y3334D01*
X3038D01*
Y3357D01*
X3109D01*
Y3389D01*
X3038D01*
Y3412D01*
X3153D01*
Y3476D01*
X3558D01*
Y3412D01*
D02*
G37*
G36*
X3481Y5451D02*
X3431Y5501D01*
X3481D01*
Y5451D01*
D02*
G37*
G36*
X4369Y6129D02*
Y6212D01*
X4451D01*
X4369Y6129D01*
D02*
G37*
G36*
X3882Y5899D02*
X3799D01*
Y5982D01*
X3882Y5899D01*
D02*
G37*
D23*
X5412Y3853D02*
D03*
X5272D02*
D03*
X5574Y3396D02*
D03*
X5434D02*
D03*
X5432Y5296D02*
D03*
X5292D02*
D03*
D25*
X5565Y4768D02*
D03*
Y4848D02*
D03*
X3617Y3727D02*
D03*
Y3807D02*
D03*
X5718Y5384D02*
D03*
Y5304D02*
D03*
X4194Y3600D02*
D03*
Y3700D02*
D03*
X5144Y4863D02*
D03*
Y4783D02*
D03*
X3553Y4822D02*
D03*
Y4902D02*
D03*
D26*
X5707Y5083D02*
D03*
X5627D02*
D03*
X5839Y3884D02*
D03*
X5759D02*
D03*
X5402Y3955D02*
D03*
X5322D02*
D03*
X2680Y4016D02*
D03*
X2760D02*
D03*
X3400Y3010D02*
D03*
X3320D02*
D03*
X2971Y3498D02*
D03*
X2891D02*
D03*
X5373Y3599D02*
D03*
X5453D02*
D03*
X2913Y3853D02*
D03*
X2833D02*
D03*
X4865Y2939D02*
D03*
X4945D02*
D03*
D36*
X2983Y5004D02*
D03*
X3143Y5004D02*
D03*
X2983Y4821D02*
D03*
X3143Y4821D02*
D03*
D69*
X4696Y2954D02*
D03*
Y2873D02*
D03*
Y2913D02*
D03*
D03*
D114*
X3533Y5997D02*
D03*
X3432D02*
D03*
X5616Y5184D02*
D03*
X5717D02*
D03*
X3523Y2908D02*
D03*
X3422D02*
D03*
X4155Y2916D02*
D03*
X4256D02*
D03*
X5022Y2908D02*
D03*
X5122D02*
D03*
X5349Y4661D02*
D03*
X5450D02*
D03*
X5349Y4572D02*
D03*
X5450D02*
D03*
X5641D02*
D03*
X5541D02*
D03*
X5641Y4661D02*
D03*
X5541D02*
D03*
X2812Y4544D02*
D03*
X2913D02*
D03*
X5352Y5204D02*
D03*
X5453D02*
D03*
X4666Y3056D02*
D03*
X4767D02*
D03*
X2781Y3691D02*
D03*
X2882D02*
D03*
X5143Y5916D02*
D03*
X5244D02*
D03*
X4156Y3101D02*
D03*
X4257D02*
D03*
X2883Y3599D02*
D03*
X2782D02*
D03*
X4326Y3053D02*
D03*
X4426D02*
D03*
X3122Y4671D02*
D03*
X3021D02*
D03*
X5352Y3721D02*
D03*
X5251D02*
D03*
D115*
X5311Y6109D02*
D03*
Y6008D02*
D03*
X2690Y5326D02*
D03*
Y5427D02*
D03*
Y4839D02*
D03*
Y4738D02*
D03*
X2680Y3752D02*
D03*
Y3651D02*
D03*
X5880Y3782D02*
D03*
Y3681D02*
D03*
X5753Y4991D02*
D03*
Y4890D02*
D03*
X5890Y5215D02*
D03*
Y5315D02*
D03*
X3178Y6027D02*
D03*
Y5927D02*
D03*
X4084Y2960D02*
D03*
Y3061D02*
D03*
X3289Y6027D02*
D03*
Y5927D02*
D03*
X5138Y5499D02*
D03*
Y5398D02*
D03*
Y5133D02*
D03*
Y5033D02*
D03*
Y5316D02*
D03*
Y5215D02*
D03*
X5149Y5763D02*
D03*
Y5662D02*
D03*
X3078Y3680D02*
D03*
Y3781D02*
D03*
X3553Y5095D02*
D03*
Y4994D02*
D03*
D120*
X4615Y2913D02*
D03*
X4776D02*
D03*
D122*
X2903Y5283D02*
D03*
D132*
X5184Y3833D02*
D03*
X4834D02*
D03*
Y3682D02*
D03*
X5184D02*
D03*
X4640Y3833D02*
D03*
X4290D02*
D03*
Y3682D02*
D03*
X4640D02*
D03*
X3546Y3838D02*
D03*
X3195D02*
D03*
Y3687D02*
D03*
X3546D02*
D03*
X4097Y3835D02*
D03*
X3747D02*
D03*
Y3684D02*
D03*
X4097D02*
D03*
D133*
X5134Y3833D02*
D03*
X5084D02*
D03*
X5034D02*
D03*
X4983D02*
D03*
X4933D02*
D03*
X4882D02*
D03*
Y3682D02*
D03*
X4933D02*
D03*
X4983D02*
D03*
X5034D02*
D03*
X5084D02*
D03*
X5134D02*
D03*
X4590Y3833D02*
D03*
X4540D02*
D03*
X4490D02*
D03*
X4440D02*
D03*
X4389D02*
D03*
X4338D02*
D03*
Y3682D02*
D03*
X4389D02*
D03*
X4440D02*
D03*
X4490D02*
D03*
X4540D02*
D03*
X4590D02*
D03*
X3496Y3838D02*
D03*
X3446D02*
D03*
X3396D02*
D03*
X3345D02*
D03*
X3294D02*
D03*
X3244D02*
D03*
Y3687D02*
D03*
X3294D02*
D03*
X3345D02*
D03*
X3396D02*
D03*
X3446D02*
D03*
X3496D02*
D03*
X4047Y3835D02*
D03*
X3997D02*
D03*
X3947D02*
D03*
X3896D02*
D03*
X3846D02*
D03*
X3795D02*
D03*
Y3684D02*
D03*
X3846D02*
D03*
X3896D02*
D03*
X3947D02*
D03*
X3997D02*
D03*
X4047D02*
D03*
D140*
X5272Y5677D02*
D03*
D141*
X5433D02*
D03*
Y5728D02*
D03*
Y5778D02*
D03*
Y5828D02*
D03*
X5272D02*
D03*
Y5778D02*
D03*
Y5728D02*
D03*
D142*
X5352Y5753D02*
D03*
D173*
X5291Y5570D02*
D03*
X5371D02*
D03*
D174*
X3170Y4080D02*
D03*
D175*
X5791Y6022D02*
D03*
X2791D02*
D03*
Y3023D02*
D03*
D177*
X4275Y3256D02*
D03*
X4793Y3251D02*
D03*
D178*
X3020Y3203D02*
D03*
X2807Y3355D02*
D03*
X5578Y5563D02*
D03*
X5248Y5474D02*
D03*
X2944Y5697D02*
D03*
D179*
X2657Y3843D02*
D03*
D180*
X5718Y5677D02*
D03*
X5916Y3355D02*
D03*
X5535Y3233D02*
D03*
D181*
X4186Y3301D02*
D03*
Y3452D02*
D03*
X3735D02*
D03*
Y3301D02*
D03*
X5298D02*
D03*
Y3452D02*
D03*
X4847D02*
D03*
Y3301D02*
D03*
X4745D02*
D03*
Y3452D02*
D03*
X4294D02*
D03*
Y3301D02*
D03*
D182*
X4135Y3551D02*
D03*
X4087D02*
D03*
X4036D02*
D03*
X3985D02*
D03*
X3935D02*
D03*
X3885D02*
D03*
X3835D02*
D03*
X3785D02*
D03*
Y3201D02*
D03*
X3835D02*
D03*
X3885D02*
D03*
X3935D02*
D03*
X3985D02*
D03*
X4036D02*
D03*
X4087D02*
D03*
X4135D02*
D03*
X5248Y3551D02*
D03*
X5199D02*
D03*
X5149D02*
D03*
X5098D02*
D03*
X5047D02*
D03*
X4997D02*
D03*
X4947D02*
D03*
X4897D02*
D03*
Y3201D02*
D03*
X4947D02*
D03*
X4997D02*
D03*
X5047D02*
D03*
X5098D02*
D03*
X5149D02*
D03*
X5199D02*
D03*
X5248D02*
D03*
X4694Y3551D02*
D03*
X4646D02*
D03*
X4595D02*
D03*
X4544D02*
D03*
X4494D02*
D03*
X4444D02*
D03*
X4394D02*
D03*
X4344D02*
D03*
Y3201D02*
D03*
X4394D02*
D03*
X4444D02*
D03*
X4494D02*
D03*
X4544D02*
D03*
X4595D02*
D03*
X4646D02*
D03*
X4694D02*
D03*
D183*
X3696Y6025D02*
D03*
D184*
X3856Y4709D02*
D03*
X4426D02*
D03*
D185*
X5036Y6114D02*
D03*
D186*
X3774Y5740D02*
D03*
X3884D02*
D03*
X3993Y5761D02*
D03*
X4105Y5740D02*
D03*
X4214Y5761D02*
D03*
X4323Y5740D02*
D03*
X4435Y5700D02*
D03*
X4545Y5740D02*
D03*
D187*
X3619Y3022D02*
D03*
X3975D02*
D03*
X3619Y2957D02*
D03*
Y2891D02*
D03*
X3975Y2957D02*
D03*
Y2891D02*
D03*
Y3087D02*
D03*
X3619D02*
D03*
D188*
X3406Y6119D02*
D03*
X3557D02*
D03*
X3345Y2918D02*
D03*
X3194D02*
D03*
X4328Y2929D02*
D03*
X4479D02*
D03*
X5207Y2918D02*
D03*
X5358D02*
D03*
X3174Y6119D02*
D03*
X3325D02*
D03*
D189*
X5413Y6007D02*
D03*
Y6158D02*
D03*
X2690Y5494D02*
D03*
Y5645D02*
D03*
Y4671D02*
D03*
Y4520D02*
D03*
X2692Y3584D02*
D03*
Y3433D02*
D03*
X5880Y3614D02*
D03*
Y3463D02*
D03*
X5870Y4945D02*
D03*
Y4794D02*
D03*
X5890Y5392D02*
D03*
Y5544D02*
D03*
X5189Y6011D02*
D03*
Y6162D02*
D03*
D190*
X5860Y4585D02*
D03*
Y4403D02*
D03*
D191*
X3297Y4010D02*
D03*
Y4531D02*
D03*
X3345Y4010D02*
D03*
Y4531D02*
D03*
X3396Y4010D02*
D03*
Y4531D02*
D03*
X3447Y4010D02*
D03*
Y4531D02*
D03*
X3495Y4010D02*
D03*
Y4531D02*
D03*
X3546Y4010D02*
D03*
Y4531D02*
D03*
X3597Y4010D02*
D03*
Y4531D02*
D03*
X3645Y4010D02*
D03*
Y4531D02*
D03*
X3696Y4010D02*
D03*
Y4531D02*
D03*
X3747Y4010D02*
D03*
Y4531D02*
D03*
X3795D02*
D03*
X3846D02*
D03*
X3896D02*
D03*
X3947D02*
D03*
X3995D02*
D03*
X4046D02*
D03*
X4097D02*
D03*
X4145D02*
D03*
X4196D02*
D03*
X4247D02*
D03*
X4297D02*
D03*
X4347D02*
D03*
X4397D02*
D03*
X4447D02*
D03*
X4497D02*
D03*
X4547D02*
D03*
X4597D02*
D03*
X4647D02*
D03*
X4697D02*
D03*
X4747D02*
D03*
X4797D02*
D03*
X4847D02*
D03*
X4897D02*
D03*
X4947D02*
D03*
X4997D02*
D03*
X5047D02*
D03*
X5097D02*
D03*
X5147D02*
D03*
X5197D02*
D03*
X3795Y4010D02*
D03*
X3846D02*
D03*
X3896D02*
D03*
X3947D02*
D03*
X3995D02*
D03*
X4046D02*
D03*
X4097D02*
D03*
X4145D02*
D03*
X4196D02*
D03*
X4247D02*
D03*
X4297D02*
D03*
X4347D02*
D03*
X4397D02*
D03*
X4447D02*
D03*
X4497D02*
D03*
X4547D02*
D03*
X4597D02*
D03*
X4647D02*
D03*
X4697D02*
D03*
X4747D02*
D03*
X4797D02*
D03*
X4847D02*
D03*
X4897D02*
D03*
X4947D02*
D03*
X4997D02*
D03*
X5047D02*
D03*
X5097D02*
D03*
X5147D02*
D03*
X5197D02*
D03*
X5247D02*
D03*
D192*
X3071Y4270D02*
D03*
X5472D02*
D03*
D193*
X5247Y4531D02*
D03*
D194*
X2874Y4384D02*
D03*
X2809D02*
D03*
X2743D02*
D03*
X2677D02*
D03*
Y4147D02*
D03*
X2743D02*
D03*
X2809D02*
D03*
X2874D02*
D03*
X5449Y5050D02*
D03*
X5384D02*
D03*
X5319D02*
D03*
X5253D02*
D03*
Y4813D02*
D03*
X5319D02*
D03*
X5384D02*
D03*
X5449D02*
D03*
D195*
X3424Y4694D02*
D03*
Y4946D02*
D03*
D196*
X2911Y3993D02*
D03*
X3000D02*
D03*
X3089D02*
D03*
D197*
X3631Y3298D02*
D03*
Y3449D02*
D03*
X3080Y3298D02*
D03*
X3080Y3449D02*
D03*
D198*
X3581Y3548D02*
D03*
X3532Y3548D02*
D03*
X3482D02*
D03*
X3431Y3548D02*
D03*
X3380D02*
D03*
X3330D02*
D03*
X3280Y3548D02*
D03*
X3280Y3198D02*
D03*
X3330D02*
D03*
X3380D02*
D03*
X3431D02*
D03*
X3482D02*
D03*
X3532D02*
D03*
X3581D02*
D03*
X3130D02*
D03*
Y3548D02*
D03*
X3230Y3198D02*
D03*
X3180D02*
D03*
Y3548D02*
D03*
X3230D02*
D03*
M02*
