G04 Layer_Color=65535*
%FSLAX42Y42*%
%MOMM*%
G71*
G01*
G75*
%ADD64C,0.15*%
%ADD65C,0.15*%
%ADD66C,0.30*%
%ADD68C,0.25*%
%ADD102C,0.13*%
%ADD103C,0.10*%
%ADD104C,0.20*%
%ADD105C,0.80*%
%ADD106C,0.51*%
%ADD107C,0.76*%
%ADD108C,0.05*%
%ADD109R,0.15X0.60*%
%ADD110R,0.60X0.15*%
G04:AMPARAMS|DCode=111|XSize=0.15mm|YSize=0.6mm|CornerRadius=0mm|HoleSize=0mm|Usage=FLASHONLY|Rotation=225.000|XOffset=0mm|YOffset=0mm|HoleType=Round|Shape=Rectangle|*
%AMROTATEDRECTD111*
4,1,4,-0.16,0.27,0.27,-0.16,0.16,-0.27,-0.27,0.16,-0.16,0.27,0.0*
%
%ADD111ROTATEDRECTD111*%

%ADD112R,0.46X0.76*%
G04:AMPARAMS|DCode=113|XSize=0.15mm|YSize=0.6mm|CornerRadius=0mm|HoleSize=0mm|Usage=FLASHONLY|Rotation=315.000|XOffset=0mm|YOffset=0mm|HoleType=Round|Shape=Rectangle|*
%AMROTATEDRECTD113*
4,1,4,-0.27,-0.16,0.16,0.27,0.27,0.16,-0.16,-0.27,-0.27,-0.16,0.0*
%
%ADD113ROTATEDRECTD113*%

D64*
X5230Y5469D02*
Y5670D01*
X5431Y5469D02*
Y5670D01*
X5420Y5875D02*
X5424D01*
X5809Y4330D02*
Y4333D01*
X3096Y5311D02*
Y5315D01*
X3350Y5193D02*
Y5197D01*
X2751Y5090D02*
Y5094D01*
X3046Y5225D02*
X3198D01*
X2996Y5023D02*
X3198D01*
X4723Y5843D02*
X4844D01*
X4723Y5682D02*
X4844D01*
X3279Y2957D02*
Y2960D01*
X3188Y4862D02*
Y4865D01*
X5481Y5126D02*
Y5486D01*
X5954Y5126D02*
Y5486D01*
X4752Y5620D02*
Y5624D01*
X2704Y4358D02*
X2707Y4360D01*
X3106Y4747D02*
X3108Y4749D01*
X3198Y4425D02*
Y4428D01*
X3200Y4638D02*
X3204D01*
X2647Y4524D02*
X2648Y4565D01*
X2903Y4819D01*
X2945Y4821D01*
X3158Y4607D01*
X3158Y4565D02*
X3158Y4607D01*
X2903Y4310D02*
X3158Y4565D01*
X2861Y4310D02*
X2903Y4310D01*
X2647Y4524D02*
X2861Y4310D01*
X2882Y4543D02*
X2910D01*
X3832Y3856D02*
X3835Y3854D01*
X4254Y3326D02*
X4256Y3323D01*
X5354Y5296D02*
Y5299D01*
X4166Y3375D02*
X4169Y3372D01*
X3858Y3294D02*
X3860Y3296D01*
X3960Y3273D02*
X4001Y3272D01*
X3705Y3528D02*
X3960Y3273D01*
X3703Y3569D02*
X3705Y3528D01*
X3703Y3569D02*
X3917Y3783D01*
X3960Y3783D01*
X4214Y3528D01*
X4214Y3486D01*
X4001Y3272D02*
X4214Y3486D01*
X3981Y3507D02*
Y3535D01*
D65*
X5487Y5650D02*
G03*
X5487Y5650I-15J0D01*
G01*
X4773Y5803D02*
G03*
X4773Y5803I-10J0D01*
G01*
D66*
X2892Y4260D02*
G03*
X2892Y4260I-10J0D01*
G01*
X4274Y3507D02*
G03*
X4274Y3507I-10J0D01*
G01*
X3890Y5845D02*
X3940D01*
X3890D02*
Y5994D01*
X4641Y5845D02*
X4691D01*
Y5994D01*
D68*
X3786Y4495D02*
G03*
X3786Y4495I-25J0D01*
G01*
X3218Y4197D02*
G03*
X3218Y4197I-30J0D01*
G01*
X3672Y4442D02*
X4592Y3521D01*
X4628D01*
X5583Y4476D01*
X5583Y4512D01*
X4628Y5467D02*
X5583Y4512D01*
X4592Y5467D02*
X4628D01*
X3672Y4547D02*
X4592Y5467D01*
X3672Y4442D02*
X3672Y4547D01*
X3207Y4301D02*
X3647Y3861D01*
X3168Y4301D02*
X3207D01*
X2728Y3861D02*
X3168Y4301D01*
X2728Y3861D02*
X2730Y3823D01*
X3170Y3383D01*
X3206D01*
X3646Y3823D01*
X3647Y3861D01*
D102*
X3967Y2843D02*
G03*
X3967Y2843I-10J0D01*
G01*
X5703Y4145D02*
G03*
X5703Y4145I-13J0D01*
G01*
X5903Y6022D02*
G03*
X5903Y6022I-112J0D01*
G01*
X2903D02*
G03*
X2903Y6022I-112J0D01*
G01*
Y3023D02*
G03*
X2903Y3023I-112J0D01*
G01*
X3406Y3167D02*
X3516D01*
X3406Y2876D02*
X3516D01*
X3406D02*
Y3167D01*
X3536Y3053D02*
X3937D01*
X3536Y3104D02*
X3937D01*
X3536Y3053D02*
Y3104D01*
Y2933D02*
Y2983D01*
X3937D01*
X3536Y2933D02*
X3937D01*
X4067Y2876D02*
Y3167D01*
X3957Y2876D02*
X4067D01*
X3957Y3167D02*
X4067D01*
X3937Y2933D02*
Y2983D01*
Y3053D02*
Y3104D01*
X4616Y2873D02*
Y2954D01*
X4778D01*
Y2873D02*
Y2954D01*
X4616Y2873D02*
X4778D01*
X2863Y5202D02*
Y5363D01*
Y5202D02*
X2944D01*
Y5363D01*
X2863D02*
X2944D01*
D103*
X5773Y4077D02*
G03*
X5773Y4077I-15J0D01*
G01*
X5574Y3569D02*
G03*
X5574Y3569I-15J0D01*
G01*
X5829Y4067D02*
X5845Y4077D01*
X5829Y4067D02*
Y4087D01*
X5845Y4077D01*
X5758D02*
X5845D01*
X5748Y4007D02*
X5758Y3997D01*
X5748Y4007D02*
X5768D01*
X5758Y3997D02*
X5768Y4007D01*
X5758Y3997D02*
Y4077D01*
X5885Y3912D02*
X5923D01*
Y3952D01*
X5593Y4242D02*
X5633D01*
X5593Y4204D02*
Y4242D01*
X4714Y3082D02*
Y3162D01*
X4344Y3082D02*
Y3162D01*
X3706Y5745D02*
X3787D01*
X3706Y5375D02*
X3787D01*
X5629Y3579D02*
X5649Y3569D01*
X5629Y3559D02*
Y3579D01*
Y3559D02*
X5649Y3569D01*
X5559D02*
X5649D01*
X5559Y3659D02*
X5569Y3639D01*
X5549D02*
X5569D01*
X5549D02*
X5559Y3659D01*
Y3569D02*
Y3659D01*
D104*
X5913Y5405D02*
G03*
X5913Y5405I-15J0D01*
G01*
X4096Y5355D02*
X4186Y5444D01*
X3988Y5462D02*
X4078Y5552D01*
X5098Y6007D02*
Y6088D01*
X5037D02*
X5098D01*
X4816Y6007D02*
Y6088D01*
X4876D01*
X4851Y2936D02*
X4902Y2886D01*
X5353D02*
X5403D01*
Y2936D01*
X5353Y3236D02*
X5403D01*
Y3188D02*
Y3236D01*
X4851D02*
X4902D01*
X4851Y3188D02*
Y3236D01*
X5469Y3741D02*
X5494Y3767D01*
X5756D02*
X5781D01*
Y3741D02*
Y3767D01*
X5469Y3454D02*
Y3479D01*
Y3454D02*
X5494D01*
X5781D02*
Y3479D01*
X5756Y3454D02*
X5781D01*
D105*
X5791Y3272D02*
G03*
X5542Y3023I0J-249D01*
G01*
X3292Y2825D02*
X5542D01*
Y3023D01*
X5791Y3272D02*
X5990D01*
Y4425D01*
X3399Y6220D02*
X5791D01*
X2590Y3024D02*
Y4425D01*
D106*
X5250Y5850D02*
Y5860D01*
Y5961D02*
Y5972D01*
X3411Y5067D02*
Y5077D01*
X5748Y4458D02*
Y4468D01*
D107*
X5131Y5616D02*
X5141D01*
X3391Y4872D02*
Y4882D01*
X3401Y5339D02*
Y5349D01*
X2746Y5296D02*
X2756D01*
D108*
X5713Y4123D02*
X5730D01*
Y4119D01*
X5713Y4101D01*
Y4097D01*
X5730D01*
X5824Y4123D02*
Y4119D01*
X5833Y4110D01*
X5841Y4119D01*
Y4123D01*
X5833Y4110D02*
Y4097D01*
X5713Y4028D02*
X5730Y4002D01*
Y4028D02*
X5713Y4002D01*
X5656Y3583D02*
X5673Y3557D01*
Y3583D02*
X5656Y3557D01*
X5539Y3543D02*
X5556D01*
Y3538D01*
X5539Y3521D01*
Y3517D01*
X5556D01*
X5549Y3698D02*
Y3693D01*
X5557Y3685D01*
X5566Y3693D01*
Y3698D01*
X5557Y3685D02*
Y3672D01*
D109*
X3254Y3154D02*
D03*
X3980Y5702D02*
D03*
X5773Y4582D02*
D03*
X3625Y5814D02*
D03*
X3614Y6089D02*
D03*
X3622Y4953D02*
D03*
X3686Y5083D02*
D03*
X2822Y5692D02*
D03*
X4256Y2933D02*
D03*
D110*
X3802Y5258D02*
D03*
X3385Y4557D02*
D03*
X3472D02*
D03*
X5806Y4768D02*
D03*
X3594Y5255D02*
D03*
X3685D02*
D03*
X2710Y4940D02*
D03*
X3393Y2982D02*
D03*
X3579Y4483D02*
D03*
X3302Y4557D02*
D03*
D111*
X3935Y5161D02*
D03*
D112*
X3411Y5621D02*
D03*
D113*
X3193Y3681D02*
D03*
M02*
